G04 #@! TF.GenerationSoftware,KiCad,Pcbnew,5.0.0-rc2-unknown-bfa8903~65~ubuntu16.04.1*
G04 #@! TF.CreationDate,2018-06-03T14:39:05-05:00*
G04 #@! TF.ProjectId,omega-dock-new,6F6D6567612D646F636B2D6E65772E6B,rev?*
G04 #@! TF.SameCoordinates,Original*
G04 #@! TF.FileFunction,Paste,Bot*
G04 #@! TF.FilePolarity,Positive*
%FSLAX46Y46*%
G04 Gerber Fmt 4.6, Leading zero omitted, Abs format (unit mm)*
G04 Created by KiCad (PCBNEW 5.0.0-rc2-unknown-bfa8903~65~ubuntu16.04.1) date Sun Jun  3 14:39:05 2018*
%MOMM*%
%LPD*%
G01*
G04 APERTURE LIST*
%ADD10R,1.500000X1.145000*%
%ADD11R,1.300000X1.500000*%
%ADD12R,5.000000X1.800000*%
%ADD13R,2.000000X3.800000*%
%ADD14R,2.000000X1.500000*%
%ADD15R,2.600000X1.600000*%
%ADD16R,1.550000X0.600000*%
G04 APERTURE END LIST*
D10*
G04 #@! TO.C,R10*
X116000000Y-84042500D03*
X116000000Y-81957500D03*
G04 #@! TD*
G04 #@! TO.C,R11*
X116000000Y-74042500D03*
X116000000Y-71957500D03*
G04 #@! TD*
G04 #@! TO.C,R12*
X116000000Y-63957500D03*
X116000000Y-66042500D03*
G04 #@! TD*
D11*
G04 #@! TO.C,U5*
X128500000Y-88080000D03*
X128500000Y-85540000D03*
X128500000Y-83000000D03*
X119500000Y-83000000D03*
X119500000Y-85540000D03*
X119500000Y-88080000D03*
G04 #@! TD*
G04 #@! TO.C,U6*
X119302500Y-78080000D03*
X119302500Y-75540000D03*
X119302500Y-73000000D03*
X128302500Y-73000000D03*
X128302500Y-75540000D03*
X128302500Y-78080000D03*
G04 #@! TD*
G04 #@! TO.C,U7*
X119302500Y-68304048D03*
X119302500Y-65764048D03*
X119302500Y-63224048D03*
X128302500Y-63224048D03*
X128302500Y-65764048D03*
X128302500Y-68304048D03*
G04 #@! TD*
D12*
G04 #@! TO.C,L2*
X139000000Y-95030000D03*
X139000000Y-91330000D03*
G04 #@! TD*
D10*
G04 #@! TO.C,R13*
X131000000Y-86042500D03*
X131000000Y-83957500D03*
G04 #@! TD*
G04 #@! TO.C,R14*
X131000000Y-74957500D03*
X131000000Y-77042500D03*
G04 #@! TD*
G04 #@! TO.C,R15*
X131000000Y-65957500D03*
X131000000Y-68042500D03*
G04 #@! TD*
D13*
G04 #@! TO.C,U3*
X156850000Y-101000000D03*
D14*
X163150000Y-101000000D03*
X163150000Y-103300000D03*
X163150000Y-98700000D03*
G04 #@! TD*
D15*
G04 #@! TO.C,C7*
X161800000Y-94000000D03*
X158200000Y-94000000D03*
G04 #@! TD*
D16*
G04 #@! TO.C,U12*
X136700000Y-128095000D03*
X136700000Y-129365000D03*
X136700000Y-130635000D03*
X136700000Y-131905000D03*
X131300000Y-131905000D03*
X131300000Y-130635000D03*
X131300000Y-129365000D03*
X131300000Y-128095000D03*
G04 #@! TD*
D15*
G04 #@! TO.C,C9*
X160700000Y-109000000D03*
X164300000Y-109000000D03*
G04 #@! TD*
M02*
