G04 #@! TF.GenerationSoftware,KiCad,Pcbnew,5.0.0-rc2-unknown-bfa8903~65~ubuntu16.04.1*
G04 #@! TF.CreationDate,2018-06-03T14:39:05-05:00*
G04 #@! TF.ProjectId,omega-dock-new,6F6D6567612D646F636B2D6E65772E6B,rev?*
G04 #@! TF.SameCoordinates,Original*
G04 #@! TF.FileFunction,Other,User*
%FSLAX46Y46*%
G04 Gerber Fmt 4.6, Leading zero omitted, Abs format (unit mm)*
G04 Created by KiCad (PCBNEW 5.0.0-rc2-unknown-bfa8903~65~ubuntu16.04.1) date Sun Jun  3 14:39:05 2018*
%MOMM*%
%LPD*%
G01*
G04 APERTURE LIST*
%ADD10C,0.050000*%
G04 APERTURE END LIST*
D10*
G04 #@! TO.C,C13*
X146471244Y-86053214D02*
X146471244Y-81353214D01*
X146471244Y-81353214D02*
X160171244Y-81353214D01*
X160171244Y-81353214D02*
X160171244Y-86053214D01*
X160171244Y-86053214D02*
X146471244Y-86053214D01*
G04 #@! TO.C,C14*
X146471244Y-80053214D02*
X146471244Y-75353214D01*
X146471244Y-75353214D02*
X160171244Y-75353214D01*
X160171244Y-75353214D02*
X160171244Y-80053214D01*
X160171244Y-80053214D02*
X146471244Y-80053214D01*
G04 #@! TO.C,R10*
X115000000Y-84860000D02*
X117000000Y-84860000D01*
X117000000Y-84860000D02*
X117000000Y-81140000D01*
X117000000Y-81140000D02*
X115000000Y-81140000D01*
X115000000Y-81140000D02*
X115000000Y-84860000D01*
G04 #@! TO.C,R11*
X115000000Y-74860000D02*
X117000000Y-74860000D01*
X117000000Y-74860000D02*
X117000000Y-71140000D01*
X117000000Y-71140000D02*
X115000000Y-71140000D01*
X115000000Y-71140000D02*
X115000000Y-74860000D01*
G04 #@! TO.C,R12*
X115000000Y-63140000D02*
X115000000Y-66860000D01*
X117000000Y-63140000D02*
X115000000Y-63140000D01*
X117000000Y-66860000D02*
X117000000Y-63140000D01*
X115000000Y-66860000D02*
X117000000Y-66860000D01*
G04 #@! TO.C,RV1*
X135050000Y-90130000D02*
X135050000Y-92730000D01*
X135050000Y-92730000D02*
X127950000Y-92730000D01*
X127950000Y-92730000D02*
X127950000Y-90130000D01*
X127950000Y-90130000D02*
X135050000Y-90130000D01*
G04 #@! TO.C,C15*
X146471244Y-74053214D02*
X146471244Y-69353214D01*
X146471244Y-69353214D02*
X160171244Y-69353214D01*
X160171244Y-69353214D02*
X160171244Y-74053214D01*
X160171244Y-74053214D02*
X146471244Y-74053214D01*
G04 #@! TO.C,R16*
X145571244Y-85353214D02*
X133271244Y-85353214D01*
X145571244Y-82053214D02*
X145571244Y-85353214D01*
X133271244Y-82053214D02*
X145571244Y-82053214D01*
X133271244Y-85353214D02*
X133271244Y-82053214D01*
G04 #@! TO.C,R17*
X133271244Y-79353214D02*
X133271244Y-76053214D01*
X133271244Y-76053214D02*
X145571244Y-76053214D01*
X145571244Y-76053214D02*
X145571244Y-79353214D01*
X145571244Y-79353214D02*
X133271244Y-79353214D01*
G04 #@! TO.C,R18*
X133271244Y-73353214D02*
X133271244Y-70053214D01*
X133271244Y-70053214D02*
X145571244Y-70053214D01*
X145571244Y-70053214D02*
X145571244Y-73353214D01*
X145571244Y-73353214D02*
X133271244Y-73353214D01*
G04 #@! TO.C,R13*
X132000000Y-86860000D02*
X132000000Y-83140000D01*
X130000000Y-86860000D02*
X132000000Y-86860000D01*
X130000000Y-83140000D02*
X130000000Y-86860000D01*
X132000000Y-83140000D02*
X130000000Y-83140000D01*
G04 #@! TO.C,R14*
X132000000Y-74140000D02*
X130000000Y-74140000D01*
X130000000Y-74140000D02*
X130000000Y-77860000D01*
X130000000Y-77860000D02*
X132000000Y-77860000D01*
X132000000Y-77860000D02*
X132000000Y-74140000D01*
G04 #@! TO.C,R15*
X132000000Y-65140000D02*
X130000000Y-65140000D01*
X130000000Y-65140000D02*
X130000000Y-68860000D01*
X130000000Y-68860000D02*
X132000000Y-68860000D01*
X132000000Y-68860000D02*
X132000000Y-65140000D01*
G04 #@! TO.C,U3*
X155600000Y-97400000D02*
X164400000Y-97400000D01*
X155600000Y-104600000D02*
X155600000Y-97400000D01*
X164400000Y-104600000D02*
X155600000Y-104600000D01*
X164400000Y-97400000D02*
X164400000Y-104600000D01*
G04 #@! TO.C,C7*
X163350000Y-91610000D02*
X156650000Y-91610000D01*
X163350000Y-91610000D02*
X163350000Y-96380000D01*
X156650000Y-96380000D02*
X156650000Y-91610000D01*
X156650000Y-96380000D02*
X163350000Y-96380000D01*
G04 #@! TO.C,U12*
X137730000Y-127300000D02*
X137730000Y-132700000D01*
X130270000Y-127300000D02*
X130270000Y-132700000D01*
X137730000Y-127300000D02*
X130270000Y-127300000D01*
X137730000Y-132700000D02*
X130270000Y-132700000D01*
G04 #@! TO.C,C9*
X159150000Y-111390000D02*
X165850000Y-111390000D01*
X159150000Y-111390000D02*
X159150000Y-106620000D01*
X165850000Y-106620000D02*
X165850000Y-111390000D01*
X165850000Y-106620000D02*
X159150000Y-106620000D01*
G04 #@! TD*
M02*
