G04 #@! TF.GenerationSoftware,KiCad,Pcbnew,5.0.0-rc2-unknown-bfa8903~65~ubuntu16.04.1*
G04 #@! TF.CreationDate,2018-06-03T14:39:05-05:00*
G04 #@! TF.ProjectId,omega-dock-new,6F6D6567612D646F636B2D6E65772E6B,rev?*
G04 #@! TF.SameCoordinates,Original*
G04 #@! TF.FileFunction,Paste,Top*
G04 #@! TF.FilePolarity,Positive*
%FSLAX46Y46*%
G04 Gerber Fmt 4.6, Leading zero omitted, Abs format (unit mm)*
G04 Created by KiCad (PCBNEW 5.0.0-rc2-unknown-bfa8903~65~ubuntu16.04.1) date Sun Jun  3 14:39:05 2018*
%MOMM*%
%LPD*%
G01*
G04 APERTURE LIST*
%ADD10R,1.145000X1.500000*%
%ADD11R,3.500000X1.600000*%
%ADD12R,2.000000X1.500000*%
%ADD13R,2.000000X3.800000*%
%ADD14R,1.500000X1.145000*%
%ADD15R,1.245000X1.800000*%
%ADD16R,0.300000X0.580000*%
%ADD17R,0.250000X0.580000*%
%ADD18R,0.630000X0.350000*%
%ADD19R,3.500000X3.300000*%
%ADD20R,1.220000X0.870000*%
%ADD21R,1.295000X1.400000*%
%ADD22R,3.000000X1.600000*%
%ADD23R,0.800000X1.800000*%
%ADD24R,1.400000X1.295000*%
%ADD25R,1.000000X1.550000*%
G04 APERTURE END LIST*
D10*
G04 #@! TO.C,C8*
X152957500Y-89000000D03*
X155042500Y-89000000D03*
G04 #@! TD*
D11*
G04 #@! TO.C,C10*
X162700000Y-94000000D03*
X157300000Y-94000000D03*
G04 #@! TD*
D12*
G04 #@! TO.C,U8*
X127150000Y-87300000D03*
X127150000Y-82700000D03*
X127150000Y-85000000D03*
D13*
X120850000Y-85000000D03*
G04 #@! TD*
G04 #@! TO.C,U9*
X120850000Y-75000000D03*
D12*
X127150000Y-75000000D03*
X127150000Y-72700000D03*
X127150000Y-77300000D03*
G04 #@! TD*
D13*
G04 #@! TO.C,U10*
X120850000Y-65000000D03*
D12*
X127150000Y-65000000D03*
X127150000Y-62700000D03*
X127150000Y-67300000D03*
G04 #@! TD*
D14*
G04 #@! TO.C,L3*
X166000000Y-93957500D03*
X166000000Y-96042500D03*
G04 #@! TD*
D10*
G04 #@! TO.C,R1*
X121042500Y-102500000D03*
X118957500Y-102500000D03*
G04 #@! TD*
G04 #@! TO.C,R2*
X119000000Y-99500000D03*
X121085000Y-99500000D03*
G04 #@! TD*
G04 #@! TO.C,R3*
X118957500Y-96500000D03*
X121042500Y-96500000D03*
G04 #@! TD*
D11*
G04 #@! TO.C,C11*
X164700000Y-102000000D03*
X159300000Y-102000000D03*
G04 #@! TD*
D15*
G04 #@! TO.C,C12*
X161592500Y-108500000D03*
X158407500Y-108500000D03*
G04 #@! TD*
D14*
G04 #@! TO.C,R4*
X148870000Y-128892500D03*
X148870000Y-126807500D03*
G04 #@! TD*
G04 #@! TO.C,R5*
X145850000Y-126827500D03*
X145850000Y-128912500D03*
G04 #@! TD*
D16*
G04 #@! TO.C,U11*
X151650000Y-128940000D03*
D17*
X152150000Y-128940000D03*
X152650000Y-128940000D03*
D16*
X153150000Y-128940000D03*
X153150000Y-130220000D03*
D17*
X152650000Y-130220000D03*
X152150000Y-130220000D03*
D16*
X151650000Y-130220000D03*
D18*
X151540000Y-129580000D03*
X153260000Y-129580000D03*
G04 #@! TD*
D10*
G04 #@! TO.C,R6*
X157500000Y-118000000D03*
X155415000Y-118000000D03*
G04 #@! TD*
G04 #@! TO.C,R7*
X155415000Y-123000000D03*
X157500000Y-123000000D03*
G04 #@! TD*
D19*
G04 #@! TO.C,BT1*
X126310000Y-118910000D03*
X142110000Y-118910000D03*
G04 #@! TD*
D20*
G04 #@! TO.C,D6*
X113490000Y-105490000D03*
X115090000Y-105490000D03*
G04 #@! TD*
D21*
G04 #@! TO.C,R22*
X120935000Y-105500000D03*
X119000000Y-105500000D03*
G04 #@! TD*
D20*
G04 #@! TO.C,D1*
X115100000Y-102500000D03*
X113500000Y-102500000D03*
G04 #@! TD*
G04 #@! TO.C,D2*
X113500000Y-99500000D03*
X115100000Y-99500000D03*
G04 #@! TD*
G04 #@! TO.C,D3*
X115100000Y-96500000D03*
X113500000Y-96500000D03*
G04 #@! TD*
D21*
G04 #@! TO.C,R19*
X124032500Y-104500000D03*
X125967500Y-104500000D03*
G04 #@! TD*
D22*
G04 #@! TO.C,C1*
X134300000Y-104000000D03*
X138700000Y-104000000D03*
G04 #@! TD*
D23*
G04 #@! TO.C,D5*
X126835000Y-94650000D03*
X124165000Y-94650000D03*
X124165000Y-100350000D03*
X126835000Y-100350000D03*
G04 #@! TD*
D21*
G04 #@! TO.C,R20*
X128565000Y-104500000D03*
X130500000Y-104500000D03*
G04 #@! TD*
G04 #@! TO.C,R21*
X137500000Y-99500000D03*
X135565000Y-99500000D03*
G04 #@! TD*
D20*
G04 #@! TO.C,D4*
X113490000Y-108520000D03*
X115090000Y-108520000D03*
G04 #@! TD*
D24*
G04 #@! TO.C,R8*
X118000000Y-110467500D03*
X118000000Y-108532500D03*
G04 #@! TD*
D21*
G04 #@! TO.C,R23*
X116000000Y-131000000D03*
X117935000Y-131000000D03*
G04 #@! TD*
D25*
G04 #@! TO.C,SW1*
X115850000Y-121732500D03*
X115850000Y-126982500D03*
X114150000Y-126982500D03*
X114150000Y-121732500D03*
G04 #@! TD*
D20*
G04 #@! TO.C,D7*
X113525000Y-111600000D03*
X115125000Y-111600000D03*
G04 #@! TD*
D24*
G04 #@! TO.C,R24*
X117300000Y-115060000D03*
X117300000Y-113125000D03*
G04 #@! TD*
M02*
