M48
;DRILL file {KiCad 5.0.0-rc2-unknown-bfa8903~65~ubuntu16.04.1} date Sun Jun  3 14:39:11 2018
;FORMAT={-:-/ absolute / metric / decimal}
FMAT,2
METRIC,TZ
T1C0.400
T2C0.500
T3C0.600
T4C0.800
T5C0.950
T6C1.000
T7C1.600
T8C2.500
%
G90
G05
M71
T1
X112.84Y-94.77
X113.5Y-98.32
X114.95Y-100.81
X116.58Y-68.34
X119.275Y-116.675
X120.07Y-112.98
X127.14Y-71.03
X127.14Y-71.03
X127.26Y-80.82
X128.3Y-60.83
X129.05Y-128.1
X129.24Y-131.72
X130.Y-121.5
X130.83Y-64.4
X130.99Y-82.35
X131.06Y-73.18
X132.97Y-131.91
X149.Y-131.
X150.5Y-126.5
X152.62Y-121.99
X153.37Y-127.51
X154.07Y-126.5
X164.Y-96.
T2
X131.625Y-62.
X132.174Y-60.674
X132.174Y-63.326
X133.5Y-60.125
X133.5Y-63.875
X134.826Y-60.674
X134.826Y-63.326
X135.375Y-62.
X145.28Y-125.05
X147.82Y-125.05
X114.125Y-89.
X114.674Y-87.674
X114.674Y-90.326
X116.Y-87.125
X116.Y-90.875
X117.326Y-87.674
X117.326Y-90.326
X117.875Y-89.
X154.125Y-137.5
X154.674Y-136.174
X154.674Y-138.826
X156.Y-135.625
X156.Y-139.375
X157.326Y-136.174
X157.326Y-138.826
X157.875Y-137.5
T3
X134.76Y-89.
X139.84Y-89.
X144.92Y-89.
X150.Y-89.
X157.62Y-89.
X162.7Y-89.
T4
X134.321Y-71.703
X144.481Y-71.703
X121.Y-110.
X121.Y-134.4
X123.Y-110.
X123.Y-134.4
X125.Y-110.
X125.Y-134.4
X127.Y-110.
X127.Y-134.4
X129.Y-110.
X129.Y-134.4
X131.Y-110.
X131.Y-134.4
X133.Y-110.
X133.Y-134.4
X135.Y-110.
X135.Y-134.4
X137.Y-110.
X137.Y-134.4
X139.Y-110.
X139.Y-134.4
X141.Y-110.
X141.Y-134.4
X143.Y-110.
X143.Y-134.4
X145.Y-110.
X145.Y-134.4
X147.Y-110.
X147.Y-134.4
X149.Y-110.
X149.Y-134.4
X151.Y-110.
X151.Y-134.4
X134.321Y-77.703
X144.481Y-77.703
X146.Y-94.
X149.5Y-94.
X134.321Y-83.703
X144.481Y-83.703
X129.Y-91.43
X134.Y-91.43
X146.Y-103.
X149.5Y-103.
T5
X164.Y-115.5
X164.Y-118.
X164.Y-120.5
X164.Y-123.
X162.48Y-130.49
X162.48Y-132.99
X162.48Y-135.49
T6
X148.321Y-71.703
X148.321Y-77.703
X158.321Y-77.703
X148.321Y-83.703
X158.321Y-83.703
X158.321Y-71.703
T7
X140.25Y-63.25
X143.75Y-63.25
X147.25Y-63.25
X150.75Y-63.25
X154.25Y-63.25
T8
X156.Y-137.5
X133.5Y-62.
X116.Y-89.
T3
X163.9Y-61.857G85X165.1Y-61.857
G05
X163.9Y-68.588G85X165.1Y-68.588
G05
X163.9Y-77.412G85X165.1Y-77.412
G05
X163.9Y-84.143G85X165.1Y-84.143
G05
T0
M30
