G04 #@! TF.GenerationSoftware,KiCad,Pcbnew,5.0.0-rc2-unknown-bfa8903~65~ubuntu16.04.1*
G04 #@! TF.CreationDate,2018-06-03T14:39:05-05:00*
G04 #@! TF.ProjectId,omega-dock-new,6F6D6567612D646F636B2D6E65772E6B,rev?*
G04 #@! TF.SameCoordinates,Original*
G04 #@! TF.FileFunction,Soldermask,Top*
G04 #@! TF.FilePolarity,Negative*
%FSLAX46Y46*%
G04 Gerber Fmt 4.6, Leading zero omitted, Abs format (unit mm)*
G04 Created by KiCad (PCBNEW 5.0.0-rc2-unknown-bfa8903~65~ubuntu16.04.1) date Sun Jun  3 14:39:05 2018*
%MOMM*%
%LPD*%
G01*
G04 APERTURE LIST*
%ADD10R,1.800000X1.800000*%
%ADD11C,1.800000*%
%ADD12R,1.345000X1.700000*%
%ADD13R,3.700000X1.800000*%
%ADD14C,2.200000*%
%ADD15C,1.400000*%
%ADD16R,2.200000X1.700000*%
%ADD17R,2.200000X4.000000*%
%ADD18R,1.700000X1.345000*%
%ADD19O,1.800000X1.800000*%
%ADD20R,1.445000X2.000000*%
%ADD21O,1.550000X1.550000*%
%ADD22R,1.550000X1.550000*%
%ADD23R,0.500000X0.780000*%
%ADD24R,0.450000X0.780000*%
%ADD25R,0.830000X0.550000*%
%ADD26R,2.150000X1.900000*%
%ADD27O,2.150000X1.900000*%
%ADD28R,3.700000X3.500000*%
%ADD29R,4.200000X4.200000*%
%ADD30C,1.200000*%
%ADD31R,1.420000X1.070000*%
%ADD32R,1.495000X1.600000*%
%ADD33R,3.200000X1.800000*%
%ADD34R,1.000000X2.000000*%
%ADD35C,1.000000*%
%ADD36C,5.200000*%
%ADD37R,1.600000X1.495000*%
%ADD38R,1.200000X1.750000*%
%ADD39C,0.950000*%
%ADD40C,1.700000*%
%ADD41R,2.200000X2.800000*%
%ADD42O,2.200000X2.800000*%
%ADD43O,2.500000X1.300000*%
G04 APERTURE END LIST*
D10*
G04 #@! TO.C,C6*
X146000000Y-94000000D03*
D11*
X149500000Y-94000000D03*
G04 #@! TD*
D12*
G04 #@! TO.C,C8*
X152957500Y-89000000D03*
X155042500Y-89000000D03*
G04 #@! TD*
D13*
G04 #@! TO.C,C10*
X162700000Y-94000000D03*
X157300000Y-94000000D03*
G04 #@! TD*
D14*
G04 #@! TO.C,C13*
X148321244Y-83703214D03*
X158321244Y-83703214D03*
G04 #@! TD*
G04 #@! TO.C,C14*
X148321244Y-77703214D03*
X158321244Y-77703214D03*
G04 #@! TD*
D11*
G04 #@! TO.C,RV1*
X134000000Y-91430000D03*
X129000000Y-91430000D03*
G04 #@! TD*
D15*
G04 #@! TO.C,U4*
X134760000Y-89000000D03*
X139840000Y-89000000D03*
X144920000Y-89000000D03*
X150000000Y-89000000D03*
X157620000Y-89000000D03*
X162700000Y-89000000D03*
G04 #@! TD*
D16*
G04 #@! TO.C,U8*
X127150000Y-87300000D03*
X127150000Y-82700000D03*
X127150000Y-85000000D03*
D17*
X120850000Y-85000000D03*
G04 #@! TD*
G04 #@! TO.C,U9*
X120850000Y-75000000D03*
D16*
X127150000Y-75000000D03*
X127150000Y-72700000D03*
X127150000Y-77300000D03*
G04 #@! TD*
D17*
G04 #@! TO.C,U10*
X120850000Y-65000000D03*
D16*
X127150000Y-65000000D03*
X127150000Y-62700000D03*
X127150000Y-67300000D03*
G04 #@! TD*
D10*
G04 #@! TO.C,C5*
X146000000Y-103000000D03*
D11*
X149500000Y-103000000D03*
G04 #@! TD*
D14*
G04 #@! TO.C,C15*
X148321244Y-71703214D03*
X158321244Y-71703214D03*
G04 #@! TD*
D18*
G04 #@! TO.C,L3*
X166000000Y-93957500D03*
X166000000Y-96042500D03*
G04 #@! TD*
D12*
G04 #@! TO.C,R1*
X121042500Y-102500000D03*
X118957500Y-102500000D03*
G04 #@! TD*
G04 #@! TO.C,R2*
X119000000Y-99500000D03*
X121085000Y-99500000D03*
G04 #@! TD*
G04 #@! TO.C,R3*
X118957500Y-96500000D03*
X121042500Y-96500000D03*
G04 #@! TD*
D19*
G04 #@! TO.C,R16*
X144481244Y-83703214D03*
D11*
X134321244Y-83703214D03*
G04 #@! TD*
G04 #@! TO.C,R17*
X134321244Y-77703214D03*
D19*
X144481244Y-77703214D03*
G04 #@! TD*
D11*
G04 #@! TO.C,R18*
X134321244Y-71703214D03*
D19*
X144481244Y-71703214D03*
G04 #@! TD*
D13*
G04 #@! TO.C,C11*
X164700000Y-102000000D03*
X159300000Y-102000000D03*
G04 #@! TD*
D20*
G04 #@! TO.C,C12*
X161592500Y-108500000D03*
X158407500Y-108500000D03*
G04 #@! TD*
D21*
G04 #@! TO.C,U2*
X151000000Y-134400000D03*
X149000000Y-134400000D03*
X147000000Y-134400000D03*
X145000000Y-134400000D03*
X143000000Y-134400000D03*
X141000000Y-134400000D03*
X139000000Y-134400000D03*
X137000000Y-134400000D03*
X135000000Y-134400000D03*
X133000000Y-134400000D03*
X131000000Y-134400000D03*
X129000000Y-134400000D03*
X127000000Y-134400000D03*
X125000000Y-134400000D03*
X123000000Y-134400000D03*
D22*
X121000000Y-134400000D03*
X121000000Y-110000000D03*
D21*
X123000000Y-110000000D03*
X125000000Y-110000000D03*
X127000000Y-110000000D03*
X129000000Y-110000000D03*
X131000000Y-110000000D03*
X133000000Y-110000000D03*
X135000000Y-110000000D03*
X137000000Y-110000000D03*
X139000000Y-110000000D03*
X141000000Y-110000000D03*
X143000000Y-110000000D03*
X145000000Y-110000000D03*
X147000000Y-110000000D03*
X149000000Y-110000000D03*
X151000000Y-110000000D03*
G04 #@! TD*
D18*
G04 #@! TO.C,R4*
X148870000Y-128892500D03*
X148870000Y-126807500D03*
G04 #@! TD*
G04 #@! TO.C,R5*
X145850000Y-126827500D03*
X145850000Y-128912500D03*
G04 #@! TD*
D23*
G04 #@! TO.C,U11*
X151650000Y-128940000D03*
D24*
X152150000Y-128940000D03*
X152650000Y-128940000D03*
D23*
X153150000Y-128940000D03*
X153150000Y-130220000D03*
D24*
X152650000Y-130220000D03*
X152150000Y-130220000D03*
D23*
X151650000Y-130220000D03*
D25*
X151540000Y-129580000D03*
X153260000Y-129580000D03*
G04 #@! TD*
D12*
G04 #@! TO.C,R6*
X157500000Y-118000000D03*
X155415000Y-118000000D03*
G04 #@! TD*
G04 #@! TO.C,R7*
X155415000Y-123000000D03*
X157500000Y-123000000D03*
G04 #@! TD*
D26*
G04 #@! TO.C,J2*
X164000000Y-123000000D03*
D27*
X164000000Y-120500000D03*
X164000000Y-118000000D03*
X164000000Y-115500000D03*
G04 #@! TD*
D28*
G04 #@! TO.C,BT1*
X126310000Y-118910000D03*
X142110000Y-118910000D03*
D29*
X134210000Y-118910000D03*
G04 #@! TD*
D30*
G04 #@! TO.C,Y1*
X147820000Y-125050000D03*
X145280000Y-125050000D03*
G04 #@! TD*
D31*
G04 #@! TO.C,D6*
X113490000Y-105490000D03*
X115090000Y-105490000D03*
G04 #@! TD*
D32*
G04 #@! TO.C,R22*
X120935000Y-105500000D03*
X119000000Y-105500000D03*
G04 #@! TD*
D31*
G04 #@! TO.C,D1*
X115100000Y-102500000D03*
X113500000Y-102500000D03*
G04 #@! TD*
G04 #@! TO.C,D2*
X113500000Y-99500000D03*
X115100000Y-99500000D03*
G04 #@! TD*
G04 #@! TO.C,D3*
X115100000Y-96500000D03*
X113500000Y-96500000D03*
G04 #@! TD*
D32*
G04 #@! TO.C,R19*
X124032500Y-104500000D03*
X125967500Y-104500000D03*
G04 #@! TD*
D33*
G04 #@! TO.C,C1*
X134300000Y-104000000D03*
X138700000Y-104000000D03*
G04 #@! TD*
D34*
G04 #@! TO.C,D5*
X126835000Y-94650000D03*
X124165000Y-94650000D03*
X124165000Y-100350000D03*
X126835000Y-100350000D03*
G04 #@! TD*
D32*
G04 #@! TO.C,R20*
X128565000Y-104500000D03*
X130500000Y-104500000D03*
G04 #@! TD*
G04 #@! TO.C,R21*
X137500000Y-99500000D03*
X135565000Y-99500000D03*
G04 #@! TD*
D35*
G04 #@! TO.C,REF\002A\002A*
X117325825Y-87674175D03*
X116000000Y-87125000D03*
X114674175Y-87674175D03*
X114125000Y-89000000D03*
X114674175Y-90325825D03*
X116000000Y-90875000D03*
X117325825Y-90325825D03*
X117875000Y-89000000D03*
D36*
X116000000Y-89000000D03*
G04 #@! TD*
D35*
G04 #@! TO.C,REF\002A\002A*
X134825825Y-60674175D03*
X133500000Y-60125000D03*
X132174175Y-60674175D03*
X131625000Y-62000000D03*
X132174175Y-63325825D03*
X133500000Y-63875000D03*
X134825825Y-63325825D03*
X135375000Y-62000000D03*
D36*
X133500000Y-62000000D03*
G04 #@! TD*
D35*
G04 #@! TO.C,REF\002A\002A*
X157325825Y-136174175D03*
X156000000Y-135625000D03*
X154674175Y-136174175D03*
X154125000Y-137500000D03*
X154674175Y-138825825D03*
X156000000Y-139375000D03*
X157325825Y-138825825D03*
X157875000Y-137500000D03*
D36*
X156000000Y-137500000D03*
G04 #@! TD*
D31*
G04 #@! TO.C,D4*
X113490000Y-108520000D03*
X115090000Y-108520000D03*
G04 #@! TD*
D37*
G04 #@! TO.C,R8*
X118000000Y-110467500D03*
X118000000Y-108532500D03*
G04 #@! TD*
D32*
G04 #@! TO.C,R23*
X116000000Y-131000000D03*
X117935000Y-131000000D03*
G04 #@! TD*
D38*
G04 #@! TO.C,SW1*
X115850000Y-121732500D03*
X115850000Y-126982500D03*
X114150000Y-126982500D03*
X114150000Y-121732500D03*
D39*
X116375000Y-124357500D03*
X113625000Y-124357500D03*
G04 #@! TD*
D31*
G04 #@! TO.C,D7*
X113525000Y-111600000D03*
X115125000Y-111600000D03*
G04 #@! TD*
D37*
G04 #@! TO.C,R24*
X117300000Y-115060000D03*
X117300000Y-113125000D03*
G04 #@! TD*
D40*
G04 #@! TO.C,GPIO*
X147000000Y-137500000D03*
G04 #@! TD*
G04 #@! TO.C,VT*
X131500000Y-107140000D03*
G04 #@! TD*
D41*
G04 #@! TO.C,P1*
X154250000Y-63250000D03*
D42*
X150750000Y-63250000D03*
X147250000Y-63250000D03*
X143750000Y-63250000D03*
X140250000Y-63250000D03*
G04 #@! TD*
D26*
G04 #@! TO.C,J1*
X162480000Y-135490000D03*
D27*
X162480000Y-132990000D03*
X162480000Y-130490000D03*
G04 #@! TD*
D43*
G04 #@! TO.C,F1*
X164500000Y-84143000D03*
X164500000Y-77412000D03*
X164500000Y-68588000D03*
X164500000Y-61857000D03*
G04 #@! TD*
M02*
