G04 #@! TF.GenerationSoftware,KiCad,Pcbnew,5.0.0-rc2-unknown-bfa8903~65~ubuntu16.04.1*
G04 #@! TF.CreationDate,2018-06-03T14:39:05-05:00*
G04 #@! TF.ProjectId,omega-dock-new,6F6D6567612D646F636B2D6E65772E6B,rev?*
G04 #@! TF.SameCoordinates,Original*
G04 #@! TF.FileFunction,Other,Fab,Top*
%FSLAX46Y46*%
G04 Gerber Fmt 4.6, Leading zero omitted, Abs format (unit mm)*
G04 Created by KiCad (PCBNEW 5.0.0-rc2-unknown-bfa8903~65~ubuntu16.04.1) date Sun Jun  3 14:39:05 2018*
%MOMM*%
%LPD*%
G01*
G04 APERTURE LIST*
%ADD10C,0.100000*%
%ADD11C,0.150000*%
%ADD12C,0.080000*%
%ADD13C,0.120000*%
%ADD14C,0.060000*%
G04 APERTURE END LIST*
D10*
G04 #@! TO.C,C6*
X151750000Y-94000000D02*
G75*
G03X151750000Y-94000000I-4000000J0D01*
G01*
X144323241Y-92252500D02*
X145123241Y-92252500D01*
X144723241Y-91852500D02*
X144723241Y-92652500D01*
G04 #@! TO.C,C8*
X153000000Y-89600000D02*
X153000000Y-88400000D01*
X153000000Y-88400000D02*
X155000000Y-88400000D01*
X155000000Y-88400000D02*
X155000000Y-89600000D01*
X155000000Y-89600000D02*
X153000000Y-89600000D01*
G04 #@! TO.C,C10*
X163041381Y-94000000D02*
G75*
G03X163041381Y-94000000I-3041381J0D01*
G01*
X156850000Y-90850000D02*
X156850000Y-97150000D01*
X162480000Y-90850000D02*
X156850000Y-90850000D01*
X163150000Y-91520000D02*
X162480000Y-90850000D01*
X163150000Y-96480000D02*
X163150000Y-91520000D01*
X162480000Y-97150000D02*
X163150000Y-96480000D01*
X156850000Y-97150000D02*
X162480000Y-97150000D01*
G04 #@! TO.C,U8*
X122150000Y-88350000D02*
X122150000Y-81650000D01*
X125850000Y-81650000D02*
X122150000Y-81650000D01*
X124800000Y-88350000D02*
X122150000Y-88350000D01*
X125850000Y-87300000D02*
X125850000Y-81650000D01*
X125850000Y-87300000D02*
X124800000Y-88350000D01*
G04 #@! TO.C,U9*
X125850000Y-77300000D02*
X124800000Y-78350000D01*
X125850000Y-77300000D02*
X125850000Y-71650000D01*
X124800000Y-78350000D02*
X122150000Y-78350000D01*
X125850000Y-71650000D02*
X122150000Y-71650000D01*
X122150000Y-78350000D02*
X122150000Y-71650000D01*
G04 #@! TO.C,U10*
X125850000Y-67300000D02*
X124800000Y-68350000D01*
X125850000Y-67300000D02*
X125850000Y-61650000D01*
X124800000Y-68350000D02*
X122150000Y-68350000D01*
X125850000Y-61650000D02*
X122150000Y-61650000D01*
X122150000Y-68350000D02*
X122150000Y-61650000D01*
G04 #@! TO.C,C5*
X151750000Y-103000000D02*
G75*
G03X151750000Y-103000000I-4000000J0D01*
G01*
X144323241Y-101252500D02*
X145123241Y-101252500D01*
X144723241Y-100852500D02*
X144723241Y-101652500D01*
G04 #@! TO.C,L3*
X165400000Y-94000000D02*
X166600000Y-94000000D01*
X166600000Y-94000000D02*
X166600000Y-96000000D01*
X166600000Y-96000000D02*
X165400000Y-96000000D01*
X165400000Y-96000000D02*
X165400000Y-94000000D01*
G04 #@! TO.C,R1*
X121000000Y-103100000D02*
X119000000Y-103100000D01*
X121000000Y-101900000D02*
X121000000Y-103100000D01*
X119000000Y-101900000D02*
X121000000Y-101900000D01*
X119000000Y-103100000D02*
X119000000Y-101900000D01*
G04 #@! TO.C,R2*
X119042500Y-100100000D02*
X119042500Y-98900000D01*
X119042500Y-98900000D02*
X121042500Y-98900000D01*
X121042500Y-98900000D02*
X121042500Y-100100000D01*
X121042500Y-100100000D02*
X119042500Y-100100000D01*
G04 #@! TO.C,R3*
X119000000Y-97100000D02*
X119000000Y-95900000D01*
X119000000Y-95900000D02*
X121000000Y-95900000D01*
X121000000Y-95900000D02*
X121000000Y-97100000D01*
X121000000Y-97100000D02*
X119000000Y-97100000D01*
G04 #@! TO.C,C11*
X165041381Y-102000000D02*
G75*
G03X165041381Y-102000000I-3041381J0D01*
G01*
X158850000Y-98850000D02*
X158850000Y-105150000D01*
X164480000Y-98850000D02*
X158850000Y-98850000D01*
X165150000Y-99520000D02*
X164480000Y-98850000D01*
X165150000Y-104480000D02*
X165150000Y-99520000D01*
X164480000Y-105150000D02*
X165150000Y-104480000D01*
X158850000Y-105150000D02*
X164480000Y-105150000D01*
G04 #@! TO.C,C12*
X161600000Y-107700000D02*
X161600000Y-109300000D01*
X161600000Y-109300000D02*
X158400000Y-109300000D01*
X158400000Y-109300000D02*
X158400000Y-107700000D01*
X158400000Y-107700000D02*
X161600000Y-107700000D01*
G04 #@! TO.C,R4*
X148270000Y-128850000D02*
X148270000Y-126850000D01*
X149470000Y-128850000D02*
X148270000Y-128850000D01*
X149470000Y-126850000D02*
X149470000Y-128850000D01*
X148270000Y-126850000D02*
X149470000Y-126850000D01*
G04 #@! TO.C,R5*
X145250000Y-126870000D02*
X146450000Y-126870000D01*
X146450000Y-126870000D02*
X146450000Y-128870000D01*
X146450000Y-128870000D02*
X145250000Y-128870000D01*
X145250000Y-128870000D02*
X145250000Y-126870000D01*
D11*
G04 #@! TO.C,U11*
X153500000Y-129180000D02*
X153500000Y-128480000D01*
X153500000Y-128480000D02*
X151300000Y-128480000D01*
X151300000Y-128480000D02*
X151300000Y-129180000D01*
X151300000Y-129980000D02*
X151300000Y-130680000D01*
X151300000Y-130680000D02*
X153500000Y-130680000D01*
X153500000Y-130680000D02*
X153500000Y-129980000D01*
D10*
G04 #@! TO.C,R6*
X157457500Y-118600000D02*
X155457500Y-118600000D01*
X157457500Y-117400000D02*
X157457500Y-118600000D01*
X155457500Y-117400000D02*
X157457500Y-117400000D01*
X155457500Y-118600000D02*
X155457500Y-117400000D01*
G04 #@! TO.C,R7*
X155457500Y-123600000D02*
X155457500Y-122400000D01*
X155457500Y-122400000D02*
X157457500Y-122400000D01*
X157457500Y-122400000D02*
X157457500Y-123600000D01*
X157457500Y-123600000D02*
X155457500Y-123600000D01*
G04 #@! TO.C,J2*
X171600000Y-119250000D02*
X171600000Y-125450000D01*
X171600000Y-125450000D02*
X160100000Y-125450000D01*
X160100000Y-125450000D02*
X160100000Y-124250000D01*
X160100000Y-124250000D02*
X164600000Y-124250000D01*
X164600000Y-124250000D02*
X164600000Y-119250000D01*
X171600000Y-119250000D02*
X171600000Y-113050000D01*
X171600000Y-113050000D02*
X160100000Y-113050000D01*
X160100000Y-113050000D02*
X160100000Y-114250000D01*
X160100000Y-114250000D02*
X164600000Y-114250000D01*
X164600000Y-114250000D02*
X164600000Y-119250000D01*
X164600000Y-123625000D02*
X163600000Y-123000000D01*
X163600000Y-123000000D02*
X164600000Y-122375000D01*
G04 #@! TO.C,BT1*
X139588013Y-124357558D02*
G75*
G02X138810000Y-124010000I-88013J847558D01*
G01*
X128831987Y-124357558D02*
G75*
G03X129610000Y-124010000I88013J847558D01*
G01*
X138817905Y-124019589D02*
G75*
G03X129610000Y-124010000I-4607905J-3790411D01*
G01*
X140810000Y-122960000D02*
G75*
G02X139510000Y-124360000I-1350000J-50000D01*
G01*
X127610000Y-122960000D02*
G75*
G03X128910000Y-124360000I1350000J-50000D01*
G01*
X140810000Y-115510000D02*
X140810000Y-123010000D01*
X127610000Y-115510000D02*
X127610000Y-123010000D01*
X138210000Y-112910000D02*
X140810000Y-115510000D01*
X130210000Y-112910000D02*
X127610000Y-115510000D01*
X138210000Y-112210000D02*
X138210000Y-112910000D01*
X130210000Y-112210000D02*
X130210000Y-112910000D01*
X130210000Y-112210000D02*
X138210000Y-112210000D01*
G04 #@! TO.C,Y1*
X148050000Y-122050000D02*
X148050000Y-111550000D01*
X148050000Y-111550000D02*
X145050000Y-111550000D01*
X145050000Y-111550000D02*
X145050000Y-122050000D01*
X145050000Y-122050000D02*
X148050000Y-122050000D01*
X147150000Y-122050000D02*
X147820000Y-123550000D01*
X147820000Y-123550000D02*
X147820000Y-125050000D01*
X145950000Y-122050000D02*
X145280000Y-123550000D01*
X145280000Y-123550000D02*
X145280000Y-125050000D01*
G04 #@! TO.C,D6*
X115090000Y-105090000D02*
X113790000Y-105090000D01*
X113790000Y-105090000D02*
X113490000Y-105390000D01*
X113490000Y-105390000D02*
X113490000Y-105890000D01*
X113490000Y-105890000D02*
X115090000Y-105890000D01*
X115090000Y-105890000D02*
X115090000Y-105090000D01*
G04 #@! TO.C,R22*
X120967500Y-104900000D02*
X120967500Y-106100000D01*
X120967500Y-106100000D02*
X118967500Y-106100000D01*
X118967500Y-106100000D02*
X118967500Y-104900000D01*
X118967500Y-104900000D02*
X120967500Y-104900000D01*
G04 #@! TO.C,D1*
X113500000Y-102900000D02*
X114800000Y-102900000D01*
X114800000Y-102900000D02*
X115100000Y-102600000D01*
X115100000Y-102600000D02*
X115100000Y-102100000D01*
X115100000Y-102100000D02*
X113500000Y-102100000D01*
X113500000Y-102100000D02*
X113500000Y-102900000D01*
G04 #@! TO.C,D2*
X113500000Y-99100000D02*
X113500000Y-99900000D01*
X115100000Y-99100000D02*
X113500000Y-99100000D01*
X115100000Y-99600000D02*
X115100000Y-99100000D01*
X114800000Y-99900000D02*
X115100000Y-99600000D01*
X113500000Y-99900000D02*
X114800000Y-99900000D01*
G04 #@! TO.C,D3*
X113500000Y-96900000D02*
X114800000Y-96900000D01*
X114800000Y-96900000D02*
X115100000Y-96600000D01*
X115100000Y-96600000D02*
X115100000Y-96100000D01*
X115100000Y-96100000D02*
X113500000Y-96100000D01*
X113500000Y-96100000D02*
X113500000Y-96900000D01*
G04 #@! TO.C,R19*
X124000000Y-105100000D02*
X124000000Y-103900000D01*
X124000000Y-103900000D02*
X126000000Y-103900000D01*
X126000000Y-103900000D02*
X126000000Y-105100000D01*
X126000000Y-105100000D02*
X124000000Y-105100000D01*
G04 #@! TO.C,C1*
X138918677Y-104000000D02*
G75*
G03X138918677Y-104000000I-2418677J0D01*
G01*
X139010000Y-106490000D02*
X139010000Y-101460000D01*
X134660000Y-106490000D02*
X139010000Y-106490000D01*
X133990000Y-105820000D02*
X134660000Y-106490000D01*
X133990000Y-102130000D02*
X133990000Y-105820000D01*
X134660000Y-101460000D02*
X133990000Y-102130000D01*
X139010000Y-101460000D02*
X134660000Y-101460000D01*
G04 #@! TO.C,R20*
X128532500Y-105100000D02*
X128532500Y-103900000D01*
X128532500Y-103900000D02*
X130532500Y-103900000D01*
X130532500Y-103900000D02*
X130532500Y-105100000D01*
X130532500Y-105100000D02*
X128532500Y-105100000D01*
G04 #@! TO.C,R21*
X137532500Y-100100000D02*
X135532500Y-100100000D01*
X137532500Y-98900000D02*
X137532500Y-100100000D01*
X135532500Y-98900000D02*
X137532500Y-98900000D01*
X135532500Y-100100000D02*
X135532500Y-98900000D01*
G04 #@! TO.C,D4*
X115090000Y-108120000D02*
X113790000Y-108120000D01*
X113790000Y-108120000D02*
X113490000Y-108420000D01*
X113490000Y-108420000D02*
X113490000Y-108920000D01*
X113490000Y-108920000D02*
X115090000Y-108920000D01*
X115090000Y-108920000D02*
X115090000Y-108120000D01*
G04 #@! TO.C,R8*
X118600000Y-110500000D02*
X117400000Y-110500000D01*
X117400000Y-110500000D02*
X117400000Y-108500000D01*
X117400000Y-108500000D02*
X118600000Y-108500000D01*
X118600000Y-108500000D02*
X118600000Y-110500000D01*
G04 #@! TO.C,R23*
X115967500Y-131600000D02*
X115967500Y-130400000D01*
X115967500Y-130400000D02*
X117967500Y-130400000D01*
X117967500Y-130400000D02*
X117967500Y-131600000D01*
X117967500Y-131600000D02*
X115967500Y-131600000D01*
G04 #@! TO.C,SW1*
X112250000Y-125657500D02*
X113250000Y-125657500D01*
X112250000Y-123057500D02*
X113250000Y-123057500D01*
X112250000Y-123057500D02*
X112250000Y-125657500D01*
X116750000Y-122007500D02*
X113250000Y-122007500D01*
X116750000Y-126707500D02*
X113250000Y-126707500D01*
X113250000Y-122007500D02*
X113250000Y-126707500D01*
X116750000Y-122007500D02*
X116750000Y-126707500D01*
G04 #@! TO.C,D7*
X115125000Y-111200000D02*
X113825000Y-111200000D01*
X113825000Y-111200000D02*
X113525000Y-111500000D01*
X113525000Y-111500000D02*
X113525000Y-112000000D01*
X113525000Y-112000000D02*
X115125000Y-112000000D01*
X115125000Y-112000000D02*
X115125000Y-111200000D01*
G04 #@! TO.C,R24*
X117900000Y-115092500D02*
X116700000Y-115092500D01*
X116700000Y-115092500D02*
X116700000Y-113092500D01*
X116700000Y-113092500D02*
X117900000Y-113092500D01*
X117900000Y-113092500D02*
X117900000Y-115092500D01*
G04 #@! TO.C,P1*
X157050000Y-64250000D02*
X157050000Y-55350000D01*
X157050000Y-55350000D02*
X137150000Y-55350000D01*
X137150000Y-55350000D02*
X137150000Y-64250000D01*
X137150000Y-64250000D02*
X157050000Y-64250000D01*
X154750000Y-64250000D02*
X154250000Y-63542893D01*
X154250000Y-63542893D02*
X153750000Y-64250000D01*
G04 #@! TO.C,J1*
X171680000Y-132990000D02*
X171680000Y-137940000D01*
X171680000Y-137940000D02*
X160180000Y-137940000D01*
X160180000Y-137940000D02*
X160180000Y-136740000D01*
X160180000Y-136740000D02*
X164680000Y-136740000D01*
X164680000Y-136740000D02*
X164680000Y-132990000D01*
X171680000Y-132990000D02*
X171680000Y-128040000D01*
X171680000Y-128040000D02*
X160180000Y-128040000D01*
X160180000Y-128040000D02*
X160180000Y-129240000D01*
X160180000Y-129240000D02*
X164680000Y-129240000D01*
X164680000Y-129240000D02*
X164680000Y-132990000D01*
X164680000Y-136115000D02*
X163680000Y-135490000D01*
X163680000Y-135490000D02*
X164680000Y-134865000D01*
G04 #@! TD*
G04 #@! TO.C,C6*
D11*
X146345238Y-99155714D02*
X146345238Y-99822380D01*
X146107142Y-98774761D02*
X145869047Y-99489047D01*
X146488095Y-99489047D01*
X146916666Y-99774761D02*
X146916666Y-99822380D01*
X146869047Y-99917619D01*
X146821428Y-99965238D01*
X147250000Y-98822380D02*
X147916666Y-98822380D01*
X147488095Y-99822380D01*
X148726190Y-99155714D02*
X148726190Y-99822380D01*
X148297619Y-99155714D02*
X148297619Y-99679523D01*
X148345238Y-99774761D01*
X148440476Y-99822380D01*
X148583333Y-99822380D01*
X148678571Y-99774761D01*
X148726190Y-99727142D01*
X149535714Y-99298571D02*
X149202380Y-99298571D01*
X149202380Y-99822380D02*
X149202380Y-98822380D01*
X149678571Y-98822380D01*
X147583333Y-94357142D02*
X147535714Y-94404761D01*
X147392857Y-94452380D01*
X147297619Y-94452380D01*
X147154761Y-94404761D01*
X147059523Y-94309523D01*
X147011904Y-94214285D01*
X146964285Y-94023809D01*
X146964285Y-93880952D01*
X147011904Y-93690476D01*
X147059523Y-93595238D01*
X147154761Y-93500000D01*
X147297619Y-93452380D01*
X147392857Y-93452380D01*
X147535714Y-93500000D01*
X147583333Y-93547619D01*
X148440476Y-93452380D02*
X148250000Y-93452380D01*
X148154761Y-93500000D01*
X148107142Y-93547619D01*
X148011904Y-93690476D01*
X147964285Y-93880952D01*
X147964285Y-94261904D01*
X148011904Y-94357142D01*
X148059523Y-94404761D01*
X148154761Y-94452380D01*
X148345238Y-94452380D01*
X148440476Y-94404761D01*
X148488095Y-94357142D01*
X148535714Y-94261904D01*
X148535714Y-94023809D01*
X148488095Y-93928571D01*
X148440476Y-93880952D01*
X148345238Y-93833333D01*
X148154761Y-93833333D01*
X148059523Y-93880952D01*
X148011904Y-93928571D01*
X147964285Y-94023809D01*
G04 #@! TO.C,C8*
X153404761Y-91302380D02*
X152833333Y-91302380D01*
X153119047Y-91302380D02*
X153119047Y-90302380D01*
X153023809Y-90445238D01*
X152928571Y-90540476D01*
X152833333Y-90588095D01*
X153833333Y-90635714D02*
X153833333Y-91302380D01*
X153833333Y-90730952D02*
X153880952Y-90683333D01*
X153976190Y-90635714D01*
X154119047Y-90635714D01*
X154214285Y-90683333D01*
X154261904Y-90778571D01*
X154261904Y-91302380D01*
X155071428Y-90778571D02*
X154738095Y-90778571D01*
X154738095Y-91302380D02*
X154738095Y-90302380D01*
X155214285Y-90302380D01*
D12*
X153916666Y-89178571D02*
X153892857Y-89202380D01*
X153821428Y-89226190D01*
X153773809Y-89226190D01*
X153702380Y-89202380D01*
X153654761Y-89154761D01*
X153630952Y-89107142D01*
X153607142Y-89011904D01*
X153607142Y-88940476D01*
X153630952Y-88845238D01*
X153654761Y-88797619D01*
X153702380Y-88750000D01*
X153773809Y-88726190D01*
X153821428Y-88726190D01*
X153892857Y-88750000D01*
X153916666Y-88773809D01*
X154202380Y-88940476D02*
X154154761Y-88916666D01*
X154130952Y-88892857D01*
X154107142Y-88845238D01*
X154107142Y-88821428D01*
X154130952Y-88773809D01*
X154154761Y-88750000D01*
X154202380Y-88726190D01*
X154297619Y-88726190D01*
X154345238Y-88750000D01*
X154369047Y-88773809D01*
X154392857Y-88821428D01*
X154392857Y-88845238D01*
X154369047Y-88892857D01*
X154345238Y-88916666D01*
X154297619Y-88940476D01*
X154202380Y-88940476D01*
X154154761Y-88964285D01*
X154130952Y-88988095D01*
X154107142Y-89035714D01*
X154107142Y-89130952D01*
X154130952Y-89178571D01*
X154154761Y-89202380D01*
X154202380Y-89226190D01*
X154297619Y-89226190D01*
X154345238Y-89202380D01*
X154369047Y-89178571D01*
X154392857Y-89130952D01*
X154392857Y-89035714D01*
X154369047Y-88988095D01*
X154345238Y-88964285D01*
X154297619Y-88940476D01*
G04 #@! TO.C,C10*
D11*
X157880952Y-97977619D02*
X157928571Y-97930000D01*
X158023809Y-97882380D01*
X158261904Y-97882380D01*
X158357142Y-97930000D01*
X158404761Y-97977619D01*
X158452380Y-98072857D01*
X158452380Y-98168095D01*
X158404761Y-98310952D01*
X157833333Y-98882380D01*
X158452380Y-98882380D01*
X158785714Y-97882380D02*
X159452380Y-97882380D01*
X159023809Y-98882380D01*
X160023809Y-97882380D02*
X160119047Y-97882380D01*
X160214285Y-97930000D01*
X160261904Y-97977619D01*
X160309523Y-98072857D01*
X160357142Y-98263333D01*
X160357142Y-98501428D01*
X160309523Y-98691904D01*
X160261904Y-98787142D01*
X160214285Y-98834761D01*
X160119047Y-98882380D01*
X160023809Y-98882380D01*
X159928571Y-98834761D01*
X159880952Y-98787142D01*
X159833333Y-98691904D01*
X159785714Y-98501428D01*
X159785714Y-98263333D01*
X159833333Y-98072857D01*
X159880952Y-97977619D01*
X159928571Y-97930000D01*
X160023809Y-97882380D01*
X161214285Y-98215714D02*
X161214285Y-98882380D01*
X160785714Y-98215714D02*
X160785714Y-98739523D01*
X160833333Y-98834761D01*
X160928571Y-98882380D01*
X161071428Y-98882380D01*
X161166666Y-98834761D01*
X161214285Y-98787142D01*
X162023809Y-98358571D02*
X161690476Y-98358571D01*
X161690476Y-98882380D02*
X161690476Y-97882380D01*
X162166666Y-97882380D01*
X161349047Y-94151428D02*
X162110952Y-94151428D01*
X161730000Y-94532380D02*
X161730000Y-93770476D01*
X159357142Y-89927142D02*
X159309523Y-89974761D01*
X159166666Y-90022380D01*
X159071428Y-90022380D01*
X158928571Y-89974761D01*
X158833333Y-89879523D01*
X158785714Y-89784285D01*
X158738095Y-89593809D01*
X158738095Y-89450952D01*
X158785714Y-89260476D01*
X158833333Y-89165238D01*
X158928571Y-89070000D01*
X159071428Y-89022380D01*
X159166666Y-89022380D01*
X159309523Y-89070000D01*
X159357142Y-89117619D01*
X160309523Y-90022380D02*
X159738095Y-90022380D01*
X160023809Y-90022380D02*
X160023809Y-89022380D01*
X159928571Y-89165238D01*
X159833333Y-89260476D01*
X159738095Y-89308095D01*
X160928571Y-89022380D02*
X161023809Y-89022380D01*
X161119047Y-89070000D01*
X161166666Y-89117619D01*
X161214285Y-89212857D01*
X161261904Y-89403333D01*
X161261904Y-89641428D01*
X161214285Y-89831904D01*
X161166666Y-89927142D01*
X161119047Y-89974761D01*
X161023809Y-90022380D01*
X160928571Y-90022380D01*
X160833333Y-89974761D01*
X160785714Y-89927142D01*
X160738095Y-89831904D01*
X160690476Y-89641428D01*
X160690476Y-89403333D01*
X160738095Y-89212857D01*
X160785714Y-89117619D01*
X160833333Y-89070000D01*
X160928571Y-89022380D01*
G04 #@! TO.C,U4*
X146047619Y-70452380D02*
X146047619Y-69452380D01*
X146428571Y-69452380D01*
X146523809Y-69500000D01*
X146571428Y-69547619D01*
X146619047Y-69642857D01*
X146619047Y-69785714D01*
X146571428Y-69880952D01*
X146523809Y-69928571D01*
X146428571Y-69976190D01*
X146047619Y-69976190D01*
X147380952Y-69928571D02*
X147523809Y-69976190D01*
X147571428Y-70023809D01*
X147619047Y-70119047D01*
X147619047Y-70261904D01*
X147571428Y-70357142D01*
X147523809Y-70404761D01*
X147428571Y-70452380D01*
X147047619Y-70452380D01*
X147047619Y-69452380D01*
X147380952Y-69452380D01*
X147476190Y-69500000D01*
X147523809Y-69547619D01*
X147571428Y-69642857D01*
X147571428Y-69738095D01*
X147523809Y-69833333D01*
X147476190Y-69880952D01*
X147380952Y-69928571D01*
X147047619Y-69928571D01*
X148238095Y-69452380D02*
X148428571Y-69452380D01*
X148523809Y-69500000D01*
X148619047Y-69595238D01*
X148666666Y-69785714D01*
X148666666Y-70119047D01*
X148619047Y-70309523D01*
X148523809Y-70404761D01*
X148428571Y-70452380D01*
X148238095Y-70452380D01*
X148142857Y-70404761D01*
X148047619Y-70309523D01*
X148000000Y-70119047D01*
X148000000Y-69785714D01*
X148047619Y-69595238D01*
X148142857Y-69500000D01*
X148238095Y-69452380D01*
X149095238Y-70071428D02*
X149857142Y-70071428D01*
X150238095Y-69452380D02*
X150857142Y-69452380D01*
X150523809Y-69833333D01*
X150666666Y-69833333D01*
X150761904Y-69880952D01*
X150809523Y-69928571D01*
X150857142Y-70023809D01*
X150857142Y-70261904D01*
X150809523Y-70357142D01*
X150761904Y-70404761D01*
X150666666Y-70452380D01*
X150380952Y-70452380D01*
X150285714Y-70404761D01*
X150238095Y-70357142D01*
X151285714Y-70071428D02*
X152047619Y-70071428D01*
X152476190Y-70404761D02*
X152619047Y-70452380D01*
X152857142Y-70452380D01*
X152952380Y-70404761D01*
X153000000Y-70357142D01*
X153047619Y-70261904D01*
X153047619Y-70166666D01*
X153000000Y-70071428D01*
X152952380Y-70023809D01*
X152857142Y-69976190D01*
X152666666Y-69928571D01*
X152571428Y-69880952D01*
X152523809Y-69833333D01*
X152476190Y-69738095D01*
X152476190Y-69642857D01*
X152523809Y-69547619D01*
X152571428Y-69500000D01*
X152666666Y-69452380D01*
X152904761Y-69452380D01*
X153047619Y-69500000D01*
X153952380Y-69452380D02*
X153476190Y-69452380D01*
X153428571Y-69928571D01*
X153476190Y-69880952D01*
X153571428Y-69833333D01*
X153809523Y-69833333D01*
X153904761Y-69880952D01*
X153952380Y-69928571D01*
X154000000Y-70023809D01*
X154000000Y-70261904D01*
X153952380Y-70357142D01*
X153904761Y-70404761D01*
X153809523Y-70452380D01*
X153571428Y-70452380D01*
X153476190Y-70404761D01*
X153428571Y-70357142D01*
G04 #@! TO.C,U8*
X118476190Y-79952380D02*
X119142857Y-79952380D01*
X118476190Y-80952380D01*
X119142857Y-80952380D01*
X119714285Y-79952380D02*
X119809523Y-79952380D01*
X119904761Y-80000000D01*
X119952380Y-80047619D01*
X120000000Y-80142857D01*
X120047619Y-80333333D01*
X120047619Y-80571428D01*
X120000000Y-80761904D01*
X119952380Y-80857142D01*
X119904761Y-80904761D01*
X119809523Y-80952380D01*
X119714285Y-80952380D01*
X119619047Y-80904761D01*
X119571428Y-80857142D01*
X119523809Y-80761904D01*
X119476190Y-80571428D01*
X119476190Y-80333333D01*
X119523809Y-80142857D01*
X119571428Y-80047619D01*
X119619047Y-80000000D01*
X119714285Y-79952380D01*
X121000000Y-80952380D02*
X120428571Y-80952380D01*
X120714285Y-80952380D02*
X120714285Y-79952380D01*
X120619047Y-80095238D01*
X120523809Y-80190476D01*
X120428571Y-80238095D01*
X121619047Y-79952380D02*
X121714285Y-79952380D01*
X121809523Y-80000000D01*
X121857142Y-80047619D01*
X121904761Y-80142857D01*
X121952380Y-80333333D01*
X121952380Y-80571428D01*
X121904761Y-80761904D01*
X121857142Y-80857142D01*
X121809523Y-80904761D01*
X121714285Y-80952380D01*
X121619047Y-80952380D01*
X121523809Y-80904761D01*
X121476190Y-80857142D01*
X121428571Y-80761904D01*
X121380952Y-80571428D01*
X121380952Y-80333333D01*
X121428571Y-80142857D01*
X121476190Y-80047619D01*
X121523809Y-80000000D01*
X121619047Y-79952380D01*
X122285714Y-79952380D02*
X122904761Y-79952380D01*
X122571428Y-80333333D01*
X122714285Y-80333333D01*
X122809523Y-80380952D01*
X122857142Y-80428571D01*
X122904761Y-80523809D01*
X122904761Y-80761904D01*
X122857142Y-80857142D01*
X122809523Y-80904761D01*
X122714285Y-80952380D01*
X122428571Y-80952380D01*
X122333333Y-80904761D01*
X122285714Y-80857142D01*
X123333333Y-80952380D02*
X123333333Y-79952380D01*
X123666666Y-80666666D01*
X124000000Y-79952380D01*
X124000000Y-80952380D01*
X124476190Y-80952380D02*
X124476190Y-79952380D01*
X125047619Y-80952380D01*
X125047619Y-79952380D01*
X126761904Y-79952380D02*
X126285714Y-79952380D01*
X126238095Y-80428571D01*
X126285714Y-80380952D01*
X126380952Y-80333333D01*
X126619047Y-80333333D01*
X126714285Y-80380952D01*
X126761904Y-80428571D01*
X126809523Y-80523809D01*
X126809523Y-80761904D01*
X126761904Y-80857142D01*
X126714285Y-80904761D01*
X126619047Y-80952380D01*
X126380952Y-80952380D01*
X126285714Y-80904761D01*
X126238095Y-80857142D01*
X127190476Y-80666666D02*
X127666666Y-80666666D01*
X127095238Y-80952380D02*
X127428571Y-79952380D01*
X127761904Y-80952380D01*
X128047619Y-80666666D02*
X128523809Y-80666666D01*
X127952380Y-80952380D02*
X128285714Y-79952380D01*
X128619047Y-80952380D01*
X129380952Y-80285714D02*
X129380952Y-80952380D01*
X129142857Y-79904761D02*
X128904761Y-80619047D01*
X129523809Y-80619047D01*
D13*
X123561904Y-85609523D02*
X124209523Y-85609523D01*
X124285714Y-85571428D01*
X124323809Y-85533333D01*
X124361904Y-85457142D01*
X124361904Y-85304761D01*
X124323809Y-85228571D01*
X124285714Y-85190476D01*
X124209523Y-85152380D01*
X123561904Y-85152380D01*
X123904761Y-84657142D02*
X123866666Y-84733333D01*
X123828571Y-84771428D01*
X123752380Y-84809523D01*
X123714285Y-84809523D01*
X123638095Y-84771428D01*
X123600000Y-84733333D01*
X123561904Y-84657142D01*
X123561904Y-84504761D01*
X123600000Y-84428571D01*
X123638095Y-84390476D01*
X123714285Y-84352380D01*
X123752380Y-84352380D01*
X123828571Y-84390476D01*
X123866666Y-84428571D01*
X123904761Y-84504761D01*
X123904761Y-84657142D01*
X123942857Y-84733333D01*
X123980952Y-84771428D01*
X124057142Y-84809523D01*
X124209523Y-84809523D01*
X124285714Y-84771428D01*
X124323809Y-84733333D01*
X124361904Y-84657142D01*
X124361904Y-84504761D01*
X124323809Y-84428571D01*
X124285714Y-84390476D01*
X124209523Y-84352380D01*
X124057142Y-84352380D01*
X123980952Y-84390476D01*
X123942857Y-84428571D01*
X123904761Y-84504761D01*
G04 #@! TO.C,U9*
D11*
X118476190Y-69952380D02*
X119142857Y-69952380D01*
X118476190Y-70952380D01*
X119142857Y-70952380D01*
X119714285Y-69952380D02*
X119809523Y-69952380D01*
X119904761Y-70000000D01*
X119952380Y-70047619D01*
X120000000Y-70142857D01*
X120047619Y-70333333D01*
X120047619Y-70571428D01*
X120000000Y-70761904D01*
X119952380Y-70857142D01*
X119904761Y-70904761D01*
X119809523Y-70952380D01*
X119714285Y-70952380D01*
X119619047Y-70904761D01*
X119571428Y-70857142D01*
X119523809Y-70761904D01*
X119476190Y-70571428D01*
X119476190Y-70333333D01*
X119523809Y-70142857D01*
X119571428Y-70047619D01*
X119619047Y-70000000D01*
X119714285Y-69952380D01*
X121000000Y-70952380D02*
X120428571Y-70952380D01*
X120714285Y-70952380D02*
X120714285Y-69952380D01*
X120619047Y-70095238D01*
X120523809Y-70190476D01*
X120428571Y-70238095D01*
X121619047Y-69952380D02*
X121714285Y-69952380D01*
X121809523Y-70000000D01*
X121857142Y-70047619D01*
X121904761Y-70142857D01*
X121952380Y-70333333D01*
X121952380Y-70571428D01*
X121904761Y-70761904D01*
X121857142Y-70857142D01*
X121809523Y-70904761D01*
X121714285Y-70952380D01*
X121619047Y-70952380D01*
X121523809Y-70904761D01*
X121476190Y-70857142D01*
X121428571Y-70761904D01*
X121380952Y-70571428D01*
X121380952Y-70333333D01*
X121428571Y-70142857D01*
X121476190Y-70047619D01*
X121523809Y-70000000D01*
X121619047Y-69952380D01*
X122285714Y-69952380D02*
X122904761Y-69952380D01*
X122571428Y-70333333D01*
X122714285Y-70333333D01*
X122809523Y-70380952D01*
X122857142Y-70428571D01*
X122904761Y-70523809D01*
X122904761Y-70761904D01*
X122857142Y-70857142D01*
X122809523Y-70904761D01*
X122714285Y-70952380D01*
X122428571Y-70952380D01*
X122333333Y-70904761D01*
X122285714Y-70857142D01*
X123333333Y-70952380D02*
X123333333Y-69952380D01*
X123666666Y-70666666D01*
X124000000Y-69952380D01*
X124000000Y-70952380D01*
X124476190Y-70952380D02*
X124476190Y-69952380D01*
X125047619Y-70952380D01*
X125047619Y-69952380D01*
X126761904Y-69952380D02*
X126285714Y-69952380D01*
X126238095Y-70428571D01*
X126285714Y-70380952D01*
X126380952Y-70333333D01*
X126619047Y-70333333D01*
X126714285Y-70380952D01*
X126761904Y-70428571D01*
X126809523Y-70523809D01*
X126809523Y-70761904D01*
X126761904Y-70857142D01*
X126714285Y-70904761D01*
X126619047Y-70952380D01*
X126380952Y-70952380D01*
X126285714Y-70904761D01*
X126238095Y-70857142D01*
X127190476Y-70666666D02*
X127666666Y-70666666D01*
X127095238Y-70952380D02*
X127428571Y-69952380D01*
X127761904Y-70952380D01*
X128047619Y-70666666D02*
X128523809Y-70666666D01*
X127952380Y-70952380D02*
X128285714Y-69952380D01*
X128619047Y-70952380D01*
X129380952Y-70285714D02*
X129380952Y-70952380D01*
X129142857Y-69904761D02*
X128904761Y-70619047D01*
X129523809Y-70619047D01*
D13*
X123561904Y-75609523D02*
X124209523Y-75609523D01*
X124285714Y-75571428D01*
X124323809Y-75533333D01*
X124361904Y-75457142D01*
X124361904Y-75304761D01*
X124323809Y-75228571D01*
X124285714Y-75190476D01*
X124209523Y-75152380D01*
X123561904Y-75152380D01*
X124361904Y-74733333D02*
X124361904Y-74580952D01*
X124323809Y-74504761D01*
X124285714Y-74466666D01*
X124171428Y-74390476D01*
X124019047Y-74352380D01*
X123714285Y-74352380D01*
X123638095Y-74390476D01*
X123600000Y-74428571D01*
X123561904Y-74504761D01*
X123561904Y-74657142D01*
X123600000Y-74733333D01*
X123638095Y-74771428D01*
X123714285Y-74809523D01*
X123904761Y-74809523D01*
X123980952Y-74771428D01*
X124019047Y-74733333D01*
X124057142Y-74657142D01*
X124057142Y-74504761D01*
X124019047Y-74428571D01*
X123980952Y-74390476D01*
X123904761Y-74352380D01*
G04 #@! TO.C,U10*
D11*
X118476190Y-59952380D02*
X119142857Y-59952380D01*
X118476190Y-60952380D01*
X119142857Y-60952380D01*
X119714285Y-59952380D02*
X119809523Y-59952380D01*
X119904761Y-60000000D01*
X119952380Y-60047619D01*
X120000000Y-60142857D01*
X120047619Y-60333333D01*
X120047619Y-60571428D01*
X120000000Y-60761904D01*
X119952380Y-60857142D01*
X119904761Y-60904761D01*
X119809523Y-60952380D01*
X119714285Y-60952380D01*
X119619047Y-60904761D01*
X119571428Y-60857142D01*
X119523809Y-60761904D01*
X119476190Y-60571428D01*
X119476190Y-60333333D01*
X119523809Y-60142857D01*
X119571428Y-60047619D01*
X119619047Y-60000000D01*
X119714285Y-59952380D01*
X121000000Y-60952380D02*
X120428571Y-60952380D01*
X120714285Y-60952380D02*
X120714285Y-59952380D01*
X120619047Y-60095238D01*
X120523809Y-60190476D01*
X120428571Y-60238095D01*
X121619047Y-59952380D02*
X121714285Y-59952380D01*
X121809523Y-60000000D01*
X121857142Y-60047619D01*
X121904761Y-60142857D01*
X121952380Y-60333333D01*
X121952380Y-60571428D01*
X121904761Y-60761904D01*
X121857142Y-60857142D01*
X121809523Y-60904761D01*
X121714285Y-60952380D01*
X121619047Y-60952380D01*
X121523809Y-60904761D01*
X121476190Y-60857142D01*
X121428571Y-60761904D01*
X121380952Y-60571428D01*
X121380952Y-60333333D01*
X121428571Y-60142857D01*
X121476190Y-60047619D01*
X121523809Y-60000000D01*
X121619047Y-59952380D01*
X122285714Y-59952380D02*
X122904761Y-59952380D01*
X122571428Y-60333333D01*
X122714285Y-60333333D01*
X122809523Y-60380952D01*
X122857142Y-60428571D01*
X122904761Y-60523809D01*
X122904761Y-60761904D01*
X122857142Y-60857142D01*
X122809523Y-60904761D01*
X122714285Y-60952380D01*
X122428571Y-60952380D01*
X122333333Y-60904761D01*
X122285714Y-60857142D01*
X123333333Y-60952380D02*
X123333333Y-59952380D01*
X123666666Y-60666666D01*
X124000000Y-59952380D01*
X124000000Y-60952380D01*
X124476190Y-60952380D02*
X124476190Y-59952380D01*
X125047619Y-60952380D01*
X125047619Y-59952380D01*
X126761904Y-59952380D02*
X126285714Y-59952380D01*
X126238095Y-60428571D01*
X126285714Y-60380952D01*
X126380952Y-60333333D01*
X126619047Y-60333333D01*
X126714285Y-60380952D01*
X126761904Y-60428571D01*
X126809523Y-60523809D01*
X126809523Y-60761904D01*
X126761904Y-60857142D01*
X126714285Y-60904761D01*
X126619047Y-60952380D01*
X126380952Y-60952380D01*
X126285714Y-60904761D01*
X126238095Y-60857142D01*
X127190476Y-60666666D02*
X127666666Y-60666666D01*
X127095238Y-60952380D02*
X127428571Y-59952380D01*
X127761904Y-60952380D01*
X128047619Y-60666666D02*
X128523809Y-60666666D01*
X127952380Y-60952380D02*
X128285714Y-59952380D01*
X128619047Y-60952380D01*
X129380952Y-60285714D02*
X129380952Y-60952380D01*
X129142857Y-59904761D02*
X128904761Y-60619047D01*
X129523809Y-60619047D01*
D13*
X123561904Y-65990476D02*
X124209523Y-65990476D01*
X124285714Y-65952380D01*
X124323809Y-65914285D01*
X124361904Y-65838095D01*
X124361904Y-65685714D01*
X124323809Y-65609523D01*
X124285714Y-65571428D01*
X124209523Y-65533333D01*
X123561904Y-65533333D01*
X124361904Y-64733333D02*
X124361904Y-65190476D01*
X124361904Y-64961904D02*
X123561904Y-64961904D01*
X123676190Y-65038095D01*
X123752380Y-65114285D01*
X123790476Y-65190476D01*
X123561904Y-64238095D02*
X123561904Y-64161904D01*
X123600000Y-64085714D01*
X123638095Y-64047619D01*
X123714285Y-64009523D01*
X123866666Y-63971428D01*
X124057142Y-63971428D01*
X124209523Y-64009523D01*
X124285714Y-64047619D01*
X124323809Y-64085714D01*
X124361904Y-64161904D01*
X124361904Y-64238095D01*
X124323809Y-64314285D01*
X124285714Y-64352380D01*
X124209523Y-64390476D01*
X124057142Y-64428571D01*
X123866666Y-64428571D01*
X123714285Y-64390476D01*
X123638095Y-64352380D01*
X123600000Y-64314285D01*
X123561904Y-64238095D01*
G04 #@! TO.C,C5*
D11*
X146345238Y-108155714D02*
X146345238Y-108822380D01*
X146107142Y-107774761D02*
X145869047Y-108489047D01*
X146488095Y-108489047D01*
X146916666Y-108774761D02*
X146916666Y-108822380D01*
X146869047Y-108917619D01*
X146821428Y-108965238D01*
X147250000Y-107822380D02*
X147916666Y-107822380D01*
X147488095Y-108822380D01*
X148726190Y-108155714D02*
X148726190Y-108822380D01*
X148297619Y-108155714D02*
X148297619Y-108679523D01*
X148345238Y-108774761D01*
X148440476Y-108822380D01*
X148583333Y-108822380D01*
X148678571Y-108774761D01*
X148726190Y-108727142D01*
X149535714Y-108298571D02*
X149202380Y-108298571D01*
X149202380Y-108822380D02*
X149202380Y-107822380D01*
X149678571Y-107822380D01*
X147583333Y-103357142D02*
X147535714Y-103404761D01*
X147392857Y-103452380D01*
X147297619Y-103452380D01*
X147154761Y-103404761D01*
X147059523Y-103309523D01*
X147011904Y-103214285D01*
X146964285Y-103023809D01*
X146964285Y-102880952D01*
X147011904Y-102690476D01*
X147059523Y-102595238D01*
X147154761Y-102500000D01*
X147297619Y-102452380D01*
X147392857Y-102452380D01*
X147535714Y-102500000D01*
X147583333Y-102547619D01*
X148488095Y-102452380D02*
X148011904Y-102452380D01*
X147964285Y-102928571D01*
X148011904Y-102880952D01*
X148107142Y-102833333D01*
X148345238Y-102833333D01*
X148440476Y-102880952D01*
X148488095Y-102928571D01*
X148535714Y-103023809D01*
X148535714Y-103261904D01*
X148488095Y-103357142D01*
X148440476Y-103404761D01*
X148345238Y-103452380D01*
X148107142Y-103452380D01*
X148011904Y-103404761D01*
X147964285Y-103357142D01*
G04 #@! TO.C,L3*
X163602380Y-100095238D02*
X163602380Y-99428571D01*
X164602380Y-99857142D01*
X163935714Y-98619047D02*
X164602380Y-98619047D01*
X163554761Y-98857142D02*
X164269047Y-99095238D01*
X164269047Y-98476190D01*
X163935714Y-97666666D02*
X164602380Y-97666666D01*
X163554761Y-97904761D02*
X164269047Y-98142857D01*
X164269047Y-97523809D01*
X163602380Y-97238095D02*
X163602380Y-96571428D01*
X164602380Y-97000000D01*
X164602380Y-96142857D02*
X164602380Y-95952380D01*
X164554761Y-95857142D01*
X164507142Y-95809523D01*
X164364285Y-95714285D01*
X164173809Y-95666666D01*
X163792857Y-95666666D01*
X163697619Y-95714285D01*
X163650000Y-95761904D01*
X163602380Y-95857142D01*
X163602380Y-96047619D01*
X163650000Y-96142857D01*
X163697619Y-96190476D01*
X163792857Y-96238095D01*
X164030952Y-96238095D01*
X164126190Y-96190476D01*
X164173809Y-96142857D01*
X164221428Y-96047619D01*
X164221428Y-95857142D01*
X164173809Y-95761904D01*
X164126190Y-95714285D01*
X164030952Y-95666666D01*
X163602380Y-95333333D02*
X163602380Y-94666666D01*
X164602380Y-95095238D01*
X163602380Y-94380952D02*
X163602380Y-93714285D01*
X164602380Y-94142857D01*
X163602380Y-92904761D02*
X163602380Y-93095238D01*
X163650000Y-93190476D01*
X163697619Y-93238095D01*
X163840476Y-93333333D01*
X164030952Y-93380952D01*
X164411904Y-93380952D01*
X164507142Y-93333333D01*
X164554761Y-93285714D01*
X164602380Y-93190476D01*
X164602380Y-93000000D01*
X164554761Y-92904761D01*
X164507142Y-92857142D01*
X164411904Y-92809523D01*
X164173809Y-92809523D01*
X164078571Y-92857142D01*
X164030952Y-92904761D01*
X163983333Y-93000000D01*
X163983333Y-93190476D01*
X164030952Y-93285714D01*
X164078571Y-93333333D01*
X164173809Y-93380952D01*
X163697619Y-92428571D02*
X163650000Y-92380952D01*
X163602380Y-92285714D01*
X163602380Y-92047619D01*
X163650000Y-91952380D01*
X163697619Y-91904761D01*
X163792857Y-91857142D01*
X163888095Y-91857142D01*
X164030952Y-91904761D01*
X164602380Y-92476190D01*
X164602380Y-91857142D01*
X163935714Y-91000000D02*
X164602380Y-91000000D01*
X163554761Y-91238095D02*
X164269047Y-91476190D01*
X164269047Y-90857142D01*
X163602380Y-90571428D02*
X163602380Y-89904761D01*
X164602380Y-90333333D01*
D12*
X166226190Y-95083333D02*
X166226190Y-95321428D01*
X165726190Y-95321428D01*
X165726190Y-94964285D02*
X165726190Y-94654761D01*
X165916666Y-94821428D01*
X165916666Y-94750000D01*
X165940476Y-94702380D01*
X165964285Y-94678571D01*
X166011904Y-94654761D01*
X166130952Y-94654761D01*
X166178571Y-94678571D01*
X166202380Y-94702380D01*
X166226190Y-94750000D01*
X166226190Y-94892857D01*
X166202380Y-94940476D01*
X166178571Y-94964285D01*
G04 #@! TO.C,R1*
D11*
X119333333Y-104802380D02*
X118761904Y-104802380D01*
X119047619Y-104802380D02*
X119047619Y-103802380D01*
X118952380Y-103945238D01*
X118857142Y-104040476D01*
X118761904Y-104088095D01*
X119952380Y-103802380D02*
X120047619Y-103802380D01*
X120142857Y-103850000D01*
X120190476Y-103897619D01*
X120238095Y-103992857D01*
X120285714Y-104183333D01*
X120285714Y-104421428D01*
X120238095Y-104611904D01*
X120190476Y-104707142D01*
X120142857Y-104754761D01*
X120047619Y-104802380D01*
X119952380Y-104802380D01*
X119857142Y-104754761D01*
X119809523Y-104707142D01*
X119761904Y-104611904D01*
X119714285Y-104421428D01*
X119714285Y-104183333D01*
X119761904Y-103992857D01*
X119809523Y-103897619D01*
X119857142Y-103850000D01*
X119952380Y-103802380D01*
X120904761Y-103802380D02*
X121000000Y-103802380D01*
X121095238Y-103850000D01*
X121142857Y-103897619D01*
X121190476Y-103992857D01*
X121238095Y-104183333D01*
X121238095Y-104421428D01*
X121190476Y-104611904D01*
X121142857Y-104707142D01*
X121095238Y-104754761D01*
X121000000Y-104802380D01*
X120904761Y-104802380D01*
X120809523Y-104754761D01*
X120761904Y-104707142D01*
X120714285Y-104611904D01*
X120666666Y-104421428D01*
X120666666Y-104183333D01*
X120714285Y-103992857D01*
X120761904Y-103897619D01*
X120809523Y-103850000D01*
X120904761Y-103802380D01*
D12*
X119916666Y-102726190D02*
X119750000Y-102488095D01*
X119630952Y-102726190D02*
X119630952Y-102226190D01*
X119821428Y-102226190D01*
X119869047Y-102250000D01*
X119892857Y-102273809D01*
X119916666Y-102321428D01*
X119916666Y-102392857D01*
X119892857Y-102440476D01*
X119869047Y-102464285D01*
X119821428Y-102488095D01*
X119630952Y-102488095D01*
X120392857Y-102726190D02*
X120107142Y-102726190D01*
X120250000Y-102726190D02*
X120250000Y-102226190D01*
X120202380Y-102297619D01*
X120154761Y-102345238D01*
X120107142Y-102369047D01*
G04 #@! TO.C,R2*
D11*
X119375833Y-101802380D02*
X118804404Y-101802380D01*
X119090119Y-101802380D02*
X119090119Y-100802380D01*
X118994880Y-100945238D01*
X118899642Y-101040476D01*
X118804404Y-101088095D01*
X119994880Y-100802380D02*
X120090119Y-100802380D01*
X120185357Y-100850000D01*
X120232976Y-100897619D01*
X120280595Y-100992857D01*
X120328214Y-101183333D01*
X120328214Y-101421428D01*
X120280595Y-101611904D01*
X120232976Y-101707142D01*
X120185357Y-101754761D01*
X120090119Y-101802380D01*
X119994880Y-101802380D01*
X119899642Y-101754761D01*
X119852023Y-101707142D01*
X119804404Y-101611904D01*
X119756785Y-101421428D01*
X119756785Y-101183333D01*
X119804404Y-100992857D01*
X119852023Y-100897619D01*
X119899642Y-100850000D01*
X119994880Y-100802380D01*
X120947261Y-100802380D02*
X121042500Y-100802380D01*
X121137738Y-100850000D01*
X121185357Y-100897619D01*
X121232976Y-100992857D01*
X121280595Y-101183333D01*
X121280595Y-101421428D01*
X121232976Y-101611904D01*
X121185357Y-101707142D01*
X121137738Y-101754761D01*
X121042500Y-101802380D01*
X120947261Y-101802380D01*
X120852023Y-101754761D01*
X120804404Y-101707142D01*
X120756785Y-101611904D01*
X120709166Y-101421428D01*
X120709166Y-101183333D01*
X120756785Y-100992857D01*
X120804404Y-100897619D01*
X120852023Y-100850000D01*
X120947261Y-100802380D01*
D12*
X119959166Y-99726190D02*
X119792500Y-99488095D01*
X119673452Y-99726190D02*
X119673452Y-99226190D01*
X119863928Y-99226190D01*
X119911547Y-99250000D01*
X119935357Y-99273809D01*
X119959166Y-99321428D01*
X119959166Y-99392857D01*
X119935357Y-99440476D01*
X119911547Y-99464285D01*
X119863928Y-99488095D01*
X119673452Y-99488095D01*
X120149642Y-99273809D02*
X120173452Y-99250000D01*
X120221071Y-99226190D01*
X120340119Y-99226190D01*
X120387738Y-99250000D01*
X120411547Y-99273809D01*
X120435357Y-99321428D01*
X120435357Y-99369047D01*
X120411547Y-99440476D01*
X120125833Y-99726190D01*
X120435357Y-99726190D01*
G04 #@! TO.C,R3*
D11*
X119333333Y-98802380D02*
X118761904Y-98802380D01*
X119047619Y-98802380D02*
X119047619Y-97802380D01*
X118952380Y-97945238D01*
X118857142Y-98040476D01*
X118761904Y-98088095D01*
X119952380Y-97802380D02*
X120047619Y-97802380D01*
X120142857Y-97850000D01*
X120190476Y-97897619D01*
X120238095Y-97992857D01*
X120285714Y-98183333D01*
X120285714Y-98421428D01*
X120238095Y-98611904D01*
X120190476Y-98707142D01*
X120142857Y-98754761D01*
X120047619Y-98802380D01*
X119952380Y-98802380D01*
X119857142Y-98754761D01*
X119809523Y-98707142D01*
X119761904Y-98611904D01*
X119714285Y-98421428D01*
X119714285Y-98183333D01*
X119761904Y-97992857D01*
X119809523Y-97897619D01*
X119857142Y-97850000D01*
X119952380Y-97802380D01*
X120904761Y-97802380D02*
X121000000Y-97802380D01*
X121095238Y-97850000D01*
X121142857Y-97897619D01*
X121190476Y-97992857D01*
X121238095Y-98183333D01*
X121238095Y-98421428D01*
X121190476Y-98611904D01*
X121142857Y-98707142D01*
X121095238Y-98754761D01*
X121000000Y-98802380D01*
X120904761Y-98802380D01*
X120809523Y-98754761D01*
X120761904Y-98707142D01*
X120714285Y-98611904D01*
X120666666Y-98421428D01*
X120666666Y-98183333D01*
X120714285Y-97992857D01*
X120761904Y-97897619D01*
X120809523Y-97850000D01*
X120904761Y-97802380D01*
D12*
X119916666Y-96726190D02*
X119750000Y-96488095D01*
X119630952Y-96726190D02*
X119630952Y-96226190D01*
X119821428Y-96226190D01*
X119869047Y-96250000D01*
X119892857Y-96273809D01*
X119916666Y-96321428D01*
X119916666Y-96392857D01*
X119892857Y-96440476D01*
X119869047Y-96464285D01*
X119821428Y-96488095D01*
X119630952Y-96488095D01*
X120083333Y-96226190D02*
X120392857Y-96226190D01*
X120226190Y-96416666D01*
X120297619Y-96416666D01*
X120345238Y-96440476D01*
X120369047Y-96464285D01*
X120392857Y-96511904D01*
X120392857Y-96630952D01*
X120369047Y-96678571D01*
X120345238Y-96702380D01*
X120297619Y-96726190D01*
X120154761Y-96726190D01*
X120107142Y-96702380D01*
X120083333Y-96678571D01*
G04 #@! TO.C,C11*
D11*
X160833333Y-105882380D02*
X160642857Y-105882380D01*
X160547619Y-105930000D01*
X160500000Y-105977619D01*
X160404761Y-106120476D01*
X160357142Y-106310952D01*
X160357142Y-106691904D01*
X160404761Y-106787142D01*
X160452380Y-106834761D01*
X160547619Y-106882380D01*
X160738095Y-106882380D01*
X160833333Y-106834761D01*
X160880952Y-106787142D01*
X160928571Y-106691904D01*
X160928571Y-106453809D01*
X160880952Y-106358571D01*
X160833333Y-106310952D01*
X160738095Y-106263333D01*
X160547619Y-106263333D01*
X160452380Y-106310952D01*
X160404761Y-106358571D01*
X160357142Y-106453809D01*
X161500000Y-106310952D02*
X161404761Y-106263333D01*
X161357142Y-106215714D01*
X161309523Y-106120476D01*
X161309523Y-106072857D01*
X161357142Y-105977619D01*
X161404761Y-105930000D01*
X161500000Y-105882380D01*
X161690476Y-105882380D01*
X161785714Y-105930000D01*
X161833333Y-105977619D01*
X161880952Y-106072857D01*
X161880952Y-106120476D01*
X161833333Y-106215714D01*
X161785714Y-106263333D01*
X161690476Y-106310952D01*
X161500000Y-106310952D01*
X161404761Y-106358571D01*
X161357142Y-106406190D01*
X161309523Y-106501428D01*
X161309523Y-106691904D01*
X161357142Y-106787142D01*
X161404761Y-106834761D01*
X161500000Y-106882380D01*
X161690476Y-106882380D01*
X161785714Y-106834761D01*
X161833333Y-106787142D01*
X161880952Y-106691904D01*
X161880952Y-106501428D01*
X161833333Y-106406190D01*
X161785714Y-106358571D01*
X161690476Y-106310952D01*
X162738095Y-106215714D02*
X162738095Y-106882380D01*
X162309523Y-106215714D02*
X162309523Y-106739523D01*
X162357142Y-106834761D01*
X162452380Y-106882380D01*
X162595238Y-106882380D01*
X162690476Y-106834761D01*
X162738095Y-106787142D01*
X163547619Y-106358571D02*
X163214285Y-106358571D01*
X163214285Y-106882380D02*
X163214285Y-105882380D01*
X163690476Y-105882380D01*
X163349047Y-102151428D02*
X164110952Y-102151428D01*
X163730000Y-102532380D02*
X163730000Y-101770476D01*
X161357142Y-97927142D02*
X161309523Y-97974761D01*
X161166666Y-98022380D01*
X161071428Y-98022380D01*
X160928571Y-97974761D01*
X160833333Y-97879523D01*
X160785714Y-97784285D01*
X160738095Y-97593809D01*
X160738095Y-97450952D01*
X160785714Y-97260476D01*
X160833333Y-97165238D01*
X160928571Y-97070000D01*
X161071428Y-97022380D01*
X161166666Y-97022380D01*
X161309523Y-97070000D01*
X161357142Y-97117619D01*
X162309523Y-98022380D02*
X161738095Y-98022380D01*
X162023809Y-98022380D02*
X162023809Y-97022380D01*
X161928571Y-97165238D01*
X161833333Y-97260476D01*
X161738095Y-97308095D01*
X163261904Y-98022380D02*
X162690476Y-98022380D01*
X162976190Y-98022380D02*
X162976190Y-97022380D01*
X162880952Y-97165238D01*
X162785714Y-97260476D01*
X162690476Y-97308095D01*
G04 #@! TO.C,C12*
X158452380Y-106902380D02*
X157880952Y-106902380D01*
X158166666Y-106902380D02*
X158166666Y-105902380D01*
X158071428Y-106045238D01*
X157976190Y-106140476D01*
X157880952Y-106188095D01*
X159071428Y-105902380D02*
X159166666Y-105902380D01*
X159261904Y-105950000D01*
X159309523Y-105997619D01*
X159357142Y-106092857D01*
X159404761Y-106283333D01*
X159404761Y-106521428D01*
X159357142Y-106711904D01*
X159309523Y-106807142D01*
X159261904Y-106854761D01*
X159166666Y-106902380D01*
X159071428Y-106902380D01*
X158976190Y-106854761D01*
X158928571Y-106807142D01*
X158880952Y-106711904D01*
X158833333Y-106521428D01*
X158833333Y-106283333D01*
X158880952Y-106092857D01*
X158928571Y-105997619D01*
X158976190Y-105950000D01*
X159071428Y-105902380D01*
X160023809Y-105902380D02*
X160119047Y-105902380D01*
X160214285Y-105950000D01*
X160261904Y-105997619D01*
X160309523Y-106092857D01*
X160357142Y-106283333D01*
X160357142Y-106521428D01*
X160309523Y-106711904D01*
X160261904Y-106807142D01*
X160214285Y-106854761D01*
X160119047Y-106902380D01*
X160023809Y-106902380D01*
X159928571Y-106854761D01*
X159880952Y-106807142D01*
X159833333Y-106711904D01*
X159785714Y-106521428D01*
X159785714Y-106283333D01*
X159833333Y-106092857D01*
X159880952Y-105997619D01*
X159928571Y-105950000D01*
X160023809Y-105902380D01*
X160785714Y-106235714D02*
X160785714Y-106902380D01*
X160785714Y-106330952D02*
X160833333Y-106283333D01*
X160928571Y-106235714D01*
X161071428Y-106235714D01*
X161166666Y-106283333D01*
X161214285Y-106378571D01*
X161214285Y-106902380D01*
X162023809Y-106378571D02*
X161690476Y-106378571D01*
X161690476Y-106902380D02*
X161690476Y-105902380D01*
X162166666Y-105902380D01*
D13*
X159485714Y-108785714D02*
X159447619Y-108823809D01*
X159333333Y-108861904D01*
X159257142Y-108861904D01*
X159142857Y-108823809D01*
X159066666Y-108747619D01*
X159028571Y-108671428D01*
X158990476Y-108519047D01*
X158990476Y-108404761D01*
X159028571Y-108252380D01*
X159066666Y-108176190D01*
X159142857Y-108100000D01*
X159257142Y-108061904D01*
X159333333Y-108061904D01*
X159447619Y-108100000D01*
X159485714Y-108138095D01*
X160247619Y-108861904D02*
X159790476Y-108861904D01*
X160019047Y-108861904D02*
X160019047Y-108061904D01*
X159942857Y-108176190D01*
X159866666Y-108252380D01*
X159790476Y-108290476D01*
X160552380Y-108138095D02*
X160590476Y-108100000D01*
X160666666Y-108061904D01*
X160857142Y-108061904D01*
X160933333Y-108100000D01*
X160971428Y-108138095D01*
X161009523Y-108214285D01*
X161009523Y-108290476D01*
X160971428Y-108404761D01*
X160514285Y-108861904D01*
X161009523Y-108861904D01*
G04 #@! TO.C,R4*
D11*
X146567619Y-129350000D02*
X146520000Y-129302380D01*
X146472380Y-129207142D01*
X146472380Y-128969047D01*
X146520000Y-128873809D01*
X146567619Y-128826190D01*
X146662857Y-128778571D01*
X146758095Y-128778571D01*
X146900952Y-128826190D01*
X147472380Y-129397619D01*
X147472380Y-128778571D01*
X147377142Y-128350000D02*
X147424761Y-128302380D01*
X147472380Y-128350000D01*
X147424761Y-128397619D01*
X147377142Y-128350000D01*
X147472380Y-128350000D01*
X146567619Y-127921428D02*
X146520000Y-127873809D01*
X146472380Y-127778571D01*
X146472380Y-127540476D01*
X146520000Y-127445238D01*
X146567619Y-127397619D01*
X146662857Y-127350000D01*
X146758095Y-127350000D01*
X146900952Y-127397619D01*
X147472380Y-127969047D01*
X147472380Y-127350000D01*
X147472380Y-126921428D02*
X146472380Y-126921428D01*
X147472380Y-126350000D02*
X146900952Y-126778571D01*
X146472380Y-126350000D02*
X147043809Y-126921428D01*
D12*
X149096190Y-127933333D02*
X148858095Y-128100000D01*
X149096190Y-128219047D02*
X148596190Y-128219047D01*
X148596190Y-128028571D01*
X148620000Y-127980952D01*
X148643809Y-127957142D01*
X148691428Y-127933333D01*
X148762857Y-127933333D01*
X148810476Y-127957142D01*
X148834285Y-127980952D01*
X148858095Y-128028571D01*
X148858095Y-128219047D01*
X148762857Y-127504761D02*
X149096190Y-127504761D01*
X148572380Y-127623809D02*
X148929523Y-127742857D01*
X148929523Y-127433333D01*
G04 #@! TO.C,R5*
D11*
X143547619Y-129370000D02*
X143500000Y-129322380D01*
X143452380Y-129227142D01*
X143452380Y-128989047D01*
X143500000Y-128893809D01*
X143547619Y-128846190D01*
X143642857Y-128798571D01*
X143738095Y-128798571D01*
X143880952Y-128846190D01*
X144452380Y-129417619D01*
X144452380Y-128798571D01*
X144357142Y-128370000D02*
X144404761Y-128322380D01*
X144452380Y-128370000D01*
X144404761Y-128417619D01*
X144357142Y-128370000D01*
X144452380Y-128370000D01*
X143547619Y-127941428D02*
X143500000Y-127893809D01*
X143452380Y-127798571D01*
X143452380Y-127560476D01*
X143500000Y-127465238D01*
X143547619Y-127417619D01*
X143642857Y-127370000D01*
X143738095Y-127370000D01*
X143880952Y-127417619D01*
X144452380Y-127989047D01*
X144452380Y-127370000D01*
X144452380Y-126941428D02*
X143452380Y-126941428D01*
X144452380Y-126370000D02*
X143880952Y-126798571D01*
X143452380Y-126370000D02*
X144023809Y-126941428D01*
D12*
X146076190Y-127953333D02*
X145838095Y-128120000D01*
X146076190Y-128239047D02*
X145576190Y-128239047D01*
X145576190Y-128048571D01*
X145600000Y-128000952D01*
X145623809Y-127977142D01*
X145671428Y-127953333D01*
X145742857Y-127953333D01*
X145790476Y-127977142D01*
X145814285Y-128000952D01*
X145838095Y-128048571D01*
X145838095Y-128239047D01*
X145576190Y-127500952D02*
X145576190Y-127739047D01*
X145814285Y-127762857D01*
X145790476Y-127739047D01*
X145766666Y-127691428D01*
X145766666Y-127572380D01*
X145790476Y-127524761D01*
X145814285Y-127500952D01*
X145861904Y-127477142D01*
X145980952Y-127477142D01*
X146028571Y-127500952D01*
X146052380Y-127524761D01*
X146076190Y-127572380D01*
X146076190Y-127691428D01*
X146052380Y-127739047D01*
X146028571Y-127762857D01*
G04 #@! TO.C,U11*
D11*
X147233333Y-126932380D02*
X147804761Y-126932380D01*
X147519047Y-127932380D02*
X147519047Y-126932380D01*
X148614285Y-127932380D02*
X148138095Y-127932380D01*
X148138095Y-126932380D01*
X148900000Y-127646666D02*
X149376190Y-127646666D01*
X148804761Y-127932380D02*
X149138095Y-126932380D01*
X149471428Y-127932380D01*
X149757142Y-127027619D02*
X149804761Y-126980000D01*
X149900000Y-126932380D01*
X150138095Y-126932380D01*
X150233333Y-126980000D01*
X150280952Y-127027619D01*
X150328571Y-127122857D01*
X150328571Y-127218095D01*
X150280952Y-127360952D01*
X149709523Y-127932380D01*
X150328571Y-127932380D01*
X150947619Y-126932380D02*
X151042857Y-126932380D01*
X151138095Y-126980000D01*
X151185714Y-127027619D01*
X151233333Y-127122857D01*
X151280952Y-127313333D01*
X151280952Y-127551428D01*
X151233333Y-127741904D01*
X151185714Y-127837142D01*
X151138095Y-127884761D01*
X151042857Y-127932380D01*
X150947619Y-127932380D01*
X150852380Y-127884761D01*
X150804761Y-127837142D01*
X150757142Y-127741904D01*
X150709523Y-127551428D01*
X150709523Y-127313333D01*
X150757142Y-127122857D01*
X150804761Y-127027619D01*
X150852380Y-126980000D01*
X150947619Y-126932380D01*
X151661904Y-127027619D02*
X151709523Y-126980000D01*
X151804761Y-126932380D01*
X152042857Y-126932380D01*
X152138095Y-126980000D01*
X152185714Y-127027619D01*
X152233333Y-127122857D01*
X152233333Y-127218095D01*
X152185714Y-127360952D01*
X151614285Y-127932380D01*
X152233333Y-127932380D01*
X153090476Y-127265714D02*
X153090476Y-127932380D01*
X152852380Y-126884761D02*
X152614285Y-127599047D01*
X153233333Y-127599047D01*
X153614285Y-127932380D02*
X153614285Y-126932380D01*
X154661904Y-127932380D02*
X154328571Y-127456190D01*
X154090476Y-127932380D02*
X154090476Y-126932380D01*
X154471428Y-126932380D01*
X154566666Y-126980000D01*
X154614285Y-127027619D01*
X154661904Y-127122857D01*
X154661904Y-127265714D01*
X154614285Y-127360952D01*
X154566666Y-127408571D01*
X154471428Y-127456190D01*
X154090476Y-127456190D01*
X155090476Y-126932380D02*
X155090476Y-127741904D01*
X155138095Y-127837142D01*
X155185714Y-127884761D01*
X155280952Y-127932380D01*
X155471428Y-127932380D01*
X155566666Y-127884761D01*
X155614285Y-127837142D01*
X155661904Y-127741904D01*
X155661904Y-126932380D01*
X156661904Y-126980000D02*
X156566666Y-126932380D01*
X156423809Y-126932380D01*
X156280952Y-126980000D01*
X156185714Y-127075238D01*
X156138095Y-127170476D01*
X156090476Y-127360952D01*
X156090476Y-127503809D01*
X156138095Y-127694285D01*
X156185714Y-127789523D01*
X156280952Y-127884761D01*
X156423809Y-127932380D01*
X156519047Y-127932380D01*
X156661904Y-127884761D01*
X156709523Y-127837142D01*
X156709523Y-127503809D01*
X156519047Y-127503809D01*
X156995238Y-126932380D02*
X157566666Y-126932380D01*
X157280952Y-127932380D02*
X157280952Y-126932380D01*
G04 #@! TO.C,R6*
X155767023Y-120302380D02*
X155195595Y-120302380D01*
X155481309Y-120302380D02*
X155481309Y-119302380D01*
X155386071Y-119445238D01*
X155290833Y-119540476D01*
X155195595Y-119588095D01*
X156386071Y-119302380D02*
X156481309Y-119302380D01*
X156576547Y-119350000D01*
X156624166Y-119397619D01*
X156671785Y-119492857D01*
X156719404Y-119683333D01*
X156719404Y-119921428D01*
X156671785Y-120111904D01*
X156624166Y-120207142D01*
X156576547Y-120254761D01*
X156481309Y-120302380D01*
X156386071Y-120302380D01*
X156290833Y-120254761D01*
X156243214Y-120207142D01*
X156195595Y-120111904D01*
X156147976Y-119921428D01*
X156147976Y-119683333D01*
X156195595Y-119492857D01*
X156243214Y-119397619D01*
X156290833Y-119350000D01*
X156386071Y-119302380D01*
X157147976Y-120302380D02*
X157147976Y-119302380D01*
X157719404Y-120302380D02*
X157290833Y-119730952D01*
X157719404Y-119302380D02*
X157147976Y-119873809D01*
D12*
X156374166Y-118226190D02*
X156207500Y-117988095D01*
X156088452Y-118226190D02*
X156088452Y-117726190D01*
X156278928Y-117726190D01*
X156326547Y-117750000D01*
X156350357Y-117773809D01*
X156374166Y-117821428D01*
X156374166Y-117892857D01*
X156350357Y-117940476D01*
X156326547Y-117964285D01*
X156278928Y-117988095D01*
X156088452Y-117988095D01*
X156802738Y-117726190D02*
X156707500Y-117726190D01*
X156659880Y-117750000D01*
X156636071Y-117773809D01*
X156588452Y-117845238D01*
X156564642Y-117940476D01*
X156564642Y-118130952D01*
X156588452Y-118178571D01*
X156612261Y-118202380D01*
X156659880Y-118226190D01*
X156755119Y-118226190D01*
X156802738Y-118202380D01*
X156826547Y-118178571D01*
X156850357Y-118130952D01*
X156850357Y-118011904D01*
X156826547Y-117964285D01*
X156802738Y-117940476D01*
X156755119Y-117916666D01*
X156659880Y-117916666D01*
X156612261Y-117940476D01*
X156588452Y-117964285D01*
X156564642Y-118011904D01*
G04 #@! TO.C,R7*
D11*
X155767023Y-125302380D02*
X155195595Y-125302380D01*
X155481309Y-125302380D02*
X155481309Y-124302380D01*
X155386071Y-124445238D01*
X155290833Y-124540476D01*
X155195595Y-124588095D01*
X156386071Y-124302380D02*
X156481309Y-124302380D01*
X156576547Y-124350000D01*
X156624166Y-124397619D01*
X156671785Y-124492857D01*
X156719404Y-124683333D01*
X156719404Y-124921428D01*
X156671785Y-125111904D01*
X156624166Y-125207142D01*
X156576547Y-125254761D01*
X156481309Y-125302380D01*
X156386071Y-125302380D01*
X156290833Y-125254761D01*
X156243214Y-125207142D01*
X156195595Y-125111904D01*
X156147976Y-124921428D01*
X156147976Y-124683333D01*
X156195595Y-124492857D01*
X156243214Y-124397619D01*
X156290833Y-124350000D01*
X156386071Y-124302380D01*
X157147976Y-125302380D02*
X157147976Y-124302380D01*
X157719404Y-125302380D02*
X157290833Y-124730952D01*
X157719404Y-124302380D02*
X157147976Y-124873809D01*
D12*
X156374166Y-123226190D02*
X156207500Y-122988095D01*
X156088452Y-123226190D02*
X156088452Y-122726190D01*
X156278928Y-122726190D01*
X156326547Y-122750000D01*
X156350357Y-122773809D01*
X156374166Y-122821428D01*
X156374166Y-122892857D01*
X156350357Y-122940476D01*
X156326547Y-122964285D01*
X156278928Y-122988095D01*
X156088452Y-122988095D01*
X156540833Y-122726190D02*
X156874166Y-122726190D01*
X156659880Y-123226190D01*
G04 #@! TO.C,J2*
D11*
X172252380Y-122630952D02*
X172252380Y-122059523D01*
X173252380Y-122345238D02*
X172252380Y-122345238D01*
X173204761Y-121345238D02*
X173252380Y-121440476D01*
X173252380Y-121630952D01*
X173204761Y-121726190D01*
X173109523Y-121773809D01*
X172728571Y-121773809D01*
X172633333Y-121726190D01*
X172585714Y-121630952D01*
X172585714Y-121440476D01*
X172633333Y-121345238D01*
X172728571Y-121297619D01*
X172823809Y-121297619D01*
X172919047Y-121773809D01*
X173252380Y-120869047D02*
X172585714Y-120869047D01*
X172776190Y-120869047D02*
X172680952Y-120821428D01*
X172633333Y-120773809D01*
X172585714Y-120678571D01*
X172585714Y-120583333D01*
X173252380Y-120250000D02*
X172585714Y-120250000D01*
X172680952Y-120250000D02*
X172633333Y-120202380D01*
X172585714Y-120107142D01*
X172585714Y-119964285D01*
X172633333Y-119869047D01*
X172728571Y-119821428D01*
X173252380Y-119821428D01*
X172728571Y-119821428D02*
X172633333Y-119773809D01*
X172585714Y-119678571D01*
X172585714Y-119535714D01*
X172633333Y-119440476D01*
X172728571Y-119392857D01*
X173252380Y-119392857D01*
X173252380Y-118916666D02*
X172585714Y-118916666D01*
X172252380Y-118916666D02*
X172300000Y-118964285D01*
X172347619Y-118916666D01*
X172300000Y-118869047D01*
X172252380Y-118916666D01*
X172347619Y-118916666D01*
X173204761Y-118488095D02*
X173252380Y-118392857D01*
X173252380Y-118202380D01*
X173204761Y-118107142D01*
X173109523Y-118059523D01*
X173061904Y-118059523D01*
X172966666Y-118107142D01*
X172919047Y-118202380D01*
X172919047Y-118345238D01*
X172871428Y-118440476D01*
X172776190Y-118488095D01*
X172728571Y-118488095D01*
X172633333Y-118440476D01*
X172585714Y-118345238D01*
X172585714Y-118202380D01*
X172633333Y-118107142D01*
X172585714Y-117773809D02*
X172585714Y-117392857D01*
X172252380Y-117630952D02*
X173109523Y-117630952D01*
X173204761Y-117583333D01*
X173252380Y-117488095D01*
X173252380Y-117392857D01*
X173252380Y-116916666D02*
X173204761Y-117011904D01*
X173157142Y-117059523D01*
X173061904Y-117107142D01*
X172776190Y-117107142D01*
X172680952Y-117059523D01*
X172633333Y-117011904D01*
X172585714Y-116916666D01*
X172585714Y-116773809D01*
X172633333Y-116678571D01*
X172680952Y-116630952D01*
X172776190Y-116583333D01*
X173061904Y-116583333D01*
X173157142Y-116630952D01*
X173204761Y-116678571D01*
X173252380Y-116773809D01*
X173252380Y-116916666D01*
X173252380Y-116154761D02*
X172585714Y-116154761D01*
X172776190Y-116154761D02*
X172680952Y-116107142D01*
X172633333Y-116059523D01*
X172585714Y-115964285D01*
X172585714Y-115869047D01*
X165302380Y-119583333D02*
X166016666Y-119583333D01*
X166159523Y-119630952D01*
X166254761Y-119726190D01*
X166302380Y-119869047D01*
X166302380Y-119964285D01*
X165397619Y-119154761D02*
X165350000Y-119107142D01*
X165302380Y-119011904D01*
X165302380Y-118773809D01*
X165350000Y-118678571D01*
X165397619Y-118630952D01*
X165492857Y-118583333D01*
X165588095Y-118583333D01*
X165730952Y-118630952D01*
X166302380Y-119202380D01*
X166302380Y-118583333D01*
G04 #@! TO.C,BT1*
X133448095Y-125862380D02*
X134067142Y-125862380D01*
X133733809Y-126243333D01*
X133876666Y-126243333D01*
X133971904Y-126290952D01*
X134019523Y-126338571D01*
X134067142Y-126433809D01*
X134067142Y-126671904D01*
X134019523Y-126767142D01*
X133971904Y-126814761D01*
X133876666Y-126862380D01*
X133590952Y-126862380D01*
X133495714Y-126814761D01*
X133448095Y-126767142D01*
X134352857Y-125862380D02*
X134686190Y-126862380D01*
X135019523Y-125862380D01*
X133424285Y-118838571D02*
X133567142Y-118886190D01*
X133614761Y-118933809D01*
X133662380Y-119029047D01*
X133662380Y-119171904D01*
X133614761Y-119267142D01*
X133567142Y-119314761D01*
X133471904Y-119362380D01*
X133090952Y-119362380D01*
X133090952Y-118362380D01*
X133424285Y-118362380D01*
X133519523Y-118410000D01*
X133567142Y-118457619D01*
X133614761Y-118552857D01*
X133614761Y-118648095D01*
X133567142Y-118743333D01*
X133519523Y-118790952D01*
X133424285Y-118838571D01*
X133090952Y-118838571D01*
X133948095Y-118362380D02*
X134519523Y-118362380D01*
X134233809Y-119362380D02*
X134233809Y-118362380D01*
X135376666Y-119362380D02*
X134805238Y-119362380D01*
X135090952Y-119362380D02*
X135090952Y-118362380D01*
X134995714Y-118505238D01*
X134900476Y-118600476D01*
X134805238Y-118648095D01*
G04 #@! TO.C,Y1*
X142982380Y-126026190D02*
X142982380Y-125407142D01*
X143363333Y-125740476D01*
X143363333Y-125597619D01*
X143410952Y-125502380D01*
X143458571Y-125454761D01*
X143553809Y-125407142D01*
X143791904Y-125407142D01*
X143887142Y-125454761D01*
X143934761Y-125502380D01*
X143982380Y-125597619D01*
X143982380Y-125883333D01*
X143934761Y-125978571D01*
X143887142Y-126026190D01*
X143077619Y-125026190D02*
X143030000Y-124978571D01*
X142982380Y-124883333D01*
X142982380Y-124645238D01*
X143030000Y-124550000D01*
X143077619Y-124502380D01*
X143172857Y-124454761D01*
X143268095Y-124454761D01*
X143410952Y-124502380D01*
X143982380Y-125073809D01*
X143982380Y-124454761D01*
X143887142Y-124026190D02*
X143934761Y-123978571D01*
X143982380Y-124026190D01*
X143934761Y-124073809D01*
X143887142Y-124026190D01*
X143982380Y-124026190D01*
X142982380Y-123645238D02*
X142982380Y-122978571D01*
X143982380Y-123407142D01*
X142982380Y-122169047D02*
X142982380Y-122359523D01*
X143030000Y-122454761D01*
X143077619Y-122502380D01*
X143220476Y-122597619D01*
X143410952Y-122645238D01*
X143791904Y-122645238D01*
X143887142Y-122597619D01*
X143934761Y-122550000D01*
X143982380Y-122454761D01*
X143982380Y-122264285D01*
X143934761Y-122169047D01*
X143887142Y-122121428D01*
X143791904Y-122073809D01*
X143553809Y-122073809D01*
X143458571Y-122121428D01*
X143410952Y-122169047D01*
X143363333Y-122264285D01*
X143363333Y-122454761D01*
X143410952Y-122550000D01*
X143458571Y-122597619D01*
X143553809Y-122645238D01*
X143410952Y-121502380D02*
X143363333Y-121597619D01*
X143315714Y-121645238D01*
X143220476Y-121692857D01*
X143172857Y-121692857D01*
X143077619Y-121645238D01*
X143030000Y-121597619D01*
X142982380Y-121502380D01*
X142982380Y-121311904D01*
X143030000Y-121216666D01*
X143077619Y-121169047D01*
X143172857Y-121121428D01*
X143220476Y-121121428D01*
X143315714Y-121169047D01*
X143363333Y-121216666D01*
X143410952Y-121311904D01*
X143410952Y-121502380D01*
X143458571Y-121597619D01*
X143506190Y-121645238D01*
X143601428Y-121692857D01*
X143791904Y-121692857D01*
X143887142Y-121645238D01*
X143934761Y-121597619D01*
X143982380Y-121502380D01*
X143982380Y-121311904D01*
X143934761Y-121216666D01*
X143887142Y-121169047D01*
X143791904Y-121121428D01*
X143601428Y-121121428D01*
X143506190Y-121169047D01*
X143458571Y-121216666D01*
X143410952Y-121311904D01*
X143982380Y-120692857D02*
X142982380Y-120692857D01*
X143982380Y-120121428D02*
X143410952Y-120550000D01*
X142982380Y-120121428D02*
X143553809Y-120692857D01*
X143982380Y-119692857D02*
X142982380Y-119692857D01*
X143458571Y-119692857D02*
X143458571Y-119121428D01*
X143982380Y-119121428D02*
X142982380Y-119121428D01*
X142982380Y-118740476D02*
X142982380Y-118073809D01*
X143982380Y-118740476D01*
X143982380Y-118073809D01*
D13*
X146550952Y-116680952D02*
X146931904Y-116680952D01*
X146131904Y-116947619D02*
X146550952Y-116680952D01*
X146131904Y-116414285D01*
X146931904Y-115728571D02*
X146931904Y-116185714D01*
X146931904Y-115957142D02*
X146131904Y-115957142D01*
X146246190Y-116033333D01*
X146322380Y-116109523D01*
X146360476Y-116185714D01*
G04 #@! TO.C,D6*
D11*
X113647142Y-107322380D02*
X113170952Y-107322380D01*
X113170952Y-106322380D01*
X113980476Y-106798571D02*
X114313809Y-106798571D01*
X114456666Y-107322380D02*
X113980476Y-107322380D01*
X113980476Y-106322380D01*
X114456666Y-106322380D01*
X114885238Y-107322380D02*
X114885238Y-106322380D01*
X115123333Y-106322380D01*
X115266190Y-106370000D01*
X115361428Y-106465238D01*
X115409047Y-106560476D01*
X115456666Y-106750952D01*
X115456666Y-106893809D01*
X115409047Y-107084285D01*
X115361428Y-107179523D01*
X115266190Y-107274761D01*
X115123333Y-107322380D01*
X114885238Y-107322380D01*
D14*
X113994761Y-105670952D02*
X113994761Y-105270952D01*
X114090000Y-105270952D01*
X114147142Y-105290000D01*
X114185238Y-105328095D01*
X114204285Y-105366190D01*
X114223333Y-105442380D01*
X114223333Y-105499523D01*
X114204285Y-105575714D01*
X114185238Y-105613809D01*
X114147142Y-105651904D01*
X114090000Y-105670952D01*
X113994761Y-105670952D01*
X114566190Y-105270952D02*
X114490000Y-105270952D01*
X114451904Y-105290000D01*
X114432857Y-105309047D01*
X114394761Y-105366190D01*
X114375714Y-105442380D01*
X114375714Y-105594761D01*
X114394761Y-105632857D01*
X114413809Y-105651904D01*
X114451904Y-105670952D01*
X114528095Y-105670952D01*
X114566190Y-105651904D01*
X114585238Y-105632857D01*
X114604285Y-105594761D01*
X114604285Y-105499523D01*
X114585238Y-105461428D01*
X114566190Y-105442380D01*
X114528095Y-105423333D01*
X114451904Y-105423333D01*
X114413809Y-105442380D01*
X114394761Y-105461428D01*
X114375714Y-105499523D01*
G04 #@! TO.C,R22*
D11*
X119300833Y-104302380D02*
X118729404Y-104302380D01*
X119015119Y-104302380D02*
X119015119Y-103302380D01*
X118919880Y-103445238D01*
X118824642Y-103540476D01*
X118729404Y-103588095D01*
X119919880Y-103302380D02*
X120015119Y-103302380D01*
X120110357Y-103350000D01*
X120157976Y-103397619D01*
X120205595Y-103492857D01*
X120253214Y-103683333D01*
X120253214Y-103921428D01*
X120205595Y-104111904D01*
X120157976Y-104207142D01*
X120110357Y-104254761D01*
X120015119Y-104302380D01*
X119919880Y-104302380D01*
X119824642Y-104254761D01*
X119777023Y-104207142D01*
X119729404Y-104111904D01*
X119681785Y-103921428D01*
X119681785Y-103683333D01*
X119729404Y-103492857D01*
X119777023Y-103397619D01*
X119824642Y-103350000D01*
X119919880Y-103302380D01*
X120872261Y-103302380D02*
X120967500Y-103302380D01*
X121062738Y-103350000D01*
X121110357Y-103397619D01*
X121157976Y-103492857D01*
X121205595Y-103683333D01*
X121205595Y-103921428D01*
X121157976Y-104111904D01*
X121110357Y-104207142D01*
X121062738Y-104254761D01*
X120967500Y-104302380D01*
X120872261Y-104302380D01*
X120777023Y-104254761D01*
X120729404Y-104207142D01*
X120681785Y-104111904D01*
X120634166Y-103921428D01*
X120634166Y-103683333D01*
X120681785Y-103492857D01*
X120729404Y-103397619D01*
X120777023Y-103350000D01*
X120872261Y-103302380D01*
D12*
X119646071Y-105726190D02*
X119479404Y-105488095D01*
X119360357Y-105726190D02*
X119360357Y-105226190D01*
X119550833Y-105226190D01*
X119598452Y-105250000D01*
X119622261Y-105273809D01*
X119646071Y-105321428D01*
X119646071Y-105392857D01*
X119622261Y-105440476D01*
X119598452Y-105464285D01*
X119550833Y-105488095D01*
X119360357Y-105488095D01*
X119836547Y-105273809D02*
X119860357Y-105250000D01*
X119907976Y-105226190D01*
X120027023Y-105226190D01*
X120074642Y-105250000D01*
X120098452Y-105273809D01*
X120122261Y-105321428D01*
X120122261Y-105369047D01*
X120098452Y-105440476D01*
X119812738Y-105726190D01*
X120122261Y-105726190D01*
X120312738Y-105273809D02*
X120336547Y-105250000D01*
X120384166Y-105226190D01*
X120503214Y-105226190D01*
X120550833Y-105250000D01*
X120574642Y-105273809D01*
X120598452Y-105321428D01*
X120598452Y-105369047D01*
X120574642Y-105440476D01*
X120288928Y-105726190D01*
X120598452Y-105726190D01*
G04 #@! TO.C,D1*
D11*
X113657142Y-101572380D02*
X113180952Y-101572380D01*
X113180952Y-100572380D01*
X113990476Y-101048571D02*
X114323809Y-101048571D01*
X114466666Y-101572380D02*
X113990476Y-101572380D01*
X113990476Y-100572380D01*
X114466666Y-100572380D01*
X114895238Y-101572380D02*
X114895238Y-100572380D01*
X115133333Y-100572380D01*
X115276190Y-100620000D01*
X115371428Y-100715238D01*
X115419047Y-100810476D01*
X115466666Y-101000952D01*
X115466666Y-101143809D01*
X115419047Y-101334285D01*
X115371428Y-101429523D01*
X115276190Y-101524761D01*
X115133333Y-101572380D01*
X114895238Y-101572380D01*
D14*
X114004761Y-102680952D02*
X114004761Y-102280952D01*
X114100000Y-102280952D01*
X114157142Y-102300000D01*
X114195238Y-102338095D01*
X114214285Y-102376190D01*
X114233333Y-102452380D01*
X114233333Y-102509523D01*
X114214285Y-102585714D01*
X114195238Y-102623809D01*
X114157142Y-102661904D01*
X114100000Y-102680952D01*
X114004761Y-102680952D01*
X114614285Y-102680952D02*
X114385714Y-102680952D01*
X114500000Y-102680952D02*
X114500000Y-102280952D01*
X114461904Y-102338095D01*
X114423809Y-102376190D01*
X114385714Y-102395238D01*
G04 #@! TO.C,D2*
D11*
X113657142Y-98572380D02*
X113180952Y-98572380D01*
X113180952Y-97572380D01*
X113990476Y-98048571D02*
X114323809Y-98048571D01*
X114466666Y-98572380D02*
X113990476Y-98572380D01*
X113990476Y-97572380D01*
X114466666Y-97572380D01*
X114895238Y-98572380D02*
X114895238Y-97572380D01*
X115133333Y-97572380D01*
X115276190Y-97620000D01*
X115371428Y-97715238D01*
X115419047Y-97810476D01*
X115466666Y-98000952D01*
X115466666Y-98143809D01*
X115419047Y-98334285D01*
X115371428Y-98429523D01*
X115276190Y-98524761D01*
X115133333Y-98572380D01*
X114895238Y-98572380D01*
D14*
X114004761Y-99680952D02*
X114004761Y-99280952D01*
X114100000Y-99280952D01*
X114157142Y-99300000D01*
X114195238Y-99338095D01*
X114214285Y-99376190D01*
X114233333Y-99452380D01*
X114233333Y-99509523D01*
X114214285Y-99585714D01*
X114195238Y-99623809D01*
X114157142Y-99661904D01*
X114100000Y-99680952D01*
X114004761Y-99680952D01*
X114385714Y-99319047D02*
X114404761Y-99300000D01*
X114442857Y-99280952D01*
X114538095Y-99280952D01*
X114576190Y-99300000D01*
X114595238Y-99319047D01*
X114614285Y-99357142D01*
X114614285Y-99395238D01*
X114595238Y-99452380D01*
X114366666Y-99680952D01*
X114614285Y-99680952D01*
G04 #@! TO.C,D3*
D11*
X113657142Y-95572380D02*
X113180952Y-95572380D01*
X113180952Y-94572380D01*
X113990476Y-95048571D02*
X114323809Y-95048571D01*
X114466666Y-95572380D02*
X113990476Y-95572380D01*
X113990476Y-94572380D01*
X114466666Y-94572380D01*
X114895238Y-95572380D02*
X114895238Y-94572380D01*
X115133333Y-94572380D01*
X115276190Y-94620000D01*
X115371428Y-94715238D01*
X115419047Y-94810476D01*
X115466666Y-95000952D01*
X115466666Y-95143809D01*
X115419047Y-95334285D01*
X115371428Y-95429523D01*
X115276190Y-95524761D01*
X115133333Y-95572380D01*
X114895238Y-95572380D01*
D14*
X114004761Y-96680952D02*
X114004761Y-96280952D01*
X114100000Y-96280952D01*
X114157142Y-96300000D01*
X114195238Y-96338095D01*
X114214285Y-96376190D01*
X114233333Y-96452380D01*
X114233333Y-96509523D01*
X114214285Y-96585714D01*
X114195238Y-96623809D01*
X114157142Y-96661904D01*
X114100000Y-96680952D01*
X114004761Y-96680952D01*
X114366666Y-96280952D02*
X114614285Y-96280952D01*
X114480952Y-96433333D01*
X114538095Y-96433333D01*
X114576190Y-96452380D01*
X114595238Y-96471428D01*
X114614285Y-96509523D01*
X114614285Y-96604761D01*
X114595238Y-96642857D01*
X114576190Y-96661904D01*
X114538095Y-96680952D01*
X114423809Y-96680952D01*
X114385714Y-96661904D01*
X114366666Y-96642857D01*
G04 #@! TO.C,R19*
D11*
X123738095Y-105602380D02*
X123547619Y-105602380D01*
X123452380Y-105650000D01*
X123404761Y-105697619D01*
X123309523Y-105840476D01*
X123261904Y-106030952D01*
X123261904Y-106411904D01*
X123309523Y-106507142D01*
X123357142Y-106554761D01*
X123452380Y-106602380D01*
X123642857Y-106602380D01*
X123738095Y-106554761D01*
X123785714Y-106507142D01*
X123833333Y-106411904D01*
X123833333Y-106173809D01*
X123785714Y-106078571D01*
X123738095Y-106030952D01*
X123642857Y-105983333D01*
X123452380Y-105983333D01*
X123357142Y-106030952D01*
X123309523Y-106078571D01*
X123261904Y-106173809D01*
X124452380Y-105602380D02*
X124547619Y-105602380D01*
X124642857Y-105650000D01*
X124690476Y-105697619D01*
X124738095Y-105792857D01*
X124785714Y-105983333D01*
X124785714Y-106221428D01*
X124738095Y-106411904D01*
X124690476Y-106507142D01*
X124642857Y-106554761D01*
X124547619Y-106602380D01*
X124452380Y-106602380D01*
X124357142Y-106554761D01*
X124309523Y-106507142D01*
X124261904Y-106411904D01*
X124214285Y-106221428D01*
X124214285Y-105983333D01*
X124261904Y-105792857D01*
X124309523Y-105697619D01*
X124357142Y-105650000D01*
X124452380Y-105602380D01*
X125642857Y-105935714D02*
X125642857Y-106602380D01*
X125404761Y-105554761D02*
X125166666Y-106269047D01*
X125785714Y-106269047D01*
X126166666Y-106602380D02*
X126166666Y-105602380D01*
X126738095Y-106602380D02*
X126309523Y-106030952D01*
X126738095Y-105602380D02*
X126166666Y-106173809D01*
D12*
X124678571Y-104726190D02*
X124511904Y-104488095D01*
X124392857Y-104726190D02*
X124392857Y-104226190D01*
X124583333Y-104226190D01*
X124630952Y-104250000D01*
X124654761Y-104273809D01*
X124678571Y-104321428D01*
X124678571Y-104392857D01*
X124654761Y-104440476D01*
X124630952Y-104464285D01*
X124583333Y-104488095D01*
X124392857Y-104488095D01*
X125154761Y-104726190D02*
X124869047Y-104726190D01*
X125011904Y-104726190D02*
X125011904Y-104226190D01*
X124964285Y-104297619D01*
X124916666Y-104345238D01*
X124869047Y-104369047D01*
X125392857Y-104726190D02*
X125488095Y-104726190D01*
X125535714Y-104702380D01*
X125559523Y-104678571D01*
X125607142Y-104607142D01*
X125630952Y-104511904D01*
X125630952Y-104321428D01*
X125607142Y-104273809D01*
X125583333Y-104250000D01*
X125535714Y-104226190D01*
X125440476Y-104226190D01*
X125392857Y-104250000D01*
X125369047Y-104273809D01*
X125345238Y-104321428D01*
X125345238Y-104440476D01*
X125369047Y-104488095D01*
X125392857Y-104511904D01*
X125440476Y-104535714D01*
X125535714Y-104535714D01*
X125583333Y-104511904D01*
X125607142Y-104488095D01*
X125630952Y-104440476D01*
G04 #@! TO.C,C1*
D11*
X135357142Y-107547619D02*
X135404761Y-107500000D01*
X135500000Y-107452380D01*
X135738095Y-107452380D01*
X135833333Y-107500000D01*
X135880952Y-107547619D01*
X135928571Y-107642857D01*
X135928571Y-107738095D01*
X135880952Y-107880952D01*
X135309523Y-108452380D01*
X135928571Y-108452380D01*
X136309523Y-107547619D02*
X136357142Y-107500000D01*
X136452380Y-107452380D01*
X136690476Y-107452380D01*
X136785714Y-107500000D01*
X136833333Y-107547619D01*
X136880952Y-107642857D01*
X136880952Y-107738095D01*
X136833333Y-107880952D01*
X136261904Y-108452380D01*
X136880952Y-108452380D01*
X137738095Y-107785714D02*
X137738095Y-108452380D01*
X137309523Y-107785714D02*
X137309523Y-108309523D01*
X137357142Y-108404761D01*
X137452380Y-108452380D01*
X137595238Y-108452380D01*
X137690476Y-108404761D01*
X137738095Y-108357142D01*
X138547619Y-107928571D02*
X138214285Y-107928571D01*
X138214285Y-108452380D02*
X138214285Y-107452380D01*
X138690476Y-107452380D01*
X134749047Y-103991428D02*
X135510952Y-103991428D01*
X135130000Y-104372380D02*
X135130000Y-103610476D01*
X136333333Y-108277142D02*
X136285714Y-108324761D01*
X136142857Y-108372380D01*
X136047619Y-108372380D01*
X135904761Y-108324761D01*
X135809523Y-108229523D01*
X135761904Y-108134285D01*
X135714285Y-107943809D01*
X135714285Y-107800952D01*
X135761904Y-107610476D01*
X135809523Y-107515238D01*
X135904761Y-107420000D01*
X136047619Y-107372380D01*
X136142857Y-107372380D01*
X136285714Y-107420000D01*
X136333333Y-107467619D01*
X137285714Y-108372380D02*
X136714285Y-108372380D01*
X137000000Y-108372380D02*
X137000000Y-107372380D01*
X136904761Y-107515238D01*
X136809523Y-107610476D01*
X136714285Y-107658095D01*
G04 #@! TO.C,D5*
X128678571Y-99309523D02*
X128726190Y-99166666D01*
X128773809Y-99119047D01*
X128869047Y-99071428D01*
X129011904Y-99071428D01*
X129107142Y-99119047D01*
X129154761Y-99166666D01*
X129202380Y-99261904D01*
X129202380Y-99642857D01*
X128202380Y-99642857D01*
X128202380Y-99309523D01*
X128250000Y-99214285D01*
X128297619Y-99166666D01*
X128392857Y-99119047D01*
X128488095Y-99119047D01*
X128583333Y-99166666D01*
X128630952Y-99214285D01*
X128678571Y-99309523D01*
X128678571Y-99642857D01*
X129202380Y-98642857D02*
X128535714Y-98642857D01*
X128726190Y-98642857D02*
X128630952Y-98595238D01*
X128583333Y-98547619D01*
X128535714Y-98452380D01*
X128535714Y-98357142D01*
X129202380Y-98023809D02*
X128535714Y-98023809D01*
X128202380Y-98023809D02*
X128250000Y-98071428D01*
X128297619Y-98023809D01*
X128250000Y-97976190D01*
X128202380Y-98023809D01*
X128297619Y-98023809D01*
X129202380Y-97119047D02*
X128202380Y-97119047D01*
X129154761Y-97119047D02*
X129202380Y-97214285D01*
X129202380Y-97404761D01*
X129154761Y-97500000D01*
X129107142Y-97547619D01*
X129011904Y-97595238D01*
X128726190Y-97595238D01*
X128630952Y-97547619D01*
X128583333Y-97500000D01*
X128535714Y-97404761D01*
X128535714Y-97214285D01*
X128583333Y-97119047D01*
X128535714Y-96214285D02*
X129345238Y-96214285D01*
X129440476Y-96261904D01*
X129488095Y-96309523D01*
X129535714Y-96404761D01*
X129535714Y-96547619D01*
X129488095Y-96642857D01*
X129154761Y-96214285D02*
X129202380Y-96309523D01*
X129202380Y-96500000D01*
X129154761Y-96595238D01*
X129107142Y-96642857D01*
X129011904Y-96690476D01*
X128726190Y-96690476D01*
X128630952Y-96642857D01*
X128583333Y-96595238D01*
X128535714Y-96500000D01*
X128535714Y-96309523D01*
X128583333Y-96214285D01*
X129154761Y-95357142D02*
X129202380Y-95452380D01*
X129202380Y-95642857D01*
X129154761Y-95738095D01*
X129059523Y-95785714D01*
X128678571Y-95785714D01*
X128583333Y-95738095D01*
X128535714Y-95642857D01*
X128535714Y-95452380D01*
X128583333Y-95357142D01*
X128678571Y-95309523D01*
X128773809Y-95309523D01*
X128869047Y-95785714D01*
G04 #@! TO.C,R20*
X128270595Y-105602380D02*
X128080119Y-105602380D01*
X127984880Y-105650000D01*
X127937261Y-105697619D01*
X127842023Y-105840476D01*
X127794404Y-106030952D01*
X127794404Y-106411904D01*
X127842023Y-106507142D01*
X127889642Y-106554761D01*
X127984880Y-106602380D01*
X128175357Y-106602380D01*
X128270595Y-106554761D01*
X128318214Y-106507142D01*
X128365833Y-106411904D01*
X128365833Y-106173809D01*
X128318214Y-106078571D01*
X128270595Y-106030952D01*
X128175357Y-105983333D01*
X127984880Y-105983333D01*
X127889642Y-106030952D01*
X127842023Y-106078571D01*
X127794404Y-106173809D01*
X128984880Y-105602380D02*
X129080119Y-105602380D01*
X129175357Y-105650000D01*
X129222976Y-105697619D01*
X129270595Y-105792857D01*
X129318214Y-105983333D01*
X129318214Y-106221428D01*
X129270595Y-106411904D01*
X129222976Y-106507142D01*
X129175357Y-106554761D01*
X129080119Y-106602380D01*
X128984880Y-106602380D01*
X128889642Y-106554761D01*
X128842023Y-106507142D01*
X128794404Y-106411904D01*
X128746785Y-106221428D01*
X128746785Y-105983333D01*
X128794404Y-105792857D01*
X128842023Y-105697619D01*
X128889642Y-105650000D01*
X128984880Y-105602380D01*
X130175357Y-105935714D02*
X130175357Y-106602380D01*
X129937261Y-105554761D02*
X129699166Y-106269047D01*
X130318214Y-106269047D01*
X130699166Y-106602380D02*
X130699166Y-105602380D01*
X131270595Y-106602380D02*
X130842023Y-106030952D01*
X131270595Y-105602380D02*
X130699166Y-106173809D01*
D12*
X129211071Y-104726190D02*
X129044404Y-104488095D01*
X128925357Y-104726190D02*
X128925357Y-104226190D01*
X129115833Y-104226190D01*
X129163452Y-104250000D01*
X129187261Y-104273809D01*
X129211071Y-104321428D01*
X129211071Y-104392857D01*
X129187261Y-104440476D01*
X129163452Y-104464285D01*
X129115833Y-104488095D01*
X128925357Y-104488095D01*
X129401547Y-104273809D02*
X129425357Y-104250000D01*
X129472976Y-104226190D01*
X129592023Y-104226190D01*
X129639642Y-104250000D01*
X129663452Y-104273809D01*
X129687261Y-104321428D01*
X129687261Y-104369047D01*
X129663452Y-104440476D01*
X129377738Y-104726190D01*
X129687261Y-104726190D01*
X129996785Y-104226190D02*
X130044404Y-104226190D01*
X130092023Y-104250000D01*
X130115833Y-104273809D01*
X130139642Y-104321428D01*
X130163452Y-104416666D01*
X130163452Y-104535714D01*
X130139642Y-104630952D01*
X130115833Y-104678571D01*
X130092023Y-104702380D01*
X130044404Y-104726190D01*
X129996785Y-104726190D01*
X129949166Y-104702380D01*
X129925357Y-104678571D01*
X129901547Y-104630952D01*
X129877738Y-104535714D01*
X129877738Y-104416666D01*
X129901547Y-104321428D01*
X129925357Y-104273809D01*
X129949166Y-104250000D01*
X129996785Y-104226190D01*
G04 #@! TO.C,R21*
D11*
X135937261Y-101602380D02*
X135365833Y-101602380D01*
X135651547Y-101602380D02*
X135651547Y-100602380D01*
X135556309Y-100745238D01*
X135461071Y-100840476D01*
X135365833Y-100888095D01*
X136556309Y-100602380D02*
X136651547Y-100602380D01*
X136746785Y-100650000D01*
X136794404Y-100697619D01*
X136842023Y-100792857D01*
X136889642Y-100983333D01*
X136889642Y-101221428D01*
X136842023Y-101411904D01*
X136794404Y-101507142D01*
X136746785Y-101554761D01*
X136651547Y-101602380D01*
X136556309Y-101602380D01*
X136461071Y-101554761D01*
X136413452Y-101507142D01*
X136365833Y-101411904D01*
X136318214Y-101221428D01*
X136318214Y-100983333D01*
X136365833Y-100792857D01*
X136413452Y-100697619D01*
X136461071Y-100650000D01*
X136556309Y-100602380D01*
X137318214Y-101602380D02*
X137318214Y-100602380D01*
X137413452Y-101221428D02*
X137699166Y-101602380D01*
X137699166Y-100935714D02*
X137318214Y-101316666D01*
D12*
X136211071Y-99726190D02*
X136044404Y-99488095D01*
X135925357Y-99726190D02*
X135925357Y-99226190D01*
X136115833Y-99226190D01*
X136163452Y-99250000D01*
X136187261Y-99273809D01*
X136211071Y-99321428D01*
X136211071Y-99392857D01*
X136187261Y-99440476D01*
X136163452Y-99464285D01*
X136115833Y-99488095D01*
X135925357Y-99488095D01*
X136401547Y-99273809D02*
X136425357Y-99250000D01*
X136472976Y-99226190D01*
X136592023Y-99226190D01*
X136639642Y-99250000D01*
X136663452Y-99273809D01*
X136687261Y-99321428D01*
X136687261Y-99369047D01*
X136663452Y-99440476D01*
X136377738Y-99726190D01*
X136687261Y-99726190D01*
X137163452Y-99726190D02*
X136877738Y-99726190D01*
X137020595Y-99726190D02*
X137020595Y-99226190D01*
X136972976Y-99297619D01*
X136925357Y-99345238D01*
X136877738Y-99369047D01*
G04 #@! TO.C,REF\002A\002A*
D11*
X105023809Y-92952380D02*
X105023809Y-91952380D01*
X105357142Y-92666666D01*
X105690476Y-91952380D01*
X105690476Y-92952380D01*
X106309523Y-92952380D02*
X106214285Y-92904761D01*
X106166666Y-92857142D01*
X106119047Y-92761904D01*
X106119047Y-92476190D01*
X106166666Y-92380952D01*
X106214285Y-92333333D01*
X106309523Y-92285714D01*
X106452380Y-92285714D01*
X106547619Y-92333333D01*
X106595238Y-92380952D01*
X106642857Y-92476190D01*
X106642857Y-92761904D01*
X106595238Y-92857142D01*
X106547619Y-92904761D01*
X106452380Y-92952380D01*
X106309523Y-92952380D01*
X107500000Y-92285714D02*
X107500000Y-92952380D01*
X107071428Y-92285714D02*
X107071428Y-92809523D01*
X107119047Y-92904761D01*
X107214285Y-92952380D01*
X107357142Y-92952380D01*
X107452380Y-92904761D01*
X107500000Y-92857142D01*
X107976190Y-92285714D02*
X107976190Y-92952380D01*
X107976190Y-92380952D02*
X108023809Y-92333333D01*
X108119047Y-92285714D01*
X108261904Y-92285714D01*
X108357142Y-92333333D01*
X108404761Y-92428571D01*
X108404761Y-92952380D01*
X108738095Y-92285714D02*
X109119047Y-92285714D01*
X108880952Y-91952380D02*
X108880952Y-92809523D01*
X108928571Y-92904761D01*
X109023809Y-92952380D01*
X109119047Y-92952380D01*
X109452380Y-92952380D02*
X109452380Y-92285714D01*
X109452380Y-91952380D02*
X109404761Y-92000000D01*
X109452380Y-92047619D01*
X109500000Y-92000000D01*
X109452380Y-91952380D01*
X109452380Y-92047619D01*
X109928571Y-92285714D02*
X109928571Y-92952380D01*
X109928571Y-92380952D02*
X109976190Y-92333333D01*
X110071428Y-92285714D01*
X110214285Y-92285714D01*
X110309523Y-92333333D01*
X110357142Y-92428571D01*
X110357142Y-92952380D01*
X111261904Y-92285714D02*
X111261904Y-93095238D01*
X111214285Y-93190476D01*
X111166666Y-93238095D01*
X111071428Y-93285714D01*
X110928571Y-93285714D01*
X110833333Y-93238095D01*
X111261904Y-92904761D02*
X111166666Y-92952380D01*
X110976190Y-92952380D01*
X110880952Y-92904761D01*
X110833333Y-92857142D01*
X110785714Y-92761904D01*
X110785714Y-92476190D01*
X110833333Y-92380952D01*
X110880952Y-92333333D01*
X110976190Y-92285714D01*
X111166666Y-92285714D01*
X111261904Y-92333333D01*
X111738095Y-92952380D02*
X111738095Y-91952380D01*
X111738095Y-92428571D02*
X112309523Y-92428571D01*
X112309523Y-92952380D02*
X112309523Y-91952380D01*
X112928571Y-92952380D02*
X112833333Y-92904761D01*
X112785714Y-92857142D01*
X112738095Y-92761904D01*
X112738095Y-92476190D01*
X112785714Y-92380952D01*
X112833333Y-92333333D01*
X112928571Y-92285714D01*
X113071428Y-92285714D01*
X113166666Y-92333333D01*
X113214285Y-92380952D01*
X113261904Y-92476190D01*
X113261904Y-92761904D01*
X113214285Y-92857142D01*
X113166666Y-92904761D01*
X113071428Y-92952380D01*
X112928571Y-92952380D01*
X113833333Y-92952380D02*
X113738095Y-92904761D01*
X113690476Y-92809523D01*
X113690476Y-91952380D01*
X114595238Y-92904761D02*
X114500000Y-92952380D01*
X114309523Y-92952380D01*
X114214285Y-92904761D01*
X114166666Y-92809523D01*
X114166666Y-92428571D01*
X114214285Y-92333333D01*
X114309523Y-92285714D01*
X114500000Y-92285714D01*
X114595238Y-92333333D01*
X114642857Y-92428571D01*
X114642857Y-92523809D01*
X114166666Y-92619047D01*
X114833333Y-93047619D02*
X115595238Y-93047619D01*
X115785714Y-92047619D02*
X115833333Y-92000000D01*
X115928571Y-91952380D01*
X116166666Y-91952380D01*
X116261904Y-92000000D01*
X116309523Y-92047619D01*
X116357142Y-92142857D01*
X116357142Y-92238095D01*
X116309523Y-92380952D01*
X115738095Y-92952380D01*
X116357142Y-92952380D01*
X116785714Y-92857142D02*
X116833333Y-92904761D01*
X116785714Y-92952380D01*
X116738095Y-92904761D01*
X116785714Y-92857142D01*
X116785714Y-92952380D01*
X117738095Y-91952380D02*
X117261904Y-91952380D01*
X117214285Y-92428571D01*
X117261904Y-92380952D01*
X117357142Y-92333333D01*
X117595238Y-92333333D01*
X117690476Y-92380952D01*
X117738095Y-92428571D01*
X117785714Y-92523809D01*
X117785714Y-92761904D01*
X117738095Y-92857142D01*
X117690476Y-92904761D01*
X117595238Y-92952380D01*
X117357142Y-92952380D01*
X117261904Y-92904761D01*
X117214285Y-92857142D01*
X118214285Y-92952380D02*
X118214285Y-92285714D01*
X118214285Y-92380952D02*
X118261904Y-92333333D01*
X118357142Y-92285714D01*
X118500000Y-92285714D01*
X118595238Y-92333333D01*
X118642857Y-92428571D01*
X118642857Y-92952380D01*
X118642857Y-92428571D02*
X118690476Y-92333333D01*
X118785714Y-92285714D01*
X118928571Y-92285714D01*
X119023809Y-92333333D01*
X119071428Y-92428571D01*
X119071428Y-92952380D01*
X119547619Y-92952380D02*
X119547619Y-92285714D01*
X119547619Y-92380952D02*
X119595238Y-92333333D01*
X119690476Y-92285714D01*
X119833333Y-92285714D01*
X119928571Y-92333333D01*
X119976190Y-92428571D01*
X119976190Y-92952380D01*
X119976190Y-92428571D02*
X120023809Y-92333333D01*
X120119047Y-92285714D01*
X120261904Y-92285714D01*
X120357142Y-92333333D01*
X120404761Y-92428571D01*
X120404761Y-92952380D01*
X120642857Y-93047619D02*
X121404761Y-93047619D01*
X121642857Y-92952380D02*
X121642857Y-91952380D01*
X122023809Y-91952380D01*
X122119047Y-92000000D01*
X122166666Y-92047619D01*
X122214285Y-92142857D01*
X122214285Y-92285714D01*
X122166666Y-92380952D01*
X122119047Y-92428571D01*
X122023809Y-92476190D01*
X121642857Y-92476190D01*
X123071428Y-92952380D02*
X123071428Y-92428571D01*
X123023809Y-92333333D01*
X122928571Y-92285714D01*
X122738095Y-92285714D01*
X122642857Y-92333333D01*
X123071428Y-92904761D02*
X122976190Y-92952380D01*
X122738095Y-92952380D01*
X122642857Y-92904761D01*
X122595238Y-92809523D01*
X122595238Y-92714285D01*
X122642857Y-92619047D01*
X122738095Y-92571428D01*
X122976190Y-92571428D01*
X123071428Y-92523809D01*
X123976190Y-92952380D02*
X123976190Y-91952380D01*
X123976190Y-92904761D02*
X123880952Y-92952380D01*
X123690476Y-92952380D01*
X123595238Y-92904761D01*
X123547619Y-92857142D01*
X123499999Y-92761904D01*
X123499999Y-92476190D01*
X123547619Y-92380952D01*
X123595238Y-92333333D01*
X123690476Y-92285714D01*
X123880952Y-92285714D01*
X123976190Y-92333333D01*
X124214285Y-93047619D02*
X124976190Y-93047619D01*
X125071428Y-91952380D02*
X125404761Y-92952380D01*
X125738095Y-91952380D01*
X126071428Y-92952380D02*
X126071428Y-92285714D01*
X126071428Y-91952380D02*
X126023809Y-92000000D01*
X126071428Y-92047619D01*
X126119047Y-92000000D01*
X126071428Y-91952380D01*
X126071428Y-92047619D01*
X126976190Y-92952380D02*
X126976190Y-92428571D01*
X126928571Y-92333333D01*
X126833333Y-92285714D01*
X126642857Y-92285714D01*
X126547619Y-92333333D01*
X126976190Y-92904761D02*
X126880952Y-92952380D01*
X126642857Y-92952380D01*
X126547619Y-92904761D01*
X126499999Y-92809523D01*
X126499999Y-92714285D01*
X126547619Y-92619047D01*
X126642857Y-92571428D01*
X126880952Y-92571428D01*
X126976190Y-92523809D01*
X114966666Y-89452380D02*
X114633333Y-88976190D01*
X114395238Y-89452380D02*
X114395238Y-88452380D01*
X114776190Y-88452380D01*
X114871428Y-88500000D01*
X114919047Y-88547619D01*
X114966666Y-88642857D01*
X114966666Y-88785714D01*
X114919047Y-88880952D01*
X114871428Y-88928571D01*
X114776190Y-88976190D01*
X114395238Y-88976190D01*
X115395238Y-88928571D02*
X115728571Y-88928571D01*
X115871428Y-89452380D02*
X115395238Y-89452380D01*
X115395238Y-88452380D01*
X115871428Y-88452380D01*
X116633333Y-88928571D02*
X116300000Y-88928571D01*
X116300000Y-89452380D02*
X116300000Y-88452380D01*
X116776190Y-88452380D01*
X117300000Y-88452380D02*
X117300000Y-88690476D01*
X117061904Y-88595238D02*
X117300000Y-88690476D01*
X117538095Y-88595238D01*
X117157142Y-88880952D02*
X117300000Y-88690476D01*
X117442857Y-88880952D01*
X118061904Y-88452380D02*
X118061904Y-88690476D01*
X117823809Y-88595238D02*
X118061904Y-88690476D01*
X118300000Y-88595238D01*
X117919047Y-88880952D02*
X118061904Y-88690476D01*
X118204761Y-88880952D01*
X122523809Y-65952380D02*
X122523809Y-64952380D01*
X122857142Y-65666666D01*
X123190476Y-64952380D01*
X123190476Y-65952380D01*
X123809523Y-65952380D02*
X123714285Y-65904761D01*
X123666666Y-65857142D01*
X123619047Y-65761904D01*
X123619047Y-65476190D01*
X123666666Y-65380952D01*
X123714285Y-65333333D01*
X123809523Y-65285714D01*
X123952380Y-65285714D01*
X124047619Y-65333333D01*
X124095238Y-65380952D01*
X124142857Y-65476190D01*
X124142857Y-65761904D01*
X124095238Y-65857142D01*
X124047619Y-65904761D01*
X123952380Y-65952380D01*
X123809523Y-65952380D01*
X125000000Y-65285714D02*
X125000000Y-65952380D01*
X124571428Y-65285714D02*
X124571428Y-65809523D01*
X124619047Y-65904761D01*
X124714285Y-65952380D01*
X124857142Y-65952380D01*
X124952380Y-65904761D01*
X125000000Y-65857142D01*
X125476190Y-65285714D02*
X125476190Y-65952380D01*
X125476190Y-65380952D02*
X125523809Y-65333333D01*
X125619047Y-65285714D01*
X125761904Y-65285714D01*
X125857142Y-65333333D01*
X125904761Y-65428571D01*
X125904761Y-65952380D01*
X126238095Y-65285714D02*
X126619047Y-65285714D01*
X126380952Y-64952380D02*
X126380952Y-65809523D01*
X126428571Y-65904761D01*
X126523809Y-65952380D01*
X126619047Y-65952380D01*
X126952380Y-65952380D02*
X126952380Y-65285714D01*
X126952380Y-64952380D02*
X126904761Y-65000000D01*
X126952380Y-65047619D01*
X127000000Y-65000000D01*
X126952380Y-64952380D01*
X126952380Y-65047619D01*
X127428571Y-65285714D02*
X127428571Y-65952380D01*
X127428571Y-65380952D02*
X127476190Y-65333333D01*
X127571428Y-65285714D01*
X127714285Y-65285714D01*
X127809523Y-65333333D01*
X127857142Y-65428571D01*
X127857142Y-65952380D01*
X128761904Y-65285714D02*
X128761904Y-66095238D01*
X128714285Y-66190476D01*
X128666666Y-66238095D01*
X128571428Y-66285714D01*
X128428571Y-66285714D01*
X128333333Y-66238095D01*
X128761904Y-65904761D02*
X128666666Y-65952380D01*
X128476190Y-65952380D01*
X128380952Y-65904761D01*
X128333333Y-65857142D01*
X128285714Y-65761904D01*
X128285714Y-65476190D01*
X128333333Y-65380952D01*
X128380952Y-65333333D01*
X128476190Y-65285714D01*
X128666666Y-65285714D01*
X128761904Y-65333333D01*
X129238095Y-65952380D02*
X129238095Y-64952380D01*
X129238095Y-65428571D02*
X129809523Y-65428571D01*
X129809523Y-65952380D02*
X129809523Y-64952380D01*
X130428571Y-65952380D02*
X130333333Y-65904761D01*
X130285714Y-65857142D01*
X130238095Y-65761904D01*
X130238095Y-65476190D01*
X130285714Y-65380952D01*
X130333333Y-65333333D01*
X130428571Y-65285714D01*
X130571428Y-65285714D01*
X130666666Y-65333333D01*
X130714285Y-65380952D01*
X130761904Y-65476190D01*
X130761904Y-65761904D01*
X130714285Y-65857142D01*
X130666666Y-65904761D01*
X130571428Y-65952380D01*
X130428571Y-65952380D01*
X131333333Y-65952380D02*
X131238095Y-65904761D01*
X131190476Y-65809523D01*
X131190476Y-64952380D01*
X132095238Y-65904761D02*
X132000000Y-65952380D01*
X131809523Y-65952380D01*
X131714285Y-65904761D01*
X131666666Y-65809523D01*
X131666666Y-65428571D01*
X131714285Y-65333333D01*
X131809523Y-65285714D01*
X132000000Y-65285714D01*
X132095238Y-65333333D01*
X132142857Y-65428571D01*
X132142857Y-65523809D01*
X131666666Y-65619047D01*
X132333333Y-66047619D02*
X133095238Y-66047619D01*
X133285714Y-65047619D02*
X133333333Y-65000000D01*
X133428571Y-64952380D01*
X133666666Y-64952380D01*
X133761904Y-65000000D01*
X133809523Y-65047619D01*
X133857142Y-65142857D01*
X133857142Y-65238095D01*
X133809523Y-65380952D01*
X133238095Y-65952380D01*
X133857142Y-65952380D01*
X134285714Y-65857142D02*
X134333333Y-65904761D01*
X134285714Y-65952380D01*
X134238095Y-65904761D01*
X134285714Y-65857142D01*
X134285714Y-65952380D01*
X135238095Y-64952380D02*
X134761904Y-64952380D01*
X134714285Y-65428571D01*
X134761904Y-65380952D01*
X134857142Y-65333333D01*
X135095238Y-65333333D01*
X135190476Y-65380952D01*
X135238095Y-65428571D01*
X135285714Y-65523809D01*
X135285714Y-65761904D01*
X135238095Y-65857142D01*
X135190476Y-65904761D01*
X135095238Y-65952380D01*
X134857142Y-65952380D01*
X134761904Y-65904761D01*
X134714285Y-65857142D01*
X135714285Y-65952380D02*
X135714285Y-65285714D01*
X135714285Y-65380952D02*
X135761904Y-65333333D01*
X135857142Y-65285714D01*
X136000000Y-65285714D01*
X136095238Y-65333333D01*
X136142857Y-65428571D01*
X136142857Y-65952380D01*
X136142857Y-65428571D02*
X136190476Y-65333333D01*
X136285714Y-65285714D01*
X136428571Y-65285714D01*
X136523809Y-65333333D01*
X136571428Y-65428571D01*
X136571428Y-65952380D01*
X137047619Y-65952380D02*
X137047619Y-65285714D01*
X137047619Y-65380952D02*
X137095238Y-65333333D01*
X137190476Y-65285714D01*
X137333333Y-65285714D01*
X137428571Y-65333333D01*
X137476190Y-65428571D01*
X137476190Y-65952380D01*
X137476190Y-65428571D02*
X137523809Y-65333333D01*
X137619047Y-65285714D01*
X137761904Y-65285714D01*
X137857142Y-65333333D01*
X137904761Y-65428571D01*
X137904761Y-65952380D01*
X138142857Y-66047619D02*
X138904761Y-66047619D01*
X139142857Y-65952380D02*
X139142857Y-64952380D01*
X139523809Y-64952380D01*
X139619047Y-65000000D01*
X139666666Y-65047619D01*
X139714285Y-65142857D01*
X139714285Y-65285714D01*
X139666666Y-65380952D01*
X139619047Y-65428571D01*
X139523809Y-65476190D01*
X139142857Y-65476190D01*
X140571428Y-65952380D02*
X140571428Y-65428571D01*
X140523809Y-65333333D01*
X140428571Y-65285714D01*
X140238095Y-65285714D01*
X140142857Y-65333333D01*
X140571428Y-65904761D02*
X140476190Y-65952380D01*
X140238095Y-65952380D01*
X140142857Y-65904761D01*
X140095238Y-65809523D01*
X140095238Y-65714285D01*
X140142857Y-65619047D01*
X140238095Y-65571428D01*
X140476190Y-65571428D01*
X140571428Y-65523809D01*
X141476190Y-65952380D02*
X141476190Y-64952380D01*
X141476190Y-65904761D02*
X141380952Y-65952380D01*
X141190476Y-65952380D01*
X141095238Y-65904761D01*
X141047619Y-65857142D01*
X141000000Y-65761904D01*
X141000000Y-65476190D01*
X141047619Y-65380952D01*
X141095238Y-65333333D01*
X141190476Y-65285714D01*
X141380952Y-65285714D01*
X141476190Y-65333333D01*
X141714285Y-66047619D02*
X142476190Y-66047619D01*
X142571428Y-64952380D02*
X142904761Y-65952380D01*
X143238095Y-64952380D01*
X143571428Y-65952380D02*
X143571428Y-65285714D01*
X143571428Y-64952380D02*
X143523809Y-65000000D01*
X143571428Y-65047619D01*
X143619047Y-65000000D01*
X143571428Y-64952380D01*
X143571428Y-65047619D01*
X144476190Y-65952380D02*
X144476190Y-65428571D01*
X144428571Y-65333333D01*
X144333333Y-65285714D01*
X144142857Y-65285714D01*
X144047619Y-65333333D01*
X144476190Y-65904761D02*
X144380952Y-65952380D01*
X144142857Y-65952380D01*
X144047619Y-65904761D01*
X144000000Y-65809523D01*
X144000000Y-65714285D01*
X144047619Y-65619047D01*
X144142857Y-65571428D01*
X144380952Y-65571428D01*
X144476190Y-65523809D01*
X132466666Y-62452380D02*
X132133333Y-61976190D01*
X131895238Y-62452380D02*
X131895238Y-61452380D01*
X132276190Y-61452380D01*
X132371428Y-61500000D01*
X132419047Y-61547619D01*
X132466666Y-61642857D01*
X132466666Y-61785714D01*
X132419047Y-61880952D01*
X132371428Y-61928571D01*
X132276190Y-61976190D01*
X131895238Y-61976190D01*
X132895238Y-61928571D02*
X133228571Y-61928571D01*
X133371428Y-62452380D02*
X132895238Y-62452380D01*
X132895238Y-61452380D01*
X133371428Y-61452380D01*
X134133333Y-61928571D02*
X133800000Y-61928571D01*
X133800000Y-62452380D02*
X133800000Y-61452380D01*
X134276190Y-61452380D01*
X134800000Y-61452380D02*
X134800000Y-61690476D01*
X134561904Y-61595238D02*
X134800000Y-61690476D01*
X135038095Y-61595238D01*
X134657142Y-61880952D02*
X134800000Y-61690476D01*
X134942857Y-61880952D01*
X135561904Y-61452380D02*
X135561904Y-61690476D01*
X135323809Y-61595238D02*
X135561904Y-61690476D01*
X135800000Y-61595238D01*
X135419047Y-61880952D02*
X135561904Y-61690476D01*
X135704761Y-61880952D01*
X145023809Y-141452380D02*
X145023809Y-140452380D01*
X145357142Y-141166666D01*
X145690476Y-140452380D01*
X145690476Y-141452380D01*
X146309523Y-141452380D02*
X146214285Y-141404761D01*
X146166666Y-141357142D01*
X146119047Y-141261904D01*
X146119047Y-140976190D01*
X146166666Y-140880952D01*
X146214285Y-140833333D01*
X146309523Y-140785714D01*
X146452380Y-140785714D01*
X146547619Y-140833333D01*
X146595238Y-140880952D01*
X146642857Y-140976190D01*
X146642857Y-141261904D01*
X146595238Y-141357142D01*
X146547619Y-141404761D01*
X146452380Y-141452380D01*
X146309523Y-141452380D01*
X147500000Y-140785714D02*
X147500000Y-141452380D01*
X147071428Y-140785714D02*
X147071428Y-141309523D01*
X147119047Y-141404761D01*
X147214285Y-141452380D01*
X147357142Y-141452380D01*
X147452380Y-141404761D01*
X147500000Y-141357142D01*
X147976190Y-140785714D02*
X147976190Y-141452380D01*
X147976190Y-140880952D02*
X148023809Y-140833333D01*
X148119047Y-140785714D01*
X148261904Y-140785714D01*
X148357142Y-140833333D01*
X148404761Y-140928571D01*
X148404761Y-141452380D01*
X148738095Y-140785714D02*
X149119047Y-140785714D01*
X148880952Y-140452380D02*
X148880952Y-141309523D01*
X148928571Y-141404761D01*
X149023809Y-141452380D01*
X149119047Y-141452380D01*
X149452380Y-141452380D02*
X149452380Y-140785714D01*
X149452380Y-140452380D02*
X149404761Y-140500000D01*
X149452380Y-140547619D01*
X149500000Y-140500000D01*
X149452380Y-140452380D01*
X149452380Y-140547619D01*
X149928571Y-140785714D02*
X149928571Y-141452380D01*
X149928571Y-140880952D02*
X149976190Y-140833333D01*
X150071428Y-140785714D01*
X150214285Y-140785714D01*
X150309523Y-140833333D01*
X150357142Y-140928571D01*
X150357142Y-141452380D01*
X151261904Y-140785714D02*
X151261904Y-141595238D01*
X151214285Y-141690476D01*
X151166666Y-141738095D01*
X151071428Y-141785714D01*
X150928571Y-141785714D01*
X150833333Y-141738095D01*
X151261904Y-141404761D02*
X151166666Y-141452380D01*
X150976190Y-141452380D01*
X150880952Y-141404761D01*
X150833333Y-141357142D01*
X150785714Y-141261904D01*
X150785714Y-140976190D01*
X150833333Y-140880952D01*
X150880952Y-140833333D01*
X150976190Y-140785714D01*
X151166666Y-140785714D01*
X151261904Y-140833333D01*
X151738095Y-141452380D02*
X151738095Y-140452380D01*
X151738095Y-140928571D02*
X152309523Y-140928571D01*
X152309523Y-141452380D02*
X152309523Y-140452380D01*
X152928571Y-141452380D02*
X152833333Y-141404761D01*
X152785714Y-141357142D01*
X152738095Y-141261904D01*
X152738095Y-140976190D01*
X152785714Y-140880952D01*
X152833333Y-140833333D01*
X152928571Y-140785714D01*
X153071428Y-140785714D01*
X153166666Y-140833333D01*
X153214285Y-140880952D01*
X153261904Y-140976190D01*
X153261904Y-141261904D01*
X153214285Y-141357142D01*
X153166666Y-141404761D01*
X153071428Y-141452380D01*
X152928571Y-141452380D01*
X153833333Y-141452380D02*
X153738095Y-141404761D01*
X153690476Y-141309523D01*
X153690476Y-140452380D01*
X154595238Y-141404761D02*
X154500000Y-141452380D01*
X154309523Y-141452380D01*
X154214285Y-141404761D01*
X154166666Y-141309523D01*
X154166666Y-140928571D01*
X154214285Y-140833333D01*
X154309523Y-140785714D01*
X154500000Y-140785714D01*
X154595238Y-140833333D01*
X154642857Y-140928571D01*
X154642857Y-141023809D01*
X154166666Y-141119047D01*
X154833333Y-141547619D02*
X155595238Y-141547619D01*
X155785714Y-140547619D02*
X155833333Y-140500000D01*
X155928571Y-140452380D01*
X156166666Y-140452380D01*
X156261904Y-140500000D01*
X156309523Y-140547619D01*
X156357142Y-140642857D01*
X156357142Y-140738095D01*
X156309523Y-140880952D01*
X155738095Y-141452380D01*
X156357142Y-141452380D01*
X156785714Y-141357142D02*
X156833333Y-141404761D01*
X156785714Y-141452380D01*
X156738095Y-141404761D01*
X156785714Y-141357142D01*
X156785714Y-141452380D01*
X157738095Y-140452380D02*
X157261904Y-140452380D01*
X157214285Y-140928571D01*
X157261904Y-140880952D01*
X157357142Y-140833333D01*
X157595238Y-140833333D01*
X157690476Y-140880952D01*
X157738095Y-140928571D01*
X157785714Y-141023809D01*
X157785714Y-141261904D01*
X157738095Y-141357142D01*
X157690476Y-141404761D01*
X157595238Y-141452380D01*
X157357142Y-141452380D01*
X157261904Y-141404761D01*
X157214285Y-141357142D01*
X158214285Y-141452380D02*
X158214285Y-140785714D01*
X158214285Y-140880952D02*
X158261904Y-140833333D01*
X158357142Y-140785714D01*
X158500000Y-140785714D01*
X158595238Y-140833333D01*
X158642857Y-140928571D01*
X158642857Y-141452380D01*
X158642857Y-140928571D02*
X158690476Y-140833333D01*
X158785714Y-140785714D01*
X158928571Y-140785714D01*
X159023809Y-140833333D01*
X159071428Y-140928571D01*
X159071428Y-141452380D01*
X159547619Y-141452380D02*
X159547619Y-140785714D01*
X159547619Y-140880952D02*
X159595238Y-140833333D01*
X159690476Y-140785714D01*
X159833333Y-140785714D01*
X159928571Y-140833333D01*
X159976190Y-140928571D01*
X159976190Y-141452380D01*
X159976190Y-140928571D02*
X160023809Y-140833333D01*
X160119047Y-140785714D01*
X160261904Y-140785714D01*
X160357142Y-140833333D01*
X160404761Y-140928571D01*
X160404761Y-141452380D01*
X160642857Y-141547619D02*
X161404761Y-141547619D01*
X161642857Y-141452380D02*
X161642857Y-140452380D01*
X162023809Y-140452380D01*
X162119047Y-140500000D01*
X162166666Y-140547619D01*
X162214285Y-140642857D01*
X162214285Y-140785714D01*
X162166666Y-140880952D01*
X162119047Y-140928571D01*
X162023809Y-140976190D01*
X161642857Y-140976190D01*
X163071428Y-141452380D02*
X163071428Y-140928571D01*
X163023809Y-140833333D01*
X162928571Y-140785714D01*
X162738095Y-140785714D01*
X162642857Y-140833333D01*
X163071428Y-141404761D02*
X162976190Y-141452380D01*
X162738095Y-141452380D01*
X162642857Y-141404761D01*
X162595238Y-141309523D01*
X162595238Y-141214285D01*
X162642857Y-141119047D01*
X162738095Y-141071428D01*
X162976190Y-141071428D01*
X163071428Y-141023809D01*
X163976190Y-141452380D02*
X163976190Y-140452380D01*
X163976190Y-141404761D02*
X163880952Y-141452380D01*
X163690476Y-141452380D01*
X163595238Y-141404761D01*
X163547619Y-141357142D01*
X163500000Y-141261904D01*
X163500000Y-140976190D01*
X163547619Y-140880952D01*
X163595238Y-140833333D01*
X163690476Y-140785714D01*
X163880952Y-140785714D01*
X163976190Y-140833333D01*
X164214285Y-141547619D02*
X164976190Y-141547619D01*
X165071428Y-140452380D02*
X165404761Y-141452380D01*
X165738095Y-140452380D01*
X166071428Y-141452380D02*
X166071428Y-140785714D01*
X166071428Y-140452380D02*
X166023809Y-140500000D01*
X166071428Y-140547619D01*
X166119047Y-140500000D01*
X166071428Y-140452380D01*
X166071428Y-140547619D01*
X166976190Y-141452380D02*
X166976190Y-140928571D01*
X166928571Y-140833333D01*
X166833333Y-140785714D01*
X166642857Y-140785714D01*
X166547619Y-140833333D01*
X166976190Y-141404761D02*
X166880952Y-141452380D01*
X166642857Y-141452380D01*
X166547619Y-141404761D01*
X166500000Y-141309523D01*
X166500000Y-141214285D01*
X166547619Y-141119047D01*
X166642857Y-141071428D01*
X166880952Y-141071428D01*
X166976190Y-141023809D01*
X154966666Y-137952380D02*
X154633333Y-137476190D01*
X154395238Y-137952380D02*
X154395238Y-136952380D01*
X154776190Y-136952380D01*
X154871428Y-137000000D01*
X154919047Y-137047619D01*
X154966666Y-137142857D01*
X154966666Y-137285714D01*
X154919047Y-137380952D01*
X154871428Y-137428571D01*
X154776190Y-137476190D01*
X154395238Y-137476190D01*
X155395238Y-137428571D02*
X155728571Y-137428571D01*
X155871428Y-137952380D02*
X155395238Y-137952380D01*
X155395238Y-136952380D01*
X155871428Y-136952380D01*
X156633333Y-137428571D02*
X156300000Y-137428571D01*
X156300000Y-137952380D02*
X156300000Y-136952380D01*
X156776190Y-136952380D01*
X157300000Y-136952380D02*
X157300000Y-137190476D01*
X157061904Y-137095238D02*
X157300000Y-137190476D01*
X157538095Y-137095238D01*
X157157142Y-137380952D02*
X157300000Y-137190476D01*
X157442857Y-137380952D01*
X158061904Y-136952380D02*
X158061904Y-137190476D01*
X157823809Y-137095238D02*
X158061904Y-137190476D01*
X158300000Y-137095238D01*
X157919047Y-137380952D02*
X158061904Y-137190476D01*
X158204761Y-137380952D01*
G04 #@! TO.C,D4*
X113647142Y-110352380D02*
X113170952Y-110352380D01*
X113170952Y-109352380D01*
X113980476Y-109828571D02*
X114313809Y-109828571D01*
X114456666Y-110352380D02*
X113980476Y-110352380D01*
X113980476Y-109352380D01*
X114456666Y-109352380D01*
X114885238Y-110352380D02*
X114885238Y-109352380D01*
X115123333Y-109352380D01*
X115266190Y-109400000D01*
X115361428Y-109495238D01*
X115409047Y-109590476D01*
X115456666Y-109780952D01*
X115456666Y-109923809D01*
X115409047Y-110114285D01*
X115361428Y-110209523D01*
X115266190Y-110304761D01*
X115123333Y-110352380D01*
X114885238Y-110352380D01*
D14*
X113994761Y-108700952D02*
X113994761Y-108300952D01*
X114090000Y-108300952D01*
X114147142Y-108320000D01*
X114185238Y-108358095D01*
X114204285Y-108396190D01*
X114223333Y-108472380D01*
X114223333Y-108529523D01*
X114204285Y-108605714D01*
X114185238Y-108643809D01*
X114147142Y-108681904D01*
X114090000Y-108700952D01*
X113994761Y-108700952D01*
X114566190Y-108434285D02*
X114566190Y-108700952D01*
X114470952Y-108281904D02*
X114375714Y-108567619D01*
X114623333Y-108567619D01*
G04 #@! TO.C,R8*
D11*
X120102380Y-110166666D02*
X120102380Y-110738095D01*
X120102380Y-110452380D02*
X119102380Y-110452380D01*
X119245238Y-110547619D01*
X119340476Y-110642857D01*
X119388095Y-110738095D01*
X119102380Y-109547619D02*
X119102380Y-109452380D01*
X119150000Y-109357142D01*
X119197619Y-109309523D01*
X119292857Y-109261904D01*
X119483333Y-109214285D01*
X119721428Y-109214285D01*
X119911904Y-109261904D01*
X120007142Y-109309523D01*
X120054761Y-109357142D01*
X120102380Y-109452380D01*
X120102380Y-109547619D01*
X120054761Y-109642857D01*
X120007142Y-109690476D01*
X119911904Y-109738095D01*
X119721428Y-109785714D01*
X119483333Y-109785714D01*
X119292857Y-109738095D01*
X119197619Y-109690476D01*
X119150000Y-109642857D01*
X119102380Y-109547619D01*
X119102380Y-108595238D02*
X119102380Y-108500000D01*
X119150000Y-108404761D01*
X119197619Y-108357142D01*
X119292857Y-108309523D01*
X119483333Y-108261904D01*
X119721428Y-108261904D01*
X119911904Y-108309523D01*
X120007142Y-108357142D01*
X120054761Y-108404761D01*
X120102380Y-108500000D01*
X120102380Y-108595238D01*
X120054761Y-108690476D01*
X120007142Y-108738095D01*
X119911904Y-108785714D01*
X119721428Y-108833333D01*
X119483333Y-108833333D01*
X119292857Y-108785714D01*
X119197619Y-108738095D01*
X119150000Y-108690476D01*
X119102380Y-108595238D01*
D12*
X118226190Y-109583333D02*
X117988095Y-109750000D01*
X118226190Y-109869047D02*
X117726190Y-109869047D01*
X117726190Y-109678571D01*
X117750000Y-109630952D01*
X117773809Y-109607142D01*
X117821428Y-109583333D01*
X117892857Y-109583333D01*
X117940476Y-109607142D01*
X117964285Y-109630952D01*
X117988095Y-109678571D01*
X117988095Y-109869047D01*
X117940476Y-109297619D02*
X117916666Y-109345238D01*
X117892857Y-109369047D01*
X117845238Y-109392857D01*
X117821428Y-109392857D01*
X117773809Y-109369047D01*
X117750000Y-109345238D01*
X117726190Y-109297619D01*
X117726190Y-109202380D01*
X117750000Y-109154761D01*
X117773809Y-109130952D01*
X117821428Y-109107142D01*
X117845238Y-109107142D01*
X117892857Y-109130952D01*
X117916666Y-109154761D01*
X117940476Y-109202380D01*
X117940476Y-109297619D01*
X117964285Y-109345238D01*
X117988095Y-109369047D01*
X118035714Y-109392857D01*
X118130952Y-109392857D01*
X118178571Y-109369047D01*
X118202380Y-109345238D01*
X118226190Y-109297619D01*
X118226190Y-109202380D01*
X118202380Y-109154761D01*
X118178571Y-109130952D01*
X118130952Y-109107142D01*
X118035714Y-109107142D01*
X117988095Y-109130952D01*
X117964285Y-109154761D01*
X117940476Y-109202380D01*
G04 #@! TO.C,R23*
D11*
X116277023Y-133102380D02*
X115705595Y-133102380D01*
X115991309Y-133102380D02*
X115991309Y-132102380D01*
X115896071Y-132245238D01*
X115800833Y-132340476D01*
X115705595Y-132388095D01*
X116896071Y-132102380D02*
X116991309Y-132102380D01*
X117086547Y-132150000D01*
X117134166Y-132197619D01*
X117181785Y-132292857D01*
X117229404Y-132483333D01*
X117229404Y-132721428D01*
X117181785Y-132911904D01*
X117134166Y-133007142D01*
X117086547Y-133054761D01*
X116991309Y-133102380D01*
X116896071Y-133102380D01*
X116800833Y-133054761D01*
X116753214Y-133007142D01*
X116705595Y-132911904D01*
X116657976Y-132721428D01*
X116657976Y-132483333D01*
X116705595Y-132292857D01*
X116753214Y-132197619D01*
X116800833Y-132150000D01*
X116896071Y-132102380D01*
X117657976Y-133102380D02*
X117657976Y-132102380D01*
X118229404Y-133102380D02*
X117800833Y-132530952D01*
X118229404Y-132102380D02*
X117657976Y-132673809D01*
D12*
X116646071Y-131226190D02*
X116479404Y-130988095D01*
X116360357Y-131226190D02*
X116360357Y-130726190D01*
X116550833Y-130726190D01*
X116598452Y-130750000D01*
X116622261Y-130773809D01*
X116646071Y-130821428D01*
X116646071Y-130892857D01*
X116622261Y-130940476D01*
X116598452Y-130964285D01*
X116550833Y-130988095D01*
X116360357Y-130988095D01*
X116836547Y-130773809D02*
X116860357Y-130750000D01*
X116907976Y-130726190D01*
X117027023Y-130726190D01*
X117074642Y-130750000D01*
X117098452Y-130773809D01*
X117122261Y-130821428D01*
X117122261Y-130869047D01*
X117098452Y-130940476D01*
X116812738Y-131226190D01*
X117122261Y-131226190D01*
X117288928Y-130726190D02*
X117598452Y-130726190D01*
X117431785Y-130916666D01*
X117503214Y-130916666D01*
X117550833Y-130940476D01*
X117574642Y-130964285D01*
X117598452Y-131011904D01*
X117598452Y-131130952D01*
X117574642Y-131178571D01*
X117550833Y-131202380D01*
X117503214Y-131226190D01*
X117360357Y-131226190D01*
X117312738Y-131202380D01*
X117288928Y-131178571D01*
G04 #@! TO.C,SW1*
D11*
X118952380Y-124905119D02*
X118476190Y-125238452D01*
X118952380Y-125476547D02*
X117952380Y-125476547D01*
X117952380Y-125095595D01*
X118000000Y-125000357D01*
X118047619Y-124952738D01*
X118142857Y-124905119D01*
X118285714Y-124905119D01*
X118380952Y-124952738D01*
X118428571Y-125000357D01*
X118476190Y-125095595D01*
X118476190Y-125476547D01*
X118904761Y-124524166D02*
X118952380Y-124381309D01*
X118952380Y-124143214D01*
X118904761Y-124047976D01*
X118857142Y-124000357D01*
X118761904Y-123952738D01*
X118666666Y-123952738D01*
X118571428Y-124000357D01*
X118523809Y-124047976D01*
X118476190Y-124143214D01*
X118428571Y-124333690D01*
X118380952Y-124428928D01*
X118333333Y-124476547D01*
X118238095Y-124524166D01*
X118142857Y-124524166D01*
X118047619Y-124476547D01*
X118000000Y-124428928D01*
X117952380Y-124333690D01*
X117952380Y-124095595D01*
X118000000Y-123952738D01*
X117952380Y-123667023D02*
X117952380Y-123095595D01*
X118952380Y-123381309D02*
X117952380Y-123381309D01*
X115404761Y-125690833D02*
X115452380Y-125547976D01*
X115452380Y-125309880D01*
X115404761Y-125214642D01*
X115357142Y-125167023D01*
X115261904Y-125119404D01*
X115166666Y-125119404D01*
X115071428Y-125167023D01*
X115023809Y-125214642D01*
X114976190Y-125309880D01*
X114928571Y-125500357D01*
X114880952Y-125595595D01*
X114833333Y-125643214D01*
X114738095Y-125690833D01*
X114642857Y-125690833D01*
X114547619Y-125643214D01*
X114500000Y-125595595D01*
X114452380Y-125500357D01*
X114452380Y-125262261D01*
X114500000Y-125119404D01*
X114452380Y-124786071D02*
X115452380Y-124547976D01*
X114738095Y-124357500D01*
X115452380Y-124167023D01*
X114452380Y-123928928D01*
X115452380Y-123024166D02*
X115452380Y-123595595D01*
X115452380Y-123309880D02*
X114452380Y-123309880D01*
X114595238Y-123405119D01*
X114690476Y-123500357D01*
X114738095Y-123595595D01*
G04 #@! TO.C,D7*
X113682142Y-113432380D02*
X113205952Y-113432380D01*
X113205952Y-112432380D01*
X114015476Y-112908571D02*
X114348809Y-112908571D01*
X114491666Y-113432380D02*
X114015476Y-113432380D01*
X114015476Y-112432380D01*
X114491666Y-112432380D01*
X114920238Y-113432380D02*
X114920238Y-112432380D01*
X115158333Y-112432380D01*
X115301190Y-112480000D01*
X115396428Y-112575238D01*
X115444047Y-112670476D01*
X115491666Y-112860952D01*
X115491666Y-113003809D01*
X115444047Y-113194285D01*
X115396428Y-113289523D01*
X115301190Y-113384761D01*
X115158333Y-113432380D01*
X114920238Y-113432380D01*
D14*
X114029761Y-111780952D02*
X114029761Y-111380952D01*
X114125000Y-111380952D01*
X114182142Y-111400000D01*
X114220238Y-111438095D01*
X114239285Y-111476190D01*
X114258333Y-111552380D01*
X114258333Y-111609523D01*
X114239285Y-111685714D01*
X114220238Y-111723809D01*
X114182142Y-111761904D01*
X114125000Y-111780952D01*
X114029761Y-111780952D01*
X114391666Y-111380952D02*
X114658333Y-111380952D01*
X114486904Y-111780952D01*
G04 #@! TO.C,R24*
D11*
X119402380Y-114759166D02*
X119402380Y-115330595D01*
X119402380Y-115044880D02*
X118402380Y-115044880D01*
X118545238Y-115140119D01*
X118640476Y-115235357D01*
X118688095Y-115330595D01*
X118402380Y-114140119D02*
X118402380Y-114044880D01*
X118450000Y-113949642D01*
X118497619Y-113902023D01*
X118592857Y-113854404D01*
X118783333Y-113806785D01*
X119021428Y-113806785D01*
X119211904Y-113854404D01*
X119307142Y-113902023D01*
X119354761Y-113949642D01*
X119402380Y-114044880D01*
X119402380Y-114140119D01*
X119354761Y-114235357D01*
X119307142Y-114282976D01*
X119211904Y-114330595D01*
X119021428Y-114378214D01*
X118783333Y-114378214D01*
X118592857Y-114330595D01*
X118497619Y-114282976D01*
X118450000Y-114235357D01*
X118402380Y-114140119D01*
X118402380Y-113187738D02*
X118402380Y-113092500D01*
X118450000Y-112997261D01*
X118497619Y-112949642D01*
X118592857Y-112902023D01*
X118783333Y-112854404D01*
X119021428Y-112854404D01*
X119211904Y-112902023D01*
X119307142Y-112949642D01*
X119354761Y-112997261D01*
X119402380Y-113092500D01*
X119402380Y-113187738D01*
X119354761Y-113282976D01*
X119307142Y-113330595D01*
X119211904Y-113378214D01*
X119021428Y-113425833D01*
X118783333Y-113425833D01*
X118592857Y-113378214D01*
X118497619Y-113330595D01*
X118450000Y-113282976D01*
X118402380Y-113187738D01*
D12*
X117526190Y-114413928D02*
X117288095Y-114580595D01*
X117526190Y-114699642D02*
X117026190Y-114699642D01*
X117026190Y-114509166D01*
X117050000Y-114461547D01*
X117073809Y-114437738D01*
X117121428Y-114413928D01*
X117192857Y-114413928D01*
X117240476Y-114437738D01*
X117264285Y-114461547D01*
X117288095Y-114509166D01*
X117288095Y-114699642D01*
X117073809Y-114223452D02*
X117050000Y-114199642D01*
X117026190Y-114152023D01*
X117026190Y-114032976D01*
X117050000Y-113985357D01*
X117073809Y-113961547D01*
X117121428Y-113937738D01*
X117169047Y-113937738D01*
X117240476Y-113961547D01*
X117526190Y-114247261D01*
X117526190Y-113937738D01*
X117192857Y-113509166D02*
X117526190Y-113509166D01*
X117002380Y-113628214D02*
X117359523Y-113747261D01*
X117359523Y-113437738D01*
G04 #@! TO.C,GPIO*
D11*
X138476190Y-138702380D02*
X139047619Y-138702380D01*
X138761904Y-139702380D02*
X138761904Y-138702380D01*
X139761904Y-139654761D02*
X139666666Y-139702380D01*
X139476190Y-139702380D01*
X139380952Y-139654761D01*
X139333333Y-139559523D01*
X139333333Y-139178571D01*
X139380952Y-139083333D01*
X139476190Y-139035714D01*
X139666666Y-139035714D01*
X139761904Y-139083333D01*
X139809523Y-139178571D01*
X139809523Y-139273809D01*
X139333333Y-139369047D01*
X140190476Y-139654761D02*
X140285714Y-139702380D01*
X140476190Y-139702380D01*
X140571428Y-139654761D01*
X140619047Y-139559523D01*
X140619047Y-139511904D01*
X140571428Y-139416666D01*
X140476190Y-139369047D01*
X140333333Y-139369047D01*
X140238095Y-139321428D01*
X140190476Y-139226190D01*
X140190476Y-139178571D01*
X140238095Y-139083333D01*
X140333333Y-139035714D01*
X140476190Y-139035714D01*
X140571428Y-139083333D01*
X140904761Y-139035714D02*
X141285714Y-139035714D01*
X141047619Y-138702380D02*
X141047619Y-139559523D01*
X141095238Y-139654761D01*
X141190476Y-139702380D01*
X141285714Y-139702380D01*
X141619047Y-139702380D02*
X141619047Y-138702380D01*
X142000000Y-138702380D01*
X142095238Y-138750000D01*
X142142857Y-138797619D01*
X142190476Y-138892857D01*
X142190476Y-139035714D01*
X142142857Y-139130952D01*
X142095238Y-139178571D01*
X142000000Y-139226190D01*
X141619047Y-139226190D01*
X142761904Y-139702380D02*
X142666666Y-139654761D01*
X142619047Y-139607142D01*
X142571428Y-139511904D01*
X142571428Y-139226190D01*
X142619047Y-139130952D01*
X142666666Y-139083333D01*
X142761904Y-139035714D01*
X142904761Y-139035714D01*
X143000000Y-139083333D01*
X143047619Y-139130952D01*
X143095238Y-139226190D01*
X143095238Y-139511904D01*
X143047619Y-139607142D01*
X143000000Y-139654761D01*
X142904761Y-139702380D01*
X142761904Y-139702380D01*
X143523809Y-139702380D02*
X143523809Y-139035714D01*
X143523809Y-138702380D02*
X143476190Y-138750000D01*
X143523809Y-138797619D01*
X143571428Y-138750000D01*
X143523809Y-138702380D01*
X143523809Y-138797619D01*
X144000000Y-139035714D02*
X144000000Y-139702380D01*
X144000000Y-139130952D02*
X144047619Y-139083333D01*
X144142857Y-139035714D01*
X144285714Y-139035714D01*
X144380952Y-139083333D01*
X144428571Y-139178571D01*
X144428571Y-139702380D01*
X144761904Y-139035714D02*
X145142857Y-139035714D01*
X144904761Y-138702380D02*
X144904761Y-139559523D01*
X144952380Y-139654761D01*
X145047619Y-139702380D01*
X145142857Y-139702380D01*
X145238095Y-139797619D02*
X146000000Y-139797619D01*
X146238095Y-139702380D02*
X146238095Y-138702380D01*
X146619047Y-138702380D01*
X146714285Y-138750000D01*
X146761904Y-138797619D01*
X146809523Y-138892857D01*
X146809523Y-139035714D01*
X146761904Y-139130952D01*
X146714285Y-139178571D01*
X146619047Y-139226190D01*
X146238095Y-139226190D01*
X147666666Y-139702380D02*
X147666666Y-139178571D01*
X147619047Y-139083333D01*
X147523809Y-139035714D01*
X147333333Y-139035714D01*
X147238095Y-139083333D01*
X147666666Y-139654761D02*
X147571428Y-139702380D01*
X147333333Y-139702380D01*
X147238095Y-139654761D01*
X147190476Y-139559523D01*
X147190476Y-139464285D01*
X147238095Y-139369047D01*
X147333333Y-139321428D01*
X147571428Y-139321428D01*
X147666666Y-139273809D01*
X148571428Y-139702380D02*
X148571428Y-138702380D01*
X148571428Y-139654761D02*
X148476190Y-139702380D01*
X148285714Y-139702380D01*
X148190476Y-139654761D01*
X148142857Y-139607142D01*
X148095238Y-139511904D01*
X148095238Y-139226190D01*
X148142857Y-139130952D01*
X148190476Y-139083333D01*
X148285714Y-139035714D01*
X148476190Y-139035714D01*
X148571428Y-139083333D01*
X148809523Y-139797619D02*
X149571428Y-139797619D01*
X149809523Y-139702380D02*
X149809523Y-138702380D01*
X150047619Y-138702380D01*
X150190476Y-138750000D01*
X150285714Y-138845238D01*
X150333333Y-138940476D01*
X150380952Y-139130952D01*
X150380952Y-139273809D01*
X150333333Y-139464285D01*
X150285714Y-139559523D01*
X150190476Y-139654761D01*
X150047619Y-139702380D01*
X149809523Y-139702380D01*
X151333333Y-139702380D02*
X150761904Y-139702380D01*
X151047619Y-139702380D02*
X151047619Y-138702380D01*
X150952380Y-138845238D01*
X150857142Y-138940476D01*
X150761904Y-138988095D01*
X151761904Y-139607142D02*
X151809523Y-139654761D01*
X151761904Y-139702380D01*
X151714285Y-139654761D01*
X151761904Y-139607142D01*
X151761904Y-139702380D01*
X152714285Y-138702380D02*
X152238095Y-138702380D01*
X152190476Y-139178571D01*
X152238095Y-139130952D01*
X152333333Y-139083333D01*
X152571428Y-139083333D01*
X152666666Y-139130952D01*
X152714285Y-139178571D01*
X152761904Y-139273809D01*
X152761904Y-139511904D01*
X152714285Y-139607142D01*
X152666666Y-139654761D01*
X152571428Y-139702380D01*
X152333333Y-139702380D01*
X152238095Y-139654761D01*
X152190476Y-139607142D01*
X153190476Y-139702380D02*
X153190476Y-139035714D01*
X153190476Y-139130952D02*
X153238095Y-139083333D01*
X153333333Y-139035714D01*
X153476190Y-139035714D01*
X153571428Y-139083333D01*
X153619047Y-139178571D01*
X153619047Y-139702380D01*
X153619047Y-139178571D02*
X153666666Y-139083333D01*
X153761904Y-139035714D01*
X153904761Y-139035714D01*
X154000000Y-139083333D01*
X154047619Y-139178571D01*
X154047619Y-139702380D01*
X154523809Y-139702380D02*
X154523809Y-139035714D01*
X154523809Y-139130952D02*
X154571428Y-139083333D01*
X154666666Y-139035714D01*
X154809523Y-139035714D01*
X154904761Y-139083333D01*
X154952380Y-139178571D01*
X154952380Y-139702380D01*
X154952380Y-139178571D02*
X155000000Y-139083333D01*
X155095238Y-139035714D01*
X155238095Y-139035714D01*
X155333333Y-139083333D01*
X155380952Y-139178571D01*
X155380952Y-139702380D01*
X146000000Y-135350000D02*
X145904761Y-135302380D01*
X145761904Y-135302380D01*
X145619047Y-135350000D01*
X145523809Y-135445238D01*
X145476190Y-135540476D01*
X145428571Y-135730952D01*
X145428571Y-135873809D01*
X145476190Y-136064285D01*
X145523809Y-136159523D01*
X145619047Y-136254761D01*
X145761904Y-136302380D01*
X145857142Y-136302380D01*
X146000000Y-136254761D01*
X146047619Y-136207142D01*
X146047619Y-135873809D01*
X145857142Y-135873809D01*
X146476190Y-136302380D02*
X146476190Y-135302380D01*
X146857142Y-135302380D01*
X146952380Y-135350000D01*
X147000000Y-135397619D01*
X147047619Y-135492857D01*
X147047619Y-135635714D01*
X147000000Y-135730952D01*
X146952380Y-135778571D01*
X146857142Y-135826190D01*
X146476190Y-135826190D01*
X147476190Y-136302380D02*
X147476190Y-135302380D01*
X148142857Y-135302380D02*
X148333333Y-135302380D01*
X148428571Y-135350000D01*
X148523809Y-135445238D01*
X148571428Y-135635714D01*
X148571428Y-135969047D01*
X148523809Y-136159523D01*
X148428571Y-136254761D01*
X148333333Y-136302380D01*
X148142857Y-136302380D01*
X148047619Y-136254761D01*
X147952380Y-136159523D01*
X147904761Y-135969047D01*
X147904761Y-135635714D01*
X147952380Y-135445238D01*
X148047619Y-135350000D01*
X148142857Y-135302380D01*
G04 #@! TO.C,VT*
X122976190Y-108342380D02*
X123547619Y-108342380D01*
X123261904Y-109342380D02*
X123261904Y-108342380D01*
X124261904Y-109294761D02*
X124166666Y-109342380D01*
X123976190Y-109342380D01*
X123880952Y-109294761D01*
X123833333Y-109199523D01*
X123833333Y-108818571D01*
X123880952Y-108723333D01*
X123976190Y-108675714D01*
X124166666Y-108675714D01*
X124261904Y-108723333D01*
X124309523Y-108818571D01*
X124309523Y-108913809D01*
X123833333Y-109009047D01*
X124690476Y-109294761D02*
X124785714Y-109342380D01*
X124976190Y-109342380D01*
X125071428Y-109294761D01*
X125119047Y-109199523D01*
X125119047Y-109151904D01*
X125071428Y-109056666D01*
X124976190Y-109009047D01*
X124833333Y-109009047D01*
X124738095Y-108961428D01*
X124690476Y-108866190D01*
X124690476Y-108818571D01*
X124738095Y-108723333D01*
X124833333Y-108675714D01*
X124976190Y-108675714D01*
X125071428Y-108723333D01*
X125404761Y-108675714D02*
X125785714Y-108675714D01*
X125547619Y-108342380D02*
X125547619Y-109199523D01*
X125595238Y-109294761D01*
X125690476Y-109342380D01*
X125785714Y-109342380D01*
X126119047Y-109342380D02*
X126119047Y-108342380D01*
X126500000Y-108342380D01*
X126595238Y-108390000D01*
X126642857Y-108437619D01*
X126690476Y-108532857D01*
X126690476Y-108675714D01*
X126642857Y-108770952D01*
X126595238Y-108818571D01*
X126500000Y-108866190D01*
X126119047Y-108866190D01*
X127261904Y-109342380D02*
X127166666Y-109294761D01*
X127119047Y-109247142D01*
X127071428Y-109151904D01*
X127071428Y-108866190D01*
X127119047Y-108770952D01*
X127166666Y-108723333D01*
X127261904Y-108675714D01*
X127404761Y-108675714D01*
X127500000Y-108723333D01*
X127547619Y-108770952D01*
X127595238Y-108866190D01*
X127595238Y-109151904D01*
X127547619Y-109247142D01*
X127500000Y-109294761D01*
X127404761Y-109342380D01*
X127261904Y-109342380D01*
X128023809Y-109342380D02*
X128023809Y-108675714D01*
X128023809Y-108342380D02*
X127976190Y-108390000D01*
X128023809Y-108437619D01*
X128071428Y-108390000D01*
X128023809Y-108342380D01*
X128023809Y-108437619D01*
X128500000Y-108675714D02*
X128500000Y-109342380D01*
X128500000Y-108770952D02*
X128547619Y-108723333D01*
X128642857Y-108675714D01*
X128785714Y-108675714D01*
X128880952Y-108723333D01*
X128928571Y-108818571D01*
X128928571Y-109342380D01*
X129261904Y-108675714D02*
X129642857Y-108675714D01*
X129404761Y-108342380D02*
X129404761Y-109199523D01*
X129452380Y-109294761D01*
X129547619Y-109342380D01*
X129642857Y-109342380D01*
X129738095Y-109437619D02*
X130500000Y-109437619D01*
X130738095Y-109342380D02*
X130738095Y-108342380D01*
X131119047Y-108342380D01*
X131214285Y-108390000D01*
X131261904Y-108437619D01*
X131309523Y-108532857D01*
X131309523Y-108675714D01*
X131261904Y-108770952D01*
X131214285Y-108818571D01*
X131119047Y-108866190D01*
X130738095Y-108866190D01*
X132166666Y-109342380D02*
X132166666Y-108818571D01*
X132119047Y-108723333D01*
X132023809Y-108675714D01*
X131833333Y-108675714D01*
X131738095Y-108723333D01*
X132166666Y-109294761D02*
X132071428Y-109342380D01*
X131833333Y-109342380D01*
X131738095Y-109294761D01*
X131690476Y-109199523D01*
X131690476Y-109104285D01*
X131738095Y-109009047D01*
X131833333Y-108961428D01*
X132071428Y-108961428D01*
X132166666Y-108913809D01*
X133071428Y-109342380D02*
X133071428Y-108342380D01*
X133071428Y-109294761D02*
X132976190Y-109342380D01*
X132785714Y-109342380D01*
X132690476Y-109294761D01*
X132642857Y-109247142D01*
X132595238Y-109151904D01*
X132595238Y-108866190D01*
X132642857Y-108770952D01*
X132690476Y-108723333D01*
X132785714Y-108675714D01*
X132976190Y-108675714D01*
X133071428Y-108723333D01*
X133309523Y-109437619D02*
X134071428Y-109437619D01*
X134309523Y-109342380D02*
X134309523Y-108342380D01*
X134547619Y-108342380D01*
X134690476Y-108390000D01*
X134785714Y-108485238D01*
X134833333Y-108580476D01*
X134880952Y-108770952D01*
X134880952Y-108913809D01*
X134833333Y-109104285D01*
X134785714Y-109199523D01*
X134690476Y-109294761D01*
X134547619Y-109342380D01*
X134309523Y-109342380D01*
X135833333Y-109342380D02*
X135261904Y-109342380D01*
X135547619Y-109342380D02*
X135547619Y-108342380D01*
X135452380Y-108485238D01*
X135357142Y-108580476D01*
X135261904Y-108628095D01*
X136261904Y-109247142D02*
X136309523Y-109294761D01*
X136261904Y-109342380D01*
X136214285Y-109294761D01*
X136261904Y-109247142D01*
X136261904Y-109342380D01*
X137214285Y-108342380D02*
X136738095Y-108342380D01*
X136690476Y-108818571D01*
X136738095Y-108770952D01*
X136833333Y-108723333D01*
X137071428Y-108723333D01*
X137166666Y-108770952D01*
X137214285Y-108818571D01*
X137261904Y-108913809D01*
X137261904Y-109151904D01*
X137214285Y-109247142D01*
X137166666Y-109294761D01*
X137071428Y-109342380D01*
X136833333Y-109342380D01*
X136738095Y-109294761D01*
X136690476Y-109247142D01*
X137690476Y-109342380D02*
X137690476Y-108675714D01*
X137690476Y-108770952D02*
X137738095Y-108723333D01*
X137833333Y-108675714D01*
X137976190Y-108675714D01*
X138071428Y-108723333D01*
X138119047Y-108818571D01*
X138119047Y-109342380D01*
X138119047Y-108818571D02*
X138166666Y-108723333D01*
X138261904Y-108675714D01*
X138404761Y-108675714D01*
X138500000Y-108723333D01*
X138547619Y-108818571D01*
X138547619Y-109342380D01*
X139023809Y-109342380D02*
X139023809Y-108675714D01*
X139023809Y-108770952D02*
X139071428Y-108723333D01*
X139166666Y-108675714D01*
X139309523Y-108675714D01*
X139404761Y-108723333D01*
X139452380Y-108818571D01*
X139452380Y-109342380D01*
X139452380Y-108818571D02*
X139500000Y-108723333D01*
X139595238Y-108675714D01*
X139738095Y-108675714D01*
X139833333Y-108723333D01*
X139880952Y-108818571D01*
X139880952Y-109342380D01*
X130785714Y-104942380D02*
X131119047Y-105942380D01*
X131452380Y-104942380D01*
X131642857Y-104942380D02*
X132214285Y-104942380D01*
X131928571Y-105942380D02*
X131928571Y-104942380D01*
G04 #@! TO.C,P1*
X143123809Y-53202380D02*
X143123809Y-52202380D01*
X143504761Y-52202380D01*
X143600000Y-52250000D01*
X143647619Y-52297619D01*
X143695238Y-52392857D01*
X143695238Y-52535714D01*
X143647619Y-52630952D01*
X143600000Y-52678571D01*
X143504761Y-52726190D01*
X143123809Y-52726190D01*
X144314285Y-52202380D02*
X144504761Y-52202380D01*
X144600000Y-52250000D01*
X144695238Y-52345238D01*
X144742857Y-52535714D01*
X144742857Y-52869047D01*
X144695238Y-53059523D01*
X144600000Y-53154761D01*
X144504761Y-53202380D01*
X144314285Y-53202380D01*
X144219047Y-53154761D01*
X144123809Y-53059523D01*
X144076190Y-52869047D01*
X144076190Y-52535714D01*
X144123809Y-52345238D01*
X144219047Y-52250000D01*
X144314285Y-52202380D01*
X145076190Y-52202380D02*
X145314285Y-53202380D01*
X145504761Y-52488095D01*
X145695238Y-53202380D01*
X145933333Y-52202380D01*
X146314285Y-52678571D02*
X146647619Y-52678571D01*
X146790476Y-53202380D02*
X146314285Y-53202380D01*
X146314285Y-52202380D01*
X146790476Y-52202380D01*
X147790476Y-53202380D02*
X147457142Y-52726190D01*
X147219047Y-53202380D02*
X147219047Y-52202380D01*
X147600000Y-52202380D01*
X147695238Y-52250000D01*
X147742857Y-52297619D01*
X147790476Y-52392857D01*
X147790476Y-52535714D01*
X147742857Y-52630952D01*
X147695238Y-52678571D01*
X147600000Y-52726190D01*
X147219047Y-52726190D01*
X148980952Y-53202380D02*
X148980952Y-52202380D01*
X150171428Y-52154761D02*
X149314285Y-53440476D01*
X150695238Y-52202380D02*
X150885714Y-52202380D01*
X150980952Y-52250000D01*
X151076190Y-52345238D01*
X151123809Y-52535714D01*
X151123809Y-52869047D01*
X151076190Y-53059523D01*
X150980952Y-53154761D01*
X150885714Y-53202380D01*
X150695238Y-53202380D01*
X150600000Y-53154761D01*
X150504761Y-53059523D01*
X150457142Y-52869047D01*
X150457142Y-52535714D01*
X150504761Y-52345238D01*
X150600000Y-52250000D01*
X150695238Y-52202380D01*
X146361904Y-55102380D02*
X146361904Y-54102380D01*
X146742857Y-54102380D01*
X146838095Y-54150000D01*
X146885714Y-54197619D01*
X146933333Y-54292857D01*
X146933333Y-54435714D01*
X146885714Y-54530952D01*
X146838095Y-54578571D01*
X146742857Y-54626190D01*
X146361904Y-54626190D01*
X147885714Y-55102380D02*
X147314285Y-55102380D01*
X147600000Y-55102380D02*
X147600000Y-54102380D01*
X147504761Y-54245238D01*
X147409523Y-54340476D01*
X147314285Y-54388095D01*
G04 #@! TO.C,J1*
X173284761Y-133513809D02*
X173332380Y-133370952D01*
X173332380Y-133132857D01*
X173284761Y-133037619D01*
X173237142Y-132990000D01*
X173141904Y-132942380D01*
X173046666Y-132942380D01*
X172951428Y-132990000D01*
X172903809Y-133037619D01*
X172856190Y-133132857D01*
X172808571Y-133323333D01*
X172760952Y-133418571D01*
X172713333Y-133466190D01*
X172618095Y-133513809D01*
X172522857Y-133513809D01*
X172427619Y-133466190D01*
X172380000Y-133418571D01*
X172332380Y-133323333D01*
X172332380Y-133085238D01*
X172380000Y-132942380D01*
X173332380Y-132513809D02*
X172332380Y-132513809D01*
X165382380Y-133323333D02*
X166096666Y-133323333D01*
X166239523Y-133370952D01*
X166334761Y-133466190D01*
X166382380Y-133609047D01*
X166382380Y-133704285D01*
X166382380Y-132323333D02*
X166382380Y-132894761D01*
X166382380Y-132609047D02*
X165382380Y-132609047D01*
X165525238Y-132704285D01*
X165620476Y-132799523D01*
X165668095Y-132894761D01*
G04 #@! TD*
M02*
