G04 #@! TF.GenerationSoftware,KiCad,Pcbnew,5.0.0-rc2-unknown-bfa8903~65~ubuntu16.04.1*
G04 #@! TF.CreationDate,2018-06-03T14:39:05-05:00*
G04 #@! TF.ProjectId,omega-dock-new,6F6D6567612D646F636B2D6E65772E6B,rev?*
G04 #@! TF.SameCoordinates,Original*
G04 #@! TF.FileFunction,Soldermask,Bot*
G04 #@! TF.FilePolarity,Negative*
%FSLAX46Y46*%
G04 Gerber Fmt 4.6, Leading zero omitted, Abs format (unit mm)*
G04 Created by KiCad (PCBNEW 5.0.0-rc2-unknown-bfa8903~65~ubuntu16.04.1) date Sun Jun  3 14:39:05 2018*
%MOMM*%
%LPD*%
G01*
G04 APERTURE LIST*
%ADD10R,1.800000X1.800000*%
%ADD11C,1.800000*%
%ADD12C,2.200000*%
%ADD13R,1.700000X1.345000*%
%ADD14C,1.400000*%
%ADD15R,1.500000X1.700000*%
%ADD16O,1.800000X1.800000*%
%ADD17R,5.200000X2.000000*%
%ADD18O,1.550000X1.550000*%
%ADD19R,1.550000X1.550000*%
%ADD20R,2.200000X4.000000*%
%ADD21R,2.200000X1.700000*%
%ADD22R,2.800000X1.800000*%
%ADD23R,2.150000X1.900000*%
%ADD24O,2.150000X1.900000*%
%ADD25R,1.750000X0.800000*%
%ADD26C,1.200000*%
%ADD27C,1.000000*%
%ADD28C,5.200000*%
%ADD29C,0.950000*%
%ADD30R,2.200000X2.800000*%
%ADD31O,2.200000X2.800000*%
%ADD32O,2.500000X1.300000*%
G04 APERTURE END LIST*
D10*
G04 #@! TO.C,C6*
X146000000Y-94000000D03*
D11*
X149500000Y-94000000D03*
G04 #@! TD*
D12*
G04 #@! TO.C,C13*
X148321244Y-83703214D03*
X158321244Y-83703214D03*
G04 #@! TD*
G04 #@! TO.C,C14*
X148321244Y-77703214D03*
X158321244Y-77703214D03*
G04 #@! TD*
D13*
G04 #@! TO.C,R10*
X116000000Y-84042500D03*
X116000000Y-81957500D03*
G04 #@! TD*
G04 #@! TO.C,R11*
X116000000Y-74042500D03*
X116000000Y-71957500D03*
G04 #@! TD*
G04 #@! TO.C,R12*
X116000000Y-63957500D03*
X116000000Y-66042500D03*
G04 #@! TD*
D11*
G04 #@! TO.C,RV1*
X134000000Y-91430000D03*
X129000000Y-91430000D03*
G04 #@! TD*
D14*
G04 #@! TO.C,U4*
X134760000Y-89000000D03*
X139840000Y-89000000D03*
X144920000Y-89000000D03*
X150000000Y-89000000D03*
X157620000Y-89000000D03*
X162700000Y-89000000D03*
G04 #@! TD*
D15*
G04 #@! TO.C,U5*
X128500000Y-88080000D03*
X128500000Y-85540000D03*
X128500000Y-83000000D03*
X119500000Y-83000000D03*
X119500000Y-85540000D03*
X119500000Y-88080000D03*
G04 #@! TD*
G04 #@! TO.C,U6*
X119302500Y-78080000D03*
X119302500Y-75540000D03*
X119302500Y-73000000D03*
X128302500Y-73000000D03*
X128302500Y-75540000D03*
X128302500Y-78080000D03*
G04 #@! TD*
G04 #@! TO.C,U7*
X119302500Y-68304048D03*
X119302500Y-65764048D03*
X119302500Y-63224048D03*
X128302500Y-63224048D03*
X128302500Y-65764048D03*
X128302500Y-68304048D03*
G04 #@! TD*
D10*
G04 #@! TO.C,C5*
X146000000Y-103000000D03*
D11*
X149500000Y-103000000D03*
G04 #@! TD*
D12*
G04 #@! TO.C,C15*
X148321244Y-71703214D03*
X158321244Y-71703214D03*
G04 #@! TD*
D16*
G04 #@! TO.C,R16*
X144481244Y-83703214D03*
D11*
X134321244Y-83703214D03*
G04 #@! TD*
G04 #@! TO.C,R17*
X134321244Y-77703214D03*
D16*
X144481244Y-77703214D03*
G04 #@! TD*
D11*
G04 #@! TO.C,R18*
X134321244Y-71703214D03*
D16*
X144481244Y-71703214D03*
G04 #@! TD*
D17*
G04 #@! TO.C,L2*
X139000000Y-95030000D03*
X139000000Y-91330000D03*
G04 #@! TD*
D13*
G04 #@! TO.C,R13*
X131000000Y-86042500D03*
X131000000Y-83957500D03*
G04 #@! TD*
G04 #@! TO.C,R14*
X131000000Y-74957500D03*
X131000000Y-77042500D03*
G04 #@! TD*
G04 #@! TO.C,R15*
X131000000Y-65957500D03*
X131000000Y-68042500D03*
G04 #@! TD*
D18*
G04 #@! TO.C,U2*
X151000000Y-134400000D03*
X149000000Y-134400000D03*
X147000000Y-134400000D03*
X145000000Y-134400000D03*
X143000000Y-134400000D03*
X141000000Y-134400000D03*
X139000000Y-134400000D03*
X137000000Y-134400000D03*
X135000000Y-134400000D03*
X133000000Y-134400000D03*
X131000000Y-134400000D03*
X129000000Y-134400000D03*
X127000000Y-134400000D03*
X125000000Y-134400000D03*
X123000000Y-134400000D03*
D19*
X121000000Y-134400000D03*
X121000000Y-110000000D03*
D18*
X123000000Y-110000000D03*
X125000000Y-110000000D03*
X127000000Y-110000000D03*
X129000000Y-110000000D03*
X131000000Y-110000000D03*
X133000000Y-110000000D03*
X135000000Y-110000000D03*
X137000000Y-110000000D03*
X139000000Y-110000000D03*
X141000000Y-110000000D03*
X143000000Y-110000000D03*
X145000000Y-110000000D03*
X147000000Y-110000000D03*
X149000000Y-110000000D03*
X151000000Y-110000000D03*
G04 #@! TD*
D20*
G04 #@! TO.C,U3*
X156850000Y-101000000D03*
D21*
X163150000Y-101000000D03*
X163150000Y-103300000D03*
X163150000Y-98700000D03*
G04 #@! TD*
D22*
G04 #@! TO.C,C7*
X161800000Y-94000000D03*
X158200000Y-94000000D03*
G04 #@! TD*
D23*
G04 #@! TO.C,J2*
X164000000Y-123000000D03*
D24*
X164000000Y-120500000D03*
X164000000Y-118000000D03*
X164000000Y-115500000D03*
G04 #@! TD*
D25*
G04 #@! TO.C,U12*
X136700000Y-128095000D03*
X136700000Y-129365000D03*
X136700000Y-130635000D03*
X136700000Y-131905000D03*
X131300000Y-131905000D03*
X131300000Y-130635000D03*
X131300000Y-129365000D03*
X131300000Y-128095000D03*
G04 #@! TD*
D26*
G04 #@! TO.C,Y1*
X147820000Y-125050000D03*
X145280000Y-125050000D03*
G04 #@! TD*
D22*
G04 #@! TO.C,C9*
X160700000Y-109000000D03*
X164300000Y-109000000D03*
G04 #@! TD*
D27*
G04 #@! TO.C,REF\002A\002A*
X117325825Y-87674175D03*
X116000000Y-87125000D03*
X114674175Y-87674175D03*
X114125000Y-89000000D03*
X114674175Y-90325825D03*
X116000000Y-90875000D03*
X117325825Y-90325825D03*
X117875000Y-89000000D03*
D28*
X116000000Y-89000000D03*
G04 #@! TD*
D27*
G04 #@! TO.C,REF\002A\002A*
X134825825Y-60674175D03*
X133500000Y-60125000D03*
X132174175Y-60674175D03*
X131625000Y-62000000D03*
X132174175Y-63325825D03*
X133500000Y-63875000D03*
X134825825Y-63325825D03*
X135375000Y-62000000D03*
D28*
X133500000Y-62000000D03*
G04 #@! TD*
D27*
G04 #@! TO.C,REF\002A\002A*
X157325825Y-136174175D03*
X156000000Y-135625000D03*
X154674175Y-136174175D03*
X154125000Y-137500000D03*
X154674175Y-138825825D03*
X156000000Y-139375000D03*
X157325825Y-138825825D03*
X157875000Y-137500000D03*
D28*
X156000000Y-137500000D03*
G04 #@! TD*
D29*
G04 #@! TO.C,SW1*
X116375000Y-124357500D03*
X113625000Y-124357500D03*
G04 #@! TD*
D30*
G04 #@! TO.C,P1*
X154250000Y-63250000D03*
D31*
X150750000Y-63250000D03*
X147250000Y-63250000D03*
X143750000Y-63250000D03*
X140250000Y-63250000D03*
G04 #@! TD*
D23*
G04 #@! TO.C,J1*
X162480000Y-135490000D03*
D24*
X162480000Y-132990000D03*
X162480000Y-130490000D03*
G04 #@! TD*
D32*
G04 #@! TO.C,F1*
X164500000Y-84143000D03*
X164500000Y-77412000D03*
X164500000Y-68588000D03*
X164500000Y-61857000D03*
G04 #@! TD*
M02*
