G04 #@! TF.GenerationSoftware,KiCad,Pcbnew,5.0.0-rc2-unknown-bfa8903~65~ubuntu16.04.1*
G04 #@! TF.CreationDate,2018-06-03T14:39:05-05:00*
G04 #@! TF.ProjectId,omega-dock-new,6F6D6567612D646F636B2D6E65772E6B,rev?*
G04 #@! TF.SameCoordinates,Original*
G04 #@! TF.FileFunction,Legend,Bot*
G04 #@! TF.FilePolarity,Positive*
%FSLAX46Y46*%
G04 Gerber Fmt 4.6, Leading zero omitted, Abs format (unit mm)*
G04 Created by KiCad (PCBNEW 5.0.0-rc2-unknown-bfa8903~65~ubuntu16.04.1) date Sun Jun  3 14:39:05 2018*
%MOMM*%
%LPD*%
G01*
G04 APERTURE LIST*
%ADD10C,0.120000*%
%ADD11C,0.150000*%
%ADD12C,0.100000*%
G04 APERTURE END LIST*
D10*
G04 #@! TO.C,C13*
X146761244Y-85763214D02*
X159881244Y-85763214D01*
X146761244Y-81643214D02*
X159881244Y-81643214D01*
X146761244Y-85763214D02*
X146761244Y-81643214D01*
X159881244Y-85763214D02*
X159881244Y-81643214D01*
G04 #@! TO.C,C14*
X146761244Y-79763214D02*
X159881244Y-79763214D01*
X146761244Y-75643214D02*
X159881244Y-75643214D01*
X146761244Y-79763214D02*
X146761244Y-75643214D01*
X159881244Y-79763214D02*
X159881244Y-75643214D01*
G04 #@! TO.C,R10*
X116710000Y-83150000D02*
X116710000Y-82850000D01*
X115290000Y-83150000D02*
X115290000Y-82850000D01*
G04 #@! TO.C,R11*
X116710000Y-73150000D02*
X116710000Y-72850000D01*
X115290000Y-73150000D02*
X115290000Y-72850000D01*
G04 #@! TO.C,R12*
X115290000Y-65150000D02*
X115290000Y-64850000D01*
X116710000Y-65150000D02*
X116710000Y-64850000D01*
G04 #@! TO.C,RV1*
X133710000Y-90420000D02*
X129290000Y-90420000D01*
X133710000Y-92440000D02*
X129290000Y-92440000D01*
X133710000Y-90420000D02*
X133710000Y-90434000D01*
X133710000Y-92426000D02*
X133710000Y-92440000D01*
X129290000Y-90420000D02*
X129290000Y-90434000D01*
X129290000Y-92426000D02*
X129290000Y-92440000D01*
D11*
G04 #@! TO.C,U5*
G36*
X122000000Y-88290000D02*
X121750000Y-88040000D01*
X121500000Y-88290000D01*
X121750000Y-88540000D01*
X122000000Y-88290000D01*
G37*
X122000000Y-88290000D02*
X121750000Y-88040000D01*
X121500000Y-88290000D01*
X121750000Y-88540000D01*
X122000000Y-88290000D01*
X122000000Y-88290000D02*
G75*
G03X122000000Y-88290000I-250000J0D01*
G01*
X120750000Y-89190000D02*
X120750000Y-81890000D01*
X127250000Y-89190000D02*
X127250000Y-81890000D01*
X127250000Y-89190000D02*
X120750000Y-89190000D01*
X120750000Y-81890000D02*
X127250000Y-81890000D01*
G04 #@! TO.C,U6*
X120552500Y-71890000D02*
X127052500Y-71890000D01*
X127052500Y-79190000D02*
X120552500Y-79190000D01*
X127052500Y-79190000D02*
X127052500Y-71890000D01*
X120552500Y-79190000D02*
X120552500Y-71890000D01*
X121802500Y-78290000D02*
G75*
G03X121802500Y-78290000I-250000J0D01*
G01*
G36*
X121802500Y-78290000D02*
X121552500Y-78040000D01*
X121302500Y-78290000D01*
X121552500Y-78540000D01*
X121802500Y-78290000D01*
G37*
X121802500Y-78290000D02*
X121552500Y-78040000D01*
X121302500Y-78290000D01*
X121552500Y-78540000D01*
X121802500Y-78290000D01*
G04 #@! TO.C,U7*
X120552500Y-62114048D02*
X127052500Y-62114048D01*
X127052500Y-69414048D02*
X120552500Y-69414048D01*
X127052500Y-69414048D02*
X127052500Y-62114048D01*
X120552500Y-69414048D02*
X120552500Y-62114048D01*
X121802500Y-68514048D02*
G75*
G03X121802500Y-68514048I-250000J0D01*
G01*
G36*
X121802500Y-68514048D02*
X121552500Y-68264048D01*
X121302500Y-68514048D01*
X121552500Y-68764048D01*
X121802500Y-68514048D01*
G37*
X121802500Y-68514048D02*
X121552500Y-68264048D01*
X121302500Y-68514048D01*
X121552500Y-68764048D01*
X121802500Y-68514048D01*
D10*
G04 #@! TO.C,C15*
X146761244Y-73763214D02*
X159881244Y-73763214D01*
X146761244Y-69643214D02*
X159881244Y-69643214D01*
X146761244Y-73763214D02*
X146761244Y-69643214D01*
X159881244Y-73763214D02*
X159881244Y-69643214D01*
G04 #@! TO.C,R16*
X143441244Y-83703214D02*
X142671244Y-83703214D01*
X135361244Y-83703214D02*
X136131244Y-83703214D01*
X142671244Y-85073214D02*
X136131244Y-85073214D01*
X142671244Y-82333214D02*
X142671244Y-85073214D01*
X136131244Y-82333214D02*
X142671244Y-82333214D01*
X136131244Y-85073214D02*
X136131244Y-82333214D01*
G04 #@! TO.C,R17*
X136131244Y-79073214D02*
X136131244Y-76333214D01*
X136131244Y-76333214D02*
X142671244Y-76333214D01*
X142671244Y-76333214D02*
X142671244Y-79073214D01*
X142671244Y-79073214D02*
X136131244Y-79073214D01*
X135361244Y-77703214D02*
X136131244Y-77703214D01*
X143441244Y-77703214D02*
X142671244Y-77703214D01*
G04 #@! TO.C,R18*
X136131244Y-73073214D02*
X136131244Y-70333214D01*
X136131244Y-70333214D02*
X142671244Y-70333214D01*
X142671244Y-70333214D02*
X142671244Y-73073214D01*
X142671244Y-73073214D02*
X136131244Y-73073214D01*
X135361244Y-71703214D02*
X136131244Y-71703214D01*
X143441244Y-71703214D02*
X142671244Y-71703214D01*
D11*
G04 #@! TO.C,L2*
X141999998Y-94180000D02*
G75*
G03X141999999Y-92180001I-2999998J1000000D01*
G01*
X136000002Y-92180000D02*
G75*
G03X136000001Y-94179999I2999998J-1000000D01*
G01*
X136000000Y-91180000D02*
G75*
G03X136000000Y-91180000I-250000J0D01*
G01*
D10*
G04 #@! TO.C,R13*
X131710000Y-84850000D02*
X131710000Y-85150000D01*
X130290000Y-84850000D02*
X130290000Y-85150000D01*
G04 #@! TO.C,R14*
X130290000Y-75850000D02*
X130290000Y-76150000D01*
X131710000Y-75850000D02*
X131710000Y-76150000D01*
G04 #@! TO.C,R15*
X130290000Y-66850000D02*
X130290000Y-67150000D01*
X131710000Y-66850000D02*
X131710000Y-67150000D01*
D12*
G04 #@! TO.C,U2*
X153400726Y-108996400D02*
X113401100Y-108996400D01*
X113401100Y-108996400D02*
X113401100Y-128795364D01*
X113401100Y-128795364D02*
X119999836Y-135396856D01*
X119999836Y-135396856D02*
X152001328Y-135396856D01*
X152001328Y-135396856D02*
X156301496Y-131096688D01*
X156301496Y-131096688D02*
X156301496Y-111896826D01*
X156301496Y-111896826D02*
X153400726Y-108996400D01*
D10*
G04 #@! TO.C,U3*
X158090000Y-104410000D02*
X158090000Y-103150000D01*
X158090000Y-97590000D02*
X158090000Y-98850000D01*
X161850000Y-104410000D02*
X158090000Y-104410000D01*
X164100000Y-97590000D02*
X158090000Y-97590000D01*
G04 #@! TO.C,C7*
X162290000Y-92480000D02*
X162290000Y-92880000D01*
X157710000Y-91710000D02*
X157710000Y-92880000D01*
X157710000Y-96290000D02*
X157710000Y-95120000D01*
X162290000Y-95520000D02*
X162290000Y-95120000D01*
X161520000Y-96290000D02*
X157710000Y-96290000D01*
X161520000Y-96290000D02*
X162290000Y-95520000D01*
X161520000Y-91710000D02*
X157710000Y-91710000D01*
X161520000Y-91710000D02*
X162290000Y-92480000D01*
D11*
G04 #@! TO.C,U12*
X136075000Y-127425000D02*
X136075000Y-127475000D01*
X131925000Y-127425000D02*
X131925000Y-127570000D01*
X131925000Y-132575000D02*
X131925000Y-132430000D01*
X136075000Y-132575000D02*
X136075000Y-132430000D01*
X136075000Y-127425000D02*
X131925000Y-127425000D01*
X136075000Y-132575000D02*
X131925000Y-132575000D01*
X136075000Y-127475000D02*
X137475000Y-127475000D01*
D10*
G04 #@! TO.C,C9*
X160210000Y-110520000D02*
X160210000Y-110120000D01*
X164790000Y-111290000D02*
X164790000Y-110120000D01*
X164790000Y-106710000D02*
X164790000Y-107880000D01*
X160210000Y-107480000D02*
X160210000Y-107880000D01*
X160980000Y-106710000D02*
X164790000Y-106710000D01*
X160980000Y-106710000D02*
X160210000Y-107480000D01*
X160980000Y-111290000D02*
X164790000Y-111290000D01*
X160980000Y-111290000D02*
X160210000Y-110520000D01*
D11*
G04 #@! TO.C,F1*
X166000000Y-61857000D02*
X167720000Y-61857000D01*
X167720000Y-61857000D02*
X167720000Y-84143000D01*
X167720000Y-84143000D02*
X166000000Y-84143000D01*
X163000000Y-84143000D02*
X161280000Y-84143000D01*
X161280000Y-84143000D02*
X161280000Y-61857000D01*
X161280000Y-61857000D02*
X163000000Y-61857000D01*
G04 #@! TO.C,C13*
X153964101Y-87370356D02*
X154011720Y-87417975D01*
X154154577Y-87465594D01*
X154249815Y-87465594D01*
X154392672Y-87417975D01*
X154487910Y-87322737D01*
X154535529Y-87227499D01*
X154583148Y-87037023D01*
X154583148Y-86894166D01*
X154535529Y-86703690D01*
X154487910Y-86608452D01*
X154392672Y-86513214D01*
X154249815Y-86465594D01*
X154154577Y-86465594D01*
X154011720Y-86513214D01*
X153964101Y-86560833D01*
X153011720Y-87465594D02*
X153583148Y-87465594D01*
X153297434Y-87465594D02*
X153297434Y-86465594D01*
X153392672Y-86608452D01*
X153487910Y-86703690D01*
X153583148Y-86751309D01*
X152678386Y-86465594D02*
X152059339Y-86465594D01*
X152392672Y-86846547D01*
X152249815Y-86846547D01*
X152154577Y-86894166D01*
X152106958Y-86941785D01*
X152059339Y-87037023D01*
X152059339Y-87275118D01*
X152106958Y-87370356D01*
X152154577Y-87417975D01*
X152249815Y-87465594D01*
X152535529Y-87465594D01*
X152630767Y-87417975D01*
X152678386Y-87370356D01*
G04 #@! TO.C,C14*
X153964101Y-81370356D02*
X154011720Y-81417975D01*
X154154577Y-81465594D01*
X154249815Y-81465594D01*
X154392672Y-81417975D01*
X154487910Y-81322737D01*
X154535529Y-81227499D01*
X154583148Y-81037023D01*
X154583148Y-80894166D01*
X154535529Y-80703690D01*
X154487910Y-80608452D01*
X154392672Y-80513214D01*
X154249815Y-80465594D01*
X154154577Y-80465594D01*
X154011720Y-80513214D01*
X153964101Y-80560833D01*
X153011720Y-81465594D02*
X153583148Y-81465594D01*
X153297434Y-81465594D02*
X153297434Y-80465594D01*
X153392672Y-80608452D01*
X153487910Y-80703690D01*
X153583148Y-80751309D01*
X152154577Y-80798928D02*
X152154577Y-81465594D01*
X152392672Y-80417975D02*
X152630767Y-81132261D01*
X152011720Y-81132261D01*
G04 #@! TO.C,R10*
X118302380Y-82357142D02*
X117826190Y-82023809D01*
X118302380Y-81785714D02*
X117302380Y-81785714D01*
X117302380Y-82166666D01*
X117350000Y-82261904D01*
X117397619Y-82309523D01*
X117492857Y-82357142D01*
X117635714Y-82357142D01*
X117730952Y-82309523D01*
X117778571Y-82261904D01*
X117826190Y-82166666D01*
X117826190Y-81785714D01*
X118302380Y-83309523D02*
X118302380Y-82738095D01*
X118302380Y-83023809D02*
X117302380Y-83023809D01*
X117445238Y-82928571D01*
X117540476Y-82833333D01*
X117588095Y-82738095D01*
X117302380Y-83928571D02*
X117302380Y-84023809D01*
X117350000Y-84119047D01*
X117397619Y-84166666D01*
X117492857Y-84214285D01*
X117683333Y-84261904D01*
X117921428Y-84261904D01*
X118111904Y-84214285D01*
X118207142Y-84166666D01*
X118254761Y-84119047D01*
X118302380Y-84023809D01*
X118302380Y-83928571D01*
X118254761Y-83833333D01*
X118207142Y-83785714D01*
X118111904Y-83738095D01*
X117921428Y-83690476D01*
X117683333Y-83690476D01*
X117492857Y-83738095D01*
X117397619Y-83785714D01*
X117350000Y-83833333D01*
X117302380Y-83928571D01*
G04 #@! TO.C,R11*
X118302380Y-72357142D02*
X117826190Y-72023809D01*
X118302380Y-71785714D02*
X117302380Y-71785714D01*
X117302380Y-72166666D01*
X117350000Y-72261904D01*
X117397619Y-72309523D01*
X117492857Y-72357142D01*
X117635714Y-72357142D01*
X117730952Y-72309523D01*
X117778571Y-72261904D01*
X117826190Y-72166666D01*
X117826190Y-71785714D01*
X118302380Y-73309523D02*
X118302380Y-72738095D01*
X118302380Y-73023809D02*
X117302380Y-73023809D01*
X117445238Y-72928571D01*
X117540476Y-72833333D01*
X117588095Y-72738095D01*
X118302380Y-74261904D02*
X118302380Y-73690476D01*
X118302380Y-73976190D02*
X117302380Y-73976190D01*
X117445238Y-73880952D01*
X117540476Y-73785714D01*
X117588095Y-73690476D01*
G04 #@! TO.C,R12*
X118302380Y-64357142D02*
X117826190Y-64023809D01*
X118302380Y-63785714D02*
X117302380Y-63785714D01*
X117302380Y-64166666D01*
X117350000Y-64261904D01*
X117397619Y-64309523D01*
X117492857Y-64357142D01*
X117635714Y-64357142D01*
X117730952Y-64309523D01*
X117778571Y-64261904D01*
X117826190Y-64166666D01*
X117826190Y-63785714D01*
X118302380Y-65309523D02*
X118302380Y-64738095D01*
X118302380Y-65023809D02*
X117302380Y-65023809D01*
X117445238Y-64928571D01*
X117540476Y-64833333D01*
X117588095Y-64738095D01*
X117397619Y-65690476D02*
X117350000Y-65738095D01*
X117302380Y-65833333D01*
X117302380Y-66071428D01*
X117350000Y-66166666D01*
X117397619Y-66214285D01*
X117492857Y-66261904D01*
X117588095Y-66261904D01*
X117730952Y-66214285D01*
X118302380Y-65642857D01*
X118302380Y-66261904D01*
G04 #@! TO.C,RV1*
X132095238Y-89622380D02*
X132428571Y-89146190D01*
X132666666Y-89622380D02*
X132666666Y-88622380D01*
X132285714Y-88622380D01*
X132190476Y-88670000D01*
X132142857Y-88717619D01*
X132095238Y-88812857D01*
X132095238Y-88955714D01*
X132142857Y-89050952D01*
X132190476Y-89098571D01*
X132285714Y-89146190D01*
X132666666Y-89146190D01*
X131809523Y-88622380D02*
X131476190Y-89622380D01*
X131142857Y-88622380D01*
X130285714Y-89622380D02*
X130857142Y-89622380D01*
X130571428Y-89622380D02*
X130571428Y-88622380D01*
X130666666Y-88765238D01*
X130761904Y-88860476D01*
X130857142Y-88908095D01*
G04 #@! TO.C,U5*
X117452380Y-84778095D02*
X118261904Y-84778095D01*
X118357142Y-84825714D01*
X118404761Y-84873333D01*
X118452380Y-84968571D01*
X118452380Y-85159047D01*
X118404761Y-85254285D01*
X118357142Y-85301904D01*
X118261904Y-85349523D01*
X117452380Y-85349523D01*
X117452380Y-86301904D02*
X117452380Y-85825714D01*
X117928571Y-85778095D01*
X117880952Y-85825714D01*
X117833333Y-85920952D01*
X117833333Y-86159047D01*
X117880952Y-86254285D01*
X117928571Y-86301904D01*
X118023809Y-86349523D01*
X118261904Y-86349523D01*
X118357142Y-86301904D01*
X118404761Y-86254285D01*
X118452380Y-86159047D01*
X118452380Y-85920952D01*
X118404761Y-85825714D01*
X118357142Y-85778095D01*
G04 #@! TO.C,U6*
X117254880Y-74778095D02*
X118064404Y-74778095D01*
X118159642Y-74825714D01*
X118207261Y-74873333D01*
X118254880Y-74968571D01*
X118254880Y-75159047D01*
X118207261Y-75254285D01*
X118159642Y-75301904D01*
X118064404Y-75349523D01*
X117254880Y-75349523D01*
X117254880Y-76254285D02*
X117254880Y-76063809D01*
X117302500Y-75968571D01*
X117350119Y-75920952D01*
X117492976Y-75825714D01*
X117683452Y-75778095D01*
X118064404Y-75778095D01*
X118159642Y-75825714D01*
X118207261Y-75873333D01*
X118254880Y-75968571D01*
X118254880Y-76159047D01*
X118207261Y-76254285D01*
X118159642Y-76301904D01*
X118064404Y-76349523D01*
X117826309Y-76349523D01*
X117731071Y-76301904D01*
X117683452Y-76254285D01*
X117635833Y-76159047D01*
X117635833Y-75968571D01*
X117683452Y-75873333D01*
X117731071Y-75825714D01*
X117826309Y-75778095D01*
G04 #@! TO.C,U7*
X117254880Y-65002143D02*
X118064404Y-65002143D01*
X118159642Y-65049762D01*
X118207261Y-65097381D01*
X118254880Y-65192619D01*
X118254880Y-65383095D01*
X118207261Y-65478333D01*
X118159642Y-65525952D01*
X118064404Y-65573571D01*
X117254880Y-65573571D01*
X117254880Y-65954524D02*
X117254880Y-66621190D01*
X118254880Y-66192619D01*
G04 #@! TO.C,C15*
X153964101Y-75370356D02*
X154011720Y-75417975D01*
X154154577Y-75465594D01*
X154249815Y-75465594D01*
X154392672Y-75417975D01*
X154487910Y-75322737D01*
X154535529Y-75227499D01*
X154583148Y-75037023D01*
X154583148Y-74894166D01*
X154535529Y-74703690D01*
X154487910Y-74608452D01*
X154392672Y-74513214D01*
X154249815Y-74465594D01*
X154154577Y-74465594D01*
X154011720Y-74513214D01*
X153964101Y-74560833D01*
X153011720Y-75465594D02*
X153583148Y-75465594D01*
X153297434Y-75465594D02*
X153297434Y-74465594D01*
X153392672Y-74608452D01*
X153487910Y-74703690D01*
X153583148Y-74751309D01*
X152106958Y-74465594D02*
X152583148Y-74465594D01*
X152630767Y-74941785D01*
X152583148Y-74894166D01*
X152487910Y-74846547D01*
X152249815Y-74846547D01*
X152154577Y-74894166D01*
X152106958Y-74941785D01*
X152059339Y-75037023D01*
X152059339Y-75275118D01*
X152106958Y-75370356D01*
X152154577Y-75417975D01*
X152249815Y-75465594D01*
X152487910Y-75465594D01*
X152583148Y-75417975D01*
X152630767Y-75370356D01*
G04 #@! TO.C,R16*
X140044101Y-86525594D02*
X140377434Y-86049404D01*
X140615529Y-86525594D02*
X140615529Y-85525594D01*
X140234577Y-85525594D01*
X140139339Y-85573214D01*
X140091720Y-85620833D01*
X140044101Y-85716071D01*
X140044101Y-85858928D01*
X140091720Y-85954166D01*
X140139339Y-86001785D01*
X140234577Y-86049404D01*
X140615529Y-86049404D01*
X139091720Y-86525594D02*
X139663148Y-86525594D01*
X139377434Y-86525594D02*
X139377434Y-85525594D01*
X139472672Y-85668452D01*
X139567910Y-85763690D01*
X139663148Y-85811309D01*
X138234577Y-85525594D02*
X138425053Y-85525594D01*
X138520291Y-85573214D01*
X138567910Y-85620833D01*
X138663148Y-85763690D01*
X138710767Y-85954166D01*
X138710767Y-86335118D01*
X138663148Y-86430356D01*
X138615529Y-86477975D01*
X138520291Y-86525594D01*
X138329815Y-86525594D01*
X138234577Y-86477975D01*
X138186958Y-86430356D01*
X138139339Y-86335118D01*
X138139339Y-86097023D01*
X138186958Y-86001785D01*
X138234577Y-85954166D01*
X138329815Y-85906547D01*
X138520291Y-85906547D01*
X138615529Y-85954166D01*
X138663148Y-86001785D01*
X138710767Y-86097023D01*
G04 #@! TO.C,R17*
X140044101Y-80525594D02*
X140377434Y-80049404D01*
X140615529Y-80525594D02*
X140615529Y-79525594D01*
X140234577Y-79525594D01*
X140139339Y-79573214D01*
X140091720Y-79620833D01*
X140044101Y-79716071D01*
X140044101Y-79858928D01*
X140091720Y-79954166D01*
X140139339Y-80001785D01*
X140234577Y-80049404D01*
X140615529Y-80049404D01*
X139091720Y-80525594D02*
X139663148Y-80525594D01*
X139377434Y-80525594D02*
X139377434Y-79525594D01*
X139472672Y-79668452D01*
X139567910Y-79763690D01*
X139663148Y-79811309D01*
X138758386Y-79525594D02*
X138091720Y-79525594D01*
X138520291Y-80525594D01*
G04 #@! TO.C,R18*
X140044101Y-74525594D02*
X140377434Y-74049404D01*
X140615529Y-74525594D02*
X140615529Y-73525594D01*
X140234577Y-73525594D01*
X140139339Y-73573214D01*
X140091720Y-73620833D01*
X140044101Y-73716071D01*
X140044101Y-73858928D01*
X140091720Y-73954166D01*
X140139339Y-74001785D01*
X140234577Y-74049404D01*
X140615529Y-74049404D01*
X139091720Y-74525594D02*
X139663148Y-74525594D01*
X139377434Y-74525594D02*
X139377434Y-73525594D01*
X139472672Y-73668452D01*
X139567910Y-73763690D01*
X139663148Y-73811309D01*
X138520291Y-73954166D02*
X138615529Y-73906547D01*
X138663148Y-73858928D01*
X138710767Y-73763690D01*
X138710767Y-73716071D01*
X138663148Y-73620833D01*
X138615529Y-73573214D01*
X138520291Y-73525594D01*
X138329815Y-73525594D01*
X138234577Y-73573214D01*
X138186958Y-73620833D01*
X138139339Y-73716071D01*
X138139339Y-73763690D01*
X138186958Y-73858928D01*
X138234577Y-73906547D01*
X138329815Y-73954166D01*
X138520291Y-73954166D01*
X138615529Y-74001785D01*
X138663148Y-74049404D01*
X138710767Y-74144642D01*
X138710767Y-74335118D01*
X138663148Y-74430356D01*
X138615529Y-74477975D01*
X138520291Y-74525594D01*
X138329815Y-74525594D01*
X138234577Y-74477975D01*
X138186958Y-74430356D01*
X138139339Y-74335118D01*
X138139339Y-74144642D01*
X138186958Y-74049404D01*
X138234577Y-74001785D01*
X138329815Y-73954166D01*
G04 #@! TO.C,L2*
X139166666Y-89632380D02*
X139642857Y-89632380D01*
X139642857Y-88632380D01*
X138880952Y-88727619D02*
X138833333Y-88680000D01*
X138738095Y-88632380D01*
X138500000Y-88632380D01*
X138404761Y-88680000D01*
X138357142Y-88727619D01*
X138309523Y-88822857D01*
X138309523Y-88918095D01*
X138357142Y-89060952D01*
X138928571Y-89632380D01*
X138309523Y-89632380D01*
G04 #@! TO.C,R13*
X129602380Y-84357142D02*
X129126190Y-84023809D01*
X129602380Y-83785714D02*
X128602380Y-83785714D01*
X128602380Y-84166666D01*
X128650000Y-84261904D01*
X128697619Y-84309523D01*
X128792857Y-84357142D01*
X128935714Y-84357142D01*
X129030952Y-84309523D01*
X129078571Y-84261904D01*
X129126190Y-84166666D01*
X129126190Y-83785714D01*
X129602380Y-85309523D02*
X129602380Y-84738095D01*
X129602380Y-85023809D02*
X128602380Y-85023809D01*
X128745238Y-84928571D01*
X128840476Y-84833333D01*
X128888095Y-84738095D01*
X128602380Y-85642857D02*
X128602380Y-86261904D01*
X128983333Y-85928571D01*
X128983333Y-86071428D01*
X129030952Y-86166666D01*
X129078571Y-86214285D01*
X129173809Y-86261904D01*
X129411904Y-86261904D01*
X129507142Y-86214285D01*
X129554761Y-86166666D01*
X129602380Y-86071428D01*
X129602380Y-85785714D01*
X129554761Y-85690476D01*
X129507142Y-85642857D01*
G04 #@! TO.C,R14*
X129602380Y-75357142D02*
X129126190Y-75023809D01*
X129602380Y-74785714D02*
X128602380Y-74785714D01*
X128602380Y-75166666D01*
X128650000Y-75261904D01*
X128697619Y-75309523D01*
X128792857Y-75357142D01*
X128935714Y-75357142D01*
X129030952Y-75309523D01*
X129078571Y-75261904D01*
X129126190Y-75166666D01*
X129126190Y-74785714D01*
X129602380Y-76309523D02*
X129602380Y-75738095D01*
X129602380Y-76023809D02*
X128602380Y-76023809D01*
X128745238Y-75928571D01*
X128840476Y-75833333D01*
X128888095Y-75738095D01*
X128935714Y-77166666D02*
X129602380Y-77166666D01*
X128554761Y-76928571D02*
X129269047Y-76690476D01*
X129269047Y-77309523D01*
G04 #@! TO.C,R15*
X129602380Y-66357142D02*
X129126190Y-66023809D01*
X129602380Y-65785714D02*
X128602380Y-65785714D01*
X128602380Y-66166666D01*
X128650000Y-66261904D01*
X128697619Y-66309523D01*
X128792857Y-66357142D01*
X128935714Y-66357142D01*
X129030952Y-66309523D01*
X129078571Y-66261904D01*
X129126190Y-66166666D01*
X129126190Y-65785714D01*
X129602380Y-67309523D02*
X129602380Y-66738095D01*
X129602380Y-67023809D02*
X128602380Y-67023809D01*
X128745238Y-66928571D01*
X128840476Y-66833333D01*
X128888095Y-66738095D01*
X128602380Y-68214285D02*
X128602380Y-67738095D01*
X129078571Y-67690476D01*
X129030952Y-67738095D01*
X128983333Y-67833333D01*
X128983333Y-68071428D01*
X129030952Y-68166666D01*
X129078571Y-68214285D01*
X129173809Y-68261904D01*
X129411904Y-68261904D01*
X129507142Y-68214285D01*
X129554761Y-68166666D01*
X129602380Y-68071428D01*
X129602380Y-67833333D01*
X129554761Y-67738095D01*
X129507142Y-67690476D01*
G04 #@! TO.C,U3*
X160761904Y-95952380D02*
X160761904Y-96761904D01*
X160714285Y-96857142D01*
X160666666Y-96904761D01*
X160571428Y-96952380D01*
X160380952Y-96952380D01*
X160285714Y-96904761D01*
X160238095Y-96857142D01*
X160190476Y-96761904D01*
X160190476Y-95952380D01*
X159809523Y-95952380D02*
X159190476Y-95952380D01*
X159523809Y-96333333D01*
X159380952Y-96333333D01*
X159285714Y-96380952D01*
X159238095Y-96428571D01*
X159190476Y-96523809D01*
X159190476Y-96761904D01*
X159238095Y-96857142D01*
X159285714Y-96904761D01*
X159380952Y-96952380D01*
X159666666Y-96952380D01*
X159761904Y-96904761D01*
X159809523Y-96857142D01*
G04 #@! TO.C,C7*
X160166666Y-97897142D02*
X160214285Y-97944761D01*
X160357142Y-97992380D01*
X160452380Y-97992380D01*
X160595238Y-97944761D01*
X160690476Y-97849523D01*
X160738095Y-97754285D01*
X160785714Y-97563809D01*
X160785714Y-97420952D01*
X160738095Y-97230476D01*
X160690476Y-97135238D01*
X160595238Y-97040000D01*
X160452380Y-96992380D01*
X160357142Y-96992380D01*
X160214285Y-97040000D01*
X160166666Y-97087619D01*
X159833333Y-96992380D02*
X159166666Y-96992380D01*
X159595238Y-97992380D01*
X163150952Y-96081428D02*
X162389047Y-96081428D01*
X162770000Y-96462380D02*
X162770000Y-95700476D01*
G04 #@! TO.C,U12*
X135238095Y-125952380D02*
X135238095Y-126761904D01*
X135190476Y-126857142D01*
X135142857Y-126904761D01*
X135047619Y-126952380D01*
X134857142Y-126952380D01*
X134761904Y-126904761D01*
X134714285Y-126857142D01*
X134666666Y-126761904D01*
X134666666Y-125952380D01*
X133666666Y-126952380D02*
X134238095Y-126952380D01*
X133952380Y-126952380D02*
X133952380Y-125952380D01*
X134047619Y-126095238D01*
X134142857Y-126190476D01*
X134238095Y-126238095D01*
X133285714Y-126047619D02*
X133238095Y-126000000D01*
X133142857Y-125952380D01*
X132904761Y-125952380D01*
X132809523Y-126000000D01*
X132761904Y-126047619D01*
X132714285Y-126142857D01*
X132714285Y-126238095D01*
X132761904Y-126380952D01*
X133333333Y-126952380D01*
X132714285Y-126952380D01*
G04 #@! TO.C,C9*
X162666666Y-105817142D02*
X162714285Y-105864761D01*
X162857142Y-105912380D01*
X162952380Y-105912380D01*
X163095238Y-105864761D01*
X163190476Y-105769523D01*
X163238095Y-105674285D01*
X163285714Y-105483809D01*
X163285714Y-105340952D01*
X163238095Y-105150476D01*
X163190476Y-105055238D01*
X163095238Y-104960000D01*
X162952380Y-104912380D01*
X162857142Y-104912380D01*
X162714285Y-104960000D01*
X162666666Y-105007619D01*
X162190476Y-105912380D02*
X162000000Y-105912380D01*
X161904761Y-105864761D01*
X161857142Y-105817142D01*
X161761904Y-105674285D01*
X161714285Y-105483809D01*
X161714285Y-105102857D01*
X161761904Y-105007619D01*
X161809523Y-104960000D01*
X161904761Y-104912380D01*
X162095238Y-104912380D01*
X162190476Y-104960000D01*
X162238095Y-105007619D01*
X162285714Y-105102857D01*
X162285714Y-105340952D01*
X162238095Y-105436190D01*
X162190476Y-105483809D01*
X162095238Y-105531428D01*
X161904761Y-105531428D01*
X161809523Y-105483809D01*
X161761904Y-105436190D01*
X161714285Y-105340952D01*
X160110952Y-107061428D02*
X159349047Y-107061428D01*
X159730000Y-107442380D02*
X159730000Y-106680476D01*
G04 #@! TO.C,F1*
X159928571Y-72666666D02*
X159928571Y-72333333D01*
X160452380Y-72333333D02*
X159452380Y-72333333D01*
X159452380Y-72809523D01*
X160452380Y-73714285D02*
X160452380Y-73142857D01*
X160452380Y-73428571D02*
X159452380Y-73428571D01*
X159595238Y-73333333D01*
X159690476Y-73238095D01*
X159738095Y-73142857D01*
G04 #@! TD*
M02*
