G04 #@! TF.GenerationSoftware,KiCad,Pcbnew,5.0.0-rc2-unknown-bfa8903~65~ubuntu16.04.1*
G04 #@! TF.CreationDate,2018-06-03T14:39:05-05:00*
G04 #@! TF.ProjectId,omega-dock-new,6F6D6567612D646F636B2D6E65772E6B,rev?*
G04 #@! TF.SameCoordinates,Original*
G04 #@! TF.FileFunction,Other,User*
%FSLAX46Y46*%
G04 Gerber Fmt 4.6, Leading zero omitted, Abs format (unit mm)*
G04 Created by KiCad (PCBNEW 5.0.0-rc2-unknown-bfa8903~65~ubuntu16.04.1) date Sun Jun  3 14:39:05 2018*
%MOMM*%
%LPD*%
G01*
G04 APERTURE LIST*
%ADD10C,0.050000*%
G04 APERTURE END LIST*
D10*
G04 #@! TO.C,C6*
X152000000Y-94000000D02*
G75*
G03X152000000Y-94000000I-4250000J0D01*
G01*
G04 #@! TO.C,C8*
X152140000Y-90000000D02*
X152140000Y-88000000D01*
X152140000Y-88000000D02*
X155860000Y-88000000D01*
X155860000Y-88000000D02*
X155860000Y-90000000D01*
X155860000Y-90000000D02*
X152140000Y-90000000D01*
G04 #@! TO.C,C10*
X164700000Y-97400000D02*
X155300000Y-97400000D01*
X164700000Y-97400000D02*
X164700000Y-90600000D01*
X155300000Y-90600000D02*
X155300000Y-97400000D01*
X155300000Y-90600000D02*
X164700000Y-90600000D01*
G04 #@! TO.C,U8*
X128400000Y-88600000D02*
X128400000Y-81400000D01*
X128400000Y-81400000D02*
X119600000Y-81400000D01*
X119600000Y-81400000D02*
X119600000Y-88600000D01*
X119600000Y-88600000D02*
X128400000Y-88600000D01*
G04 #@! TO.C,U9*
X119600000Y-78600000D02*
X128400000Y-78600000D01*
X119600000Y-71400000D02*
X119600000Y-78600000D01*
X128400000Y-71400000D02*
X119600000Y-71400000D01*
X128400000Y-78600000D02*
X128400000Y-71400000D01*
G04 #@! TO.C,U10*
X119600000Y-68600000D02*
X128400000Y-68600000D01*
X119600000Y-61400000D02*
X119600000Y-68600000D01*
X128400000Y-61400000D02*
X119600000Y-61400000D01*
X128400000Y-68600000D02*
X128400000Y-61400000D01*
G04 #@! TO.C,C5*
X152000000Y-103000000D02*
G75*
G03X152000000Y-103000000I-4250000J0D01*
G01*
G04 #@! TO.C,L3*
X165000000Y-93140000D02*
X167000000Y-93140000D01*
X167000000Y-93140000D02*
X167000000Y-96860000D01*
X167000000Y-96860000D02*
X165000000Y-96860000D01*
X165000000Y-96860000D02*
X165000000Y-93140000D01*
G04 #@! TO.C,R1*
X121860000Y-103500000D02*
X118140000Y-103500000D01*
X121860000Y-101500000D02*
X121860000Y-103500000D01*
X118140000Y-101500000D02*
X121860000Y-101500000D01*
X118140000Y-103500000D02*
X118140000Y-101500000D01*
G04 #@! TO.C,R2*
X118182500Y-100500000D02*
X118182500Y-98500000D01*
X118182500Y-98500000D02*
X121902500Y-98500000D01*
X121902500Y-98500000D02*
X121902500Y-100500000D01*
X121902500Y-100500000D02*
X118182500Y-100500000D01*
G04 #@! TO.C,R3*
X118140000Y-97500000D02*
X118140000Y-95500000D01*
X118140000Y-95500000D02*
X121860000Y-95500000D01*
X121860000Y-95500000D02*
X121860000Y-97500000D01*
X121860000Y-97500000D02*
X118140000Y-97500000D01*
G04 #@! TO.C,C11*
X166700000Y-105400000D02*
X157300000Y-105400000D01*
X166700000Y-105400000D02*
X166700000Y-98600000D01*
X157300000Y-98600000D02*
X157300000Y-105400000D01*
X157300000Y-98600000D02*
X166700000Y-98600000D01*
G04 #@! TO.C,C12*
X162460000Y-107350000D02*
X162460000Y-109650000D01*
X162460000Y-109650000D02*
X157540000Y-109650000D01*
X157540000Y-109650000D02*
X157540000Y-107350000D01*
X157540000Y-107350000D02*
X162460000Y-107350000D01*
G04 #@! TO.C,R4*
X147870000Y-129710000D02*
X147870000Y-125990000D01*
X149870000Y-129710000D02*
X147870000Y-129710000D01*
X149870000Y-125990000D02*
X149870000Y-129710000D01*
X147870000Y-125990000D02*
X149870000Y-125990000D01*
G04 #@! TO.C,R5*
X144850000Y-126010000D02*
X146850000Y-126010000D01*
X146850000Y-126010000D02*
X146850000Y-129730000D01*
X146850000Y-129730000D02*
X144850000Y-129730000D01*
X144850000Y-129730000D02*
X144850000Y-126010000D01*
G04 #@! TO.C,R6*
X158317500Y-119000000D02*
X154597500Y-119000000D01*
X158317500Y-117000000D02*
X158317500Y-119000000D01*
X154597500Y-117000000D02*
X158317500Y-117000000D01*
X154597500Y-119000000D02*
X154597500Y-117000000D01*
G04 #@! TO.C,R7*
X154597500Y-124000000D02*
X154597500Y-122000000D01*
X154597500Y-122000000D02*
X158317500Y-122000000D01*
X158317500Y-122000000D02*
X158317500Y-124000000D01*
X158317500Y-124000000D02*
X154597500Y-124000000D01*
G04 #@! TO.C,J2*
X159600000Y-125950000D02*
X172100000Y-125950000D01*
X172100000Y-125950000D02*
X172100000Y-112550000D01*
X172100000Y-112550000D02*
X159600000Y-112550000D01*
X159600000Y-112550000D02*
X159600000Y-125950000D01*
G04 #@! TO.C,BT1*
X130185482Y-124329018D02*
G75*
G03X134210000Y-125660000I4024518J5419018D01*
G01*
X138234710Y-124342858D02*
G75*
G02X138430000Y-124560000I-3914710J-3717142D01*
G01*
X130185612Y-124330960D02*
G75*
G03X129990000Y-124560000I4134388J-3729040D01*
G01*
X138234518Y-124329018D02*
G75*
G02X134210000Y-125660000I-4024518J5419018D01*
G01*
X141460000Y-122960000D02*
G75*
G02X139510000Y-125010000I-2000000J-50000D01*
G01*
X139723125Y-124992435D02*
G75*
G02X138430000Y-124560000I-223125J1482435D01*
G01*
X128696875Y-124992435D02*
G75*
G03X129990000Y-124560000I223125J1482435D01*
G01*
X126960000Y-122960000D02*
G75*
G03X128910000Y-125010000I2000000J-50000D01*
G01*
X126960000Y-121060000D02*
X126960000Y-123010000D01*
X141460000Y-121060000D02*
X141460000Y-123010000D01*
X141460000Y-116760000D02*
X141460000Y-115110000D01*
X141460000Y-115110000D02*
X138860000Y-112510000D01*
X138860000Y-112510000D02*
X138860000Y-111560000D01*
X129560000Y-111560000D02*
X138860000Y-111560000D01*
X129560000Y-112510000D02*
X129560000Y-111560000D01*
X126960000Y-115110000D02*
X129560000Y-112510000D01*
X126960000Y-116760000D02*
X126960000Y-115110000D01*
X126960000Y-116760000D02*
X124060000Y-116760000D01*
X124060000Y-116760000D02*
X124060000Y-121060000D01*
X124060000Y-121060000D02*
X126960000Y-121060000D01*
X141460000Y-116760000D02*
X144360000Y-116760000D01*
X144360000Y-116760000D02*
X144360000Y-121060000D01*
X144360000Y-121060000D02*
X141460000Y-121060000D01*
G04 #@! TO.C,Y1*
X148820000Y-125850000D02*
X148820000Y-110750000D01*
X148820000Y-110750000D02*
X144220000Y-110750000D01*
X144220000Y-110750000D02*
X144220000Y-125850000D01*
X144220000Y-125850000D02*
X148820000Y-125850000D01*
G04 #@! TO.C,D6*
X112630000Y-106170000D02*
X112630000Y-104810000D01*
X112630000Y-104810000D02*
X115950000Y-104810000D01*
X115950000Y-104810000D02*
X115950000Y-106170000D01*
X115950000Y-106170000D02*
X112630000Y-106170000D01*
G04 #@! TO.C,R22*
X121827500Y-104550000D02*
X121827500Y-106450000D01*
X121827500Y-106450000D02*
X118107500Y-106450000D01*
X118107500Y-106450000D02*
X118107500Y-104550000D01*
X118107500Y-104550000D02*
X121827500Y-104550000D01*
G04 #@! TO.C,D1*
X115960000Y-101820000D02*
X115960000Y-103180000D01*
X115960000Y-103180000D02*
X112640000Y-103180000D01*
X112640000Y-103180000D02*
X112640000Y-101820000D01*
X112640000Y-101820000D02*
X115960000Y-101820000D01*
G04 #@! TO.C,D2*
X112640000Y-98820000D02*
X115960000Y-98820000D01*
X112640000Y-100180000D02*
X112640000Y-98820000D01*
X115960000Y-100180000D02*
X112640000Y-100180000D01*
X115960000Y-98820000D02*
X115960000Y-100180000D01*
G04 #@! TO.C,D3*
X115960000Y-95820000D02*
X115960000Y-97180000D01*
X115960000Y-97180000D02*
X112640000Y-97180000D01*
X112640000Y-97180000D02*
X112640000Y-95820000D01*
X112640000Y-95820000D02*
X115960000Y-95820000D01*
G04 #@! TO.C,R19*
X123140000Y-105450000D02*
X123140000Y-103550000D01*
X123140000Y-103550000D02*
X126860000Y-103550000D01*
X126860000Y-103550000D02*
X126860000Y-105450000D01*
X126860000Y-105450000D02*
X123140000Y-105450000D01*
G04 #@! TO.C,C1*
X132550000Y-101210000D02*
X140450000Y-101210000D01*
X132550000Y-101210000D02*
X132550000Y-106740000D01*
X140450000Y-106740000D02*
X140450000Y-101210000D01*
X140450000Y-106740000D02*
X132550000Y-106740000D01*
G04 #@! TO.C,R20*
X127672500Y-105450000D02*
X127672500Y-103550000D01*
X127672500Y-103550000D02*
X131392500Y-103550000D01*
X131392500Y-103550000D02*
X131392500Y-105450000D01*
X131392500Y-105450000D02*
X127672500Y-105450000D01*
G04 #@! TO.C,R21*
X138392500Y-100450000D02*
X134672500Y-100450000D01*
X138392500Y-98550000D02*
X138392500Y-100450000D01*
X134672500Y-98550000D02*
X138392500Y-98550000D01*
X134672500Y-100450000D02*
X134672500Y-98550000D01*
G04 #@! TO.C,REF\002A\002A*
X118750000Y-89000000D02*
G75*
G03X118750000Y-89000000I-2750000J0D01*
G01*
X136250000Y-62000000D02*
G75*
G03X136250000Y-62000000I-2750000J0D01*
G01*
X158750000Y-137500000D02*
G75*
G03X158750000Y-137500000I-2750000J0D01*
G01*
G04 #@! TO.C,D4*
X112630000Y-109200000D02*
X112630000Y-107840000D01*
X112630000Y-107840000D02*
X115950000Y-107840000D01*
X115950000Y-107840000D02*
X115950000Y-109200000D01*
X115950000Y-109200000D02*
X112630000Y-109200000D01*
G04 #@! TO.C,R8*
X118950000Y-111360000D02*
X117050000Y-111360000D01*
X117050000Y-111360000D02*
X117050000Y-107640000D01*
X117050000Y-107640000D02*
X118950000Y-107640000D01*
X118950000Y-107640000D02*
X118950000Y-111360000D01*
G04 #@! TO.C,R23*
X115107500Y-131950000D02*
X115107500Y-130050000D01*
X115107500Y-130050000D02*
X118827500Y-130050000D01*
X118827500Y-130050000D02*
X118827500Y-131950000D01*
X118827500Y-131950000D02*
X115107500Y-131950000D01*
G04 #@! TO.C,SW1*
X117250000Y-120457500D02*
X111750000Y-120457500D01*
X117250000Y-128257500D02*
X111750000Y-128257500D01*
X117250000Y-120457500D02*
X117250000Y-128257500D01*
X111750000Y-120457500D02*
X111750000Y-128257500D01*
G04 #@! TO.C,D7*
X112665000Y-112280000D02*
X112665000Y-110920000D01*
X112665000Y-110920000D02*
X115985000Y-110920000D01*
X115985000Y-110920000D02*
X115985000Y-112280000D01*
X115985000Y-112280000D02*
X112665000Y-112280000D01*
G04 #@! TO.C,R24*
X118250000Y-115952500D02*
X116350000Y-115952500D01*
X116350000Y-115952500D02*
X116350000Y-112232500D01*
X116350000Y-112232500D02*
X118250000Y-112232500D01*
X118250000Y-112232500D02*
X118250000Y-115952500D01*
G04 #@! TO.C,GPIO*
X148250000Y-137500000D02*
G75*
G03X148250000Y-137500000I-1250000J0D01*
G01*
G04 #@! TO.C,VT*
X132750000Y-107140000D02*
G75*
G03X132750000Y-107140000I-1250000J0D01*
G01*
G04 #@! TO.C,P1*
X157550000Y-64750000D02*
X157550000Y-54750000D01*
X157550000Y-54750000D02*
X136650000Y-54750000D01*
X136650000Y-54750000D02*
X136650000Y-64750000D01*
X136650000Y-64750000D02*
X157550000Y-64750000D01*
G04 #@! TO.C,J1*
X159680000Y-138440000D02*
X172180000Y-138440000D01*
X172180000Y-138440000D02*
X172180000Y-127540000D01*
X172180000Y-127540000D02*
X159680000Y-127540000D01*
X159680000Y-127540000D02*
X159680000Y-138440000D01*
G04 #@! TD*
M02*
