G04 #@! TF.GenerationSoftware,KiCad,Pcbnew,5.0.0-rc2-unknown-bfa8903~65~ubuntu16.04.1*
G04 #@! TF.CreationDate,2018-06-03T14:39:05-05:00*
G04 #@! TF.ProjectId,omega-dock-new,6F6D6567612D646F636B2D6E65772E6B,rev?*
G04 #@! TF.SameCoordinates,Original*
G04 #@! TF.FileFunction,Legend,Top*
G04 #@! TF.FilePolarity,Positive*
%FSLAX46Y46*%
G04 Gerber Fmt 4.6, Leading zero omitted, Abs format (unit mm)*
G04 Created by KiCad (PCBNEW 5.0.0-rc2-unknown-bfa8903~65~ubuntu16.04.1) date Sun Jun  3 14:39:05 2018*
%MOMM*%
%LPD*%
G01*
G04 APERTURE LIST*
%ADD10C,0.300000*%
%ADD11C,0.120000*%
%ADD12C,0.150000*%
G04 APERTURE END LIST*
D10*
X119714285Y-138257142D02*
X119928571Y-138328571D01*
X120285714Y-138328571D01*
X120428571Y-138257142D01*
X120500000Y-138185714D01*
X120571428Y-138042857D01*
X120571428Y-137900000D01*
X120500000Y-137757142D01*
X120428571Y-137685714D01*
X120285714Y-137614285D01*
X120000000Y-137542857D01*
X119857142Y-137471428D01*
X119785714Y-137400000D01*
X119714285Y-137257142D01*
X119714285Y-137114285D01*
X119785714Y-136971428D01*
X119857142Y-136900000D01*
X120000000Y-136828571D01*
X120357142Y-136828571D01*
X120571428Y-136900000D01*
X122071428Y-138185714D02*
X122000000Y-138257142D01*
X121785714Y-138328571D01*
X121642857Y-138328571D01*
X121428571Y-138257142D01*
X121285714Y-138114285D01*
X121214285Y-137971428D01*
X121142857Y-137685714D01*
X121142857Y-137471428D01*
X121214285Y-137185714D01*
X121285714Y-137042857D01*
X121428571Y-136900000D01*
X121642857Y-136828571D01*
X121785714Y-136828571D01*
X122000000Y-136900000D01*
X122071428Y-136971428D01*
X123571428Y-138328571D02*
X123071428Y-137614285D01*
X122714285Y-138328571D02*
X122714285Y-136828571D01*
X123285714Y-136828571D01*
X123428571Y-136900000D01*
X123500000Y-136971428D01*
X123571428Y-137114285D01*
X123571428Y-137328571D01*
X123500000Y-137471428D01*
X123428571Y-137542857D01*
X123285714Y-137614285D01*
X122714285Y-137614285D01*
X124500000Y-136828571D02*
X124642857Y-136828571D01*
X124785714Y-136900000D01*
X124857142Y-136971428D01*
X124928571Y-137114285D01*
X125000000Y-137400000D01*
X125000000Y-137757142D01*
X124928571Y-138042857D01*
X124857142Y-138185714D01*
X124785714Y-138257142D01*
X124642857Y-138328571D01*
X124500000Y-138328571D01*
X124357142Y-138257142D01*
X124285714Y-138185714D01*
X124214285Y-138042857D01*
X124142857Y-137757142D01*
X124142857Y-137400000D01*
X124214285Y-137114285D01*
X124285714Y-136971428D01*
X124357142Y-136900000D01*
X124500000Y-136828571D01*
X126285714Y-137328571D02*
X126285714Y-138328571D01*
X125928571Y-136757142D02*
X125571428Y-137828571D01*
X126500000Y-137828571D01*
X127857142Y-138328571D02*
X127000000Y-138328571D01*
X127428571Y-138328571D02*
X127428571Y-136828571D01*
X127285714Y-137042857D01*
X127142857Y-137185714D01*
X127000000Y-137257142D01*
X128714285Y-137471428D02*
X128571428Y-137400000D01*
X128500000Y-137328571D01*
X128428571Y-137185714D01*
X128428571Y-137114285D01*
X128500000Y-136971428D01*
X128571428Y-136900000D01*
X128714285Y-136828571D01*
X129000000Y-136828571D01*
X129142857Y-136900000D01*
X129214285Y-136971428D01*
X129285714Y-137114285D01*
X129285714Y-137185714D01*
X129214285Y-137328571D01*
X129142857Y-137400000D01*
X129000000Y-137471428D01*
X128714285Y-137471428D01*
X128571428Y-137542857D01*
X128500000Y-137614285D01*
X128428571Y-137757142D01*
X128428571Y-138042857D01*
X128500000Y-138185714D01*
X128571428Y-138257142D01*
X128714285Y-138328571D01*
X129000000Y-138328571D01*
X129142857Y-138257142D01*
X129214285Y-138185714D01*
X129285714Y-138042857D01*
X129285714Y-137757142D01*
X129214285Y-137614285D01*
X129142857Y-137542857D01*
X129000000Y-137471428D01*
X129714285Y-136828571D02*
X130214285Y-138328571D01*
X130714285Y-136828571D01*
X132000000Y-138328571D02*
X131142857Y-138328571D01*
X131571428Y-138328571D02*
X131571428Y-136828571D01*
X131428571Y-137042857D01*
X131285714Y-137185714D01*
X131142857Y-137257142D01*
X132642857Y-138185714D02*
X132714285Y-138257142D01*
X132642857Y-138328571D01*
X132571428Y-138257142D01*
X132642857Y-138185714D01*
X132642857Y-138328571D01*
X133642857Y-136828571D02*
X133785714Y-136828571D01*
X133928571Y-136900000D01*
X134000000Y-136971428D01*
X134071428Y-137114285D01*
X134142857Y-137400000D01*
X134142857Y-137757142D01*
X134071428Y-138042857D01*
X134000000Y-138185714D01*
X133928571Y-138257142D01*
X133785714Y-138328571D01*
X133642857Y-138328571D01*
X133500000Y-138257142D01*
X133428571Y-138185714D01*
X133357142Y-138042857D01*
X133285714Y-137757142D01*
X133285714Y-137400000D01*
X133357142Y-137114285D01*
X133428571Y-136971428D01*
X133500000Y-136900000D01*
X133642857Y-136828571D01*
X134785714Y-138185714D02*
X134857142Y-138257142D01*
X134785714Y-138328571D01*
X134714285Y-138257142D01*
X134785714Y-138185714D01*
X134785714Y-138328571D01*
X135785714Y-136828571D02*
X135928571Y-136828571D01*
X136071428Y-136900000D01*
X136142857Y-136971428D01*
X136214285Y-137114285D01*
X136285714Y-137400000D01*
X136285714Y-137757142D01*
X136214285Y-138042857D01*
X136142857Y-138185714D01*
X136071428Y-138257142D01*
X135928571Y-138328571D01*
X135785714Y-138328571D01*
X135642857Y-138257142D01*
X135571428Y-138185714D01*
X135500000Y-138042857D01*
X135428571Y-137757142D01*
X135428571Y-137400000D01*
X135500000Y-137114285D01*
X135571428Y-136971428D01*
X135642857Y-136900000D01*
X135785714Y-136828571D01*
X117821428Y-123678571D02*
X118535714Y-123178571D01*
X117821428Y-122821428D02*
X119321428Y-122821428D01*
X119321428Y-123392857D01*
X119250000Y-123535714D01*
X119178571Y-123607142D01*
X119035714Y-123678571D01*
X118821428Y-123678571D01*
X118678571Y-123607142D01*
X118607142Y-123535714D01*
X118535714Y-123392857D01*
X118535714Y-122821428D01*
X117892857Y-124250000D02*
X117821428Y-124464285D01*
X117821428Y-124821428D01*
X117892857Y-124964285D01*
X117964285Y-125035714D01*
X118107142Y-125107142D01*
X118250000Y-125107142D01*
X118392857Y-125035714D01*
X118464285Y-124964285D01*
X118535714Y-124821428D01*
X118607142Y-124535714D01*
X118678571Y-124392857D01*
X118750000Y-124321428D01*
X118892857Y-124250000D01*
X119035714Y-124250000D01*
X119178571Y-124321428D01*
X119250000Y-124392857D01*
X119321428Y-124535714D01*
X119321428Y-124892857D01*
X119250000Y-125107142D01*
X119321428Y-125535714D02*
X119321428Y-126392857D01*
X117821428Y-125964285D02*
X119321428Y-125964285D01*
D11*
G04 #@! TO.C,C6*
X151870000Y-94000000D02*
G75*
G03X151870000Y-94000000I-4120000J0D01*
G01*
X147750000Y-89920000D02*
X147750000Y-98080000D01*
X147790000Y-89920000D02*
X147790000Y-98080000D01*
X147830000Y-89920000D02*
X147830000Y-98080000D01*
X147870000Y-89921000D02*
X147870000Y-98079000D01*
X147910000Y-89923000D02*
X147910000Y-98077000D01*
X147950000Y-89924000D02*
X147950000Y-98076000D01*
X147990000Y-89926000D02*
X147990000Y-98074000D01*
X148030000Y-89929000D02*
X148030000Y-98071000D01*
X148070000Y-89932000D02*
X148070000Y-98068000D01*
X148110000Y-89935000D02*
X148110000Y-98065000D01*
X148150000Y-89939000D02*
X148150000Y-98061000D01*
X148190000Y-89943000D02*
X148190000Y-98057000D01*
X148230000Y-89948000D02*
X148230000Y-98052000D01*
X148270000Y-89952000D02*
X148270000Y-98048000D01*
X148310000Y-89958000D02*
X148310000Y-98042000D01*
X148350000Y-89963000D02*
X148350000Y-98037000D01*
X148390000Y-89970000D02*
X148390000Y-98030000D01*
X148430000Y-89976000D02*
X148430000Y-98024000D01*
X148471000Y-89983000D02*
X148471000Y-92960000D01*
X148471000Y-95040000D02*
X148471000Y-98017000D01*
X148511000Y-89990000D02*
X148511000Y-92960000D01*
X148511000Y-95040000D02*
X148511000Y-98010000D01*
X148551000Y-89998000D02*
X148551000Y-92960000D01*
X148551000Y-95040000D02*
X148551000Y-98002000D01*
X148591000Y-90006000D02*
X148591000Y-92960000D01*
X148591000Y-95040000D02*
X148591000Y-97994000D01*
X148631000Y-90015000D02*
X148631000Y-92960000D01*
X148631000Y-95040000D02*
X148631000Y-97985000D01*
X148671000Y-90024000D02*
X148671000Y-92960000D01*
X148671000Y-95040000D02*
X148671000Y-97976000D01*
X148711000Y-90033000D02*
X148711000Y-92960000D01*
X148711000Y-95040000D02*
X148711000Y-97967000D01*
X148751000Y-90043000D02*
X148751000Y-92960000D01*
X148751000Y-95040000D02*
X148751000Y-97957000D01*
X148791000Y-90053000D02*
X148791000Y-92960000D01*
X148791000Y-95040000D02*
X148791000Y-97947000D01*
X148831000Y-90064000D02*
X148831000Y-92960000D01*
X148831000Y-95040000D02*
X148831000Y-97936000D01*
X148871000Y-90075000D02*
X148871000Y-92960000D01*
X148871000Y-95040000D02*
X148871000Y-97925000D01*
X148911000Y-90086000D02*
X148911000Y-92960000D01*
X148911000Y-95040000D02*
X148911000Y-97914000D01*
X148951000Y-90098000D02*
X148951000Y-92960000D01*
X148951000Y-95040000D02*
X148951000Y-97902000D01*
X148991000Y-90111000D02*
X148991000Y-92960000D01*
X148991000Y-95040000D02*
X148991000Y-97889000D01*
X149031000Y-90123000D02*
X149031000Y-92960000D01*
X149031000Y-95040000D02*
X149031000Y-97877000D01*
X149071000Y-90137000D02*
X149071000Y-92960000D01*
X149071000Y-95040000D02*
X149071000Y-97863000D01*
X149111000Y-90150000D02*
X149111000Y-92960000D01*
X149111000Y-95040000D02*
X149111000Y-97850000D01*
X149151000Y-90165000D02*
X149151000Y-92960000D01*
X149151000Y-95040000D02*
X149151000Y-97835000D01*
X149191000Y-90179000D02*
X149191000Y-92960000D01*
X149191000Y-95040000D02*
X149191000Y-97821000D01*
X149231000Y-90195000D02*
X149231000Y-92960000D01*
X149231000Y-95040000D02*
X149231000Y-97805000D01*
X149271000Y-90210000D02*
X149271000Y-92960000D01*
X149271000Y-95040000D02*
X149271000Y-97790000D01*
X149311000Y-90226000D02*
X149311000Y-92960000D01*
X149311000Y-95040000D02*
X149311000Y-97774000D01*
X149351000Y-90243000D02*
X149351000Y-92960000D01*
X149351000Y-95040000D02*
X149351000Y-97757000D01*
X149391000Y-90260000D02*
X149391000Y-92960000D01*
X149391000Y-95040000D02*
X149391000Y-97740000D01*
X149431000Y-90278000D02*
X149431000Y-92960000D01*
X149431000Y-95040000D02*
X149431000Y-97722000D01*
X149471000Y-90296000D02*
X149471000Y-92960000D01*
X149471000Y-95040000D02*
X149471000Y-97704000D01*
X149511000Y-90314000D02*
X149511000Y-92960000D01*
X149511000Y-95040000D02*
X149511000Y-97686000D01*
X149551000Y-90334000D02*
X149551000Y-92960000D01*
X149551000Y-95040000D02*
X149551000Y-97666000D01*
X149591000Y-90353000D02*
X149591000Y-92960000D01*
X149591000Y-95040000D02*
X149591000Y-97647000D01*
X149631000Y-90373000D02*
X149631000Y-92960000D01*
X149631000Y-95040000D02*
X149631000Y-97627000D01*
X149671000Y-90394000D02*
X149671000Y-92960000D01*
X149671000Y-95040000D02*
X149671000Y-97606000D01*
X149711000Y-90416000D02*
X149711000Y-92960000D01*
X149711000Y-95040000D02*
X149711000Y-97584000D01*
X149751000Y-90438000D02*
X149751000Y-92960000D01*
X149751000Y-95040000D02*
X149751000Y-97562000D01*
X149791000Y-90460000D02*
X149791000Y-92960000D01*
X149791000Y-95040000D02*
X149791000Y-97540000D01*
X149831000Y-90483000D02*
X149831000Y-92960000D01*
X149831000Y-95040000D02*
X149831000Y-97517000D01*
X149871000Y-90507000D02*
X149871000Y-92960000D01*
X149871000Y-95040000D02*
X149871000Y-97493000D01*
X149911000Y-90531000D02*
X149911000Y-92960000D01*
X149911000Y-95040000D02*
X149911000Y-97469000D01*
X149951000Y-90556000D02*
X149951000Y-92960000D01*
X149951000Y-95040000D02*
X149951000Y-97444000D01*
X149991000Y-90582000D02*
X149991000Y-92960000D01*
X149991000Y-95040000D02*
X149991000Y-97418000D01*
X150031000Y-90608000D02*
X150031000Y-92960000D01*
X150031000Y-95040000D02*
X150031000Y-97392000D01*
X150071000Y-90635000D02*
X150071000Y-92960000D01*
X150071000Y-95040000D02*
X150071000Y-97365000D01*
X150111000Y-90662000D02*
X150111000Y-92960000D01*
X150111000Y-95040000D02*
X150111000Y-97338000D01*
X150151000Y-90691000D02*
X150151000Y-92960000D01*
X150151000Y-95040000D02*
X150151000Y-97309000D01*
X150191000Y-90720000D02*
X150191000Y-92960000D01*
X150191000Y-95040000D02*
X150191000Y-97280000D01*
X150231000Y-90750000D02*
X150231000Y-92960000D01*
X150231000Y-95040000D02*
X150231000Y-97250000D01*
X150271000Y-90780000D02*
X150271000Y-92960000D01*
X150271000Y-95040000D02*
X150271000Y-97220000D01*
X150311000Y-90811000D02*
X150311000Y-92960000D01*
X150311000Y-95040000D02*
X150311000Y-97189000D01*
X150351000Y-90844000D02*
X150351000Y-92960000D01*
X150351000Y-95040000D02*
X150351000Y-97156000D01*
X150391000Y-90876000D02*
X150391000Y-92960000D01*
X150391000Y-95040000D02*
X150391000Y-97124000D01*
X150431000Y-90910000D02*
X150431000Y-92960000D01*
X150431000Y-95040000D02*
X150431000Y-97090000D01*
X150471000Y-90945000D02*
X150471000Y-92960000D01*
X150471000Y-95040000D02*
X150471000Y-97055000D01*
X150511000Y-90981000D02*
X150511000Y-92960000D01*
X150511000Y-95040000D02*
X150511000Y-97019000D01*
X150551000Y-91017000D02*
X150551000Y-96983000D01*
X150591000Y-91055000D02*
X150591000Y-96945000D01*
X150631000Y-91093000D02*
X150631000Y-96907000D01*
X150671000Y-91133000D02*
X150671000Y-96867000D01*
X150711000Y-91174000D02*
X150711000Y-96826000D01*
X150751000Y-91216000D02*
X150751000Y-96784000D01*
X150791000Y-91259000D02*
X150791000Y-96741000D01*
X150831000Y-91303000D02*
X150831000Y-96697000D01*
X150871000Y-91349000D02*
X150871000Y-96651000D01*
X150911000Y-91396000D02*
X150911000Y-96604000D01*
X150951000Y-91444000D02*
X150951000Y-96556000D01*
X150991000Y-91495000D02*
X150991000Y-96505000D01*
X151031000Y-91546000D02*
X151031000Y-96454000D01*
X151071000Y-91600000D02*
X151071000Y-96400000D01*
X151111000Y-91655000D02*
X151111000Y-96345000D01*
X151151000Y-91713000D02*
X151151000Y-96287000D01*
X151191000Y-91772000D02*
X151191000Y-96228000D01*
X151231000Y-91834000D02*
X151231000Y-96166000D01*
X151271000Y-91898000D02*
X151271000Y-96102000D01*
X151311000Y-91966000D02*
X151311000Y-96034000D01*
X151351000Y-92036000D02*
X151351000Y-95964000D01*
X151391000Y-92110000D02*
X151391000Y-95890000D01*
X151431000Y-92187000D02*
X151431000Y-95813000D01*
X151471000Y-92269000D02*
X151471000Y-95731000D01*
X151511000Y-92355000D02*
X151511000Y-95645000D01*
X151551000Y-92448000D02*
X151551000Y-95552000D01*
X151591000Y-92547000D02*
X151591000Y-95453000D01*
X151631000Y-92654000D02*
X151631000Y-95346000D01*
X151671000Y-92771000D02*
X151671000Y-95229000D01*
X151711000Y-92902000D02*
X151711000Y-95098000D01*
X151751000Y-93052000D02*
X151751000Y-94948000D01*
X151791000Y-93232000D02*
X151791000Y-94768000D01*
X151831000Y-93467000D02*
X151831000Y-94533000D01*
X143340302Y-91685000D02*
X144140302Y-91685000D01*
X143740302Y-91285000D02*
X143740302Y-92085000D01*
G04 #@! TO.C,C8*
X153850000Y-88290000D02*
X154150000Y-88290000D01*
X153850000Y-89710000D02*
X154150000Y-89710000D01*
G04 #@! TO.C,C10*
X163300000Y-91460000D02*
X163300000Y-92880000D01*
X156700000Y-90700000D02*
X156700000Y-92880000D01*
X156700000Y-97300000D02*
X156700000Y-95120000D01*
X163300000Y-96540000D02*
X163300000Y-95120000D01*
X156700000Y-90700000D02*
X162540000Y-90700000D01*
X162540000Y-90700000D02*
X163300000Y-91460000D01*
X163300000Y-96540000D02*
X162540000Y-97300000D01*
X162540000Y-97300000D02*
X156700000Y-97300000D01*
D12*
G04 #@! TO.C,U4*
X167500000Y-71000000D02*
X132500000Y-71000000D01*
X167500000Y-71000000D02*
X167500000Y-89000000D01*
X167500000Y-89000000D02*
X164000000Y-89000000D01*
X132500000Y-89000000D02*
X132500000Y-71000000D01*
X134000000Y-89000000D02*
X132500000Y-89000000D01*
D11*
G04 #@! TO.C,U8*
X128100000Y-88410000D02*
X122090000Y-88410000D01*
X125850000Y-81590000D02*
X122090000Y-81590000D01*
X122090000Y-88410000D02*
X122090000Y-87150000D01*
X122090000Y-81590000D02*
X122090000Y-82850000D01*
G04 #@! TO.C,U9*
X122090000Y-71590000D02*
X122090000Y-72850000D01*
X122090000Y-78410000D02*
X122090000Y-77150000D01*
X125850000Y-71590000D02*
X122090000Y-71590000D01*
X128100000Y-78410000D02*
X122090000Y-78410000D01*
G04 #@! TO.C,U10*
X122090000Y-61590000D02*
X122090000Y-62850000D01*
X122090000Y-68410000D02*
X122090000Y-67150000D01*
X125850000Y-61590000D02*
X122090000Y-61590000D01*
X128100000Y-68410000D02*
X122090000Y-68410000D01*
G04 #@! TO.C,C5*
X151870000Y-103000000D02*
G75*
G03X151870000Y-103000000I-4120000J0D01*
G01*
X147750000Y-98920000D02*
X147750000Y-107080000D01*
X147790000Y-98920000D02*
X147790000Y-107080000D01*
X147830000Y-98920000D02*
X147830000Y-107080000D01*
X147870000Y-98921000D02*
X147870000Y-107079000D01*
X147910000Y-98923000D02*
X147910000Y-107077000D01*
X147950000Y-98924000D02*
X147950000Y-107076000D01*
X147990000Y-98926000D02*
X147990000Y-107074000D01*
X148030000Y-98929000D02*
X148030000Y-107071000D01*
X148070000Y-98932000D02*
X148070000Y-107068000D01*
X148110000Y-98935000D02*
X148110000Y-107065000D01*
X148150000Y-98939000D02*
X148150000Y-107061000D01*
X148190000Y-98943000D02*
X148190000Y-107057000D01*
X148230000Y-98948000D02*
X148230000Y-107052000D01*
X148270000Y-98952000D02*
X148270000Y-107048000D01*
X148310000Y-98958000D02*
X148310000Y-107042000D01*
X148350000Y-98963000D02*
X148350000Y-107037000D01*
X148390000Y-98970000D02*
X148390000Y-107030000D01*
X148430000Y-98976000D02*
X148430000Y-107024000D01*
X148471000Y-98983000D02*
X148471000Y-101960000D01*
X148471000Y-104040000D02*
X148471000Y-107017000D01*
X148511000Y-98990000D02*
X148511000Y-101960000D01*
X148511000Y-104040000D02*
X148511000Y-107010000D01*
X148551000Y-98998000D02*
X148551000Y-101960000D01*
X148551000Y-104040000D02*
X148551000Y-107002000D01*
X148591000Y-99006000D02*
X148591000Y-101960000D01*
X148591000Y-104040000D02*
X148591000Y-106994000D01*
X148631000Y-99015000D02*
X148631000Y-101960000D01*
X148631000Y-104040000D02*
X148631000Y-106985000D01*
X148671000Y-99024000D02*
X148671000Y-101960000D01*
X148671000Y-104040000D02*
X148671000Y-106976000D01*
X148711000Y-99033000D02*
X148711000Y-101960000D01*
X148711000Y-104040000D02*
X148711000Y-106967000D01*
X148751000Y-99043000D02*
X148751000Y-101960000D01*
X148751000Y-104040000D02*
X148751000Y-106957000D01*
X148791000Y-99053000D02*
X148791000Y-101960000D01*
X148791000Y-104040000D02*
X148791000Y-106947000D01*
X148831000Y-99064000D02*
X148831000Y-101960000D01*
X148831000Y-104040000D02*
X148831000Y-106936000D01*
X148871000Y-99075000D02*
X148871000Y-101960000D01*
X148871000Y-104040000D02*
X148871000Y-106925000D01*
X148911000Y-99086000D02*
X148911000Y-101960000D01*
X148911000Y-104040000D02*
X148911000Y-106914000D01*
X148951000Y-99098000D02*
X148951000Y-101960000D01*
X148951000Y-104040000D02*
X148951000Y-106902000D01*
X148991000Y-99111000D02*
X148991000Y-101960000D01*
X148991000Y-104040000D02*
X148991000Y-106889000D01*
X149031000Y-99123000D02*
X149031000Y-101960000D01*
X149031000Y-104040000D02*
X149031000Y-106877000D01*
X149071000Y-99137000D02*
X149071000Y-101960000D01*
X149071000Y-104040000D02*
X149071000Y-106863000D01*
X149111000Y-99150000D02*
X149111000Y-101960000D01*
X149111000Y-104040000D02*
X149111000Y-106850000D01*
X149151000Y-99165000D02*
X149151000Y-101960000D01*
X149151000Y-104040000D02*
X149151000Y-106835000D01*
X149191000Y-99179000D02*
X149191000Y-101960000D01*
X149191000Y-104040000D02*
X149191000Y-106821000D01*
X149231000Y-99195000D02*
X149231000Y-101960000D01*
X149231000Y-104040000D02*
X149231000Y-106805000D01*
X149271000Y-99210000D02*
X149271000Y-101960000D01*
X149271000Y-104040000D02*
X149271000Y-106790000D01*
X149311000Y-99226000D02*
X149311000Y-101960000D01*
X149311000Y-104040000D02*
X149311000Y-106774000D01*
X149351000Y-99243000D02*
X149351000Y-101960000D01*
X149351000Y-104040000D02*
X149351000Y-106757000D01*
X149391000Y-99260000D02*
X149391000Y-101960000D01*
X149391000Y-104040000D02*
X149391000Y-106740000D01*
X149431000Y-99278000D02*
X149431000Y-101960000D01*
X149431000Y-104040000D02*
X149431000Y-106722000D01*
X149471000Y-99296000D02*
X149471000Y-101960000D01*
X149471000Y-104040000D02*
X149471000Y-106704000D01*
X149511000Y-99314000D02*
X149511000Y-101960000D01*
X149511000Y-104040000D02*
X149511000Y-106686000D01*
X149551000Y-99334000D02*
X149551000Y-101960000D01*
X149551000Y-104040000D02*
X149551000Y-106666000D01*
X149591000Y-99353000D02*
X149591000Y-101960000D01*
X149591000Y-104040000D02*
X149591000Y-106647000D01*
X149631000Y-99373000D02*
X149631000Y-101960000D01*
X149631000Y-104040000D02*
X149631000Y-106627000D01*
X149671000Y-99394000D02*
X149671000Y-101960000D01*
X149671000Y-104040000D02*
X149671000Y-106606000D01*
X149711000Y-99416000D02*
X149711000Y-101960000D01*
X149711000Y-104040000D02*
X149711000Y-106584000D01*
X149751000Y-99438000D02*
X149751000Y-101960000D01*
X149751000Y-104040000D02*
X149751000Y-106562000D01*
X149791000Y-99460000D02*
X149791000Y-101960000D01*
X149791000Y-104040000D02*
X149791000Y-106540000D01*
X149831000Y-99483000D02*
X149831000Y-101960000D01*
X149831000Y-104040000D02*
X149831000Y-106517000D01*
X149871000Y-99507000D02*
X149871000Y-101960000D01*
X149871000Y-104040000D02*
X149871000Y-106493000D01*
X149911000Y-99531000D02*
X149911000Y-101960000D01*
X149911000Y-104040000D02*
X149911000Y-106469000D01*
X149951000Y-99556000D02*
X149951000Y-101960000D01*
X149951000Y-104040000D02*
X149951000Y-106444000D01*
X149991000Y-99582000D02*
X149991000Y-101960000D01*
X149991000Y-104040000D02*
X149991000Y-106418000D01*
X150031000Y-99608000D02*
X150031000Y-101960000D01*
X150031000Y-104040000D02*
X150031000Y-106392000D01*
X150071000Y-99635000D02*
X150071000Y-101960000D01*
X150071000Y-104040000D02*
X150071000Y-106365000D01*
X150111000Y-99662000D02*
X150111000Y-101960000D01*
X150111000Y-104040000D02*
X150111000Y-106338000D01*
X150151000Y-99691000D02*
X150151000Y-101960000D01*
X150151000Y-104040000D02*
X150151000Y-106309000D01*
X150191000Y-99720000D02*
X150191000Y-101960000D01*
X150191000Y-104040000D02*
X150191000Y-106280000D01*
X150231000Y-99750000D02*
X150231000Y-101960000D01*
X150231000Y-104040000D02*
X150231000Y-106250000D01*
X150271000Y-99780000D02*
X150271000Y-101960000D01*
X150271000Y-104040000D02*
X150271000Y-106220000D01*
X150311000Y-99811000D02*
X150311000Y-101960000D01*
X150311000Y-104040000D02*
X150311000Y-106189000D01*
X150351000Y-99844000D02*
X150351000Y-101960000D01*
X150351000Y-104040000D02*
X150351000Y-106156000D01*
X150391000Y-99876000D02*
X150391000Y-101960000D01*
X150391000Y-104040000D02*
X150391000Y-106124000D01*
X150431000Y-99910000D02*
X150431000Y-101960000D01*
X150431000Y-104040000D02*
X150431000Y-106090000D01*
X150471000Y-99945000D02*
X150471000Y-101960000D01*
X150471000Y-104040000D02*
X150471000Y-106055000D01*
X150511000Y-99981000D02*
X150511000Y-101960000D01*
X150511000Y-104040000D02*
X150511000Y-106019000D01*
X150551000Y-100017000D02*
X150551000Y-105983000D01*
X150591000Y-100055000D02*
X150591000Y-105945000D01*
X150631000Y-100093000D02*
X150631000Y-105907000D01*
X150671000Y-100133000D02*
X150671000Y-105867000D01*
X150711000Y-100174000D02*
X150711000Y-105826000D01*
X150751000Y-100216000D02*
X150751000Y-105784000D01*
X150791000Y-100259000D02*
X150791000Y-105741000D01*
X150831000Y-100303000D02*
X150831000Y-105697000D01*
X150871000Y-100349000D02*
X150871000Y-105651000D01*
X150911000Y-100396000D02*
X150911000Y-105604000D01*
X150951000Y-100444000D02*
X150951000Y-105556000D01*
X150991000Y-100495000D02*
X150991000Y-105505000D01*
X151031000Y-100546000D02*
X151031000Y-105454000D01*
X151071000Y-100600000D02*
X151071000Y-105400000D01*
X151111000Y-100655000D02*
X151111000Y-105345000D01*
X151151000Y-100713000D02*
X151151000Y-105287000D01*
X151191000Y-100772000D02*
X151191000Y-105228000D01*
X151231000Y-100834000D02*
X151231000Y-105166000D01*
X151271000Y-100898000D02*
X151271000Y-105102000D01*
X151311000Y-100966000D02*
X151311000Y-105034000D01*
X151351000Y-101036000D02*
X151351000Y-104964000D01*
X151391000Y-101110000D02*
X151391000Y-104890000D01*
X151431000Y-101187000D02*
X151431000Y-104813000D01*
X151471000Y-101269000D02*
X151471000Y-104731000D01*
X151511000Y-101355000D02*
X151511000Y-104645000D01*
X151551000Y-101448000D02*
X151551000Y-104552000D01*
X151591000Y-101547000D02*
X151591000Y-104453000D01*
X151631000Y-101654000D02*
X151631000Y-104346000D01*
X151671000Y-101771000D02*
X151671000Y-104229000D01*
X151711000Y-101902000D02*
X151711000Y-104098000D01*
X151751000Y-102052000D02*
X151751000Y-103948000D01*
X151791000Y-102232000D02*
X151791000Y-103768000D01*
X151831000Y-102467000D02*
X151831000Y-103533000D01*
X143340302Y-100685000D02*
X144140302Y-100685000D01*
X143740302Y-100285000D02*
X143740302Y-101085000D01*
G04 #@! TO.C,L3*
X166710000Y-94850000D02*
X166710000Y-95150000D01*
X165290000Y-94850000D02*
X165290000Y-95150000D01*
G04 #@! TO.C,R1*
X119850000Y-103210000D02*
X120150000Y-103210000D01*
X119850000Y-101790000D02*
X120150000Y-101790000D01*
G04 #@! TO.C,R2*
X119892500Y-98790000D02*
X120192500Y-98790000D01*
X119892500Y-100210000D02*
X120192500Y-100210000D01*
G04 #@! TO.C,R3*
X119850000Y-95790000D02*
X120150000Y-95790000D01*
X119850000Y-97210000D02*
X120150000Y-97210000D01*
G04 #@! TO.C,C11*
X165300000Y-99460000D02*
X165300000Y-100880000D01*
X158700000Y-98700000D02*
X158700000Y-100880000D01*
X158700000Y-105300000D02*
X158700000Y-103120000D01*
X165300000Y-104540000D02*
X165300000Y-103120000D01*
X158700000Y-98700000D02*
X164540000Y-98700000D01*
X164540000Y-98700000D02*
X165300000Y-99460000D01*
X165300000Y-104540000D02*
X164540000Y-105300000D01*
X164540000Y-105300000D02*
X158700000Y-105300000D01*
G04 #@! TO.C,C12*
X160650000Y-109410000D02*
X159350000Y-109410000D01*
X160650000Y-107590000D02*
X159350000Y-107590000D01*
G04 #@! TO.C,R4*
X148160000Y-127700000D02*
X148160000Y-128000000D01*
X149580000Y-127700000D02*
X149580000Y-128000000D01*
G04 #@! TO.C,R5*
X146560000Y-127720000D02*
X146560000Y-128020000D01*
X145140000Y-127720000D02*
X145140000Y-128020000D01*
D12*
G04 #@! TO.C,U11*
X151300000Y-129180000D02*
X151300000Y-128480000D01*
X151300000Y-128480000D02*
X153500000Y-128480000D01*
X153500000Y-128480000D02*
X153500000Y-129180000D01*
X153500000Y-129980000D02*
X153500000Y-130680000D01*
X153500000Y-130680000D02*
X151300000Y-130680000D01*
X151300000Y-130680000D02*
X151300000Y-129980000D01*
X151000000Y-130280000D02*
G75*
G03X151000000Y-130280000I-200000J0D01*
G01*
D11*
G04 #@! TO.C,R6*
X156307500Y-118710000D02*
X156607500Y-118710000D01*
X156307500Y-117290000D02*
X156607500Y-117290000D01*
G04 #@! TO.C,R7*
X156307500Y-122290000D02*
X156607500Y-122290000D01*
X156307500Y-123710000D02*
X156607500Y-123710000D01*
G04 #@! TO.C,J2*
X171710000Y-119250000D02*
X171710000Y-125560000D01*
X171710000Y-125560000D02*
X159990000Y-125560000D01*
X159990000Y-125560000D02*
X159990000Y-124140000D01*
X159990000Y-124140000D02*
X164490000Y-124140000D01*
X171710000Y-119250000D02*
X171710000Y-112940000D01*
X171710000Y-112940000D02*
X159990000Y-112940000D01*
X159990000Y-112940000D02*
X159990000Y-114360000D01*
X159990000Y-114360000D02*
X164490000Y-114360000D01*
X165600000Y-123250000D02*
X171100000Y-123250000D01*
X171100000Y-123250000D02*
X171100000Y-122750000D01*
X171100000Y-122750000D02*
X165600000Y-122750000D01*
X165600000Y-122750000D02*
X165600000Y-123250000D01*
X165600000Y-120750000D02*
X171100000Y-120750000D01*
X171100000Y-120750000D02*
X171100000Y-120250000D01*
X171100000Y-120250000D02*
X165600000Y-120250000D01*
X165600000Y-120250000D02*
X165600000Y-120750000D01*
X165600000Y-118250000D02*
X171100000Y-118250000D01*
X171100000Y-118250000D02*
X171100000Y-117750000D01*
X171100000Y-117750000D02*
X165600000Y-117750000D01*
X165600000Y-117750000D02*
X165600000Y-118250000D01*
X165600000Y-115750000D02*
X171100000Y-115750000D01*
X171100000Y-115750000D02*
X171100000Y-115250000D01*
X171100000Y-115250000D02*
X165600000Y-115250000D01*
X165600000Y-115250000D02*
X165600000Y-115750000D01*
X162500000Y-123000000D02*
X161900000Y-123300000D01*
X161900000Y-123300000D02*
X161900000Y-122700000D01*
X161900000Y-122700000D02*
X162500000Y-123000000D01*
G04 #@! TO.C,BT1*
X139624615Y-124494160D02*
G75*
G02X138710000Y-124110000I-124615J984160D01*
G01*
X128795385Y-124494160D02*
G75*
G03X129710000Y-124110000I124615J984160D01*
G01*
X138700661Y-124098671D02*
G75*
G03X129710000Y-124110000I-4490661J-3711329D01*
G01*
X140960000Y-122960000D02*
G75*
G02X139510000Y-124510000I-1500000J-50000D01*
G01*
X127460000Y-122960000D02*
G75*
G03X128910000Y-124510000I1500000J-50000D01*
G01*
X140960000Y-120910000D02*
X140960000Y-123010000D01*
X127460000Y-120910000D02*
X127460000Y-123010000D01*
X127460000Y-116910000D02*
X127460000Y-115460000D01*
X127460000Y-115460000D02*
X130060000Y-112860000D01*
X130060000Y-112860000D02*
X130060000Y-112060000D01*
X130060000Y-112060000D02*
X138360000Y-112060000D01*
X138360000Y-112060000D02*
X138360000Y-112860000D01*
X138360000Y-112860000D02*
X140960000Y-115460000D01*
X140960000Y-115460000D02*
X140960000Y-116910000D01*
G04 #@! TO.C,Y1*
X148250000Y-122250000D02*
X148250000Y-111350000D01*
X148250000Y-111350000D02*
X144850000Y-111350000D01*
X144850000Y-111350000D02*
X144850000Y-122250000D01*
X144850000Y-122250000D02*
X148250000Y-122250000D01*
X147150000Y-122250000D02*
X147820000Y-123650000D01*
X147820000Y-123650000D02*
X147820000Y-124350000D01*
X145950000Y-122250000D02*
X145280000Y-123650000D01*
X145280000Y-123650000D02*
X145280000Y-124350000D01*
G04 #@! TO.C,D6*
X115090000Y-104795000D02*
X112620000Y-104795000D01*
X112620000Y-104795000D02*
X112620000Y-106185000D01*
X112620000Y-106185000D02*
X115090000Y-106185000D01*
G04 #@! TO.C,D1*
X113500000Y-103195000D02*
X115970000Y-103195000D01*
X115970000Y-103195000D02*
X115970000Y-101805000D01*
X115970000Y-101805000D02*
X113500000Y-101805000D01*
G04 #@! TO.C,D2*
X115970000Y-98805000D02*
X113500000Y-98805000D01*
X115970000Y-100195000D02*
X115970000Y-98805000D01*
X113500000Y-100195000D02*
X115970000Y-100195000D01*
G04 #@! TO.C,D3*
X113500000Y-97195000D02*
X115970000Y-97195000D01*
X115970000Y-97195000D02*
X115970000Y-95805000D01*
X115970000Y-95805000D02*
X113500000Y-95805000D01*
G04 #@! TO.C,C1*
X139170000Y-101310000D02*
X139170000Y-102860000D01*
X139170000Y-106640000D02*
X139170000Y-105090000D01*
X133830000Y-105880000D02*
X133830000Y-105090000D01*
X133830000Y-102070000D02*
X133830000Y-102860000D01*
X139170000Y-101310000D02*
X134590000Y-101310000D01*
X134590000Y-101310000D02*
X133830000Y-102070000D01*
X133830000Y-105880000D02*
X134590000Y-106640000D01*
X134590000Y-106640000D02*
X139170000Y-106640000D01*
D12*
G04 #@! TO.C,D5*
X127775000Y-95700000D02*
X127775000Y-99300000D01*
X127775000Y-99300000D02*
X123225000Y-99300000D01*
X123225000Y-99300000D02*
X123225000Y-95700000D01*
X123225000Y-95700000D02*
X127775000Y-95700000D01*
G36*
X127750000Y-95750000D02*
X127750000Y-96800000D01*
X126850000Y-95750000D01*
X127750000Y-95750000D01*
G37*
X127750000Y-95750000D02*
X127750000Y-96800000D01*
X126850000Y-95750000D01*
X127750000Y-95750000D01*
D11*
G04 #@! TO.C,D4*
X115090000Y-107825000D02*
X112620000Y-107825000D01*
X112620000Y-107825000D02*
X112620000Y-109215000D01*
X112620000Y-109215000D02*
X115090000Y-109215000D01*
G04 #@! TO.C,SW1*
X113150000Y-122007500D02*
X113150000Y-122932500D01*
X116850000Y-122007500D02*
X116850000Y-126707500D01*
X115275000Y-126807500D02*
X114725000Y-126807500D01*
X115275000Y-121907500D02*
X114725000Y-121907500D01*
X113150000Y-125782500D02*
X113150000Y-126707500D01*
G04 #@! TO.C,D7*
X115125000Y-110905000D02*
X112655000Y-110905000D01*
X112655000Y-110905000D02*
X112655000Y-112295000D01*
X112655000Y-112295000D02*
X115125000Y-112295000D01*
G04 #@! TO.C,GPIO*
X147950000Y-137500000D02*
G75*
G03X147950000Y-137500000I-950000J0D01*
G01*
G04 #@! TO.C,VT*
X132450000Y-107140000D02*
G75*
G03X132450000Y-107140000I-950000J0D01*
G01*
G04 #@! TO.C,P1*
X155510000Y-64450000D02*
X156790000Y-64450000D01*
X156790000Y-64450000D02*
X156790000Y-55250000D01*
X156790000Y-55250000D02*
X137710000Y-55250000D01*
X137710000Y-55250000D02*
X137710000Y-64450000D01*
X137710000Y-64450000D02*
X138990000Y-64450000D01*
X157250000Y-62250000D02*
X157250000Y-64660000D01*
X157250000Y-64660000D02*
X155510000Y-64660000D01*
G04 #@! TO.C,J1*
X172080000Y-132990000D02*
X172080000Y-138050000D01*
X172080000Y-138050000D02*
X159580000Y-138050000D01*
X160070000Y-138050000D02*
X160070000Y-136630000D01*
X160070000Y-136630000D02*
X164570000Y-136630000D01*
X164570000Y-136630000D02*
X164570000Y-132990000D01*
X172080000Y-132990000D02*
X172080000Y-127930000D01*
X172080000Y-127930000D02*
X159580000Y-127930000D01*
X160070000Y-127930000D02*
X160070000Y-129350000D01*
X160070000Y-129350000D02*
X164570000Y-129350000D01*
X164570000Y-129350000D02*
X164570000Y-132990000D01*
X165680000Y-135740000D02*
X171180000Y-135740000D01*
X171180000Y-135740000D02*
X171180000Y-135240000D01*
X171180000Y-135240000D02*
X165680000Y-135240000D01*
X165680000Y-135240000D02*
X165680000Y-135740000D01*
X165680000Y-133240000D02*
X171180000Y-133240000D01*
X171180000Y-133240000D02*
X171180000Y-132740000D01*
X171180000Y-132740000D02*
X165680000Y-132740000D01*
X165680000Y-132740000D02*
X165680000Y-133240000D01*
X165680000Y-130740000D02*
X171180000Y-130740000D01*
X171180000Y-130740000D02*
X171180000Y-130240000D01*
X171180000Y-130240000D02*
X165680000Y-130240000D01*
X165680000Y-130240000D02*
X165680000Y-130740000D01*
X160980000Y-135490000D02*
X160380000Y-135790000D01*
X160380000Y-135790000D02*
X160380000Y-135190000D01*
X160380000Y-135190000D02*
X160980000Y-135490000D01*
G04 #@! TO.C,C6*
D12*
X147583333Y-88987142D02*
X147535714Y-89034761D01*
X147392857Y-89082380D01*
X147297619Y-89082380D01*
X147154761Y-89034761D01*
X147059523Y-88939523D01*
X147011904Y-88844285D01*
X146964285Y-88653809D01*
X146964285Y-88510952D01*
X147011904Y-88320476D01*
X147059523Y-88225238D01*
X147154761Y-88130000D01*
X147297619Y-88082380D01*
X147392857Y-88082380D01*
X147535714Y-88130000D01*
X147583333Y-88177619D01*
X148440476Y-88082380D02*
X148250000Y-88082380D01*
X148154761Y-88130000D01*
X148107142Y-88177619D01*
X148011904Y-88320476D01*
X147964285Y-88510952D01*
X147964285Y-88891904D01*
X148011904Y-88987142D01*
X148059523Y-89034761D01*
X148154761Y-89082380D01*
X148345238Y-89082380D01*
X148440476Y-89034761D01*
X148488095Y-88987142D01*
X148535714Y-88891904D01*
X148535714Y-88653809D01*
X148488095Y-88558571D01*
X148440476Y-88510952D01*
X148345238Y-88463333D01*
X148154761Y-88463333D01*
X148059523Y-88510952D01*
X148011904Y-88558571D01*
X147964285Y-88653809D01*
G04 #@! TO.C,C8*
X153833333Y-87507142D02*
X153785714Y-87554761D01*
X153642857Y-87602380D01*
X153547619Y-87602380D01*
X153404761Y-87554761D01*
X153309523Y-87459523D01*
X153261904Y-87364285D01*
X153214285Y-87173809D01*
X153214285Y-87030952D01*
X153261904Y-86840476D01*
X153309523Y-86745238D01*
X153404761Y-86650000D01*
X153547619Y-86602380D01*
X153642857Y-86602380D01*
X153785714Y-86650000D01*
X153833333Y-86697619D01*
X154404761Y-87030952D02*
X154309523Y-86983333D01*
X154261904Y-86935714D01*
X154214285Y-86840476D01*
X154214285Y-86792857D01*
X154261904Y-86697619D01*
X154309523Y-86650000D01*
X154404761Y-86602380D01*
X154595238Y-86602380D01*
X154690476Y-86650000D01*
X154738095Y-86697619D01*
X154785714Y-86792857D01*
X154785714Y-86840476D01*
X154738095Y-86935714D01*
X154690476Y-86983333D01*
X154595238Y-87030952D01*
X154404761Y-87030952D01*
X154309523Y-87078571D01*
X154261904Y-87126190D01*
X154214285Y-87221428D01*
X154214285Y-87411904D01*
X154261904Y-87507142D01*
X154309523Y-87554761D01*
X154404761Y-87602380D01*
X154595238Y-87602380D01*
X154690476Y-87554761D01*
X154738095Y-87507142D01*
X154785714Y-87411904D01*
X154785714Y-87221428D01*
X154738095Y-87126190D01*
X154690476Y-87078571D01*
X154595238Y-87030952D01*
G04 #@! TO.C,C10*
X159357142Y-89927142D02*
X159309523Y-89974761D01*
X159166666Y-90022380D01*
X159071428Y-90022380D01*
X158928571Y-89974761D01*
X158833333Y-89879523D01*
X158785714Y-89784285D01*
X158738095Y-89593809D01*
X158738095Y-89450952D01*
X158785714Y-89260476D01*
X158833333Y-89165238D01*
X158928571Y-89070000D01*
X159071428Y-89022380D01*
X159166666Y-89022380D01*
X159309523Y-89070000D01*
X159357142Y-89117619D01*
X160309523Y-90022380D02*
X159738095Y-90022380D01*
X160023809Y-90022380D02*
X160023809Y-89022380D01*
X159928571Y-89165238D01*
X159833333Y-89260476D01*
X159738095Y-89308095D01*
X160928571Y-89022380D02*
X161023809Y-89022380D01*
X161119047Y-89070000D01*
X161166666Y-89117619D01*
X161214285Y-89212857D01*
X161261904Y-89403333D01*
X161261904Y-89641428D01*
X161214285Y-89831904D01*
X161166666Y-89927142D01*
X161119047Y-89974761D01*
X161023809Y-90022380D01*
X160928571Y-90022380D01*
X160833333Y-89974761D01*
X160785714Y-89927142D01*
X160738095Y-89831904D01*
X160690476Y-89641428D01*
X160690476Y-89403333D01*
X160738095Y-89212857D01*
X160785714Y-89117619D01*
X160833333Y-89070000D01*
X160928571Y-89022380D01*
X163899047Y-91161428D02*
X164660952Y-91161428D01*
X164280000Y-91542380D02*
X164280000Y-90780476D01*
G04 #@! TO.C,U4*
X149238095Y-90452380D02*
X149238095Y-91261904D01*
X149285714Y-91357142D01*
X149333333Y-91404761D01*
X149428571Y-91452380D01*
X149619047Y-91452380D01*
X149714285Y-91404761D01*
X149761904Y-91357142D01*
X149809523Y-91261904D01*
X149809523Y-90452380D01*
X150714285Y-90785714D02*
X150714285Y-91452380D01*
X150476190Y-90404761D02*
X150238095Y-91119047D01*
X150857142Y-91119047D01*
G04 #@! TO.C,U8*
X123238095Y-88952380D02*
X123238095Y-89761904D01*
X123285714Y-89857142D01*
X123333333Y-89904761D01*
X123428571Y-89952380D01*
X123619047Y-89952380D01*
X123714285Y-89904761D01*
X123761904Y-89857142D01*
X123809523Y-89761904D01*
X123809523Y-88952380D01*
X124428571Y-89380952D02*
X124333333Y-89333333D01*
X124285714Y-89285714D01*
X124238095Y-89190476D01*
X124238095Y-89142857D01*
X124285714Y-89047619D01*
X124333333Y-89000000D01*
X124428571Y-88952380D01*
X124619047Y-88952380D01*
X124714285Y-89000000D01*
X124761904Y-89047619D01*
X124809523Y-89142857D01*
X124809523Y-89190476D01*
X124761904Y-89285714D01*
X124714285Y-89333333D01*
X124619047Y-89380952D01*
X124428571Y-89380952D01*
X124333333Y-89428571D01*
X124285714Y-89476190D01*
X124238095Y-89571428D01*
X124238095Y-89761904D01*
X124285714Y-89857142D01*
X124333333Y-89904761D01*
X124428571Y-89952380D01*
X124619047Y-89952380D01*
X124714285Y-89904761D01*
X124761904Y-89857142D01*
X124809523Y-89761904D01*
X124809523Y-89571428D01*
X124761904Y-89476190D01*
X124714285Y-89428571D01*
X124619047Y-89380952D01*
G04 #@! TO.C,U9*
X123238095Y-78952380D02*
X123238095Y-79761904D01*
X123285714Y-79857142D01*
X123333333Y-79904761D01*
X123428571Y-79952380D01*
X123619047Y-79952380D01*
X123714285Y-79904761D01*
X123761904Y-79857142D01*
X123809523Y-79761904D01*
X123809523Y-78952380D01*
X124333333Y-79952380D02*
X124523809Y-79952380D01*
X124619047Y-79904761D01*
X124666666Y-79857142D01*
X124761904Y-79714285D01*
X124809523Y-79523809D01*
X124809523Y-79142857D01*
X124761904Y-79047619D01*
X124714285Y-79000000D01*
X124619047Y-78952380D01*
X124428571Y-78952380D01*
X124333333Y-79000000D01*
X124285714Y-79047619D01*
X124238095Y-79142857D01*
X124238095Y-79380952D01*
X124285714Y-79476190D01*
X124333333Y-79523809D01*
X124428571Y-79571428D01*
X124619047Y-79571428D01*
X124714285Y-79523809D01*
X124761904Y-79476190D01*
X124809523Y-79380952D01*
G04 #@! TO.C,U10*
X122761904Y-68952380D02*
X122761904Y-69761904D01*
X122809523Y-69857142D01*
X122857142Y-69904761D01*
X122952380Y-69952380D01*
X123142857Y-69952380D01*
X123238095Y-69904761D01*
X123285714Y-69857142D01*
X123333333Y-69761904D01*
X123333333Y-68952380D01*
X124333333Y-69952380D02*
X123761904Y-69952380D01*
X124047619Y-69952380D02*
X124047619Y-68952380D01*
X123952380Y-69095238D01*
X123857142Y-69190476D01*
X123761904Y-69238095D01*
X124952380Y-68952380D02*
X125047619Y-68952380D01*
X125142857Y-69000000D01*
X125190476Y-69047619D01*
X125238095Y-69142857D01*
X125285714Y-69333333D01*
X125285714Y-69571428D01*
X125238095Y-69761904D01*
X125190476Y-69857142D01*
X125142857Y-69904761D01*
X125047619Y-69952380D01*
X124952380Y-69952380D01*
X124857142Y-69904761D01*
X124809523Y-69857142D01*
X124761904Y-69761904D01*
X124714285Y-69571428D01*
X124714285Y-69333333D01*
X124761904Y-69142857D01*
X124809523Y-69047619D01*
X124857142Y-69000000D01*
X124952380Y-68952380D01*
G04 #@! TO.C,C5*
X147583333Y-97987142D02*
X147535714Y-98034761D01*
X147392857Y-98082380D01*
X147297619Y-98082380D01*
X147154761Y-98034761D01*
X147059523Y-97939523D01*
X147011904Y-97844285D01*
X146964285Y-97653809D01*
X146964285Y-97510952D01*
X147011904Y-97320476D01*
X147059523Y-97225238D01*
X147154761Y-97130000D01*
X147297619Y-97082380D01*
X147392857Y-97082380D01*
X147535714Y-97130000D01*
X147583333Y-97177619D01*
X148488095Y-97082380D02*
X148011904Y-97082380D01*
X147964285Y-97558571D01*
X148011904Y-97510952D01*
X148107142Y-97463333D01*
X148345238Y-97463333D01*
X148440476Y-97510952D01*
X148488095Y-97558571D01*
X148535714Y-97653809D01*
X148535714Y-97891904D01*
X148488095Y-97987142D01*
X148440476Y-98034761D01*
X148345238Y-98082380D01*
X148107142Y-98082380D01*
X148011904Y-98034761D01*
X147964285Y-97987142D01*
G04 #@! TO.C,L3*
X168302380Y-95166666D02*
X168302380Y-95642857D01*
X167302380Y-95642857D01*
X167302380Y-94928571D02*
X167302380Y-94309523D01*
X167683333Y-94642857D01*
X167683333Y-94500000D01*
X167730952Y-94404761D01*
X167778571Y-94357142D01*
X167873809Y-94309523D01*
X168111904Y-94309523D01*
X168207142Y-94357142D01*
X168254761Y-94404761D01*
X168302380Y-94500000D01*
X168302380Y-94785714D01*
X168254761Y-94880952D01*
X168207142Y-94928571D01*
G04 #@! TO.C,R1*
X119833333Y-101102380D02*
X119500000Y-100626190D01*
X119261904Y-101102380D02*
X119261904Y-100102380D01*
X119642857Y-100102380D01*
X119738095Y-100150000D01*
X119785714Y-100197619D01*
X119833333Y-100292857D01*
X119833333Y-100435714D01*
X119785714Y-100530952D01*
X119738095Y-100578571D01*
X119642857Y-100626190D01*
X119261904Y-100626190D01*
X120785714Y-101102380D02*
X120214285Y-101102380D01*
X120500000Y-101102380D02*
X120500000Y-100102380D01*
X120404761Y-100245238D01*
X120309523Y-100340476D01*
X120214285Y-100388095D01*
G04 #@! TO.C,R2*
X119875833Y-98102380D02*
X119542500Y-97626190D01*
X119304404Y-98102380D02*
X119304404Y-97102380D01*
X119685357Y-97102380D01*
X119780595Y-97150000D01*
X119828214Y-97197619D01*
X119875833Y-97292857D01*
X119875833Y-97435714D01*
X119828214Y-97530952D01*
X119780595Y-97578571D01*
X119685357Y-97626190D01*
X119304404Y-97626190D01*
X120256785Y-97197619D02*
X120304404Y-97150000D01*
X120399642Y-97102380D01*
X120637738Y-97102380D01*
X120732976Y-97150000D01*
X120780595Y-97197619D01*
X120828214Y-97292857D01*
X120828214Y-97388095D01*
X120780595Y-97530952D01*
X120209166Y-98102380D01*
X120828214Y-98102380D01*
G04 #@! TO.C,R3*
X119833333Y-95102380D02*
X119500000Y-94626190D01*
X119261904Y-95102380D02*
X119261904Y-94102380D01*
X119642857Y-94102380D01*
X119738095Y-94150000D01*
X119785714Y-94197619D01*
X119833333Y-94292857D01*
X119833333Y-94435714D01*
X119785714Y-94530952D01*
X119738095Y-94578571D01*
X119642857Y-94626190D01*
X119261904Y-94626190D01*
X120166666Y-94102380D02*
X120785714Y-94102380D01*
X120452380Y-94483333D01*
X120595238Y-94483333D01*
X120690476Y-94530952D01*
X120738095Y-94578571D01*
X120785714Y-94673809D01*
X120785714Y-94911904D01*
X120738095Y-95007142D01*
X120690476Y-95054761D01*
X120595238Y-95102380D01*
X120309523Y-95102380D01*
X120214285Y-95054761D01*
X120166666Y-95007142D01*
G04 #@! TO.C,C11*
X161357142Y-97927142D02*
X161309523Y-97974761D01*
X161166666Y-98022380D01*
X161071428Y-98022380D01*
X160928571Y-97974761D01*
X160833333Y-97879523D01*
X160785714Y-97784285D01*
X160738095Y-97593809D01*
X160738095Y-97450952D01*
X160785714Y-97260476D01*
X160833333Y-97165238D01*
X160928571Y-97070000D01*
X161071428Y-97022380D01*
X161166666Y-97022380D01*
X161309523Y-97070000D01*
X161357142Y-97117619D01*
X162309523Y-98022380D02*
X161738095Y-98022380D01*
X162023809Y-98022380D02*
X162023809Y-97022380D01*
X161928571Y-97165238D01*
X161833333Y-97260476D01*
X161738095Y-97308095D01*
X163261904Y-98022380D02*
X162690476Y-98022380D01*
X162976190Y-98022380D02*
X162976190Y-97022380D01*
X162880952Y-97165238D01*
X162785714Y-97260476D01*
X162690476Y-97308095D01*
X165899047Y-99161428D02*
X166660952Y-99161428D01*
X166280000Y-99542380D02*
X166280000Y-98780476D01*
G04 #@! TO.C,C12*
X159357142Y-110907142D02*
X159309523Y-110954761D01*
X159166666Y-111002380D01*
X159071428Y-111002380D01*
X158928571Y-110954761D01*
X158833333Y-110859523D01*
X158785714Y-110764285D01*
X158738095Y-110573809D01*
X158738095Y-110430952D01*
X158785714Y-110240476D01*
X158833333Y-110145238D01*
X158928571Y-110050000D01*
X159071428Y-110002380D01*
X159166666Y-110002380D01*
X159309523Y-110050000D01*
X159357142Y-110097619D01*
X160309523Y-111002380D02*
X159738095Y-111002380D01*
X160023809Y-111002380D02*
X160023809Y-110002380D01*
X159928571Y-110145238D01*
X159833333Y-110240476D01*
X159738095Y-110288095D01*
X160690476Y-110097619D02*
X160738095Y-110050000D01*
X160833333Y-110002380D01*
X161071428Y-110002380D01*
X161166666Y-110050000D01*
X161214285Y-110097619D01*
X161261904Y-110192857D01*
X161261904Y-110288095D01*
X161214285Y-110430952D01*
X160642857Y-111002380D01*
X161261904Y-111002380D01*
G04 #@! TO.C,R4*
X151172380Y-128016666D02*
X150696190Y-128350000D01*
X151172380Y-128588095D02*
X150172380Y-128588095D01*
X150172380Y-128207142D01*
X150220000Y-128111904D01*
X150267619Y-128064285D01*
X150362857Y-128016666D01*
X150505714Y-128016666D01*
X150600952Y-128064285D01*
X150648571Y-128111904D01*
X150696190Y-128207142D01*
X150696190Y-128588095D01*
X150505714Y-127159523D02*
X151172380Y-127159523D01*
X150124761Y-127397619D02*
X150839047Y-127635714D01*
X150839047Y-127016666D01*
G04 #@! TO.C,R5*
X148152380Y-128036666D02*
X147676190Y-128370000D01*
X148152380Y-128608095D02*
X147152380Y-128608095D01*
X147152380Y-128227142D01*
X147200000Y-128131904D01*
X147247619Y-128084285D01*
X147342857Y-128036666D01*
X147485714Y-128036666D01*
X147580952Y-128084285D01*
X147628571Y-128131904D01*
X147676190Y-128227142D01*
X147676190Y-128608095D01*
X147152380Y-127131904D02*
X147152380Y-127608095D01*
X147628571Y-127655714D01*
X147580952Y-127608095D01*
X147533333Y-127512857D01*
X147533333Y-127274761D01*
X147580952Y-127179523D01*
X147628571Y-127131904D01*
X147723809Y-127084285D01*
X147961904Y-127084285D01*
X148057142Y-127131904D01*
X148104761Y-127179523D01*
X148152380Y-127274761D01*
X148152380Y-127512857D01*
X148104761Y-127608095D01*
X148057142Y-127655714D01*
G04 #@! TO.C,U11*
X151161904Y-130932380D02*
X151161904Y-131741904D01*
X151209523Y-131837142D01*
X151257142Y-131884761D01*
X151352380Y-131932380D01*
X151542857Y-131932380D01*
X151638095Y-131884761D01*
X151685714Y-131837142D01*
X151733333Y-131741904D01*
X151733333Y-130932380D01*
X152733333Y-131932380D02*
X152161904Y-131932380D01*
X152447619Y-131932380D02*
X152447619Y-130932380D01*
X152352380Y-131075238D01*
X152257142Y-131170476D01*
X152161904Y-131218095D01*
X153685714Y-131932380D02*
X153114285Y-131932380D01*
X153400000Y-131932380D02*
X153400000Y-130932380D01*
X153304761Y-131075238D01*
X153209523Y-131170476D01*
X153114285Y-131218095D01*
G04 #@! TO.C,R6*
X156290833Y-116602380D02*
X155957500Y-116126190D01*
X155719404Y-116602380D02*
X155719404Y-115602380D01*
X156100357Y-115602380D01*
X156195595Y-115650000D01*
X156243214Y-115697619D01*
X156290833Y-115792857D01*
X156290833Y-115935714D01*
X156243214Y-116030952D01*
X156195595Y-116078571D01*
X156100357Y-116126190D01*
X155719404Y-116126190D01*
X157147976Y-115602380D02*
X156957500Y-115602380D01*
X156862261Y-115650000D01*
X156814642Y-115697619D01*
X156719404Y-115840476D01*
X156671785Y-116030952D01*
X156671785Y-116411904D01*
X156719404Y-116507142D01*
X156767023Y-116554761D01*
X156862261Y-116602380D01*
X157052738Y-116602380D01*
X157147976Y-116554761D01*
X157195595Y-116507142D01*
X157243214Y-116411904D01*
X157243214Y-116173809D01*
X157195595Y-116078571D01*
X157147976Y-116030952D01*
X157052738Y-115983333D01*
X156862261Y-115983333D01*
X156767023Y-116030952D01*
X156719404Y-116078571D01*
X156671785Y-116173809D01*
G04 #@! TO.C,R7*
X156290833Y-121602380D02*
X155957500Y-121126190D01*
X155719404Y-121602380D02*
X155719404Y-120602380D01*
X156100357Y-120602380D01*
X156195595Y-120650000D01*
X156243214Y-120697619D01*
X156290833Y-120792857D01*
X156290833Y-120935714D01*
X156243214Y-121030952D01*
X156195595Y-121078571D01*
X156100357Y-121126190D01*
X155719404Y-121126190D01*
X156624166Y-120602380D02*
X157290833Y-120602380D01*
X156862261Y-121602380D01*
G04 #@! TO.C,J2*
X158352380Y-119583333D02*
X159066666Y-119583333D01*
X159209523Y-119630952D01*
X159304761Y-119726190D01*
X159352380Y-119869047D01*
X159352380Y-119964285D01*
X158447619Y-119154761D02*
X158400000Y-119107142D01*
X158352380Y-119011904D01*
X158352380Y-118773809D01*
X158400000Y-118678571D01*
X158447619Y-118630952D01*
X158542857Y-118583333D01*
X158638095Y-118583333D01*
X158780952Y-118630952D01*
X159352380Y-119202380D01*
X159352380Y-118583333D01*
G04 #@! TO.C,BT1*
X133424285Y-110838571D02*
X133567142Y-110886190D01*
X133614761Y-110933809D01*
X133662380Y-111029047D01*
X133662380Y-111171904D01*
X133614761Y-111267142D01*
X133567142Y-111314761D01*
X133471904Y-111362380D01*
X133090952Y-111362380D01*
X133090952Y-110362380D01*
X133424285Y-110362380D01*
X133519523Y-110410000D01*
X133567142Y-110457619D01*
X133614761Y-110552857D01*
X133614761Y-110648095D01*
X133567142Y-110743333D01*
X133519523Y-110790952D01*
X133424285Y-110838571D01*
X133090952Y-110838571D01*
X133948095Y-110362380D02*
X134519523Y-110362380D01*
X134233809Y-111362380D02*
X134233809Y-110362380D01*
X135376666Y-111362380D02*
X134805238Y-111362380D01*
X135090952Y-111362380D02*
X135090952Y-110362380D01*
X134995714Y-110505238D01*
X134900476Y-110600476D01*
X134805238Y-110648095D01*
G04 #@! TO.C,Y1*
X149546190Y-122526190D02*
X150022380Y-122526190D01*
X149022380Y-122859523D02*
X149546190Y-122526190D01*
X149022380Y-122192857D01*
X150022380Y-121335714D02*
X150022380Y-121907142D01*
X150022380Y-121621428D02*
X149022380Y-121621428D01*
X149165238Y-121716666D01*
X149260476Y-121811904D01*
X149308095Y-121907142D01*
G04 #@! TO.C,D6*
X113551904Y-107442380D02*
X113551904Y-106442380D01*
X113790000Y-106442380D01*
X113932857Y-106490000D01*
X114028095Y-106585238D01*
X114075714Y-106680476D01*
X114123333Y-106870952D01*
X114123333Y-107013809D01*
X114075714Y-107204285D01*
X114028095Y-107299523D01*
X113932857Y-107394761D01*
X113790000Y-107442380D01*
X113551904Y-107442380D01*
X114980476Y-106442380D02*
X114790000Y-106442380D01*
X114694761Y-106490000D01*
X114647142Y-106537619D01*
X114551904Y-106680476D01*
X114504285Y-106870952D01*
X114504285Y-107251904D01*
X114551904Y-107347142D01*
X114599523Y-107394761D01*
X114694761Y-107442380D01*
X114885238Y-107442380D01*
X114980476Y-107394761D01*
X115028095Y-107347142D01*
X115075714Y-107251904D01*
X115075714Y-107013809D01*
X115028095Y-106918571D01*
X114980476Y-106870952D01*
X114885238Y-106823333D01*
X114694761Y-106823333D01*
X114599523Y-106870952D01*
X114551904Y-106918571D01*
X114504285Y-107013809D01*
G04 #@! TO.C,R22*
X119324642Y-107602380D02*
X118991309Y-107126190D01*
X118753214Y-107602380D02*
X118753214Y-106602380D01*
X119134166Y-106602380D01*
X119229404Y-106650000D01*
X119277023Y-106697619D01*
X119324642Y-106792857D01*
X119324642Y-106935714D01*
X119277023Y-107030952D01*
X119229404Y-107078571D01*
X119134166Y-107126190D01*
X118753214Y-107126190D01*
X119705595Y-106697619D02*
X119753214Y-106650000D01*
X119848452Y-106602380D01*
X120086547Y-106602380D01*
X120181785Y-106650000D01*
X120229404Y-106697619D01*
X120277023Y-106792857D01*
X120277023Y-106888095D01*
X120229404Y-107030952D01*
X119657976Y-107602380D01*
X120277023Y-107602380D01*
X120657976Y-106697619D02*
X120705595Y-106650000D01*
X120800833Y-106602380D01*
X121038928Y-106602380D01*
X121134166Y-106650000D01*
X121181785Y-106697619D01*
X121229404Y-106792857D01*
X121229404Y-106888095D01*
X121181785Y-107030952D01*
X120610357Y-107602380D01*
X121229404Y-107602380D01*
G04 #@! TO.C,D1*
X113561904Y-104332380D02*
X113561904Y-103332380D01*
X113800000Y-103332380D01*
X113942857Y-103380000D01*
X114038095Y-103475238D01*
X114085714Y-103570476D01*
X114133333Y-103760952D01*
X114133333Y-103903809D01*
X114085714Y-104094285D01*
X114038095Y-104189523D01*
X113942857Y-104284761D01*
X113800000Y-104332380D01*
X113561904Y-104332380D01*
X115085714Y-104332380D02*
X114514285Y-104332380D01*
X114800000Y-104332380D02*
X114800000Y-103332380D01*
X114704761Y-103475238D01*
X114609523Y-103570476D01*
X114514285Y-103618095D01*
G04 #@! TO.C,D2*
X113561904Y-101332380D02*
X113561904Y-100332380D01*
X113800000Y-100332380D01*
X113942857Y-100380000D01*
X114038095Y-100475238D01*
X114085714Y-100570476D01*
X114133333Y-100760952D01*
X114133333Y-100903809D01*
X114085714Y-101094285D01*
X114038095Y-101189523D01*
X113942857Y-101284761D01*
X113800000Y-101332380D01*
X113561904Y-101332380D01*
X114514285Y-100427619D02*
X114561904Y-100380000D01*
X114657142Y-100332380D01*
X114895238Y-100332380D01*
X114990476Y-100380000D01*
X115038095Y-100427619D01*
X115085714Y-100522857D01*
X115085714Y-100618095D01*
X115038095Y-100760952D01*
X114466666Y-101332380D01*
X115085714Y-101332380D01*
G04 #@! TO.C,D3*
X113561904Y-98332380D02*
X113561904Y-97332380D01*
X113800000Y-97332380D01*
X113942857Y-97380000D01*
X114038095Y-97475238D01*
X114085714Y-97570476D01*
X114133333Y-97760952D01*
X114133333Y-97903809D01*
X114085714Y-98094285D01*
X114038095Y-98189523D01*
X113942857Y-98284761D01*
X113800000Y-98332380D01*
X113561904Y-98332380D01*
X114466666Y-97332380D02*
X115085714Y-97332380D01*
X114752380Y-97713333D01*
X114895238Y-97713333D01*
X114990476Y-97760952D01*
X115038095Y-97808571D01*
X115085714Y-97903809D01*
X115085714Y-98141904D01*
X115038095Y-98237142D01*
X114990476Y-98284761D01*
X114895238Y-98332380D01*
X114609523Y-98332380D01*
X114514285Y-98284761D01*
X114466666Y-98237142D01*
G04 #@! TO.C,R19*
X124357142Y-103302380D02*
X124023809Y-102826190D01*
X123785714Y-103302380D02*
X123785714Y-102302380D01*
X124166666Y-102302380D01*
X124261904Y-102350000D01*
X124309523Y-102397619D01*
X124357142Y-102492857D01*
X124357142Y-102635714D01*
X124309523Y-102730952D01*
X124261904Y-102778571D01*
X124166666Y-102826190D01*
X123785714Y-102826190D01*
X125309523Y-103302380D02*
X124738095Y-103302380D01*
X125023809Y-103302380D02*
X125023809Y-102302380D01*
X124928571Y-102445238D01*
X124833333Y-102540476D01*
X124738095Y-102588095D01*
X125785714Y-103302380D02*
X125976190Y-103302380D01*
X126071428Y-103254761D01*
X126119047Y-103207142D01*
X126214285Y-103064285D01*
X126261904Y-102873809D01*
X126261904Y-102492857D01*
X126214285Y-102397619D01*
X126166666Y-102350000D01*
X126071428Y-102302380D01*
X125880952Y-102302380D01*
X125785714Y-102350000D01*
X125738095Y-102397619D01*
X125690476Y-102492857D01*
X125690476Y-102730952D01*
X125738095Y-102826190D01*
X125785714Y-102873809D01*
X125880952Y-102921428D01*
X126071428Y-102921428D01*
X126166666Y-102873809D01*
X126214285Y-102826190D01*
X126261904Y-102730952D01*
G04 #@! TO.C,C1*
X136333333Y-108277142D02*
X136285714Y-108324761D01*
X136142857Y-108372380D01*
X136047619Y-108372380D01*
X135904761Y-108324761D01*
X135809523Y-108229523D01*
X135761904Y-108134285D01*
X135714285Y-107943809D01*
X135714285Y-107800952D01*
X135761904Y-107610476D01*
X135809523Y-107515238D01*
X135904761Y-107420000D01*
X136047619Y-107372380D01*
X136142857Y-107372380D01*
X136285714Y-107420000D01*
X136333333Y-107467619D01*
X137285714Y-108372380D02*
X136714285Y-108372380D01*
X137000000Y-108372380D02*
X137000000Y-107372380D01*
X136904761Y-107515238D01*
X136809523Y-107610476D01*
X136714285Y-107658095D01*
X132739047Y-106411428D02*
X133500952Y-106411428D01*
X133120000Y-106792380D02*
X133120000Y-106030476D01*
G04 #@! TO.C,D5*
X122752380Y-98238095D02*
X121752380Y-98238095D01*
X121752380Y-98000000D01*
X121800000Y-97857142D01*
X121895238Y-97761904D01*
X121990476Y-97714285D01*
X122180952Y-97666666D01*
X122323809Y-97666666D01*
X122514285Y-97714285D01*
X122609523Y-97761904D01*
X122704761Y-97857142D01*
X122752380Y-98000000D01*
X122752380Y-98238095D01*
X121752380Y-96761904D02*
X121752380Y-97238095D01*
X122228571Y-97285714D01*
X122180952Y-97238095D01*
X122133333Y-97142857D01*
X122133333Y-96904761D01*
X122180952Y-96809523D01*
X122228571Y-96761904D01*
X122323809Y-96714285D01*
X122561904Y-96714285D01*
X122657142Y-96761904D01*
X122704761Y-96809523D01*
X122752380Y-96904761D01*
X122752380Y-97142857D01*
X122704761Y-97238095D01*
X122657142Y-97285714D01*
G04 #@! TO.C,R20*
X128889642Y-103302380D02*
X128556309Y-102826190D01*
X128318214Y-103302380D02*
X128318214Y-102302380D01*
X128699166Y-102302380D01*
X128794404Y-102350000D01*
X128842023Y-102397619D01*
X128889642Y-102492857D01*
X128889642Y-102635714D01*
X128842023Y-102730952D01*
X128794404Y-102778571D01*
X128699166Y-102826190D01*
X128318214Y-102826190D01*
X129270595Y-102397619D02*
X129318214Y-102350000D01*
X129413452Y-102302380D01*
X129651547Y-102302380D01*
X129746785Y-102350000D01*
X129794404Y-102397619D01*
X129842023Y-102492857D01*
X129842023Y-102588095D01*
X129794404Y-102730952D01*
X129222976Y-103302380D01*
X129842023Y-103302380D01*
X130461071Y-102302380D02*
X130556309Y-102302380D01*
X130651547Y-102350000D01*
X130699166Y-102397619D01*
X130746785Y-102492857D01*
X130794404Y-102683333D01*
X130794404Y-102921428D01*
X130746785Y-103111904D01*
X130699166Y-103207142D01*
X130651547Y-103254761D01*
X130556309Y-103302380D01*
X130461071Y-103302380D01*
X130365833Y-103254761D01*
X130318214Y-103207142D01*
X130270595Y-103111904D01*
X130222976Y-102921428D01*
X130222976Y-102683333D01*
X130270595Y-102492857D01*
X130318214Y-102397619D01*
X130365833Y-102350000D01*
X130461071Y-102302380D01*
G04 #@! TO.C,R21*
X135889642Y-98302380D02*
X135556309Y-97826190D01*
X135318214Y-98302380D02*
X135318214Y-97302380D01*
X135699166Y-97302380D01*
X135794404Y-97350000D01*
X135842023Y-97397619D01*
X135889642Y-97492857D01*
X135889642Y-97635714D01*
X135842023Y-97730952D01*
X135794404Y-97778571D01*
X135699166Y-97826190D01*
X135318214Y-97826190D01*
X136270595Y-97397619D02*
X136318214Y-97350000D01*
X136413452Y-97302380D01*
X136651547Y-97302380D01*
X136746785Y-97350000D01*
X136794404Y-97397619D01*
X136842023Y-97492857D01*
X136842023Y-97588095D01*
X136794404Y-97730952D01*
X136222976Y-98302380D01*
X136842023Y-98302380D01*
X137794404Y-98302380D02*
X137222976Y-98302380D01*
X137508690Y-98302380D02*
X137508690Y-97302380D01*
X137413452Y-97445238D01*
X137318214Y-97540476D01*
X137222976Y-97588095D01*
G04 #@! TO.C,REF\002A\002A*
X114666666Y-85952380D02*
X114333333Y-85476190D01*
X114095238Y-85952380D02*
X114095238Y-84952380D01*
X114476190Y-84952380D01*
X114571428Y-85000000D01*
X114619047Y-85047619D01*
X114666666Y-85142857D01*
X114666666Y-85285714D01*
X114619047Y-85380952D01*
X114571428Y-85428571D01*
X114476190Y-85476190D01*
X114095238Y-85476190D01*
X115095238Y-85428571D02*
X115428571Y-85428571D01*
X115571428Y-85952380D02*
X115095238Y-85952380D01*
X115095238Y-84952380D01*
X115571428Y-84952380D01*
X116333333Y-85428571D02*
X116000000Y-85428571D01*
X116000000Y-85952380D02*
X116000000Y-84952380D01*
X116476190Y-84952380D01*
X117000000Y-84952380D02*
X117000000Y-85190476D01*
X116761904Y-85095238D02*
X117000000Y-85190476D01*
X117238095Y-85095238D01*
X116857142Y-85380952D02*
X117000000Y-85190476D01*
X117142857Y-85380952D01*
X117761904Y-84952380D02*
X117761904Y-85190476D01*
X117523809Y-85095238D02*
X117761904Y-85190476D01*
X118000000Y-85095238D01*
X117619047Y-85380952D02*
X117761904Y-85190476D01*
X117904761Y-85380952D01*
X132166666Y-58952380D02*
X131833333Y-58476190D01*
X131595238Y-58952380D02*
X131595238Y-57952380D01*
X131976190Y-57952380D01*
X132071428Y-58000000D01*
X132119047Y-58047619D01*
X132166666Y-58142857D01*
X132166666Y-58285714D01*
X132119047Y-58380952D01*
X132071428Y-58428571D01*
X131976190Y-58476190D01*
X131595238Y-58476190D01*
X132595238Y-58428571D02*
X132928571Y-58428571D01*
X133071428Y-58952380D02*
X132595238Y-58952380D01*
X132595238Y-57952380D01*
X133071428Y-57952380D01*
X133833333Y-58428571D02*
X133500000Y-58428571D01*
X133500000Y-58952380D02*
X133500000Y-57952380D01*
X133976190Y-57952380D01*
X134500000Y-57952380D02*
X134500000Y-58190476D01*
X134261904Y-58095238D02*
X134500000Y-58190476D01*
X134738095Y-58095238D01*
X134357142Y-58380952D02*
X134500000Y-58190476D01*
X134642857Y-58380952D01*
X135261904Y-57952380D02*
X135261904Y-58190476D01*
X135023809Y-58095238D02*
X135261904Y-58190476D01*
X135500000Y-58095238D01*
X135119047Y-58380952D02*
X135261904Y-58190476D01*
X135404761Y-58380952D01*
X154666666Y-134452380D02*
X154333333Y-133976190D01*
X154095238Y-134452380D02*
X154095238Y-133452380D01*
X154476190Y-133452380D01*
X154571428Y-133500000D01*
X154619047Y-133547619D01*
X154666666Y-133642857D01*
X154666666Y-133785714D01*
X154619047Y-133880952D01*
X154571428Y-133928571D01*
X154476190Y-133976190D01*
X154095238Y-133976190D01*
X155095238Y-133928571D02*
X155428571Y-133928571D01*
X155571428Y-134452380D02*
X155095238Y-134452380D01*
X155095238Y-133452380D01*
X155571428Y-133452380D01*
X156333333Y-133928571D02*
X156000000Y-133928571D01*
X156000000Y-134452380D02*
X156000000Y-133452380D01*
X156476190Y-133452380D01*
X157000000Y-133452380D02*
X157000000Y-133690476D01*
X156761904Y-133595238D02*
X157000000Y-133690476D01*
X157238095Y-133595238D01*
X156857142Y-133880952D02*
X157000000Y-133690476D01*
X157142857Y-133880952D01*
X157761904Y-133452380D02*
X157761904Y-133690476D01*
X157523809Y-133595238D02*
X157761904Y-133690476D01*
X158000000Y-133595238D01*
X157619047Y-133880952D02*
X157761904Y-133690476D01*
X157904761Y-133880952D01*
G04 #@! TO.C,D4*
X113551904Y-110472380D02*
X113551904Y-109472380D01*
X113790000Y-109472380D01*
X113932857Y-109520000D01*
X114028095Y-109615238D01*
X114075714Y-109710476D01*
X114123333Y-109900952D01*
X114123333Y-110043809D01*
X114075714Y-110234285D01*
X114028095Y-110329523D01*
X113932857Y-110424761D01*
X113790000Y-110472380D01*
X113551904Y-110472380D01*
X114980476Y-109805714D02*
X114980476Y-110472380D01*
X114742380Y-109424761D02*
X114504285Y-110139047D01*
X115123333Y-110139047D01*
G04 #@! TO.C,R8*
X116802380Y-109666666D02*
X116326190Y-110000000D01*
X116802380Y-110238095D02*
X115802380Y-110238095D01*
X115802380Y-109857142D01*
X115850000Y-109761904D01*
X115897619Y-109714285D01*
X115992857Y-109666666D01*
X116135714Y-109666666D01*
X116230952Y-109714285D01*
X116278571Y-109761904D01*
X116326190Y-109857142D01*
X116326190Y-110238095D01*
X116230952Y-109095238D02*
X116183333Y-109190476D01*
X116135714Y-109238095D01*
X116040476Y-109285714D01*
X115992857Y-109285714D01*
X115897619Y-109238095D01*
X115850000Y-109190476D01*
X115802380Y-109095238D01*
X115802380Y-108904761D01*
X115850000Y-108809523D01*
X115897619Y-108761904D01*
X115992857Y-108714285D01*
X116040476Y-108714285D01*
X116135714Y-108761904D01*
X116183333Y-108809523D01*
X116230952Y-108904761D01*
X116230952Y-109095238D01*
X116278571Y-109190476D01*
X116326190Y-109238095D01*
X116421428Y-109285714D01*
X116611904Y-109285714D01*
X116707142Y-109238095D01*
X116754761Y-109190476D01*
X116802380Y-109095238D01*
X116802380Y-108904761D01*
X116754761Y-108809523D01*
X116707142Y-108761904D01*
X116611904Y-108714285D01*
X116421428Y-108714285D01*
X116326190Y-108761904D01*
X116278571Y-108809523D01*
X116230952Y-108904761D01*
G04 #@! TO.C,R23*
X116324642Y-129802380D02*
X115991309Y-129326190D01*
X115753214Y-129802380D02*
X115753214Y-128802380D01*
X116134166Y-128802380D01*
X116229404Y-128850000D01*
X116277023Y-128897619D01*
X116324642Y-128992857D01*
X116324642Y-129135714D01*
X116277023Y-129230952D01*
X116229404Y-129278571D01*
X116134166Y-129326190D01*
X115753214Y-129326190D01*
X116705595Y-128897619D02*
X116753214Y-128850000D01*
X116848452Y-128802380D01*
X117086547Y-128802380D01*
X117181785Y-128850000D01*
X117229404Y-128897619D01*
X117277023Y-128992857D01*
X117277023Y-129088095D01*
X117229404Y-129230952D01*
X116657976Y-129802380D01*
X117277023Y-129802380D01*
X117610357Y-128802380D02*
X118229404Y-128802380D01*
X117896071Y-129183333D01*
X118038928Y-129183333D01*
X118134166Y-129230952D01*
X118181785Y-129278571D01*
X118229404Y-129373809D01*
X118229404Y-129611904D01*
X118181785Y-129707142D01*
X118134166Y-129754761D01*
X118038928Y-129802380D01*
X117753214Y-129802380D01*
X117657976Y-129754761D01*
X117610357Y-129707142D01*
G04 #@! TO.C,SW1*
X112904761Y-125833333D02*
X112952380Y-125690476D01*
X112952380Y-125452380D01*
X112904761Y-125357142D01*
X112857142Y-125309523D01*
X112761904Y-125261904D01*
X112666666Y-125261904D01*
X112571428Y-125309523D01*
X112523809Y-125357142D01*
X112476190Y-125452380D01*
X112428571Y-125642857D01*
X112380952Y-125738095D01*
X112333333Y-125785714D01*
X112238095Y-125833333D01*
X112142857Y-125833333D01*
X112047619Y-125785714D01*
X112000000Y-125738095D01*
X111952380Y-125642857D01*
X111952380Y-125404761D01*
X112000000Y-125261904D01*
X111952380Y-124928571D02*
X112952380Y-124690476D01*
X112238095Y-124500000D01*
X112952380Y-124309523D01*
X111952380Y-124071428D01*
X112952380Y-123166666D02*
X112952380Y-123738095D01*
X112952380Y-123452380D02*
X111952380Y-123452380D01*
X112095238Y-123547619D01*
X112190476Y-123642857D01*
X112238095Y-123738095D01*
G04 #@! TO.C,D7*
X113596904Y-113602380D02*
X113596904Y-112602380D01*
X113835000Y-112602380D01*
X113977857Y-112650000D01*
X114073095Y-112745238D01*
X114120714Y-112840476D01*
X114168333Y-113030952D01*
X114168333Y-113173809D01*
X114120714Y-113364285D01*
X114073095Y-113459523D01*
X113977857Y-113554761D01*
X113835000Y-113602380D01*
X113596904Y-113602380D01*
X114501666Y-112602380D02*
X115168333Y-112602380D01*
X114739761Y-113602380D01*
G04 #@! TO.C,R24*
X116102380Y-114735357D02*
X115626190Y-115068690D01*
X116102380Y-115306785D02*
X115102380Y-115306785D01*
X115102380Y-114925833D01*
X115150000Y-114830595D01*
X115197619Y-114782976D01*
X115292857Y-114735357D01*
X115435714Y-114735357D01*
X115530952Y-114782976D01*
X115578571Y-114830595D01*
X115626190Y-114925833D01*
X115626190Y-115306785D01*
X115197619Y-114354404D02*
X115150000Y-114306785D01*
X115102380Y-114211547D01*
X115102380Y-113973452D01*
X115150000Y-113878214D01*
X115197619Y-113830595D01*
X115292857Y-113782976D01*
X115388095Y-113782976D01*
X115530952Y-113830595D01*
X116102380Y-114402023D01*
X116102380Y-113782976D01*
X115435714Y-112925833D02*
X116102380Y-112925833D01*
X115054761Y-113163928D02*
X115769047Y-113402023D01*
X115769047Y-112782976D01*
G04 #@! TO.C,GPIO*
X149000000Y-137000000D02*
X148904761Y-136952380D01*
X148761904Y-136952380D01*
X148619047Y-137000000D01*
X148523809Y-137095238D01*
X148476190Y-137190476D01*
X148428571Y-137380952D01*
X148428571Y-137523809D01*
X148476190Y-137714285D01*
X148523809Y-137809523D01*
X148619047Y-137904761D01*
X148761904Y-137952380D01*
X148857142Y-137952380D01*
X149000000Y-137904761D01*
X149047619Y-137857142D01*
X149047619Y-137523809D01*
X148857142Y-137523809D01*
X149476190Y-137952380D02*
X149476190Y-136952380D01*
X149857142Y-136952380D01*
X149952380Y-137000000D01*
X150000000Y-137047619D01*
X150047619Y-137142857D01*
X150047619Y-137285714D01*
X150000000Y-137380952D01*
X149952380Y-137428571D01*
X149857142Y-137476190D01*
X149476190Y-137476190D01*
X150476190Y-137952380D02*
X150476190Y-136952380D01*
X151142857Y-136952380D02*
X151333333Y-136952380D01*
X151428571Y-137000000D01*
X151523809Y-137095238D01*
X151571428Y-137285714D01*
X151571428Y-137619047D01*
X151523809Y-137809523D01*
X151428571Y-137904761D01*
X151333333Y-137952380D01*
X151142857Y-137952380D01*
X151047619Y-137904761D01*
X150952380Y-137809523D01*
X150904761Y-137619047D01*
X150904761Y-137285714D01*
X150952380Y-137095238D01*
X151047619Y-137000000D01*
X151142857Y-136952380D01*
G04 #@! TO.C,VT*
X128285714Y-106452380D02*
X128619047Y-107452380D01*
X128952380Y-106452380D01*
X129142857Y-106452380D02*
X129714285Y-106452380D01*
X129428571Y-107452380D02*
X129428571Y-106452380D01*
G04 #@! TO.C,P1*
X146361904Y-65902380D02*
X146361904Y-64902380D01*
X146742857Y-64902380D01*
X146838095Y-64950000D01*
X146885714Y-64997619D01*
X146933333Y-65092857D01*
X146933333Y-65235714D01*
X146885714Y-65330952D01*
X146838095Y-65378571D01*
X146742857Y-65426190D01*
X146361904Y-65426190D01*
X147885714Y-65902380D02*
X147314285Y-65902380D01*
X147600000Y-65902380D02*
X147600000Y-64902380D01*
X147504761Y-65045238D01*
X147409523Y-65140476D01*
X147314285Y-65188095D01*
G04 #@! TO.C,J1*
X158432380Y-133323333D02*
X159146666Y-133323333D01*
X159289523Y-133370952D01*
X159384761Y-133466190D01*
X159432380Y-133609047D01*
X159432380Y-133704285D01*
X159432380Y-132323333D02*
X159432380Y-132894761D01*
X159432380Y-132609047D02*
X158432380Y-132609047D01*
X158575238Y-132704285D01*
X158670476Y-132799523D01*
X158718095Y-132894761D01*
G04 #@! TD*
M02*
