G04 #@! TF.GenerationSoftware,KiCad,Pcbnew,no-vcs-found-104b606~61~ubuntu16.04.1*
G04 #@! TF.CreationDate,2018-02-16T14:36:21-05:00*
G04 #@! TF.ProjectId,D21_2550,4432315F323535302E6B696361645F70,rev?*
G04 #@! TF.SameCoordinates,Original*
G04 #@! TF.FileFunction,Other,Fab,Bot*
%FSLAX46Y46*%
G04 Gerber Fmt 4.6, Leading zero omitted, Abs format (unit mm)*
G04 Created by KiCad (PCBNEW no-vcs-found-104b606~61~ubuntu16.04.1) date Fri Feb 16 14:36:21 2018*
%MOMM*%
%LPD*%
G01*
G04 APERTURE LIST*
%ADD10C,0.100000*%
%ADD11C,0.150000*%
G04 APERTURE END LIST*
D10*
X99400000Y-104000000D02*
X100600000Y-104000000D01*
X100600000Y-104000000D02*
X100600000Y-102000000D01*
X100600000Y-102000000D02*
X99400000Y-102000000D01*
X99400000Y-102000000D02*
X99400000Y-104000000D01*
X100540000Y-124042500D02*
X100540000Y-122042500D01*
X99340000Y-124042500D02*
X100540000Y-124042500D01*
X99340000Y-122042500D02*
X99340000Y-124042500D01*
X100540000Y-122042500D02*
X99340000Y-122042500D01*
X125000000Y-87190000D02*
X126050000Y-88240000D01*
X125000000Y-87190000D02*
X125000000Y-81540000D01*
X126050000Y-88240000D02*
X128700000Y-88240000D01*
X125000000Y-81540000D02*
X128700000Y-81540000D01*
X128700000Y-88240000D02*
X128700000Y-81540000D01*
X142460000Y-88350000D02*
X142460000Y-81650000D01*
X138760000Y-81650000D02*
X142460000Y-81650000D01*
X139810000Y-88350000D02*
X142460000Y-88350000D01*
X138760000Y-87300000D02*
X138760000Y-81650000D01*
X138760000Y-87300000D02*
X139810000Y-88350000D01*
X153150000Y-87300000D02*
X154200000Y-88350000D01*
X153150000Y-87300000D02*
X153150000Y-81650000D01*
X154200000Y-88350000D02*
X156850000Y-88350000D01*
X153150000Y-81650000D02*
X156850000Y-81650000D01*
X156850000Y-88350000D02*
X156850000Y-81650000D01*
X101990000Y-126262500D02*
X101990000Y-128262500D01*
X103190000Y-126262500D02*
X101990000Y-126262500D01*
X103190000Y-128262500D02*
X103190000Y-126262500D01*
X101990000Y-128262500D02*
X103190000Y-128262500D01*
X166908475Y-96373566D02*
X164408475Y-96373566D01*
X164408475Y-96373566D02*
X164408475Y-99573566D01*
X164408475Y-99573566D02*
X166908475Y-99573566D01*
X166908475Y-99573566D02*
X166908475Y-96373566D01*
X177815199Y-99195802D02*
X177815199Y-95995802D01*
X175315199Y-99195802D02*
X177815199Y-99195802D01*
X175315199Y-95995802D02*
X175315199Y-99195802D01*
X177815199Y-95995802D02*
X175315199Y-95995802D01*
X184660612Y-96141349D02*
X182160612Y-96141349D01*
X182160612Y-96141349D02*
X182160612Y-99341349D01*
X182160612Y-99341349D02*
X184660612Y-99341349D01*
X184660612Y-99341349D02*
X184660612Y-96141349D01*
X120600000Y-86957500D02*
X120600000Y-84957500D01*
X119400000Y-86957500D02*
X120600000Y-86957500D01*
X119400000Y-84957500D02*
X119400000Y-86957500D01*
X120600000Y-84957500D02*
X119400000Y-84957500D01*
X134600000Y-85042500D02*
X133400000Y-85042500D01*
X133400000Y-85042500D02*
X133400000Y-87042500D01*
X133400000Y-87042500D02*
X134600000Y-87042500D01*
X134600000Y-87042500D02*
X134600000Y-85042500D01*
X148600000Y-87000000D02*
X148600000Y-85000000D01*
X147400000Y-87000000D02*
X148600000Y-87000000D01*
X147400000Y-85000000D02*
X147400000Y-87000000D01*
X148600000Y-85000000D02*
X147400000Y-85000000D01*
X127570000Y-94400000D02*
X127570000Y-97600000D01*
X127570000Y-97600000D02*
X133870000Y-97600000D01*
X133870000Y-97600000D02*
X133870000Y-94400000D01*
X133870000Y-94400000D02*
X127570000Y-94400000D01*
X143690000Y-94400000D02*
X137390000Y-94400000D01*
X143690000Y-97600000D02*
X143690000Y-94400000D01*
X137390000Y-97600000D02*
X143690000Y-97600000D01*
X137390000Y-94400000D02*
X137390000Y-97600000D01*
X146850000Y-94400000D02*
X146850000Y-97600000D01*
X146850000Y-97600000D02*
X153150000Y-97600000D01*
X153150000Y-97600000D02*
X153150000Y-94400000D01*
X153150000Y-94400000D02*
X146850000Y-94400000D01*
D11*
X110250000Y-121950000D02*
X116750000Y-121950000D01*
X116750000Y-121950000D02*
X116750000Y-104050000D01*
X116750000Y-104050000D02*
X109250000Y-104050000D01*
X109250000Y-104050000D02*
X109250000Y-120950000D01*
X109250000Y-120950000D02*
X110250000Y-121950000D01*
D10*
X162682000Y-87640000D02*
X161632000Y-88690000D01*
X162682000Y-87640000D02*
X168332000Y-87640000D01*
X161632000Y-88690000D02*
X161632000Y-91340000D01*
X168332000Y-87640000D02*
X168332000Y-91340000D01*
X161632000Y-91340000D02*
X168332000Y-91340000D01*
X170824000Y-91340000D02*
X177524000Y-91340000D01*
X177524000Y-87640000D02*
X177524000Y-91340000D01*
X170824000Y-88690000D02*
X170824000Y-91340000D01*
X171874000Y-87640000D02*
X177524000Y-87640000D01*
X171874000Y-87640000D02*
X170824000Y-88690000D01*
X181270000Y-87640000D02*
X180220000Y-88690000D01*
X181270000Y-87640000D02*
X186920000Y-87640000D01*
X180220000Y-88690000D02*
X180220000Y-91340000D01*
X186920000Y-87640000D02*
X186920000Y-91340000D01*
X180220000Y-91340000D02*
X186920000Y-91340000D01*
X97650000Y-107300000D02*
X102350000Y-107300000D01*
X102350000Y-107300000D02*
X102350000Y-118700000D01*
X102350000Y-118700000D02*
X97650000Y-118700000D01*
X97650000Y-118700000D02*
X97650000Y-107300000D01*
X97885000Y-109985000D02*
X97885000Y-116015000D01*
X102115000Y-109985000D02*
X102115000Y-116015000D01*
X102115000Y-109985000D02*
G75*
G03X97885000Y-109985000I-2115000J0D01*
G01*
X102115000Y-116015000D02*
G75*
G02X97885000Y-116015000I-2115000J0D01*
G01*
X124100000Y-111000000D02*
X124250000Y-111000000D01*
X124100000Y-111200000D02*
X123800000Y-111000000D01*
X124100000Y-110800000D02*
X124100000Y-111200000D01*
X123800000Y-111000000D02*
X124100000Y-110800000D01*
X123800000Y-111000000D02*
X123650000Y-111000000D01*
X123800000Y-110800000D02*
X123800000Y-111200000D01*
X124650000Y-111450000D02*
X124650000Y-110550000D01*
X123350000Y-111450000D02*
X124650000Y-111450000D01*
X123350000Y-110550000D02*
X123350000Y-111450000D01*
X124650000Y-110550000D02*
X123350000Y-110550000D01*
X103660000Y-124207500D02*
X104960000Y-124207500D01*
X104960000Y-124207500D02*
X104960000Y-123307500D01*
X104960000Y-123307500D02*
X103660000Y-123307500D01*
X103660000Y-123307500D02*
X103660000Y-124207500D01*
X104510000Y-123957500D02*
X104510000Y-123557500D01*
X104510000Y-123757500D02*
X104660000Y-123757500D01*
X104510000Y-123757500D02*
X104210000Y-123957500D01*
X104210000Y-123957500D02*
X104210000Y-123557500D01*
X104210000Y-123557500D02*
X104510000Y-123757500D01*
X104210000Y-123757500D02*
X104060000Y-123757500D01*
X166458475Y-102397022D02*
X164858475Y-102397022D01*
X164858475Y-102397022D02*
X164858475Y-105597022D01*
X164858475Y-105597022D02*
X166458475Y-105597022D01*
X166458475Y-105597022D02*
X166458475Y-102397022D01*
X177365199Y-105600302D02*
X177365199Y-102400302D01*
X175765199Y-105600302D02*
X177365199Y-105600302D01*
X175765199Y-102400302D02*
X175765199Y-105600302D01*
X177365199Y-102400302D02*
X175765199Y-102400302D01*
X184156612Y-102369349D02*
X182556612Y-102369349D01*
X182556612Y-102369349D02*
X182556612Y-105569349D01*
X182556612Y-105569349D02*
X184156612Y-105569349D01*
X184156612Y-105569349D02*
X184156612Y-102369349D01*
X109320000Y-127140000D02*
G75*
G03X109320000Y-127140000I-2100000J0D01*
G01*
X109350000Y-125010000D02*
X109350000Y-129270000D01*
X105760000Y-125010000D02*
X109350000Y-125010000D01*
X105090000Y-125680000D02*
X105760000Y-125010000D01*
X105090000Y-128600000D02*
X105090000Y-125680000D01*
X105760000Y-129270000D02*
X105090000Y-128600000D01*
X109350000Y-129270000D02*
X105760000Y-129270000D01*
D11*
X97602380Y-101452380D02*
X97602380Y-102071428D01*
X97983333Y-101738095D01*
X97983333Y-101880952D01*
X98030952Y-101976190D01*
X98078571Y-102023809D01*
X98173809Y-102071428D01*
X98411904Y-102071428D01*
X98507142Y-102023809D01*
X98554761Y-101976190D01*
X98602380Y-101880952D01*
X98602380Y-101595238D01*
X98554761Y-101500000D01*
X98507142Y-101452380D01*
X97602380Y-102404761D02*
X97602380Y-103023809D01*
X97983333Y-102690476D01*
X97983333Y-102833333D01*
X98030952Y-102928571D01*
X98078571Y-102976190D01*
X98173809Y-103023809D01*
X98411904Y-103023809D01*
X98507142Y-102976190D01*
X98554761Y-102928571D01*
X98602380Y-102833333D01*
X98602380Y-102547619D01*
X98554761Y-102452380D01*
X98507142Y-102404761D01*
X97935714Y-103452380D02*
X98935714Y-103452380D01*
X97983333Y-103452380D02*
X97935714Y-103547619D01*
X97935714Y-103738095D01*
X97983333Y-103833333D01*
X98030952Y-103880952D01*
X98126190Y-103928571D01*
X98411904Y-103928571D01*
X98507142Y-103880952D01*
X98554761Y-103833333D01*
X98602380Y-103738095D01*
X98602380Y-103547619D01*
X98554761Y-103452380D01*
X97935714Y-104214285D02*
X97935714Y-104595238D01*
X98602380Y-104357142D02*
X97745238Y-104357142D01*
X97650000Y-104404761D01*
X97602380Y-104500000D01*
X97602380Y-104595238D01*
X101242380Y-121494880D02*
X101242380Y-122113928D01*
X101623333Y-121780595D01*
X101623333Y-121923452D01*
X101670952Y-122018690D01*
X101718571Y-122066309D01*
X101813809Y-122113928D01*
X102051904Y-122113928D01*
X102147142Y-122066309D01*
X102194761Y-122018690D01*
X102242380Y-121923452D01*
X102242380Y-121637738D01*
X102194761Y-121542500D01*
X102147142Y-121494880D01*
X101242380Y-122447261D02*
X101242380Y-123066309D01*
X101623333Y-122732976D01*
X101623333Y-122875833D01*
X101670952Y-122971071D01*
X101718571Y-123018690D01*
X101813809Y-123066309D01*
X102051904Y-123066309D01*
X102147142Y-123018690D01*
X102194761Y-122971071D01*
X102242380Y-122875833D01*
X102242380Y-122590119D01*
X102194761Y-122494880D01*
X102147142Y-122447261D01*
X101575714Y-123494880D02*
X102575714Y-123494880D01*
X101623333Y-123494880D02*
X101575714Y-123590119D01*
X101575714Y-123780595D01*
X101623333Y-123875833D01*
X101670952Y-123923452D01*
X101766190Y-123971071D01*
X102051904Y-123971071D01*
X102147142Y-123923452D01*
X102194761Y-123875833D01*
X102242380Y-123780595D01*
X102242380Y-123590119D01*
X102194761Y-123494880D01*
X101575714Y-124256785D02*
X101575714Y-124637738D01*
X102242380Y-124399642D02*
X101385238Y-124399642D01*
X101290000Y-124447261D01*
X101242380Y-124542500D01*
X101242380Y-124637738D01*
X129802380Y-80318571D02*
X130135714Y-80318571D01*
X130135714Y-80842380D02*
X130135714Y-79842380D01*
X129659523Y-79842380D01*
X129373809Y-79842380D02*
X128707142Y-79842380D01*
X129373809Y-80842380D01*
X128707142Y-80842380D01*
X128469047Y-79842380D02*
X127897619Y-79842380D01*
X128183333Y-80842380D02*
X128183333Y-79842380D01*
X127135714Y-80175714D02*
X127135714Y-80842380D01*
X127373809Y-79794761D02*
X127611904Y-80509047D01*
X126992857Y-80509047D01*
X126564285Y-80842380D02*
X126373809Y-80842380D01*
X126278571Y-80794761D01*
X126230952Y-80747142D01*
X126135714Y-80604285D01*
X126088095Y-80413809D01*
X126088095Y-80032857D01*
X126135714Y-79937619D01*
X126183333Y-79890000D01*
X126278571Y-79842380D01*
X126469047Y-79842380D01*
X126564285Y-79890000D01*
X126611904Y-79937619D01*
X126659523Y-80032857D01*
X126659523Y-80270952D01*
X126611904Y-80366190D01*
X126564285Y-80413809D01*
X126469047Y-80461428D01*
X126278571Y-80461428D01*
X126183333Y-80413809D01*
X126135714Y-80366190D01*
X126088095Y-80270952D01*
X125754761Y-79842380D02*
X125135714Y-79842380D01*
X125469047Y-80223333D01*
X125326190Y-80223333D01*
X125230952Y-80270952D01*
X125183333Y-80318571D01*
X125135714Y-80413809D01*
X125135714Y-80651904D01*
X125183333Y-80747142D01*
X125230952Y-80794761D01*
X125326190Y-80842380D01*
X125611904Y-80842380D01*
X125707142Y-80794761D01*
X125754761Y-80747142D01*
X124850000Y-79842380D02*
X124278571Y-79842380D01*
X124564285Y-80842380D02*
X124564285Y-79842380D01*
X123992857Y-80556666D02*
X123516666Y-80556666D01*
X124088095Y-80842380D02*
X123754761Y-79842380D01*
X123421428Y-80842380D01*
X143562380Y-80428571D02*
X143895714Y-80428571D01*
X143895714Y-80952380D02*
X143895714Y-79952380D01*
X143419523Y-79952380D01*
X143133809Y-79952380D02*
X142467142Y-79952380D01*
X143133809Y-80952380D01*
X142467142Y-80952380D01*
X142229047Y-79952380D02*
X141657619Y-79952380D01*
X141943333Y-80952380D02*
X141943333Y-79952380D01*
X140895714Y-80285714D02*
X140895714Y-80952380D01*
X141133809Y-79904761D02*
X141371904Y-80619047D01*
X140752857Y-80619047D01*
X140324285Y-80952380D02*
X140133809Y-80952380D01*
X140038571Y-80904761D01*
X139990952Y-80857142D01*
X139895714Y-80714285D01*
X139848095Y-80523809D01*
X139848095Y-80142857D01*
X139895714Y-80047619D01*
X139943333Y-80000000D01*
X140038571Y-79952380D01*
X140229047Y-79952380D01*
X140324285Y-80000000D01*
X140371904Y-80047619D01*
X140419523Y-80142857D01*
X140419523Y-80380952D01*
X140371904Y-80476190D01*
X140324285Y-80523809D01*
X140229047Y-80571428D01*
X140038571Y-80571428D01*
X139943333Y-80523809D01*
X139895714Y-80476190D01*
X139848095Y-80380952D01*
X139514761Y-79952380D02*
X138895714Y-79952380D01*
X139229047Y-80333333D01*
X139086190Y-80333333D01*
X138990952Y-80380952D01*
X138943333Y-80428571D01*
X138895714Y-80523809D01*
X138895714Y-80761904D01*
X138943333Y-80857142D01*
X138990952Y-80904761D01*
X139086190Y-80952380D01*
X139371904Y-80952380D01*
X139467142Y-80904761D01*
X139514761Y-80857142D01*
X138610000Y-79952380D02*
X138038571Y-79952380D01*
X138324285Y-80952380D02*
X138324285Y-79952380D01*
X137752857Y-80666666D02*
X137276666Y-80666666D01*
X137848095Y-80952380D02*
X137514761Y-79952380D01*
X137181428Y-80952380D01*
X157952380Y-80428571D02*
X158285714Y-80428571D01*
X158285714Y-80952380D02*
X158285714Y-79952380D01*
X157809523Y-79952380D01*
X157523809Y-79952380D02*
X156857142Y-79952380D01*
X157523809Y-80952380D01*
X156857142Y-80952380D01*
X156619047Y-79952380D02*
X156047619Y-79952380D01*
X156333333Y-80952380D02*
X156333333Y-79952380D01*
X155285714Y-80285714D02*
X155285714Y-80952380D01*
X155523809Y-79904761D02*
X155761904Y-80619047D01*
X155142857Y-80619047D01*
X154714285Y-80952380D02*
X154523809Y-80952380D01*
X154428571Y-80904761D01*
X154380952Y-80857142D01*
X154285714Y-80714285D01*
X154238095Y-80523809D01*
X154238095Y-80142857D01*
X154285714Y-80047619D01*
X154333333Y-80000000D01*
X154428571Y-79952380D01*
X154619047Y-79952380D01*
X154714285Y-80000000D01*
X154761904Y-80047619D01*
X154809523Y-80142857D01*
X154809523Y-80380952D01*
X154761904Y-80476190D01*
X154714285Y-80523809D01*
X154619047Y-80571428D01*
X154428571Y-80571428D01*
X154333333Y-80523809D01*
X154285714Y-80476190D01*
X154238095Y-80380952D01*
X153904761Y-79952380D02*
X153285714Y-79952380D01*
X153619047Y-80333333D01*
X153476190Y-80333333D01*
X153380952Y-80380952D01*
X153333333Y-80428571D01*
X153285714Y-80523809D01*
X153285714Y-80761904D01*
X153333333Y-80857142D01*
X153380952Y-80904761D01*
X153476190Y-80952380D01*
X153761904Y-80952380D01*
X153857142Y-80904761D01*
X153904761Y-80857142D01*
X153000000Y-79952380D02*
X152428571Y-79952380D01*
X152714285Y-80952380D02*
X152714285Y-79952380D01*
X152142857Y-80666666D02*
X151666666Y-80666666D01*
X152238095Y-80952380D02*
X151904761Y-79952380D01*
X151571428Y-80952380D01*
X101192380Y-126667261D02*
X101192380Y-126095833D01*
X101192380Y-126381547D02*
X100192380Y-126381547D01*
X100335238Y-126286309D01*
X100430476Y-126191071D01*
X100478095Y-126095833D01*
X100192380Y-127286309D02*
X100192380Y-127381547D01*
X100240000Y-127476785D01*
X100287619Y-127524404D01*
X100382857Y-127572023D01*
X100573333Y-127619642D01*
X100811428Y-127619642D01*
X101001904Y-127572023D01*
X101097142Y-127524404D01*
X101144761Y-127476785D01*
X101192380Y-127381547D01*
X101192380Y-127286309D01*
X101144761Y-127191071D01*
X101097142Y-127143452D01*
X101001904Y-127095833D01*
X100811428Y-127048214D01*
X100573333Y-127048214D01*
X100382857Y-127095833D01*
X100287619Y-127143452D01*
X100240000Y-127191071D01*
X100192380Y-127286309D01*
X101192380Y-128048214D02*
X100192380Y-128048214D01*
X100811428Y-128143452D02*
X101192380Y-128429166D01*
X100525714Y-128429166D02*
X100906666Y-128048214D01*
X168610855Y-97306899D02*
X168610855Y-96735470D01*
X168610855Y-97021185D02*
X167610855Y-97021185D01*
X167753713Y-96925946D01*
X167848951Y-96830708D01*
X167896570Y-96735470D01*
X167610855Y-97925946D02*
X167610855Y-98021185D01*
X167658475Y-98116423D01*
X167706094Y-98164042D01*
X167801332Y-98211661D01*
X167991808Y-98259280D01*
X168229903Y-98259280D01*
X168420379Y-98211661D01*
X168515617Y-98164042D01*
X168563236Y-98116423D01*
X168610855Y-98021185D01*
X168610855Y-97925946D01*
X168563236Y-97830708D01*
X168515617Y-97783089D01*
X168420379Y-97735470D01*
X168229903Y-97687851D01*
X167991808Y-97687851D01*
X167801332Y-97735470D01*
X167706094Y-97783089D01*
X167658475Y-97830708D01*
X167610855Y-97925946D01*
X167610855Y-98878327D02*
X167610855Y-98973566D01*
X167658475Y-99068804D01*
X167706094Y-99116423D01*
X167801332Y-99164042D01*
X167991808Y-99211661D01*
X168229903Y-99211661D01*
X168420379Y-99164042D01*
X168515617Y-99116423D01*
X168563236Y-99068804D01*
X168610855Y-98973566D01*
X168610855Y-98878327D01*
X168563236Y-98783089D01*
X168515617Y-98735470D01*
X168420379Y-98687851D01*
X168229903Y-98640232D01*
X167991808Y-98640232D01*
X167801332Y-98687851D01*
X167706094Y-98735470D01*
X167658475Y-98783089D01*
X167610855Y-98878327D01*
X179517579Y-96929135D02*
X179517579Y-96357706D01*
X179517579Y-96643421D02*
X178517579Y-96643421D01*
X178660437Y-96548182D01*
X178755675Y-96452944D01*
X178803294Y-96357706D01*
X178517579Y-97548182D02*
X178517579Y-97643421D01*
X178565199Y-97738659D01*
X178612818Y-97786278D01*
X178708056Y-97833897D01*
X178898532Y-97881516D01*
X179136627Y-97881516D01*
X179327103Y-97833897D01*
X179422341Y-97786278D01*
X179469960Y-97738659D01*
X179517579Y-97643421D01*
X179517579Y-97548182D01*
X179469960Y-97452944D01*
X179422341Y-97405325D01*
X179327103Y-97357706D01*
X179136627Y-97310087D01*
X178898532Y-97310087D01*
X178708056Y-97357706D01*
X178612818Y-97405325D01*
X178565199Y-97452944D01*
X178517579Y-97548182D01*
X178517579Y-98500563D02*
X178517579Y-98595802D01*
X178565199Y-98691040D01*
X178612818Y-98738659D01*
X178708056Y-98786278D01*
X178898532Y-98833897D01*
X179136627Y-98833897D01*
X179327103Y-98786278D01*
X179422341Y-98738659D01*
X179469960Y-98691040D01*
X179517579Y-98595802D01*
X179517579Y-98500563D01*
X179469960Y-98405325D01*
X179422341Y-98357706D01*
X179327103Y-98310087D01*
X179136627Y-98262468D01*
X178898532Y-98262468D01*
X178708056Y-98310087D01*
X178612818Y-98357706D01*
X178565199Y-98405325D01*
X178517579Y-98500563D01*
X186362992Y-97074682D02*
X186362992Y-96503253D01*
X186362992Y-96788968D02*
X185362992Y-96788968D01*
X185505850Y-96693729D01*
X185601088Y-96598491D01*
X185648707Y-96503253D01*
X185362992Y-97693729D02*
X185362992Y-97788968D01*
X185410612Y-97884206D01*
X185458231Y-97931825D01*
X185553469Y-97979444D01*
X185743945Y-98027063D01*
X185982040Y-98027063D01*
X186172516Y-97979444D01*
X186267754Y-97931825D01*
X186315373Y-97884206D01*
X186362992Y-97788968D01*
X186362992Y-97693729D01*
X186315373Y-97598491D01*
X186267754Y-97550872D01*
X186172516Y-97503253D01*
X185982040Y-97455634D01*
X185743945Y-97455634D01*
X185553469Y-97503253D01*
X185458231Y-97550872D01*
X185410612Y-97598491D01*
X185362992Y-97693729D01*
X185362992Y-98646110D02*
X185362992Y-98741349D01*
X185410612Y-98836587D01*
X185458231Y-98884206D01*
X185553469Y-98931825D01*
X185743945Y-98979444D01*
X185982040Y-98979444D01*
X186172516Y-98931825D01*
X186267754Y-98884206D01*
X186315373Y-98836587D01*
X186362992Y-98741349D01*
X186362992Y-98646110D01*
X186315373Y-98550872D01*
X186267754Y-98503253D01*
X186172516Y-98455634D01*
X185982040Y-98408015D01*
X185743945Y-98408015D01*
X185553469Y-98455634D01*
X185458231Y-98503253D01*
X185410612Y-98550872D01*
X185362992Y-98646110D01*
X121397619Y-84552738D02*
X121350000Y-84600357D01*
X121302380Y-84695595D01*
X121302380Y-84933690D01*
X121350000Y-85028928D01*
X121397619Y-85076547D01*
X121492857Y-85124166D01*
X121588095Y-85124166D01*
X121730952Y-85076547D01*
X122302380Y-84505119D01*
X122302380Y-85124166D01*
X122207142Y-85552738D02*
X122254761Y-85600357D01*
X122302380Y-85552738D01*
X122254761Y-85505119D01*
X122207142Y-85552738D01*
X122302380Y-85552738D01*
X121302380Y-85933690D02*
X121302380Y-86600357D01*
X122302380Y-86171785D01*
X122302380Y-86981309D02*
X121302380Y-86981309D01*
X121921428Y-87076547D02*
X122302380Y-87362261D01*
X121635714Y-87362261D02*
X122016666Y-86981309D01*
X135397619Y-84637738D02*
X135350000Y-84685357D01*
X135302380Y-84780595D01*
X135302380Y-85018690D01*
X135350000Y-85113928D01*
X135397619Y-85161547D01*
X135492857Y-85209166D01*
X135588095Y-85209166D01*
X135730952Y-85161547D01*
X136302380Y-84590119D01*
X136302380Y-85209166D01*
X136207142Y-85637738D02*
X136254761Y-85685357D01*
X136302380Y-85637738D01*
X136254761Y-85590119D01*
X136207142Y-85637738D01*
X136302380Y-85637738D01*
X135302380Y-86018690D02*
X135302380Y-86685357D01*
X136302380Y-86256785D01*
X136302380Y-87066309D02*
X135302380Y-87066309D01*
X135921428Y-87161547D02*
X136302380Y-87447261D01*
X135635714Y-87447261D02*
X136016666Y-87066309D01*
X149397619Y-84595238D02*
X149350000Y-84642857D01*
X149302380Y-84738095D01*
X149302380Y-84976190D01*
X149350000Y-85071428D01*
X149397619Y-85119047D01*
X149492857Y-85166666D01*
X149588095Y-85166666D01*
X149730952Y-85119047D01*
X150302380Y-84547619D01*
X150302380Y-85166666D01*
X150207142Y-85595238D02*
X150254761Y-85642857D01*
X150302380Y-85595238D01*
X150254761Y-85547619D01*
X150207142Y-85595238D01*
X150302380Y-85595238D01*
X149302380Y-85976190D02*
X149302380Y-86642857D01*
X150302380Y-86214285D01*
X150302380Y-87023809D02*
X149302380Y-87023809D01*
X149921428Y-87119047D02*
X150302380Y-87404761D01*
X149635714Y-87404761D02*
X150016666Y-87023809D01*
X131481904Y-92697619D02*
X131434285Y-92650000D01*
X131339047Y-92602380D01*
X131100952Y-92602380D01*
X131005714Y-92650000D01*
X130958095Y-92697619D01*
X130910476Y-92792857D01*
X130910476Y-92888095D01*
X130958095Y-93030952D01*
X131529523Y-93602380D01*
X130910476Y-93602380D01*
X130529523Y-92697619D02*
X130481904Y-92650000D01*
X130386666Y-92602380D01*
X130148571Y-92602380D01*
X130053333Y-92650000D01*
X130005714Y-92697619D01*
X129958095Y-92792857D01*
X129958095Y-92888095D01*
X130005714Y-93030952D01*
X130577142Y-93602380D01*
X129958095Y-93602380D01*
X141301904Y-92697619D02*
X141254285Y-92650000D01*
X141159047Y-92602380D01*
X140920952Y-92602380D01*
X140825714Y-92650000D01*
X140778095Y-92697619D01*
X140730476Y-92792857D01*
X140730476Y-92888095D01*
X140778095Y-93030952D01*
X141349523Y-93602380D01*
X140730476Y-93602380D01*
X140349523Y-92697619D02*
X140301904Y-92650000D01*
X140206666Y-92602380D01*
X139968571Y-92602380D01*
X139873333Y-92650000D01*
X139825714Y-92697619D01*
X139778095Y-92792857D01*
X139778095Y-92888095D01*
X139825714Y-93030952D01*
X140397142Y-93602380D01*
X139778095Y-93602380D01*
X150761904Y-92697619D02*
X150714285Y-92650000D01*
X150619047Y-92602380D01*
X150380952Y-92602380D01*
X150285714Y-92650000D01*
X150238095Y-92697619D01*
X150190476Y-92792857D01*
X150190476Y-92888095D01*
X150238095Y-93030952D01*
X150809523Y-93602380D01*
X150190476Y-93602380D01*
X149809523Y-92697619D02*
X149761904Y-92650000D01*
X149666666Y-92602380D01*
X149428571Y-92602380D01*
X149333333Y-92650000D01*
X149285714Y-92697619D01*
X149238095Y-92792857D01*
X149238095Y-92888095D01*
X149285714Y-93030952D01*
X149857142Y-93602380D01*
X149238095Y-93602380D01*
X119142857Y-103402380D02*
X119142857Y-102402380D01*
X118761904Y-102402380D01*
X118666666Y-102450000D01*
X118619047Y-102497619D01*
X118571428Y-102592857D01*
X118571428Y-102735714D01*
X118619047Y-102830952D01*
X118666666Y-102878571D01*
X118761904Y-102926190D01*
X119142857Y-102926190D01*
X118142857Y-103402380D02*
X118142857Y-102402380D01*
X117095238Y-103307142D02*
X117142857Y-103354761D01*
X117285714Y-103402380D01*
X117380952Y-103402380D01*
X117523809Y-103354761D01*
X117619047Y-103259523D01*
X117666666Y-103164285D01*
X117714285Y-102973809D01*
X117714285Y-102830952D01*
X117666666Y-102640476D01*
X117619047Y-102545238D01*
X117523809Y-102450000D01*
X117380952Y-102402380D01*
X117285714Y-102402380D01*
X117142857Y-102450000D01*
X117095238Y-102497619D01*
X116142857Y-103402380D02*
X116714285Y-103402380D01*
X116428571Y-103402380D02*
X116428571Y-102402380D01*
X116523809Y-102545238D01*
X116619047Y-102640476D01*
X116714285Y-102688095D01*
X115571428Y-102830952D02*
X115666666Y-102783333D01*
X115714285Y-102735714D01*
X115761904Y-102640476D01*
X115761904Y-102592857D01*
X115714285Y-102497619D01*
X115666666Y-102450000D01*
X115571428Y-102402380D01*
X115380952Y-102402380D01*
X115285714Y-102450000D01*
X115238095Y-102497619D01*
X115190476Y-102592857D01*
X115190476Y-102640476D01*
X115238095Y-102735714D01*
X115285714Y-102783333D01*
X115380952Y-102830952D01*
X115571428Y-102830952D01*
X115666666Y-102878571D01*
X115714285Y-102926190D01*
X115761904Y-103021428D01*
X115761904Y-103211904D01*
X115714285Y-103307142D01*
X115666666Y-103354761D01*
X115571428Y-103402380D01*
X115380952Y-103402380D01*
X115285714Y-103354761D01*
X115238095Y-103307142D01*
X115190476Y-103211904D01*
X115190476Y-103021428D01*
X115238095Y-102926190D01*
X115285714Y-102878571D01*
X115380952Y-102830952D01*
X114428571Y-102878571D02*
X114761904Y-102878571D01*
X114761904Y-103402380D02*
X114761904Y-102402380D01*
X114285714Y-102402380D01*
X113952380Y-102497619D02*
X113904761Y-102450000D01*
X113809523Y-102402380D01*
X113571428Y-102402380D01*
X113476190Y-102450000D01*
X113428571Y-102497619D01*
X113380952Y-102592857D01*
X113380952Y-102688095D01*
X113428571Y-102830952D01*
X114000000Y-103402380D01*
X113380952Y-103402380D01*
X112476190Y-102402380D02*
X112952380Y-102402380D01*
X113000000Y-102878571D01*
X112952380Y-102830952D01*
X112857142Y-102783333D01*
X112619047Y-102783333D01*
X112523809Y-102830952D01*
X112476190Y-102878571D01*
X112428571Y-102973809D01*
X112428571Y-103211904D01*
X112476190Y-103307142D01*
X112523809Y-103354761D01*
X112619047Y-103402380D01*
X112857142Y-103402380D01*
X112952380Y-103354761D01*
X113000000Y-103307142D01*
X111523809Y-102402380D02*
X112000000Y-102402380D01*
X112047619Y-102878571D01*
X112000000Y-102830952D01*
X111904761Y-102783333D01*
X111666666Y-102783333D01*
X111571428Y-102830952D01*
X111523809Y-102878571D01*
X111476190Y-102973809D01*
X111476190Y-103211904D01*
X111523809Y-103307142D01*
X111571428Y-103354761D01*
X111666666Y-103402380D01*
X111904761Y-103402380D01*
X112000000Y-103354761D01*
X112047619Y-103307142D01*
X110857142Y-102402380D02*
X110761904Y-102402380D01*
X110666666Y-102450000D01*
X110619047Y-102497619D01*
X110571428Y-102592857D01*
X110523809Y-102783333D01*
X110523809Y-103021428D01*
X110571428Y-103211904D01*
X110619047Y-103307142D01*
X110666666Y-103354761D01*
X110761904Y-103402380D01*
X110857142Y-103402380D01*
X110952380Y-103354761D01*
X111000000Y-103307142D01*
X111047619Y-103211904D01*
X111095238Y-103021428D01*
X111095238Y-102783333D01*
X111047619Y-102592857D01*
X111000000Y-102497619D01*
X110952380Y-102450000D01*
X110857142Y-102402380D01*
X110095238Y-103021428D02*
X109333333Y-103021428D01*
X108857142Y-103402380D02*
X108857142Y-102402380D01*
X108428571Y-103354761D02*
X108285714Y-103402380D01*
X108047619Y-103402380D01*
X107952380Y-103354761D01*
X107904761Y-103307142D01*
X107857142Y-103211904D01*
X107857142Y-103116666D01*
X107904761Y-103021428D01*
X107952380Y-102973809D01*
X108047619Y-102926190D01*
X108238095Y-102878571D01*
X108333333Y-102830952D01*
X108380952Y-102783333D01*
X108428571Y-102688095D01*
X108428571Y-102592857D01*
X108380952Y-102497619D01*
X108333333Y-102450000D01*
X108238095Y-102402380D01*
X108000000Y-102402380D01*
X107857142Y-102450000D01*
X107238095Y-102402380D02*
X107047619Y-102402380D01*
X106952380Y-102450000D01*
X106857142Y-102545238D01*
X106809523Y-102735714D01*
X106809523Y-103069047D01*
X106857142Y-103259523D01*
X106952380Y-103354761D01*
X107047619Y-103402380D01*
X107238095Y-103402380D01*
X107333333Y-103354761D01*
X107428571Y-103259523D01*
X107476190Y-103069047D01*
X107476190Y-102735714D01*
X107428571Y-102545238D01*
X107333333Y-102450000D01*
X107238095Y-102402380D01*
X168934380Y-83966190D02*
X168934380Y-84632857D01*
X169934380Y-83966190D01*
X169934380Y-84632857D01*
X168934380Y-85204285D02*
X168934380Y-85299523D01*
X168982000Y-85394761D01*
X169029619Y-85442380D01*
X169124857Y-85490000D01*
X169315333Y-85537619D01*
X169553428Y-85537619D01*
X169743904Y-85490000D01*
X169839142Y-85442380D01*
X169886761Y-85394761D01*
X169934380Y-85299523D01*
X169934380Y-85204285D01*
X169886761Y-85109047D01*
X169839142Y-85061428D01*
X169743904Y-85013809D01*
X169553428Y-84966190D01*
X169315333Y-84966190D01*
X169124857Y-85013809D01*
X169029619Y-85061428D01*
X168982000Y-85109047D01*
X168934380Y-85204285D01*
X169934380Y-86490000D02*
X169934380Y-85918571D01*
X169934380Y-86204285D02*
X168934380Y-86204285D01*
X169077238Y-86109047D01*
X169172476Y-86013809D01*
X169220095Y-85918571D01*
X168934380Y-87109047D02*
X168934380Y-87204285D01*
X168982000Y-87299523D01*
X169029619Y-87347142D01*
X169124857Y-87394761D01*
X169315333Y-87442380D01*
X169553428Y-87442380D01*
X169743904Y-87394761D01*
X169839142Y-87347142D01*
X169886761Y-87299523D01*
X169934380Y-87204285D01*
X169934380Y-87109047D01*
X169886761Y-87013809D01*
X169839142Y-86966190D01*
X169743904Y-86918571D01*
X169553428Y-86870952D01*
X169315333Y-86870952D01*
X169124857Y-86918571D01*
X169029619Y-86966190D01*
X168982000Y-87013809D01*
X168934380Y-87109047D01*
X168934380Y-87775714D02*
X168934380Y-88394761D01*
X169315333Y-88061428D01*
X169315333Y-88204285D01*
X169362952Y-88299523D01*
X169410571Y-88347142D01*
X169505809Y-88394761D01*
X169743904Y-88394761D01*
X169839142Y-88347142D01*
X169886761Y-88299523D01*
X169934380Y-88204285D01*
X169934380Y-87918571D01*
X169886761Y-87823333D01*
X169839142Y-87775714D01*
X169934380Y-88823333D02*
X168934380Y-88823333D01*
X169648666Y-89156666D01*
X168934380Y-89490000D01*
X169934380Y-89490000D01*
X169934380Y-89966190D02*
X168934380Y-89966190D01*
X169934380Y-90537619D01*
X168934380Y-90537619D01*
X168934380Y-92251904D02*
X168934380Y-91775714D01*
X169410571Y-91728095D01*
X169362952Y-91775714D01*
X169315333Y-91870952D01*
X169315333Y-92109047D01*
X169362952Y-92204285D01*
X169410571Y-92251904D01*
X169505809Y-92299523D01*
X169743904Y-92299523D01*
X169839142Y-92251904D01*
X169886761Y-92204285D01*
X169934380Y-92109047D01*
X169934380Y-91870952D01*
X169886761Y-91775714D01*
X169839142Y-91728095D01*
X169648666Y-92680476D02*
X169648666Y-93156666D01*
X169934380Y-92585238D02*
X168934380Y-92918571D01*
X169934380Y-93251904D01*
X169648666Y-93537619D02*
X169648666Y-94013809D01*
X169934380Y-93442380D02*
X168934380Y-93775714D01*
X169934380Y-94109047D01*
X169267714Y-94870952D02*
X169934380Y-94870952D01*
X168886761Y-94632857D02*
X169601047Y-94394761D01*
X169601047Y-95013809D01*
X178126380Y-83966190D02*
X178126380Y-84632857D01*
X179126380Y-83966190D01*
X179126380Y-84632857D01*
X178126380Y-85204285D02*
X178126380Y-85299523D01*
X178174000Y-85394761D01*
X178221619Y-85442380D01*
X178316857Y-85490000D01*
X178507333Y-85537619D01*
X178745428Y-85537619D01*
X178935904Y-85490000D01*
X179031142Y-85442380D01*
X179078761Y-85394761D01*
X179126380Y-85299523D01*
X179126380Y-85204285D01*
X179078761Y-85109047D01*
X179031142Y-85061428D01*
X178935904Y-85013809D01*
X178745428Y-84966190D01*
X178507333Y-84966190D01*
X178316857Y-85013809D01*
X178221619Y-85061428D01*
X178174000Y-85109047D01*
X178126380Y-85204285D01*
X179126380Y-86490000D02*
X179126380Y-85918571D01*
X179126380Y-86204285D02*
X178126380Y-86204285D01*
X178269238Y-86109047D01*
X178364476Y-86013809D01*
X178412095Y-85918571D01*
X178126380Y-87109047D02*
X178126380Y-87204285D01*
X178174000Y-87299523D01*
X178221619Y-87347142D01*
X178316857Y-87394761D01*
X178507333Y-87442380D01*
X178745428Y-87442380D01*
X178935904Y-87394761D01*
X179031142Y-87347142D01*
X179078761Y-87299523D01*
X179126380Y-87204285D01*
X179126380Y-87109047D01*
X179078761Y-87013809D01*
X179031142Y-86966190D01*
X178935904Y-86918571D01*
X178745428Y-86870952D01*
X178507333Y-86870952D01*
X178316857Y-86918571D01*
X178221619Y-86966190D01*
X178174000Y-87013809D01*
X178126380Y-87109047D01*
X178126380Y-87775714D02*
X178126380Y-88394761D01*
X178507333Y-88061428D01*
X178507333Y-88204285D01*
X178554952Y-88299523D01*
X178602571Y-88347142D01*
X178697809Y-88394761D01*
X178935904Y-88394761D01*
X179031142Y-88347142D01*
X179078761Y-88299523D01*
X179126380Y-88204285D01*
X179126380Y-87918571D01*
X179078761Y-87823333D01*
X179031142Y-87775714D01*
X179126380Y-88823333D02*
X178126380Y-88823333D01*
X178840666Y-89156666D01*
X178126380Y-89490000D01*
X179126380Y-89490000D01*
X179126380Y-89966190D02*
X178126380Y-89966190D01*
X179126380Y-90537619D01*
X178126380Y-90537619D01*
X178126380Y-92251904D02*
X178126380Y-91775714D01*
X178602571Y-91728095D01*
X178554952Y-91775714D01*
X178507333Y-91870952D01*
X178507333Y-92109047D01*
X178554952Y-92204285D01*
X178602571Y-92251904D01*
X178697809Y-92299523D01*
X178935904Y-92299523D01*
X179031142Y-92251904D01*
X179078761Y-92204285D01*
X179126380Y-92109047D01*
X179126380Y-91870952D01*
X179078761Y-91775714D01*
X179031142Y-91728095D01*
X178840666Y-92680476D02*
X178840666Y-93156666D01*
X179126380Y-92585238D02*
X178126380Y-92918571D01*
X179126380Y-93251904D01*
X178840666Y-93537619D02*
X178840666Y-94013809D01*
X179126380Y-93442380D02*
X178126380Y-93775714D01*
X179126380Y-94109047D01*
X178459714Y-94870952D02*
X179126380Y-94870952D01*
X178078761Y-94632857D02*
X178793047Y-94394761D01*
X178793047Y-95013809D01*
X187522380Y-83966190D02*
X187522380Y-84632857D01*
X188522380Y-83966190D01*
X188522380Y-84632857D01*
X187522380Y-85204285D02*
X187522380Y-85299523D01*
X187570000Y-85394761D01*
X187617619Y-85442380D01*
X187712857Y-85490000D01*
X187903333Y-85537619D01*
X188141428Y-85537619D01*
X188331904Y-85490000D01*
X188427142Y-85442380D01*
X188474761Y-85394761D01*
X188522380Y-85299523D01*
X188522380Y-85204285D01*
X188474761Y-85109047D01*
X188427142Y-85061428D01*
X188331904Y-85013809D01*
X188141428Y-84966190D01*
X187903333Y-84966190D01*
X187712857Y-85013809D01*
X187617619Y-85061428D01*
X187570000Y-85109047D01*
X187522380Y-85204285D01*
X188522380Y-86490000D02*
X188522380Y-85918571D01*
X188522380Y-86204285D02*
X187522380Y-86204285D01*
X187665238Y-86109047D01*
X187760476Y-86013809D01*
X187808095Y-85918571D01*
X187522380Y-87109047D02*
X187522380Y-87204285D01*
X187570000Y-87299523D01*
X187617619Y-87347142D01*
X187712857Y-87394761D01*
X187903333Y-87442380D01*
X188141428Y-87442380D01*
X188331904Y-87394761D01*
X188427142Y-87347142D01*
X188474761Y-87299523D01*
X188522380Y-87204285D01*
X188522380Y-87109047D01*
X188474761Y-87013809D01*
X188427142Y-86966190D01*
X188331904Y-86918571D01*
X188141428Y-86870952D01*
X187903333Y-86870952D01*
X187712857Y-86918571D01*
X187617619Y-86966190D01*
X187570000Y-87013809D01*
X187522380Y-87109047D01*
X187522380Y-87775714D02*
X187522380Y-88394761D01*
X187903333Y-88061428D01*
X187903333Y-88204285D01*
X187950952Y-88299523D01*
X187998571Y-88347142D01*
X188093809Y-88394761D01*
X188331904Y-88394761D01*
X188427142Y-88347142D01*
X188474761Y-88299523D01*
X188522380Y-88204285D01*
X188522380Y-87918571D01*
X188474761Y-87823333D01*
X188427142Y-87775714D01*
X188522380Y-88823333D02*
X187522380Y-88823333D01*
X188236666Y-89156666D01*
X187522380Y-89490000D01*
X188522380Y-89490000D01*
X188522380Y-89966190D02*
X187522380Y-89966190D01*
X188522380Y-90537619D01*
X187522380Y-90537619D01*
X187522380Y-92251904D02*
X187522380Y-91775714D01*
X187998571Y-91728095D01*
X187950952Y-91775714D01*
X187903333Y-91870952D01*
X187903333Y-92109047D01*
X187950952Y-92204285D01*
X187998571Y-92251904D01*
X188093809Y-92299523D01*
X188331904Y-92299523D01*
X188427142Y-92251904D01*
X188474761Y-92204285D01*
X188522380Y-92109047D01*
X188522380Y-91870952D01*
X188474761Y-91775714D01*
X188427142Y-91728095D01*
X188236666Y-92680476D02*
X188236666Y-93156666D01*
X188522380Y-92585238D02*
X187522380Y-92918571D01*
X188522380Y-93251904D01*
X188236666Y-93537619D02*
X188236666Y-94013809D01*
X188522380Y-93442380D02*
X187522380Y-93775714D01*
X188522380Y-94109047D01*
X187855714Y-94870952D02*
X188522380Y-94870952D01*
X187474761Y-94632857D02*
X188189047Y-94394761D01*
X188189047Y-95013809D01*
X142368404Y-113649742D02*
X141368404Y-113649742D01*
X141368404Y-114030694D01*
X141416024Y-114125932D01*
X141463643Y-114173551D01*
X141558881Y-114221170D01*
X141701738Y-114221170D01*
X141796976Y-114173551D01*
X141844595Y-114125932D01*
X141892214Y-114030694D01*
X141892214Y-113649742D01*
X141844595Y-114983075D02*
X141892214Y-115125932D01*
X141939833Y-115173551D01*
X142035071Y-115221170D01*
X142177928Y-115221170D01*
X142273166Y-115173551D01*
X142320785Y-115125932D01*
X142368404Y-115030694D01*
X142368404Y-114649742D01*
X141368404Y-114649742D01*
X141368404Y-114983075D01*
X141416024Y-115078313D01*
X141463643Y-115125932D01*
X141558881Y-115173551D01*
X141654119Y-115173551D01*
X141749357Y-115125932D01*
X141796976Y-115078313D01*
X141844595Y-114983075D01*
X141844595Y-114649742D01*
X141368404Y-115840218D02*
X141368404Y-116030694D01*
X141416024Y-116125932D01*
X141511262Y-116221170D01*
X141701738Y-116268789D01*
X142035071Y-116268789D01*
X142225547Y-116221170D01*
X142320785Y-116125932D01*
X142368404Y-116030694D01*
X142368404Y-115840218D01*
X142320785Y-115744980D01*
X142225547Y-115649742D01*
X142035071Y-115602123D01*
X141701738Y-115602123D01*
X141511262Y-115649742D01*
X141416024Y-115744980D01*
X141368404Y-115840218D01*
X141987452Y-116697361D02*
X141987452Y-117459265D01*
X141368404Y-117840218D02*
X141368404Y-118459265D01*
X141749357Y-118125932D01*
X141749357Y-118268789D01*
X141796976Y-118364027D01*
X141844595Y-118411646D01*
X141939833Y-118459265D01*
X142177928Y-118459265D01*
X142273166Y-118411646D01*
X142320785Y-118364027D01*
X142368404Y-118268789D01*
X142368404Y-117983075D01*
X142320785Y-117887837D01*
X142273166Y-117840218D01*
X141987452Y-118887837D02*
X141987452Y-119649742D01*
X142320785Y-120078313D02*
X142368404Y-120221170D01*
X142368404Y-120459265D01*
X142320785Y-120554503D01*
X142273166Y-120602123D01*
X142177928Y-120649742D01*
X142082690Y-120649742D01*
X141987452Y-120602123D01*
X141939833Y-120554503D01*
X141892214Y-120459265D01*
X141844595Y-120268789D01*
X141796976Y-120173551D01*
X141749357Y-120125932D01*
X141654119Y-120078313D01*
X141558881Y-120078313D01*
X141463643Y-120125932D01*
X141416024Y-120173551D01*
X141368404Y-120268789D01*
X141368404Y-120506884D01*
X141416024Y-120649742D01*
X141368404Y-121554503D02*
X141368404Y-121078313D01*
X141844595Y-121030694D01*
X141796976Y-121078313D01*
X141749357Y-121173551D01*
X141749357Y-121411646D01*
X141796976Y-121506884D01*
X141844595Y-121554503D01*
X141939833Y-121602123D01*
X142177928Y-121602123D01*
X142273166Y-121554503D01*
X142320785Y-121506884D01*
X142368404Y-121411646D01*
X142368404Y-121173551D01*
X142320785Y-121078313D01*
X142273166Y-121030694D01*
X103097619Y-110666666D02*
X103050000Y-110714285D01*
X103002380Y-110809523D01*
X103002380Y-111047619D01*
X103050000Y-111142857D01*
X103097619Y-111190476D01*
X103192857Y-111238095D01*
X103288095Y-111238095D01*
X103430952Y-111190476D01*
X104002380Y-110619047D01*
X104002380Y-111238095D01*
X103002380Y-111857142D02*
X103002380Y-111952380D01*
X103050000Y-112047619D01*
X103097619Y-112095238D01*
X103192857Y-112142857D01*
X103383333Y-112190476D01*
X103621428Y-112190476D01*
X103811904Y-112142857D01*
X103907142Y-112095238D01*
X103954761Y-112047619D01*
X104002380Y-111952380D01*
X104002380Y-111857142D01*
X103954761Y-111761904D01*
X103907142Y-111714285D01*
X103811904Y-111666666D01*
X103621428Y-111619047D01*
X103383333Y-111619047D01*
X103192857Y-111666666D01*
X103097619Y-111714285D01*
X103050000Y-111761904D01*
X103002380Y-111857142D01*
X104002380Y-112619047D02*
X103002380Y-112619047D01*
X103716666Y-112952380D01*
X103002380Y-113285714D01*
X104002380Y-113285714D01*
X104002380Y-113761904D02*
X103002380Y-113761904D01*
X103478571Y-113761904D02*
X103478571Y-114333333D01*
X104002380Y-114333333D02*
X103002380Y-114333333D01*
X103002380Y-114714285D02*
X103002380Y-115380952D01*
X104002380Y-114714285D01*
X104002380Y-115380952D01*
X128119047Y-110052380D02*
X128690476Y-110052380D01*
X128404761Y-110052380D02*
X128404761Y-109052380D01*
X128500000Y-109195238D01*
X128595238Y-109290476D01*
X128690476Y-109338095D01*
X127690476Y-110052380D02*
X127690476Y-109052380D01*
X127119047Y-110052380D01*
X127119047Y-109052380D01*
X126214285Y-109385714D02*
X126214285Y-110052380D01*
X126452380Y-109004761D02*
X126690476Y-109719047D01*
X126071428Y-109719047D01*
X125166666Y-110052380D02*
X125738095Y-110052380D01*
X125452380Y-110052380D02*
X125452380Y-109052380D01*
X125547619Y-109195238D01*
X125642857Y-109290476D01*
X125738095Y-109338095D01*
X124309523Y-109385714D02*
X124309523Y-110052380D01*
X124547619Y-109004761D02*
X124785714Y-109719047D01*
X124166666Y-109719047D01*
X123642857Y-109480952D02*
X123738095Y-109433333D01*
X123785714Y-109385714D01*
X123833333Y-109290476D01*
X123833333Y-109242857D01*
X123785714Y-109147619D01*
X123738095Y-109100000D01*
X123642857Y-109052380D01*
X123452380Y-109052380D01*
X123357142Y-109100000D01*
X123309523Y-109147619D01*
X123261904Y-109242857D01*
X123261904Y-109290476D01*
X123309523Y-109385714D01*
X123357142Y-109433333D01*
X123452380Y-109480952D01*
X123642857Y-109480952D01*
X123738095Y-109528571D01*
X123785714Y-109576190D01*
X123833333Y-109671428D01*
X123833333Y-109861904D01*
X123785714Y-109957142D01*
X123738095Y-110004761D01*
X123642857Y-110052380D01*
X123452380Y-110052380D01*
X123357142Y-110004761D01*
X123309523Y-109957142D01*
X123261904Y-109861904D01*
X123261904Y-109671428D01*
X123309523Y-109576190D01*
X123357142Y-109528571D01*
X123452380Y-109480952D01*
X122928571Y-109052380D02*
X122261904Y-110052380D01*
X122261904Y-109052380D02*
X122928571Y-110052380D01*
X121880952Y-109671428D02*
X121119047Y-109671428D01*
X120785714Y-109052380D02*
X120214285Y-109052380D01*
X120500000Y-110052380D02*
X120500000Y-109052380D01*
X119880952Y-110052380D02*
X119880952Y-109052380D01*
X119500000Y-109052380D01*
X119404761Y-109100000D01*
X119357142Y-109147619D01*
X119309523Y-109242857D01*
X119309523Y-109385714D01*
X119357142Y-109480952D01*
X119404761Y-109528571D01*
X119500000Y-109576190D01*
X119880952Y-109576190D01*
X108429047Y-125609880D02*
X109000476Y-125609880D01*
X108714761Y-125609880D02*
X108714761Y-124609880D01*
X108810000Y-124752738D01*
X108905238Y-124847976D01*
X109000476Y-124895595D01*
X108000476Y-125609880D02*
X108000476Y-124609880D01*
X107429047Y-125609880D01*
X107429047Y-124609880D01*
X106524285Y-124943214D02*
X106524285Y-125609880D01*
X106762380Y-124562261D02*
X107000476Y-125276547D01*
X106381428Y-125276547D01*
X105476666Y-125609880D02*
X106048095Y-125609880D01*
X105762380Y-125609880D02*
X105762380Y-124609880D01*
X105857619Y-124752738D01*
X105952857Y-124847976D01*
X106048095Y-124895595D01*
X104619523Y-124943214D02*
X104619523Y-125609880D01*
X104857619Y-124562261D02*
X105095714Y-125276547D01*
X104476666Y-125276547D01*
X103952857Y-125038452D02*
X104048095Y-124990833D01*
X104095714Y-124943214D01*
X104143333Y-124847976D01*
X104143333Y-124800357D01*
X104095714Y-124705119D01*
X104048095Y-124657500D01*
X103952857Y-124609880D01*
X103762380Y-124609880D01*
X103667142Y-124657500D01*
X103619523Y-124705119D01*
X103571904Y-124800357D01*
X103571904Y-124847976D01*
X103619523Y-124943214D01*
X103667142Y-124990833D01*
X103762380Y-125038452D01*
X103952857Y-125038452D01*
X104048095Y-125086071D01*
X104095714Y-125133690D01*
X104143333Y-125228928D01*
X104143333Y-125419404D01*
X104095714Y-125514642D01*
X104048095Y-125562261D01*
X103952857Y-125609880D01*
X103762380Y-125609880D01*
X103667142Y-125562261D01*
X103619523Y-125514642D01*
X103571904Y-125419404D01*
X103571904Y-125228928D01*
X103619523Y-125133690D01*
X103667142Y-125086071D01*
X103762380Y-125038452D01*
X103238571Y-124609880D02*
X102571904Y-125609880D01*
X102571904Y-124609880D02*
X103238571Y-125609880D01*
X102190952Y-125228928D02*
X101429047Y-125228928D01*
X101095714Y-124609880D02*
X100524285Y-124609880D01*
X100810000Y-125609880D02*
X100810000Y-124609880D01*
X100190952Y-125609880D02*
X100190952Y-124609880D01*
X99810000Y-124609880D01*
X99714761Y-124657500D01*
X99667142Y-124705119D01*
X99619523Y-124800357D01*
X99619523Y-124943214D01*
X99667142Y-125038452D01*
X99714761Y-125086071D01*
X99810000Y-125133690D01*
X100190952Y-125133690D01*
X168160855Y-102449402D02*
X168160855Y-101877974D01*
X168160855Y-102163688D02*
X167160855Y-102163688D01*
X167303713Y-102068450D01*
X167398951Y-101973212D01*
X167446570Y-101877974D01*
X167160855Y-103068450D02*
X167160855Y-103163688D01*
X167208475Y-103258926D01*
X167256094Y-103306545D01*
X167351332Y-103354164D01*
X167541808Y-103401783D01*
X167779903Y-103401783D01*
X167970379Y-103354164D01*
X168065617Y-103306545D01*
X168113236Y-103258926D01*
X168160855Y-103163688D01*
X168160855Y-103068450D01*
X168113236Y-102973212D01*
X168065617Y-102925593D01*
X167970379Y-102877974D01*
X167779903Y-102830355D01*
X167541808Y-102830355D01*
X167351332Y-102877974D01*
X167256094Y-102925593D01*
X167208475Y-102973212D01*
X167160855Y-103068450D01*
X167160855Y-104020831D02*
X167160855Y-104116069D01*
X167208475Y-104211307D01*
X167256094Y-104258926D01*
X167351332Y-104306545D01*
X167541808Y-104354164D01*
X167779903Y-104354164D01*
X167970379Y-104306545D01*
X168065617Y-104258926D01*
X168113236Y-104211307D01*
X168160855Y-104116069D01*
X168160855Y-104020831D01*
X168113236Y-103925593D01*
X168065617Y-103877974D01*
X167970379Y-103830355D01*
X167779903Y-103782736D01*
X167541808Y-103782736D01*
X167351332Y-103830355D01*
X167256094Y-103877974D01*
X167208475Y-103925593D01*
X167160855Y-104020831D01*
X167494189Y-104782736D02*
X168160855Y-104782736D01*
X167589427Y-104782736D02*
X167541808Y-104830355D01*
X167494189Y-104925593D01*
X167494189Y-105068450D01*
X167541808Y-105163688D01*
X167637046Y-105211307D01*
X168160855Y-105211307D01*
X167637046Y-106020831D02*
X167637046Y-105687498D01*
X168160855Y-105687498D02*
X167160855Y-105687498D01*
X167160855Y-106163688D01*
X179067579Y-102452682D02*
X179067579Y-101881254D01*
X179067579Y-102166968D02*
X178067579Y-102166968D01*
X178210437Y-102071730D01*
X178305675Y-101976492D01*
X178353294Y-101881254D01*
X178067579Y-103071730D02*
X178067579Y-103166968D01*
X178115199Y-103262206D01*
X178162818Y-103309825D01*
X178258056Y-103357444D01*
X178448532Y-103405063D01*
X178686627Y-103405063D01*
X178877103Y-103357444D01*
X178972341Y-103309825D01*
X179019960Y-103262206D01*
X179067579Y-103166968D01*
X179067579Y-103071730D01*
X179019960Y-102976492D01*
X178972341Y-102928873D01*
X178877103Y-102881254D01*
X178686627Y-102833635D01*
X178448532Y-102833635D01*
X178258056Y-102881254D01*
X178162818Y-102928873D01*
X178115199Y-102976492D01*
X178067579Y-103071730D01*
X178067579Y-104024111D02*
X178067579Y-104119349D01*
X178115199Y-104214587D01*
X178162818Y-104262206D01*
X178258056Y-104309825D01*
X178448532Y-104357444D01*
X178686627Y-104357444D01*
X178877103Y-104309825D01*
X178972341Y-104262206D01*
X179019960Y-104214587D01*
X179067579Y-104119349D01*
X179067579Y-104024111D01*
X179019960Y-103928873D01*
X178972341Y-103881254D01*
X178877103Y-103833635D01*
X178686627Y-103786016D01*
X178448532Y-103786016D01*
X178258056Y-103833635D01*
X178162818Y-103881254D01*
X178115199Y-103928873D01*
X178067579Y-104024111D01*
X178400913Y-104786016D02*
X179067579Y-104786016D01*
X178496151Y-104786016D02*
X178448532Y-104833635D01*
X178400913Y-104928873D01*
X178400913Y-105071730D01*
X178448532Y-105166968D01*
X178543770Y-105214587D01*
X179067579Y-105214587D01*
X178543770Y-106024111D02*
X178543770Y-105690778D01*
X179067579Y-105690778D02*
X178067579Y-105690778D01*
X178067579Y-106166968D01*
X185858992Y-102421729D02*
X185858992Y-101850301D01*
X185858992Y-102136015D02*
X184858992Y-102136015D01*
X185001850Y-102040777D01*
X185097088Y-101945539D01*
X185144707Y-101850301D01*
X184858992Y-103040777D02*
X184858992Y-103136015D01*
X184906612Y-103231253D01*
X184954231Y-103278872D01*
X185049469Y-103326491D01*
X185239945Y-103374110D01*
X185478040Y-103374110D01*
X185668516Y-103326491D01*
X185763754Y-103278872D01*
X185811373Y-103231253D01*
X185858992Y-103136015D01*
X185858992Y-103040777D01*
X185811373Y-102945539D01*
X185763754Y-102897920D01*
X185668516Y-102850301D01*
X185478040Y-102802682D01*
X185239945Y-102802682D01*
X185049469Y-102850301D01*
X184954231Y-102897920D01*
X184906612Y-102945539D01*
X184858992Y-103040777D01*
X184858992Y-103993158D02*
X184858992Y-104088396D01*
X184906612Y-104183634D01*
X184954231Y-104231253D01*
X185049469Y-104278872D01*
X185239945Y-104326491D01*
X185478040Y-104326491D01*
X185668516Y-104278872D01*
X185763754Y-104231253D01*
X185811373Y-104183634D01*
X185858992Y-104088396D01*
X185858992Y-103993158D01*
X185811373Y-103897920D01*
X185763754Y-103850301D01*
X185668516Y-103802682D01*
X185478040Y-103755063D01*
X185239945Y-103755063D01*
X185049469Y-103802682D01*
X184954231Y-103850301D01*
X184906612Y-103897920D01*
X184858992Y-103993158D01*
X185192326Y-104755063D02*
X185858992Y-104755063D01*
X185287564Y-104755063D02*
X185239945Y-104802682D01*
X185192326Y-104897920D01*
X185192326Y-105040777D01*
X185239945Y-105136015D01*
X185335183Y-105183634D01*
X185858992Y-105183634D01*
X185335183Y-105993158D02*
X185335183Y-105659825D01*
X185858992Y-105659825D02*
X184858992Y-105659825D01*
X184858992Y-106136015D01*
X108148571Y-131132380D02*
X108720000Y-131132380D01*
X108434285Y-131132380D02*
X108434285Y-130132380D01*
X108529523Y-130275238D01*
X108624761Y-130370476D01*
X108720000Y-130418095D01*
X107529523Y-130132380D02*
X107434285Y-130132380D01*
X107339047Y-130180000D01*
X107291428Y-130227619D01*
X107243809Y-130322857D01*
X107196190Y-130513333D01*
X107196190Y-130751428D01*
X107243809Y-130941904D01*
X107291428Y-131037142D01*
X107339047Y-131084761D01*
X107434285Y-131132380D01*
X107529523Y-131132380D01*
X107624761Y-131084761D01*
X107672380Y-131037142D01*
X107720000Y-130941904D01*
X107767619Y-130751428D01*
X107767619Y-130513333D01*
X107720000Y-130322857D01*
X107672380Y-130227619D01*
X107624761Y-130180000D01*
X107529523Y-130132380D01*
X106339047Y-130465714D02*
X106339047Y-131132380D01*
X106767619Y-130465714D02*
X106767619Y-130989523D01*
X106720000Y-131084761D01*
X106624761Y-131132380D01*
X106481904Y-131132380D01*
X106386666Y-131084761D01*
X106339047Y-131037142D01*
X106005714Y-130465714D02*
X105624761Y-130465714D01*
X105862857Y-131132380D02*
X105862857Y-130275238D01*
X105815238Y-130180000D01*
X105720000Y-130132380D01*
X105624761Y-130132380D01*
X106390952Y-127291428D02*
X105629047Y-127291428D01*
X106010000Y-127672380D02*
X106010000Y-126910476D01*
M02*
