G04 #@! TF.GenerationSoftware,KiCad,Pcbnew,no-vcs-found-a35cc44~61~ubuntu16.04.1*
G04 #@! TF.CreationDate,2018-02-08T08:45:13-05:00*
G04 #@! TF.ProjectId,D21_2550,4432315F323535302E6B696361645F70,rev?*
G04 #@! TF.SameCoordinates,Original*
G04 #@! TF.FileFunction,Copper,L2,Bot,Signal*
G04 #@! TF.FilePolarity,Positive*
%FSLAX46Y46*%
G04 Gerber Fmt 4.6, Leading zero omitted, Abs format (unit mm)*
G04 Created by KiCad (PCBNEW no-vcs-found-a35cc44~61~ubuntu16.04.1) date Thu Feb  8 08:45:13 2018*
%MOMM*%
%LPD*%
G01*
G04 APERTURE LIST*
%ADD10R,2.000000X1.500000*%
%ADD11R,2.000000X3.800000*%
%ADD12R,1.500000X1.145000*%
%ADD13R,1.145000X1.500000*%
%ADD14R,2.000000X0.600000*%
%ADD15R,2.000000X0.640000*%
%ADD16R,1.500000X2.000000*%
%ADD17O,1.500000X2.000000*%
%ADD18R,1.700000X1.700000*%
%ADD19O,1.700000X1.700000*%
%ADD20C,1.600000*%
%ADD21R,2.200000X1.600000*%
%ADD22O,1.600000X1.600000*%
%ADD23R,2.400000X3.500000*%
%ADD24C,1.000000*%
%ADD25R,1.345000X3.400000*%
%ADD26C,0.800000*%
%ADD27C,0.500000*%
%ADD28C,1.000000*%
G04 APERTURE END LIST*
D10*
X104110000Y-48410000D03*
X104110000Y-43810000D03*
X104110000Y-46110000D03*
D11*
X110410000Y-46110000D03*
X123472095Y-45768949D03*
D10*
X117172095Y-45768949D03*
X117172095Y-43468949D03*
X117172095Y-48068949D03*
X130350000Y-48568949D03*
X130350000Y-43968949D03*
X130350000Y-46268949D03*
D11*
X136650000Y-46268949D03*
D12*
X110613900Y-76402842D03*
X110613900Y-78487842D03*
X110633900Y-71442842D03*
X110633900Y-73527842D03*
X110453900Y-65765342D03*
X110453900Y-67850342D03*
X123333900Y-76705342D03*
X123333900Y-78790342D03*
X123343900Y-71067842D03*
X123343900Y-73152842D03*
X123333900Y-65357842D03*
X123333900Y-67442842D03*
X102000000Y-48042500D03*
X102000000Y-45957500D03*
X113864595Y-46000000D03*
X113864595Y-48085000D03*
X127500000Y-48542500D03*
X127500000Y-46457500D03*
D13*
X105915000Y-93000000D03*
X108000000Y-93000000D03*
D14*
X86800000Y-63255000D03*
X86800000Y-61985000D03*
X86800000Y-60715000D03*
X86800000Y-59445000D03*
X86800000Y-58175000D03*
X86800000Y-56905000D03*
X86800000Y-55635000D03*
X86800000Y-54365000D03*
X86800000Y-53095000D03*
X86800000Y-51825000D03*
X86800000Y-50555000D03*
X86800000Y-49285000D03*
X86800000Y-48015000D03*
X86800000Y-46745000D03*
X96200000Y-46745000D03*
X96200000Y-48015000D03*
X96200000Y-49285000D03*
X96200000Y-50555000D03*
X96200000Y-51825000D03*
X96200000Y-53095000D03*
X96200000Y-54365000D03*
X96200000Y-55635000D03*
X96200000Y-56905000D03*
X96200000Y-58175000D03*
X96200000Y-59445000D03*
X96200000Y-60715000D03*
X96200000Y-61985000D03*
X96200000Y-63255000D03*
D15*
X114083900Y-79037842D03*
X114083900Y-77767842D03*
X114083900Y-76497842D03*
X120383900Y-76497842D03*
X120383900Y-77767842D03*
X120383900Y-79037842D03*
X120533900Y-73537842D03*
X120533900Y-72267842D03*
X120533900Y-70997842D03*
X114233900Y-70997842D03*
X114233900Y-72267842D03*
X114233900Y-73537842D03*
X114013900Y-67847842D03*
X114013900Y-66577842D03*
X114013900Y-65307842D03*
X120313900Y-65307842D03*
X120313900Y-66577842D03*
X120313900Y-67847842D03*
D16*
X113538000Y-92202000D03*
D17*
X116538000Y-92202000D03*
X119538000Y-92202000D03*
X122538000Y-92202000D03*
X125538000Y-92202000D03*
D18*
X91694000Y-89408000D03*
D19*
X94234000Y-89408000D03*
X102040000Y-89190000D03*
D18*
X99500000Y-89190000D03*
X96830000Y-67690000D03*
D19*
X94290000Y-67690000D03*
X91750000Y-67690000D03*
X89210000Y-67690000D03*
X86670000Y-67690000D03*
D20*
X125050000Y-82030000D03*
X130050000Y-82030000D03*
X115050000Y-82030000D03*
X110050000Y-82030000D03*
X142050000Y-82030000D03*
X147050000Y-82030000D03*
D21*
X86500000Y-86000000D03*
X83500000Y-86000000D03*
D20*
X122350000Y-87030000D03*
D22*
X135050000Y-87030000D03*
X119050000Y-87030000D03*
D20*
X106350000Y-87030000D03*
X138050000Y-87030000D03*
D22*
X150750000Y-87030000D03*
D23*
X83000000Y-49800000D03*
X83000000Y-55000000D03*
D24*
X111230000Y-62080000D03*
X113650000Y-62080000D03*
X116190000Y-62080000D03*
X118730000Y-62080000D03*
X121270000Y-62080000D03*
X123810000Y-62080000D03*
X126350000Y-62080000D03*
X128890000Y-62080000D03*
X128890000Y-51920000D03*
X126350000Y-51920000D03*
X123810000Y-51920000D03*
X121270000Y-51920000D03*
X118730000Y-51920000D03*
X116190000Y-51920000D03*
X113650000Y-51920000D03*
X111110000Y-51920000D03*
D25*
X111592500Y-56000000D03*
X105407500Y-56000000D03*
X114815000Y-56000000D03*
X121000000Y-56000000D03*
X125000000Y-56000000D03*
X131185000Y-56000000D03*
D26*
X105781339Y-68028179D03*
X105664000Y-76708000D03*
X105664000Y-72898000D03*
X112522000Y-44450000D03*
X92339083Y-50190917D03*
X136380000Y-63690000D03*
X136540000Y-55110000D03*
X92950000Y-58560000D03*
X103590000Y-59450000D03*
X103600000Y-56840000D03*
X112522000Y-60452000D03*
X117602000Y-60452000D03*
X103886000Y-62738000D03*
X103830000Y-55270000D03*
X103980000Y-53660000D03*
X103618714Y-61168543D03*
X108220000Y-60740000D03*
X121666000Y-74930000D03*
X92830000Y-44680000D03*
X108930000Y-49970000D03*
X83820000Y-45720000D03*
X117602000Y-49784000D03*
X91620010Y-55920000D03*
X89050000Y-55640000D03*
X104915236Y-65953246D03*
X104296082Y-65044030D03*
X135589990Y-60370000D03*
X132290000Y-60380000D03*
X93218000Y-80010000D03*
X93726000Y-47244000D03*
X93218000Y-75438000D03*
X94234000Y-49276000D03*
X92928569Y-70165640D03*
X91948000Y-49022000D03*
X118364000Y-69596000D03*
X121666000Y-69596000D03*
X117094000Y-69850000D03*
X117602000Y-74930000D03*
D27*
X108044176Y-65765342D02*
X106181338Y-67628180D01*
X106181338Y-67628180D02*
X105781339Y-68028179D01*
X110453900Y-65765342D02*
X108044176Y-65765342D01*
X105664000Y-76708000D02*
X110308742Y-76708000D01*
X110308742Y-76708000D02*
X110613900Y-76402842D01*
X105664000Y-72898000D02*
X110004058Y-72898000D01*
X110004058Y-72898000D02*
X110633900Y-73527842D01*
X112522000Y-44450000D02*
X113503051Y-43468949D01*
X113503051Y-43468949D02*
X117172095Y-43468949D01*
X92739082Y-50590916D02*
X92339083Y-50190917D01*
X93973166Y-51825000D02*
X92739082Y-50590916D01*
X94315000Y-51825000D02*
X93973166Y-51825000D01*
X136540000Y-63530000D02*
X136380000Y-63690000D01*
X136540000Y-55110000D02*
X136540000Y-63530000D01*
X133660000Y-45500000D02*
X132128949Y-43968949D01*
X132128949Y-43968949D02*
X130350000Y-43968949D01*
X133660000Y-51664315D02*
X133660000Y-45500000D01*
X136540000Y-55110000D02*
X136540000Y-54544315D01*
X136540000Y-54544315D02*
X133660000Y-51664315D01*
X93070000Y-53070000D02*
X94315000Y-51825000D01*
X91775000Y-54365000D02*
X93070000Y-53070000D01*
X92950000Y-58560000D02*
X92950000Y-57994315D01*
X92950000Y-57994315D02*
X93070000Y-57874315D01*
X93070000Y-57874315D02*
X93070000Y-53070000D01*
X94315000Y-51825000D02*
X96200000Y-51825000D01*
X86800000Y-54365000D02*
X91775000Y-54365000D01*
X112600000Y-42240000D02*
X107660000Y-42240000D01*
X107660000Y-42240000D02*
X106200000Y-43700000D01*
X106200000Y-43700000D02*
X104700000Y-43700000D01*
X113828949Y-43468949D02*
X112600000Y-42240000D01*
X117172095Y-43468949D02*
X113828949Y-43468949D01*
X126540000Y-42250000D02*
X119891044Y-42250000D01*
X119891044Y-42250000D02*
X118672095Y-43468949D01*
X118672095Y-43468949D02*
X117172095Y-43468949D01*
X128258949Y-43968949D02*
X126540000Y-42250000D01*
X130350000Y-43968949D02*
X128258949Y-43968949D01*
X103590000Y-59450000D02*
X96205000Y-59450000D01*
X96205000Y-59450000D02*
X96200000Y-59445000D01*
X96200000Y-56905000D02*
X103535000Y-56905000D01*
X103535000Y-56905000D02*
X103600000Y-56840000D01*
X117564000Y-63246000D02*
X118230001Y-62579999D01*
X108836000Y-63246000D02*
X117564000Y-63246000D01*
X118230001Y-62579999D02*
X118730000Y-62080000D01*
X103765000Y-58175000D02*
X108836000Y-63246000D01*
X96200000Y-58175000D02*
X103765000Y-58175000D01*
X123810000Y-62080000D02*
X121628000Y-64262000D01*
X121628000Y-64262000D02*
X118110000Y-64262000D01*
X118110000Y-64262000D02*
X105918000Y-64262000D01*
X106172000Y-64516000D02*
X105918000Y-64262000D01*
X105918000Y-64262000D02*
X105410000Y-63754000D01*
X99314000Y-63754000D02*
X99060000Y-63500000D01*
X96200000Y-63255000D02*
X98815000Y-63255000D01*
X98815000Y-63255000D02*
X99060000Y-63500000D01*
X105410000Y-63754000D02*
X99314000Y-63754000D01*
X106172000Y-66294000D02*
X106172000Y-64516000D01*
X103375999Y-69090001D02*
X106172000Y-66294000D01*
X94290000Y-67690000D02*
X95690001Y-69090001D01*
X95690001Y-69090001D02*
X103375999Y-69090001D01*
X117602000Y-60452000D02*
X112522000Y-60452000D01*
X103886000Y-62738000D02*
X103133000Y-61985000D01*
X103133000Y-61985000D02*
X97700000Y-61985000D01*
X97700000Y-61985000D02*
X96200000Y-61985000D01*
X103340000Y-55760000D02*
X103215000Y-55635000D01*
X103215000Y-55635000D02*
X96200000Y-55635000D01*
X103830000Y-55270000D02*
X103340000Y-55760000D01*
X96200000Y-54365000D02*
X103275000Y-54365000D01*
X103275000Y-54365000D02*
X103980000Y-53660000D01*
X103165171Y-60715000D02*
X103218715Y-60768544D01*
X103218715Y-60768544D02*
X103618714Y-61168543D01*
X96200000Y-60715000D02*
X103165171Y-60715000D01*
X108220000Y-52690000D02*
X108220000Y-60740000D01*
X110130000Y-50780000D02*
X108220000Y-52690000D01*
X113270000Y-50780000D02*
X110130000Y-50780000D01*
X113650000Y-51160000D02*
X113270000Y-50780000D01*
X113650000Y-51920000D02*
X113650000Y-51160000D01*
X86670000Y-67690000D02*
X86670000Y-63385000D01*
X86670000Y-63385000D02*
X86800000Y-63255000D01*
X102000000Y-45957500D02*
X104657500Y-45957500D01*
X104657500Y-45957500D02*
X104700000Y-46000000D01*
X113864595Y-46000000D02*
X116941044Y-46000000D01*
X116941044Y-46000000D02*
X117172095Y-45768949D01*
X127500000Y-46457500D02*
X130161449Y-46457500D01*
X130161449Y-46457500D02*
X130350000Y-46268949D01*
X114083900Y-77767842D02*
X111333900Y-77767842D01*
X111333900Y-77767842D02*
X110613900Y-78487842D01*
X114233900Y-72267842D02*
X111458900Y-72267842D01*
X111458900Y-72267842D02*
X110633900Y-71442842D01*
X114013900Y-66577842D02*
X111903900Y-66577842D01*
X111903900Y-66577842D02*
X110631400Y-67850342D01*
X110631400Y-67850342D02*
X110453900Y-67850342D01*
X123333900Y-76705342D02*
X123333900Y-76597900D01*
X123333900Y-76597900D02*
X121666000Y-74930000D01*
X120533900Y-73537842D02*
X122958900Y-73537842D01*
X122958900Y-73537842D02*
X123343900Y-73152842D01*
X120313900Y-67847842D02*
X122928900Y-67847842D01*
X122928900Y-67847842D02*
X123333900Y-67442842D01*
X94400000Y-44670000D02*
X88515000Y-50555000D01*
X88515000Y-50555000D02*
X86800000Y-50555000D01*
X97377500Y-44670000D02*
X94400000Y-44670000D01*
X102000000Y-48042500D02*
X100750000Y-48042500D01*
X100750000Y-48042500D02*
X97377500Y-44670000D01*
X92830000Y-44755000D02*
X92830000Y-44680000D01*
X86800000Y-49285000D02*
X88300000Y-49285000D01*
X88300000Y-49285000D02*
X92830000Y-44755000D01*
X113864595Y-48085000D02*
X112614595Y-48085000D01*
X112614595Y-48085000D02*
X110729595Y-49970000D01*
X110729595Y-49970000D02*
X108930000Y-49970000D01*
X83820000Y-45720000D02*
X83820000Y-46535000D01*
X83820000Y-46535000D02*
X85300000Y-48015000D01*
X85300000Y-48015000D02*
X86800000Y-48015000D01*
X127500000Y-48542500D02*
X126250000Y-48542500D01*
X126250000Y-48542500D02*
X125008500Y-49784000D01*
X125008500Y-49784000D02*
X117602000Y-49784000D01*
X86800000Y-56905000D02*
X90635010Y-56905000D01*
X91220011Y-56319999D02*
X91620010Y-55920000D01*
X90635010Y-56905000D02*
X91220011Y-56319999D01*
X89050000Y-55640000D02*
X86805000Y-55640000D01*
X86805000Y-55640000D02*
X86800000Y-55635000D01*
X86800000Y-59445000D02*
X88405000Y-59445000D01*
X104656808Y-66211674D02*
X104915236Y-65953246D01*
X88405000Y-59445000D02*
X95171674Y-66211674D01*
X95171674Y-66211674D02*
X104656808Y-66211674D01*
X86800000Y-58175000D02*
X88829998Y-58175000D01*
X103730397Y-65044030D02*
X104296082Y-65044030D01*
X88829998Y-58175000D02*
X95699028Y-65044030D01*
X95699028Y-65044030D02*
X103730397Y-65044030D01*
X132290000Y-60380000D02*
X135579990Y-60380000D01*
X135579990Y-60380000D02*
X135589990Y-60370000D01*
X111611742Y-80010000D02*
X93218000Y-80010000D01*
X114083900Y-79037842D02*
X112583900Y-79037842D01*
X112583900Y-79037842D02*
X111611742Y-80010000D01*
X93726000Y-47244000D02*
X94497000Y-48015000D01*
X94497000Y-48015000D02*
X96200000Y-48015000D01*
X93218000Y-75438000D02*
X93617999Y-75038001D01*
X93617999Y-75038001D02*
X111233741Y-75038001D01*
X112733900Y-73537842D02*
X114233900Y-73537842D01*
X111233741Y-75038001D02*
X112733900Y-73537842D01*
X94243000Y-49285000D02*
X94234000Y-49276000D01*
X96200000Y-49285000D02*
X94243000Y-49285000D01*
X114013900Y-67847842D02*
X113333900Y-67847842D01*
X113333900Y-67847842D02*
X111016102Y-70165640D01*
X93494254Y-70165640D02*
X92928569Y-70165640D01*
X111016102Y-70165640D02*
X93494254Y-70165640D01*
X94700000Y-50555000D02*
X96200000Y-50555000D01*
X91948000Y-49022000D02*
X92513685Y-49022000D01*
X92513685Y-49022000D02*
X94046685Y-50555000D01*
X94046685Y-50555000D02*
X94700000Y-50555000D01*
X120383900Y-76497842D02*
X120383900Y-75677842D01*
X120383900Y-75677842D02*
X118364000Y-73657942D01*
X118364000Y-73657942D02*
X118364000Y-69596000D01*
X120533900Y-70997842D02*
X120533900Y-70728100D01*
X120533900Y-70728100D02*
X121666000Y-69596000D01*
X117602000Y-74930000D02*
X117094000Y-74422000D01*
X117094000Y-74422000D02*
X117094000Y-69850000D01*
X83000000Y-55000000D02*
X84905000Y-53095000D01*
X84905000Y-53095000D02*
X86800000Y-53095000D01*
X83000000Y-49800000D02*
X85025000Y-51825000D01*
X85025000Y-51825000D02*
X86800000Y-51825000D01*
D28*
X111230000Y-62080000D02*
X111230000Y-56362500D01*
X111230000Y-56362500D02*
X111592500Y-56000000D01*
D27*
X121270000Y-62080000D02*
X120770001Y-62579999D01*
X120770001Y-62579999D02*
X120300001Y-62579999D01*
D28*
X121270000Y-62080000D02*
X120850000Y-61660000D01*
X120850000Y-61660000D02*
X120850000Y-56150000D01*
X120850000Y-56150000D02*
X121000000Y-56000000D01*
X130000000Y-59000000D02*
X131185000Y-57815000D01*
X128000000Y-59000000D02*
X130000000Y-59000000D01*
X126350000Y-60650000D02*
X128000000Y-59000000D01*
X126350000Y-62080000D02*
X126350000Y-60650000D01*
X131185000Y-57815000D02*
X131185000Y-56000000D01*
D27*
X105407500Y-56000000D02*
X105407500Y-49007500D01*
X105407500Y-49007500D02*
X104700000Y-48300000D01*
X114815000Y-56000000D02*
X114815000Y-50176044D01*
X114815000Y-50176044D02*
X116922095Y-48068949D01*
X116922095Y-48068949D02*
X117172095Y-48068949D01*
X125000000Y-56000000D02*
X127720000Y-56000000D01*
X127720000Y-56000000D02*
X130350000Y-53370000D01*
X130350000Y-53370000D02*
X130350000Y-49818949D01*
X130350000Y-49818949D02*
X130350000Y-48568949D01*
M02*
