G04 #@! TF.GenerationSoftware,KiCad,Pcbnew,no-vcs-found-a35cc44~61~ubuntu16.04.1*
G04 #@! TF.CreationDate,2018-02-08T08:45:13-05:00*
G04 #@! TF.ProjectId,D21_2550,4432315F323535302E6B696361645F70,rev?*
G04 #@! TF.SameCoordinates,Original*
G04 #@! TF.FileFunction,Other,User*
%FSLAX46Y46*%
G04 Gerber Fmt 4.6, Leading zero omitted, Abs format (unit mm)*
G04 Created by KiCad (PCBNEW no-vcs-found-a35cc44~61~ubuntu16.04.1) date Thu Feb  8 08:45:13 2018*
%MOMM*%
%LPD*%
G01*
G04 APERTURE LIST*
%ADD10C,0.050000*%
G04 APERTURE END LIST*
D10*
X86317500Y-94500000D02*
X82597500Y-94500000D01*
X86317500Y-92500000D02*
X86317500Y-94500000D01*
X82597500Y-92500000D02*
X86317500Y-92500000D01*
X82597500Y-94500000D02*
X82597500Y-92500000D01*
X91121500Y-86436000D02*
X91121500Y-84436000D01*
X91121500Y-84436000D02*
X94841500Y-84436000D01*
X94841500Y-84436000D02*
X94841500Y-86436000D01*
X94841500Y-86436000D02*
X91121500Y-86436000D01*
X102817500Y-86190000D02*
X99097500Y-86190000D01*
X102817500Y-84190000D02*
X102817500Y-86190000D01*
X99097500Y-84190000D02*
X102817500Y-84190000D01*
X99097500Y-86190000D02*
X99097500Y-84190000D01*
X90640000Y-51180000D02*
X92640000Y-51180000D01*
X92640000Y-51180000D02*
X92640000Y-54900000D01*
X92640000Y-54900000D02*
X90640000Y-54900000D01*
X90640000Y-54900000D02*
X90640000Y-51180000D01*
X90640000Y-59992500D02*
X92640000Y-59992500D01*
X92640000Y-59992500D02*
X92640000Y-63712500D01*
X92640000Y-63712500D02*
X90640000Y-63712500D01*
X90640000Y-63712500D02*
X90640000Y-59992500D01*
X150000000Y-51097500D02*
X150000000Y-54817500D01*
X148000000Y-51097500D02*
X150000000Y-51097500D01*
X148000000Y-54817500D02*
X148000000Y-51097500D01*
X150000000Y-54817500D02*
X148000000Y-54817500D01*
X150000000Y-60182500D02*
X150000000Y-63902500D01*
X148000000Y-60182500D02*
X150000000Y-60182500D01*
X148000000Y-63902500D02*
X148000000Y-60182500D01*
X150000000Y-63902500D02*
X148000000Y-63902500D01*
X88283500Y-79264000D02*
X92003500Y-79264000D01*
X88283500Y-81264000D02*
X88283500Y-79264000D01*
X92003500Y-81264000D02*
X88283500Y-81264000D01*
X92003500Y-79264000D02*
X92003500Y-81264000D01*
X92003500Y-75454000D02*
X92003500Y-77454000D01*
X92003500Y-77454000D02*
X88283500Y-77454000D01*
X88283500Y-77454000D02*
X88283500Y-75454000D01*
X88283500Y-75454000D02*
X92003500Y-75454000D01*
X88283500Y-71644000D02*
X92003500Y-71644000D01*
X88283500Y-73644000D02*
X88283500Y-71644000D01*
X92003500Y-73644000D02*
X88283500Y-73644000D01*
X92003500Y-71644000D02*
X92003500Y-73644000D01*
X106840000Y-71650000D02*
X115640000Y-71650000D01*
X106840000Y-64450000D02*
X106840000Y-71650000D01*
X115640000Y-64450000D02*
X106840000Y-64450000D01*
X115640000Y-71650000D02*
X115640000Y-64450000D01*
X122850000Y-64700000D02*
X122850000Y-71900000D01*
X122850000Y-71900000D02*
X131650000Y-71900000D01*
X131650000Y-71900000D02*
X131650000Y-64700000D01*
X131650000Y-64700000D02*
X122850000Y-64700000D01*
X131310000Y-73590000D02*
X122510000Y-73590000D01*
X131310000Y-80790000D02*
X131310000Y-73590000D01*
X122510000Y-80790000D02*
X131310000Y-80790000D01*
X122510000Y-73590000D02*
X122510000Y-80790000D01*
X109718000Y-89232000D02*
X129358000Y-89232000D01*
X129358000Y-89232000D02*
X129358000Y-96002000D01*
X129358000Y-96002000D02*
X109718000Y-96002000D01*
X109718000Y-96002000D02*
X109718000Y-89232000D01*
X89894000Y-87608000D02*
X89894000Y-91208000D01*
X89894000Y-91208000D02*
X96044000Y-91208000D01*
X96044000Y-91208000D02*
X96044000Y-87608000D01*
X96044000Y-87608000D02*
X89894000Y-87608000D01*
X103850000Y-87390000D02*
X97700000Y-87390000D01*
X103850000Y-90990000D02*
X103850000Y-87390000D01*
X97700000Y-90990000D02*
X103850000Y-90990000D01*
X97700000Y-87390000D02*
X97700000Y-90990000D01*
X98630000Y-65890000D02*
X84880000Y-65890000D01*
X84880000Y-65890000D02*
X84880000Y-69490000D01*
X84880000Y-69490000D02*
X98630000Y-69490000D01*
X98630000Y-69490000D02*
X98630000Y-65890000D01*
X122700000Y-80430000D02*
X122700000Y-83630000D01*
X122700000Y-83630000D02*
X132400000Y-83630000D01*
X132400000Y-83630000D02*
X132400000Y-80430000D01*
X132400000Y-80430000D02*
X122700000Y-80430000D01*
X117400000Y-80430000D02*
X107700000Y-80430000D01*
X117400000Y-83630000D02*
X117400000Y-80430000D01*
X107700000Y-83630000D02*
X117400000Y-83630000D01*
X107700000Y-80430000D02*
X107700000Y-83630000D01*
X139700000Y-80430000D02*
X139700000Y-83630000D01*
X139700000Y-83630000D02*
X149400000Y-83630000D01*
X149400000Y-83630000D02*
X149400000Y-80430000D01*
X149400000Y-80430000D02*
X139700000Y-80430000D01*
X81978000Y-89274000D02*
X86678000Y-89274000D01*
X86678000Y-89274000D02*
X86678000Y-91574000D01*
X86678000Y-91574000D02*
X81978000Y-91574000D01*
X81978000Y-89274000D02*
X81978000Y-91574000D01*
X121300000Y-85030000D02*
X121300000Y-89030000D01*
X121300000Y-89030000D02*
X136100000Y-89030000D01*
X136100000Y-89030000D02*
X136100000Y-85030000D01*
X136100000Y-85030000D02*
X121300000Y-85030000D01*
X120100000Y-85030000D02*
X105300000Y-85030000D01*
X120100000Y-89030000D02*
X120100000Y-85030000D01*
X105300000Y-89030000D02*
X120100000Y-89030000D01*
X105300000Y-85030000D02*
X105300000Y-89030000D01*
X137000000Y-85030000D02*
X137000000Y-89030000D01*
X137000000Y-89030000D02*
X151800000Y-89030000D01*
X151800000Y-89030000D02*
X151800000Y-85030000D01*
X151800000Y-85030000D02*
X137000000Y-85030000D01*
X93500000Y-49750000D02*
X102500000Y-49750000D01*
X102500000Y-49750000D02*
X102500000Y-56250000D01*
X102500000Y-56250000D02*
X93500000Y-56250000D01*
X93500000Y-56250000D02*
X93500000Y-49750000D01*
X93500000Y-58750000D02*
X102500000Y-58750000D01*
X102500000Y-58750000D02*
X102500000Y-65250000D01*
X102500000Y-65250000D02*
X93500000Y-65250000D01*
X93500000Y-65250000D02*
X93500000Y-58750000D01*
X137500000Y-49750000D02*
X146500000Y-49750000D01*
X146500000Y-49750000D02*
X146500000Y-56250000D01*
X146500000Y-56250000D02*
X137500000Y-56250000D01*
X137500000Y-56250000D02*
X137500000Y-49750000D01*
X137290000Y-65250000D02*
X137290000Y-58750000D01*
X146290000Y-65250000D02*
X137290000Y-65250000D01*
X146290000Y-58750000D02*
X146290000Y-65250000D01*
X137290000Y-58750000D02*
X146290000Y-58750000D01*
X99702000Y-82622000D02*
X94552000Y-82622000D01*
X94552000Y-82622000D02*
X94552000Y-78922000D01*
X94552000Y-78922000D02*
X99702000Y-78922000D01*
X99702000Y-78922000D02*
X99702000Y-82622000D01*
X99678000Y-74350000D02*
X99678000Y-78050000D01*
X94528000Y-74350000D02*
X99678000Y-74350000D01*
X94528000Y-78050000D02*
X94528000Y-74350000D01*
X99678000Y-78050000D02*
X94528000Y-78050000D01*
X99448000Y-73478000D02*
X94298000Y-73478000D01*
X94298000Y-73478000D02*
X94298000Y-69778000D01*
X94298000Y-69778000D02*
X99448000Y-69778000D01*
X99448000Y-69778000D02*
X99448000Y-73478000D01*
M02*
