G04 #@! TF.GenerationSoftware,KiCad,Pcbnew,no-vcs-found-a35cc44~61~ubuntu16.04.1*
G04 #@! TF.CreationDate,2018-02-08T08:45:13-05:00*
G04 #@! TF.ProjectId,D21_2550,4432315F323535302E6B696361645F70,rev?*
G04 #@! TF.SameCoordinates,Original*
G04 #@! TF.FileFunction,Other,User*
%FSLAX46Y46*%
G04 Gerber Fmt 4.6, Leading zero omitted, Abs format (unit mm)*
G04 Created by KiCad (PCBNEW no-vcs-found-a35cc44~61~ubuntu16.04.1) date Thu Feb  8 08:45:13 2018*
%MOMM*%
%LPD*%
G01*
G04 APERTURE LIST*
%ADD10C,0.050000*%
G04 APERTURE END LIST*
D10*
X102860000Y-49710000D02*
X102860000Y-42510000D01*
X102860000Y-42510000D02*
X111660000Y-42510000D01*
X111660000Y-42510000D02*
X111660000Y-49710000D01*
X111660000Y-49710000D02*
X102860000Y-49710000D01*
X124722095Y-49368949D02*
X115922095Y-49368949D01*
X124722095Y-42168949D02*
X124722095Y-49368949D01*
X115922095Y-42168949D02*
X124722095Y-42168949D01*
X115922095Y-49368949D02*
X115922095Y-42168949D01*
X129100000Y-49868949D02*
X129100000Y-42668949D01*
X129100000Y-42668949D02*
X137900000Y-42668949D01*
X137900000Y-42668949D02*
X137900000Y-49868949D01*
X137900000Y-49868949D02*
X129100000Y-49868949D01*
X109613900Y-75585342D02*
X109613900Y-79305342D01*
X111613900Y-75585342D02*
X109613900Y-75585342D01*
X111613900Y-79305342D02*
X111613900Y-75585342D01*
X109613900Y-79305342D02*
X111613900Y-79305342D01*
X111633900Y-70625342D02*
X109633900Y-70625342D01*
X109633900Y-70625342D02*
X109633900Y-74345342D01*
X109633900Y-74345342D02*
X111633900Y-74345342D01*
X111633900Y-74345342D02*
X111633900Y-70625342D01*
X109453900Y-64947842D02*
X109453900Y-68667842D01*
X111453900Y-64947842D02*
X109453900Y-64947842D01*
X111453900Y-68667842D02*
X111453900Y-64947842D01*
X109453900Y-68667842D02*
X111453900Y-68667842D01*
X124333900Y-75887842D02*
X122333900Y-75887842D01*
X122333900Y-75887842D02*
X122333900Y-79607842D01*
X122333900Y-79607842D02*
X124333900Y-79607842D01*
X124333900Y-79607842D02*
X124333900Y-75887842D01*
X124343900Y-70250342D02*
X122343900Y-70250342D01*
X122343900Y-70250342D02*
X122343900Y-73970342D01*
X122343900Y-73970342D02*
X124343900Y-73970342D01*
X124343900Y-73970342D02*
X124343900Y-70250342D01*
X124333900Y-64540342D02*
X122333900Y-64540342D01*
X122333900Y-64540342D02*
X122333900Y-68260342D01*
X122333900Y-68260342D02*
X124333900Y-68260342D01*
X124333900Y-68260342D02*
X124333900Y-64540342D01*
X103000000Y-48860000D02*
X103000000Y-45140000D01*
X101000000Y-48860000D02*
X103000000Y-48860000D01*
X101000000Y-45140000D02*
X101000000Y-48860000D01*
X103000000Y-45140000D02*
X101000000Y-45140000D01*
X114864595Y-45182500D02*
X112864595Y-45182500D01*
X112864595Y-45182500D02*
X112864595Y-48902500D01*
X112864595Y-48902500D02*
X114864595Y-48902500D01*
X114864595Y-48902500D02*
X114864595Y-45182500D01*
X128500000Y-49360000D02*
X128500000Y-45640000D01*
X126500000Y-49360000D02*
X128500000Y-49360000D01*
X126500000Y-45640000D02*
X126500000Y-49360000D01*
X128500000Y-45640000D02*
X126500000Y-45640000D01*
X105097500Y-92000000D02*
X105097500Y-94000000D01*
X105097500Y-94000000D02*
X108817500Y-94000000D01*
X108817500Y-94000000D02*
X108817500Y-92000000D01*
X108817500Y-92000000D02*
X105097500Y-92000000D01*
X85550000Y-64300000D02*
X85550000Y-45700000D01*
X97450000Y-64300000D02*
X97450000Y-45700000D01*
X85550000Y-64300000D02*
X97450000Y-64300000D01*
X85550000Y-45700000D02*
X97450000Y-45700000D01*
X112833900Y-79817842D02*
X121633900Y-79817842D01*
X112833900Y-79817842D02*
X112833900Y-75717842D01*
X121633900Y-75717842D02*
X121633900Y-79817842D01*
X121633900Y-75717842D02*
X112833900Y-75717842D01*
X121783900Y-70217842D02*
X112983900Y-70217842D01*
X121783900Y-70217842D02*
X121783900Y-74317842D01*
X112983900Y-74317842D02*
X112983900Y-70217842D01*
X112983900Y-74317842D02*
X121783900Y-74317842D01*
X112763900Y-68627842D02*
X121563900Y-68627842D01*
X112763900Y-68627842D02*
X112763900Y-64527842D01*
X121563900Y-64527842D02*
X121563900Y-68627842D01*
X121563900Y-64527842D02*
X112763900Y-64527842D01*
X82150000Y-87820000D02*
X87850000Y-87820000D01*
X82150000Y-87820000D02*
X82150000Y-84180000D01*
X87850000Y-84180000D02*
X87850000Y-87820000D01*
X87850000Y-84180000D02*
X82150000Y-84180000D01*
X81100000Y-47800000D02*
X84900000Y-47800000D01*
X84900000Y-47800000D02*
X84900000Y-57000000D01*
X84900000Y-57000000D02*
X81100000Y-57000000D01*
X81100000Y-57000000D02*
X81100000Y-47800000D01*
X112510000Y-54050000D02*
X104490000Y-54050000D01*
X112510000Y-57950000D02*
X112510000Y-54050000D01*
X104490000Y-57950000D02*
X112510000Y-57950000D01*
X104490000Y-54050000D02*
X104490000Y-57950000D01*
X113897500Y-54050000D02*
X113897500Y-57950000D01*
X113897500Y-57950000D02*
X121917500Y-57950000D01*
X121917500Y-57950000D02*
X121917500Y-54050000D01*
X121917500Y-54050000D02*
X113897500Y-54050000D01*
X124082500Y-54050000D02*
X124082500Y-57950000D01*
X124082500Y-57950000D02*
X132102500Y-57950000D01*
X132102500Y-57950000D02*
X132102500Y-54050000D01*
X132102500Y-54050000D02*
X124082500Y-54050000D01*
M02*
