G04 #@! TF.GenerationSoftware,KiCad,Pcbnew,no-vcs-found-a35cc44~61~ubuntu16.04.1*
G04 #@! TF.CreationDate,2018-02-08T08:45:13-05:00*
G04 #@! TF.ProjectId,D21_2550,4432315F323535302E6B696361645F70,rev?*
G04 #@! TF.SameCoordinates,Original*
G04 #@! TF.FileFunction,Paste,Top*
G04 #@! TF.FilePolarity,Positive*
%FSLAX46Y46*%
G04 Gerber Fmt 4.6, Leading zero omitted, Abs format (unit mm)*
G04 Created by KiCad (PCBNEW no-vcs-found-a35cc44~61~ubuntu16.04.1) date Thu Feb  8 08:45:13 2018*
%MOMM*%
%LPD*%
G01*
G04 APERTURE LIST*
%ADD10R,1.145000X1.500000*%
%ADD11R,1.500000X1.145000*%
%ADD12R,2.000000X3.800000*%
%ADD13R,2.000000X1.500000*%
%ADD14R,0.900000X1.200000*%
%ADD15R,2.750000X1.000000*%
%ADD16R,1.500000X2.600000*%
G04 APERTURE END LIST*
D10*
X85500000Y-93500000D03*
X83415000Y-93500000D03*
X91939000Y-85436000D03*
X94024000Y-85436000D03*
X102000000Y-85190000D03*
X99915000Y-85190000D03*
D11*
X91640000Y-51997500D03*
X91640000Y-54082500D03*
X91640000Y-60810000D03*
X91640000Y-62895000D03*
X149000000Y-51915000D03*
X149000000Y-54000000D03*
X149000000Y-61000000D03*
X149000000Y-63085000D03*
D10*
X89101000Y-80264000D03*
X91186000Y-80264000D03*
X91186000Y-76454000D03*
X89101000Y-76454000D03*
X89101000Y-72644000D03*
X91186000Y-72644000D03*
D12*
X108090000Y-68050000D03*
D13*
X114390000Y-68050000D03*
X114390000Y-65750000D03*
X114390000Y-70350000D03*
X124100000Y-66000000D03*
X124100000Y-70600000D03*
X124100000Y-68300000D03*
D12*
X130400000Y-68300000D03*
X130060000Y-77190000D03*
D13*
X123760000Y-77190000D03*
X123760000Y-79490000D03*
X123760000Y-74890000D03*
D14*
X82678000Y-90424000D03*
X85978000Y-90424000D03*
D15*
X100880000Y-51000000D03*
X95120000Y-51000000D03*
X95120000Y-55000000D03*
X100880000Y-55000000D03*
X100880000Y-60000000D03*
X95120000Y-60000000D03*
X95120000Y-64000000D03*
X100880000Y-64000000D03*
X144880000Y-51000000D03*
X139120000Y-51000000D03*
X139120000Y-55000000D03*
X144880000Y-55000000D03*
X144670000Y-64000000D03*
X138910000Y-64000000D03*
X138910000Y-60000000D03*
X144670000Y-60000000D03*
D16*
X98552000Y-80772000D03*
X95552000Y-80772000D03*
X95528000Y-76200000D03*
X98528000Y-76200000D03*
X98298000Y-71628000D03*
X95298000Y-71628000D03*
M02*
