G04 #@! TF.GenerationSoftware,KiCad,Pcbnew,no-vcs-found-104b606~61~ubuntu16.04.1*
G04 #@! TF.CreationDate,2018-02-16T14:36:21-05:00*
G04 #@! TF.ProjectId,D21_2550,4432315F323535302E6B696361645F70,rev?*
G04 #@! TF.SameCoordinates,Original*
G04 #@! TF.FileFunction,Paste,Top*
G04 #@! TF.FilePolarity,Positive*
%FSLAX46Y46*%
G04 Gerber Fmt 4.6, Leading zero omitted, Abs format (unit mm)*
G04 Created by KiCad (PCBNEW no-vcs-found-104b606~61~ubuntu16.04.1) date Fri Feb 16 14:36:21 2018*
%MOMM*%
%LPD*%
G01*
G04 APERTURE LIST*
%ADD10R,1.500000X1.145000*%
%ADD11R,1.600000X3.500000*%
%ADD12R,1.800000X1.245000*%
%ADD13R,0.670000X1.000000*%
%ADD14R,1.800000X5.000000*%
%ADD15R,1.145000X1.500000*%
%ADD16R,1.500000X1.300000*%
%ADD17R,2.100000X1.400000*%
G04 APERTURE END LIST*
D10*
X160200000Y-120015000D03*
X160200000Y-122100000D03*
D11*
X143000000Y-127700000D03*
X143000000Y-122300000D03*
X152200000Y-122300000D03*
X152200000Y-127700000D03*
D12*
X158200000Y-129100000D03*
X158200000Y-125915000D03*
D13*
X116385000Y-102250000D03*
X118135000Y-102250000D03*
X118135000Y-105250000D03*
X116385000Y-105250000D03*
X116385000Y-108250000D03*
X118135000Y-108250000D03*
D14*
X148300000Y-106000000D03*
X152000000Y-106000000D03*
D15*
X146200000Y-132000000D03*
X148285000Y-132000000D03*
D12*
X144000000Y-103407500D03*
X144000000Y-106592500D03*
D15*
X167612500Y-96490000D03*
X165527500Y-96490000D03*
X174577500Y-96490000D03*
X176662500Y-96490000D03*
X184167500Y-96490000D03*
X186252500Y-96490000D03*
X164385000Y-82490000D03*
X162300000Y-82490000D03*
X171800000Y-82490000D03*
X173885000Y-82490000D03*
X183505000Y-82490000D03*
X181420000Y-82490000D03*
X131875000Y-127190000D03*
X133960000Y-127190000D03*
X128950000Y-127230000D03*
X126865000Y-127230000D03*
D10*
X111000000Y-88867500D03*
X111000000Y-90952500D03*
X110440000Y-97052500D03*
X110440000Y-94967500D03*
X127000000Y-85000000D03*
X127000000Y-82915000D03*
X130000000Y-83000000D03*
X130000000Y-85085000D03*
D15*
X122302500Y-102250000D03*
X120217500Y-102250000D03*
X120217500Y-105250000D03*
X122302500Y-105250000D03*
X122302500Y-108250000D03*
X120217500Y-108250000D03*
X145000000Y-109000000D03*
X142915000Y-109000000D03*
D16*
X162285952Y-93990000D03*
X164825952Y-93990000D03*
X167365952Y-93990000D03*
X167365952Y-84990000D03*
X164825952Y-84990000D03*
X162285952Y-84990000D03*
X171790000Y-84990000D03*
X174330000Y-84990000D03*
X176870000Y-84990000D03*
X176870000Y-93990000D03*
X174330000Y-93990000D03*
X171790000Y-93990000D03*
X181305952Y-93990000D03*
X183845952Y-93990000D03*
X186385952Y-93990000D03*
X186385952Y-84990000D03*
X183845952Y-84990000D03*
X181305952Y-84990000D03*
D17*
X98450000Y-91250000D03*
X107550000Y-91250000D03*
X107550000Y-86750000D03*
X98450000Y-86750000D03*
X98450000Y-94750000D03*
X107550000Y-94750000D03*
X107550000Y-99250000D03*
X98450000Y-99250000D03*
X123700000Y-86750000D03*
X114600000Y-86750000D03*
X114600000Y-91250000D03*
X123700000Y-91250000D03*
X123520000Y-99250000D03*
X114420000Y-99250000D03*
X114420000Y-94750000D03*
X123520000Y-94750000D03*
M02*
