M48
;DRILL file {KiCad no-vcs-found-104b606~61~ubuntu16.04.1} date Fri Feb 16 14:36:27 2018
;FORMAT={-:-/ absolute / metric / decimal}
FMAT,2
METRIC,TZ
T1C0.400
T2C0.500
T3C0.600
T4C0.800
T5C1.000
T6C1.520
T7C3.200
%
G90
G05
M71
T1
X102.Y-97.
X104.59Y-114.92
X104.66Y-129.69
X105.09Y-113.55
X106.28Y-117.3
X109.3Y-124.25
X110.63Y-116.08
X111.42Y-118.74
X111.56Y-120.06
X112.27Y-102.27
X114.56Y-84.75
X115.Y-109.
X115.Y-119.
X118.54Y-96.92
X121.42Y-100.62
X124.1Y-108.26
X125.Y-102.
X125.38Y-92.781
X125.831Y-105.185
X125.86Y-87.1
X126.24Y-111.01
X128.151Y-89.638
X130.7Y-103.55
X133.51Y-114.75
X133.56Y-109.1
X134.52Y-117.5
X134.58Y-105.94
X135.79Y-118.04
X135.8Y-105.52
X137.02Y-120.35
X137.13Y-114.16
X137.9Y-127.04
X138.26Y-106.13
X138.34Y-111.53
X140.Y-123.
X146.22Y-88.91
X147.72Y-125.78
X147.75Y-83.24
X163.Y-88.5
X163.Y-89.5
X163.Y-90.5
X164.Y-88.5
X164.Y-89.5
X164.Y-90.5
X165.82Y-82.55
X166.Y-88.5
X166.Y-89.5
X166.Y-90.5
X167.Y-88.5
X167.Y-89.5
X167.Y-90.5
X167.36Y-83.2
X169.35Y-102.45
X172.Y-88.5
X172.Y-89.5
X172.Y-90.5
X172.18Y-102.62
X173.Y-88.5
X173.Y-89.5
X173.Y-90.5
X175.25Y-88.5
X175.25Y-89.5
X175.25Y-90.5
X175.46Y-82.55
X176.25Y-88.5
X176.25Y-89.5
X176.25Y-90.5
X176.86Y-83.14
X179.28Y-103.13
X181.5Y-88.5
X181.5Y-89.5
X181.5Y-90.5
X182.5Y-88.5
X182.5Y-89.5
X182.5Y-90.5
X184.75Y-88.5
X184.75Y-89.5
X184.75Y-90.5
X184.98Y-82.43
X185.75Y-88.5
X185.75Y-89.5
X185.75Y-90.5
X186.37Y-83.33
T2
X132.11Y-90.92
X132.23Y-101.08
X134.65Y-90.92
X134.65Y-101.08
X137.19Y-90.92
X137.19Y-101.08
X139.73Y-90.92
X139.73Y-101.08
X142.27Y-90.92
X142.27Y-101.08
X144.81Y-90.92
X144.81Y-101.08
X147.35Y-90.92
X147.35Y-101.08
X149.89Y-90.92
X149.89Y-101.08
T3
X160.916Y-102.362
X160.916Y-107.442
X160.916Y-112.522
X160.916Y-117.602
X160.916Y-125.222
X160.916Y-130.302
T4
X145.2Y-113.1
X145.2Y-116.6
X155.2Y-113.1
X155.2Y-116.6
X156.2Y-103.
X156.2Y-108.
T5
X131.181Y-123.
X123.79Y-123.
X126.33Y-123.
X113.38Y-129.
X115.92Y-129.
X118.46Y-129.
X121.Y-129.
X123.54Y-129.
X133.721Y-123.
T6
X184.Y-109.84
X184.Y-114.92
X184.Y-120.
X184.Y-125.08
X184.Y-130.16
T7
X99.Y-131.
X169.Y-124.
T0
M30
