G04 #@! TF.GenerationSoftware,KiCad,Pcbnew,no-vcs-found-a35cc44~61~ubuntu16.04.1*
G04 #@! TF.CreationDate,2018-02-08T08:45:13-05:00*
G04 #@! TF.ProjectId,D21_2550,4432315F323535302E6B696361645F70,rev?*
G04 #@! TF.SameCoordinates,Original*
G04 #@! TF.FileFunction,Soldermask,Bot*
G04 #@! TF.FilePolarity,Negative*
%FSLAX46Y46*%
G04 Gerber Fmt 4.6, Leading zero omitted, Abs format (unit mm)*
G04 Created by KiCad (PCBNEW no-vcs-found-a35cc44~61~ubuntu16.04.1) date Thu Feb  8 08:45:13 2018*
%MOMM*%
%LPD*%
G01*
G04 APERTURE LIST*
%ADD10R,2.000000X1.500000*%
%ADD11R,2.000000X3.800000*%
%ADD12R,1.500000X1.145000*%
%ADD13R,1.145000X1.500000*%
%ADD14R,2.000000X0.600000*%
%ADD15R,2.000000X0.640000*%
%ADD16C,1.000000*%
%ADD17R,1.500000X2.000000*%
%ADD18O,1.500000X2.000000*%
%ADD19R,1.700000X1.700000*%
%ADD20O,1.700000X1.700000*%
%ADD21C,1.600000*%
%ADD22R,2.200000X1.600000*%
%ADD23O,1.600000X1.600000*%
%ADD24R,2.400000X3.500000*%
%ADD25R,1.345000X3.400000*%
G04 APERTURE END LIST*
D10*
X104110000Y-48410000D03*
X104110000Y-43810000D03*
X104110000Y-46110000D03*
D11*
X110410000Y-46110000D03*
X123472095Y-45768949D03*
D10*
X117172095Y-45768949D03*
X117172095Y-43468949D03*
X117172095Y-48068949D03*
X130350000Y-48568949D03*
X130350000Y-43968949D03*
X130350000Y-46268949D03*
D11*
X136650000Y-46268949D03*
D12*
X110613900Y-76402842D03*
X110613900Y-78487842D03*
X110633900Y-71442842D03*
X110633900Y-73527842D03*
X110453900Y-65765342D03*
X110453900Y-67850342D03*
X123333900Y-76705342D03*
X123333900Y-78790342D03*
X123343900Y-71067842D03*
X123343900Y-73152842D03*
X123333900Y-65357842D03*
X123333900Y-67442842D03*
X102000000Y-48042500D03*
X102000000Y-45957500D03*
X113864595Y-46000000D03*
X113864595Y-48085000D03*
X127500000Y-48542500D03*
X127500000Y-46457500D03*
D13*
X105915000Y-93000000D03*
X108000000Y-93000000D03*
D14*
X86800000Y-63255000D03*
X86800000Y-61985000D03*
X86800000Y-60715000D03*
X86800000Y-59445000D03*
X86800000Y-58175000D03*
X86800000Y-56905000D03*
X86800000Y-55635000D03*
X86800000Y-54365000D03*
X86800000Y-53095000D03*
X86800000Y-51825000D03*
X86800000Y-50555000D03*
X86800000Y-49285000D03*
X86800000Y-48015000D03*
X86800000Y-46745000D03*
X96200000Y-46745000D03*
X96200000Y-48015000D03*
X96200000Y-49285000D03*
X96200000Y-50555000D03*
X96200000Y-51825000D03*
X96200000Y-53095000D03*
X96200000Y-54365000D03*
X96200000Y-55635000D03*
X96200000Y-56905000D03*
X96200000Y-58175000D03*
X96200000Y-59445000D03*
X96200000Y-60715000D03*
X96200000Y-61985000D03*
X96200000Y-63255000D03*
D15*
X114083900Y-79037842D03*
X114083900Y-77767842D03*
X114083900Y-76497842D03*
X120383900Y-76497842D03*
X120383900Y-77767842D03*
X120383900Y-79037842D03*
X120533900Y-73537842D03*
X120533900Y-72267842D03*
X120533900Y-70997842D03*
X114233900Y-70997842D03*
X114233900Y-72267842D03*
X114233900Y-73537842D03*
X114013900Y-67847842D03*
X114013900Y-66577842D03*
X114013900Y-65307842D03*
X120313900Y-65307842D03*
X120313900Y-66577842D03*
X120313900Y-67847842D03*
D16*
X110538000Y-90242000D03*
X128538000Y-90242000D03*
D17*
X113538000Y-92202000D03*
D18*
X116538000Y-92202000D03*
X119538000Y-92202000D03*
X122538000Y-92202000D03*
X125538000Y-92202000D03*
D19*
X91694000Y-89408000D03*
D20*
X94234000Y-89408000D03*
X102040000Y-89190000D03*
D19*
X99500000Y-89190000D03*
X96830000Y-67690000D03*
D20*
X94290000Y-67690000D03*
X91750000Y-67690000D03*
X89210000Y-67690000D03*
X86670000Y-67690000D03*
D21*
X125050000Y-82030000D03*
X130050000Y-82030000D03*
X115050000Y-82030000D03*
X110050000Y-82030000D03*
X142050000Y-82030000D03*
X147050000Y-82030000D03*
D22*
X86500000Y-86000000D03*
X83500000Y-86000000D03*
D21*
X122350000Y-87030000D03*
D23*
X135050000Y-87030000D03*
X119050000Y-87030000D03*
D21*
X106350000Y-87030000D03*
X138050000Y-87030000D03*
D23*
X150750000Y-87030000D03*
D24*
X83000000Y-49800000D03*
X83000000Y-55000000D03*
D16*
X111230000Y-62080000D03*
X113650000Y-62080000D03*
X116190000Y-62080000D03*
X118730000Y-62080000D03*
X121270000Y-62080000D03*
X123810000Y-62080000D03*
X126350000Y-62080000D03*
X128890000Y-62080000D03*
X128890000Y-51920000D03*
X126350000Y-51920000D03*
X123810000Y-51920000D03*
X121270000Y-51920000D03*
X118730000Y-51920000D03*
X116190000Y-51920000D03*
X113650000Y-51920000D03*
X111110000Y-51920000D03*
D25*
X111592500Y-56000000D03*
X105407500Y-56000000D03*
X114815000Y-56000000D03*
X121000000Y-56000000D03*
X125000000Y-56000000D03*
X131185000Y-56000000D03*
M02*
