M48
;DRILL file {KiCad no-vcs-found-a35cc44~61~ubuntu16.04.1} date Thu Feb  8 08:45:01 2018
;FORMAT={-:-/ absolute / metric / decimal}
FMAT,2
METRIC,TZ
T1C0.400
T2C0.500
T3C0.800
T4C1.000
%
G90
G05
M71
T1
X83.82Y-45.72
X89.05Y-55.64
X91.62Y-55.92
X91.948Y-49.022
X92.339Y-50.191
X92.83Y-44.68
X92.929Y-70.166
X92.95Y-58.56
X93.218Y-75.438
X93.218Y-80.01
X93.726Y-47.244
X94.234Y-49.276
X103.59Y-59.45
X103.6Y-56.84
X103.619Y-61.169
X103.83Y-55.27
X103.886Y-62.738
X103.98Y-53.66
X104.296Y-65.044
X104.915Y-65.953
X105.664Y-72.898
X105.664Y-76.708
X105.781Y-68.028
X108.22Y-60.74
X108.93Y-49.97
X112.522Y-44.45
X112.522Y-60.452
X117.094Y-69.85
X117.602Y-49.784
X117.602Y-60.452
X117.602Y-74.93
X118.364Y-69.596
X121.666Y-69.596
X121.666Y-74.93
X132.29Y-60.38
X135.59Y-60.37
X136.38Y-63.69
X136.54Y-55.11
T2
X111.11Y-51.92
X111.23Y-62.08
X113.65Y-51.92
X113.65Y-62.08
X116.19Y-51.92
X116.19Y-62.08
X118.73Y-51.92
X118.73Y-62.08
X121.27Y-51.92
X121.27Y-62.08
X123.81Y-51.92
X123.81Y-62.08
X126.35Y-51.92
X126.35Y-62.08
X128.89Y-51.92
X128.89Y-62.08
T3
X125.05Y-82.03
X130.05Y-82.03
X106.35Y-87.03
X119.05Y-87.03
X138.05Y-87.03
X150.75Y-87.03
X122.35Y-87.03
X135.05Y-87.03
X142.05Y-82.03
X147.05Y-82.03
X110.05Y-82.03
X115.05Y-82.03
T4
X91.694Y-89.408
X94.234Y-89.408
X86.67Y-67.69
X89.21Y-67.69
X91.75Y-67.69
X94.29Y-67.69
X96.83Y-67.69
X113.538Y-92.202
X116.538Y-92.202
X119.538Y-92.202
X122.538Y-92.202
X125.538Y-92.202
X99.5Y-89.19
X102.04Y-89.19
T0
M30
