G04 #@! TF.GenerationSoftware,KiCad,Pcbnew,no-vcs-found-104b606~61~ubuntu16.04.1*
G04 #@! TF.CreationDate,2018-02-16T14:36:21-05:00*
G04 #@! TF.ProjectId,D21_2550,4432315F323535302E6B696361645F70,rev?*
G04 #@! TF.SameCoordinates,Original*
G04 #@! TF.FileFunction,Other,User*
%FSLAX46Y46*%
G04 Gerber Fmt 4.6, Leading zero omitted, Abs format (unit mm)*
G04 Created by KiCad (PCBNEW no-vcs-found-104b606~61~ubuntu16.04.1) date Fri Feb 16 14:36:21 2018*
%MOMM*%
%LPD*%
G01*
G04 APERTURE LIST*
%ADD10C,0.050000*%
G04 APERTURE END LIST*
D10*
X149450000Y-114850000D02*
G75*
G03X149450000Y-114850000I-4250000J0D01*
G01*
X159200000Y-119197500D02*
X161200000Y-119197500D01*
X161200000Y-119197500D02*
X161200000Y-122917500D01*
X161200000Y-122917500D02*
X159200000Y-122917500D01*
X159200000Y-122917500D02*
X159200000Y-119197500D01*
X139600000Y-129700000D02*
X139600000Y-120300000D01*
X139600000Y-129700000D02*
X146400000Y-129700000D01*
X146400000Y-120300000D02*
X139600000Y-120300000D01*
X146400000Y-120300000D02*
X146400000Y-129700000D01*
X155600000Y-120300000D02*
X155600000Y-129700000D01*
X155600000Y-120300000D02*
X148800000Y-120300000D01*
X148800000Y-129700000D02*
X155600000Y-129700000D01*
X148800000Y-129700000D02*
X148800000Y-120300000D01*
X159450000Y-114850000D02*
G75*
G03X159450000Y-114850000I-4250000J0D01*
G01*
X159350000Y-129967500D02*
X157050000Y-129967500D01*
X157050000Y-129967500D02*
X157050000Y-125047500D01*
X157050000Y-125047500D02*
X159350000Y-125047500D01*
X159350000Y-125047500D02*
X159350000Y-129967500D01*
X115800000Y-103000000D02*
X115800000Y-101500000D01*
X115800000Y-101500000D02*
X118720000Y-101500000D01*
X118720000Y-101500000D02*
X118720000Y-103000000D01*
X118720000Y-103000000D02*
X115800000Y-103000000D01*
X118720000Y-106000000D02*
X115800000Y-106000000D01*
X118720000Y-104500000D02*
X118720000Y-106000000D01*
X115800000Y-104500000D02*
X118720000Y-104500000D01*
X115800000Y-106000000D02*
X115800000Y-104500000D01*
X115800000Y-109000000D02*
X115800000Y-107500000D01*
X115800000Y-107500000D02*
X118720000Y-107500000D01*
X118720000Y-107500000D02*
X118720000Y-109000000D01*
X118720000Y-109000000D02*
X115800000Y-109000000D01*
X145382500Y-133000000D02*
X145382500Y-131000000D01*
X145382500Y-131000000D02*
X149102500Y-131000000D01*
X149102500Y-131000000D02*
X149102500Y-133000000D01*
X149102500Y-133000000D02*
X145382500Y-133000000D01*
X180000000Y-132900000D02*
X180000000Y-107100000D01*
X180000000Y-132900000D02*
X188000000Y-132900000D01*
X188000000Y-107100000D02*
X180000000Y-107100000D01*
X188000000Y-107100000D02*
X188000000Y-132900000D01*
X135531209Y-121200000D02*
X129381209Y-121200000D01*
X135531209Y-124800000D02*
X135531209Y-121200000D01*
X129381209Y-124800000D02*
X135531209Y-124800000D01*
X129381209Y-121200000D02*
X129381209Y-124800000D01*
X121990000Y-121200000D02*
X121990000Y-124800000D01*
X121990000Y-124800000D02*
X128140000Y-124800000D01*
X128140000Y-124800000D02*
X128140000Y-121200000D01*
X128140000Y-121200000D02*
X121990000Y-121200000D01*
X111580000Y-130800000D02*
X125330000Y-130800000D01*
X125330000Y-130800000D02*
X125330000Y-127200000D01*
X125330000Y-127200000D02*
X111580000Y-127200000D01*
X111580000Y-127200000D02*
X111580000Y-130800000D01*
X142850000Y-102540000D02*
X145150000Y-102540000D01*
X145150000Y-102540000D02*
X145150000Y-107460000D01*
X145150000Y-107460000D02*
X142850000Y-107460000D01*
X142850000Y-107460000D02*
X142850000Y-102540000D01*
X168430000Y-97490000D02*
X164710000Y-97490000D01*
X168430000Y-95490000D02*
X168430000Y-97490000D01*
X164710000Y-95490000D02*
X168430000Y-95490000D01*
X164710000Y-97490000D02*
X164710000Y-95490000D01*
X173760000Y-97490000D02*
X173760000Y-95490000D01*
X173760000Y-95490000D02*
X177480000Y-95490000D01*
X177480000Y-95490000D02*
X177480000Y-97490000D01*
X177480000Y-97490000D02*
X173760000Y-97490000D01*
X183350000Y-97490000D02*
X183350000Y-95490000D01*
X183350000Y-95490000D02*
X187070000Y-95490000D01*
X187070000Y-95490000D02*
X187070000Y-97490000D01*
X187070000Y-97490000D02*
X183350000Y-97490000D01*
X165202500Y-81490000D02*
X165202500Y-83490000D01*
X165202500Y-83490000D02*
X161482500Y-83490000D01*
X161482500Y-83490000D02*
X161482500Y-81490000D01*
X161482500Y-81490000D02*
X165202500Y-81490000D01*
X170982500Y-81490000D02*
X174702500Y-81490000D01*
X170982500Y-83490000D02*
X170982500Y-81490000D01*
X174702500Y-83490000D02*
X170982500Y-83490000D01*
X174702500Y-81490000D02*
X174702500Y-83490000D01*
X184322500Y-81490000D02*
X184322500Y-83490000D01*
X184322500Y-83490000D02*
X180602500Y-83490000D01*
X180602500Y-83490000D02*
X180602500Y-81490000D01*
X180602500Y-81490000D02*
X184322500Y-81490000D01*
X131057500Y-128190000D02*
X131057500Y-126190000D01*
X131057500Y-126190000D02*
X134777500Y-126190000D01*
X134777500Y-126190000D02*
X134777500Y-128190000D01*
X134777500Y-128190000D02*
X131057500Y-128190000D01*
X129767500Y-128230000D02*
X126047500Y-128230000D01*
X129767500Y-126230000D02*
X129767500Y-128230000D01*
X126047500Y-126230000D02*
X129767500Y-126230000D01*
X126047500Y-128230000D02*
X126047500Y-126230000D01*
X110000000Y-88050000D02*
X112000000Y-88050000D01*
X112000000Y-88050000D02*
X112000000Y-91770000D01*
X112000000Y-91770000D02*
X110000000Y-91770000D01*
X110000000Y-91770000D02*
X110000000Y-88050000D01*
X109440000Y-97870000D02*
X109440000Y-94150000D01*
X111440000Y-97870000D02*
X109440000Y-97870000D01*
X111440000Y-94150000D02*
X111440000Y-97870000D01*
X109440000Y-94150000D02*
X111440000Y-94150000D01*
X126000000Y-85817500D02*
X126000000Y-82097500D01*
X128000000Y-85817500D02*
X126000000Y-85817500D01*
X128000000Y-82097500D02*
X128000000Y-85817500D01*
X126000000Y-82097500D02*
X128000000Y-82097500D01*
X129000000Y-82182500D02*
X131000000Y-82182500D01*
X131000000Y-82182500D02*
X131000000Y-85902500D01*
X131000000Y-85902500D02*
X129000000Y-85902500D01*
X129000000Y-85902500D02*
X129000000Y-82182500D01*
X123120000Y-101250000D02*
X123120000Y-103250000D01*
X123120000Y-103250000D02*
X119400000Y-103250000D01*
X119400000Y-103250000D02*
X119400000Y-101250000D01*
X119400000Y-101250000D02*
X123120000Y-101250000D01*
X119400000Y-104250000D02*
X123120000Y-104250000D01*
X119400000Y-106250000D02*
X119400000Y-104250000D01*
X123120000Y-106250000D02*
X119400000Y-106250000D01*
X123120000Y-104250000D02*
X123120000Y-106250000D01*
X123120000Y-107250000D02*
X123120000Y-109250000D01*
X123120000Y-109250000D02*
X119400000Y-109250000D01*
X119400000Y-109250000D02*
X119400000Y-107250000D01*
X119400000Y-107250000D02*
X123120000Y-107250000D01*
X154900000Y-109050000D02*
X157500000Y-109050000D01*
X157500000Y-109050000D02*
X157500000Y-101950000D01*
X157500000Y-101950000D02*
X154900000Y-101950000D01*
X154900000Y-101950000D02*
X154900000Y-109050000D01*
X145817500Y-110000000D02*
X142097500Y-110000000D01*
X145817500Y-108000000D02*
X145817500Y-110000000D01*
X142097500Y-108000000D02*
X145817500Y-108000000D01*
X142097500Y-110000000D02*
X142097500Y-108000000D01*
X102050000Y-131000000D02*
G75*
G03X102050000Y-131000000I-3050000J0D01*
G01*
X172050000Y-124000000D02*
G75*
G03X172050000Y-124000000I-3050000J0D01*
G01*
M02*
