G04 #@! TF.GenerationSoftware,KiCad,Pcbnew,no-vcs-found-a35cc44~61~ubuntu16.04.1*
G04 #@! TF.CreationDate,2018-02-08T08:45:13-05:00*
G04 #@! TF.ProjectId,D21_2550,4432315F323535302E6B696361645F70,rev?*
G04 #@! TF.SameCoordinates,Original*
G04 #@! TF.FileFunction,Copper,L1,Top,Signal*
G04 #@! TF.FilePolarity,Positive*
%FSLAX46Y46*%
G04 Gerber Fmt 4.6, Leading zero omitted, Abs format (unit mm)*
G04 Created by KiCad (PCBNEW no-vcs-found-a35cc44~61~ubuntu16.04.1) date Thu Feb  8 08:45:13 2018*
%MOMM*%
%LPD*%
G01*
G04 APERTURE LIST*
%ADD10R,1.145000X1.500000*%
%ADD11R,1.500000X1.145000*%
%ADD12R,2.000000X3.800000*%
%ADD13R,2.000000X1.500000*%
%ADD14R,1.500000X2.000000*%
%ADD15O,1.500000X2.000000*%
%ADD16R,1.700000X1.700000*%
%ADD17O,1.700000X1.700000*%
%ADD18C,1.600000*%
%ADD19R,0.900000X1.200000*%
%ADD20O,1.600000X1.600000*%
%ADD21C,1.000000*%
%ADD22R,2.750000X1.000000*%
%ADD23R,1.500000X2.600000*%
%ADD24C,0.800000*%
%ADD25C,0.500000*%
G04 APERTURE END LIST*
D10*
X85500000Y-93500000D03*
X83415000Y-93500000D03*
X91939000Y-85436000D03*
X94024000Y-85436000D03*
X102000000Y-85190000D03*
X99915000Y-85190000D03*
D11*
X91640000Y-51997500D03*
X91640000Y-54082500D03*
X91640000Y-60810000D03*
X91640000Y-62895000D03*
X149000000Y-51915000D03*
X149000000Y-54000000D03*
X149000000Y-61000000D03*
X149000000Y-63085000D03*
D10*
X89101000Y-80264000D03*
X91186000Y-80264000D03*
X91186000Y-76454000D03*
X89101000Y-76454000D03*
X89101000Y-72644000D03*
X91186000Y-72644000D03*
D12*
X108090000Y-68050000D03*
D13*
X114390000Y-68050000D03*
X114390000Y-65750000D03*
X114390000Y-70350000D03*
X124100000Y-66000000D03*
X124100000Y-70600000D03*
X124100000Y-68300000D03*
D12*
X130400000Y-68300000D03*
X130060000Y-77190000D03*
D13*
X123760000Y-77190000D03*
X123760000Y-79490000D03*
X123760000Y-74890000D03*
D14*
X113538000Y-92202000D03*
D15*
X116538000Y-92202000D03*
X119538000Y-92202000D03*
X122538000Y-92202000D03*
X125538000Y-92202000D03*
D16*
X91694000Y-89408000D03*
D17*
X94234000Y-89408000D03*
X102040000Y-89190000D03*
D16*
X99500000Y-89190000D03*
X96830000Y-67690000D03*
D17*
X94290000Y-67690000D03*
X91750000Y-67690000D03*
X89210000Y-67690000D03*
X86670000Y-67690000D03*
D18*
X125050000Y-82030000D03*
X130050000Y-82030000D03*
X115050000Y-82030000D03*
X110050000Y-82030000D03*
X142050000Y-82030000D03*
X147050000Y-82030000D03*
D19*
X82678000Y-90424000D03*
X85978000Y-90424000D03*
D18*
X122350000Y-87030000D03*
D20*
X135050000Y-87030000D03*
X119050000Y-87030000D03*
D18*
X106350000Y-87030000D03*
X138050000Y-87030000D03*
D20*
X150750000Y-87030000D03*
D21*
X111230000Y-62080000D03*
X113650000Y-62080000D03*
X116190000Y-62080000D03*
X118730000Y-62080000D03*
X121270000Y-62080000D03*
X123810000Y-62080000D03*
X126350000Y-62080000D03*
X128890000Y-62080000D03*
X128890000Y-51920000D03*
X126350000Y-51920000D03*
X123810000Y-51920000D03*
X121270000Y-51920000D03*
X118730000Y-51920000D03*
X116190000Y-51920000D03*
X113650000Y-51920000D03*
X111110000Y-51920000D03*
D22*
X100880000Y-51000000D03*
X95120000Y-51000000D03*
X95120000Y-55000000D03*
X100880000Y-55000000D03*
X100880000Y-60000000D03*
X95120000Y-60000000D03*
X95120000Y-64000000D03*
X100880000Y-64000000D03*
X144880000Y-51000000D03*
X139120000Y-51000000D03*
X139120000Y-55000000D03*
X144880000Y-55000000D03*
X144670000Y-64000000D03*
X138910000Y-64000000D03*
X138910000Y-60000000D03*
X144670000Y-60000000D03*
D23*
X98552000Y-80772000D03*
X95552000Y-80772000D03*
X95528000Y-76200000D03*
X98528000Y-76200000D03*
X98298000Y-71628000D03*
X95298000Y-71628000D03*
D24*
X105781339Y-68028179D03*
X105664000Y-76708000D03*
X105664000Y-72898000D03*
X112522000Y-44450000D03*
X92339083Y-50190917D03*
X136380000Y-63690000D03*
X136540000Y-55110000D03*
X92950000Y-58560000D03*
X103590000Y-59450000D03*
X103600000Y-56840000D03*
X112522000Y-60452000D03*
X117602000Y-60452000D03*
X103886000Y-62738000D03*
X103830000Y-55270000D03*
X103980000Y-53660000D03*
X103618714Y-61168543D03*
X108220000Y-60740000D03*
X121666000Y-74930000D03*
X92830000Y-44680000D03*
X108930000Y-49970000D03*
X83820000Y-45720000D03*
X117602000Y-49784000D03*
X91620010Y-55920000D03*
X89050000Y-55640000D03*
X104915236Y-65953246D03*
X104296082Y-65044030D03*
X135589990Y-60370000D03*
X132290000Y-60380000D03*
X93218000Y-80010000D03*
X93726000Y-47244000D03*
X93218000Y-75438000D03*
X94234000Y-49276000D03*
X92928569Y-70165640D03*
X91948000Y-49022000D03*
X118364000Y-69596000D03*
X121666000Y-69596000D03*
X117094000Y-69850000D03*
X117602000Y-74930000D03*
D25*
X105664000Y-72898000D02*
X105664000Y-68145518D01*
X105664000Y-68145518D02*
X105781339Y-68028179D01*
X144670000Y-64000000D02*
X138910000Y-64000000D01*
X91750000Y-67690000D02*
X93402000Y-69342000D01*
X98298000Y-70358000D02*
X98298000Y-71628000D01*
X93402000Y-69342000D02*
X97282000Y-69342000D01*
X97282000Y-69342000D02*
X98298000Y-70358000D01*
X98552000Y-80772000D02*
X98552000Y-76224000D01*
X98552000Y-76224000D02*
X98528000Y-76200000D01*
X98528000Y-76200000D02*
X98528000Y-71858000D01*
X98528000Y-71858000D02*
X98298000Y-71628000D01*
X105664000Y-76708000D02*
X99036000Y-76708000D01*
X99036000Y-76708000D02*
X98528000Y-76200000D01*
X105664000Y-72898000D02*
X105664000Y-76708000D01*
X109782000Y-51000000D02*
X112522000Y-48260000D01*
X112522000Y-48260000D02*
X112522000Y-44450000D01*
X100880000Y-51000000D02*
X109782000Y-51000000D01*
X95120000Y-51000000D02*
X93148166Y-51000000D01*
X92739082Y-50590916D02*
X92339083Y-50190917D01*
X93148166Y-51000000D02*
X92739082Y-50590916D01*
X136380000Y-63690000D02*
X138600000Y-63690000D01*
X138600000Y-63690000D02*
X138910000Y-64000000D01*
X139120000Y-55000000D02*
X136650000Y-55000000D01*
X136650000Y-55000000D02*
X136540000Y-55110000D01*
X139120000Y-55000000D02*
X144880000Y-55000000D01*
X95120000Y-60000000D02*
X94390000Y-60000000D01*
X94390000Y-60000000D02*
X92950000Y-58560000D01*
X100880000Y-51000000D02*
X95120000Y-51000000D01*
X95120000Y-60000000D02*
X96995000Y-60000000D01*
X96995000Y-60000000D02*
X100880000Y-60000000D01*
X89951000Y-82364000D02*
X89101000Y-81514000D01*
X92710000Y-82364000D02*
X89951000Y-82364000D01*
X94302000Y-80772000D02*
X92710000Y-82364000D01*
X95552000Y-80772000D02*
X94302000Y-80772000D01*
X89101000Y-81514000D02*
X89101000Y-80264000D01*
X91992000Y-78486000D02*
X90955500Y-78486000D01*
X89101000Y-76631500D02*
X89101000Y-76454000D01*
X90955500Y-78486000D02*
X89101000Y-76631500D01*
X94278000Y-76200000D02*
X91992000Y-78486000D01*
X95528000Y-76200000D02*
X94278000Y-76200000D01*
X93077500Y-74398500D02*
X95298000Y-72178000D01*
X90678000Y-74398500D02*
X93077500Y-74398500D01*
X89101000Y-72821500D02*
X90678000Y-74398500D01*
X89101000Y-72644000D02*
X89101000Y-72821500D01*
X95298000Y-72178000D02*
X95298000Y-71628000D01*
X113792000Y-58928000D02*
X113030000Y-58166000D01*
X113792000Y-60168000D02*
X113792000Y-58928000D01*
X113650000Y-60310000D02*
X113792000Y-60168000D01*
X113650000Y-62080000D02*
X113650000Y-60310000D01*
X113030000Y-58166000D02*
X104874000Y-58166000D01*
X104874000Y-58166000D02*
X103590000Y-59450000D01*
X103600000Y-56840000D02*
X113190000Y-56840000D01*
X113190000Y-56840000D02*
X116190000Y-59840000D01*
X116190000Y-59840000D02*
X116190000Y-62080000D01*
X108712000Y-61976000D02*
X104648000Y-61976000D01*
X104648000Y-61976000D02*
X103886000Y-62738000D01*
X110236000Y-60452000D02*
X108712000Y-61976000D01*
X112522000Y-60452000D02*
X110236000Y-60452000D01*
X126246000Y-59436000D02*
X118618000Y-59436000D01*
X118618000Y-59436000D02*
X117602000Y-60452000D01*
X128890000Y-62080000D02*
X126246000Y-59436000D01*
X103886000Y-62992000D02*
X103886000Y-62738000D01*
X103886000Y-64008000D02*
X103886000Y-62992000D01*
X100204000Y-67690000D02*
X103886000Y-64008000D01*
X96830000Y-67690000D02*
X100204000Y-67690000D01*
X123810000Y-51920000D02*
X120630000Y-55100000D01*
X104000000Y-55100000D02*
X103830000Y-55270000D01*
X120630000Y-55100000D02*
X104000000Y-55100000D01*
X104585685Y-53620000D02*
X119570000Y-53620000D01*
X119570000Y-53620000D02*
X121270000Y-51920000D01*
X103980000Y-53660000D02*
X104545685Y-53660000D01*
X104545685Y-53660000D02*
X104585685Y-53620000D01*
X104018713Y-60768544D02*
X103618714Y-61168543D01*
X104047257Y-60740000D02*
X104018713Y-60768544D01*
X108220000Y-60740000D02*
X104047257Y-60740000D01*
X90050000Y-58147500D02*
X90050000Y-53410000D01*
X90050000Y-53410000D02*
X91462500Y-51997500D01*
X91462500Y-51997500D02*
X91640000Y-51997500D01*
X91640000Y-60810000D02*
X91640000Y-59737500D01*
X91640000Y-59737500D02*
X90050000Y-58147500D01*
X151330000Y-62220000D02*
X150465000Y-63085000D01*
X151330000Y-55080000D02*
X151330000Y-62220000D01*
X150250000Y-54000000D02*
X151330000Y-55080000D01*
X149000000Y-54000000D02*
X150250000Y-54000000D01*
X150465000Y-63085000D02*
X149000000Y-63085000D01*
X121666000Y-74930000D02*
X119634000Y-72898000D01*
X119634000Y-72898000D02*
X119634000Y-68580000D01*
X119634000Y-68580000D02*
X116804000Y-65750000D01*
X116804000Y-65750000D02*
X114390000Y-65750000D01*
X130302000Y-84836000D02*
X130302000Y-84532000D01*
X125260000Y-79490000D02*
X123760000Y-79490000D01*
X130302000Y-84532000D02*
X125260000Y-79490000D01*
X135856000Y-84836000D02*
X130302000Y-84836000D01*
X138050000Y-87030000D02*
X135856000Y-84836000D01*
X108930000Y-49970000D02*
X103770000Y-49970000D01*
X103770000Y-49970000D02*
X98480000Y-44680000D01*
X98480000Y-44680000D02*
X93395685Y-44680000D01*
X93395685Y-44680000D02*
X92830000Y-44680000D01*
X112014000Y-42418000D02*
X87122000Y-42418000D01*
X87122000Y-42418000D02*
X83820000Y-45720000D01*
X117602000Y-48006000D02*
X112014000Y-42418000D01*
X117602000Y-49784000D02*
X117602000Y-48006000D01*
X91640000Y-54082500D02*
X91640000Y-55900010D01*
X91640000Y-55900010D02*
X91620010Y-55920000D01*
X95120000Y-55000000D02*
X100880000Y-55000000D01*
X95120000Y-55000000D02*
X92557500Y-55000000D01*
X92557500Y-55000000D02*
X91640000Y-54082500D01*
X89050000Y-56205685D02*
X89050000Y-55640000D01*
X89050000Y-60482500D02*
X89050000Y-56205685D01*
X91462500Y-62895000D02*
X89050000Y-60482500D01*
X91640000Y-62895000D02*
X91462500Y-62895000D01*
X95120000Y-64000000D02*
X96995000Y-64000000D01*
X96995000Y-64000000D02*
X100880000Y-64000000D01*
X91640000Y-62895000D02*
X94015000Y-62895000D01*
X94015000Y-62895000D02*
X95120000Y-64000000D01*
X106568482Y-64300000D02*
X105315235Y-65553247D01*
X138245000Y-51000000D02*
X133980000Y-55265000D01*
X139120000Y-51000000D02*
X138245000Y-51000000D01*
X133980000Y-55265000D02*
X133980000Y-60100000D01*
X105315235Y-65553247D02*
X104915236Y-65953246D01*
X129780000Y-64300000D02*
X106568482Y-64300000D01*
X133980000Y-60100000D02*
X129780000Y-64300000D01*
X144880000Y-51000000D02*
X148085000Y-51000000D01*
X148085000Y-51000000D02*
X149000000Y-51915000D01*
X139120000Y-51000000D02*
X144880000Y-51000000D01*
X105940112Y-63400000D02*
X104696081Y-64644031D01*
X132290000Y-60380000D02*
X129270000Y-63400000D01*
X129270000Y-63400000D02*
X105940112Y-63400000D01*
X104696081Y-64644031D02*
X104296082Y-65044030D01*
X138910000Y-60000000D02*
X135959990Y-60000000D01*
X135959990Y-60000000D02*
X135589990Y-60370000D01*
X144670000Y-60000000D02*
X148000000Y-60000000D01*
X148000000Y-60000000D02*
X149000000Y-61000000D01*
X138910000Y-60000000D02*
X144670000Y-60000000D01*
X93218000Y-80010000D02*
X91440000Y-80010000D01*
X91440000Y-80010000D02*
X91186000Y-80264000D01*
X81788000Y-53848000D02*
X88392000Y-47244000D01*
X88392000Y-47244000D02*
X93726000Y-47244000D01*
X81788000Y-74930000D02*
X81788000Y-53848000D01*
X85344000Y-78486000D02*
X81788000Y-74930000D01*
X89585500Y-78486000D02*
X85344000Y-78486000D01*
X91186000Y-80264000D02*
X91186000Y-80086500D01*
X91186000Y-80086500D02*
X89585500Y-78486000D01*
X91186000Y-76454000D02*
X92202000Y-76454000D01*
X92202000Y-76454000D02*
X93218000Y-75438000D01*
X94234000Y-49276000D02*
X93029998Y-48071998D01*
X93029998Y-48071998D02*
X89596002Y-48071998D01*
X91186000Y-76276500D02*
X91186000Y-76454000D01*
X89596002Y-48071998D02*
X83058000Y-54610000D01*
X89585500Y-74676000D02*
X91186000Y-76276500D01*
X83566000Y-74676000D02*
X89585500Y-74676000D01*
X83058000Y-74168000D02*
X83566000Y-74676000D01*
X83058000Y-54610000D02*
X83058000Y-74168000D01*
X92528570Y-70565639D02*
X92928569Y-70165640D01*
X92482209Y-70612000D02*
X92528570Y-70565639D01*
X90404000Y-70612000D02*
X92482209Y-70612000D01*
X85269999Y-53668001D02*
X89916000Y-49022000D01*
X89916000Y-49022000D02*
X91948000Y-49022000D01*
X85598000Y-70612000D02*
X85269999Y-70283999D01*
X85269999Y-70283999D02*
X85269999Y-53668001D01*
X90404000Y-70612000D02*
X85598000Y-70612000D01*
X91186000Y-72644000D02*
X91186000Y-71394000D01*
X91186000Y-71394000D02*
X90404000Y-70612000D01*
X118364000Y-69596000D02*
X116818000Y-68050000D01*
X116818000Y-68050000D02*
X114390000Y-68050000D01*
X121666000Y-69596000D02*
X122962000Y-68300000D01*
X122962000Y-68300000D02*
X124100000Y-68300000D01*
X126238000Y-78218000D02*
X126238000Y-77118000D01*
X126238000Y-77118000D02*
X124010000Y-74890000D01*
X124010000Y-74890000D02*
X123760000Y-74890000D01*
X130050000Y-82030000D02*
X126238000Y-78218000D01*
X137414000Y-80264000D02*
X145284000Y-80264000D01*
X145284000Y-80264000D02*
X147050000Y-82030000D01*
X136447999Y-81230001D02*
X137414000Y-80264000D01*
X130050000Y-82030000D02*
X130849999Y-81230001D01*
X130849999Y-81230001D02*
X136447999Y-81230001D01*
X117094000Y-69850000D02*
X114890000Y-69850000D01*
X114890000Y-69850000D02*
X114390000Y-70350000D01*
X121946000Y-76454000D02*
X119126000Y-76454000D01*
X119126000Y-76454000D02*
X117602000Y-74930000D01*
X123760000Y-74890000D02*
X123510000Y-74890000D01*
X123510000Y-74890000D02*
X121946000Y-76454000D01*
X135050000Y-87030000D02*
X130050000Y-87030000D01*
X130050000Y-87030000D02*
X125050000Y-82030000D01*
X119050000Y-87030000D02*
X118250001Y-86230001D01*
X118250001Y-86230001D02*
X114250001Y-86230001D01*
X114250001Y-86230001D02*
X110849999Y-82829999D01*
X110849999Y-82829999D02*
X110050000Y-82030000D01*
X150750000Y-87030000D02*
X149950001Y-86230001D01*
X149950001Y-86230001D02*
X146250001Y-86230001D01*
X142849999Y-82829999D02*
X142050000Y-82030000D01*
X146250001Y-86230001D02*
X142849999Y-82829999D01*
M02*
