G04 #@! TF.GenerationSoftware,KiCad,Pcbnew,no-vcs-found-a35cc44~61~ubuntu16.04.1*
G04 #@! TF.CreationDate,2018-02-08T08:45:13-05:00*
G04 #@! TF.ProjectId,D21_2550,4432315F323535302E6B696361645F70,rev?*
G04 #@! TF.SameCoordinates,Original*
G04 #@! TF.FileFunction,Legend,Bot*
G04 #@! TF.FilePolarity,Positive*
%FSLAX46Y46*%
G04 Gerber Fmt 4.6, Leading zero omitted, Abs format (unit mm)*
G04 Created by KiCad (PCBNEW no-vcs-found-a35cc44~61~ubuntu16.04.1) date Thu Feb  8 08:45:13 2018*
%MOMM*%
%LPD*%
G01*
G04 APERTURE LIST*
%ADD10C,0.120000*%
%ADD11C,0.150000*%
G04 APERTURE END LIST*
D10*
X103160000Y-49520000D02*
X109170000Y-49520000D01*
X105410000Y-42700000D02*
X109170000Y-42700000D01*
X109170000Y-49520000D02*
X109170000Y-48260000D01*
X109170000Y-42700000D02*
X109170000Y-43960000D01*
X122232095Y-42358949D02*
X122232095Y-43618949D01*
X122232095Y-49178949D02*
X122232095Y-47918949D01*
X118472095Y-42358949D02*
X122232095Y-42358949D01*
X116222095Y-49178949D02*
X122232095Y-49178949D01*
X129400000Y-49678949D02*
X135410000Y-49678949D01*
X131650000Y-42858949D02*
X135410000Y-42858949D01*
X135410000Y-49678949D02*
X135410000Y-48418949D01*
X135410000Y-42858949D02*
X135410000Y-44118949D01*
X109903900Y-77595342D02*
X109903900Y-77295342D01*
X111323900Y-77595342D02*
X111323900Y-77295342D01*
X109923900Y-72335342D02*
X109923900Y-72635342D01*
X111343900Y-72335342D02*
X111343900Y-72635342D01*
X109743900Y-66957842D02*
X109743900Y-66657842D01*
X111163900Y-66957842D02*
X111163900Y-66657842D01*
X122623900Y-77597842D02*
X122623900Y-77897842D01*
X124043900Y-77597842D02*
X124043900Y-77897842D01*
X122633900Y-71960342D02*
X122633900Y-72260342D01*
X124053900Y-71960342D02*
X124053900Y-72260342D01*
X122623900Y-66250342D02*
X122623900Y-66550342D01*
X124043900Y-66250342D02*
X124043900Y-66550342D01*
X102710000Y-46850000D02*
X102710000Y-47150000D01*
X101290000Y-46850000D02*
X101290000Y-47150000D01*
X113154595Y-46892500D02*
X113154595Y-47192500D01*
X114574595Y-46892500D02*
X114574595Y-47192500D01*
X128210000Y-47350000D02*
X128210000Y-47650000D01*
X126790000Y-47350000D02*
X126790000Y-47650000D01*
X106807500Y-93710000D02*
X107107500Y-93710000D01*
X106807500Y-92290000D02*
X107107500Y-92290000D01*
D11*
X87625000Y-64125000D02*
X87625000Y-63875000D01*
X95375000Y-64125000D02*
X95375000Y-63780000D01*
X95375000Y-45875000D02*
X95375000Y-46220000D01*
X87625000Y-45875000D02*
X87625000Y-46220000D01*
X87625000Y-64125000D02*
X95375000Y-64125000D01*
X87625000Y-45875000D02*
X95375000Y-45875000D01*
X87625000Y-63875000D02*
X85800000Y-63875000D01*
D10*
X114833900Y-79467842D02*
X113133900Y-79467842D01*
X119633900Y-76067842D02*
X119633900Y-75767842D01*
X119633900Y-75767842D02*
X114833900Y-75767842D01*
X114833900Y-75767842D02*
X114833900Y-76067842D01*
X114833900Y-79467842D02*
X114833900Y-79767842D01*
X114833900Y-79767842D02*
X119633900Y-79767842D01*
X119633900Y-79767842D02*
X119633900Y-79467842D01*
X119783900Y-74267842D02*
X119783900Y-73967842D01*
X114983900Y-74267842D02*
X119783900Y-74267842D01*
X114983900Y-73967842D02*
X114983900Y-74267842D01*
X114983900Y-70267842D02*
X114983900Y-70567842D01*
X119783900Y-70267842D02*
X114983900Y-70267842D01*
X119783900Y-70567842D02*
X119783900Y-70267842D01*
X114983900Y-73967842D02*
X113283900Y-73967842D01*
X114763900Y-68277842D02*
X113063900Y-68277842D01*
X119563900Y-64877842D02*
X119563900Y-64577842D01*
X119563900Y-64577842D02*
X114763900Y-64577842D01*
X114763900Y-64577842D02*
X114763900Y-64877842D01*
X114763900Y-68277842D02*
X114763900Y-68577842D01*
X114763900Y-68577842D02*
X119563900Y-68577842D01*
X119563900Y-68577842D02*
X119563900Y-68277842D01*
X84170000Y-84270000D02*
X83560000Y-84880000D01*
X86730000Y-84270000D02*
X86730000Y-84880000D01*
X84190000Y-87710000D02*
X83590000Y-87120000D01*
X86730000Y-87710000D02*
X86730000Y-87120000D01*
X84170000Y-84270000D02*
X86710000Y-84270000D01*
X86730000Y-87710000D02*
X84190000Y-87710000D01*
X81200000Y-55100000D02*
X81200000Y-47850000D01*
X81200000Y-47850000D02*
X84800000Y-47850000D01*
X84800000Y-47850000D02*
X84800000Y-55100000D01*
X106400000Y-54290000D02*
X110600000Y-54290000D01*
X106400000Y-57710000D02*
X110600000Y-57710000D01*
X115807500Y-57710000D02*
X120007500Y-57710000D01*
X115807500Y-54290000D02*
X120007500Y-54290000D01*
X125992500Y-57710000D02*
X130192500Y-57710000D01*
X125992500Y-54290000D02*
X130192500Y-54290000D01*
D11*
X107355238Y-51157619D02*
X107450476Y-51110000D01*
X107545714Y-51014761D01*
X107688571Y-50871904D01*
X107783809Y-50824285D01*
X107879047Y-50824285D01*
X107831428Y-51062380D02*
X107926666Y-51014761D01*
X108021904Y-50919523D01*
X108069523Y-50729047D01*
X108069523Y-50395714D01*
X108021904Y-50205238D01*
X107926666Y-50110000D01*
X107831428Y-50062380D01*
X107640952Y-50062380D01*
X107545714Y-50110000D01*
X107450476Y-50205238D01*
X107402857Y-50395714D01*
X107402857Y-50729047D01*
X107450476Y-50919523D01*
X107545714Y-51014761D01*
X107640952Y-51062380D01*
X107831428Y-51062380D01*
X106450476Y-51062380D02*
X107021904Y-51062380D01*
X106736190Y-51062380D02*
X106736190Y-50062380D01*
X106831428Y-50205238D01*
X106926666Y-50300476D01*
X107021904Y-50348095D01*
X120417333Y-50816568D02*
X120512571Y-50768949D01*
X120607809Y-50673710D01*
X120750666Y-50530853D01*
X120845904Y-50483234D01*
X120941142Y-50483234D01*
X120893523Y-50721329D02*
X120988761Y-50673710D01*
X121083999Y-50578472D01*
X121131618Y-50387996D01*
X121131618Y-50054663D01*
X121083999Y-49864187D01*
X120988761Y-49768949D01*
X120893523Y-49721329D01*
X120703047Y-49721329D01*
X120607809Y-49768949D01*
X120512571Y-49864187D01*
X120464952Y-50054663D01*
X120464952Y-50387996D01*
X120512571Y-50578472D01*
X120607809Y-50673710D01*
X120703047Y-50721329D01*
X120893523Y-50721329D01*
X120083999Y-49816568D02*
X120036380Y-49768949D01*
X119941142Y-49721329D01*
X119703047Y-49721329D01*
X119607809Y-49768949D01*
X119560190Y-49816568D01*
X119512571Y-49911806D01*
X119512571Y-50007044D01*
X119560190Y-50149901D01*
X120131618Y-50721329D01*
X119512571Y-50721329D01*
X133595238Y-51316568D02*
X133690476Y-51268949D01*
X133785714Y-51173710D01*
X133928571Y-51030853D01*
X134023809Y-50983234D01*
X134119047Y-50983234D01*
X134071428Y-51221329D02*
X134166666Y-51173710D01*
X134261904Y-51078472D01*
X134309523Y-50887996D01*
X134309523Y-50554663D01*
X134261904Y-50364187D01*
X134166666Y-50268949D01*
X134071428Y-50221329D01*
X133880952Y-50221329D01*
X133785714Y-50268949D01*
X133690476Y-50364187D01*
X133642857Y-50554663D01*
X133642857Y-50887996D01*
X133690476Y-51078472D01*
X133785714Y-51173710D01*
X133880952Y-51221329D01*
X134071428Y-51221329D01*
X133309523Y-50221329D02*
X132690476Y-50221329D01*
X133023809Y-50602282D01*
X132880952Y-50602282D01*
X132785714Y-50649901D01*
X132738095Y-50697520D01*
X132690476Y-50792758D01*
X132690476Y-51030853D01*
X132738095Y-51126091D01*
X132785714Y-51173710D01*
X132880952Y-51221329D01*
X133166666Y-51221329D01*
X133261904Y-51173710D01*
X133309523Y-51126091D01*
X112916280Y-77278675D02*
X112440090Y-76945342D01*
X112916280Y-76707246D02*
X111916280Y-76707246D01*
X111916280Y-77088199D01*
X111963900Y-77183437D01*
X112011519Y-77231056D01*
X112106757Y-77278675D01*
X112249614Y-77278675D01*
X112344852Y-77231056D01*
X112392471Y-77183437D01*
X112440090Y-77088199D01*
X112440090Y-76707246D01*
X111916280Y-77612008D02*
X111916280Y-78231056D01*
X112297233Y-77897722D01*
X112297233Y-78040580D01*
X112344852Y-78135818D01*
X112392471Y-78183437D01*
X112487709Y-78231056D01*
X112725804Y-78231056D01*
X112821042Y-78183437D01*
X112868661Y-78135818D01*
X112916280Y-78040580D01*
X112916280Y-77754865D01*
X112868661Y-77659627D01*
X112821042Y-77612008D01*
X109236280Y-72318675D02*
X108760090Y-71985342D01*
X109236280Y-71747246D02*
X108236280Y-71747246D01*
X108236280Y-72128199D01*
X108283900Y-72223437D01*
X108331519Y-72271056D01*
X108426757Y-72318675D01*
X108569614Y-72318675D01*
X108664852Y-72271056D01*
X108712471Y-72223437D01*
X108760090Y-72128199D01*
X108760090Y-71747246D01*
X108569614Y-73175818D02*
X109236280Y-73175818D01*
X108188661Y-72937722D02*
X108902947Y-72699627D01*
X108902947Y-73318675D01*
X112756280Y-66641175D02*
X112280090Y-66307842D01*
X112756280Y-66069746D02*
X111756280Y-66069746D01*
X111756280Y-66450699D01*
X111803900Y-66545937D01*
X111851519Y-66593556D01*
X111946757Y-66641175D01*
X112089614Y-66641175D01*
X112184852Y-66593556D01*
X112232471Y-66545937D01*
X112280090Y-66450699D01*
X112280090Y-66069746D01*
X111756280Y-67545937D02*
X111756280Y-67069746D01*
X112232471Y-67022127D01*
X112184852Y-67069746D01*
X112137233Y-67164984D01*
X112137233Y-67403080D01*
X112184852Y-67498318D01*
X112232471Y-67545937D01*
X112327709Y-67593556D01*
X112565804Y-67593556D01*
X112661042Y-67545937D01*
X112708661Y-67498318D01*
X112756280Y-67403080D01*
X112756280Y-67164984D01*
X112708661Y-67069746D01*
X112661042Y-67022127D01*
X121936280Y-77581175D02*
X121460090Y-77247842D01*
X121936280Y-77009746D02*
X120936280Y-77009746D01*
X120936280Y-77390699D01*
X120983900Y-77485937D01*
X121031519Y-77533556D01*
X121126757Y-77581175D01*
X121269614Y-77581175D01*
X121364852Y-77533556D01*
X121412471Y-77485937D01*
X121460090Y-77390699D01*
X121460090Y-77009746D01*
X120936280Y-78438318D02*
X120936280Y-78247842D01*
X120983900Y-78152603D01*
X121031519Y-78104984D01*
X121174376Y-78009746D01*
X121364852Y-77962127D01*
X121745804Y-77962127D01*
X121841042Y-78009746D01*
X121888661Y-78057365D01*
X121936280Y-78152603D01*
X121936280Y-78343080D01*
X121888661Y-78438318D01*
X121841042Y-78485937D01*
X121745804Y-78533556D01*
X121507709Y-78533556D01*
X121412471Y-78485937D01*
X121364852Y-78438318D01*
X121317233Y-78343080D01*
X121317233Y-78152603D01*
X121364852Y-78057365D01*
X121412471Y-78009746D01*
X121507709Y-77962127D01*
X121946280Y-71943675D02*
X121470090Y-71610342D01*
X121946280Y-71372246D02*
X120946280Y-71372246D01*
X120946280Y-71753199D01*
X120993900Y-71848437D01*
X121041519Y-71896056D01*
X121136757Y-71943675D01*
X121279614Y-71943675D01*
X121374852Y-71896056D01*
X121422471Y-71848437D01*
X121470090Y-71753199D01*
X121470090Y-71372246D01*
X120946280Y-72277008D02*
X120946280Y-72943675D01*
X121946280Y-72515103D01*
X121936280Y-66233675D02*
X121460090Y-65900342D01*
X121936280Y-65662246D02*
X120936280Y-65662246D01*
X120936280Y-66043199D01*
X120983900Y-66138437D01*
X121031519Y-66186056D01*
X121126757Y-66233675D01*
X121269614Y-66233675D01*
X121364852Y-66186056D01*
X121412471Y-66138437D01*
X121460090Y-66043199D01*
X121460090Y-65662246D01*
X121364852Y-66805103D02*
X121317233Y-66709865D01*
X121269614Y-66662246D01*
X121174376Y-66614627D01*
X121126757Y-66614627D01*
X121031519Y-66662246D01*
X120983900Y-66709865D01*
X120936280Y-66805103D01*
X120936280Y-66995580D01*
X120983900Y-67090818D01*
X121031519Y-67138437D01*
X121126757Y-67186056D01*
X121174376Y-67186056D01*
X121269614Y-67138437D01*
X121317233Y-67090818D01*
X121364852Y-66995580D01*
X121364852Y-66805103D01*
X121412471Y-66709865D01*
X121460090Y-66662246D01*
X121555328Y-66614627D01*
X121745804Y-66614627D01*
X121841042Y-66662246D01*
X121888661Y-66709865D01*
X121936280Y-66805103D01*
X121936280Y-66995580D01*
X121888661Y-67090818D01*
X121841042Y-67138437D01*
X121745804Y-67186056D01*
X121555328Y-67186056D01*
X121460090Y-67138437D01*
X121412471Y-67090818D01*
X121364852Y-66995580D01*
X100602380Y-46357142D02*
X100126190Y-46023809D01*
X100602380Y-45785714D02*
X99602380Y-45785714D01*
X99602380Y-46166666D01*
X99650000Y-46261904D01*
X99697619Y-46309523D01*
X99792857Y-46357142D01*
X99935714Y-46357142D01*
X100030952Y-46309523D01*
X100078571Y-46261904D01*
X100126190Y-46166666D01*
X100126190Y-45785714D01*
X100602380Y-47309523D02*
X100602380Y-46738095D01*
X100602380Y-47023809D02*
X99602380Y-47023809D01*
X99745238Y-46928571D01*
X99840476Y-46833333D01*
X99888095Y-46738095D01*
X99697619Y-47690476D02*
X99650000Y-47738095D01*
X99602380Y-47833333D01*
X99602380Y-48071428D01*
X99650000Y-48166666D01*
X99697619Y-48214285D01*
X99792857Y-48261904D01*
X99888095Y-48261904D01*
X100030952Y-48214285D01*
X100602380Y-47642857D01*
X100602380Y-48261904D01*
X112466975Y-46399642D02*
X111990785Y-46066309D01*
X112466975Y-45828214D02*
X111466975Y-45828214D01*
X111466975Y-46209166D01*
X111514595Y-46304404D01*
X111562214Y-46352023D01*
X111657452Y-46399642D01*
X111800309Y-46399642D01*
X111895547Y-46352023D01*
X111943166Y-46304404D01*
X111990785Y-46209166D01*
X111990785Y-45828214D01*
X112466975Y-47352023D02*
X112466975Y-46780595D01*
X112466975Y-47066309D02*
X111466975Y-47066309D01*
X111609833Y-46971071D01*
X111705071Y-46875833D01*
X111752690Y-46780595D01*
X111466975Y-47685357D02*
X111466975Y-48304404D01*
X111847928Y-47971071D01*
X111847928Y-48113928D01*
X111895547Y-48209166D01*
X111943166Y-48256785D01*
X112038404Y-48304404D01*
X112276499Y-48304404D01*
X112371737Y-48256785D01*
X112419356Y-48209166D01*
X112466975Y-48113928D01*
X112466975Y-47828214D01*
X112419356Y-47732976D01*
X112371737Y-47685357D01*
X126102380Y-46857142D02*
X125626190Y-46523809D01*
X126102380Y-46285714D02*
X125102380Y-46285714D01*
X125102380Y-46666666D01*
X125150000Y-46761904D01*
X125197619Y-46809523D01*
X125292857Y-46857142D01*
X125435714Y-46857142D01*
X125530952Y-46809523D01*
X125578571Y-46761904D01*
X125626190Y-46666666D01*
X125626190Y-46285714D01*
X126102380Y-47809523D02*
X126102380Y-47238095D01*
X126102380Y-47523809D02*
X125102380Y-47523809D01*
X125245238Y-47428571D01*
X125340476Y-47333333D01*
X125388095Y-47238095D01*
X125435714Y-48666666D02*
X126102380Y-48666666D01*
X125054761Y-48428571D02*
X125769047Y-48190476D01*
X125769047Y-48809523D01*
X107600357Y-95302380D02*
X107933690Y-94826190D01*
X108171785Y-95302380D02*
X108171785Y-94302380D01*
X107790833Y-94302380D01*
X107695595Y-94350000D01*
X107647976Y-94397619D01*
X107600357Y-94492857D01*
X107600357Y-94635714D01*
X107647976Y-94730952D01*
X107695595Y-94778571D01*
X107790833Y-94826190D01*
X108171785Y-94826190D01*
X107219404Y-94397619D02*
X107171785Y-94350000D01*
X107076547Y-94302380D01*
X106838452Y-94302380D01*
X106743214Y-94350000D01*
X106695595Y-94397619D01*
X106647976Y-94492857D01*
X106647976Y-94588095D01*
X106695595Y-94730952D01*
X107267023Y-95302380D01*
X106647976Y-95302380D01*
X106314642Y-94302380D02*
X105647976Y-94302380D01*
X106076547Y-95302380D01*
X92261904Y-64502380D02*
X92261904Y-65311904D01*
X92214285Y-65407142D01*
X92166666Y-65454761D01*
X92071428Y-65502380D01*
X91880952Y-65502380D01*
X91785714Y-65454761D01*
X91738095Y-65407142D01*
X91690476Y-65311904D01*
X91690476Y-64502380D01*
X90690476Y-65502380D02*
X91261904Y-65502380D01*
X90976190Y-65502380D02*
X90976190Y-64502380D01*
X91071428Y-64645238D01*
X91166666Y-64740476D01*
X91261904Y-64788095D01*
X118095804Y-80485222D02*
X118095804Y-81294746D01*
X118048185Y-81389984D01*
X118000566Y-81437603D01*
X117905328Y-81485222D01*
X117714852Y-81485222D01*
X117619614Y-81437603D01*
X117571995Y-81389984D01*
X117524376Y-81294746D01*
X117524376Y-80485222D01*
X117095804Y-80580461D02*
X117048185Y-80532842D01*
X116952947Y-80485222D01*
X116714852Y-80485222D01*
X116619614Y-80532842D01*
X116571995Y-80580461D01*
X116524376Y-80675699D01*
X116524376Y-80770937D01*
X116571995Y-80913794D01*
X117143423Y-81485222D01*
X116524376Y-81485222D01*
X118245804Y-74985222D02*
X118245804Y-75794746D01*
X118198185Y-75889984D01*
X118150566Y-75937603D01*
X118055328Y-75985222D01*
X117864852Y-75985222D01*
X117769614Y-75937603D01*
X117721995Y-75889984D01*
X117674376Y-75794746D01*
X117674376Y-74985222D01*
X117293423Y-74985222D02*
X116674376Y-74985222D01*
X117007709Y-75366175D01*
X116864852Y-75366175D01*
X116769614Y-75413794D01*
X116721995Y-75461413D01*
X116674376Y-75556651D01*
X116674376Y-75794746D01*
X116721995Y-75889984D01*
X116769614Y-75937603D01*
X116864852Y-75985222D01*
X117150566Y-75985222D01*
X117245804Y-75937603D01*
X117293423Y-75889984D01*
X118025804Y-69295222D02*
X118025804Y-70104746D01*
X117978185Y-70199984D01*
X117930566Y-70247603D01*
X117835328Y-70295222D01*
X117644852Y-70295222D01*
X117549614Y-70247603D01*
X117501995Y-70199984D01*
X117454376Y-70104746D01*
X117454376Y-69295222D01*
X116549614Y-69628556D02*
X116549614Y-70295222D01*
X116787709Y-69247603D02*
X117025804Y-69961889D01*
X116406757Y-69961889D01*
X85166666Y-83457142D02*
X85214285Y-83504761D01*
X85357142Y-83552380D01*
X85452380Y-83552380D01*
X85595238Y-83504761D01*
X85690476Y-83409523D01*
X85738095Y-83314285D01*
X85785714Y-83123809D01*
X85785714Y-82980952D01*
X85738095Y-82790476D01*
X85690476Y-82695238D01*
X85595238Y-82600000D01*
X85452380Y-82552380D01*
X85357142Y-82552380D01*
X85214285Y-82600000D01*
X85166666Y-82647619D01*
X84833333Y-82552380D02*
X84166666Y-82552380D01*
X84595238Y-83552380D01*
X83160952Y-84671428D02*
X82399047Y-84671428D01*
X82780000Y-85052380D02*
X82780000Y-84290476D01*
X80176190Y-51923809D02*
X80652380Y-51923809D01*
X79652380Y-51590476D02*
X80176190Y-51923809D01*
X79652380Y-52257142D01*
X80652380Y-53114285D02*
X80652380Y-52542857D01*
X80652380Y-52828571D02*
X79652380Y-52828571D01*
X79795238Y-52733333D01*
X79890476Y-52638095D01*
X79938095Y-52542857D01*
X109142857Y-59302380D02*
X109476190Y-58826190D01*
X109714285Y-59302380D02*
X109714285Y-58302380D01*
X109333333Y-58302380D01*
X109238095Y-58350000D01*
X109190476Y-58397619D01*
X109142857Y-58492857D01*
X109142857Y-58635714D01*
X109190476Y-58730952D01*
X109238095Y-58778571D01*
X109333333Y-58826190D01*
X109714285Y-58826190D01*
X108190476Y-59302380D02*
X108761904Y-59302380D01*
X108476190Y-59302380D02*
X108476190Y-58302380D01*
X108571428Y-58445238D01*
X108666666Y-58540476D01*
X108761904Y-58588095D01*
X107285714Y-58302380D02*
X107761904Y-58302380D01*
X107809523Y-58778571D01*
X107761904Y-58730952D01*
X107666666Y-58683333D01*
X107428571Y-58683333D01*
X107333333Y-58730952D01*
X107285714Y-58778571D01*
X107238095Y-58873809D01*
X107238095Y-59111904D01*
X107285714Y-59207142D01*
X107333333Y-59254761D01*
X107428571Y-59302380D01*
X107666666Y-59302380D01*
X107761904Y-59254761D01*
X107809523Y-59207142D01*
X118550357Y-59302380D02*
X118883690Y-58826190D01*
X119121785Y-59302380D02*
X119121785Y-58302380D01*
X118740833Y-58302380D01*
X118645595Y-58350000D01*
X118597976Y-58397619D01*
X118550357Y-58492857D01*
X118550357Y-58635714D01*
X118597976Y-58730952D01*
X118645595Y-58778571D01*
X118740833Y-58826190D01*
X119121785Y-58826190D01*
X117597976Y-59302380D02*
X118169404Y-59302380D01*
X117883690Y-59302380D02*
X117883690Y-58302380D01*
X117978928Y-58445238D01*
X118074166Y-58540476D01*
X118169404Y-58588095D01*
X116740833Y-58302380D02*
X116931309Y-58302380D01*
X117026547Y-58350000D01*
X117074166Y-58397619D01*
X117169404Y-58540476D01*
X117217023Y-58730952D01*
X117217023Y-59111904D01*
X117169404Y-59207142D01*
X117121785Y-59254761D01*
X117026547Y-59302380D01*
X116836071Y-59302380D01*
X116740833Y-59254761D01*
X116693214Y-59207142D01*
X116645595Y-59111904D01*
X116645595Y-58873809D01*
X116693214Y-58778571D01*
X116740833Y-58730952D01*
X116836071Y-58683333D01*
X117026547Y-58683333D01*
X117121785Y-58730952D01*
X117169404Y-58778571D01*
X117217023Y-58873809D01*
X128735357Y-59302380D02*
X129068690Y-58826190D01*
X129306785Y-59302380D02*
X129306785Y-58302380D01*
X128925833Y-58302380D01*
X128830595Y-58350000D01*
X128782976Y-58397619D01*
X128735357Y-58492857D01*
X128735357Y-58635714D01*
X128782976Y-58730952D01*
X128830595Y-58778571D01*
X128925833Y-58826190D01*
X129306785Y-58826190D01*
X127782976Y-59302380D02*
X128354404Y-59302380D01*
X128068690Y-59302380D02*
X128068690Y-58302380D01*
X128163928Y-58445238D01*
X128259166Y-58540476D01*
X128354404Y-58588095D01*
X127449642Y-58302380D02*
X126782976Y-58302380D01*
X127211547Y-59302380D01*
M02*
