G04 #@! TF.GenerationSoftware,KiCad,Pcbnew,no-vcs-found-a35cc44~61~ubuntu16.04.1*
G04 #@! TF.CreationDate,2018-02-08T08:45:13-05:00*
G04 #@! TF.ProjectId,D21_2550,4432315F323535302E6B696361645F70,rev?*
G04 #@! TF.SameCoordinates,Original*
G04 #@! TF.FileFunction,Drawing*
%FSLAX46Y46*%
G04 Gerber Fmt 4.6, Leading zero omitted, Abs format (unit mm)*
G04 Created by KiCad (PCBNEW no-vcs-found-a35cc44~61~ubuntu16.04.1) date Thu Feb  8 08:45:13 2018*
%MOMM*%
%LPD*%
G01*
G04 APERTURE LIST*
%ADD10C,0.300000*%
G04 APERTURE END LIST*
D10*
X164171428Y-62071428D02*
X164171428Y-61357142D01*
X163457142Y-61285714D01*
X163528571Y-61357142D01*
X163600000Y-61500000D01*
X163600000Y-61857142D01*
X163528571Y-62000000D01*
X163457142Y-62071428D01*
X163314285Y-62142857D01*
X162957142Y-62142857D01*
X162814285Y-62071428D01*
X162742857Y-62000000D01*
X162671428Y-61857142D01*
X162671428Y-61500000D01*
X162742857Y-61357142D01*
X162814285Y-61285714D01*
X164171428Y-63500000D02*
X164171428Y-62785714D01*
X163457142Y-62714285D01*
X163528571Y-62785714D01*
X163600000Y-62928571D01*
X163600000Y-63285714D01*
X163528571Y-63428571D01*
X163457142Y-63500000D01*
X163314285Y-63571428D01*
X162957142Y-63571428D01*
X162814285Y-63500000D01*
X162742857Y-63428571D01*
X162671428Y-63285714D01*
X162671428Y-62928571D01*
X162742857Y-62785714D01*
X162814285Y-62714285D01*
X162742857Y-64285714D02*
X162671428Y-64285714D01*
X162528571Y-64214285D01*
X162457142Y-64142857D01*
X164171428Y-65214285D02*
X164171428Y-65357142D01*
X164100000Y-65500000D01*
X164028571Y-65571428D01*
X163885714Y-65642857D01*
X163600000Y-65714285D01*
X163242857Y-65714285D01*
X162957142Y-65642857D01*
X162814285Y-65571428D01*
X162742857Y-65500000D01*
X162671428Y-65357142D01*
X162671428Y-65214285D01*
X162742857Y-65071428D01*
X162814285Y-65000000D01*
X162957142Y-64928571D01*
X163242857Y-64857142D01*
X163600000Y-64857142D01*
X163885714Y-64928571D01*
X164028571Y-65000000D01*
X164100000Y-65071428D01*
X164171428Y-65214285D01*
X164171428Y-66642857D02*
X164171428Y-66785714D01*
X164100000Y-66928571D01*
X164028571Y-67000000D01*
X163885714Y-67071428D01*
X163600000Y-67142857D01*
X163242857Y-67142857D01*
X162957142Y-67071428D01*
X162814285Y-67000000D01*
X162742857Y-66928571D01*
X162671428Y-66785714D01*
X162671428Y-66642857D01*
X162742857Y-66500000D01*
X162814285Y-66428571D01*
X162957142Y-66357142D01*
X163242857Y-66285714D01*
X163600000Y-66285714D01*
X163885714Y-66357142D01*
X164028571Y-66428571D01*
X164100000Y-66500000D01*
X164171428Y-66642857D01*
X164171428Y-68071428D02*
X164171428Y-68214285D01*
X164100000Y-68357142D01*
X164028571Y-68428571D01*
X163885714Y-68500000D01*
X163600000Y-68571428D01*
X163242857Y-68571428D01*
X162957142Y-68500000D01*
X162814285Y-68428571D01*
X162742857Y-68357142D01*
X162671428Y-68214285D01*
X162671428Y-68071428D01*
X162742857Y-67928571D01*
X162814285Y-67857142D01*
X162957142Y-67785714D01*
X163242857Y-67714285D01*
X163600000Y-67714285D01*
X163885714Y-67785714D01*
X164028571Y-67857142D01*
X164100000Y-67928571D01*
X164171428Y-68071428D01*
X162671428Y-70357142D02*
X163671428Y-70357142D01*
X163528571Y-70357142D02*
X163600000Y-70428571D01*
X163671428Y-70571428D01*
X163671428Y-70785714D01*
X163600000Y-70928571D01*
X163457142Y-71000000D01*
X162671428Y-71000000D01*
X163457142Y-71000000D02*
X163600000Y-71071428D01*
X163671428Y-71214285D01*
X163671428Y-71428571D01*
X163600000Y-71571428D01*
X163457142Y-71642857D01*
X162671428Y-71642857D01*
X162671428Y-72357142D02*
X163671428Y-72357142D01*
X163528571Y-72357142D02*
X163600000Y-72428571D01*
X163671428Y-72571428D01*
X163671428Y-72785714D01*
X163600000Y-72928571D01*
X163457142Y-73000000D01*
X162671428Y-73000000D01*
X163457142Y-73000000D02*
X163600000Y-73071428D01*
X163671428Y-73214285D01*
X163671428Y-73428571D01*
X163600000Y-73571428D01*
X163457142Y-73642857D01*
X162671428Y-73642857D01*
X162000000Y-40000000D02*
X162000000Y-95000000D01*
X160000000Y-40000000D02*
X164700000Y-40000000D01*
X160000000Y-95000000D02*
X164700000Y-95000000D01*
X162000000Y-95000000D02*
X161413579Y-93873496D01*
X162000000Y-95000000D02*
X162586421Y-93873496D01*
X162000000Y-40000000D02*
X161413579Y-41126504D01*
X162000000Y-40000000D02*
X162586421Y-41126504D01*
X94500000Y-35828571D02*
X94500000Y-36828571D01*
X94142857Y-35257142D02*
X93785714Y-36328571D01*
X94714285Y-36328571D01*
X95571428Y-35328571D02*
X95714285Y-35328571D01*
X95857142Y-35400000D01*
X95928571Y-35471428D01*
X96000000Y-35614285D01*
X96071428Y-35900000D01*
X96071428Y-36257142D01*
X96000000Y-36542857D01*
X95928571Y-36685714D01*
X95857142Y-36757142D01*
X95714285Y-36828571D01*
X95571428Y-36828571D01*
X95428571Y-36757142D01*
X95357142Y-36685714D01*
X95285714Y-36542857D01*
X95214285Y-36257142D01*
X95214285Y-35900000D01*
X95285714Y-35614285D01*
X95357142Y-35471428D01*
X95428571Y-35400000D01*
X95571428Y-35328571D01*
X96785714Y-36757142D02*
X96785714Y-36828571D01*
X96714285Y-36971428D01*
X96642857Y-37042857D01*
X97714285Y-35328571D02*
X97857142Y-35328571D01*
X98000000Y-35400000D01*
X98071428Y-35471428D01*
X98142857Y-35614285D01*
X98214285Y-35900000D01*
X98214285Y-36257142D01*
X98142857Y-36542857D01*
X98071428Y-36685714D01*
X98000000Y-36757142D01*
X97857142Y-36828571D01*
X97714285Y-36828571D01*
X97571428Y-36757142D01*
X97500000Y-36685714D01*
X97428571Y-36542857D01*
X97357142Y-36257142D01*
X97357142Y-35900000D01*
X97428571Y-35614285D01*
X97500000Y-35471428D01*
X97571428Y-35400000D01*
X97714285Y-35328571D01*
X99142857Y-35328571D02*
X99285714Y-35328571D01*
X99428571Y-35400000D01*
X99500000Y-35471428D01*
X99571428Y-35614285D01*
X99642857Y-35900000D01*
X99642857Y-36257142D01*
X99571428Y-36542857D01*
X99500000Y-36685714D01*
X99428571Y-36757142D01*
X99285714Y-36828571D01*
X99142857Y-36828571D01*
X99000000Y-36757142D01*
X98928571Y-36685714D01*
X98857142Y-36542857D01*
X98785714Y-36257142D01*
X98785714Y-35900000D01*
X98857142Y-35614285D01*
X98928571Y-35471428D01*
X99000000Y-35400000D01*
X99142857Y-35328571D01*
X100571428Y-35328571D02*
X100714285Y-35328571D01*
X100857142Y-35400000D01*
X100928571Y-35471428D01*
X101000000Y-35614285D01*
X101071428Y-35900000D01*
X101071428Y-36257142D01*
X101000000Y-36542857D01*
X100928571Y-36685714D01*
X100857142Y-36757142D01*
X100714285Y-36828571D01*
X100571428Y-36828571D01*
X100428571Y-36757142D01*
X100357142Y-36685714D01*
X100285714Y-36542857D01*
X100214285Y-36257142D01*
X100214285Y-35900000D01*
X100285714Y-35614285D01*
X100357142Y-35471428D01*
X100428571Y-35400000D01*
X100571428Y-35328571D01*
X102857142Y-36828571D02*
X102857142Y-35828571D01*
X102857142Y-35971428D02*
X102928571Y-35900000D01*
X103071428Y-35828571D01*
X103285714Y-35828571D01*
X103428571Y-35900000D01*
X103500000Y-36042857D01*
X103500000Y-36828571D01*
X103500000Y-36042857D02*
X103571428Y-35900000D01*
X103714285Y-35828571D01*
X103928571Y-35828571D01*
X104071428Y-35900000D01*
X104142857Y-36042857D01*
X104142857Y-36828571D01*
X104857142Y-36828571D02*
X104857142Y-35828571D01*
X104857142Y-35971428D02*
X104928571Y-35900000D01*
X105071428Y-35828571D01*
X105285714Y-35828571D01*
X105428571Y-35900000D01*
X105500000Y-36042857D01*
X105500000Y-36828571D01*
X105500000Y-36042857D02*
X105571428Y-35900000D01*
X105714285Y-35828571D01*
X105928571Y-35828571D01*
X106071428Y-35900000D01*
X106142857Y-36042857D01*
X106142857Y-36828571D01*
X80000000Y-37500000D02*
X120000000Y-37500000D01*
X80000000Y-40000000D02*
X80000000Y-34800000D01*
X120000000Y-40000000D02*
X120000000Y-34800000D01*
X120000000Y-37500000D02*
X118873496Y-38086421D01*
X120000000Y-37500000D02*
X118873496Y-36913579D01*
X80000000Y-37500000D02*
X81126504Y-38086421D01*
X80000000Y-37500000D02*
X81126504Y-36913579D01*
M02*
