G04 #@! TF.GenerationSoftware,KiCad,Pcbnew,no-vcs-found-a35cc44~61~ubuntu16.04.1*
G04 #@! TF.CreationDate,2018-02-08T08:45:13-05:00*
G04 #@! TF.ProjectId,D21_2550,4432315F323535302E6B696361645F70,rev?*
G04 #@! TF.SameCoordinates,Original*
G04 #@! TF.FileFunction,Other,Fab,Bot*
%FSLAX46Y46*%
G04 Gerber Fmt 4.6, Leading zero omitted, Abs format (unit mm)*
G04 Created by KiCad (PCBNEW no-vcs-found-a35cc44~61~ubuntu16.04.1) date Thu Feb  8 08:45:13 2018*
%MOMM*%
%LPD*%
G01*
G04 APERTURE LIST*
%ADD10C,0.100000*%
%ADD11C,0.150000*%
%ADD12C,0.120000*%
%ADD13C,0.080000*%
G04 APERTURE END LIST*
D10*
X109110000Y-49460000D02*
X109110000Y-42760000D01*
X105410000Y-42760000D02*
X109110000Y-42760000D01*
X106460000Y-49460000D02*
X109110000Y-49460000D01*
X105410000Y-48410000D02*
X105410000Y-42760000D01*
X105410000Y-48410000D02*
X106460000Y-49460000D01*
X118472095Y-48068949D02*
X119522095Y-49118949D01*
X118472095Y-48068949D02*
X118472095Y-42418949D01*
X119522095Y-49118949D02*
X122172095Y-49118949D01*
X118472095Y-42418949D02*
X122172095Y-42418949D01*
X122172095Y-49118949D02*
X122172095Y-42418949D01*
X135350000Y-49618949D02*
X135350000Y-42918949D01*
X131650000Y-42918949D02*
X135350000Y-42918949D01*
X132700000Y-49618949D02*
X135350000Y-49618949D01*
X131650000Y-48568949D02*
X131650000Y-42918949D01*
X131650000Y-48568949D02*
X132700000Y-49618949D01*
X110013900Y-76445342D02*
X110013900Y-78445342D01*
X111213900Y-76445342D02*
X110013900Y-76445342D01*
X111213900Y-78445342D02*
X111213900Y-76445342D01*
X110013900Y-78445342D02*
X111213900Y-78445342D01*
X111233900Y-71485342D02*
X110033900Y-71485342D01*
X110033900Y-71485342D02*
X110033900Y-73485342D01*
X110033900Y-73485342D02*
X111233900Y-73485342D01*
X111233900Y-73485342D02*
X111233900Y-71485342D01*
X109853900Y-65807842D02*
X109853900Y-67807842D01*
X111053900Y-65807842D02*
X109853900Y-65807842D01*
X111053900Y-67807842D02*
X111053900Y-65807842D01*
X109853900Y-67807842D02*
X111053900Y-67807842D01*
X123933900Y-76747842D02*
X122733900Y-76747842D01*
X122733900Y-76747842D02*
X122733900Y-78747842D01*
X122733900Y-78747842D02*
X123933900Y-78747842D01*
X123933900Y-78747842D02*
X123933900Y-76747842D01*
X123943900Y-71110342D02*
X122743900Y-71110342D01*
X122743900Y-71110342D02*
X122743900Y-73110342D01*
X122743900Y-73110342D02*
X123943900Y-73110342D01*
X123943900Y-73110342D02*
X123943900Y-71110342D01*
X123933900Y-65400342D02*
X122733900Y-65400342D01*
X122733900Y-65400342D02*
X122733900Y-67400342D01*
X122733900Y-67400342D02*
X123933900Y-67400342D01*
X123933900Y-67400342D02*
X123933900Y-65400342D01*
X102600000Y-48000000D02*
X102600000Y-46000000D01*
X101400000Y-48000000D02*
X102600000Y-48000000D01*
X101400000Y-46000000D02*
X101400000Y-48000000D01*
X102600000Y-46000000D02*
X101400000Y-46000000D01*
X114464595Y-46042500D02*
X113264595Y-46042500D01*
X113264595Y-46042500D02*
X113264595Y-48042500D01*
X113264595Y-48042500D02*
X114464595Y-48042500D01*
X114464595Y-48042500D02*
X114464595Y-46042500D01*
X128100000Y-48500000D02*
X128100000Y-46500000D01*
X126900000Y-48500000D02*
X128100000Y-48500000D01*
X126900000Y-46500000D02*
X126900000Y-48500000D01*
X128100000Y-46500000D02*
X126900000Y-46500000D01*
X105957500Y-92400000D02*
X105957500Y-93600000D01*
X105957500Y-93600000D02*
X107957500Y-93600000D01*
X107957500Y-93600000D02*
X107957500Y-92400000D01*
X107957500Y-92400000D02*
X105957500Y-92400000D01*
D11*
X88750000Y-63950000D02*
X95250000Y-63950000D01*
X95250000Y-63950000D02*
X95250000Y-46050000D01*
X95250000Y-46050000D02*
X87750000Y-46050000D01*
X87750000Y-46050000D02*
X87750000Y-62950000D01*
X87750000Y-62950000D02*
X88750000Y-63950000D01*
D12*
X119433900Y-79567842D02*
X119433900Y-75967842D01*
X119433900Y-75967842D02*
X115033900Y-75967842D01*
X115033900Y-75967842D02*
X115033900Y-78767842D01*
X115033900Y-78767842D02*
X115833900Y-79567842D01*
X115833900Y-79567842D02*
X119433900Y-79567842D01*
X115983900Y-74067842D02*
X119583900Y-74067842D01*
X115183900Y-73267842D02*
X115983900Y-74067842D01*
X115183900Y-70467842D02*
X115183900Y-73267842D01*
X119583900Y-70467842D02*
X115183900Y-70467842D01*
X119583900Y-74067842D02*
X119583900Y-70467842D01*
X119363900Y-68377842D02*
X119363900Y-64777842D01*
X119363900Y-64777842D02*
X114963900Y-64777842D01*
X114963900Y-64777842D02*
X114963900Y-67577842D01*
X114963900Y-67577842D02*
X115763900Y-68377842D01*
X115763900Y-68377842D02*
X119363900Y-68377842D01*
D10*
X86529706Y-86000000D02*
G75*
G03X86529706Y-86000000I-1529706J0D01*
G01*
X83440000Y-86750000D02*
X83440000Y-85230000D01*
X84250000Y-87560000D02*
X83440000Y-86750000D01*
X84240000Y-84430000D02*
X83440000Y-85230000D01*
X86570000Y-84430000D02*
X86570000Y-87560000D01*
X86560000Y-84430000D02*
X84240000Y-84430000D01*
X86570000Y-87560000D02*
X84250000Y-87560000D01*
X81400000Y-50100000D02*
X81400000Y-54700000D01*
X81400000Y-54700000D02*
X81600000Y-54900000D01*
X81600000Y-54900000D02*
X84400000Y-54900000D01*
X84400000Y-54900000D02*
X84600000Y-54700000D01*
X84600000Y-54700000D02*
X84600000Y-50100000D01*
X84600000Y-50100000D02*
X84400000Y-49900000D01*
X84400000Y-49900000D02*
X81600000Y-49900000D01*
X81600000Y-49900000D02*
X81400000Y-50100000D01*
X83600000Y-49900000D02*
X84600000Y-50900000D01*
X111650000Y-54400000D02*
X105350000Y-54400000D01*
X111650000Y-57600000D02*
X111650000Y-54400000D01*
X105350000Y-57600000D02*
X111650000Y-57600000D01*
X105350000Y-54400000D02*
X105350000Y-57600000D01*
X114757500Y-54400000D02*
X114757500Y-57600000D01*
X114757500Y-57600000D02*
X121057500Y-57600000D01*
X121057500Y-57600000D02*
X121057500Y-54400000D01*
X121057500Y-54400000D02*
X114757500Y-54400000D01*
X124942500Y-54400000D02*
X124942500Y-57600000D01*
X124942500Y-57600000D02*
X131242500Y-57600000D01*
X131242500Y-57600000D02*
X131242500Y-54400000D01*
X131242500Y-54400000D02*
X124942500Y-54400000D01*
D11*
X110212380Y-41538571D02*
X110545714Y-41538571D01*
X110545714Y-42062380D02*
X110545714Y-41062380D01*
X110069523Y-41062380D01*
X109783809Y-41062380D02*
X109117142Y-41062380D01*
X109783809Y-42062380D01*
X109117142Y-42062380D01*
X108879047Y-41062380D02*
X108307619Y-41062380D01*
X108593333Y-42062380D02*
X108593333Y-41062380D01*
X107545714Y-41395714D02*
X107545714Y-42062380D01*
X107783809Y-41014761D02*
X108021904Y-41729047D01*
X107402857Y-41729047D01*
X106974285Y-42062380D02*
X106783809Y-42062380D01*
X106688571Y-42014761D01*
X106640952Y-41967142D01*
X106545714Y-41824285D01*
X106498095Y-41633809D01*
X106498095Y-41252857D01*
X106545714Y-41157619D01*
X106593333Y-41110000D01*
X106688571Y-41062380D01*
X106879047Y-41062380D01*
X106974285Y-41110000D01*
X107021904Y-41157619D01*
X107069523Y-41252857D01*
X107069523Y-41490952D01*
X107021904Y-41586190D01*
X106974285Y-41633809D01*
X106879047Y-41681428D01*
X106688571Y-41681428D01*
X106593333Y-41633809D01*
X106545714Y-41586190D01*
X106498095Y-41490952D01*
X106164761Y-41062380D02*
X105545714Y-41062380D01*
X105879047Y-41443333D01*
X105736190Y-41443333D01*
X105640952Y-41490952D01*
X105593333Y-41538571D01*
X105545714Y-41633809D01*
X105545714Y-41871904D01*
X105593333Y-41967142D01*
X105640952Y-42014761D01*
X105736190Y-42062380D01*
X106021904Y-42062380D01*
X106117142Y-42014761D01*
X106164761Y-41967142D01*
X105260000Y-41062380D02*
X104688571Y-41062380D01*
X104974285Y-42062380D02*
X104974285Y-41062380D01*
X104402857Y-41776666D02*
X103926666Y-41776666D01*
X104498095Y-42062380D02*
X104164761Y-41062380D01*
X103831428Y-42062380D01*
D12*
X106821904Y-46186190D02*
X106860000Y-46262380D01*
X106936190Y-46338571D01*
X107050476Y-46452857D01*
X107088571Y-46529047D01*
X107088571Y-46605238D01*
X106898095Y-46567142D02*
X106936190Y-46643333D01*
X107012380Y-46719523D01*
X107164761Y-46757619D01*
X107431428Y-46757619D01*
X107583809Y-46719523D01*
X107660000Y-46643333D01*
X107698095Y-46567142D01*
X107698095Y-46414761D01*
X107660000Y-46338571D01*
X107583809Y-46262380D01*
X107431428Y-46224285D01*
X107164761Y-46224285D01*
X107012380Y-46262380D01*
X106936190Y-46338571D01*
X106898095Y-46414761D01*
X106898095Y-46567142D01*
X106898095Y-45462380D02*
X106898095Y-45919523D01*
X106898095Y-45690952D02*
X107698095Y-45690952D01*
X107583809Y-45767142D01*
X107507619Y-45843333D01*
X107469523Y-45919523D01*
D11*
X123274475Y-41197520D02*
X123607809Y-41197520D01*
X123607809Y-41721329D02*
X123607809Y-40721329D01*
X123131618Y-40721329D01*
X122845904Y-40721329D02*
X122179237Y-40721329D01*
X122845904Y-41721329D01*
X122179237Y-41721329D01*
X121941142Y-40721329D02*
X121369714Y-40721329D01*
X121655428Y-41721329D02*
X121655428Y-40721329D01*
X120607809Y-41054663D02*
X120607809Y-41721329D01*
X120845904Y-40673710D02*
X121083999Y-41387996D01*
X120464952Y-41387996D01*
X120036380Y-41721329D02*
X119845904Y-41721329D01*
X119750666Y-41673710D01*
X119703047Y-41626091D01*
X119607809Y-41483234D01*
X119560190Y-41292758D01*
X119560190Y-40911806D01*
X119607809Y-40816568D01*
X119655428Y-40768949D01*
X119750666Y-40721329D01*
X119941142Y-40721329D01*
X120036380Y-40768949D01*
X120083999Y-40816568D01*
X120131618Y-40911806D01*
X120131618Y-41149901D01*
X120083999Y-41245139D01*
X120036380Y-41292758D01*
X119941142Y-41340377D01*
X119750666Y-41340377D01*
X119655428Y-41292758D01*
X119607809Y-41245139D01*
X119560190Y-41149901D01*
X119226856Y-40721329D02*
X118607809Y-40721329D01*
X118941142Y-41102282D01*
X118798285Y-41102282D01*
X118703047Y-41149901D01*
X118655428Y-41197520D01*
X118607809Y-41292758D01*
X118607809Y-41530853D01*
X118655428Y-41626091D01*
X118703047Y-41673710D01*
X118798285Y-41721329D01*
X119083999Y-41721329D01*
X119179237Y-41673710D01*
X119226856Y-41626091D01*
X118322095Y-40721329D02*
X117750666Y-40721329D01*
X118036380Y-41721329D02*
X118036380Y-40721329D01*
X117464952Y-41435615D02*
X116988761Y-41435615D01*
X117560190Y-41721329D02*
X117226856Y-40721329D01*
X116893523Y-41721329D01*
D12*
X119883999Y-45845139D02*
X119922095Y-45921329D01*
X119998285Y-45997520D01*
X120112571Y-46111806D01*
X120150666Y-46187996D01*
X120150666Y-46264187D01*
X119960190Y-46226091D02*
X119998285Y-46302282D01*
X120074475Y-46378472D01*
X120226856Y-46416568D01*
X120493523Y-46416568D01*
X120645904Y-46378472D01*
X120722095Y-46302282D01*
X120760190Y-46226091D01*
X120760190Y-46073710D01*
X120722095Y-45997520D01*
X120645904Y-45921329D01*
X120493523Y-45883234D01*
X120226856Y-45883234D01*
X120074475Y-45921329D01*
X119998285Y-45997520D01*
X119960190Y-46073710D01*
X119960190Y-46226091D01*
X120683999Y-45578472D02*
X120722095Y-45540377D01*
X120760190Y-45464187D01*
X120760190Y-45273710D01*
X120722095Y-45197520D01*
X120683999Y-45159425D01*
X120607809Y-45121329D01*
X120531618Y-45121329D01*
X120417333Y-45159425D01*
X119960190Y-45616568D01*
X119960190Y-45121329D01*
D11*
X136452380Y-41697520D02*
X136785714Y-41697520D01*
X136785714Y-42221329D02*
X136785714Y-41221329D01*
X136309523Y-41221329D01*
X136023809Y-41221329D02*
X135357142Y-41221329D01*
X136023809Y-42221329D01*
X135357142Y-42221329D01*
X135119047Y-41221329D02*
X134547619Y-41221329D01*
X134833333Y-42221329D02*
X134833333Y-41221329D01*
X133785714Y-41554663D02*
X133785714Y-42221329D01*
X134023809Y-41173710D02*
X134261904Y-41887996D01*
X133642857Y-41887996D01*
X133214285Y-42221329D02*
X133023809Y-42221329D01*
X132928571Y-42173710D01*
X132880952Y-42126091D01*
X132785714Y-41983234D01*
X132738095Y-41792758D01*
X132738095Y-41411806D01*
X132785714Y-41316568D01*
X132833333Y-41268949D01*
X132928571Y-41221329D01*
X133119047Y-41221329D01*
X133214285Y-41268949D01*
X133261904Y-41316568D01*
X133309523Y-41411806D01*
X133309523Y-41649901D01*
X133261904Y-41745139D01*
X133214285Y-41792758D01*
X133119047Y-41840377D01*
X132928571Y-41840377D01*
X132833333Y-41792758D01*
X132785714Y-41745139D01*
X132738095Y-41649901D01*
X132404761Y-41221329D02*
X131785714Y-41221329D01*
X132119047Y-41602282D01*
X131976190Y-41602282D01*
X131880952Y-41649901D01*
X131833333Y-41697520D01*
X131785714Y-41792758D01*
X131785714Y-42030853D01*
X131833333Y-42126091D01*
X131880952Y-42173710D01*
X131976190Y-42221329D01*
X132261904Y-42221329D01*
X132357142Y-42173710D01*
X132404761Y-42126091D01*
X131500000Y-41221329D02*
X130928571Y-41221329D01*
X131214285Y-42221329D02*
X131214285Y-41221329D01*
X130642857Y-41935615D02*
X130166666Y-41935615D01*
X130738095Y-42221329D02*
X130404761Y-41221329D01*
X130071428Y-42221329D01*
D12*
X133061904Y-46345139D02*
X133100000Y-46421329D01*
X133176190Y-46497520D01*
X133290476Y-46611806D01*
X133328571Y-46687996D01*
X133328571Y-46764187D01*
X133138095Y-46726091D02*
X133176190Y-46802282D01*
X133252380Y-46878472D01*
X133404761Y-46916568D01*
X133671428Y-46916568D01*
X133823809Y-46878472D01*
X133900000Y-46802282D01*
X133938095Y-46726091D01*
X133938095Y-46573710D01*
X133900000Y-46497520D01*
X133823809Y-46421329D01*
X133671428Y-46383234D01*
X133404761Y-46383234D01*
X133252380Y-46421329D01*
X133176190Y-46497520D01*
X133138095Y-46573710D01*
X133138095Y-46726091D01*
X133938095Y-46116568D02*
X133938095Y-45621329D01*
X133633333Y-45887996D01*
X133633333Y-45773710D01*
X133595238Y-45697520D01*
X133557142Y-45659425D01*
X133480952Y-45621329D01*
X133290476Y-45621329D01*
X133214285Y-45659425D01*
X133176190Y-45697520D01*
X133138095Y-45773710D01*
X133138095Y-46002282D01*
X133176190Y-46078472D01*
X133214285Y-46116568D01*
D11*
X108216280Y-76159627D02*
X108216280Y-76778675D01*
X108597233Y-76445342D01*
X108597233Y-76588199D01*
X108644852Y-76683437D01*
X108692471Y-76731056D01*
X108787709Y-76778675D01*
X109025804Y-76778675D01*
X109121042Y-76731056D01*
X109168661Y-76683437D01*
X109216280Y-76588199D01*
X109216280Y-76302484D01*
X109168661Y-76207246D01*
X109121042Y-76159627D01*
X108216280Y-77112008D02*
X108216280Y-77731056D01*
X108597233Y-77397722D01*
X108597233Y-77540580D01*
X108644852Y-77635818D01*
X108692471Y-77683437D01*
X108787709Y-77731056D01*
X109025804Y-77731056D01*
X109121042Y-77683437D01*
X109168661Y-77635818D01*
X109216280Y-77540580D01*
X109216280Y-77254865D01*
X109168661Y-77159627D01*
X109121042Y-77112008D01*
X108216280Y-78350103D02*
X108216280Y-78445342D01*
X108263900Y-78540580D01*
X108311519Y-78588199D01*
X108406757Y-78635818D01*
X108597233Y-78683437D01*
X108835328Y-78683437D01*
X109025804Y-78635818D01*
X109121042Y-78588199D01*
X109168661Y-78540580D01*
X109216280Y-78445342D01*
X109216280Y-78350103D01*
X109168661Y-78254865D01*
X109121042Y-78207246D01*
X109025804Y-78159627D01*
X108835328Y-78112008D01*
X108597233Y-78112008D01*
X108406757Y-78159627D01*
X108311519Y-78207246D01*
X108263900Y-78254865D01*
X108216280Y-78350103D01*
D13*
X110840090Y-77362008D02*
X110601995Y-77195342D01*
X110840090Y-77076294D02*
X110340090Y-77076294D01*
X110340090Y-77266770D01*
X110363900Y-77314389D01*
X110387709Y-77338199D01*
X110435328Y-77362008D01*
X110506757Y-77362008D01*
X110554376Y-77338199D01*
X110578185Y-77314389D01*
X110601995Y-77266770D01*
X110601995Y-77076294D01*
X110340090Y-77528675D02*
X110340090Y-77838199D01*
X110530566Y-77671532D01*
X110530566Y-77742961D01*
X110554376Y-77790580D01*
X110578185Y-77814389D01*
X110625804Y-77838199D01*
X110744852Y-77838199D01*
X110792471Y-77814389D01*
X110816280Y-77790580D01*
X110840090Y-77742961D01*
X110840090Y-77600103D01*
X110816280Y-77552484D01*
X110792471Y-77528675D01*
D11*
X111936280Y-71199627D02*
X111936280Y-71818675D01*
X112317233Y-71485342D01*
X112317233Y-71628199D01*
X112364852Y-71723437D01*
X112412471Y-71771056D01*
X112507709Y-71818675D01*
X112745804Y-71818675D01*
X112841042Y-71771056D01*
X112888661Y-71723437D01*
X112936280Y-71628199D01*
X112936280Y-71342484D01*
X112888661Y-71247246D01*
X112841042Y-71199627D01*
X111936280Y-72152008D02*
X111936280Y-72771056D01*
X112317233Y-72437722D01*
X112317233Y-72580580D01*
X112364852Y-72675818D01*
X112412471Y-72723437D01*
X112507709Y-72771056D01*
X112745804Y-72771056D01*
X112841042Y-72723437D01*
X112888661Y-72675818D01*
X112936280Y-72580580D01*
X112936280Y-72294865D01*
X112888661Y-72199627D01*
X112841042Y-72152008D01*
X111936280Y-73390103D02*
X111936280Y-73485342D01*
X111983900Y-73580580D01*
X112031519Y-73628199D01*
X112126757Y-73675818D01*
X112317233Y-73723437D01*
X112555328Y-73723437D01*
X112745804Y-73675818D01*
X112841042Y-73628199D01*
X112888661Y-73580580D01*
X112936280Y-73485342D01*
X112936280Y-73390103D01*
X112888661Y-73294865D01*
X112841042Y-73247246D01*
X112745804Y-73199627D01*
X112555328Y-73152008D01*
X112317233Y-73152008D01*
X112126757Y-73199627D01*
X112031519Y-73247246D01*
X111983900Y-73294865D01*
X111936280Y-73390103D01*
D13*
X110860090Y-72402008D02*
X110621995Y-72235342D01*
X110860090Y-72116294D02*
X110360090Y-72116294D01*
X110360090Y-72306770D01*
X110383900Y-72354389D01*
X110407709Y-72378199D01*
X110455328Y-72402008D01*
X110526757Y-72402008D01*
X110574376Y-72378199D01*
X110598185Y-72354389D01*
X110621995Y-72306770D01*
X110621995Y-72116294D01*
X110526757Y-72830580D02*
X110860090Y-72830580D01*
X110336280Y-72711532D02*
X110693423Y-72592484D01*
X110693423Y-72902008D01*
D11*
X108056280Y-65522127D02*
X108056280Y-66141175D01*
X108437233Y-65807842D01*
X108437233Y-65950699D01*
X108484852Y-66045937D01*
X108532471Y-66093556D01*
X108627709Y-66141175D01*
X108865804Y-66141175D01*
X108961042Y-66093556D01*
X109008661Y-66045937D01*
X109056280Y-65950699D01*
X109056280Y-65664984D01*
X109008661Y-65569746D01*
X108961042Y-65522127D01*
X108056280Y-66474508D02*
X108056280Y-67093556D01*
X108437233Y-66760222D01*
X108437233Y-66903080D01*
X108484852Y-66998318D01*
X108532471Y-67045937D01*
X108627709Y-67093556D01*
X108865804Y-67093556D01*
X108961042Y-67045937D01*
X109008661Y-66998318D01*
X109056280Y-66903080D01*
X109056280Y-66617365D01*
X109008661Y-66522127D01*
X108961042Y-66474508D01*
X108056280Y-67712603D02*
X108056280Y-67807842D01*
X108103900Y-67903080D01*
X108151519Y-67950699D01*
X108246757Y-67998318D01*
X108437233Y-68045937D01*
X108675328Y-68045937D01*
X108865804Y-67998318D01*
X108961042Y-67950699D01*
X109008661Y-67903080D01*
X109056280Y-67807842D01*
X109056280Y-67712603D01*
X109008661Y-67617365D01*
X108961042Y-67569746D01*
X108865804Y-67522127D01*
X108675328Y-67474508D01*
X108437233Y-67474508D01*
X108246757Y-67522127D01*
X108151519Y-67569746D01*
X108103900Y-67617365D01*
X108056280Y-67712603D01*
D13*
X110680090Y-66724508D02*
X110441995Y-66557842D01*
X110680090Y-66438794D02*
X110180090Y-66438794D01*
X110180090Y-66629270D01*
X110203900Y-66676889D01*
X110227709Y-66700699D01*
X110275328Y-66724508D01*
X110346757Y-66724508D01*
X110394376Y-66700699D01*
X110418185Y-66676889D01*
X110441995Y-66629270D01*
X110441995Y-66438794D01*
X110180090Y-67176889D02*
X110180090Y-66938794D01*
X110418185Y-66914984D01*
X110394376Y-66938794D01*
X110370566Y-66986413D01*
X110370566Y-67105461D01*
X110394376Y-67153080D01*
X110418185Y-67176889D01*
X110465804Y-67200699D01*
X110584852Y-67200699D01*
X110632471Y-67176889D01*
X110656280Y-67153080D01*
X110680090Y-67105461D01*
X110680090Y-66986413D01*
X110656280Y-66938794D01*
X110632471Y-66914984D01*
D11*
X124636280Y-76462127D02*
X124636280Y-77081175D01*
X125017233Y-76747842D01*
X125017233Y-76890699D01*
X125064852Y-76985937D01*
X125112471Y-77033556D01*
X125207709Y-77081175D01*
X125445804Y-77081175D01*
X125541042Y-77033556D01*
X125588661Y-76985937D01*
X125636280Y-76890699D01*
X125636280Y-76604984D01*
X125588661Y-76509746D01*
X125541042Y-76462127D01*
X124636280Y-77414508D02*
X124636280Y-78033556D01*
X125017233Y-77700222D01*
X125017233Y-77843080D01*
X125064852Y-77938318D01*
X125112471Y-77985937D01*
X125207709Y-78033556D01*
X125445804Y-78033556D01*
X125541042Y-77985937D01*
X125588661Y-77938318D01*
X125636280Y-77843080D01*
X125636280Y-77557365D01*
X125588661Y-77462127D01*
X125541042Y-77414508D01*
X124636280Y-78652603D02*
X124636280Y-78747842D01*
X124683900Y-78843080D01*
X124731519Y-78890699D01*
X124826757Y-78938318D01*
X125017233Y-78985937D01*
X125255328Y-78985937D01*
X125445804Y-78938318D01*
X125541042Y-78890699D01*
X125588661Y-78843080D01*
X125636280Y-78747842D01*
X125636280Y-78652603D01*
X125588661Y-78557365D01*
X125541042Y-78509746D01*
X125445804Y-78462127D01*
X125255328Y-78414508D01*
X125017233Y-78414508D01*
X124826757Y-78462127D01*
X124731519Y-78509746D01*
X124683900Y-78557365D01*
X124636280Y-78652603D01*
D13*
X123560090Y-77664508D02*
X123321995Y-77497842D01*
X123560090Y-77378794D02*
X123060090Y-77378794D01*
X123060090Y-77569270D01*
X123083900Y-77616889D01*
X123107709Y-77640699D01*
X123155328Y-77664508D01*
X123226757Y-77664508D01*
X123274376Y-77640699D01*
X123298185Y-77616889D01*
X123321995Y-77569270D01*
X123321995Y-77378794D01*
X123060090Y-78093080D02*
X123060090Y-77997842D01*
X123083900Y-77950222D01*
X123107709Y-77926413D01*
X123179138Y-77878794D01*
X123274376Y-77854984D01*
X123464852Y-77854984D01*
X123512471Y-77878794D01*
X123536280Y-77902603D01*
X123560090Y-77950222D01*
X123560090Y-78045461D01*
X123536280Y-78093080D01*
X123512471Y-78116889D01*
X123464852Y-78140699D01*
X123345804Y-78140699D01*
X123298185Y-78116889D01*
X123274376Y-78093080D01*
X123250566Y-78045461D01*
X123250566Y-77950222D01*
X123274376Y-77902603D01*
X123298185Y-77878794D01*
X123345804Y-77854984D01*
D11*
X124646280Y-70824627D02*
X124646280Y-71443675D01*
X125027233Y-71110342D01*
X125027233Y-71253199D01*
X125074852Y-71348437D01*
X125122471Y-71396056D01*
X125217709Y-71443675D01*
X125455804Y-71443675D01*
X125551042Y-71396056D01*
X125598661Y-71348437D01*
X125646280Y-71253199D01*
X125646280Y-70967484D01*
X125598661Y-70872246D01*
X125551042Y-70824627D01*
X124646280Y-71777008D02*
X124646280Y-72396056D01*
X125027233Y-72062722D01*
X125027233Y-72205580D01*
X125074852Y-72300818D01*
X125122471Y-72348437D01*
X125217709Y-72396056D01*
X125455804Y-72396056D01*
X125551042Y-72348437D01*
X125598661Y-72300818D01*
X125646280Y-72205580D01*
X125646280Y-71919865D01*
X125598661Y-71824627D01*
X125551042Y-71777008D01*
X124646280Y-73015103D02*
X124646280Y-73110342D01*
X124693900Y-73205580D01*
X124741519Y-73253199D01*
X124836757Y-73300818D01*
X125027233Y-73348437D01*
X125265328Y-73348437D01*
X125455804Y-73300818D01*
X125551042Y-73253199D01*
X125598661Y-73205580D01*
X125646280Y-73110342D01*
X125646280Y-73015103D01*
X125598661Y-72919865D01*
X125551042Y-72872246D01*
X125455804Y-72824627D01*
X125265328Y-72777008D01*
X125027233Y-72777008D01*
X124836757Y-72824627D01*
X124741519Y-72872246D01*
X124693900Y-72919865D01*
X124646280Y-73015103D01*
D13*
X123570090Y-72027008D02*
X123331995Y-71860342D01*
X123570090Y-71741294D02*
X123070090Y-71741294D01*
X123070090Y-71931770D01*
X123093900Y-71979389D01*
X123117709Y-72003199D01*
X123165328Y-72027008D01*
X123236757Y-72027008D01*
X123284376Y-72003199D01*
X123308185Y-71979389D01*
X123331995Y-71931770D01*
X123331995Y-71741294D01*
X123070090Y-72193675D02*
X123070090Y-72527008D01*
X123570090Y-72312722D01*
D11*
X124636280Y-65114627D02*
X124636280Y-65733675D01*
X125017233Y-65400342D01*
X125017233Y-65543199D01*
X125064852Y-65638437D01*
X125112471Y-65686056D01*
X125207709Y-65733675D01*
X125445804Y-65733675D01*
X125541042Y-65686056D01*
X125588661Y-65638437D01*
X125636280Y-65543199D01*
X125636280Y-65257484D01*
X125588661Y-65162246D01*
X125541042Y-65114627D01*
X124636280Y-66067008D02*
X124636280Y-66686056D01*
X125017233Y-66352722D01*
X125017233Y-66495580D01*
X125064852Y-66590818D01*
X125112471Y-66638437D01*
X125207709Y-66686056D01*
X125445804Y-66686056D01*
X125541042Y-66638437D01*
X125588661Y-66590818D01*
X125636280Y-66495580D01*
X125636280Y-66209865D01*
X125588661Y-66114627D01*
X125541042Y-66067008D01*
X124636280Y-67305103D02*
X124636280Y-67400342D01*
X124683900Y-67495580D01*
X124731519Y-67543199D01*
X124826757Y-67590818D01*
X125017233Y-67638437D01*
X125255328Y-67638437D01*
X125445804Y-67590818D01*
X125541042Y-67543199D01*
X125588661Y-67495580D01*
X125636280Y-67400342D01*
X125636280Y-67305103D01*
X125588661Y-67209865D01*
X125541042Y-67162246D01*
X125445804Y-67114627D01*
X125255328Y-67067008D01*
X125017233Y-67067008D01*
X124826757Y-67114627D01*
X124731519Y-67162246D01*
X124683900Y-67209865D01*
X124636280Y-67305103D01*
D13*
X123560090Y-66317008D02*
X123321995Y-66150342D01*
X123560090Y-66031294D02*
X123060090Y-66031294D01*
X123060090Y-66221770D01*
X123083900Y-66269389D01*
X123107709Y-66293199D01*
X123155328Y-66317008D01*
X123226757Y-66317008D01*
X123274376Y-66293199D01*
X123298185Y-66269389D01*
X123321995Y-66221770D01*
X123321995Y-66031294D01*
X123274376Y-66602722D02*
X123250566Y-66555103D01*
X123226757Y-66531294D01*
X123179138Y-66507484D01*
X123155328Y-66507484D01*
X123107709Y-66531294D01*
X123083900Y-66555103D01*
X123060090Y-66602722D01*
X123060090Y-66697961D01*
X123083900Y-66745580D01*
X123107709Y-66769389D01*
X123155328Y-66793199D01*
X123179138Y-66793199D01*
X123226757Y-66769389D01*
X123250566Y-66745580D01*
X123274376Y-66697961D01*
X123274376Y-66602722D01*
X123298185Y-66555103D01*
X123321995Y-66531294D01*
X123369614Y-66507484D01*
X123464852Y-66507484D01*
X123512471Y-66531294D01*
X123536280Y-66555103D01*
X123560090Y-66602722D01*
X123560090Y-66697961D01*
X123536280Y-66745580D01*
X123512471Y-66769389D01*
X123464852Y-66793199D01*
X123369614Y-66793199D01*
X123321995Y-66769389D01*
X123298185Y-66745580D01*
X123274376Y-66697961D01*
D11*
X103397619Y-45595238D02*
X103350000Y-45642857D01*
X103302380Y-45738095D01*
X103302380Y-45976190D01*
X103350000Y-46071428D01*
X103397619Y-46119047D01*
X103492857Y-46166666D01*
X103588095Y-46166666D01*
X103730952Y-46119047D01*
X104302380Y-45547619D01*
X104302380Y-46166666D01*
X104207142Y-46595238D02*
X104254761Y-46642857D01*
X104302380Y-46595238D01*
X104254761Y-46547619D01*
X104207142Y-46595238D01*
X104302380Y-46595238D01*
X103302380Y-46976190D02*
X103302380Y-47642857D01*
X104302380Y-47214285D01*
X104302380Y-48023809D02*
X103302380Y-48023809D01*
X103921428Y-48119047D02*
X104302380Y-48404761D01*
X103635714Y-48404761D02*
X104016666Y-48023809D01*
D13*
X102226190Y-46678571D02*
X101988095Y-46511904D01*
X102226190Y-46392857D02*
X101726190Y-46392857D01*
X101726190Y-46583333D01*
X101750000Y-46630952D01*
X101773809Y-46654761D01*
X101821428Y-46678571D01*
X101892857Y-46678571D01*
X101940476Y-46654761D01*
X101964285Y-46630952D01*
X101988095Y-46583333D01*
X101988095Y-46392857D01*
X102226190Y-47154761D02*
X102226190Y-46869047D01*
X102226190Y-47011904D02*
X101726190Y-47011904D01*
X101797619Y-46964285D01*
X101845238Y-46916666D01*
X101869047Y-46869047D01*
X101773809Y-47345238D02*
X101750000Y-47369047D01*
X101726190Y-47416666D01*
X101726190Y-47535714D01*
X101750000Y-47583333D01*
X101773809Y-47607142D01*
X101821428Y-47630952D01*
X101869047Y-47630952D01*
X101940476Y-47607142D01*
X102226190Y-47321428D01*
X102226190Y-47630952D01*
D11*
X115262214Y-45637738D02*
X115214595Y-45685357D01*
X115166975Y-45780595D01*
X115166975Y-46018690D01*
X115214595Y-46113928D01*
X115262214Y-46161547D01*
X115357452Y-46209166D01*
X115452690Y-46209166D01*
X115595547Y-46161547D01*
X116166975Y-45590119D01*
X116166975Y-46209166D01*
X116071737Y-46637738D02*
X116119356Y-46685357D01*
X116166975Y-46637738D01*
X116119356Y-46590119D01*
X116071737Y-46637738D01*
X116166975Y-46637738D01*
X115166975Y-47018690D02*
X115166975Y-47685357D01*
X116166975Y-47256785D01*
X116166975Y-48066309D02*
X115166975Y-48066309D01*
X115786023Y-48161547D02*
X116166975Y-48447261D01*
X115500309Y-48447261D02*
X115881261Y-48066309D01*
D13*
X114090785Y-46721071D02*
X113852690Y-46554404D01*
X114090785Y-46435357D02*
X113590785Y-46435357D01*
X113590785Y-46625833D01*
X113614595Y-46673452D01*
X113638404Y-46697261D01*
X113686023Y-46721071D01*
X113757452Y-46721071D01*
X113805071Y-46697261D01*
X113828880Y-46673452D01*
X113852690Y-46625833D01*
X113852690Y-46435357D01*
X114090785Y-47197261D02*
X114090785Y-46911547D01*
X114090785Y-47054404D02*
X113590785Y-47054404D01*
X113662214Y-47006785D01*
X113709833Y-46959166D01*
X113733642Y-46911547D01*
X113590785Y-47363928D02*
X113590785Y-47673452D01*
X113781261Y-47506785D01*
X113781261Y-47578214D01*
X113805071Y-47625833D01*
X113828880Y-47649642D01*
X113876499Y-47673452D01*
X113995547Y-47673452D01*
X114043166Y-47649642D01*
X114066975Y-47625833D01*
X114090785Y-47578214D01*
X114090785Y-47435357D01*
X114066975Y-47387738D01*
X114043166Y-47363928D01*
D11*
X128897619Y-46095238D02*
X128850000Y-46142857D01*
X128802380Y-46238095D01*
X128802380Y-46476190D01*
X128850000Y-46571428D01*
X128897619Y-46619047D01*
X128992857Y-46666666D01*
X129088095Y-46666666D01*
X129230952Y-46619047D01*
X129802380Y-46047619D01*
X129802380Y-46666666D01*
X129707142Y-47095238D02*
X129754761Y-47142857D01*
X129802380Y-47095238D01*
X129754761Y-47047619D01*
X129707142Y-47095238D01*
X129802380Y-47095238D01*
X128802380Y-47476190D02*
X128802380Y-48142857D01*
X129802380Y-47714285D01*
X129802380Y-48523809D02*
X128802380Y-48523809D01*
X129421428Y-48619047D02*
X129802380Y-48904761D01*
X129135714Y-48904761D02*
X129516666Y-48523809D01*
D13*
X127726190Y-47178571D02*
X127488095Y-47011904D01*
X127726190Y-46892857D02*
X127226190Y-46892857D01*
X127226190Y-47083333D01*
X127250000Y-47130952D01*
X127273809Y-47154761D01*
X127321428Y-47178571D01*
X127392857Y-47178571D01*
X127440476Y-47154761D01*
X127464285Y-47130952D01*
X127488095Y-47083333D01*
X127488095Y-46892857D01*
X127726190Y-47654761D02*
X127726190Y-47369047D01*
X127726190Y-47511904D02*
X127226190Y-47511904D01*
X127297619Y-47464285D01*
X127345238Y-47416666D01*
X127369047Y-47369047D01*
X127392857Y-48083333D02*
X127726190Y-48083333D01*
X127202380Y-47964285D02*
X127559523Y-47845238D01*
X127559523Y-48154761D01*
D11*
X107624166Y-91602380D02*
X108195595Y-91602380D01*
X107909880Y-91602380D02*
X107909880Y-90602380D01*
X108005119Y-90745238D01*
X108100357Y-90840476D01*
X108195595Y-90888095D01*
X107005119Y-90602380D02*
X106909880Y-90602380D01*
X106814642Y-90650000D01*
X106767023Y-90697619D01*
X106719404Y-90792857D01*
X106671785Y-90983333D01*
X106671785Y-91221428D01*
X106719404Y-91411904D01*
X106767023Y-91507142D01*
X106814642Y-91554761D01*
X106909880Y-91602380D01*
X107005119Y-91602380D01*
X107100357Y-91554761D01*
X107147976Y-91507142D01*
X107195595Y-91411904D01*
X107243214Y-91221428D01*
X107243214Y-90983333D01*
X107195595Y-90792857D01*
X107147976Y-90697619D01*
X107100357Y-90650000D01*
X107005119Y-90602380D01*
X106052738Y-90602380D02*
X105957500Y-90602380D01*
X105862261Y-90650000D01*
X105814642Y-90697619D01*
X105767023Y-90792857D01*
X105719404Y-90983333D01*
X105719404Y-91221428D01*
X105767023Y-91411904D01*
X105814642Y-91507142D01*
X105862261Y-91554761D01*
X105957500Y-91602380D01*
X106052738Y-91602380D01*
X106147976Y-91554761D01*
X106195595Y-91507142D01*
X106243214Y-91411904D01*
X106290833Y-91221428D01*
X106290833Y-90983333D01*
X106243214Y-90792857D01*
X106195595Y-90697619D01*
X106147976Y-90650000D01*
X106052738Y-90602380D01*
D13*
X107278928Y-93226190D02*
X107445595Y-92988095D01*
X107564642Y-93226190D02*
X107564642Y-92726190D01*
X107374166Y-92726190D01*
X107326547Y-92750000D01*
X107302738Y-92773809D01*
X107278928Y-92821428D01*
X107278928Y-92892857D01*
X107302738Y-92940476D01*
X107326547Y-92964285D01*
X107374166Y-92988095D01*
X107564642Y-92988095D01*
X107088452Y-92773809D02*
X107064642Y-92750000D01*
X107017023Y-92726190D01*
X106897976Y-92726190D01*
X106850357Y-92750000D01*
X106826547Y-92773809D01*
X106802738Y-92821428D01*
X106802738Y-92869047D01*
X106826547Y-92940476D01*
X107112261Y-93226190D01*
X106802738Y-93226190D01*
X106636071Y-92726190D02*
X106302738Y-92726190D01*
X106517023Y-93226190D01*
D11*
X97642857Y-45402380D02*
X97642857Y-44402380D01*
X97261904Y-44402380D01*
X97166666Y-44450000D01*
X97119047Y-44497619D01*
X97071428Y-44592857D01*
X97071428Y-44735714D01*
X97119047Y-44830952D01*
X97166666Y-44878571D01*
X97261904Y-44926190D01*
X97642857Y-44926190D01*
X96642857Y-45402380D02*
X96642857Y-44402380D01*
X95595238Y-45307142D02*
X95642857Y-45354761D01*
X95785714Y-45402380D01*
X95880952Y-45402380D01*
X96023809Y-45354761D01*
X96119047Y-45259523D01*
X96166666Y-45164285D01*
X96214285Y-44973809D01*
X96214285Y-44830952D01*
X96166666Y-44640476D01*
X96119047Y-44545238D01*
X96023809Y-44450000D01*
X95880952Y-44402380D01*
X95785714Y-44402380D01*
X95642857Y-44450000D01*
X95595238Y-44497619D01*
X94642857Y-45402380D02*
X95214285Y-45402380D01*
X94928571Y-45402380D02*
X94928571Y-44402380D01*
X95023809Y-44545238D01*
X95119047Y-44640476D01*
X95214285Y-44688095D01*
X94071428Y-44830952D02*
X94166666Y-44783333D01*
X94214285Y-44735714D01*
X94261904Y-44640476D01*
X94261904Y-44592857D01*
X94214285Y-44497619D01*
X94166666Y-44450000D01*
X94071428Y-44402380D01*
X93880952Y-44402380D01*
X93785714Y-44450000D01*
X93738095Y-44497619D01*
X93690476Y-44592857D01*
X93690476Y-44640476D01*
X93738095Y-44735714D01*
X93785714Y-44783333D01*
X93880952Y-44830952D01*
X94071428Y-44830952D01*
X94166666Y-44878571D01*
X94214285Y-44926190D01*
X94261904Y-45021428D01*
X94261904Y-45211904D01*
X94214285Y-45307142D01*
X94166666Y-45354761D01*
X94071428Y-45402380D01*
X93880952Y-45402380D01*
X93785714Y-45354761D01*
X93738095Y-45307142D01*
X93690476Y-45211904D01*
X93690476Y-45021428D01*
X93738095Y-44926190D01*
X93785714Y-44878571D01*
X93880952Y-44830952D01*
X92928571Y-44878571D02*
X93261904Y-44878571D01*
X93261904Y-45402380D02*
X93261904Y-44402380D01*
X92785714Y-44402380D01*
X92452380Y-44497619D02*
X92404761Y-44450000D01*
X92309523Y-44402380D01*
X92071428Y-44402380D01*
X91976190Y-44450000D01*
X91928571Y-44497619D01*
X91880952Y-44592857D01*
X91880952Y-44688095D01*
X91928571Y-44830952D01*
X92500000Y-45402380D01*
X91880952Y-45402380D01*
X90976190Y-44402380D02*
X91452380Y-44402380D01*
X91500000Y-44878571D01*
X91452380Y-44830952D01*
X91357142Y-44783333D01*
X91119047Y-44783333D01*
X91023809Y-44830952D01*
X90976190Y-44878571D01*
X90928571Y-44973809D01*
X90928571Y-45211904D01*
X90976190Y-45307142D01*
X91023809Y-45354761D01*
X91119047Y-45402380D01*
X91357142Y-45402380D01*
X91452380Y-45354761D01*
X91500000Y-45307142D01*
X90023809Y-44402380D02*
X90500000Y-44402380D01*
X90547619Y-44878571D01*
X90500000Y-44830952D01*
X90404761Y-44783333D01*
X90166666Y-44783333D01*
X90071428Y-44830952D01*
X90023809Y-44878571D01*
X89976190Y-44973809D01*
X89976190Y-45211904D01*
X90023809Y-45307142D01*
X90071428Y-45354761D01*
X90166666Y-45402380D01*
X90404761Y-45402380D01*
X90500000Y-45354761D01*
X90547619Y-45307142D01*
X89357142Y-44402380D02*
X89261904Y-44402380D01*
X89166666Y-44450000D01*
X89119047Y-44497619D01*
X89071428Y-44592857D01*
X89023809Y-44783333D01*
X89023809Y-45021428D01*
X89071428Y-45211904D01*
X89119047Y-45307142D01*
X89166666Y-45354761D01*
X89261904Y-45402380D01*
X89357142Y-45402380D01*
X89452380Y-45354761D01*
X89500000Y-45307142D01*
X89547619Y-45211904D01*
X89595238Y-45021428D01*
X89595238Y-44783333D01*
X89547619Y-44592857D01*
X89500000Y-44497619D01*
X89452380Y-44450000D01*
X89357142Y-44402380D01*
X88595238Y-45021428D02*
X87833333Y-45021428D01*
X87357142Y-45402380D02*
X87357142Y-44402380D01*
X86928571Y-45354761D02*
X86785714Y-45402380D01*
X86547619Y-45402380D01*
X86452380Y-45354761D01*
X86404761Y-45307142D01*
X86357142Y-45211904D01*
X86357142Y-45116666D01*
X86404761Y-45021428D01*
X86452380Y-44973809D01*
X86547619Y-44926190D01*
X86738095Y-44878571D01*
X86833333Y-44830952D01*
X86880952Y-44783333D01*
X86928571Y-44688095D01*
X86928571Y-44592857D01*
X86880952Y-44497619D01*
X86833333Y-44450000D01*
X86738095Y-44402380D01*
X86500000Y-44402380D01*
X86357142Y-44450000D01*
X85738095Y-44402380D02*
X85547619Y-44402380D01*
X85452380Y-44450000D01*
X85357142Y-44545238D01*
X85309523Y-44735714D01*
X85309523Y-45069047D01*
X85357142Y-45259523D01*
X85452380Y-45354761D01*
X85547619Y-45402380D01*
X85738095Y-45402380D01*
X85833333Y-45354761D01*
X85928571Y-45259523D01*
X85976190Y-45069047D01*
X85976190Y-44735714D01*
X85928571Y-44545238D01*
X85833333Y-44450000D01*
X85738095Y-44402380D01*
X92261904Y-54452380D02*
X92261904Y-55261904D01*
X92214285Y-55357142D01*
X92166666Y-55404761D01*
X92071428Y-55452380D01*
X91880952Y-55452380D01*
X91785714Y-55404761D01*
X91738095Y-55357142D01*
X91690476Y-55261904D01*
X91690476Y-54452380D01*
X90690476Y-55452380D02*
X91261904Y-55452380D01*
X90976190Y-55452380D02*
X90976190Y-54452380D01*
X91071428Y-54595238D01*
X91166666Y-54690476D01*
X91261904Y-54738095D01*
X122926757Y-74835222D02*
X122926757Y-73835222D01*
X122593423Y-74549508D01*
X122260090Y-73835222D01*
X122260090Y-74835222D01*
X121593423Y-73835222D02*
X121402947Y-73835222D01*
X121307709Y-73882842D01*
X121212471Y-73978080D01*
X121164852Y-74168556D01*
X121164852Y-74501889D01*
X121212471Y-74692365D01*
X121307709Y-74787603D01*
X121402947Y-74835222D01*
X121593423Y-74835222D01*
X121688661Y-74787603D01*
X121783900Y-74692365D01*
X121831519Y-74501889D01*
X121831519Y-74168556D01*
X121783900Y-73978080D01*
X121688661Y-73882842D01*
X121593423Y-73835222D01*
X120164852Y-74739984D02*
X120212471Y-74787603D01*
X120355328Y-74835222D01*
X120450566Y-74835222D01*
X120593423Y-74787603D01*
X120688661Y-74692365D01*
X120736280Y-74597127D01*
X120783900Y-74406651D01*
X120783900Y-74263794D01*
X120736280Y-74073318D01*
X120688661Y-73978080D01*
X120593423Y-73882842D01*
X120450566Y-73835222D01*
X120355328Y-73835222D01*
X120212471Y-73882842D01*
X120164852Y-73930461D01*
X119831519Y-73835222D02*
X119212471Y-73835222D01*
X119545804Y-74216175D01*
X119402947Y-74216175D01*
X119307709Y-74263794D01*
X119260090Y-74311413D01*
X119212471Y-74406651D01*
X119212471Y-74644746D01*
X119260090Y-74739984D01*
X119307709Y-74787603D01*
X119402947Y-74835222D01*
X119688661Y-74835222D01*
X119783900Y-74787603D01*
X119831519Y-74739984D01*
X118593423Y-73835222D02*
X118498185Y-73835222D01*
X118402947Y-73882842D01*
X118355328Y-73930461D01*
X118307709Y-74025699D01*
X118260090Y-74216175D01*
X118260090Y-74454270D01*
X118307709Y-74644746D01*
X118355328Y-74739984D01*
X118402947Y-74787603D01*
X118498185Y-74835222D01*
X118593423Y-74835222D01*
X118688661Y-74787603D01*
X118736280Y-74739984D01*
X118783900Y-74644746D01*
X118831519Y-74454270D01*
X118831519Y-74216175D01*
X118783900Y-74025699D01*
X118736280Y-73930461D01*
X118688661Y-73882842D01*
X118593423Y-73835222D01*
X117402947Y-73835222D02*
X117593423Y-73835222D01*
X117688661Y-73882842D01*
X117736280Y-73930461D01*
X117831519Y-74073318D01*
X117879138Y-74263794D01*
X117879138Y-74644746D01*
X117831519Y-74739984D01*
X117783900Y-74787603D01*
X117688661Y-74835222D01*
X117498185Y-74835222D01*
X117402947Y-74787603D01*
X117355328Y-74739984D01*
X117307709Y-74644746D01*
X117307709Y-74406651D01*
X117355328Y-74311413D01*
X117402947Y-74263794D01*
X117498185Y-74216175D01*
X117688661Y-74216175D01*
X117783900Y-74263794D01*
X117831519Y-74311413D01*
X117879138Y-74406651D01*
X116974376Y-73835222D02*
X116355328Y-73835222D01*
X116688661Y-74216175D01*
X116545804Y-74216175D01*
X116450566Y-74263794D01*
X116402947Y-74311413D01*
X116355328Y-74406651D01*
X116355328Y-74644746D01*
X116402947Y-74739984D01*
X116450566Y-74787603D01*
X116545804Y-74835222D01*
X116831519Y-74835222D01*
X116926757Y-74787603D01*
X116974376Y-74739984D01*
X115974376Y-74787603D02*
X115831519Y-74835222D01*
X115593423Y-74835222D01*
X115498185Y-74787603D01*
X115450566Y-74739984D01*
X115402947Y-74644746D01*
X115402947Y-74549508D01*
X115450566Y-74454270D01*
X115498185Y-74406651D01*
X115593423Y-74359032D01*
X115783900Y-74311413D01*
X115879138Y-74263794D01*
X115926757Y-74216175D01*
X115974376Y-74120937D01*
X115974376Y-74025699D01*
X115926757Y-73930461D01*
X115879138Y-73882842D01*
X115783900Y-73835222D01*
X115545804Y-73835222D01*
X115402947Y-73882842D01*
X114974376Y-74454270D02*
X114212471Y-74454270D01*
X113879138Y-73835222D02*
X113307709Y-73835222D01*
X113593423Y-74835222D02*
X113593423Y-73835222D01*
X113021995Y-74549508D02*
X112545804Y-74549508D01*
X113117233Y-74835222D02*
X112783900Y-73835222D01*
X112450566Y-74835222D01*
X111593423Y-74835222D02*
X112164852Y-74835222D01*
X111879138Y-74835222D02*
X111879138Y-73835222D01*
X111974376Y-73978080D01*
X112069614Y-74073318D01*
X112164852Y-74120937D01*
X117995804Y-77285222D02*
X117995804Y-78094746D01*
X117948185Y-78189984D01*
X117900566Y-78237603D01*
X117805328Y-78285222D01*
X117614852Y-78285222D01*
X117519614Y-78237603D01*
X117471995Y-78189984D01*
X117424376Y-78094746D01*
X117424376Y-77285222D01*
X116995804Y-77380461D02*
X116948185Y-77332842D01*
X116852947Y-77285222D01*
X116614852Y-77285222D01*
X116519614Y-77332842D01*
X116471995Y-77380461D01*
X116424376Y-77475699D01*
X116424376Y-77570937D01*
X116471995Y-77713794D01*
X117043423Y-78285222D01*
X116424376Y-78285222D01*
X123076757Y-69335222D02*
X123076757Y-68335222D01*
X122743423Y-69049508D01*
X122410090Y-68335222D01*
X122410090Y-69335222D01*
X121743423Y-68335222D02*
X121552947Y-68335222D01*
X121457709Y-68382842D01*
X121362471Y-68478080D01*
X121314852Y-68668556D01*
X121314852Y-69001889D01*
X121362471Y-69192365D01*
X121457709Y-69287603D01*
X121552947Y-69335222D01*
X121743423Y-69335222D01*
X121838661Y-69287603D01*
X121933900Y-69192365D01*
X121981519Y-69001889D01*
X121981519Y-68668556D01*
X121933900Y-68478080D01*
X121838661Y-68382842D01*
X121743423Y-68335222D01*
X120314852Y-69239984D02*
X120362471Y-69287603D01*
X120505328Y-69335222D01*
X120600566Y-69335222D01*
X120743423Y-69287603D01*
X120838661Y-69192365D01*
X120886280Y-69097127D01*
X120933900Y-68906651D01*
X120933900Y-68763794D01*
X120886280Y-68573318D01*
X120838661Y-68478080D01*
X120743423Y-68382842D01*
X120600566Y-68335222D01*
X120505328Y-68335222D01*
X120362471Y-68382842D01*
X120314852Y-68430461D01*
X119981519Y-68335222D02*
X119362471Y-68335222D01*
X119695804Y-68716175D01*
X119552947Y-68716175D01*
X119457709Y-68763794D01*
X119410090Y-68811413D01*
X119362471Y-68906651D01*
X119362471Y-69144746D01*
X119410090Y-69239984D01*
X119457709Y-69287603D01*
X119552947Y-69335222D01*
X119838661Y-69335222D01*
X119933900Y-69287603D01*
X119981519Y-69239984D01*
X118743423Y-68335222D02*
X118648185Y-68335222D01*
X118552947Y-68382842D01*
X118505328Y-68430461D01*
X118457709Y-68525699D01*
X118410090Y-68716175D01*
X118410090Y-68954270D01*
X118457709Y-69144746D01*
X118505328Y-69239984D01*
X118552947Y-69287603D01*
X118648185Y-69335222D01*
X118743423Y-69335222D01*
X118838661Y-69287603D01*
X118886280Y-69239984D01*
X118933900Y-69144746D01*
X118981519Y-68954270D01*
X118981519Y-68716175D01*
X118933900Y-68525699D01*
X118886280Y-68430461D01*
X118838661Y-68382842D01*
X118743423Y-68335222D01*
X117552947Y-68335222D02*
X117743423Y-68335222D01*
X117838661Y-68382842D01*
X117886280Y-68430461D01*
X117981519Y-68573318D01*
X118029138Y-68763794D01*
X118029138Y-69144746D01*
X117981519Y-69239984D01*
X117933900Y-69287603D01*
X117838661Y-69335222D01*
X117648185Y-69335222D01*
X117552947Y-69287603D01*
X117505328Y-69239984D01*
X117457709Y-69144746D01*
X117457709Y-68906651D01*
X117505328Y-68811413D01*
X117552947Y-68763794D01*
X117648185Y-68716175D01*
X117838661Y-68716175D01*
X117933900Y-68763794D01*
X117981519Y-68811413D01*
X118029138Y-68906651D01*
X117124376Y-68335222D02*
X116505328Y-68335222D01*
X116838661Y-68716175D01*
X116695804Y-68716175D01*
X116600566Y-68763794D01*
X116552947Y-68811413D01*
X116505328Y-68906651D01*
X116505328Y-69144746D01*
X116552947Y-69239984D01*
X116600566Y-69287603D01*
X116695804Y-69335222D01*
X116981519Y-69335222D01*
X117076757Y-69287603D01*
X117124376Y-69239984D01*
X116124376Y-69287603D02*
X115981519Y-69335222D01*
X115743423Y-69335222D01*
X115648185Y-69287603D01*
X115600566Y-69239984D01*
X115552947Y-69144746D01*
X115552947Y-69049508D01*
X115600566Y-68954270D01*
X115648185Y-68906651D01*
X115743423Y-68859032D01*
X115933900Y-68811413D01*
X116029138Y-68763794D01*
X116076757Y-68716175D01*
X116124376Y-68620937D01*
X116124376Y-68525699D01*
X116076757Y-68430461D01*
X116029138Y-68382842D01*
X115933900Y-68335222D01*
X115695804Y-68335222D01*
X115552947Y-68382842D01*
X115124376Y-68954270D02*
X114362471Y-68954270D01*
X114029138Y-68335222D02*
X113457709Y-68335222D01*
X113743423Y-69335222D02*
X113743423Y-68335222D01*
X113171995Y-69049508D02*
X112695804Y-69049508D01*
X113267233Y-69335222D02*
X112933900Y-68335222D01*
X112600566Y-69335222D01*
X111743423Y-69335222D02*
X112314852Y-69335222D01*
X112029138Y-69335222D02*
X112029138Y-68335222D01*
X112124376Y-68478080D01*
X112219614Y-68573318D01*
X112314852Y-68620937D01*
X118145804Y-71785222D02*
X118145804Y-72594746D01*
X118098185Y-72689984D01*
X118050566Y-72737603D01*
X117955328Y-72785222D01*
X117764852Y-72785222D01*
X117669614Y-72737603D01*
X117621995Y-72689984D01*
X117574376Y-72594746D01*
X117574376Y-71785222D01*
X117193423Y-71785222D02*
X116574376Y-71785222D01*
X116907709Y-72166175D01*
X116764852Y-72166175D01*
X116669614Y-72213794D01*
X116621995Y-72261413D01*
X116574376Y-72356651D01*
X116574376Y-72594746D01*
X116621995Y-72689984D01*
X116669614Y-72737603D01*
X116764852Y-72785222D01*
X117050566Y-72785222D01*
X117145804Y-72737603D01*
X117193423Y-72689984D01*
X122856757Y-63645222D02*
X122856757Y-62645222D01*
X122523423Y-63359508D01*
X122190090Y-62645222D01*
X122190090Y-63645222D01*
X121523423Y-62645222D02*
X121332947Y-62645222D01*
X121237709Y-62692842D01*
X121142471Y-62788080D01*
X121094852Y-62978556D01*
X121094852Y-63311889D01*
X121142471Y-63502365D01*
X121237709Y-63597603D01*
X121332947Y-63645222D01*
X121523423Y-63645222D01*
X121618661Y-63597603D01*
X121713900Y-63502365D01*
X121761519Y-63311889D01*
X121761519Y-62978556D01*
X121713900Y-62788080D01*
X121618661Y-62692842D01*
X121523423Y-62645222D01*
X120094852Y-63549984D02*
X120142471Y-63597603D01*
X120285328Y-63645222D01*
X120380566Y-63645222D01*
X120523423Y-63597603D01*
X120618661Y-63502365D01*
X120666280Y-63407127D01*
X120713900Y-63216651D01*
X120713900Y-63073794D01*
X120666280Y-62883318D01*
X120618661Y-62788080D01*
X120523423Y-62692842D01*
X120380566Y-62645222D01*
X120285328Y-62645222D01*
X120142471Y-62692842D01*
X120094852Y-62740461D01*
X119761519Y-62645222D02*
X119142471Y-62645222D01*
X119475804Y-63026175D01*
X119332947Y-63026175D01*
X119237709Y-63073794D01*
X119190090Y-63121413D01*
X119142471Y-63216651D01*
X119142471Y-63454746D01*
X119190090Y-63549984D01*
X119237709Y-63597603D01*
X119332947Y-63645222D01*
X119618661Y-63645222D01*
X119713900Y-63597603D01*
X119761519Y-63549984D01*
X118523423Y-62645222D02*
X118428185Y-62645222D01*
X118332947Y-62692842D01*
X118285328Y-62740461D01*
X118237709Y-62835699D01*
X118190090Y-63026175D01*
X118190090Y-63264270D01*
X118237709Y-63454746D01*
X118285328Y-63549984D01*
X118332947Y-63597603D01*
X118428185Y-63645222D01*
X118523423Y-63645222D01*
X118618661Y-63597603D01*
X118666280Y-63549984D01*
X118713900Y-63454746D01*
X118761519Y-63264270D01*
X118761519Y-63026175D01*
X118713900Y-62835699D01*
X118666280Y-62740461D01*
X118618661Y-62692842D01*
X118523423Y-62645222D01*
X117332947Y-62645222D02*
X117523423Y-62645222D01*
X117618661Y-62692842D01*
X117666280Y-62740461D01*
X117761519Y-62883318D01*
X117809138Y-63073794D01*
X117809138Y-63454746D01*
X117761519Y-63549984D01*
X117713900Y-63597603D01*
X117618661Y-63645222D01*
X117428185Y-63645222D01*
X117332947Y-63597603D01*
X117285328Y-63549984D01*
X117237709Y-63454746D01*
X117237709Y-63216651D01*
X117285328Y-63121413D01*
X117332947Y-63073794D01*
X117428185Y-63026175D01*
X117618661Y-63026175D01*
X117713900Y-63073794D01*
X117761519Y-63121413D01*
X117809138Y-63216651D01*
X116904376Y-62645222D02*
X116285328Y-62645222D01*
X116618661Y-63026175D01*
X116475804Y-63026175D01*
X116380566Y-63073794D01*
X116332947Y-63121413D01*
X116285328Y-63216651D01*
X116285328Y-63454746D01*
X116332947Y-63549984D01*
X116380566Y-63597603D01*
X116475804Y-63645222D01*
X116761519Y-63645222D01*
X116856757Y-63597603D01*
X116904376Y-63549984D01*
X115904376Y-63597603D02*
X115761519Y-63645222D01*
X115523423Y-63645222D01*
X115428185Y-63597603D01*
X115380566Y-63549984D01*
X115332947Y-63454746D01*
X115332947Y-63359508D01*
X115380566Y-63264270D01*
X115428185Y-63216651D01*
X115523423Y-63169032D01*
X115713900Y-63121413D01*
X115809138Y-63073794D01*
X115856757Y-63026175D01*
X115904376Y-62930937D01*
X115904376Y-62835699D01*
X115856757Y-62740461D01*
X115809138Y-62692842D01*
X115713900Y-62645222D01*
X115475804Y-62645222D01*
X115332947Y-62692842D01*
X114904376Y-63264270D02*
X114142471Y-63264270D01*
X113809138Y-62645222D02*
X113237709Y-62645222D01*
X113523423Y-63645222D02*
X113523423Y-62645222D01*
X112951995Y-63359508D02*
X112475804Y-63359508D01*
X113047233Y-63645222D02*
X112713900Y-62645222D01*
X112380566Y-63645222D01*
X111523423Y-63645222D02*
X112094852Y-63645222D01*
X111809138Y-63645222D02*
X111809138Y-62645222D01*
X111904376Y-62788080D01*
X111999614Y-62883318D01*
X112094852Y-62930937D01*
X117925804Y-66095222D02*
X117925804Y-66904746D01*
X117878185Y-66999984D01*
X117830566Y-67047603D01*
X117735328Y-67095222D01*
X117544852Y-67095222D01*
X117449614Y-67047603D01*
X117401995Y-66999984D01*
X117354376Y-66904746D01*
X117354376Y-66095222D01*
X116449614Y-66428556D02*
X116449614Y-67095222D01*
X116687709Y-66047603D02*
X116925804Y-66761889D01*
X116306757Y-66761889D01*
X85898571Y-89352380D02*
X86470000Y-89352380D01*
X86184285Y-89352380D02*
X86184285Y-88352380D01*
X86279523Y-88495238D01*
X86374761Y-88590476D01*
X86470000Y-88638095D01*
X85279523Y-88352380D02*
X85184285Y-88352380D01*
X85089047Y-88400000D01*
X85041428Y-88447619D01*
X84993809Y-88542857D01*
X84946190Y-88733333D01*
X84946190Y-88971428D01*
X84993809Y-89161904D01*
X85041428Y-89257142D01*
X85089047Y-89304761D01*
X85184285Y-89352380D01*
X85279523Y-89352380D01*
X85374761Y-89304761D01*
X85422380Y-89257142D01*
X85470000Y-89161904D01*
X85517619Y-88971428D01*
X85517619Y-88733333D01*
X85470000Y-88542857D01*
X85422380Y-88447619D01*
X85374761Y-88400000D01*
X85279523Y-88352380D01*
X84089047Y-88685714D02*
X84089047Y-89352380D01*
X84517619Y-88685714D02*
X84517619Y-89209523D01*
X84470000Y-89304761D01*
X84374761Y-89352380D01*
X84231904Y-89352380D01*
X84136666Y-89304761D01*
X84089047Y-89257142D01*
X83755714Y-88685714D02*
X83374761Y-88685714D01*
X83612857Y-89352380D02*
X83612857Y-88495238D01*
X83565238Y-88400000D01*
X83470000Y-88352380D01*
X83374761Y-88352380D01*
X84440952Y-86151428D02*
X83679047Y-86151428D01*
X84060000Y-86532380D02*
X84060000Y-85770476D01*
X85166666Y-83457142D02*
X85214285Y-83504761D01*
X85357142Y-83552380D01*
X85452380Y-83552380D01*
X85595238Y-83504761D01*
X85690476Y-83409523D01*
X85738095Y-83314285D01*
X85785714Y-83123809D01*
X85785714Y-82980952D01*
X85738095Y-82790476D01*
X85690476Y-82695238D01*
X85595238Y-82600000D01*
X85452380Y-82552380D01*
X85357142Y-82552380D01*
X85214285Y-82600000D01*
X85166666Y-82647619D01*
X84833333Y-82552380D02*
X84166666Y-82552380D01*
X84595238Y-83552380D01*
X85585714Y-51019047D02*
X86252380Y-51019047D01*
X85204761Y-50780952D02*
X85919047Y-50542857D01*
X85919047Y-51161904D01*
X86252380Y-51542857D02*
X85252380Y-51542857D01*
X85966666Y-51876190D01*
X85252380Y-52209523D01*
X86252380Y-52209523D01*
X86252380Y-52685714D02*
X85252380Y-52685714D01*
X85728571Y-52685714D02*
X85728571Y-53257142D01*
X86252380Y-53257142D02*
X85252380Y-53257142D01*
X85252380Y-53638095D02*
X85252380Y-54304761D01*
X86252380Y-53638095D01*
X86252380Y-54304761D01*
X82976190Y-51923809D02*
X83452380Y-51923809D01*
X82452380Y-51590476D02*
X82976190Y-51923809D01*
X82452380Y-52257142D01*
X83452380Y-53114285D02*
X83452380Y-52542857D01*
X83452380Y-52828571D02*
X82452380Y-52828571D01*
X82595238Y-52733333D01*
X82690476Y-52638095D01*
X82738095Y-52542857D01*
X109261904Y-52697619D02*
X109214285Y-52650000D01*
X109119047Y-52602380D01*
X108880952Y-52602380D01*
X108785714Y-52650000D01*
X108738095Y-52697619D01*
X108690476Y-52792857D01*
X108690476Y-52888095D01*
X108738095Y-53030952D01*
X109309523Y-53602380D01*
X108690476Y-53602380D01*
X108309523Y-52697619D02*
X108261904Y-52650000D01*
X108166666Y-52602380D01*
X107928571Y-52602380D01*
X107833333Y-52650000D01*
X107785714Y-52697619D01*
X107738095Y-52792857D01*
X107738095Y-52888095D01*
X107785714Y-53030952D01*
X108357142Y-53602380D01*
X107738095Y-53602380D01*
X109142857Y-56452380D02*
X109476190Y-55976190D01*
X109714285Y-56452380D02*
X109714285Y-55452380D01*
X109333333Y-55452380D01*
X109238095Y-55500000D01*
X109190476Y-55547619D01*
X109142857Y-55642857D01*
X109142857Y-55785714D01*
X109190476Y-55880952D01*
X109238095Y-55928571D01*
X109333333Y-55976190D01*
X109714285Y-55976190D01*
X108190476Y-56452380D02*
X108761904Y-56452380D01*
X108476190Y-56452380D02*
X108476190Y-55452380D01*
X108571428Y-55595238D01*
X108666666Y-55690476D01*
X108761904Y-55738095D01*
X107285714Y-55452380D02*
X107761904Y-55452380D01*
X107809523Y-55928571D01*
X107761904Y-55880952D01*
X107666666Y-55833333D01*
X107428571Y-55833333D01*
X107333333Y-55880952D01*
X107285714Y-55928571D01*
X107238095Y-56023809D01*
X107238095Y-56261904D01*
X107285714Y-56357142D01*
X107333333Y-56404761D01*
X107428571Y-56452380D01*
X107666666Y-56452380D01*
X107761904Y-56404761D01*
X107809523Y-56357142D01*
X118669404Y-52697619D02*
X118621785Y-52650000D01*
X118526547Y-52602380D01*
X118288452Y-52602380D01*
X118193214Y-52650000D01*
X118145595Y-52697619D01*
X118097976Y-52792857D01*
X118097976Y-52888095D01*
X118145595Y-53030952D01*
X118717023Y-53602380D01*
X118097976Y-53602380D01*
X117717023Y-52697619D02*
X117669404Y-52650000D01*
X117574166Y-52602380D01*
X117336071Y-52602380D01*
X117240833Y-52650000D01*
X117193214Y-52697619D01*
X117145595Y-52792857D01*
X117145595Y-52888095D01*
X117193214Y-53030952D01*
X117764642Y-53602380D01*
X117145595Y-53602380D01*
X118550357Y-56452380D02*
X118883690Y-55976190D01*
X119121785Y-56452380D02*
X119121785Y-55452380D01*
X118740833Y-55452380D01*
X118645595Y-55500000D01*
X118597976Y-55547619D01*
X118550357Y-55642857D01*
X118550357Y-55785714D01*
X118597976Y-55880952D01*
X118645595Y-55928571D01*
X118740833Y-55976190D01*
X119121785Y-55976190D01*
X117597976Y-56452380D02*
X118169404Y-56452380D01*
X117883690Y-56452380D02*
X117883690Y-55452380D01*
X117978928Y-55595238D01*
X118074166Y-55690476D01*
X118169404Y-55738095D01*
X116740833Y-55452380D02*
X116931309Y-55452380D01*
X117026547Y-55500000D01*
X117074166Y-55547619D01*
X117169404Y-55690476D01*
X117217023Y-55880952D01*
X117217023Y-56261904D01*
X117169404Y-56357142D01*
X117121785Y-56404761D01*
X117026547Y-56452380D01*
X116836071Y-56452380D01*
X116740833Y-56404761D01*
X116693214Y-56357142D01*
X116645595Y-56261904D01*
X116645595Y-56023809D01*
X116693214Y-55928571D01*
X116740833Y-55880952D01*
X116836071Y-55833333D01*
X117026547Y-55833333D01*
X117121785Y-55880952D01*
X117169404Y-55928571D01*
X117217023Y-56023809D01*
X128854404Y-52697619D02*
X128806785Y-52650000D01*
X128711547Y-52602380D01*
X128473452Y-52602380D01*
X128378214Y-52650000D01*
X128330595Y-52697619D01*
X128282976Y-52792857D01*
X128282976Y-52888095D01*
X128330595Y-53030952D01*
X128902023Y-53602380D01*
X128282976Y-53602380D01*
X127902023Y-52697619D02*
X127854404Y-52650000D01*
X127759166Y-52602380D01*
X127521071Y-52602380D01*
X127425833Y-52650000D01*
X127378214Y-52697619D01*
X127330595Y-52792857D01*
X127330595Y-52888095D01*
X127378214Y-53030952D01*
X127949642Y-53602380D01*
X127330595Y-53602380D01*
X128735357Y-56452380D02*
X129068690Y-55976190D01*
X129306785Y-56452380D02*
X129306785Y-55452380D01*
X128925833Y-55452380D01*
X128830595Y-55500000D01*
X128782976Y-55547619D01*
X128735357Y-55642857D01*
X128735357Y-55785714D01*
X128782976Y-55880952D01*
X128830595Y-55928571D01*
X128925833Y-55976190D01*
X129306785Y-55976190D01*
X127782976Y-56452380D02*
X128354404Y-56452380D01*
X128068690Y-56452380D02*
X128068690Y-55452380D01*
X128163928Y-55595238D01*
X128259166Y-55690476D01*
X128354404Y-55738095D01*
X127449642Y-55452380D02*
X126782976Y-55452380D01*
X127211547Y-56452380D01*
M02*
