G04 #@! TF.GenerationSoftware,KiCad,Pcbnew,no-vcs-found-104b606~61~ubuntu16.04.1*
G04 #@! TF.CreationDate,2018-02-16T14:36:21-05:00*
G04 #@! TF.ProjectId,D21_2550,4432315F323535302E6B696361645F70,rev?*
G04 #@! TF.SameCoordinates,Original*
G04 #@! TF.FileFunction,Copper,L2,Bot,Signal*
G04 #@! TF.FilePolarity,Positive*
%FSLAX46Y46*%
G04 Gerber Fmt 4.6, Leading zero omitted, Abs format (unit mm)*
G04 Created by KiCad (PCBNEW no-vcs-found-104b606~61~ubuntu16.04.1) date Fri Feb 16 14:36:21 2018*
%MOMM*%
%LPD*%
G01*
G04 APERTURE LIST*
%ADD10R,1.600000X1.600000*%
%ADD11C,1.600000*%
%ADD12R,1.500000X1.145000*%
%ADD13C,1.000000*%
%ADD14C,3.000000*%
%ADD15R,3.000000X3.000000*%
%ADD16O,1.700000X1.700000*%
%ADD17R,1.700000X1.700000*%
%ADD18R,2.000000X3.800000*%
%ADD19R,2.000000X1.500000*%
%ADD20R,2.700000X1.245000*%
%ADD21R,1.345000X3.400000*%
%ADD22R,2.000000X0.600000*%
%ADD23R,3.800000X2.000000*%
%ADD24R,1.500000X2.000000*%
%ADD25C,1.200000*%
%ADD26R,2.100000X5.600000*%
%ADD27R,0.600000X0.700000*%
%ADD28R,1.800000X1.245000*%
%ADD29C,5.600000*%
%ADD30R,2.600000X1.600000*%
%ADD31C,0.800000*%
%ADD32C,0.400000*%
%ADD33C,0.300000*%
%ADD34C,0.600000*%
%ADD35C,0.800000*%
%ADD36C,0.500000*%
%ADD37C,1.200000*%
%ADD38C,0.254000*%
G04 APERTURE END LIST*
D10*
X145200000Y-113100000D03*
D11*
X145200000Y-116600000D03*
D12*
X100000000Y-104042500D03*
X100000000Y-101957500D03*
X99940000Y-124085000D03*
X99940000Y-122000000D03*
D11*
X155200000Y-116600000D03*
D10*
X155200000Y-113100000D03*
D13*
X132230000Y-101080000D03*
X134650000Y-101080000D03*
X137190000Y-101080000D03*
X139730000Y-101080000D03*
X142270000Y-101080000D03*
X144810000Y-101080000D03*
X147350000Y-101080000D03*
X149890000Y-101080000D03*
X149890000Y-90920000D03*
X147350000Y-90920000D03*
X144810000Y-90920000D03*
X142270000Y-90920000D03*
X139730000Y-90920000D03*
X137190000Y-90920000D03*
X134650000Y-90920000D03*
X132110000Y-90920000D03*
D14*
X184000000Y-125080000D03*
X184000000Y-120000000D03*
D15*
X184000000Y-130160000D03*
D14*
X184000000Y-114920000D03*
X184000000Y-109840000D03*
D16*
X133721209Y-123000000D03*
D17*
X131181209Y-123000000D03*
X123790000Y-123000000D03*
D16*
X126330000Y-123000000D03*
D17*
X113380000Y-129000000D03*
D16*
X115920000Y-129000000D03*
X118460000Y-129000000D03*
X121000000Y-129000000D03*
X123540000Y-129000000D03*
D18*
X130000000Y-84890000D03*
D19*
X123700000Y-84890000D03*
X123700000Y-82590000D03*
X123700000Y-87190000D03*
X137460000Y-87300000D03*
X137460000Y-82700000D03*
X137460000Y-85000000D03*
D18*
X143760000Y-85000000D03*
X158150000Y-85000000D03*
D19*
X151850000Y-85000000D03*
X151850000Y-82700000D03*
X151850000Y-87300000D03*
D12*
X102590000Y-126220000D03*
X102590000Y-128305000D03*
D20*
X165658475Y-96381066D03*
X165658475Y-99566066D03*
X176565199Y-99188302D03*
X176565199Y-96003302D03*
X183410612Y-96148849D03*
X183410612Y-99333849D03*
D12*
X120000000Y-87000000D03*
X120000000Y-84915000D03*
X134000000Y-85000000D03*
X134000000Y-87085000D03*
X148000000Y-87042500D03*
X148000000Y-84957500D03*
D21*
X127627500Y-96000000D03*
X133812500Y-96000000D03*
X143632500Y-96000000D03*
X137447500Y-96000000D03*
X146907500Y-96000000D03*
X153092500Y-96000000D03*
D11*
X156200000Y-108000000D03*
X156200000Y-103000000D03*
D22*
X108300000Y-121255000D03*
X108300000Y-119985000D03*
X108300000Y-118715000D03*
X108300000Y-117445000D03*
X108300000Y-116175000D03*
X108300000Y-114905000D03*
X108300000Y-113635000D03*
X108300000Y-112365000D03*
X108300000Y-111095000D03*
X108300000Y-109825000D03*
X108300000Y-108555000D03*
X108300000Y-107285000D03*
X108300000Y-106015000D03*
X108300000Y-104745000D03*
X117700000Y-104745000D03*
X117700000Y-106015000D03*
X117700000Y-107285000D03*
X117700000Y-108555000D03*
X117700000Y-109825000D03*
X117700000Y-111095000D03*
X117700000Y-112365000D03*
X117700000Y-113635000D03*
X117700000Y-114905000D03*
X117700000Y-116175000D03*
X117700000Y-117445000D03*
X117700000Y-118715000D03*
X117700000Y-119985000D03*
X117700000Y-121255000D03*
D23*
X164982000Y-92640000D03*
D24*
X164982000Y-86340000D03*
X167282000Y-86340000D03*
X162682000Y-86340000D03*
X171874000Y-86340000D03*
X176474000Y-86340000D03*
X174174000Y-86340000D03*
D23*
X174174000Y-92640000D03*
X183570000Y-92640000D03*
D24*
X183570000Y-86340000D03*
X185870000Y-86340000D03*
X181270000Y-86340000D03*
D25*
X160916024Y-102362123D03*
X160916024Y-107442123D03*
X160916024Y-112522123D03*
X160916024Y-117602123D03*
X160916024Y-125222123D03*
X160916024Y-130302123D03*
D26*
X100000000Y-108250000D03*
X100000000Y-117750000D03*
D27*
X124700000Y-111000000D03*
X123300000Y-111000000D03*
X105010000Y-123757500D03*
X103610000Y-123757500D03*
D28*
X165658475Y-102404522D03*
X165658475Y-105589522D03*
X176565199Y-105592802D03*
X176565199Y-102407802D03*
X183356612Y-102376849D03*
X183356612Y-105561849D03*
D29*
X99000000Y-131000000D03*
X169000000Y-124000000D03*
D30*
X105420000Y-127140000D03*
X109020000Y-127140000D03*
D31*
X185750000Y-90500000D03*
X184750000Y-90500000D03*
X185750000Y-89500000D03*
X184750000Y-89500000D03*
X185750000Y-88500000D03*
X184750000Y-88500000D03*
X182500000Y-90500000D03*
X181500000Y-90500000D03*
X182500000Y-89500000D03*
X181500000Y-89500000D03*
X182500000Y-88500000D03*
X181500000Y-88500000D03*
X173000000Y-90500000D03*
X172000000Y-90500000D03*
X173000000Y-88500000D03*
X172000000Y-88500000D03*
X176250000Y-90500000D03*
X175250000Y-90500000D03*
X176250000Y-89500000D03*
X175250000Y-89500000D03*
X173000000Y-89500000D03*
X172000000Y-89500000D03*
X176250000Y-88500000D03*
X175250000Y-88500000D03*
X167000000Y-90500000D03*
X166000000Y-90500000D03*
X164000000Y-90500000D03*
X163000000Y-90500000D03*
X167000000Y-89500000D03*
X166000000Y-89500000D03*
X164000000Y-89500000D03*
X163000000Y-89500000D03*
X167000000Y-88500000D03*
X166000000Y-88500000D03*
X164000000Y-88500000D03*
X163000000Y-88500000D03*
X114560000Y-84750000D03*
X118540000Y-96920000D03*
X112270000Y-102270000D03*
X102000000Y-97000000D03*
X147750000Y-83240000D03*
X140000000Y-123000000D03*
X109300000Y-124250000D03*
X115000000Y-109000000D03*
X134579998Y-105940000D03*
X134520000Y-117500000D03*
X133510000Y-114750000D03*
X133560000Y-109100000D03*
X138340000Y-111530000D03*
X138260000Y-106130000D03*
X137130000Y-114160000D03*
X137020000Y-120350000D03*
X135800000Y-105520000D03*
X135790000Y-118040000D03*
X111420000Y-118740000D03*
X111560000Y-120060000D03*
X115000000Y-119000000D03*
X125860000Y-87100000D03*
X130700000Y-103550000D03*
X147720000Y-125780000D03*
X137900000Y-127040000D03*
X126240000Y-111010000D03*
X104660000Y-129690000D03*
X169350000Y-102450000D03*
X165820000Y-82550000D03*
X172180000Y-102620000D03*
X175460000Y-82550000D03*
X179280000Y-103130000D03*
X184980000Y-82430000D03*
X128151060Y-89637542D03*
X125379990Y-92781037D03*
X121420000Y-100620000D03*
X146220000Y-88910000D03*
X104590000Y-114920000D03*
X105090000Y-113550000D03*
X106280000Y-117300000D03*
X110630000Y-116080000D03*
X125000000Y-102000000D03*
X125831074Y-105185407D03*
X124100000Y-108260000D03*
X167360000Y-83200000D03*
X176860000Y-83140000D03*
X186370000Y-83330000D03*
D32*
X132460000Y-124700000D02*
X131031209Y-124700000D01*
X138300000Y-124700000D02*
X132460000Y-124700000D01*
X131631209Y-124700000D02*
X132460000Y-124700000D01*
X131181209Y-123000000D02*
X131181209Y-124250000D01*
X131181209Y-124250000D02*
X131631209Y-124700000D01*
X140000000Y-123000000D02*
X138300000Y-124700000D01*
X131031209Y-124700000D02*
X127280000Y-124700000D01*
D33*
X147750000Y-83240000D02*
X149240000Y-83240000D01*
X149240000Y-83240000D02*
X149780000Y-82700000D01*
X149780000Y-82700000D02*
X151850000Y-82700000D01*
X101490000Y-88670000D02*
X103650000Y-86510000D01*
X99950000Y-90250000D02*
X101490000Y-88710000D01*
X101490000Y-88710000D02*
X101490000Y-88670000D01*
X99950000Y-92300000D02*
X99950000Y-90250000D01*
X103650000Y-86510000D02*
X115210000Y-86510000D01*
X115210000Y-86510000D02*
X116000000Y-85720000D01*
X119130000Y-82590000D02*
X117340000Y-84380000D01*
X117340000Y-84380000D02*
X116000000Y-85720000D01*
X114560000Y-84750000D02*
X116970000Y-84750000D01*
X116970000Y-84750000D02*
X117340000Y-84380000D01*
X102000000Y-97000000D02*
X118460000Y-97000000D01*
X118460000Y-97000000D02*
X118540000Y-96920000D01*
X101530000Y-102270000D02*
X111704315Y-102270000D01*
X111704315Y-102270000D02*
X112270000Y-102270000D01*
X99950000Y-100690000D02*
X101530000Y-102270000D01*
X102000000Y-97000000D02*
X100000000Y-95000000D01*
X100000000Y-95000000D02*
X100000000Y-92350000D01*
X100000000Y-92350000D02*
X99950000Y-92300000D01*
X99940000Y-124085000D02*
X99940000Y-130060000D01*
X99940000Y-130060000D02*
X99000000Y-131000000D01*
D32*
X124980000Y-124700000D02*
X127280000Y-124700000D01*
X123790000Y-123510000D02*
X124980000Y-124700000D01*
X123790000Y-123000000D02*
X123790000Y-123510000D01*
D33*
X109300000Y-124250000D02*
X109300000Y-126230000D01*
X109300000Y-126230000D02*
X108400000Y-127130000D01*
D32*
X123790000Y-123000000D02*
X122540000Y-123000000D01*
X122540000Y-123000000D02*
X118460000Y-127080000D01*
X118460000Y-127080000D02*
X118460000Y-127797919D01*
X118460000Y-127797919D02*
X118460000Y-129000000D01*
D33*
X101750000Y-123720000D02*
X101385000Y-124085000D01*
X101385000Y-124085000D02*
X99940000Y-124085000D01*
X101750000Y-121330000D02*
X101750000Y-123720000D01*
X103330000Y-119750000D02*
X101750000Y-121330000D01*
X103330000Y-113730000D02*
X103330000Y-119750000D01*
X104710000Y-112350000D02*
X103330000Y-113730000D01*
X106885000Y-112350000D02*
X104710000Y-112350000D01*
X108300000Y-112365000D02*
X106900000Y-112365000D01*
X106900000Y-112365000D02*
X106885000Y-112350000D01*
X117700000Y-109825000D02*
X115825000Y-109825000D01*
X115825000Y-109825000D02*
X115000000Y-109000000D01*
X108300000Y-112365000D02*
X109800000Y-112365000D01*
X109800000Y-112365000D02*
X112340000Y-109825000D01*
X112340000Y-109825000D02*
X116200000Y-109825000D01*
X116200000Y-109825000D02*
X117700000Y-109825000D01*
X100000000Y-101957500D02*
X100000000Y-100740000D01*
X100000000Y-100740000D02*
X99950000Y-100690000D01*
X123700000Y-82590000D02*
X119130000Y-82590000D01*
X149290000Y-82160000D02*
X149830000Y-82700000D01*
X137460000Y-82700000D02*
X139770000Y-82700000D01*
X140310000Y-82160000D02*
X149290000Y-82160000D01*
X139770000Y-82700000D02*
X140310000Y-82160000D01*
X149830000Y-82700000D02*
X151850000Y-82700000D01*
X135070000Y-81910000D02*
X125980000Y-81910000D01*
X135860000Y-82700000D02*
X135070000Y-81910000D01*
X125980000Y-81910000D02*
X125300000Y-82590000D01*
X137460000Y-82700000D02*
X135860000Y-82700000D01*
X125300000Y-82590000D02*
X123700000Y-82590000D01*
X99950000Y-98700000D02*
X99950000Y-100690000D01*
X99950000Y-92300000D02*
X99950000Y-98700000D01*
X134650000Y-105869998D02*
X134579998Y-105940000D01*
X134650000Y-101080000D02*
X134650000Y-105869998D01*
D32*
X117700000Y-117445000D02*
X134465000Y-117445000D01*
X134465000Y-117445000D02*
X134520000Y-117500000D01*
X117700000Y-114905000D02*
X133355000Y-114905000D01*
X133355000Y-114905000D02*
X133510000Y-114750000D01*
D33*
X134125685Y-109100000D02*
X133560000Y-109100000D01*
X137190000Y-106115685D02*
X134205685Y-109100000D01*
X134205685Y-109100000D02*
X134125685Y-109100000D01*
X137190000Y-101080000D02*
X137190000Y-106115685D01*
X139730000Y-101080000D02*
X139730000Y-101270000D01*
X138250000Y-106120000D02*
X138260000Y-106130000D01*
X139730000Y-101270000D02*
X138250000Y-102750000D01*
X138250000Y-102750000D02*
X138250000Y-106120000D01*
D32*
X117700000Y-116175000D02*
X133695000Y-116175000D01*
X133695000Y-116175000D02*
X137940001Y-111929999D01*
X137940001Y-111929999D02*
X138340000Y-111530000D01*
D33*
X117700000Y-121255000D02*
X136115000Y-121255000D01*
X136115000Y-121255000D02*
X137020000Y-120350000D01*
X144810000Y-101080000D02*
X144810000Y-104600000D01*
X139550000Y-111750000D02*
X139550000Y-109860000D01*
X139550000Y-109860000D02*
X144810000Y-104600000D01*
X137539999Y-113760001D02*
X139550000Y-111750000D01*
X137529999Y-113760001D02*
X137539999Y-113760001D01*
X137529999Y-113760001D02*
X137130000Y-114160000D01*
X115920000Y-129000000D02*
X115920000Y-121810000D01*
X115920000Y-121810000D02*
X116475000Y-121255000D01*
X116475000Y-121255000D02*
X117700000Y-121255000D01*
X136900000Y-116050000D02*
X140650000Y-112300000D01*
X140650000Y-112300000D02*
X140650000Y-110050000D01*
X136900000Y-118400000D02*
X136900000Y-116050000D01*
X135330000Y-119970000D02*
X136900000Y-118400000D01*
X134950000Y-119970000D02*
X135130000Y-119970000D01*
X131450000Y-119970000D02*
X134950000Y-119970000D01*
X134950000Y-119970000D02*
X135330000Y-119970000D01*
X131400000Y-120020000D02*
X131450000Y-119970000D01*
X140650000Y-110050000D02*
X149620000Y-101080000D01*
X149620000Y-101080000D02*
X149890000Y-101080000D01*
D32*
X131365000Y-119985000D02*
X119100000Y-119985000D01*
X119100000Y-119985000D02*
X117700000Y-119985000D01*
X113380000Y-129000000D02*
X113380000Y-121750000D01*
X113380000Y-121750000D02*
X115145000Y-119985000D01*
X115145000Y-119985000D02*
X117700000Y-119985000D01*
X134435000Y-113635000D02*
X143560000Y-104510000D01*
X143560000Y-104510000D02*
X143560000Y-100230000D01*
X117700000Y-113635000D02*
X134435000Y-113635000D01*
D33*
X143560000Y-100230000D02*
X144810000Y-98980000D01*
X144810000Y-91627106D02*
X144810000Y-90920000D01*
X144810000Y-98980000D02*
X144810000Y-91627106D01*
D32*
X117700000Y-112365000D02*
X133425000Y-112365000D01*
X133425000Y-112365000D02*
X141020000Y-104770000D01*
X141020000Y-104770000D02*
X141020000Y-92170000D01*
X141020000Y-92170000D02*
X141770001Y-91419999D01*
X141770001Y-91419999D02*
X142270000Y-90920000D01*
D33*
X134650000Y-90920000D02*
X135800000Y-92070000D01*
X135800000Y-92070000D02*
X135800000Y-104954315D01*
X135800000Y-104954315D02*
X135800000Y-105520000D01*
X117700000Y-118715000D02*
X135115000Y-118715000D01*
X135115000Y-118715000D02*
X135390001Y-118439999D01*
X135390001Y-118439999D02*
X135790000Y-118040000D01*
D32*
X108300000Y-118715000D02*
X111395000Y-118715000D01*
X111395000Y-118715000D02*
X111420000Y-118740000D01*
X111560000Y-120060000D02*
X108375000Y-120060000D01*
X108375000Y-120060000D02*
X108300000Y-119985000D01*
X115000000Y-112000000D02*
X115905000Y-111095000D01*
X115905000Y-111095000D02*
X117700000Y-111095000D01*
X115000000Y-119000000D02*
X115000000Y-112000000D01*
X117700000Y-111095000D02*
X123205000Y-111095000D01*
X123205000Y-111095000D02*
X123300000Y-111000000D01*
X111120000Y-129520000D02*
X111120000Y-122240000D01*
X121650000Y-130890000D02*
X112490000Y-130890000D01*
X112490000Y-130890000D02*
X111120000Y-129520000D01*
X110135000Y-121255000D02*
X108300000Y-121255000D01*
X123540000Y-129000000D02*
X121650000Y-130890000D01*
X111120000Y-122240000D02*
X110135000Y-121255000D01*
X105740000Y-121300000D02*
X105010000Y-122030000D01*
X105010000Y-122030000D02*
X105010000Y-123757500D01*
X107555000Y-121300000D02*
X105740000Y-121300000D01*
X108300000Y-121255000D02*
X107600000Y-121255000D01*
X107600000Y-121255000D02*
X107555000Y-121300000D01*
D34*
X120000000Y-84915000D02*
X123675000Y-84915000D01*
X123675000Y-84915000D02*
X123700000Y-84890000D01*
X137460000Y-85000000D02*
X134000000Y-85000000D01*
X148000000Y-84957500D02*
X151807500Y-84957500D01*
X151807500Y-84957500D02*
X151850000Y-85000000D01*
D32*
X130150000Y-93320000D02*
X125860000Y-89030000D01*
X125860000Y-89030000D02*
X125860000Y-87100000D01*
X130150000Y-102434315D02*
X130150000Y-93320000D01*
X130700000Y-103550000D02*
X130700000Y-102984315D01*
X130700000Y-102984315D02*
X130150000Y-102434315D01*
X137900000Y-127040000D02*
X142400000Y-127040000D01*
X143660000Y-125780000D02*
X147154315Y-125780000D01*
X147154315Y-125780000D02*
X147720000Y-125780000D01*
X142400000Y-127040000D02*
X143660000Y-125780000D01*
X124700000Y-111000000D02*
X126230000Y-111000000D01*
X126230000Y-111000000D02*
X126240000Y-111010000D01*
X104660000Y-129690000D02*
X103975000Y-129690000D01*
X103975000Y-129690000D02*
X102590000Y-128305000D01*
D35*
X169350000Y-99345091D02*
X169350000Y-100072591D01*
X166385975Y-96381066D02*
X169350000Y-99345091D01*
X169350000Y-100072591D02*
X169350000Y-102450000D01*
X165658475Y-96381066D02*
X166385975Y-96381066D01*
X165658475Y-96381066D02*
X165658475Y-93316475D01*
X165658475Y-93316475D02*
X164982000Y-92640000D01*
X164982000Y-86340000D02*
X164982000Y-87740000D01*
X164982000Y-87740000D02*
X164982000Y-92640000D01*
X164982000Y-86340000D02*
X164982000Y-83388000D01*
X164982000Y-83388000D02*
X165820000Y-82550000D01*
X176565199Y-96003302D02*
X174206698Y-96003302D01*
X174206698Y-96003302D02*
X172180000Y-98030000D01*
X172180000Y-100388501D02*
X172180000Y-102620000D01*
X172180000Y-98030000D02*
X172180000Y-100388501D01*
X174174000Y-92640000D02*
X175074000Y-92640000D01*
X175074000Y-92640000D02*
X176565199Y-94131199D01*
X176565199Y-94131199D02*
X176565199Y-94980802D01*
X176565199Y-94980802D02*
X176565199Y-96003302D01*
X174174000Y-86340000D02*
X174174000Y-87740000D01*
X174174000Y-87740000D02*
X174174000Y-92640000D01*
X174174000Y-86340000D02*
X174174000Y-83836000D01*
X174174000Y-83836000D02*
X175460000Y-82550000D01*
X183410612Y-96148849D02*
X182683112Y-96148849D01*
X182683112Y-96148849D02*
X179280000Y-99551961D01*
X179280000Y-99551961D02*
X179280000Y-103130000D01*
X183570000Y-92640000D02*
X183570000Y-95989461D01*
X183570000Y-95989461D02*
X183410612Y-96148849D01*
X183580000Y-84530000D02*
X183580000Y-83830000D01*
X183580000Y-83830000D02*
X184980000Y-82430000D01*
X183570000Y-86340000D02*
X183570000Y-84540000D01*
X183570000Y-84540000D02*
X183580000Y-84530000D01*
X183570000Y-92640000D02*
X183570000Y-86340000D01*
D33*
X122500000Y-102250000D02*
X126330000Y-98420000D01*
X116105000Y-102250000D02*
X122500000Y-102250000D01*
X108300000Y-108555000D02*
X109800000Y-108555000D01*
X109800000Y-108555000D02*
X116105000Y-102250000D01*
X126330000Y-98420000D02*
X126330000Y-92280000D01*
X126330000Y-92280000D02*
X121050000Y-87000000D01*
X121050000Y-87000000D02*
X120000000Y-87000000D01*
X122250000Y-101500000D02*
X125379990Y-98370010D01*
X115585000Y-101500000D02*
X122250000Y-101500000D01*
X109800000Y-107285000D02*
X115585000Y-101500000D01*
X108300000Y-107285000D02*
X109800000Y-107285000D01*
X125379990Y-93346722D02*
X125379990Y-92781037D01*
X125379990Y-98370010D02*
X125379990Y-93346722D01*
X128716745Y-89637542D02*
X128151060Y-89637542D01*
X133822500Y-87085000D02*
X131269958Y-89637542D01*
X134000000Y-87085000D02*
X133822500Y-87085000D01*
X131269958Y-89637542D02*
X128716745Y-89637542D01*
X109938614Y-106015000D02*
X115333614Y-100620000D01*
X115333614Y-100620000D02*
X120854315Y-100620000D01*
X120854315Y-100620000D02*
X121420000Y-100620000D01*
X108300000Y-106015000D02*
X109938614Y-106015000D01*
X146220000Y-88822500D02*
X148000000Y-87042500D01*
X146220000Y-88910000D02*
X146220000Y-88822500D01*
D36*
X104590000Y-114920000D02*
X108285000Y-114920000D01*
X108285000Y-114920000D02*
X108300000Y-114905000D01*
X105090000Y-113550000D02*
X108215000Y-113550000D01*
X108215000Y-113550000D02*
X108300000Y-113635000D01*
X106630000Y-117300000D02*
X106775000Y-117445000D01*
X106775000Y-117445000D02*
X108300000Y-117445000D01*
X106280000Y-117300000D02*
X106630000Y-117300000D01*
X110630000Y-116080000D02*
X110610000Y-116080000D01*
X108325000Y-116150000D02*
X108300000Y-116175000D01*
X110610000Y-116080000D02*
X110540000Y-116150000D01*
X110540000Y-116150000D02*
X108325000Y-116150000D01*
X117700000Y-106015000D02*
X123295000Y-106015000D01*
X123295000Y-106015000D02*
X125000000Y-104310000D01*
X125000000Y-104310000D02*
X125000000Y-102000000D01*
X123731481Y-107285000D02*
X125431075Y-105585406D01*
X117700000Y-107285000D02*
X123731481Y-107285000D01*
X125431075Y-105585406D02*
X125831074Y-105185407D01*
X117700000Y-108555000D02*
X123805000Y-108555000D01*
X123805000Y-108555000D02*
X124100000Y-108260000D01*
D35*
X167360000Y-83200000D02*
X167360000Y-86262000D01*
D32*
X167360000Y-86262000D02*
X167282000Y-86340000D01*
D35*
X176860000Y-83140000D02*
X176860000Y-85954000D01*
X176860000Y-85954000D02*
X176474000Y-86340000D01*
X186370000Y-83330000D02*
X186370000Y-85840000D01*
X186370000Y-85840000D02*
X185870000Y-86340000D01*
D37*
X160916024Y-102362123D02*
X160000000Y-101446099D01*
X160000000Y-88500000D02*
X162160000Y-86340000D01*
X160000000Y-101446099D02*
X160000000Y-88500000D01*
X162160000Y-86340000D02*
X162682000Y-86340000D01*
D35*
X164280000Y-81220000D02*
X168530000Y-81220000D01*
X168530000Y-81220000D02*
X180580000Y-81220000D01*
X171874000Y-86340000D02*
X171874000Y-84540000D01*
X171874000Y-84540000D02*
X168554000Y-81220000D01*
X168554000Y-81220000D02*
X168530000Y-81220000D01*
X180580000Y-81220000D02*
X181270000Y-81910000D01*
X181270000Y-81910000D02*
X181270000Y-86340000D01*
X162682000Y-82818000D02*
X164280000Y-81220000D01*
X162682000Y-86340000D02*
X162682000Y-82818000D01*
D37*
X184000000Y-109840000D02*
X184000000Y-106205237D01*
X184000000Y-106205237D02*
X183356612Y-105561849D01*
X176565199Y-105592802D02*
X183325659Y-105592802D01*
X183325659Y-105592802D02*
X183356612Y-105561849D01*
X165658475Y-105589522D02*
X176561919Y-105589522D01*
X176561919Y-105589522D02*
X176565199Y-105592802D01*
X160916024Y-102362123D02*
X164143423Y-105589522D01*
X164143423Y-105589522D02*
X165658475Y-105589522D01*
D32*
X165658475Y-99566066D02*
X165658475Y-102404522D01*
X165658475Y-102404522D02*
X165655098Y-102407899D01*
X176565199Y-99188302D02*
X176565199Y-102407802D01*
D36*
X183356612Y-102376849D02*
X183356612Y-99387849D01*
X183356612Y-99387849D02*
X183410612Y-99333849D01*
D32*
X102590000Y-126220000D02*
X103550000Y-127180000D01*
X103550000Y-127180000D02*
X105380000Y-127180000D01*
X105380000Y-127180000D02*
X105420000Y-127140000D01*
X102590000Y-126220000D02*
X102590000Y-124227500D01*
X102590000Y-124227500D02*
X103060000Y-123757500D01*
X103060000Y-123757500D02*
X103610000Y-123757500D01*
D36*
X99940000Y-122000000D02*
X99940000Y-117810000D01*
X99940000Y-117810000D02*
X100000000Y-117750000D01*
X102000000Y-113000000D02*
X103905000Y-111095000D01*
X103905000Y-111095000D02*
X108300000Y-111095000D01*
X102000000Y-117300000D02*
X102000000Y-113000000D01*
X100000000Y-117750000D02*
X101550000Y-117750000D01*
X101550000Y-117750000D02*
X102000000Y-117300000D01*
X100000000Y-108250000D02*
X101750000Y-108250000D01*
X101750000Y-108250000D02*
X103325000Y-109825000D01*
X103325000Y-109825000D02*
X106800000Y-109825000D01*
X106800000Y-109825000D02*
X108300000Y-109825000D01*
X100000000Y-108250000D02*
X100000000Y-104042500D01*
D34*
X132230000Y-101080000D02*
X132230000Y-98610000D01*
X132230000Y-98610000D02*
X133812500Y-97027500D01*
X133812500Y-97027500D02*
X133812500Y-96000000D01*
X142270000Y-100140000D02*
X143632500Y-98777500D01*
X143632500Y-98777500D02*
X143632500Y-96000000D01*
X142270000Y-101080000D02*
X142270000Y-100140000D01*
X147350000Y-101080000D02*
X149780000Y-98650000D01*
X149780000Y-98650000D02*
X152230000Y-98650000D01*
X152230000Y-98650000D02*
X153092500Y-97787500D01*
X153092500Y-97787500D02*
X153092500Y-96000000D01*
X123700000Y-88422096D02*
X123700000Y-87190000D01*
X127627500Y-96000000D02*
X127627500Y-92349596D01*
X127627500Y-92349596D02*
X123700000Y-88422096D01*
X138430000Y-92570000D02*
X138430000Y-89620000D01*
X137460000Y-88650000D02*
X137460000Y-87300000D01*
X138430000Y-89620000D02*
X137460000Y-88650000D01*
X137447500Y-93552500D02*
X138430000Y-92570000D01*
X137447500Y-96000000D02*
X137447500Y-93552500D01*
X146907500Y-96000000D02*
X148180000Y-96000000D01*
X148180000Y-96000000D02*
X151850000Y-92330000D01*
X151850000Y-92330000D02*
X151850000Y-88650000D01*
X151850000Y-88650000D02*
X151850000Y-87300000D01*
D37*
X155200000Y-116600000D02*
X159913901Y-116600000D01*
X159913901Y-116600000D02*
X160916024Y-117602123D01*
X145200000Y-116600000D02*
X155200000Y-116600000D01*
X163960000Y-112310000D02*
X161660000Y-110010000D01*
X163960000Y-126330000D02*
X163960000Y-112310000D01*
X167790000Y-130160000D02*
X163960000Y-126330000D01*
X184000000Y-130160000D02*
X167790000Y-130160000D01*
X158210000Y-110010000D02*
X156200000Y-108000000D01*
X161660000Y-110010000D02*
X158210000Y-110010000D01*
X155200000Y-113100000D02*
X160338147Y-113100000D01*
X160338147Y-113100000D02*
X160916024Y-112522123D01*
X145200000Y-113100000D02*
X155200000Y-113100000D01*
D38*
G36*
X157873000Y-82452560D02*
X157150000Y-82452560D01*
X156902235Y-82501843D01*
X156692191Y-82642191D01*
X156551843Y-82852235D01*
X156502560Y-83100000D01*
X156502560Y-86900000D01*
X156551843Y-87147765D01*
X156692191Y-87357809D01*
X156902235Y-87498157D01*
X157150000Y-87547440D01*
X157873000Y-87547440D01*
X157873000Y-107926447D01*
X157616534Y-107669981D01*
X157416534Y-107187138D01*
X157012862Y-106783466D01*
X156485439Y-106565000D01*
X155914561Y-106565000D01*
X155387138Y-106783466D01*
X154983466Y-107187138D01*
X154765000Y-107714561D01*
X154765000Y-108285439D01*
X154983466Y-108812862D01*
X155387138Y-109216534D01*
X155869981Y-109416534D01*
X157250715Y-110797269D01*
X157319615Y-110900385D01*
X157422731Y-110969285D01*
X157422732Y-110969286D01*
X157513258Y-111029773D01*
X157728127Y-111173344D01*
X157873000Y-111202161D01*
X157873000Y-111865000D01*
X156473050Y-111865000D01*
X156457809Y-111842191D01*
X156247765Y-111701843D01*
X156000000Y-111652560D01*
X154400000Y-111652560D01*
X154152235Y-111701843D01*
X153942191Y-111842191D01*
X153926950Y-111865000D01*
X146473050Y-111865000D01*
X146457809Y-111842191D01*
X146247765Y-111701843D01*
X146000000Y-111652560D01*
X144400000Y-111652560D01*
X144152235Y-111701843D01*
X143942191Y-111842191D01*
X143801843Y-112052235D01*
X143752560Y-112300000D01*
X143752560Y-113900000D01*
X143801843Y-114147765D01*
X143942191Y-114357809D01*
X144152235Y-114498157D01*
X144400000Y-114547440D01*
X146000000Y-114547440D01*
X146247765Y-114498157D01*
X146457809Y-114357809D01*
X146473050Y-114335000D01*
X153926950Y-114335000D01*
X153942191Y-114357809D01*
X154152235Y-114498157D01*
X154400000Y-114547440D01*
X156000000Y-114547440D01*
X156247765Y-114498157D01*
X156457809Y-114357809D01*
X156473050Y-114335000D01*
X157873000Y-114335000D01*
X157873000Y-115365000D01*
X155968281Y-115365000D01*
X155485439Y-115165000D01*
X154914561Y-115165000D01*
X154431719Y-115365000D01*
X145968281Y-115365000D01*
X145485439Y-115165000D01*
X144914561Y-115165000D01*
X144387138Y-115383466D01*
X143983466Y-115787138D01*
X143765000Y-116314561D01*
X143765000Y-116885439D01*
X143983466Y-117412862D01*
X144387138Y-117816534D01*
X144914561Y-118035000D01*
X145485439Y-118035000D01*
X145968281Y-117835000D01*
X154431719Y-117835000D01*
X154914561Y-118035000D01*
X155485439Y-118035000D01*
X155968281Y-117835000D01*
X157873000Y-117835000D01*
X157873000Y-133873000D01*
X100977780Y-133873000D01*
X101272735Y-133452340D01*
X99000000Y-131179605D01*
X96727265Y-133452340D01*
X97022220Y-133873000D01*
X96127000Y-133873000D01*
X96127000Y-132977780D01*
X96547660Y-133272735D01*
X98820395Y-131000000D01*
X96547660Y-128727265D01*
X96127000Y-129022220D01*
X96127000Y-128547660D01*
X96727265Y-128547660D01*
X99000000Y-130820395D01*
X99014143Y-130806253D01*
X99193748Y-130985858D01*
X99179605Y-131000000D01*
X101452340Y-133272735D01*
X101906203Y-132954499D01*
X102432936Y-131693566D01*
X102437035Y-130327044D01*
X102107609Y-129524940D01*
X102629073Y-129524940D01*
X103326415Y-130222282D01*
X103372999Y-130292001D01*
X103596704Y-130441476D01*
X103649199Y-130476552D01*
X103975000Y-130541358D01*
X104035594Y-130529305D01*
X104073720Y-130567431D01*
X104454126Y-130725000D01*
X104865874Y-130725000D01*
X105246280Y-130567431D01*
X105537431Y-130276280D01*
X105695000Y-129895874D01*
X105695000Y-129484126D01*
X105537431Y-129103720D01*
X105246280Y-128812569D01*
X104865874Y-128655000D01*
X104454126Y-128655000D01*
X104218477Y-128752609D01*
X104036748Y-128570880D01*
X104120000Y-128587440D01*
X106720000Y-128587440D01*
X106967765Y-128538157D01*
X107177809Y-128397809D01*
X107218654Y-128336680D01*
X107360302Y-128478327D01*
X107593691Y-128575000D01*
X108734250Y-128575000D01*
X108893000Y-128416250D01*
X108893000Y-127267000D01*
X108873000Y-127267000D01*
X108873000Y-127013000D01*
X108893000Y-127013000D01*
X108893000Y-125863750D01*
X108734250Y-125705000D01*
X107593691Y-125705000D01*
X107360302Y-125801673D01*
X107218654Y-125943320D01*
X107177809Y-125882191D01*
X106967765Y-125741843D01*
X106720000Y-125692560D01*
X104120000Y-125692560D01*
X103987440Y-125718928D01*
X103987440Y-125647500D01*
X103938157Y-125399735D01*
X103797809Y-125189691D01*
X103587765Y-125049343D01*
X103425000Y-125016967D01*
X103425000Y-124754940D01*
X103910000Y-124754940D01*
X104157765Y-124705657D01*
X104310000Y-124603936D01*
X104462235Y-124705657D01*
X104710000Y-124754940D01*
X105310000Y-124754940D01*
X105557765Y-124705657D01*
X105767809Y-124565309D01*
X105908157Y-124355265D01*
X105957440Y-124107500D01*
X105957440Y-123407500D01*
X105908157Y-123159735D01*
X105845000Y-123065215D01*
X105845000Y-122375867D01*
X106085868Y-122135000D01*
X107025061Y-122135000D01*
X107052235Y-122153157D01*
X107300000Y-122202440D01*
X109300000Y-122202440D01*
X109547765Y-122153157D01*
X109642285Y-122090000D01*
X109789132Y-122090000D01*
X110285001Y-122585869D01*
X110285001Y-125705000D01*
X109305750Y-125705000D01*
X109147000Y-125863750D01*
X109147000Y-127013000D01*
X109167000Y-127013000D01*
X109167000Y-127267000D01*
X109147000Y-127267000D01*
X109147000Y-128416250D01*
X109305750Y-128575000D01*
X110285000Y-128575000D01*
X110285000Y-129437767D01*
X110268643Y-129520000D01*
X110285000Y-129602233D01*
X110285000Y-129602236D01*
X110333448Y-129845800D01*
X110517999Y-130122001D01*
X110587720Y-130168587D01*
X111841415Y-131422282D01*
X111887999Y-131492001D01*
X112164199Y-131676552D01*
X112407763Y-131725000D01*
X112490000Y-131741358D01*
X112572237Y-131725000D01*
X121567767Y-131725000D01*
X121650000Y-131741357D01*
X121732233Y-131725000D01*
X121732237Y-131725000D01*
X121975801Y-131676552D01*
X122252001Y-131492001D01*
X122298587Y-131422280D01*
X123262061Y-130458807D01*
X123393744Y-130485000D01*
X123686256Y-130485000D01*
X124119418Y-130398839D01*
X124610625Y-130070625D01*
X124938839Y-129579418D01*
X125054092Y-129000000D01*
X124938839Y-128420582D01*
X124610625Y-127929375D01*
X124119418Y-127601161D01*
X123686256Y-127515000D01*
X123393744Y-127515000D01*
X122960582Y-127601161D01*
X122469375Y-127929375D01*
X122270000Y-128227761D01*
X122070625Y-127929375D01*
X121579418Y-127601161D01*
X121146256Y-127515000D01*
X120853744Y-127515000D01*
X120420582Y-127601161D01*
X119929375Y-127929375D01*
X119716157Y-128248478D01*
X119655183Y-128118642D01*
X119226924Y-127728355D01*
X118816890Y-127558524D01*
X118587000Y-127679845D01*
X118587000Y-128873000D01*
X118607000Y-128873000D01*
X118607000Y-129127000D01*
X118587000Y-129127000D01*
X118587000Y-129147000D01*
X118333000Y-129147000D01*
X118333000Y-129127000D01*
X118313000Y-129127000D01*
X118313000Y-128873000D01*
X118333000Y-128873000D01*
X118333000Y-127679845D01*
X118103110Y-127558524D01*
X117693076Y-127728355D01*
X117264817Y-128118642D01*
X117203843Y-128248478D01*
X116990625Y-127929375D01*
X116705000Y-127738526D01*
X116705000Y-126834126D01*
X136865000Y-126834126D01*
X136865000Y-127245874D01*
X137022569Y-127626280D01*
X137313720Y-127917431D01*
X137694126Y-128075000D01*
X138105874Y-128075000D01*
X138486280Y-127917431D01*
X138528711Y-127875000D01*
X142317767Y-127875000D01*
X142400000Y-127891357D01*
X142482233Y-127875000D01*
X142482237Y-127875000D01*
X142725801Y-127826552D01*
X143002001Y-127642001D01*
X143048587Y-127572280D01*
X144005868Y-126615000D01*
X147091289Y-126615000D01*
X147133720Y-126657431D01*
X147514126Y-126815000D01*
X147925874Y-126815000D01*
X148306280Y-126657431D01*
X148597431Y-126366280D01*
X148755000Y-125985874D01*
X148755000Y-125574126D01*
X148597431Y-125193720D01*
X148306280Y-124902569D01*
X147925874Y-124745000D01*
X147514126Y-124745000D01*
X147133720Y-124902569D01*
X147091289Y-124945000D01*
X143742232Y-124945000D01*
X143659999Y-124928643D01*
X143577766Y-124945000D01*
X143577763Y-124945000D01*
X143334199Y-124993448D01*
X143057999Y-125177999D01*
X143011415Y-125247718D01*
X142054133Y-126205000D01*
X138528711Y-126205000D01*
X138486280Y-126162569D01*
X138105874Y-126005000D01*
X137694126Y-126005000D01*
X137313720Y-126162569D01*
X137022569Y-126453720D01*
X136865000Y-126834126D01*
X116705000Y-126834126D01*
X116705000Y-123285750D01*
X122305000Y-123285750D01*
X122305000Y-123976310D01*
X122401673Y-124209699D01*
X122580302Y-124388327D01*
X122813691Y-124485000D01*
X123504250Y-124485000D01*
X123663000Y-124326250D01*
X123663000Y-123127000D01*
X122463750Y-123127000D01*
X122305000Y-123285750D01*
X116705000Y-123285750D01*
X116705000Y-122202440D01*
X118700000Y-122202440D01*
X118947765Y-122153157D01*
X119117115Y-122040000D01*
X122305000Y-122040000D01*
X122305000Y-122714250D01*
X122463750Y-122873000D01*
X123663000Y-122873000D01*
X123663000Y-122853000D01*
X123917000Y-122853000D01*
X123917000Y-122873000D01*
X123937000Y-122873000D01*
X123937000Y-123127000D01*
X123917000Y-123127000D01*
X123917000Y-124326250D01*
X124075750Y-124485000D01*
X124766309Y-124485000D01*
X124999698Y-124388327D01*
X125178327Y-124209699D01*
X125244904Y-124048968D01*
X125259375Y-124070625D01*
X125750582Y-124398839D01*
X126183744Y-124485000D01*
X126476256Y-124485000D01*
X126909418Y-124398839D01*
X127400625Y-124070625D01*
X127728839Y-123579418D01*
X127787252Y-123285750D01*
X129696209Y-123285750D01*
X129696209Y-123976310D01*
X129792882Y-124209699D01*
X129971511Y-124388327D01*
X130204900Y-124485000D01*
X130895459Y-124485000D01*
X131054209Y-124326250D01*
X131054209Y-123127000D01*
X129854959Y-123127000D01*
X129696209Y-123285750D01*
X127787252Y-123285750D01*
X127844092Y-123000000D01*
X127728839Y-122420582D01*
X127474542Y-122040000D01*
X129696209Y-122040000D01*
X129696209Y-122714250D01*
X129854959Y-122873000D01*
X131054209Y-122873000D01*
X131054209Y-122853000D01*
X131308209Y-122853000D01*
X131308209Y-122873000D01*
X131328209Y-122873000D01*
X131328209Y-123127000D01*
X131308209Y-123127000D01*
X131308209Y-124326250D01*
X131466959Y-124485000D01*
X132157518Y-124485000D01*
X132390907Y-124388327D01*
X132569536Y-124209699D01*
X132636113Y-124048968D01*
X132650584Y-124070625D01*
X133141791Y-124398839D01*
X133574953Y-124485000D01*
X133867465Y-124485000D01*
X134300627Y-124398839D01*
X134791834Y-124070625D01*
X135120048Y-123579418D01*
X135235301Y-123000000D01*
X135120048Y-122420582D01*
X134865751Y-122040000D01*
X136037688Y-122040000D01*
X136115000Y-122055378D01*
X136192312Y-122040000D01*
X136192316Y-122040000D01*
X136421292Y-121994454D01*
X136680953Y-121820953D01*
X136724749Y-121755408D01*
X137095157Y-121385000D01*
X137225874Y-121385000D01*
X137606280Y-121227431D01*
X137897431Y-120936280D01*
X138055000Y-120555874D01*
X138055000Y-120144126D01*
X137897431Y-119763720D01*
X137606280Y-119472569D01*
X137225874Y-119315000D01*
X137095158Y-119315000D01*
X137400411Y-119009747D01*
X137465953Y-118965953D01*
X137509747Y-118900411D01*
X137509749Y-118900409D01*
X137580765Y-118794126D01*
X137639454Y-118706292D01*
X137685000Y-118477316D01*
X137685000Y-118477312D01*
X137700378Y-118400001D01*
X137685000Y-118322690D01*
X137685000Y-116375157D01*
X141150411Y-112909747D01*
X141215953Y-112865953D01*
X141259747Y-112800411D01*
X141259749Y-112800409D01*
X141389454Y-112606292D01*
X141400576Y-112550379D01*
X141435000Y-112377316D01*
X141435000Y-112377312D01*
X141450378Y-112300000D01*
X141435000Y-112222688D01*
X141435000Y-110375157D01*
X149095596Y-102714561D01*
X154765000Y-102714561D01*
X154765000Y-103285439D01*
X154983466Y-103812862D01*
X155387138Y-104216534D01*
X155914561Y-104435000D01*
X156485439Y-104435000D01*
X157012862Y-104216534D01*
X157416534Y-103812862D01*
X157635000Y-103285439D01*
X157635000Y-102714561D01*
X157416534Y-102187138D01*
X157012862Y-101783466D01*
X156485439Y-101565000D01*
X155914561Y-101565000D01*
X155387138Y-101783466D01*
X154983466Y-102187138D01*
X154765000Y-102714561D01*
X149095596Y-102714561D01*
X149615389Y-102194768D01*
X149664234Y-102215000D01*
X150115766Y-102215000D01*
X150532926Y-102042207D01*
X150852207Y-101722926D01*
X151025000Y-101305766D01*
X151025000Y-100854234D01*
X150852207Y-100437074D01*
X150532926Y-100117793D01*
X150115766Y-99945000D01*
X149807290Y-99945000D01*
X150167290Y-99585000D01*
X152137914Y-99585000D01*
X152230000Y-99603317D01*
X152322086Y-99585000D01*
X152594819Y-99530750D01*
X152904097Y-99324097D01*
X152956261Y-99246028D01*
X153688531Y-98513759D01*
X153766597Y-98461597D01*
X153854811Y-98329576D01*
X154012765Y-98298157D01*
X154222809Y-98157809D01*
X154363157Y-97947765D01*
X154412440Y-97700000D01*
X154412440Y-94300000D01*
X154363157Y-94052235D01*
X154222809Y-93842191D01*
X154012765Y-93701843D01*
X153765000Y-93652560D01*
X152420000Y-93652560D01*
X152172235Y-93701843D01*
X151962191Y-93842191D01*
X151821843Y-94052235D01*
X151772560Y-94300000D01*
X151772560Y-97700000D01*
X151775544Y-97715000D01*
X149872086Y-97715000D01*
X149780000Y-97696683D01*
X149687914Y-97715000D01*
X149415181Y-97769250D01*
X149105903Y-97975903D01*
X149053741Y-98053969D01*
X147162711Y-99945000D01*
X147124234Y-99945000D01*
X146707074Y-100117793D01*
X146387793Y-100437074D01*
X146215000Y-100854234D01*
X146215000Y-101305766D01*
X146387793Y-101722926D01*
X146707074Y-102042207D01*
X147124234Y-102215000D01*
X147374843Y-102215000D01*
X145595000Y-103994843D01*
X145595000Y-101900133D01*
X145772207Y-101722926D01*
X145945000Y-101305766D01*
X145945000Y-100854234D01*
X145772207Y-100437074D01*
X145452926Y-100117793D01*
X145035766Y-99945000D01*
X144955158Y-99945000D01*
X145310411Y-99589747D01*
X145375953Y-99545953D01*
X145419747Y-99480411D01*
X145419749Y-99480409D01*
X145549454Y-99286292D01*
X145572508Y-99170389D01*
X145595000Y-99057316D01*
X145595000Y-99057312D01*
X145610378Y-98980000D01*
X145595000Y-98902688D01*
X145595000Y-97737404D01*
X145636843Y-97947765D01*
X145777191Y-98157809D01*
X145987235Y-98298157D01*
X146235000Y-98347440D01*
X147580000Y-98347440D01*
X147827765Y-98298157D01*
X148037809Y-98157809D01*
X148178157Y-97947765D01*
X148227440Y-97700000D01*
X148227440Y-96943881D01*
X148272086Y-96935000D01*
X148544819Y-96880750D01*
X148854097Y-96674097D01*
X148906261Y-96596028D01*
X152446031Y-93056259D01*
X152524097Y-93004097D01*
X152730750Y-92694819D01*
X152785000Y-92422086D01*
X152785000Y-92422085D01*
X152803317Y-92330000D01*
X152785000Y-92237914D01*
X152785000Y-88697440D01*
X152850000Y-88697440D01*
X153097765Y-88648157D01*
X153307809Y-88507809D01*
X153448157Y-88297765D01*
X153497440Y-88050000D01*
X153497440Y-86550000D01*
X153448157Y-86302235D01*
X153346436Y-86150000D01*
X153448157Y-85997765D01*
X153497440Y-85750000D01*
X153497440Y-84250000D01*
X153448157Y-84002235D01*
X153347073Y-83850953D01*
X153388327Y-83809699D01*
X153485000Y-83576310D01*
X153485000Y-82985750D01*
X153326250Y-82827000D01*
X151977000Y-82827000D01*
X151977000Y-82847000D01*
X151723000Y-82847000D01*
X151723000Y-82827000D01*
X150373750Y-82827000D01*
X150215000Y-82985750D01*
X150215000Y-83576310D01*
X150311673Y-83809699D01*
X150352927Y-83850953D01*
X150251843Y-84002235D01*
X150247812Y-84022500D01*
X149271493Y-84022500D01*
X149207809Y-83927191D01*
X148997765Y-83786843D01*
X148750000Y-83737560D01*
X147250000Y-83737560D01*
X147002235Y-83786843D01*
X146792191Y-83927191D01*
X146651843Y-84137235D01*
X146602560Y-84385000D01*
X146602560Y-85530000D01*
X146651843Y-85777765D01*
X146792191Y-85987809D01*
X146810436Y-86000000D01*
X146792191Y-86012191D01*
X146651843Y-86222235D01*
X146602560Y-86470000D01*
X146602560Y-87329782D01*
X146057343Y-87875000D01*
X146014126Y-87875000D01*
X145633720Y-88032569D01*
X145342569Y-88323720D01*
X145185000Y-88704126D01*
X145185000Y-89115874D01*
X145342569Y-89496280D01*
X145633720Y-89787431D01*
X146014126Y-89945000D01*
X146425874Y-89945000D01*
X146806280Y-89787431D01*
X147097431Y-89496280D01*
X147255000Y-89115874D01*
X147255000Y-88897657D01*
X147890218Y-88262440D01*
X148750000Y-88262440D01*
X148997765Y-88213157D01*
X149207809Y-88072809D01*
X149348157Y-87862765D01*
X149397440Y-87615000D01*
X149397440Y-86470000D01*
X149348157Y-86222235D01*
X149207809Y-86012191D01*
X149189564Y-86000000D01*
X149207809Y-85987809D01*
X149271493Y-85892500D01*
X150230905Y-85892500D01*
X150251843Y-85997765D01*
X150353564Y-86150000D01*
X150251843Y-86302235D01*
X150202560Y-86550000D01*
X150202560Y-88050000D01*
X150251843Y-88297765D01*
X150392191Y-88507809D01*
X150602235Y-88648157D01*
X150850000Y-88697440D01*
X150915000Y-88697440D01*
X150915000Y-88742085D01*
X150915001Y-88742090D01*
X150915001Y-90428671D01*
X150852207Y-90277074D01*
X150532926Y-89957793D01*
X150115766Y-89785000D01*
X149664234Y-89785000D01*
X149247074Y-89957793D01*
X148927793Y-90277074D01*
X148755000Y-90694234D01*
X148755000Y-91145766D01*
X148927793Y-91562926D01*
X149247074Y-91882207D01*
X149664234Y-92055000D01*
X150115766Y-92055000D01*
X150532926Y-91882207D01*
X150852207Y-91562926D01*
X150915000Y-91411329D01*
X150915000Y-91942710D01*
X148227440Y-94630271D01*
X148227440Y-94300000D01*
X148178157Y-94052235D01*
X148037809Y-93842191D01*
X147827765Y-93701843D01*
X147580000Y-93652560D01*
X146235000Y-93652560D01*
X145987235Y-93701843D01*
X145777191Y-93842191D01*
X145636843Y-94052235D01*
X145595000Y-94262596D01*
X145595000Y-91740133D01*
X145772207Y-91562926D01*
X145945000Y-91145766D01*
X145945000Y-90694234D01*
X146215000Y-90694234D01*
X146215000Y-91145766D01*
X146387793Y-91562926D01*
X146707074Y-91882207D01*
X147124234Y-92055000D01*
X147575766Y-92055000D01*
X147992926Y-91882207D01*
X148312207Y-91562926D01*
X148485000Y-91145766D01*
X148485000Y-90694234D01*
X148312207Y-90277074D01*
X147992926Y-89957793D01*
X147575766Y-89785000D01*
X147124234Y-89785000D01*
X146707074Y-89957793D01*
X146387793Y-90277074D01*
X146215000Y-90694234D01*
X145945000Y-90694234D01*
X145772207Y-90277074D01*
X145452926Y-89957793D01*
X145035766Y-89785000D01*
X144584234Y-89785000D01*
X144167074Y-89957793D01*
X143847793Y-90277074D01*
X143675000Y-90694234D01*
X143675000Y-91145766D01*
X143847793Y-91562926D01*
X144025001Y-91740134D01*
X144025001Y-93652560D01*
X142960000Y-93652560D01*
X142712235Y-93701843D01*
X142502191Y-93842191D01*
X142361843Y-94052235D01*
X142312560Y-94300000D01*
X142312560Y-97700000D01*
X142361843Y-97947765D01*
X142502191Y-98157809D01*
X142697500Y-98288311D01*
X142697500Y-98390210D01*
X141855000Y-99232711D01*
X141855000Y-92515867D01*
X142315868Y-92055000D01*
X142495766Y-92055000D01*
X142912926Y-91882207D01*
X143232207Y-91562926D01*
X143405000Y-91145766D01*
X143405000Y-90694234D01*
X143232207Y-90277074D01*
X142912926Y-89957793D01*
X142495766Y-89785000D01*
X142044234Y-89785000D01*
X141627074Y-89957793D01*
X141307793Y-90277074D01*
X141135000Y-90694234D01*
X141135000Y-90874132D01*
X140865000Y-91144132D01*
X140865000Y-90694234D01*
X140692207Y-90277074D01*
X140372926Y-89957793D01*
X139955766Y-89785000D01*
X139504234Y-89785000D01*
X139365000Y-89842673D01*
X139365000Y-89712085D01*
X139383317Y-89619999D01*
X139310750Y-89255181D01*
X139156259Y-89023969D01*
X139104097Y-88945903D01*
X139026031Y-88893741D01*
X138751334Y-88619045D01*
X138917809Y-88507809D01*
X139058157Y-88297765D01*
X139107440Y-88050000D01*
X139107440Y-86550000D01*
X139058157Y-86302235D01*
X138956436Y-86150000D01*
X139058157Y-85997765D01*
X139107440Y-85750000D01*
X139107440Y-84250000D01*
X139058157Y-84002235D01*
X138957073Y-83850953D01*
X138998327Y-83809699D01*
X139095000Y-83576310D01*
X139095000Y-83100000D01*
X142112560Y-83100000D01*
X142112560Y-86900000D01*
X142161843Y-87147765D01*
X142302191Y-87357809D01*
X142512235Y-87498157D01*
X142760000Y-87547440D01*
X144760000Y-87547440D01*
X145007765Y-87498157D01*
X145217809Y-87357809D01*
X145358157Y-87147765D01*
X145407440Y-86900000D01*
X145407440Y-83100000D01*
X145358157Y-82852235D01*
X145217809Y-82642191D01*
X145007765Y-82501843D01*
X144760000Y-82452560D01*
X142760000Y-82452560D01*
X142512235Y-82501843D01*
X142302191Y-82642191D01*
X142161843Y-82852235D01*
X142112560Y-83100000D01*
X139095000Y-83100000D01*
X139095000Y-82985750D01*
X138936250Y-82827000D01*
X137587000Y-82827000D01*
X137587000Y-82847000D01*
X137333000Y-82847000D01*
X137333000Y-82827000D01*
X135983750Y-82827000D01*
X135825000Y-82985750D01*
X135825000Y-83576310D01*
X135921673Y-83809699D01*
X135962927Y-83850953D01*
X135861843Y-84002235D01*
X135849358Y-84065000D01*
X135271493Y-84065000D01*
X135207809Y-83969691D01*
X134997765Y-83829343D01*
X134750000Y-83780060D01*
X133250000Y-83780060D01*
X133002235Y-83829343D01*
X132792191Y-83969691D01*
X132651843Y-84179735D01*
X132602560Y-84427500D01*
X132602560Y-85572500D01*
X132651843Y-85820265D01*
X132792191Y-86030309D01*
X132810436Y-86042500D01*
X132792191Y-86054691D01*
X132651843Y-86264735D01*
X132602560Y-86512500D01*
X132602560Y-87194783D01*
X130944801Y-88852542D01*
X128829771Y-88852542D01*
X128737340Y-88760111D01*
X128356934Y-88602542D01*
X127945186Y-88602542D01*
X127564780Y-88760111D01*
X127273629Y-89051262D01*
X127211682Y-89200815D01*
X126695000Y-88684133D01*
X126695000Y-87728711D01*
X126737431Y-87686280D01*
X126895000Y-87305874D01*
X126895000Y-86894126D01*
X126737431Y-86513720D01*
X126446280Y-86222569D01*
X126065874Y-86065000D01*
X125654126Y-86065000D01*
X125301871Y-86210908D01*
X125298157Y-86192235D01*
X125196436Y-86040000D01*
X125298157Y-85887765D01*
X125347440Y-85640000D01*
X125347440Y-84140000D01*
X125298157Y-83892235D01*
X125197073Y-83740953D01*
X125238327Y-83699699D01*
X125335000Y-83466310D01*
X125335000Y-82990000D01*
X128352560Y-82990000D01*
X128352560Y-86790000D01*
X128401843Y-87037765D01*
X128542191Y-87247809D01*
X128752235Y-87388157D01*
X129000000Y-87437440D01*
X131000000Y-87437440D01*
X131247765Y-87388157D01*
X131457809Y-87247809D01*
X131598157Y-87037765D01*
X131647440Y-86790000D01*
X131647440Y-82990000D01*
X131598157Y-82742235D01*
X131457809Y-82532191D01*
X131247765Y-82391843D01*
X131000000Y-82342560D01*
X129000000Y-82342560D01*
X128752235Y-82391843D01*
X128542191Y-82532191D01*
X128401843Y-82742235D01*
X128352560Y-82990000D01*
X125335000Y-82990000D01*
X125335000Y-82875750D01*
X125176250Y-82717000D01*
X123827000Y-82717000D01*
X123827000Y-82737000D01*
X123573000Y-82737000D01*
X123573000Y-82717000D01*
X122223750Y-82717000D01*
X122065000Y-82875750D01*
X122065000Y-83466310D01*
X122161673Y-83699699D01*
X122202927Y-83740953D01*
X122101843Y-83892235D01*
X122084386Y-83980000D01*
X121271493Y-83980000D01*
X121207809Y-83884691D01*
X120997765Y-83744343D01*
X120750000Y-83695060D01*
X119250000Y-83695060D01*
X119002235Y-83744343D01*
X118792191Y-83884691D01*
X118651843Y-84094735D01*
X118602560Y-84342500D01*
X118602560Y-85487500D01*
X118651843Y-85735265D01*
X118792191Y-85945309D01*
X118810436Y-85957500D01*
X118792191Y-85969691D01*
X118651843Y-86179735D01*
X118602560Y-86427500D01*
X118602560Y-87572500D01*
X118651843Y-87820265D01*
X118792191Y-88030309D01*
X119002235Y-88170657D01*
X119250000Y-88219940D01*
X120750000Y-88219940D01*
X120997765Y-88170657D01*
X121065344Y-88125501D01*
X124828881Y-91889038D01*
X124793710Y-91903606D01*
X124502559Y-92194757D01*
X124344990Y-92575163D01*
X124344990Y-92986911D01*
X124502559Y-93367317D01*
X124594991Y-93459749D01*
X124594990Y-98044852D01*
X122387845Y-100251998D01*
X122297431Y-100033720D01*
X122006280Y-99742569D01*
X121625874Y-99585000D01*
X121214126Y-99585000D01*
X120833720Y-99742569D01*
X120741289Y-99835000D01*
X115410924Y-99835000D01*
X115333613Y-99819622D01*
X115256302Y-99835000D01*
X115256298Y-99835000D01*
X115027322Y-99880546D01*
X114908239Y-99960115D01*
X114833205Y-100010251D01*
X114833203Y-100010253D01*
X114767661Y-100054047D01*
X114723867Y-100119589D01*
X109947440Y-104896017D01*
X109947440Y-104445000D01*
X109898157Y-104197235D01*
X109757809Y-103987191D01*
X109547765Y-103846843D01*
X109300000Y-103797560D01*
X107300000Y-103797560D01*
X107052235Y-103846843D01*
X106842191Y-103987191D01*
X106701843Y-104197235D01*
X106652560Y-104445000D01*
X106652560Y-105045000D01*
X106701843Y-105292765D01*
X106760132Y-105380000D01*
X106701843Y-105467235D01*
X106652560Y-105715000D01*
X106652560Y-106315000D01*
X106701843Y-106562765D01*
X106760132Y-106650000D01*
X106701843Y-106737235D01*
X106652560Y-106985000D01*
X106652560Y-107585000D01*
X106701843Y-107832765D01*
X106760132Y-107920000D01*
X106701843Y-108007235D01*
X106652560Y-108255000D01*
X106652560Y-108855000D01*
X106669467Y-108940000D01*
X103691579Y-108940000D01*
X102437425Y-107685847D01*
X102388049Y-107611951D01*
X102095310Y-107416348D01*
X101837165Y-107365000D01*
X101837161Y-107365000D01*
X101750000Y-107347663D01*
X101697440Y-107358118D01*
X101697440Y-105450000D01*
X101648157Y-105202235D01*
X101507809Y-104992191D01*
X101337648Y-104878492D01*
X101348157Y-104862765D01*
X101397440Y-104615000D01*
X101397440Y-103470000D01*
X101348157Y-103222235D01*
X101207809Y-103012191D01*
X101182647Y-102995378D01*
X101288327Y-102889698D01*
X101385000Y-102656309D01*
X101385000Y-102243250D01*
X101226250Y-102084500D01*
X100127000Y-102084500D01*
X100127000Y-102104500D01*
X99873000Y-102104500D01*
X99873000Y-102084500D01*
X98773750Y-102084500D01*
X98615000Y-102243250D01*
X98615000Y-102656309D01*
X98711673Y-102889698D01*
X98817353Y-102995378D01*
X98792191Y-103012191D01*
X98651843Y-103222235D01*
X98602560Y-103470000D01*
X98602560Y-104615000D01*
X98651843Y-104862765D01*
X98662352Y-104878492D01*
X98492191Y-104992191D01*
X98351843Y-105202235D01*
X98302560Y-105450000D01*
X98302560Y-111050000D01*
X98351843Y-111297765D01*
X98492191Y-111507809D01*
X98702235Y-111648157D01*
X98950000Y-111697440D01*
X101050000Y-111697440D01*
X101297765Y-111648157D01*
X101507809Y-111507809D01*
X101648157Y-111297765D01*
X101697440Y-111050000D01*
X101697440Y-109449018D01*
X102637577Y-110389156D01*
X102686951Y-110463049D01*
X102760844Y-110512423D01*
X102760845Y-110512424D01*
X102836114Y-110562717D01*
X102979690Y-110658652D01*
X103071506Y-110676915D01*
X101435845Y-112312577D01*
X101361952Y-112361951D01*
X101312578Y-112435844D01*
X101312576Y-112435846D01*
X101166348Y-112654691D01*
X101097663Y-113000000D01*
X101115001Y-113087165D01*
X101115001Y-114315489D01*
X101050000Y-114302560D01*
X98950000Y-114302560D01*
X98702235Y-114351843D01*
X98492191Y-114492191D01*
X98351843Y-114702235D01*
X98302560Y-114950000D01*
X98302560Y-120550000D01*
X98351843Y-120797765D01*
X98492191Y-121007809D01*
X98640504Y-121106909D01*
X98591843Y-121179735D01*
X98542560Y-121427500D01*
X98542560Y-122572500D01*
X98591843Y-122820265D01*
X98732191Y-123030309D01*
X98757353Y-123047122D01*
X98651673Y-123152802D01*
X98555000Y-123386191D01*
X98555000Y-123799250D01*
X98713750Y-123958000D01*
X99813000Y-123958000D01*
X99813000Y-123938000D01*
X100067000Y-123938000D01*
X100067000Y-123958000D01*
X101166250Y-123958000D01*
X101325000Y-123799250D01*
X101325000Y-123386191D01*
X101228327Y-123152802D01*
X101122647Y-123047122D01*
X101147809Y-123030309D01*
X101288157Y-122820265D01*
X101337440Y-122572500D01*
X101337440Y-121427500D01*
X101288157Y-121179735D01*
X101270660Y-121153549D01*
X101297765Y-121148157D01*
X101507809Y-121007809D01*
X101648157Y-120797765D01*
X101697440Y-120550000D01*
X101697440Y-118623011D01*
X101895310Y-118583652D01*
X102188049Y-118388049D01*
X102237425Y-118314153D01*
X102564154Y-117987424D01*
X102638049Y-117938049D01*
X102833652Y-117645310D01*
X102885000Y-117387165D01*
X102885000Y-117387161D01*
X102902337Y-117300001D01*
X102885000Y-117212841D01*
X102885000Y-113366578D01*
X104271579Y-111980000D01*
X106665000Y-111980000D01*
X106665000Y-112079250D01*
X106823750Y-112238000D01*
X108173000Y-112238000D01*
X108173000Y-112218000D01*
X108427000Y-112218000D01*
X108427000Y-112238000D01*
X109776250Y-112238000D01*
X109935000Y-112079250D01*
X109935000Y-111938690D01*
X109845232Y-111721972D01*
X109898157Y-111642765D01*
X109947440Y-111395000D01*
X109947440Y-110795000D01*
X109898157Y-110547235D01*
X109839868Y-110460000D01*
X109898157Y-110372765D01*
X109947440Y-110125000D01*
X109947440Y-109525000D01*
X109909373Y-109333623D01*
X110106292Y-109294454D01*
X110365953Y-109120953D01*
X110409749Y-109055408D01*
X116430157Y-103035000D01*
X122422688Y-103035000D01*
X122500000Y-103050378D01*
X122577312Y-103035000D01*
X122577316Y-103035000D01*
X122806292Y-102989454D01*
X123065953Y-102815953D01*
X123109749Y-102750408D01*
X123965000Y-101895157D01*
X123965000Y-102205874D01*
X124115001Y-102568009D01*
X124115000Y-103943421D01*
X122928422Y-105130000D01*
X119330533Y-105130000D01*
X119347440Y-105045000D01*
X119347440Y-104445000D01*
X119298157Y-104197235D01*
X119157809Y-103987191D01*
X118947765Y-103846843D01*
X118700000Y-103797560D01*
X116700000Y-103797560D01*
X116452235Y-103846843D01*
X116242191Y-103987191D01*
X116101843Y-104197235D01*
X116052560Y-104445000D01*
X116052560Y-105045000D01*
X116101843Y-105292765D01*
X116160132Y-105380000D01*
X116101843Y-105467235D01*
X116052560Y-105715000D01*
X116052560Y-106315000D01*
X116101843Y-106562765D01*
X116160132Y-106650000D01*
X116101843Y-106737235D01*
X116052560Y-106985000D01*
X116052560Y-107585000D01*
X116101843Y-107832765D01*
X116160132Y-107920000D01*
X116101843Y-108007235D01*
X116052560Y-108255000D01*
X116052560Y-108855000D01*
X116101843Y-109102765D01*
X116154768Y-109181972D01*
X116065000Y-109398690D01*
X116065000Y-109539250D01*
X116223750Y-109698000D01*
X117573000Y-109698000D01*
X117573000Y-109678000D01*
X117827000Y-109678000D01*
X117827000Y-109698000D01*
X119176250Y-109698000D01*
X119335000Y-109539250D01*
X119335000Y-109440000D01*
X123717839Y-109440000D01*
X123805000Y-109457337D01*
X123892161Y-109440000D01*
X123892165Y-109440000D01*
X124150310Y-109388652D01*
X124290469Y-109295000D01*
X124305874Y-109295000D01*
X124686280Y-109137431D01*
X124977431Y-108846280D01*
X125135000Y-108465874D01*
X125135000Y-108054126D01*
X124977431Y-107673720D01*
X124785885Y-107482174D01*
X126055222Y-106212837D01*
X126417354Y-106062838D01*
X126708505Y-105771687D01*
X126866074Y-105391281D01*
X126866074Y-104979533D01*
X126708505Y-104599127D01*
X126417354Y-104307976D01*
X126036948Y-104150407D01*
X125885000Y-104150407D01*
X125885000Y-102568007D01*
X126035000Y-102205874D01*
X126035000Y-101794126D01*
X125877431Y-101413720D01*
X125586280Y-101122569D01*
X125205874Y-100965000D01*
X124895157Y-100965000D01*
X126830411Y-99029747D01*
X126895953Y-98985953D01*
X126939747Y-98920411D01*
X126939749Y-98920409D01*
X127069454Y-98726292D01*
X127079397Y-98676303D01*
X127115000Y-98497316D01*
X127115000Y-98497312D01*
X127130378Y-98420000D01*
X127115945Y-98347440D01*
X128300000Y-98347440D01*
X128547765Y-98298157D01*
X128757809Y-98157809D01*
X128898157Y-97947765D01*
X128947440Y-97700000D01*
X128947440Y-94300000D01*
X128898157Y-94052235D01*
X128757809Y-93842191D01*
X128562500Y-93711689D01*
X128562500Y-92913368D01*
X129315001Y-93665869D01*
X129315000Y-102352082D01*
X129298643Y-102434315D01*
X129315000Y-102516548D01*
X129315000Y-102516551D01*
X129363448Y-102760115D01*
X129547999Y-103036316D01*
X129617719Y-103082902D01*
X129727662Y-103192845D01*
X129665000Y-103344126D01*
X129665000Y-103755874D01*
X129822569Y-104136280D01*
X130113720Y-104427431D01*
X130494126Y-104585000D01*
X130905874Y-104585000D01*
X131286280Y-104427431D01*
X131577431Y-104136280D01*
X131735000Y-103755874D01*
X131735000Y-103344126D01*
X131577431Y-102963720D01*
X131539769Y-102926058D01*
X131535000Y-102902081D01*
X131535000Y-102902078D01*
X131486552Y-102658514D01*
X131438287Y-102586280D01*
X131348584Y-102452030D01*
X131348583Y-102452029D01*
X131302001Y-102382314D01*
X131232285Y-102335731D01*
X130985000Y-102088447D01*
X130985000Y-93402232D01*
X131001357Y-93319999D01*
X130985000Y-93237766D01*
X130985000Y-93237763D01*
X130936552Y-92994199D01*
X130752001Y-92717999D01*
X130682283Y-92671415D01*
X128587787Y-90576920D01*
X128737340Y-90514973D01*
X128829771Y-90422542D01*
X131087538Y-90422542D01*
X130975000Y-90694234D01*
X130975000Y-91145766D01*
X131147793Y-91562926D01*
X131467074Y-91882207D01*
X131884234Y-92055000D01*
X132335766Y-92055000D01*
X132752926Y-91882207D01*
X133072207Y-91562926D01*
X133245000Y-91145766D01*
X133245000Y-90694234D01*
X133072207Y-90277074D01*
X132752926Y-89957793D01*
X132335766Y-89785000D01*
X132232657Y-89785000D01*
X133712717Y-88304940D01*
X134750000Y-88304940D01*
X134997765Y-88255657D01*
X135207809Y-88115309D01*
X135348157Y-87905265D01*
X135397440Y-87657500D01*
X135397440Y-86512500D01*
X135348157Y-86264735D01*
X135207809Y-86054691D01*
X135189564Y-86042500D01*
X135207809Y-86030309D01*
X135271493Y-85935000D01*
X135849358Y-85935000D01*
X135861843Y-85997765D01*
X135963564Y-86150000D01*
X135861843Y-86302235D01*
X135812560Y-86550000D01*
X135812560Y-88050000D01*
X135861843Y-88297765D01*
X136002191Y-88507809D01*
X136212235Y-88648157D01*
X136460000Y-88697440D01*
X136516119Y-88697440D01*
X136579250Y-89014818D01*
X136785903Y-89324097D01*
X136863972Y-89376261D01*
X137272711Y-89785000D01*
X136964234Y-89785000D01*
X136547074Y-89957793D01*
X136227793Y-90277074D01*
X136055000Y-90694234D01*
X136055000Y-91145766D01*
X136103845Y-91263688D01*
X135785000Y-90944843D01*
X135785000Y-90694234D01*
X135612207Y-90277074D01*
X135292926Y-89957793D01*
X134875766Y-89785000D01*
X134424234Y-89785000D01*
X134007074Y-89957793D01*
X133687793Y-90277074D01*
X133515000Y-90694234D01*
X133515000Y-91145766D01*
X133687793Y-91562926D01*
X134007074Y-91882207D01*
X134424234Y-92055000D01*
X134674843Y-92055000D01*
X135015000Y-92395157D01*
X135015000Y-93950232D01*
X134942809Y-93842191D01*
X134732765Y-93701843D01*
X134485000Y-93652560D01*
X133140000Y-93652560D01*
X132892235Y-93701843D01*
X132682191Y-93842191D01*
X132541843Y-94052235D01*
X132492560Y-94300000D01*
X132492560Y-97025150D01*
X131633970Y-97883741D01*
X131555904Y-97935903D01*
X131503742Y-98013969D01*
X131503741Y-98013970D01*
X131349250Y-98245182D01*
X131276683Y-98610000D01*
X131295001Y-98702090D01*
X131295000Y-100409867D01*
X131267793Y-100437074D01*
X131095000Y-100854234D01*
X131095000Y-101305766D01*
X131267793Y-101722926D01*
X131587074Y-102042207D01*
X132004234Y-102215000D01*
X132455766Y-102215000D01*
X132872926Y-102042207D01*
X133192207Y-101722926D01*
X133365000Y-101305766D01*
X133365000Y-100854234D01*
X133192207Y-100437074D01*
X133165000Y-100409867D01*
X133165000Y-98997289D01*
X133814850Y-98347440D01*
X134485000Y-98347440D01*
X134732765Y-98298157D01*
X134942809Y-98157809D01*
X135015000Y-98049768D01*
X135015001Y-100002673D01*
X134875766Y-99945000D01*
X134424234Y-99945000D01*
X134007074Y-100117793D01*
X133687793Y-100437074D01*
X133515000Y-100854234D01*
X133515000Y-101305766D01*
X133687793Y-101722926D01*
X133865000Y-101900133D01*
X133865001Y-105191286D01*
X133702567Y-105353720D01*
X133544998Y-105734126D01*
X133544998Y-106145874D01*
X133702567Y-106526280D01*
X133993718Y-106817431D01*
X134374124Y-106975000D01*
X134785872Y-106975000D01*
X135166278Y-106817431D01*
X135457429Y-106526280D01*
X135467294Y-106502464D01*
X135594126Y-106555000D01*
X135640528Y-106555000D01*
X134023723Y-108171805D01*
X133765874Y-108065000D01*
X133354126Y-108065000D01*
X132973720Y-108222569D01*
X132682569Y-108513720D01*
X132525000Y-108894126D01*
X132525000Y-109305874D01*
X132682569Y-109686280D01*
X132973720Y-109977431D01*
X133354126Y-110135000D01*
X133765874Y-110135000D01*
X134146280Y-109977431D01*
X134227715Y-109895996D01*
X134282997Y-109885000D01*
X134283001Y-109885000D01*
X134511977Y-109839454D01*
X134771638Y-109665953D01*
X134815434Y-109600408D01*
X137541066Y-106874777D01*
X137637711Y-106971422D01*
X133079133Y-111530000D01*
X127144885Y-111530000D01*
X127275000Y-111215874D01*
X127275000Y-110804126D01*
X127117431Y-110423720D01*
X126826280Y-110132569D01*
X126445874Y-109975000D01*
X126034126Y-109975000D01*
X125653720Y-110132569D01*
X125621289Y-110165000D01*
X125417115Y-110165000D01*
X125247765Y-110051843D01*
X125000000Y-110002560D01*
X124400000Y-110002560D01*
X124152235Y-110051843D01*
X124000000Y-110153564D01*
X123847765Y-110051843D01*
X123600000Y-110002560D01*
X123000000Y-110002560D01*
X122752235Y-110051843D01*
X122542191Y-110192191D01*
X122496882Y-110260000D01*
X119331400Y-110260000D01*
X119335000Y-110251310D01*
X119335000Y-110110750D01*
X119176250Y-109952000D01*
X117827000Y-109952000D01*
X117827000Y-109972000D01*
X117573000Y-109972000D01*
X117573000Y-109952000D01*
X116223750Y-109952000D01*
X116065000Y-110110750D01*
X116065000Y-110251310D01*
X116068600Y-110260000D01*
X115987232Y-110260000D01*
X115904999Y-110243643D01*
X115822766Y-110260000D01*
X115822763Y-110260000D01*
X115579199Y-110308448D01*
X115430844Y-110407576D01*
X115302999Y-110492999D01*
X115256416Y-110562715D01*
X114467718Y-111351415D01*
X114398000Y-111397999D01*
X114351416Y-111467717D01*
X114213448Y-111674200D01*
X114148643Y-112000000D01*
X114165001Y-112082238D01*
X114165000Y-118371289D01*
X114122569Y-118413720D01*
X113965000Y-118794126D01*
X113965000Y-119205874D01*
X114122569Y-119586280D01*
X114242711Y-119706422D01*
X112847718Y-121101415D01*
X112778000Y-121147999D01*
X112731416Y-121217717D01*
X112593448Y-121424200D01*
X112528643Y-121750000D01*
X112545001Y-121832238D01*
X112545000Y-127502560D01*
X112530000Y-127502560D01*
X112282235Y-127551843D01*
X112072191Y-127692191D01*
X111955000Y-127867578D01*
X111955000Y-122322232D01*
X111971357Y-122239999D01*
X111955000Y-122157766D01*
X111955000Y-122157763D01*
X111906552Y-121914199D01*
X111844247Y-121820953D01*
X111768584Y-121707715D01*
X111768583Y-121707714D01*
X111722001Y-121637999D01*
X111652285Y-121591416D01*
X111015678Y-120954811D01*
X111354126Y-121095000D01*
X111765874Y-121095000D01*
X112146280Y-120937431D01*
X112437431Y-120646280D01*
X112595000Y-120265874D01*
X112595000Y-119854126D01*
X112437431Y-119473720D01*
X112293711Y-119330000D01*
X112297431Y-119326280D01*
X112455000Y-118945874D01*
X112455000Y-118534126D01*
X112297431Y-118153720D01*
X112006280Y-117862569D01*
X111625874Y-117705000D01*
X111214126Y-117705000D01*
X110833720Y-117862569D01*
X110816289Y-117880000D01*
X109920587Y-117880000D01*
X109947440Y-117745000D01*
X109947440Y-117145000D01*
X109925560Y-117035000D01*
X110230989Y-117035000D01*
X110424126Y-117115000D01*
X110835874Y-117115000D01*
X111216280Y-116957431D01*
X111507431Y-116666280D01*
X111665000Y-116285874D01*
X111665000Y-115874126D01*
X111507431Y-115493720D01*
X111216280Y-115202569D01*
X110835874Y-115045000D01*
X110424126Y-115045000D01*
X110043720Y-115202569D01*
X109981289Y-115265000D01*
X109935505Y-115265000D01*
X109947440Y-115205000D01*
X109947440Y-114605000D01*
X109898157Y-114357235D01*
X109839868Y-114270000D01*
X109898157Y-114182765D01*
X109947440Y-113935000D01*
X109947440Y-113335000D01*
X109898157Y-113087235D01*
X109845232Y-113008028D01*
X109935000Y-112791310D01*
X109935000Y-112650750D01*
X109776250Y-112492000D01*
X108427000Y-112492000D01*
X108427000Y-112512000D01*
X108173000Y-112512000D01*
X108173000Y-112492000D01*
X106823750Y-112492000D01*
X106665000Y-112650750D01*
X106665000Y-112665000D01*
X105658007Y-112665000D01*
X105295874Y-112515000D01*
X104884126Y-112515000D01*
X104503720Y-112672569D01*
X104212569Y-112963720D01*
X104055000Y-113344126D01*
X104055000Y-113755874D01*
X104148852Y-113982453D01*
X104003720Y-114042569D01*
X103712569Y-114333720D01*
X103555000Y-114714126D01*
X103555000Y-115125874D01*
X103712569Y-115506280D01*
X104003720Y-115797431D01*
X104384126Y-115955000D01*
X104795874Y-115955000D01*
X105158007Y-115805000D01*
X106666484Y-115805000D01*
X106652560Y-115875000D01*
X106652560Y-116334043D01*
X106485874Y-116265000D01*
X106074126Y-116265000D01*
X105693720Y-116422569D01*
X105402569Y-116713720D01*
X105245000Y-117094126D01*
X105245000Y-117505874D01*
X105402569Y-117886280D01*
X105693720Y-118177431D01*
X106074126Y-118335000D01*
X106485874Y-118335000D01*
X106559550Y-118304483D01*
X106670166Y-118326486D01*
X106652560Y-118415000D01*
X106652560Y-119015000D01*
X106701843Y-119262765D01*
X106760132Y-119350000D01*
X106701843Y-119437235D01*
X106652560Y-119685000D01*
X106652560Y-120285000D01*
X106688364Y-120465000D01*
X105822237Y-120465000D01*
X105740000Y-120448642D01*
X105657763Y-120465000D01*
X105414199Y-120513448D01*
X105137999Y-120697999D01*
X105091415Y-120767717D01*
X104477720Y-121381413D01*
X104407999Y-121427999D01*
X104223448Y-121704200D01*
X104175000Y-121947764D01*
X104175000Y-121947767D01*
X104158643Y-122030000D01*
X104175000Y-122112233D01*
X104175000Y-122820859D01*
X104157765Y-122809343D01*
X103910000Y-122760060D01*
X103310000Y-122760060D01*
X103062235Y-122809343D01*
X102856907Y-122946540D01*
X102734199Y-122970948D01*
X102457999Y-123155499D01*
X102411414Y-123225218D01*
X102057718Y-123578915D01*
X101988000Y-123625499D01*
X101941416Y-123695217D01*
X101803448Y-123901700D01*
X101738643Y-124227500D01*
X101755001Y-124309738D01*
X101755001Y-125016967D01*
X101592235Y-125049343D01*
X101382191Y-125189691D01*
X101241843Y-125399735D01*
X101192560Y-125647500D01*
X101192560Y-126792500D01*
X101241843Y-127040265D01*
X101382191Y-127250309D01*
X101400436Y-127262500D01*
X101382191Y-127274691D01*
X101241843Y-127484735D01*
X101192560Y-127732500D01*
X101192560Y-128433316D01*
X100954499Y-128093797D01*
X99693566Y-127567064D01*
X98327044Y-127562965D01*
X97062973Y-128082122D01*
X97045501Y-128093797D01*
X96727265Y-128547660D01*
X96127000Y-128547660D01*
X96127000Y-124370750D01*
X98555000Y-124370750D01*
X98555000Y-124783809D01*
X98651673Y-125017198D01*
X98830301Y-125195827D01*
X99063690Y-125292500D01*
X99654250Y-125292500D01*
X99813000Y-125133750D01*
X99813000Y-124212000D01*
X100067000Y-124212000D01*
X100067000Y-125133750D01*
X100225750Y-125292500D01*
X100816310Y-125292500D01*
X101049699Y-125195827D01*
X101228327Y-125017198D01*
X101325000Y-124783809D01*
X101325000Y-124370750D01*
X101166250Y-124212000D01*
X100067000Y-124212000D01*
X99813000Y-124212000D01*
X98713750Y-124212000D01*
X98555000Y-124370750D01*
X96127000Y-124370750D01*
X96127000Y-101258691D01*
X98615000Y-101258691D01*
X98615000Y-101671750D01*
X98773750Y-101830500D01*
X99873000Y-101830500D01*
X99873000Y-100908750D01*
X100127000Y-100908750D01*
X100127000Y-101830500D01*
X101226250Y-101830500D01*
X101385000Y-101671750D01*
X101385000Y-101258691D01*
X101288327Y-101025302D01*
X101109699Y-100846673D01*
X100876310Y-100750000D01*
X100285750Y-100750000D01*
X100127000Y-100908750D01*
X99873000Y-100908750D01*
X99714250Y-100750000D01*
X99123690Y-100750000D01*
X98890301Y-100846673D01*
X98711673Y-101025302D01*
X98615000Y-101258691D01*
X96127000Y-101258691D01*
X96127000Y-81713690D01*
X122065000Y-81713690D01*
X122065000Y-82304250D01*
X122223750Y-82463000D01*
X123573000Y-82463000D01*
X123573000Y-81363750D01*
X123827000Y-81363750D01*
X123827000Y-82463000D01*
X125176250Y-82463000D01*
X125335000Y-82304250D01*
X125335000Y-81823690D01*
X135825000Y-81823690D01*
X135825000Y-82414250D01*
X135983750Y-82573000D01*
X137333000Y-82573000D01*
X137333000Y-81473750D01*
X137587000Y-81473750D01*
X137587000Y-82573000D01*
X138936250Y-82573000D01*
X139095000Y-82414250D01*
X139095000Y-81823690D01*
X150215000Y-81823690D01*
X150215000Y-82414250D01*
X150373750Y-82573000D01*
X151723000Y-82573000D01*
X151723000Y-81473750D01*
X151977000Y-81473750D01*
X151977000Y-82573000D01*
X153326250Y-82573000D01*
X153485000Y-82414250D01*
X153485000Y-81823690D01*
X153388327Y-81590301D01*
X153209698Y-81411673D01*
X152976309Y-81315000D01*
X152135750Y-81315000D01*
X151977000Y-81473750D01*
X151723000Y-81473750D01*
X151564250Y-81315000D01*
X150723691Y-81315000D01*
X150490302Y-81411673D01*
X150311673Y-81590301D01*
X150215000Y-81823690D01*
X139095000Y-81823690D01*
X138998327Y-81590301D01*
X138819698Y-81411673D01*
X138586309Y-81315000D01*
X137745750Y-81315000D01*
X137587000Y-81473750D01*
X137333000Y-81473750D01*
X137174250Y-81315000D01*
X136333691Y-81315000D01*
X136100302Y-81411673D01*
X135921673Y-81590301D01*
X135825000Y-81823690D01*
X125335000Y-81823690D01*
X125335000Y-81713690D01*
X125238327Y-81480301D01*
X125059698Y-81301673D01*
X124826309Y-81205000D01*
X123985750Y-81205000D01*
X123827000Y-81363750D01*
X123573000Y-81363750D01*
X123414250Y-81205000D01*
X122573691Y-81205000D01*
X122340302Y-81301673D01*
X122161673Y-81480301D01*
X122065000Y-81713690D01*
X96127000Y-81713690D01*
X96127000Y-81127000D01*
X157873000Y-81127000D01*
X157873000Y-82452560D01*
X157873000Y-82452560D01*
G37*
X157873000Y-82452560D02*
X157150000Y-82452560D01*
X156902235Y-82501843D01*
X156692191Y-82642191D01*
X156551843Y-82852235D01*
X156502560Y-83100000D01*
X156502560Y-86900000D01*
X156551843Y-87147765D01*
X156692191Y-87357809D01*
X156902235Y-87498157D01*
X157150000Y-87547440D01*
X157873000Y-87547440D01*
X157873000Y-107926447D01*
X157616534Y-107669981D01*
X157416534Y-107187138D01*
X157012862Y-106783466D01*
X156485439Y-106565000D01*
X155914561Y-106565000D01*
X155387138Y-106783466D01*
X154983466Y-107187138D01*
X154765000Y-107714561D01*
X154765000Y-108285439D01*
X154983466Y-108812862D01*
X155387138Y-109216534D01*
X155869981Y-109416534D01*
X157250715Y-110797269D01*
X157319615Y-110900385D01*
X157422731Y-110969285D01*
X157422732Y-110969286D01*
X157513258Y-111029773D01*
X157728127Y-111173344D01*
X157873000Y-111202161D01*
X157873000Y-111865000D01*
X156473050Y-111865000D01*
X156457809Y-111842191D01*
X156247765Y-111701843D01*
X156000000Y-111652560D01*
X154400000Y-111652560D01*
X154152235Y-111701843D01*
X153942191Y-111842191D01*
X153926950Y-111865000D01*
X146473050Y-111865000D01*
X146457809Y-111842191D01*
X146247765Y-111701843D01*
X146000000Y-111652560D01*
X144400000Y-111652560D01*
X144152235Y-111701843D01*
X143942191Y-111842191D01*
X143801843Y-112052235D01*
X143752560Y-112300000D01*
X143752560Y-113900000D01*
X143801843Y-114147765D01*
X143942191Y-114357809D01*
X144152235Y-114498157D01*
X144400000Y-114547440D01*
X146000000Y-114547440D01*
X146247765Y-114498157D01*
X146457809Y-114357809D01*
X146473050Y-114335000D01*
X153926950Y-114335000D01*
X153942191Y-114357809D01*
X154152235Y-114498157D01*
X154400000Y-114547440D01*
X156000000Y-114547440D01*
X156247765Y-114498157D01*
X156457809Y-114357809D01*
X156473050Y-114335000D01*
X157873000Y-114335000D01*
X157873000Y-115365000D01*
X155968281Y-115365000D01*
X155485439Y-115165000D01*
X154914561Y-115165000D01*
X154431719Y-115365000D01*
X145968281Y-115365000D01*
X145485439Y-115165000D01*
X144914561Y-115165000D01*
X144387138Y-115383466D01*
X143983466Y-115787138D01*
X143765000Y-116314561D01*
X143765000Y-116885439D01*
X143983466Y-117412862D01*
X144387138Y-117816534D01*
X144914561Y-118035000D01*
X145485439Y-118035000D01*
X145968281Y-117835000D01*
X154431719Y-117835000D01*
X154914561Y-118035000D01*
X155485439Y-118035000D01*
X155968281Y-117835000D01*
X157873000Y-117835000D01*
X157873000Y-133873000D01*
X100977780Y-133873000D01*
X101272735Y-133452340D01*
X99000000Y-131179605D01*
X96727265Y-133452340D01*
X97022220Y-133873000D01*
X96127000Y-133873000D01*
X96127000Y-132977780D01*
X96547660Y-133272735D01*
X98820395Y-131000000D01*
X96547660Y-128727265D01*
X96127000Y-129022220D01*
X96127000Y-128547660D01*
X96727265Y-128547660D01*
X99000000Y-130820395D01*
X99014143Y-130806253D01*
X99193748Y-130985858D01*
X99179605Y-131000000D01*
X101452340Y-133272735D01*
X101906203Y-132954499D01*
X102432936Y-131693566D01*
X102437035Y-130327044D01*
X102107609Y-129524940D01*
X102629073Y-129524940D01*
X103326415Y-130222282D01*
X103372999Y-130292001D01*
X103596704Y-130441476D01*
X103649199Y-130476552D01*
X103975000Y-130541358D01*
X104035594Y-130529305D01*
X104073720Y-130567431D01*
X104454126Y-130725000D01*
X104865874Y-130725000D01*
X105246280Y-130567431D01*
X105537431Y-130276280D01*
X105695000Y-129895874D01*
X105695000Y-129484126D01*
X105537431Y-129103720D01*
X105246280Y-128812569D01*
X104865874Y-128655000D01*
X104454126Y-128655000D01*
X104218477Y-128752609D01*
X104036748Y-128570880D01*
X104120000Y-128587440D01*
X106720000Y-128587440D01*
X106967765Y-128538157D01*
X107177809Y-128397809D01*
X107218654Y-128336680D01*
X107360302Y-128478327D01*
X107593691Y-128575000D01*
X108734250Y-128575000D01*
X108893000Y-128416250D01*
X108893000Y-127267000D01*
X108873000Y-127267000D01*
X108873000Y-127013000D01*
X108893000Y-127013000D01*
X108893000Y-125863750D01*
X108734250Y-125705000D01*
X107593691Y-125705000D01*
X107360302Y-125801673D01*
X107218654Y-125943320D01*
X107177809Y-125882191D01*
X106967765Y-125741843D01*
X106720000Y-125692560D01*
X104120000Y-125692560D01*
X103987440Y-125718928D01*
X103987440Y-125647500D01*
X103938157Y-125399735D01*
X103797809Y-125189691D01*
X103587765Y-125049343D01*
X103425000Y-125016967D01*
X103425000Y-124754940D01*
X103910000Y-124754940D01*
X104157765Y-124705657D01*
X104310000Y-124603936D01*
X104462235Y-124705657D01*
X104710000Y-124754940D01*
X105310000Y-124754940D01*
X105557765Y-124705657D01*
X105767809Y-124565309D01*
X105908157Y-124355265D01*
X105957440Y-124107500D01*
X105957440Y-123407500D01*
X105908157Y-123159735D01*
X105845000Y-123065215D01*
X105845000Y-122375867D01*
X106085868Y-122135000D01*
X107025061Y-122135000D01*
X107052235Y-122153157D01*
X107300000Y-122202440D01*
X109300000Y-122202440D01*
X109547765Y-122153157D01*
X109642285Y-122090000D01*
X109789132Y-122090000D01*
X110285001Y-122585869D01*
X110285001Y-125705000D01*
X109305750Y-125705000D01*
X109147000Y-125863750D01*
X109147000Y-127013000D01*
X109167000Y-127013000D01*
X109167000Y-127267000D01*
X109147000Y-127267000D01*
X109147000Y-128416250D01*
X109305750Y-128575000D01*
X110285000Y-128575000D01*
X110285000Y-129437767D01*
X110268643Y-129520000D01*
X110285000Y-129602233D01*
X110285000Y-129602236D01*
X110333448Y-129845800D01*
X110517999Y-130122001D01*
X110587720Y-130168587D01*
X111841415Y-131422282D01*
X111887999Y-131492001D01*
X112164199Y-131676552D01*
X112407763Y-131725000D01*
X112490000Y-131741358D01*
X112572237Y-131725000D01*
X121567767Y-131725000D01*
X121650000Y-131741357D01*
X121732233Y-131725000D01*
X121732237Y-131725000D01*
X121975801Y-131676552D01*
X122252001Y-131492001D01*
X122298587Y-131422280D01*
X123262061Y-130458807D01*
X123393744Y-130485000D01*
X123686256Y-130485000D01*
X124119418Y-130398839D01*
X124610625Y-130070625D01*
X124938839Y-129579418D01*
X125054092Y-129000000D01*
X124938839Y-128420582D01*
X124610625Y-127929375D01*
X124119418Y-127601161D01*
X123686256Y-127515000D01*
X123393744Y-127515000D01*
X122960582Y-127601161D01*
X122469375Y-127929375D01*
X122270000Y-128227761D01*
X122070625Y-127929375D01*
X121579418Y-127601161D01*
X121146256Y-127515000D01*
X120853744Y-127515000D01*
X120420582Y-127601161D01*
X119929375Y-127929375D01*
X119716157Y-128248478D01*
X119655183Y-128118642D01*
X119226924Y-127728355D01*
X118816890Y-127558524D01*
X118587000Y-127679845D01*
X118587000Y-128873000D01*
X118607000Y-128873000D01*
X118607000Y-129127000D01*
X118587000Y-129127000D01*
X118587000Y-129147000D01*
X118333000Y-129147000D01*
X118333000Y-129127000D01*
X118313000Y-129127000D01*
X118313000Y-128873000D01*
X118333000Y-128873000D01*
X118333000Y-127679845D01*
X118103110Y-127558524D01*
X117693076Y-127728355D01*
X117264817Y-128118642D01*
X117203843Y-128248478D01*
X116990625Y-127929375D01*
X116705000Y-127738526D01*
X116705000Y-126834126D01*
X136865000Y-126834126D01*
X136865000Y-127245874D01*
X137022569Y-127626280D01*
X137313720Y-127917431D01*
X137694126Y-128075000D01*
X138105874Y-128075000D01*
X138486280Y-127917431D01*
X138528711Y-127875000D01*
X142317767Y-127875000D01*
X142400000Y-127891357D01*
X142482233Y-127875000D01*
X142482237Y-127875000D01*
X142725801Y-127826552D01*
X143002001Y-127642001D01*
X143048587Y-127572280D01*
X144005868Y-126615000D01*
X147091289Y-126615000D01*
X147133720Y-126657431D01*
X147514126Y-126815000D01*
X147925874Y-126815000D01*
X148306280Y-126657431D01*
X148597431Y-126366280D01*
X148755000Y-125985874D01*
X148755000Y-125574126D01*
X148597431Y-125193720D01*
X148306280Y-124902569D01*
X147925874Y-124745000D01*
X147514126Y-124745000D01*
X147133720Y-124902569D01*
X147091289Y-124945000D01*
X143742232Y-124945000D01*
X143659999Y-124928643D01*
X143577766Y-124945000D01*
X143577763Y-124945000D01*
X143334199Y-124993448D01*
X143057999Y-125177999D01*
X143011415Y-125247718D01*
X142054133Y-126205000D01*
X138528711Y-126205000D01*
X138486280Y-126162569D01*
X138105874Y-126005000D01*
X137694126Y-126005000D01*
X137313720Y-126162569D01*
X137022569Y-126453720D01*
X136865000Y-126834126D01*
X116705000Y-126834126D01*
X116705000Y-123285750D01*
X122305000Y-123285750D01*
X122305000Y-123976310D01*
X122401673Y-124209699D01*
X122580302Y-124388327D01*
X122813691Y-124485000D01*
X123504250Y-124485000D01*
X123663000Y-124326250D01*
X123663000Y-123127000D01*
X122463750Y-123127000D01*
X122305000Y-123285750D01*
X116705000Y-123285750D01*
X116705000Y-122202440D01*
X118700000Y-122202440D01*
X118947765Y-122153157D01*
X119117115Y-122040000D01*
X122305000Y-122040000D01*
X122305000Y-122714250D01*
X122463750Y-122873000D01*
X123663000Y-122873000D01*
X123663000Y-122853000D01*
X123917000Y-122853000D01*
X123917000Y-122873000D01*
X123937000Y-122873000D01*
X123937000Y-123127000D01*
X123917000Y-123127000D01*
X123917000Y-124326250D01*
X124075750Y-124485000D01*
X124766309Y-124485000D01*
X124999698Y-124388327D01*
X125178327Y-124209699D01*
X125244904Y-124048968D01*
X125259375Y-124070625D01*
X125750582Y-124398839D01*
X126183744Y-124485000D01*
X126476256Y-124485000D01*
X126909418Y-124398839D01*
X127400625Y-124070625D01*
X127728839Y-123579418D01*
X127787252Y-123285750D01*
X129696209Y-123285750D01*
X129696209Y-123976310D01*
X129792882Y-124209699D01*
X129971511Y-124388327D01*
X130204900Y-124485000D01*
X130895459Y-124485000D01*
X131054209Y-124326250D01*
X131054209Y-123127000D01*
X129854959Y-123127000D01*
X129696209Y-123285750D01*
X127787252Y-123285750D01*
X127844092Y-123000000D01*
X127728839Y-122420582D01*
X127474542Y-122040000D01*
X129696209Y-122040000D01*
X129696209Y-122714250D01*
X129854959Y-122873000D01*
X131054209Y-122873000D01*
X131054209Y-122853000D01*
X131308209Y-122853000D01*
X131308209Y-122873000D01*
X131328209Y-122873000D01*
X131328209Y-123127000D01*
X131308209Y-123127000D01*
X131308209Y-124326250D01*
X131466959Y-124485000D01*
X132157518Y-124485000D01*
X132390907Y-124388327D01*
X132569536Y-124209699D01*
X132636113Y-124048968D01*
X132650584Y-124070625D01*
X133141791Y-124398839D01*
X133574953Y-124485000D01*
X133867465Y-124485000D01*
X134300627Y-124398839D01*
X134791834Y-124070625D01*
X135120048Y-123579418D01*
X135235301Y-123000000D01*
X135120048Y-122420582D01*
X134865751Y-122040000D01*
X136037688Y-122040000D01*
X136115000Y-122055378D01*
X136192312Y-122040000D01*
X136192316Y-122040000D01*
X136421292Y-121994454D01*
X136680953Y-121820953D01*
X136724749Y-121755408D01*
X137095157Y-121385000D01*
X137225874Y-121385000D01*
X137606280Y-121227431D01*
X137897431Y-120936280D01*
X138055000Y-120555874D01*
X138055000Y-120144126D01*
X137897431Y-119763720D01*
X137606280Y-119472569D01*
X137225874Y-119315000D01*
X137095158Y-119315000D01*
X137400411Y-119009747D01*
X137465953Y-118965953D01*
X137509747Y-118900411D01*
X137509749Y-118900409D01*
X137580765Y-118794126D01*
X137639454Y-118706292D01*
X137685000Y-118477316D01*
X137685000Y-118477312D01*
X137700378Y-118400001D01*
X137685000Y-118322690D01*
X137685000Y-116375157D01*
X141150411Y-112909747D01*
X141215953Y-112865953D01*
X141259747Y-112800411D01*
X141259749Y-112800409D01*
X141389454Y-112606292D01*
X141400576Y-112550379D01*
X141435000Y-112377316D01*
X141435000Y-112377312D01*
X141450378Y-112300000D01*
X141435000Y-112222688D01*
X141435000Y-110375157D01*
X149095596Y-102714561D01*
X154765000Y-102714561D01*
X154765000Y-103285439D01*
X154983466Y-103812862D01*
X155387138Y-104216534D01*
X155914561Y-104435000D01*
X156485439Y-104435000D01*
X157012862Y-104216534D01*
X157416534Y-103812862D01*
X157635000Y-103285439D01*
X157635000Y-102714561D01*
X157416534Y-102187138D01*
X157012862Y-101783466D01*
X156485439Y-101565000D01*
X155914561Y-101565000D01*
X155387138Y-101783466D01*
X154983466Y-102187138D01*
X154765000Y-102714561D01*
X149095596Y-102714561D01*
X149615389Y-102194768D01*
X149664234Y-102215000D01*
X150115766Y-102215000D01*
X150532926Y-102042207D01*
X150852207Y-101722926D01*
X151025000Y-101305766D01*
X151025000Y-100854234D01*
X150852207Y-100437074D01*
X150532926Y-100117793D01*
X150115766Y-99945000D01*
X149807290Y-99945000D01*
X150167290Y-99585000D01*
X152137914Y-99585000D01*
X152230000Y-99603317D01*
X152322086Y-99585000D01*
X152594819Y-99530750D01*
X152904097Y-99324097D01*
X152956261Y-99246028D01*
X153688531Y-98513759D01*
X153766597Y-98461597D01*
X153854811Y-98329576D01*
X154012765Y-98298157D01*
X154222809Y-98157809D01*
X154363157Y-97947765D01*
X154412440Y-97700000D01*
X154412440Y-94300000D01*
X154363157Y-94052235D01*
X154222809Y-93842191D01*
X154012765Y-93701843D01*
X153765000Y-93652560D01*
X152420000Y-93652560D01*
X152172235Y-93701843D01*
X151962191Y-93842191D01*
X151821843Y-94052235D01*
X151772560Y-94300000D01*
X151772560Y-97700000D01*
X151775544Y-97715000D01*
X149872086Y-97715000D01*
X149780000Y-97696683D01*
X149687914Y-97715000D01*
X149415181Y-97769250D01*
X149105903Y-97975903D01*
X149053741Y-98053969D01*
X147162711Y-99945000D01*
X147124234Y-99945000D01*
X146707074Y-100117793D01*
X146387793Y-100437074D01*
X146215000Y-100854234D01*
X146215000Y-101305766D01*
X146387793Y-101722926D01*
X146707074Y-102042207D01*
X147124234Y-102215000D01*
X147374843Y-102215000D01*
X145595000Y-103994843D01*
X145595000Y-101900133D01*
X145772207Y-101722926D01*
X145945000Y-101305766D01*
X145945000Y-100854234D01*
X145772207Y-100437074D01*
X145452926Y-100117793D01*
X145035766Y-99945000D01*
X144955158Y-99945000D01*
X145310411Y-99589747D01*
X145375953Y-99545953D01*
X145419747Y-99480411D01*
X145419749Y-99480409D01*
X145549454Y-99286292D01*
X145572508Y-99170389D01*
X145595000Y-99057316D01*
X145595000Y-99057312D01*
X145610378Y-98980000D01*
X145595000Y-98902688D01*
X145595000Y-97737404D01*
X145636843Y-97947765D01*
X145777191Y-98157809D01*
X145987235Y-98298157D01*
X146235000Y-98347440D01*
X147580000Y-98347440D01*
X147827765Y-98298157D01*
X148037809Y-98157809D01*
X148178157Y-97947765D01*
X148227440Y-97700000D01*
X148227440Y-96943881D01*
X148272086Y-96935000D01*
X148544819Y-96880750D01*
X148854097Y-96674097D01*
X148906261Y-96596028D01*
X152446031Y-93056259D01*
X152524097Y-93004097D01*
X152730750Y-92694819D01*
X152785000Y-92422086D01*
X152785000Y-92422085D01*
X152803317Y-92330000D01*
X152785000Y-92237914D01*
X152785000Y-88697440D01*
X152850000Y-88697440D01*
X153097765Y-88648157D01*
X153307809Y-88507809D01*
X153448157Y-88297765D01*
X153497440Y-88050000D01*
X153497440Y-86550000D01*
X153448157Y-86302235D01*
X153346436Y-86150000D01*
X153448157Y-85997765D01*
X153497440Y-85750000D01*
X153497440Y-84250000D01*
X153448157Y-84002235D01*
X153347073Y-83850953D01*
X153388327Y-83809699D01*
X153485000Y-83576310D01*
X153485000Y-82985750D01*
X153326250Y-82827000D01*
X151977000Y-82827000D01*
X151977000Y-82847000D01*
X151723000Y-82847000D01*
X151723000Y-82827000D01*
X150373750Y-82827000D01*
X150215000Y-82985750D01*
X150215000Y-83576310D01*
X150311673Y-83809699D01*
X150352927Y-83850953D01*
X150251843Y-84002235D01*
X150247812Y-84022500D01*
X149271493Y-84022500D01*
X149207809Y-83927191D01*
X148997765Y-83786843D01*
X148750000Y-83737560D01*
X147250000Y-83737560D01*
X147002235Y-83786843D01*
X146792191Y-83927191D01*
X146651843Y-84137235D01*
X146602560Y-84385000D01*
X146602560Y-85530000D01*
X146651843Y-85777765D01*
X146792191Y-85987809D01*
X146810436Y-86000000D01*
X146792191Y-86012191D01*
X146651843Y-86222235D01*
X146602560Y-86470000D01*
X146602560Y-87329782D01*
X146057343Y-87875000D01*
X146014126Y-87875000D01*
X145633720Y-88032569D01*
X145342569Y-88323720D01*
X145185000Y-88704126D01*
X145185000Y-89115874D01*
X145342569Y-89496280D01*
X145633720Y-89787431D01*
X146014126Y-89945000D01*
X146425874Y-89945000D01*
X146806280Y-89787431D01*
X147097431Y-89496280D01*
X147255000Y-89115874D01*
X147255000Y-88897657D01*
X147890218Y-88262440D01*
X148750000Y-88262440D01*
X148997765Y-88213157D01*
X149207809Y-88072809D01*
X149348157Y-87862765D01*
X149397440Y-87615000D01*
X149397440Y-86470000D01*
X149348157Y-86222235D01*
X149207809Y-86012191D01*
X149189564Y-86000000D01*
X149207809Y-85987809D01*
X149271493Y-85892500D01*
X150230905Y-85892500D01*
X150251843Y-85997765D01*
X150353564Y-86150000D01*
X150251843Y-86302235D01*
X150202560Y-86550000D01*
X150202560Y-88050000D01*
X150251843Y-88297765D01*
X150392191Y-88507809D01*
X150602235Y-88648157D01*
X150850000Y-88697440D01*
X150915000Y-88697440D01*
X150915000Y-88742085D01*
X150915001Y-88742090D01*
X150915001Y-90428671D01*
X150852207Y-90277074D01*
X150532926Y-89957793D01*
X150115766Y-89785000D01*
X149664234Y-89785000D01*
X149247074Y-89957793D01*
X148927793Y-90277074D01*
X148755000Y-90694234D01*
X148755000Y-91145766D01*
X148927793Y-91562926D01*
X149247074Y-91882207D01*
X149664234Y-92055000D01*
X150115766Y-92055000D01*
X150532926Y-91882207D01*
X150852207Y-91562926D01*
X150915000Y-91411329D01*
X150915000Y-91942710D01*
X148227440Y-94630271D01*
X148227440Y-94300000D01*
X148178157Y-94052235D01*
X148037809Y-93842191D01*
X147827765Y-93701843D01*
X147580000Y-93652560D01*
X146235000Y-93652560D01*
X145987235Y-93701843D01*
X145777191Y-93842191D01*
X145636843Y-94052235D01*
X145595000Y-94262596D01*
X145595000Y-91740133D01*
X145772207Y-91562926D01*
X145945000Y-91145766D01*
X145945000Y-90694234D01*
X146215000Y-90694234D01*
X146215000Y-91145766D01*
X146387793Y-91562926D01*
X146707074Y-91882207D01*
X147124234Y-92055000D01*
X147575766Y-92055000D01*
X147992926Y-91882207D01*
X148312207Y-91562926D01*
X148485000Y-91145766D01*
X148485000Y-90694234D01*
X148312207Y-90277074D01*
X147992926Y-89957793D01*
X147575766Y-89785000D01*
X147124234Y-89785000D01*
X146707074Y-89957793D01*
X146387793Y-90277074D01*
X146215000Y-90694234D01*
X145945000Y-90694234D01*
X145772207Y-90277074D01*
X145452926Y-89957793D01*
X145035766Y-89785000D01*
X144584234Y-89785000D01*
X144167074Y-89957793D01*
X143847793Y-90277074D01*
X143675000Y-90694234D01*
X143675000Y-91145766D01*
X143847793Y-91562926D01*
X144025001Y-91740134D01*
X144025001Y-93652560D01*
X142960000Y-93652560D01*
X142712235Y-93701843D01*
X142502191Y-93842191D01*
X142361843Y-94052235D01*
X142312560Y-94300000D01*
X142312560Y-97700000D01*
X142361843Y-97947765D01*
X142502191Y-98157809D01*
X142697500Y-98288311D01*
X142697500Y-98390210D01*
X141855000Y-99232711D01*
X141855000Y-92515867D01*
X142315868Y-92055000D01*
X142495766Y-92055000D01*
X142912926Y-91882207D01*
X143232207Y-91562926D01*
X143405000Y-91145766D01*
X143405000Y-90694234D01*
X143232207Y-90277074D01*
X142912926Y-89957793D01*
X142495766Y-89785000D01*
X142044234Y-89785000D01*
X141627074Y-89957793D01*
X141307793Y-90277074D01*
X141135000Y-90694234D01*
X141135000Y-90874132D01*
X140865000Y-91144132D01*
X140865000Y-90694234D01*
X140692207Y-90277074D01*
X140372926Y-89957793D01*
X139955766Y-89785000D01*
X139504234Y-89785000D01*
X139365000Y-89842673D01*
X139365000Y-89712085D01*
X139383317Y-89619999D01*
X139310750Y-89255181D01*
X139156259Y-89023969D01*
X139104097Y-88945903D01*
X139026031Y-88893741D01*
X138751334Y-88619045D01*
X138917809Y-88507809D01*
X139058157Y-88297765D01*
X139107440Y-88050000D01*
X139107440Y-86550000D01*
X139058157Y-86302235D01*
X138956436Y-86150000D01*
X139058157Y-85997765D01*
X139107440Y-85750000D01*
X139107440Y-84250000D01*
X139058157Y-84002235D01*
X138957073Y-83850953D01*
X138998327Y-83809699D01*
X139095000Y-83576310D01*
X139095000Y-83100000D01*
X142112560Y-83100000D01*
X142112560Y-86900000D01*
X142161843Y-87147765D01*
X142302191Y-87357809D01*
X142512235Y-87498157D01*
X142760000Y-87547440D01*
X144760000Y-87547440D01*
X145007765Y-87498157D01*
X145217809Y-87357809D01*
X145358157Y-87147765D01*
X145407440Y-86900000D01*
X145407440Y-83100000D01*
X145358157Y-82852235D01*
X145217809Y-82642191D01*
X145007765Y-82501843D01*
X144760000Y-82452560D01*
X142760000Y-82452560D01*
X142512235Y-82501843D01*
X142302191Y-82642191D01*
X142161843Y-82852235D01*
X142112560Y-83100000D01*
X139095000Y-83100000D01*
X139095000Y-82985750D01*
X138936250Y-82827000D01*
X137587000Y-82827000D01*
X137587000Y-82847000D01*
X137333000Y-82847000D01*
X137333000Y-82827000D01*
X135983750Y-82827000D01*
X135825000Y-82985750D01*
X135825000Y-83576310D01*
X135921673Y-83809699D01*
X135962927Y-83850953D01*
X135861843Y-84002235D01*
X135849358Y-84065000D01*
X135271493Y-84065000D01*
X135207809Y-83969691D01*
X134997765Y-83829343D01*
X134750000Y-83780060D01*
X133250000Y-83780060D01*
X133002235Y-83829343D01*
X132792191Y-83969691D01*
X132651843Y-84179735D01*
X132602560Y-84427500D01*
X132602560Y-85572500D01*
X132651843Y-85820265D01*
X132792191Y-86030309D01*
X132810436Y-86042500D01*
X132792191Y-86054691D01*
X132651843Y-86264735D01*
X132602560Y-86512500D01*
X132602560Y-87194783D01*
X130944801Y-88852542D01*
X128829771Y-88852542D01*
X128737340Y-88760111D01*
X128356934Y-88602542D01*
X127945186Y-88602542D01*
X127564780Y-88760111D01*
X127273629Y-89051262D01*
X127211682Y-89200815D01*
X126695000Y-88684133D01*
X126695000Y-87728711D01*
X126737431Y-87686280D01*
X126895000Y-87305874D01*
X126895000Y-86894126D01*
X126737431Y-86513720D01*
X126446280Y-86222569D01*
X126065874Y-86065000D01*
X125654126Y-86065000D01*
X125301871Y-86210908D01*
X125298157Y-86192235D01*
X125196436Y-86040000D01*
X125298157Y-85887765D01*
X125347440Y-85640000D01*
X125347440Y-84140000D01*
X125298157Y-83892235D01*
X125197073Y-83740953D01*
X125238327Y-83699699D01*
X125335000Y-83466310D01*
X125335000Y-82990000D01*
X128352560Y-82990000D01*
X128352560Y-86790000D01*
X128401843Y-87037765D01*
X128542191Y-87247809D01*
X128752235Y-87388157D01*
X129000000Y-87437440D01*
X131000000Y-87437440D01*
X131247765Y-87388157D01*
X131457809Y-87247809D01*
X131598157Y-87037765D01*
X131647440Y-86790000D01*
X131647440Y-82990000D01*
X131598157Y-82742235D01*
X131457809Y-82532191D01*
X131247765Y-82391843D01*
X131000000Y-82342560D01*
X129000000Y-82342560D01*
X128752235Y-82391843D01*
X128542191Y-82532191D01*
X128401843Y-82742235D01*
X128352560Y-82990000D01*
X125335000Y-82990000D01*
X125335000Y-82875750D01*
X125176250Y-82717000D01*
X123827000Y-82717000D01*
X123827000Y-82737000D01*
X123573000Y-82737000D01*
X123573000Y-82717000D01*
X122223750Y-82717000D01*
X122065000Y-82875750D01*
X122065000Y-83466310D01*
X122161673Y-83699699D01*
X122202927Y-83740953D01*
X122101843Y-83892235D01*
X122084386Y-83980000D01*
X121271493Y-83980000D01*
X121207809Y-83884691D01*
X120997765Y-83744343D01*
X120750000Y-83695060D01*
X119250000Y-83695060D01*
X119002235Y-83744343D01*
X118792191Y-83884691D01*
X118651843Y-84094735D01*
X118602560Y-84342500D01*
X118602560Y-85487500D01*
X118651843Y-85735265D01*
X118792191Y-85945309D01*
X118810436Y-85957500D01*
X118792191Y-85969691D01*
X118651843Y-86179735D01*
X118602560Y-86427500D01*
X118602560Y-87572500D01*
X118651843Y-87820265D01*
X118792191Y-88030309D01*
X119002235Y-88170657D01*
X119250000Y-88219940D01*
X120750000Y-88219940D01*
X120997765Y-88170657D01*
X121065344Y-88125501D01*
X124828881Y-91889038D01*
X124793710Y-91903606D01*
X124502559Y-92194757D01*
X124344990Y-92575163D01*
X124344990Y-92986911D01*
X124502559Y-93367317D01*
X124594991Y-93459749D01*
X124594990Y-98044852D01*
X122387845Y-100251998D01*
X122297431Y-100033720D01*
X122006280Y-99742569D01*
X121625874Y-99585000D01*
X121214126Y-99585000D01*
X120833720Y-99742569D01*
X120741289Y-99835000D01*
X115410924Y-99835000D01*
X115333613Y-99819622D01*
X115256302Y-99835000D01*
X115256298Y-99835000D01*
X115027322Y-99880546D01*
X114908239Y-99960115D01*
X114833205Y-100010251D01*
X114833203Y-100010253D01*
X114767661Y-100054047D01*
X114723867Y-100119589D01*
X109947440Y-104896017D01*
X109947440Y-104445000D01*
X109898157Y-104197235D01*
X109757809Y-103987191D01*
X109547765Y-103846843D01*
X109300000Y-103797560D01*
X107300000Y-103797560D01*
X107052235Y-103846843D01*
X106842191Y-103987191D01*
X106701843Y-104197235D01*
X106652560Y-104445000D01*
X106652560Y-105045000D01*
X106701843Y-105292765D01*
X106760132Y-105380000D01*
X106701843Y-105467235D01*
X106652560Y-105715000D01*
X106652560Y-106315000D01*
X106701843Y-106562765D01*
X106760132Y-106650000D01*
X106701843Y-106737235D01*
X106652560Y-106985000D01*
X106652560Y-107585000D01*
X106701843Y-107832765D01*
X106760132Y-107920000D01*
X106701843Y-108007235D01*
X106652560Y-108255000D01*
X106652560Y-108855000D01*
X106669467Y-108940000D01*
X103691579Y-108940000D01*
X102437425Y-107685847D01*
X102388049Y-107611951D01*
X102095310Y-107416348D01*
X101837165Y-107365000D01*
X101837161Y-107365000D01*
X101750000Y-107347663D01*
X101697440Y-107358118D01*
X101697440Y-105450000D01*
X101648157Y-105202235D01*
X101507809Y-104992191D01*
X101337648Y-104878492D01*
X101348157Y-104862765D01*
X101397440Y-104615000D01*
X101397440Y-103470000D01*
X101348157Y-103222235D01*
X101207809Y-103012191D01*
X101182647Y-102995378D01*
X101288327Y-102889698D01*
X101385000Y-102656309D01*
X101385000Y-102243250D01*
X101226250Y-102084500D01*
X100127000Y-102084500D01*
X100127000Y-102104500D01*
X99873000Y-102104500D01*
X99873000Y-102084500D01*
X98773750Y-102084500D01*
X98615000Y-102243250D01*
X98615000Y-102656309D01*
X98711673Y-102889698D01*
X98817353Y-102995378D01*
X98792191Y-103012191D01*
X98651843Y-103222235D01*
X98602560Y-103470000D01*
X98602560Y-104615000D01*
X98651843Y-104862765D01*
X98662352Y-104878492D01*
X98492191Y-104992191D01*
X98351843Y-105202235D01*
X98302560Y-105450000D01*
X98302560Y-111050000D01*
X98351843Y-111297765D01*
X98492191Y-111507809D01*
X98702235Y-111648157D01*
X98950000Y-111697440D01*
X101050000Y-111697440D01*
X101297765Y-111648157D01*
X101507809Y-111507809D01*
X101648157Y-111297765D01*
X101697440Y-111050000D01*
X101697440Y-109449018D01*
X102637577Y-110389156D01*
X102686951Y-110463049D01*
X102760844Y-110512423D01*
X102760845Y-110512424D01*
X102836114Y-110562717D01*
X102979690Y-110658652D01*
X103071506Y-110676915D01*
X101435845Y-112312577D01*
X101361952Y-112361951D01*
X101312578Y-112435844D01*
X101312576Y-112435846D01*
X101166348Y-112654691D01*
X101097663Y-113000000D01*
X101115001Y-113087165D01*
X101115001Y-114315489D01*
X101050000Y-114302560D01*
X98950000Y-114302560D01*
X98702235Y-114351843D01*
X98492191Y-114492191D01*
X98351843Y-114702235D01*
X98302560Y-114950000D01*
X98302560Y-120550000D01*
X98351843Y-120797765D01*
X98492191Y-121007809D01*
X98640504Y-121106909D01*
X98591843Y-121179735D01*
X98542560Y-121427500D01*
X98542560Y-122572500D01*
X98591843Y-122820265D01*
X98732191Y-123030309D01*
X98757353Y-123047122D01*
X98651673Y-123152802D01*
X98555000Y-123386191D01*
X98555000Y-123799250D01*
X98713750Y-123958000D01*
X99813000Y-123958000D01*
X99813000Y-123938000D01*
X100067000Y-123938000D01*
X100067000Y-123958000D01*
X101166250Y-123958000D01*
X101325000Y-123799250D01*
X101325000Y-123386191D01*
X101228327Y-123152802D01*
X101122647Y-123047122D01*
X101147809Y-123030309D01*
X101288157Y-122820265D01*
X101337440Y-122572500D01*
X101337440Y-121427500D01*
X101288157Y-121179735D01*
X101270660Y-121153549D01*
X101297765Y-121148157D01*
X101507809Y-121007809D01*
X101648157Y-120797765D01*
X101697440Y-120550000D01*
X101697440Y-118623011D01*
X101895310Y-118583652D01*
X102188049Y-118388049D01*
X102237425Y-118314153D01*
X102564154Y-117987424D01*
X102638049Y-117938049D01*
X102833652Y-117645310D01*
X102885000Y-117387165D01*
X102885000Y-117387161D01*
X102902337Y-117300001D01*
X102885000Y-117212841D01*
X102885000Y-113366578D01*
X104271579Y-111980000D01*
X106665000Y-111980000D01*
X106665000Y-112079250D01*
X106823750Y-112238000D01*
X108173000Y-112238000D01*
X108173000Y-112218000D01*
X108427000Y-112218000D01*
X108427000Y-112238000D01*
X109776250Y-112238000D01*
X109935000Y-112079250D01*
X109935000Y-111938690D01*
X109845232Y-111721972D01*
X109898157Y-111642765D01*
X109947440Y-111395000D01*
X109947440Y-110795000D01*
X109898157Y-110547235D01*
X109839868Y-110460000D01*
X109898157Y-110372765D01*
X109947440Y-110125000D01*
X109947440Y-109525000D01*
X109909373Y-109333623D01*
X110106292Y-109294454D01*
X110365953Y-109120953D01*
X110409749Y-109055408D01*
X116430157Y-103035000D01*
X122422688Y-103035000D01*
X122500000Y-103050378D01*
X122577312Y-103035000D01*
X122577316Y-103035000D01*
X122806292Y-102989454D01*
X123065953Y-102815953D01*
X123109749Y-102750408D01*
X123965000Y-101895157D01*
X123965000Y-102205874D01*
X124115001Y-102568009D01*
X124115000Y-103943421D01*
X122928422Y-105130000D01*
X119330533Y-105130000D01*
X119347440Y-105045000D01*
X119347440Y-104445000D01*
X119298157Y-104197235D01*
X119157809Y-103987191D01*
X118947765Y-103846843D01*
X118700000Y-103797560D01*
X116700000Y-103797560D01*
X116452235Y-103846843D01*
X116242191Y-103987191D01*
X116101843Y-104197235D01*
X116052560Y-104445000D01*
X116052560Y-105045000D01*
X116101843Y-105292765D01*
X116160132Y-105380000D01*
X116101843Y-105467235D01*
X116052560Y-105715000D01*
X116052560Y-106315000D01*
X116101843Y-106562765D01*
X116160132Y-106650000D01*
X116101843Y-106737235D01*
X116052560Y-106985000D01*
X116052560Y-107585000D01*
X116101843Y-107832765D01*
X116160132Y-107920000D01*
X116101843Y-108007235D01*
X116052560Y-108255000D01*
X116052560Y-108855000D01*
X116101843Y-109102765D01*
X116154768Y-109181972D01*
X116065000Y-109398690D01*
X116065000Y-109539250D01*
X116223750Y-109698000D01*
X117573000Y-109698000D01*
X117573000Y-109678000D01*
X117827000Y-109678000D01*
X117827000Y-109698000D01*
X119176250Y-109698000D01*
X119335000Y-109539250D01*
X119335000Y-109440000D01*
X123717839Y-109440000D01*
X123805000Y-109457337D01*
X123892161Y-109440000D01*
X123892165Y-109440000D01*
X124150310Y-109388652D01*
X124290469Y-109295000D01*
X124305874Y-109295000D01*
X124686280Y-109137431D01*
X124977431Y-108846280D01*
X125135000Y-108465874D01*
X125135000Y-108054126D01*
X124977431Y-107673720D01*
X124785885Y-107482174D01*
X126055222Y-106212837D01*
X126417354Y-106062838D01*
X126708505Y-105771687D01*
X126866074Y-105391281D01*
X126866074Y-104979533D01*
X126708505Y-104599127D01*
X126417354Y-104307976D01*
X126036948Y-104150407D01*
X125885000Y-104150407D01*
X125885000Y-102568007D01*
X126035000Y-102205874D01*
X126035000Y-101794126D01*
X125877431Y-101413720D01*
X125586280Y-101122569D01*
X125205874Y-100965000D01*
X124895157Y-100965000D01*
X126830411Y-99029747D01*
X126895953Y-98985953D01*
X126939747Y-98920411D01*
X126939749Y-98920409D01*
X127069454Y-98726292D01*
X127079397Y-98676303D01*
X127115000Y-98497316D01*
X127115000Y-98497312D01*
X127130378Y-98420000D01*
X127115945Y-98347440D01*
X128300000Y-98347440D01*
X128547765Y-98298157D01*
X128757809Y-98157809D01*
X128898157Y-97947765D01*
X128947440Y-97700000D01*
X128947440Y-94300000D01*
X128898157Y-94052235D01*
X128757809Y-93842191D01*
X128562500Y-93711689D01*
X128562500Y-92913368D01*
X129315001Y-93665869D01*
X129315000Y-102352082D01*
X129298643Y-102434315D01*
X129315000Y-102516548D01*
X129315000Y-102516551D01*
X129363448Y-102760115D01*
X129547999Y-103036316D01*
X129617719Y-103082902D01*
X129727662Y-103192845D01*
X129665000Y-103344126D01*
X129665000Y-103755874D01*
X129822569Y-104136280D01*
X130113720Y-104427431D01*
X130494126Y-104585000D01*
X130905874Y-104585000D01*
X131286280Y-104427431D01*
X131577431Y-104136280D01*
X131735000Y-103755874D01*
X131735000Y-103344126D01*
X131577431Y-102963720D01*
X131539769Y-102926058D01*
X131535000Y-102902081D01*
X131535000Y-102902078D01*
X131486552Y-102658514D01*
X131438287Y-102586280D01*
X131348584Y-102452030D01*
X131348583Y-102452029D01*
X131302001Y-102382314D01*
X131232285Y-102335731D01*
X130985000Y-102088447D01*
X130985000Y-93402232D01*
X131001357Y-93319999D01*
X130985000Y-93237766D01*
X130985000Y-93237763D01*
X130936552Y-92994199D01*
X130752001Y-92717999D01*
X130682283Y-92671415D01*
X128587787Y-90576920D01*
X128737340Y-90514973D01*
X128829771Y-90422542D01*
X131087538Y-90422542D01*
X130975000Y-90694234D01*
X130975000Y-91145766D01*
X131147793Y-91562926D01*
X131467074Y-91882207D01*
X131884234Y-92055000D01*
X132335766Y-92055000D01*
X132752926Y-91882207D01*
X133072207Y-91562926D01*
X133245000Y-91145766D01*
X133245000Y-90694234D01*
X133072207Y-90277074D01*
X132752926Y-89957793D01*
X132335766Y-89785000D01*
X132232657Y-89785000D01*
X133712717Y-88304940D01*
X134750000Y-88304940D01*
X134997765Y-88255657D01*
X135207809Y-88115309D01*
X135348157Y-87905265D01*
X135397440Y-87657500D01*
X135397440Y-86512500D01*
X135348157Y-86264735D01*
X135207809Y-86054691D01*
X135189564Y-86042500D01*
X135207809Y-86030309D01*
X135271493Y-85935000D01*
X135849358Y-85935000D01*
X135861843Y-85997765D01*
X135963564Y-86150000D01*
X135861843Y-86302235D01*
X135812560Y-86550000D01*
X135812560Y-88050000D01*
X135861843Y-88297765D01*
X136002191Y-88507809D01*
X136212235Y-88648157D01*
X136460000Y-88697440D01*
X136516119Y-88697440D01*
X136579250Y-89014818D01*
X136785903Y-89324097D01*
X136863972Y-89376261D01*
X137272711Y-89785000D01*
X136964234Y-89785000D01*
X136547074Y-89957793D01*
X136227793Y-90277074D01*
X136055000Y-90694234D01*
X136055000Y-91145766D01*
X136103845Y-91263688D01*
X135785000Y-90944843D01*
X135785000Y-90694234D01*
X135612207Y-90277074D01*
X135292926Y-89957793D01*
X134875766Y-89785000D01*
X134424234Y-89785000D01*
X134007074Y-89957793D01*
X133687793Y-90277074D01*
X133515000Y-90694234D01*
X133515000Y-91145766D01*
X133687793Y-91562926D01*
X134007074Y-91882207D01*
X134424234Y-92055000D01*
X134674843Y-92055000D01*
X135015000Y-92395157D01*
X135015000Y-93950232D01*
X134942809Y-93842191D01*
X134732765Y-93701843D01*
X134485000Y-93652560D01*
X133140000Y-93652560D01*
X132892235Y-93701843D01*
X132682191Y-93842191D01*
X132541843Y-94052235D01*
X132492560Y-94300000D01*
X132492560Y-97025150D01*
X131633970Y-97883741D01*
X131555904Y-97935903D01*
X131503742Y-98013969D01*
X131503741Y-98013970D01*
X131349250Y-98245182D01*
X131276683Y-98610000D01*
X131295001Y-98702090D01*
X131295000Y-100409867D01*
X131267793Y-100437074D01*
X131095000Y-100854234D01*
X131095000Y-101305766D01*
X131267793Y-101722926D01*
X131587074Y-102042207D01*
X132004234Y-102215000D01*
X132455766Y-102215000D01*
X132872926Y-102042207D01*
X133192207Y-101722926D01*
X133365000Y-101305766D01*
X133365000Y-100854234D01*
X133192207Y-100437074D01*
X133165000Y-100409867D01*
X133165000Y-98997289D01*
X133814850Y-98347440D01*
X134485000Y-98347440D01*
X134732765Y-98298157D01*
X134942809Y-98157809D01*
X135015000Y-98049768D01*
X135015001Y-100002673D01*
X134875766Y-99945000D01*
X134424234Y-99945000D01*
X134007074Y-100117793D01*
X133687793Y-100437074D01*
X133515000Y-100854234D01*
X133515000Y-101305766D01*
X133687793Y-101722926D01*
X133865000Y-101900133D01*
X133865001Y-105191286D01*
X133702567Y-105353720D01*
X133544998Y-105734126D01*
X133544998Y-106145874D01*
X133702567Y-106526280D01*
X133993718Y-106817431D01*
X134374124Y-106975000D01*
X134785872Y-106975000D01*
X135166278Y-106817431D01*
X135457429Y-106526280D01*
X135467294Y-106502464D01*
X135594126Y-106555000D01*
X135640528Y-106555000D01*
X134023723Y-108171805D01*
X133765874Y-108065000D01*
X133354126Y-108065000D01*
X132973720Y-108222569D01*
X132682569Y-108513720D01*
X132525000Y-108894126D01*
X132525000Y-109305874D01*
X132682569Y-109686280D01*
X132973720Y-109977431D01*
X133354126Y-110135000D01*
X133765874Y-110135000D01*
X134146280Y-109977431D01*
X134227715Y-109895996D01*
X134282997Y-109885000D01*
X134283001Y-109885000D01*
X134511977Y-109839454D01*
X134771638Y-109665953D01*
X134815434Y-109600408D01*
X137541066Y-106874777D01*
X137637711Y-106971422D01*
X133079133Y-111530000D01*
X127144885Y-111530000D01*
X127275000Y-111215874D01*
X127275000Y-110804126D01*
X127117431Y-110423720D01*
X126826280Y-110132569D01*
X126445874Y-109975000D01*
X126034126Y-109975000D01*
X125653720Y-110132569D01*
X125621289Y-110165000D01*
X125417115Y-110165000D01*
X125247765Y-110051843D01*
X125000000Y-110002560D01*
X124400000Y-110002560D01*
X124152235Y-110051843D01*
X124000000Y-110153564D01*
X123847765Y-110051843D01*
X123600000Y-110002560D01*
X123000000Y-110002560D01*
X122752235Y-110051843D01*
X122542191Y-110192191D01*
X122496882Y-110260000D01*
X119331400Y-110260000D01*
X119335000Y-110251310D01*
X119335000Y-110110750D01*
X119176250Y-109952000D01*
X117827000Y-109952000D01*
X117827000Y-109972000D01*
X117573000Y-109972000D01*
X117573000Y-109952000D01*
X116223750Y-109952000D01*
X116065000Y-110110750D01*
X116065000Y-110251310D01*
X116068600Y-110260000D01*
X115987232Y-110260000D01*
X115904999Y-110243643D01*
X115822766Y-110260000D01*
X115822763Y-110260000D01*
X115579199Y-110308448D01*
X115430844Y-110407576D01*
X115302999Y-110492999D01*
X115256416Y-110562715D01*
X114467718Y-111351415D01*
X114398000Y-111397999D01*
X114351416Y-111467717D01*
X114213448Y-111674200D01*
X114148643Y-112000000D01*
X114165001Y-112082238D01*
X114165000Y-118371289D01*
X114122569Y-118413720D01*
X113965000Y-118794126D01*
X113965000Y-119205874D01*
X114122569Y-119586280D01*
X114242711Y-119706422D01*
X112847718Y-121101415D01*
X112778000Y-121147999D01*
X112731416Y-121217717D01*
X112593448Y-121424200D01*
X112528643Y-121750000D01*
X112545001Y-121832238D01*
X112545000Y-127502560D01*
X112530000Y-127502560D01*
X112282235Y-127551843D01*
X112072191Y-127692191D01*
X111955000Y-127867578D01*
X111955000Y-122322232D01*
X111971357Y-122239999D01*
X111955000Y-122157766D01*
X111955000Y-122157763D01*
X111906552Y-121914199D01*
X111844247Y-121820953D01*
X111768584Y-121707715D01*
X111768583Y-121707714D01*
X111722001Y-121637999D01*
X111652285Y-121591416D01*
X111015678Y-120954811D01*
X111354126Y-121095000D01*
X111765874Y-121095000D01*
X112146280Y-120937431D01*
X112437431Y-120646280D01*
X112595000Y-120265874D01*
X112595000Y-119854126D01*
X112437431Y-119473720D01*
X112293711Y-119330000D01*
X112297431Y-119326280D01*
X112455000Y-118945874D01*
X112455000Y-118534126D01*
X112297431Y-118153720D01*
X112006280Y-117862569D01*
X111625874Y-117705000D01*
X111214126Y-117705000D01*
X110833720Y-117862569D01*
X110816289Y-117880000D01*
X109920587Y-117880000D01*
X109947440Y-117745000D01*
X109947440Y-117145000D01*
X109925560Y-117035000D01*
X110230989Y-117035000D01*
X110424126Y-117115000D01*
X110835874Y-117115000D01*
X111216280Y-116957431D01*
X111507431Y-116666280D01*
X111665000Y-116285874D01*
X111665000Y-115874126D01*
X111507431Y-115493720D01*
X111216280Y-115202569D01*
X110835874Y-115045000D01*
X110424126Y-115045000D01*
X110043720Y-115202569D01*
X109981289Y-115265000D01*
X109935505Y-115265000D01*
X109947440Y-115205000D01*
X109947440Y-114605000D01*
X109898157Y-114357235D01*
X109839868Y-114270000D01*
X109898157Y-114182765D01*
X109947440Y-113935000D01*
X109947440Y-113335000D01*
X109898157Y-113087235D01*
X109845232Y-113008028D01*
X109935000Y-112791310D01*
X109935000Y-112650750D01*
X109776250Y-112492000D01*
X108427000Y-112492000D01*
X108427000Y-112512000D01*
X108173000Y-112512000D01*
X108173000Y-112492000D01*
X106823750Y-112492000D01*
X106665000Y-112650750D01*
X106665000Y-112665000D01*
X105658007Y-112665000D01*
X105295874Y-112515000D01*
X104884126Y-112515000D01*
X104503720Y-112672569D01*
X104212569Y-112963720D01*
X104055000Y-113344126D01*
X104055000Y-113755874D01*
X104148852Y-113982453D01*
X104003720Y-114042569D01*
X103712569Y-114333720D01*
X103555000Y-114714126D01*
X103555000Y-115125874D01*
X103712569Y-115506280D01*
X104003720Y-115797431D01*
X104384126Y-115955000D01*
X104795874Y-115955000D01*
X105158007Y-115805000D01*
X106666484Y-115805000D01*
X106652560Y-115875000D01*
X106652560Y-116334043D01*
X106485874Y-116265000D01*
X106074126Y-116265000D01*
X105693720Y-116422569D01*
X105402569Y-116713720D01*
X105245000Y-117094126D01*
X105245000Y-117505874D01*
X105402569Y-117886280D01*
X105693720Y-118177431D01*
X106074126Y-118335000D01*
X106485874Y-118335000D01*
X106559550Y-118304483D01*
X106670166Y-118326486D01*
X106652560Y-118415000D01*
X106652560Y-119015000D01*
X106701843Y-119262765D01*
X106760132Y-119350000D01*
X106701843Y-119437235D01*
X106652560Y-119685000D01*
X106652560Y-120285000D01*
X106688364Y-120465000D01*
X105822237Y-120465000D01*
X105740000Y-120448642D01*
X105657763Y-120465000D01*
X105414199Y-120513448D01*
X105137999Y-120697999D01*
X105091415Y-120767717D01*
X104477720Y-121381413D01*
X104407999Y-121427999D01*
X104223448Y-121704200D01*
X104175000Y-121947764D01*
X104175000Y-121947767D01*
X104158643Y-122030000D01*
X104175000Y-122112233D01*
X104175000Y-122820859D01*
X104157765Y-122809343D01*
X103910000Y-122760060D01*
X103310000Y-122760060D01*
X103062235Y-122809343D01*
X102856907Y-122946540D01*
X102734199Y-122970948D01*
X102457999Y-123155499D01*
X102411414Y-123225218D01*
X102057718Y-123578915D01*
X101988000Y-123625499D01*
X101941416Y-123695217D01*
X101803448Y-123901700D01*
X101738643Y-124227500D01*
X101755001Y-124309738D01*
X101755001Y-125016967D01*
X101592235Y-125049343D01*
X101382191Y-125189691D01*
X101241843Y-125399735D01*
X101192560Y-125647500D01*
X101192560Y-126792500D01*
X101241843Y-127040265D01*
X101382191Y-127250309D01*
X101400436Y-127262500D01*
X101382191Y-127274691D01*
X101241843Y-127484735D01*
X101192560Y-127732500D01*
X101192560Y-128433316D01*
X100954499Y-128093797D01*
X99693566Y-127567064D01*
X98327044Y-127562965D01*
X97062973Y-128082122D01*
X97045501Y-128093797D01*
X96727265Y-128547660D01*
X96127000Y-128547660D01*
X96127000Y-124370750D01*
X98555000Y-124370750D01*
X98555000Y-124783809D01*
X98651673Y-125017198D01*
X98830301Y-125195827D01*
X99063690Y-125292500D01*
X99654250Y-125292500D01*
X99813000Y-125133750D01*
X99813000Y-124212000D01*
X100067000Y-124212000D01*
X100067000Y-125133750D01*
X100225750Y-125292500D01*
X100816310Y-125292500D01*
X101049699Y-125195827D01*
X101228327Y-125017198D01*
X101325000Y-124783809D01*
X101325000Y-124370750D01*
X101166250Y-124212000D01*
X100067000Y-124212000D01*
X99813000Y-124212000D01*
X98713750Y-124212000D01*
X98555000Y-124370750D01*
X96127000Y-124370750D01*
X96127000Y-101258691D01*
X98615000Y-101258691D01*
X98615000Y-101671750D01*
X98773750Y-101830500D01*
X99873000Y-101830500D01*
X99873000Y-100908750D01*
X100127000Y-100908750D01*
X100127000Y-101830500D01*
X101226250Y-101830500D01*
X101385000Y-101671750D01*
X101385000Y-101258691D01*
X101288327Y-101025302D01*
X101109699Y-100846673D01*
X100876310Y-100750000D01*
X100285750Y-100750000D01*
X100127000Y-100908750D01*
X99873000Y-100908750D01*
X99714250Y-100750000D01*
X99123690Y-100750000D01*
X98890301Y-100846673D01*
X98711673Y-101025302D01*
X98615000Y-101258691D01*
X96127000Y-101258691D01*
X96127000Y-81713690D01*
X122065000Y-81713690D01*
X122065000Y-82304250D01*
X122223750Y-82463000D01*
X123573000Y-82463000D01*
X123573000Y-81363750D01*
X123827000Y-81363750D01*
X123827000Y-82463000D01*
X125176250Y-82463000D01*
X125335000Y-82304250D01*
X125335000Y-81823690D01*
X135825000Y-81823690D01*
X135825000Y-82414250D01*
X135983750Y-82573000D01*
X137333000Y-82573000D01*
X137333000Y-81473750D01*
X137587000Y-81473750D01*
X137587000Y-82573000D01*
X138936250Y-82573000D01*
X139095000Y-82414250D01*
X139095000Y-81823690D01*
X150215000Y-81823690D01*
X150215000Y-82414250D01*
X150373750Y-82573000D01*
X151723000Y-82573000D01*
X151723000Y-81473750D01*
X151977000Y-81473750D01*
X151977000Y-82573000D01*
X153326250Y-82573000D01*
X153485000Y-82414250D01*
X153485000Y-81823690D01*
X153388327Y-81590301D01*
X153209698Y-81411673D01*
X152976309Y-81315000D01*
X152135750Y-81315000D01*
X151977000Y-81473750D01*
X151723000Y-81473750D01*
X151564250Y-81315000D01*
X150723691Y-81315000D01*
X150490302Y-81411673D01*
X150311673Y-81590301D01*
X150215000Y-81823690D01*
X139095000Y-81823690D01*
X138998327Y-81590301D01*
X138819698Y-81411673D01*
X138586309Y-81315000D01*
X137745750Y-81315000D01*
X137587000Y-81473750D01*
X137333000Y-81473750D01*
X137174250Y-81315000D01*
X136333691Y-81315000D01*
X136100302Y-81411673D01*
X135921673Y-81590301D01*
X135825000Y-81823690D01*
X125335000Y-81823690D01*
X125335000Y-81713690D01*
X125238327Y-81480301D01*
X125059698Y-81301673D01*
X124826309Y-81205000D01*
X123985750Y-81205000D01*
X123827000Y-81363750D01*
X123573000Y-81363750D01*
X123414250Y-81205000D01*
X122573691Y-81205000D01*
X122340302Y-81301673D01*
X122161673Y-81480301D01*
X122065000Y-81713690D01*
X96127000Y-81713690D01*
X96127000Y-81127000D01*
X157873000Y-81127000D01*
X157873000Y-82452560D01*
M02*
