G04 #@! TF.GenerationSoftware,KiCad,Pcbnew,no-vcs-found-104b606~61~ubuntu16.04.1*
G04 #@! TF.CreationDate,2018-02-16T14:36:21-05:00*
G04 #@! TF.ProjectId,D21_2550,4432315F323535302E6B696361645F70,rev?*
G04 #@! TF.SameCoordinates,Original*
G04 #@! TF.FileFunction,Copper,L1,Top,Signal*
G04 #@! TF.FilePolarity,Positive*
%FSLAX46Y46*%
G04 Gerber Fmt 4.6, Leading zero omitted, Abs format (unit mm)*
G04 Created by KiCad (PCBNEW no-vcs-found-104b606~61~ubuntu16.04.1) date Fri Feb 16 14:36:21 2018*
%MOMM*%
%LPD*%
G01*
G04 APERTURE LIST*
%ADD10R,1.600000X1.600000*%
%ADD11C,1.600000*%
%ADD12R,1.500000X1.145000*%
%ADD13R,1.600000X3.500000*%
%ADD14R,1.800000X1.245000*%
%ADD15R,0.670000X1.000000*%
%ADD16C,1.000000*%
%ADD17R,1.800000X5.000000*%
%ADD18R,1.145000X1.500000*%
%ADD19C,3.000000*%
%ADD20R,3.000000X3.000000*%
%ADD21O,1.700000X1.700000*%
%ADD22R,1.700000X1.700000*%
%ADD23C,1.200000*%
%ADD24R,1.500000X1.300000*%
%ADD25C,5.600000*%
%ADD26R,2.100000X1.400000*%
%ADD27C,0.800000*%
%ADD28C,0.400000*%
%ADD29C,1.200000*%
%ADD30C,0.800000*%
%ADD31C,0.300000*%
%ADD32C,0.600000*%
%ADD33C,0.500000*%
%ADD34C,0.254000*%
G04 APERTURE END LIST*
D10*
X145200000Y-113100000D03*
D11*
X145200000Y-116600000D03*
D12*
X160200000Y-120015000D03*
X160200000Y-122100000D03*
D13*
X143000000Y-127700000D03*
X143000000Y-122300000D03*
X152200000Y-122300000D03*
X152200000Y-127700000D03*
D11*
X155200000Y-116600000D03*
D10*
X155200000Y-113100000D03*
D14*
X158200000Y-129100000D03*
X158200000Y-125915000D03*
D15*
X116385000Y-102250000D03*
X118135000Y-102250000D03*
X118135000Y-105250000D03*
X116385000Y-105250000D03*
X116385000Y-108250000D03*
X118135000Y-108250000D03*
D16*
X132230000Y-101080000D03*
X134650000Y-101080000D03*
X137190000Y-101080000D03*
X139730000Y-101080000D03*
X142270000Y-101080000D03*
X144810000Y-101080000D03*
X147350000Y-101080000D03*
X149890000Y-101080000D03*
X149890000Y-90920000D03*
X147350000Y-90920000D03*
X144810000Y-90920000D03*
X142270000Y-90920000D03*
X139730000Y-90920000D03*
X137190000Y-90920000D03*
X134650000Y-90920000D03*
X132110000Y-90920000D03*
D17*
X148300000Y-106000000D03*
X152000000Y-106000000D03*
D18*
X146200000Y-132000000D03*
X148285000Y-132000000D03*
D19*
X184000000Y-125080000D03*
X184000000Y-120000000D03*
D20*
X184000000Y-130160000D03*
D19*
X184000000Y-114920000D03*
X184000000Y-109840000D03*
D21*
X133721209Y-123000000D03*
D22*
X131181209Y-123000000D03*
X123790000Y-123000000D03*
D21*
X126330000Y-123000000D03*
D22*
X113380000Y-129000000D03*
D21*
X115920000Y-129000000D03*
X118460000Y-129000000D03*
X121000000Y-129000000D03*
X123540000Y-129000000D03*
D14*
X144000000Y-103407500D03*
X144000000Y-106592500D03*
D18*
X167612500Y-96490000D03*
X165527500Y-96490000D03*
X174577500Y-96490000D03*
X176662500Y-96490000D03*
X184167500Y-96490000D03*
X186252500Y-96490000D03*
X164385000Y-82490000D03*
X162300000Y-82490000D03*
X171800000Y-82490000D03*
X173885000Y-82490000D03*
X183505000Y-82490000D03*
X181420000Y-82490000D03*
X131875000Y-127190000D03*
X133960000Y-127190000D03*
X128950000Y-127230000D03*
X126865000Y-127230000D03*
D12*
X111000000Y-88867500D03*
X111000000Y-90952500D03*
X110440000Y-97052500D03*
X110440000Y-94967500D03*
X127000000Y-85000000D03*
X127000000Y-82915000D03*
X130000000Y-83000000D03*
X130000000Y-85085000D03*
D18*
X122302500Y-102250000D03*
X120217500Y-102250000D03*
X120217500Y-105250000D03*
X122302500Y-105250000D03*
X122302500Y-108250000D03*
X120217500Y-108250000D03*
D11*
X156200000Y-108000000D03*
X156200000Y-103000000D03*
D18*
X145000000Y-109000000D03*
X142915000Y-109000000D03*
D23*
X160916024Y-102362123D03*
X160916024Y-107442123D03*
X160916024Y-112522123D03*
X160916024Y-117602123D03*
X160916024Y-125222123D03*
X160916024Y-130302123D03*
D24*
X162285952Y-93990000D03*
X164825952Y-93990000D03*
X167365952Y-93990000D03*
X167365952Y-84990000D03*
X164825952Y-84990000D03*
X162285952Y-84990000D03*
X171790000Y-84990000D03*
X174330000Y-84990000D03*
X176870000Y-84990000D03*
X176870000Y-93990000D03*
X174330000Y-93990000D03*
X171790000Y-93990000D03*
X181305952Y-93990000D03*
X183845952Y-93990000D03*
X186385952Y-93990000D03*
X186385952Y-84990000D03*
X183845952Y-84990000D03*
X181305952Y-84990000D03*
D25*
X99000000Y-131000000D03*
X169000000Y-124000000D03*
D26*
X98450000Y-91250000D03*
X107550000Y-91250000D03*
X107550000Y-86750000D03*
X98450000Y-86750000D03*
X98450000Y-94750000D03*
X107550000Y-94750000D03*
X107550000Y-99250000D03*
X98450000Y-99250000D03*
X123700000Y-86750000D03*
X114600000Y-86750000D03*
X114600000Y-91250000D03*
X123700000Y-91250000D03*
X123520000Y-99250000D03*
X114420000Y-99250000D03*
X114420000Y-94750000D03*
X123520000Y-94750000D03*
D27*
X185750000Y-90500000D03*
X184750000Y-90500000D03*
X185750000Y-89500000D03*
X184750000Y-89500000D03*
X185750000Y-88500000D03*
X184750000Y-88500000D03*
X182500000Y-90500000D03*
X181500000Y-90500000D03*
X182500000Y-89500000D03*
X181500000Y-89500000D03*
X182500000Y-88500000D03*
X181500000Y-88500000D03*
X173000000Y-90500000D03*
X172000000Y-90500000D03*
X173000000Y-88500000D03*
X172000000Y-88500000D03*
X176250000Y-90500000D03*
X175250000Y-90500000D03*
X176250000Y-89500000D03*
X175250000Y-89500000D03*
X173000000Y-89500000D03*
X172000000Y-89500000D03*
X176250000Y-88500000D03*
X175250000Y-88500000D03*
X167000000Y-90500000D03*
X166000000Y-90500000D03*
X164000000Y-90500000D03*
X163000000Y-90500000D03*
X167000000Y-89500000D03*
X166000000Y-89500000D03*
X164000000Y-89500000D03*
X163000000Y-89500000D03*
X167000000Y-88500000D03*
X166000000Y-88500000D03*
X164000000Y-88500000D03*
X163000000Y-88500000D03*
X114560000Y-84750000D03*
X118540000Y-96920000D03*
X112270000Y-102270000D03*
X102000000Y-97000000D03*
X147750000Y-83240000D03*
X140000000Y-123000000D03*
X109300000Y-124250000D03*
X115000000Y-109000000D03*
X134579998Y-105940000D03*
X134520000Y-117500000D03*
X133510000Y-114750000D03*
X133560000Y-109100000D03*
X138340000Y-111530000D03*
X138260000Y-106130000D03*
X137130000Y-114160000D03*
X137020000Y-120350000D03*
X135800000Y-105520000D03*
X135790000Y-118040000D03*
X111420000Y-118740000D03*
X111560000Y-120060000D03*
X115000000Y-119000000D03*
X125860000Y-87100000D03*
X130700000Y-103550000D03*
X147720000Y-125780000D03*
X137900000Y-127040000D03*
X126240000Y-111010000D03*
X104660000Y-129690000D03*
X169350000Y-102450000D03*
X165820000Y-82550000D03*
X172180000Y-102620000D03*
X175460000Y-82550000D03*
X179280000Y-103130000D03*
X184980000Y-82430000D03*
X128151060Y-89637542D03*
X125379990Y-92781037D03*
X121420000Y-100620000D03*
X146220000Y-88910000D03*
X104590000Y-114920000D03*
X105090000Y-113550000D03*
X106280000Y-117300000D03*
X110630000Y-116080000D03*
X125000000Y-102000000D03*
X125831074Y-105185407D03*
X124100000Y-108260000D03*
X167360000Y-83200000D03*
X176860000Y-83140000D03*
X186370000Y-83330000D03*
D28*
X164000000Y-88500000D02*
X164000000Y-89500000D01*
X163000000Y-88500000D02*
X163000000Y-89500000D01*
X164000000Y-88500000D02*
X163000000Y-88500000D01*
X167000000Y-88500000D02*
X167000000Y-89500000D01*
X166000000Y-88500000D02*
X166000000Y-89500000D01*
X167000000Y-88500000D02*
X166000000Y-88500000D01*
D29*
X160916024Y-125222123D02*
X167777877Y-125222123D01*
X167777877Y-125222123D02*
X169000000Y-124000000D01*
D30*
X160200000Y-122100000D02*
X152400000Y-122100000D01*
X152400000Y-122100000D02*
X152200000Y-122300000D01*
D28*
X160200000Y-122100000D02*
X159980000Y-122320000D01*
X159980000Y-122320000D02*
X156320000Y-122320000D01*
X156320000Y-122320000D02*
X156300000Y-122300000D01*
D31*
X115000000Y-109000000D02*
X115000000Y-108600000D01*
X115000000Y-108600000D02*
X115350000Y-108250000D01*
X115350000Y-108250000D02*
X116385000Y-108250000D01*
X170440000Y-91750000D02*
X155620000Y-91750000D01*
X155620000Y-91750000D02*
X147750000Y-83880000D01*
X147750000Y-83880000D02*
X147750000Y-83240000D01*
X114600000Y-86750000D02*
X114600000Y-84790000D01*
X114600000Y-84790000D02*
X114560000Y-84750000D01*
X109300000Y-119020000D02*
X115000000Y-113320000D01*
X115000000Y-113320000D02*
X115000000Y-109000000D01*
X109300000Y-124250000D02*
X109300000Y-119020000D01*
X118540000Y-96920000D02*
X120710000Y-94750000D01*
X120710000Y-94750000D02*
X123520000Y-94750000D01*
X116385000Y-102250000D02*
X112290000Y-102250000D01*
X112290000Y-102250000D02*
X112270000Y-102270000D01*
X98450000Y-94750000D02*
X99750000Y-94750000D01*
X99750000Y-94750000D02*
X102000000Y-97000000D01*
X114420000Y-94750000D02*
X123520000Y-94750000D01*
X123700000Y-86750000D02*
X122050000Y-86750000D01*
X122050000Y-86750000D02*
X114600000Y-86750000D01*
X98450000Y-94750000D02*
X107550000Y-94750000D01*
D32*
X98450000Y-86750000D02*
X107550000Y-86750000D01*
D28*
X140700000Y-122300000D02*
X143000000Y-122300000D01*
D31*
X188260000Y-93040000D02*
X186970000Y-91750000D01*
X188260000Y-95410000D02*
X188260000Y-93040000D01*
X187180000Y-96490000D02*
X188260000Y-95410000D01*
X186252500Y-96490000D02*
X187180000Y-96490000D01*
X186970000Y-91750000D02*
X177650000Y-91750000D01*
X179300000Y-95650000D02*
X178460000Y-96490000D01*
X178460000Y-96490000D02*
X176662500Y-96490000D01*
X179300000Y-93400000D02*
X179300000Y-95650000D01*
X177650000Y-91750000D02*
X179300000Y-93400000D01*
X170440000Y-91750000D02*
X177650000Y-91750000D01*
X169710000Y-92480000D02*
X170440000Y-91750000D01*
X169710000Y-95465000D02*
X169710000Y-92480000D01*
X167612500Y-96490000D02*
X168685000Y-96490000D01*
X168685000Y-96490000D02*
X169710000Y-95465000D01*
D28*
X140700000Y-122300000D02*
X140000000Y-123000000D01*
X160916024Y-125222123D02*
X158892877Y-125222123D01*
X158892877Y-125222123D02*
X158200000Y-125915000D01*
X152200000Y-122300000D02*
X143000000Y-122300000D01*
X156300000Y-122300000D02*
X158200000Y-124200000D01*
X158200000Y-124200000D02*
X158200000Y-125915000D01*
X152200000Y-122300000D02*
X156300000Y-122300000D01*
D31*
X118460000Y-129000000D02*
X113710000Y-124250000D01*
X113710000Y-124250000D02*
X109300000Y-124250000D01*
X116385000Y-105250000D02*
X116385000Y-102250000D01*
X116385000Y-108250000D02*
X116385000Y-105250000D01*
X116390000Y-102255000D02*
X116385000Y-102250000D01*
X118135000Y-102250000D02*
X120217500Y-102250000D01*
X118135000Y-105250000D02*
X120217500Y-105250000D01*
X118135000Y-108250000D02*
X120217500Y-108250000D01*
X134520000Y-105999998D02*
X134579998Y-105940000D01*
X134520000Y-117500000D02*
X134520000Y-105999998D01*
X133560000Y-114700000D02*
X133510000Y-114750000D01*
X133560000Y-109100000D02*
X133560000Y-114700000D01*
X138260000Y-111450000D02*
X138340000Y-111530000D01*
X138260000Y-106130000D02*
X138260000Y-111450000D01*
X137020000Y-120350000D02*
X137020000Y-114270000D01*
X137020000Y-114270000D02*
X137130000Y-114160000D01*
X135790000Y-118040000D02*
X135790000Y-105530000D01*
X135790000Y-105530000D02*
X135800000Y-105520000D01*
D28*
X115980000Y-117170000D02*
X119030000Y-120220000D01*
X114210000Y-117170000D02*
X115980000Y-117170000D01*
X112640000Y-118740000D02*
X114210000Y-117170000D01*
X130941209Y-120220000D02*
X133721209Y-123000000D01*
X111420000Y-118740000D02*
X112640000Y-118740000D01*
X119030000Y-120220000D02*
X130941209Y-120220000D01*
X132871210Y-122150001D02*
X133721209Y-123000000D01*
X133960000Y-127190000D02*
X133960000Y-123238791D01*
X133960000Y-123238791D02*
X133721209Y-123000000D01*
X115600000Y-118040000D02*
X118480000Y-120920000D01*
X112510000Y-120060000D02*
X114530000Y-118040000D01*
X114530000Y-118040000D02*
X115600000Y-118040000D01*
X111560000Y-120060000D02*
X112510000Y-120060000D01*
X118480000Y-120920000D02*
X125460000Y-120920000D01*
X125460000Y-120920000D02*
X126330000Y-121790000D01*
X126330000Y-121790000D02*
X126330000Y-123000000D01*
X128950000Y-127230000D02*
X128950000Y-125620000D01*
X128950000Y-125620000D02*
X126330000Y-123000000D01*
X121000000Y-127000000D02*
X115000000Y-121000000D01*
X115000000Y-121000000D02*
X115000000Y-119000000D01*
X121000000Y-129000000D02*
X121000000Y-127000000D01*
X128300000Y-119390000D02*
X132800000Y-119390000D01*
X126260000Y-117350000D02*
X128300000Y-119390000D01*
X126260000Y-111030000D02*
X126260000Y-117350000D01*
X126240000Y-111010000D02*
X126260000Y-111030000D01*
X132800000Y-119390000D02*
X136120000Y-122710000D01*
X136120000Y-122710000D02*
X136120000Y-128120000D01*
X125500000Y-86174315D02*
X125500000Y-84237500D01*
X125500000Y-84237500D02*
X126822500Y-82915000D01*
X126822500Y-82915000D02*
X127000000Y-82915000D01*
X125860000Y-87100000D02*
X125860000Y-86534315D01*
X125860000Y-86534315D02*
X125500000Y-86174315D01*
X126240000Y-111010000D02*
X126240000Y-108010000D01*
X126240000Y-108010000D02*
X130700000Y-103550000D01*
X112650000Y-92060000D02*
X112650000Y-89690000D01*
X110440000Y-94270000D02*
X112650000Y-92060000D01*
X112650000Y-89690000D02*
X111827500Y-88867500D01*
X110440000Y-94967500D02*
X110440000Y-94270000D01*
X111827500Y-88867500D02*
X111000000Y-88867500D01*
X114085000Y-82915000D02*
X111000000Y-86000000D01*
X111000000Y-86000000D02*
X111000000Y-88867500D01*
X127000000Y-82915000D02*
X114085000Y-82915000D01*
X127000000Y-82915000D02*
X129915000Y-82915000D01*
X129915000Y-82915000D02*
X130000000Y-83000000D01*
X149640000Y-127700000D02*
X147720000Y-125780000D01*
X152200000Y-127700000D02*
X149640000Y-127700000D01*
X136800001Y-127439999D02*
X136120000Y-128120000D01*
X137500001Y-127439999D02*
X136800001Y-127439999D01*
X137900000Y-127040000D02*
X137500001Y-127439999D01*
X158200000Y-129100000D02*
X153600000Y-129100000D01*
X153600000Y-129100000D02*
X152200000Y-127700000D01*
X151000000Y-132000000D02*
X152200000Y-130800000D01*
X152200000Y-130800000D02*
X152200000Y-127700000D01*
X148285000Y-132000000D02*
X151000000Y-132000000D01*
X136120000Y-128120000D02*
X134450000Y-129790000D01*
X134450000Y-129790000D02*
X130425000Y-129790000D01*
X111540000Y-131830000D02*
X109400000Y-129690000D01*
X109400000Y-129690000D02*
X104660000Y-129690000D01*
X123870000Y-131830000D02*
X111540000Y-131830000D01*
X126865000Y-128835000D02*
X123870000Y-131830000D01*
X127820000Y-129790000D02*
X126865000Y-128835000D01*
X126865000Y-128835000D02*
X126865000Y-127230000D01*
X130425000Y-129790000D02*
X127820000Y-129790000D01*
X131875000Y-127190000D02*
X131875000Y-128340000D01*
X131875000Y-128340000D02*
X130425000Y-129790000D01*
X165527500Y-96490000D02*
X164570000Y-95532500D01*
X164570000Y-95532500D02*
X164570000Y-94245952D01*
X164570000Y-94245952D02*
X164825952Y-93990000D01*
X174577500Y-96490000D02*
X174577500Y-94237500D01*
X174577500Y-94237500D02*
X174330000Y-93990000D01*
X184167500Y-96490000D02*
X184167500Y-94311548D01*
X184167500Y-94311548D02*
X183845952Y-93990000D01*
D30*
X169350000Y-102450000D02*
X169360000Y-102460000D01*
X169360000Y-102460000D02*
X169360000Y-116080000D01*
X169360000Y-116080000D02*
X178360000Y-125080000D01*
X178360000Y-125080000D02*
X184000000Y-125080000D01*
X165820000Y-82550000D02*
X164445000Y-82550000D01*
X164445000Y-82550000D02*
X164385000Y-82490000D01*
D28*
X162285952Y-84990000D02*
X162285952Y-82504048D01*
X162285952Y-82504048D02*
X162300000Y-82490000D01*
D30*
X172180000Y-102620000D02*
X172180000Y-113170000D01*
X172180000Y-113170000D02*
X179010000Y-120000000D01*
X179010000Y-120000000D02*
X184000000Y-120000000D01*
X175460000Y-82550000D02*
X173945000Y-82550000D01*
X173945000Y-82550000D02*
X173885000Y-82490000D01*
D28*
X171790000Y-84990000D02*
X171790000Y-82500000D01*
X171790000Y-82500000D02*
X171800000Y-82490000D01*
D30*
X184000000Y-114920000D02*
X181878680Y-114920000D01*
X179280000Y-103695685D02*
X179280000Y-103130000D01*
X181878680Y-114920000D02*
X179280000Y-112321320D01*
X179280000Y-112321320D02*
X179280000Y-103695685D01*
X184980000Y-82430000D02*
X183565000Y-82430000D01*
X183565000Y-82430000D02*
X183505000Y-82490000D01*
D28*
X181305952Y-84990000D02*
X181305952Y-82604048D01*
X181305952Y-82604048D02*
X181420000Y-82490000D01*
D31*
X128151060Y-90009967D02*
X128151060Y-89637542D01*
X125379990Y-92781037D02*
X128151060Y-90009967D01*
X145200000Y-92220000D02*
X133580000Y-92220000D01*
X146080000Y-91340000D02*
X145200000Y-92220000D01*
X121440000Y-100640000D02*
X121420000Y-100620000D01*
X146080000Y-89050000D02*
X146080000Y-91340000D01*
X125160000Y-100640000D02*
X121440000Y-100640000D01*
X146220000Y-88910000D02*
X146080000Y-89050000D01*
X133580000Y-92220000D02*
X125160000Y-100640000D01*
D33*
X96530000Y-92820000D02*
X98100000Y-91250000D01*
X97150000Y-100880000D02*
X96530000Y-100260000D01*
X100950000Y-100880000D02*
X97150000Y-100880000D01*
X104590000Y-114920000D02*
X103930000Y-114260000D01*
X103920000Y-103850000D02*
X100950000Y-100880000D01*
X103900000Y-112580000D02*
X103920000Y-112560000D01*
X103920000Y-112560000D02*
X103920000Y-103850000D01*
X98100000Y-91250000D02*
X98450000Y-91250000D01*
X103930000Y-114260000D02*
X103930000Y-112610000D01*
X96530000Y-100260000D02*
X96530000Y-92820000D01*
X103930000Y-112610000D02*
X103900000Y-112580000D01*
D32*
X107550000Y-91250000D02*
X110702500Y-91250000D01*
X110702500Y-91250000D02*
X111000000Y-90952500D01*
X98450000Y-91250000D02*
X107550000Y-91250000D01*
D33*
X105090000Y-113550000D02*
X105090000Y-103740000D01*
X105090000Y-103740000D02*
X107550000Y-101280000D01*
X107550000Y-101280000D02*
X107550000Y-99250000D01*
X107550000Y-99250000D02*
X108242500Y-99250000D01*
X108242500Y-99250000D02*
X110440000Y-97052500D01*
D32*
X98450000Y-99250000D02*
X107550000Y-99250000D01*
D33*
X112130000Y-98240000D02*
X106280000Y-104090000D01*
X114600000Y-91550000D02*
X112130000Y-94020000D01*
X112130000Y-94020000D02*
X112130000Y-98240000D01*
X114600000Y-91250000D02*
X114600000Y-91550000D01*
X106280000Y-104090000D02*
X106280000Y-117300000D01*
D32*
X127000000Y-85000000D02*
X127000000Y-89000000D01*
X127000000Y-89000000D02*
X124750000Y-91250000D01*
X124750000Y-91250000D02*
X123700000Y-91250000D01*
X114600000Y-91250000D02*
X123700000Y-91250000D01*
D33*
X107370000Y-115220000D02*
X108230000Y-116080000D01*
X107370000Y-104750000D02*
X107370000Y-115220000D01*
X112870000Y-99250000D02*
X107370000Y-104750000D01*
X114420000Y-99250000D02*
X112870000Y-99250000D01*
X108230000Y-116080000D02*
X110630000Y-116080000D01*
D30*
X130000000Y-93120000D02*
X130000000Y-85085000D01*
X123520000Y-99250000D02*
X123870000Y-99250000D01*
X123870000Y-99250000D02*
X130000000Y-93120000D01*
X114420000Y-99250000D02*
X116270000Y-99250000D01*
X116270000Y-99250000D02*
X123520000Y-99250000D01*
D33*
X125000000Y-102000000D02*
X133010000Y-93990000D01*
X133010000Y-93990000D02*
X162285952Y-93990000D01*
X125000000Y-102000000D02*
X122552500Y-102000000D01*
X122552500Y-102000000D02*
X122302500Y-102250000D01*
X125831074Y-105185407D02*
X125831074Y-102517540D01*
X133348614Y-95000000D02*
X160430000Y-95000000D01*
X171790000Y-95140000D02*
X171790000Y-93990000D01*
X160430000Y-95000000D02*
X163730000Y-98300000D01*
X125831074Y-102517540D02*
X133348614Y-95000000D01*
X168630000Y-98300000D02*
X171790000Y-95140000D01*
X163730000Y-98300000D02*
X168630000Y-98300000D01*
X125766481Y-105250000D02*
X125831074Y-105185407D01*
X122302500Y-105250000D02*
X125766481Y-105250000D01*
X126820000Y-102660000D02*
X133500000Y-95980000D01*
X159848614Y-95980000D02*
X163068614Y-99200000D01*
X126820000Y-106100000D02*
X126820000Y-102660000D01*
X163068614Y-99200000D02*
X177245952Y-99200000D01*
X124660000Y-108260000D02*
X126820000Y-106100000D01*
X124100000Y-108260000D02*
X124660000Y-108260000D01*
X181305952Y-95140000D02*
X181305952Y-93990000D01*
X133500000Y-95980000D02*
X159848614Y-95980000D01*
X177245952Y-99200000D02*
X181305952Y-95140000D01*
X124100000Y-108260000D02*
X122312500Y-108260000D01*
X122312500Y-108260000D02*
X122302500Y-108250000D01*
D28*
X167365952Y-84990000D02*
X167365952Y-83205952D01*
X167365952Y-83205952D02*
X167360000Y-83200000D01*
D30*
X176870000Y-84990000D02*
X176870000Y-83150000D01*
X176870000Y-83150000D02*
X176860000Y-83140000D01*
X186385952Y-84990000D02*
X186385952Y-83345952D01*
X186385952Y-83345952D02*
X186370000Y-83330000D01*
X156200000Y-103000000D02*
X160278147Y-103000000D01*
X160278147Y-103000000D02*
X160916024Y-102362123D01*
D29*
X160200000Y-120015000D02*
X160200000Y-118318147D01*
X160200000Y-118318147D02*
X160916024Y-117602123D01*
X145000000Y-109000000D02*
X146100000Y-109000000D01*
X146100000Y-109000000D02*
X147370000Y-110270000D01*
X147370000Y-110270000D02*
X153930000Y-110270000D01*
X153930000Y-110270000D02*
X156200000Y-108000000D01*
X154830000Y-105270000D02*
X158743901Y-105270000D01*
X158743901Y-105270000D02*
X160916024Y-107442123D01*
X152000000Y-106000000D02*
X154100000Y-106000000D01*
X154100000Y-106000000D02*
X154830000Y-105270000D01*
X144000000Y-103407500D02*
X145707500Y-103407500D01*
X145707500Y-103407500D02*
X148300000Y-106000000D01*
X142915000Y-107677500D02*
X144000000Y-106592500D01*
X142915000Y-109000000D02*
X142915000Y-107677500D01*
D32*
X154370000Y-130670000D02*
X151400000Y-133640000D01*
X160867877Y-130302123D02*
X160500000Y-130670000D01*
X160500000Y-130670000D02*
X154370000Y-130670000D01*
X146200000Y-132990000D02*
X146200000Y-132000000D01*
X160916024Y-130302123D02*
X160867877Y-130302123D01*
X151400000Y-133640000D02*
X146850000Y-133640000D01*
X146850000Y-133640000D02*
X146200000Y-132990000D01*
X160877877Y-130302123D02*
X160916024Y-130302123D01*
X143000000Y-131000000D02*
X143000000Y-127700000D01*
X144000000Y-132000000D02*
X143000000Y-131000000D01*
X146200000Y-132000000D02*
X144000000Y-132000000D01*
D34*
G36*
X157873000Y-88000000D02*
X157882667Y-88048601D01*
X157910197Y-88089803D01*
X157951399Y-88117333D01*
X158000000Y-88127000D01*
X188873000Y-88127000D01*
X188873000Y-100873000D01*
X151025000Y-100873000D01*
X151025000Y-100854234D01*
X150852207Y-100437074D01*
X150532926Y-100117793D01*
X150115766Y-99945000D01*
X149664234Y-99945000D01*
X149247074Y-100117793D01*
X148927793Y-100437074D01*
X148755000Y-100854234D01*
X148755000Y-100873000D01*
X148485000Y-100873000D01*
X148485000Y-100854234D01*
X148312207Y-100437074D01*
X147992926Y-100117793D01*
X147575766Y-99945000D01*
X147124234Y-99945000D01*
X146707074Y-100117793D01*
X146387793Y-100437074D01*
X146215000Y-100854234D01*
X146215000Y-100873000D01*
X145945000Y-100873000D01*
X145945000Y-100854234D01*
X145772207Y-100437074D01*
X145452926Y-100117793D01*
X145035766Y-99945000D01*
X144584234Y-99945000D01*
X144167074Y-100117793D01*
X143847793Y-100437074D01*
X143675000Y-100854234D01*
X143675000Y-100873000D01*
X143405000Y-100873000D01*
X143405000Y-100854234D01*
X143232207Y-100437074D01*
X142912926Y-100117793D01*
X142495766Y-99945000D01*
X142044234Y-99945000D01*
X141627074Y-100117793D01*
X141307793Y-100437074D01*
X141135000Y-100854234D01*
X141135000Y-100873000D01*
X141000000Y-100873000D01*
X140951399Y-100882667D01*
X140910197Y-100910197D01*
X140882667Y-100951399D01*
X140873000Y-101000000D01*
X140873000Y-119000000D01*
X140882667Y-119048601D01*
X140910197Y-119089803D01*
X140951399Y-119117333D01*
X141000000Y-119127000D01*
X157873000Y-119127000D01*
X157873000Y-124657500D01*
X157173690Y-124657500D01*
X156940301Y-124754173D01*
X156761673Y-124932802D01*
X156665000Y-125166191D01*
X156665000Y-125629250D01*
X156823750Y-125788000D01*
X157873000Y-125788000D01*
X157873000Y-126042000D01*
X156823750Y-126042000D01*
X156665000Y-126200750D01*
X156665000Y-126663809D01*
X156761673Y-126897198D01*
X156940301Y-127075827D01*
X157173690Y-127172500D01*
X157873000Y-127172500D01*
X157873000Y-127830060D01*
X157300000Y-127830060D01*
X157052235Y-127879343D01*
X156842191Y-128019691D01*
X156701843Y-128229735D01*
X156694828Y-128265000D01*
X153945868Y-128265000D01*
X153647440Y-127966572D01*
X153647440Y-125950000D01*
X153598157Y-125702235D01*
X153457809Y-125492191D01*
X153247765Y-125351843D01*
X153000000Y-125302560D01*
X151400000Y-125302560D01*
X151152235Y-125351843D01*
X150942191Y-125492191D01*
X150801843Y-125702235D01*
X150752560Y-125950000D01*
X150752560Y-126865000D01*
X149985868Y-126865000D01*
X148755000Y-125634133D01*
X148755000Y-125574126D01*
X148597431Y-125193720D01*
X148306280Y-124902569D01*
X147925874Y-124745000D01*
X147514126Y-124745000D01*
X147133720Y-124902569D01*
X146842569Y-125193720D01*
X146685000Y-125574126D01*
X146685000Y-125985874D01*
X146842569Y-126366280D01*
X147133720Y-126657431D01*
X147514126Y-126815000D01*
X147574133Y-126815000D01*
X148991415Y-128232283D01*
X149037999Y-128302001D01*
X149314199Y-128486552D01*
X149557763Y-128535000D01*
X149557766Y-128535000D01*
X149639999Y-128551357D01*
X149722232Y-128535000D01*
X150752560Y-128535000D01*
X150752560Y-129450000D01*
X150801843Y-129697765D01*
X150942191Y-129907809D01*
X151152235Y-130048157D01*
X151365000Y-130090478D01*
X151365000Y-130454131D01*
X150654133Y-131165000D01*
X149488033Y-131165000D01*
X149455657Y-131002235D01*
X149315309Y-130792191D01*
X149105265Y-130651843D01*
X148857500Y-130602560D01*
X147712500Y-130602560D01*
X147464735Y-130651843D01*
X147254691Y-130792191D01*
X147242500Y-130810436D01*
X147230309Y-130792191D01*
X147020265Y-130651843D01*
X146772500Y-130602560D01*
X145627500Y-130602560D01*
X145379735Y-130651843D01*
X145169691Y-130792191D01*
X145029343Y-131002235D01*
X145016858Y-131065000D01*
X144387289Y-131065000D01*
X143935000Y-130612711D01*
X143935000Y-130070587D01*
X144047765Y-130048157D01*
X144257809Y-129907809D01*
X144398157Y-129697765D01*
X144447440Y-129450000D01*
X144447440Y-125950000D01*
X144398157Y-125702235D01*
X144257809Y-125492191D01*
X144047765Y-125351843D01*
X143800000Y-125302560D01*
X142200000Y-125302560D01*
X141952235Y-125351843D01*
X141742191Y-125492191D01*
X141601843Y-125702235D01*
X141552560Y-125950000D01*
X141552560Y-129450000D01*
X141601843Y-129697765D01*
X141742191Y-129907809D01*
X141952235Y-130048157D01*
X142065000Y-130070587D01*
X142065000Y-130907914D01*
X142046683Y-131000000D01*
X142079504Y-131165000D01*
X142119250Y-131364818D01*
X142325903Y-131674097D01*
X142403972Y-131726261D01*
X143273739Y-132596028D01*
X143325903Y-132674097D01*
X143635181Y-132880750D01*
X143907914Y-132935000D01*
X144000000Y-132953317D01*
X144092086Y-132935000D01*
X145016858Y-132935000D01*
X145029343Y-132997765D01*
X145169691Y-133207809D01*
X145308451Y-133300526D01*
X145319250Y-133354818D01*
X145525903Y-133664097D01*
X145603972Y-133716261D01*
X145760711Y-133873000D01*
X100977780Y-133873000D01*
X101272735Y-133452340D01*
X99000000Y-131179605D01*
X96727265Y-133452340D01*
X97022220Y-133873000D01*
X96127000Y-133873000D01*
X96127000Y-132977780D01*
X96547660Y-133272735D01*
X98820395Y-131000000D01*
X99179605Y-131000000D01*
X101452340Y-133272735D01*
X101906203Y-132954499D01*
X102432936Y-131693566D01*
X102437035Y-130327044D01*
X101917878Y-129062973D01*
X101906203Y-129045501D01*
X101452340Y-128727265D01*
X99179605Y-131000000D01*
X98820395Y-131000000D01*
X96547660Y-128727265D01*
X96127000Y-129022220D01*
X96127000Y-128547660D01*
X96727265Y-128547660D01*
X99000000Y-130820395D01*
X101272735Y-128547660D01*
X100993907Y-128150000D01*
X111882560Y-128150000D01*
X111882560Y-129850000D01*
X111931843Y-130097765D01*
X112072191Y-130307809D01*
X112282235Y-130448157D01*
X112530000Y-130497440D01*
X114230000Y-130497440D01*
X114477765Y-130448157D01*
X114687809Y-130307809D01*
X114828157Y-130097765D01*
X114837184Y-130052381D01*
X114849375Y-130070625D01*
X115340582Y-130398839D01*
X115773744Y-130485000D01*
X116066256Y-130485000D01*
X116499418Y-130398839D01*
X116990625Y-130070625D01*
X117203843Y-129751522D01*
X117264817Y-129881358D01*
X117693076Y-130271645D01*
X118103110Y-130441476D01*
X118333000Y-130320155D01*
X118333000Y-129127000D01*
X118313000Y-129127000D01*
X118313000Y-128873000D01*
X118333000Y-128873000D01*
X118333000Y-127679845D01*
X118103110Y-127558524D01*
X117693076Y-127728355D01*
X117264817Y-128118642D01*
X117203843Y-128248478D01*
X116990625Y-127929375D01*
X116499418Y-127601161D01*
X116066256Y-127515000D01*
X115773744Y-127515000D01*
X115340582Y-127601161D01*
X114849375Y-127929375D01*
X114837184Y-127947619D01*
X114828157Y-127902235D01*
X114687809Y-127692191D01*
X114477765Y-127551843D01*
X114230000Y-127502560D01*
X112530000Y-127502560D01*
X112282235Y-127551843D01*
X112072191Y-127692191D01*
X111931843Y-127902235D01*
X111882560Y-128150000D01*
X100993907Y-128150000D01*
X100954499Y-128093797D01*
X99693566Y-127567064D01*
X98327044Y-127562965D01*
X97062973Y-128082122D01*
X97045501Y-128093797D01*
X96727265Y-128547660D01*
X96127000Y-128547660D01*
X96127000Y-101108579D01*
X96462577Y-101444156D01*
X96511951Y-101518049D01*
X96585844Y-101567423D01*
X96585845Y-101567424D01*
X96672479Y-101625311D01*
X96804690Y-101713652D01*
X97062835Y-101765000D01*
X97062839Y-101765000D01*
X97149999Y-101782337D01*
X97237159Y-101765000D01*
X100583422Y-101765000D01*
X103035001Y-104216580D01*
X103035000Y-112392291D01*
X102997663Y-112580000D01*
X103045001Y-112817988D01*
X103045000Y-114172839D01*
X103027663Y-114260000D01*
X103045000Y-114347161D01*
X103045000Y-114347164D01*
X103096348Y-114605309D01*
X103291951Y-114898049D01*
X103365847Y-114947425D01*
X103562569Y-115144148D01*
X103712569Y-115506280D01*
X104003720Y-115797431D01*
X104384126Y-115955000D01*
X104795874Y-115955000D01*
X105176280Y-115797431D01*
X105395001Y-115578710D01*
X105395001Y-116731991D01*
X105245000Y-117094126D01*
X105245000Y-117505874D01*
X105402569Y-117886280D01*
X105693720Y-118177431D01*
X106074126Y-118335000D01*
X106485874Y-118335000D01*
X106866280Y-118177431D01*
X107157431Y-117886280D01*
X107315000Y-117505874D01*
X107315000Y-117094126D01*
X107165000Y-116731993D01*
X107165000Y-116266578D01*
X107542577Y-116644156D01*
X107591951Y-116718049D01*
X107665844Y-116767423D01*
X107665845Y-116767424D01*
X107738833Y-116816193D01*
X107884690Y-116913652D01*
X108142835Y-116965000D01*
X108142839Y-116965000D01*
X108230000Y-116982337D01*
X108317161Y-116965000D01*
X110061993Y-116965000D01*
X110424126Y-117115000D01*
X110835874Y-117115000D01*
X111216280Y-116957431D01*
X111507431Y-116666280D01*
X111665000Y-116285874D01*
X111665000Y-115874126D01*
X111507431Y-115493720D01*
X111216280Y-115202569D01*
X110835874Y-115045000D01*
X110424126Y-115045000D01*
X110061993Y-115195000D01*
X108596579Y-115195000D01*
X108255000Y-114853422D01*
X108255000Y-108535750D01*
X115415000Y-108535750D01*
X115415000Y-108876310D01*
X115511673Y-109109699D01*
X115690302Y-109288327D01*
X115923691Y-109385000D01*
X116099250Y-109385000D01*
X116258000Y-109226250D01*
X116258000Y-108377000D01*
X115573750Y-108377000D01*
X115415000Y-108535750D01*
X108255000Y-108535750D01*
X108255000Y-107623690D01*
X115415000Y-107623690D01*
X115415000Y-107964250D01*
X115573750Y-108123000D01*
X116258000Y-108123000D01*
X116258000Y-107273750D01*
X116099250Y-107115000D01*
X115923691Y-107115000D01*
X115690302Y-107211673D01*
X115511673Y-107390301D01*
X115415000Y-107623690D01*
X108255000Y-107623690D01*
X108255000Y-105535750D01*
X115415000Y-105535750D01*
X115415000Y-105876310D01*
X115511673Y-106109699D01*
X115690302Y-106288327D01*
X115923691Y-106385000D01*
X116099250Y-106385000D01*
X116258000Y-106226250D01*
X116258000Y-105377000D01*
X115573750Y-105377000D01*
X115415000Y-105535750D01*
X108255000Y-105535750D01*
X108255000Y-105116578D01*
X108747888Y-104623690D01*
X115415000Y-104623690D01*
X115415000Y-104964250D01*
X115573750Y-105123000D01*
X116258000Y-105123000D01*
X116258000Y-104273750D01*
X116099250Y-104115000D01*
X115923691Y-104115000D01*
X115690302Y-104211673D01*
X115511673Y-104390301D01*
X115415000Y-104623690D01*
X108747888Y-104623690D01*
X110835828Y-102535750D01*
X115415000Y-102535750D01*
X115415000Y-102876310D01*
X115511673Y-103109699D01*
X115690302Y-103288327D01*
X115923691Y-103385000D01*
X116099250Y-103385000D01*
X116258000Y-103226250D01*
X116258000Y-102377000D01*
X115573750Y-102377000D01*
X115415000Y-102535750D01*
X110835828Y-102535750D01*
X111747888Y-101623690D01*
X115415000Y-101623690D01*
X115415000Y-101964250D01*
X115573750Y-102123000D01*
X116258000Y-102123000D01*
X116258000Y-101273750D01*
X116099250Y-101115000D01*
X115923691Y-101115000D01*
X115690302Y-101211673D01*
X115511673Y-101390301D01*
X115415000Y-101623690D01*
X111747888Y-101623690D01*
X112943110Y-100428469D01*
X113122235Y-100548157D01*
X113370000Y-100597440D01*
X115470000Y-100597440D01*
X115717765Y-100548157D01*
X115927809Y-100407809D01*
X116009868Y-100285000D01*
X120438486Y-100285000D01*
X120385000Y-100414126D01*
X120385000Y-100825874D01*
X120396054Y-100852560D01*
X119645000Y-100852560D01*
X119397235Y-100901843D01*
X119187191Y-101042191D01*
X119046843Y-101252235D01*
X119013412Y-101420304D01*
X118927809Y-101292191D01*
X118717765Y-101151843D01*
X118470000Y-101102560D01*
X117800000Y-101102560D01*
X117552235Y-101151843D01*
X117342191Y-101292191D01*
X117265333Y-101407216D01*
X117258327Y-101390301D01*
X117079698Y-101211673D01*
X116846309Y-101115000D01*
X116670750Y-101115000D01*
X116512000Y-101273750D01*
X116512000Y-102123000D01*
X116532000Y-102123000D01*
X116532000Y-102377000D01*
X116512000Y-102377000D01*
X116512000Y-103226250D01*
X116670750Y-103385000D01*
X116846309Y-103385000D01*
X117079698Y-103288327D01*
X117258327Y-103109699D01*
X117265333Y-103092784D01*
X117342191Y-103207809D01*
X117552235Y-103348157D01*
X117800000Y-103397440D01*
X118470000Y-103397440D01*
X118717765Y-103348157D01*
X118927809Y-103207809D01*
X119013412Y-103079696D01*
X119046843Y-103247765D01*
X119187191Y-103457809D01*
X119397235Y-103598157D01*
X119645000Y-103647440D01*
X120790000Y-103647440D01*
X121037765Y-103598157D01*
X121247809Y-103457809D01*
X121260000Y-103439564D01*
X121272191Y-103457809D01*
X121482235Y-103598157D01*
X121730000Y-103647440D01*
X122875000Y-103647440D01*
X123122765Y-103598157D01*
X123332809Y-103457809D01*
X123473157Y-103247765D01*
X123522440Y-103000000D01*
X123522440Y-102885000D01*
X124431993Y-102885000D01*
X124794126Y-103035000D01*
X124946075Y-103035000D01*
X124946074Y-104365000D01*
X123495587Y-104365000D01*
X123473157Y-104252235D01*
X123332809Y-104042191D01*
X123122765Y-103901843D01*
X122875000Y-103852560D01*
X121730000Y-103852560D01*
X121482235Y-103901843D01*
X121272191Y-104042191D01*
X121260000Y-104060436D01*
X121247809Y-104042191D01*
X121037765Y-103901843D01*
X120790000Y-103852560D01*
X119645000Y-103852560D01*
X119397235Y-103901843D01*
X119187191Y-104042191D01*
X119046843Y-104252235D01*
X119013412Y-104420304D01*
X118927809Y-104292191D01*
X118717765Y-104151843D01*
X118470000Y-104102560D01*
X117800000Y-104102560D01*
X117552235Y-104151843D01*
X117342191Y-104292191D01*
X117265333Y-104407216D01*
X117258327Y-104390301D01*
X117079698Y-104211673D01*
X116846309Y-104115000D01*
X116670750Y-104115000D01*
X116512000Y-104273750D01*
X116512000Y-105123000D01*
X116532000Y-105123000D01*
X116532000Y-105377000D01*
X116512000Y-105377000D01*
X116512000Y-106226250D01*
X116670750Y-106385000D01*
X116846309Y-106385000D01*
X117079698Y-106288327D01*
X117258327Y-106109699D01*
X117265333Y-106092784D01*
X117342191Y-106207809D01*
X117552235Y-106348157D01*
X117800000Y-106397440D01*
X118470000Y-106397440D01*
X118717765Y-106348157D01*
X118927809Y-106207809D01*
X119013412Y-106079696D01*
X119046843Y-106247765D01*
X119187191Y-106457809D01*
X119397235Y-106598157D01*
X119645000Y-106647440D01*
X120790000Y-106647440D01*
X121037765Y-106598157D01*
X121247809Y-106457809D01*
X121260000Y-106439564D01*
X121272191Y-106457809D01*
X121482235Y-106598157D01*
X121730000Y-106647440D01*
X122875000Y-106647440D01*
X123122765Y-106598157D01*
X123332809Y-106457809D01*
X123473157Y-106247765D01*
X123495587Y-106135000D01*
X125419009Y-106135000D01*
X125499911Y-106168511D01*
X124403135Y-107265287D01*
X124305874Y-107225000D01*
X123894126Y-107225000D01*
X123531993Y-107375000D01*
X123497576Y-107375000D01*
X123473157Y-107252235D01*
X123332809Y-107042191D01*
X123122765Y-106901843D01*
X122875000Y-106852560D01*
X121730000Y-106852560D01*
X121482235Y-106901843D01*
X121272191Y-107042191D01*
X121260000Y-107060436D01*
X121247809Y-107042191D01*
X121037765Y-106901843D01*
X120790000Y-106852560D01*
X119645000Y-106852560D01*
X119397235Y-106901843D01*
X119187191Y-107042191D01*
X119046843Y-107252235D01*
X119013412Y-107420304D01*
X118927809Y-107292191D01*
X118717765Y-107151843D01*
X118470000Y-107102560D01*
X117800000Y-107102560D01*
X117552235Y-107151843D01*
X117342191Y-107292191D01*
X117265333Y-107407216D01*
X117258327Y-107390301D01*
X117079698Y-107211673D01*
X116846309Y-107115000D01*
X116670750Y-107115000D01*
X116512000Y-107273750D01*
X116512000Y-108123000D01*
X116532000Y-108123000D01*
X116532000Y-108377000D01*
X116512000Y-108377000D01*
X116512000Y-109226250D01*
X116670750Y-109385000D01*
X116846309Y-109385000D01*
X117079698Y-109288327D01*
X117258327Y-109109699D01*
X117265333Y-109092784D01*
X117342191Y-109207809D01*
X117552235Y-109348157D01*
X117800000Y-109397440D01*
X118470000Y-109397440D01*
X118717765Y-109348157D01*
X118927809Y-109207809D01*
X119013412Y-109079696D01*
X119046843Y-109247765D01*
X119187191Y-109457809D01*
X119397235Y-109598157D01*
X119645000Y-109647440D01*
X120790000Y-109647440D01*
X121037765Y-109598157D01*
X121247809Y-109457809D01*
X121260000Y-109439564D01*
X121272191Y-109457809D01*
X121482235Y-109598157D01*
X121730000Y-109647440D01*
X122875000Y-109647440D01*
X123122765Y-109598157D01*
X123332809Y-109457809D01*
X123473157Y-109247765D01*
X123493598Y-109145000D01*
X123531993Y-109145000D01*
X123894126Y-109295000D01*
X124305874Y-109295000D01*
X124637133Y-109157788D01*
X124660000Y-109162337D01*
X124747161Y-109145000D01*
X124747165Y-109145000D01*
X125005310Y-109093652D01*
X125298049Y-108898049D01*
X125347425Y-108824153D01*
X125405001Y-108766577D01*
X125405000Y-110381289D01*
X125362569Y-110423720D01*
X125205000Y-110804126D01*
X125205000Y-111215874D01*
X125362569Y-111596280D01*
X125425000Y-111658711D01*
X125425001Y-117267762D01*
X125408643Y-117350000D01*
X125473448Y-117675800D01*
X125499106Y-117714200D01*
X125658000Y-117952001D01*
X125727718Y-117998585D01*
X127114132Y-119385000D01*
X119375869Y-119385000D01*
X116628587Y-116637720D01*
X116582001Y-116567999D01*
X116305801Y-116383448D01*
X116062237Y-116335000D01*
X116062233Y-116335000D01*
X115980000Y-116318643D01*
X115897767Y-116335000D01*
X114292232Y-116335000D01*
X114209999Y-116318643D01*
X114127766Y-116335000D01*
X114127763Y-116335000D01*
X113884199Y-116383448D01*
X113711798Y-116498643D01*
X113607999Y-116567999D01*
X113561416Y-116637715D01*
X112294133Y-117905000D01*
X112048711Y-117905000D01*
X112006280Y-117862569D01*
X111625874Y-117705000D01*
X111214126Y-117705000D01*
X110833720Y-117862569D01*
X110542569Y-118153720D01*
X110385000Y-118534126D01*
X110385000Y-118945874D01*
X110542569Y-119326280D01*
X110686289Y-119470000D01*
X110682569Y-119473720D01*
X110525000Y-119854126D01*
X110525000Y-120265874D01*
X110682569Y-120646280D01*
X110973720Y-120937431D01*
X111354126Y-121095000D01*
X111765874Y-121095000D01*
X112146280Y-120937431D01*
X112188711Y-120895000D01*
X112427767Y-120895000D01*
X112510000Y-120911357D01*
X112592233Y-120895000D01*
X112592237Y-120895000D01*
X112835801Y-120846552D01*
X113112001Y-120662001D01*
X113158587Y-120592280D01*
X114143579Y-119607290D01*
X114165001Y-119628712D01*
X114165000Y-120917767D01*
X114148643Y-121000000D01*
X114165000Y-121082233D01*
X114165000Y-121082236D01*
X114213448Y-121325800D01*
X114397999Y-121602001D01*
X114467720Y-121648587D01*
X120165001Y-127345870D01*
X120165001Y-127771935D01*
X119929375Y-127929375D01*
X119716157Y-128248478D01*
X119655183Y-128118642D01*
X119226924Y-127728355D01*
X118816890Y-127558524D01*
X118587000Y-127679845D01*
X118587000Y-128873000D01*
X118607000Y-128873000D01*
X118607000Y-129127000D01*
X118587000Y-129127000D01*
X118587000Y-130320155D01*
X118816890Y-130441476D01*
X119226924Y-130271645D01*
X119655183Y-129881358D01*
X119716157Y-129751522D01*
X119929375Y-130070625D01*
X120420582Y-130398839D01*
X120853744Y-130485000D01*
X121146256Y-130485000D01*
X121579418Y-130398839D01*
X122070625Y-130070625D01*
X122270000Y-129772239D01*
X122469375Y-130070625D01*
X122960582Y-130398839D01*
X123393744Y-130485000D01*
X123686256Y-130485000D01*
X124119418Y-130398839D01*
X124122057Y-130397076D01*
X123524133Y-130995000D01*
X111885868Y-130995000D01*
X110048587Y-129157720D01*
X110002001Y-129087999D01*
X109725801Y-128903448D01*
X109482237Y-128855000D01*
X109482233Y-128855000D01*
X109400000Y-128838643D01*
X109317767Y-128855000D01*
X105288711Y-128855000D01*
X105246280Y-128812569D01*
X104865874Y-128655000D01*
X104454126Y-128655000D01*
X104073720Y-128812569D01*
X103782569Y-129103720D01*
X103625000Y-129484126D01*
X103625000Y-129895874D01*
X103782569Y-130276280D01*
X104073720Y-130567431D01*
X104454126Y-130725000D01*
X104865874Y-130725000D01*
X105246280Y-130567431D01*
X105288711Y-130525000D01*
X109054133Y-130525000D01*
X110891415Y-132362283D01*
X110937999Y-132432001D01*
X111214199Y-132616552D01*
X111457763Y-132665000D01*
X111457766Y-132665000D01*
X111539999Y-132681357D01*
X111622232Y-132665000D01*
X123787767Y-132665000D01*
X123870000Y-132681357D01*
X123952233Y-132665000D01*
X123952237Y-132665000D01*
X124195801Y-132616552D01*
X124472001Y-132432001D01*
X124518587Y-132362280D01*
X126865000Y-130015868D01*
X127171414Y-130322282D01*
X127217999Y-130392001D01*
X127494199Y-130576552D01*
X127820000Y-130641358D01*
X127902237Y-130625000D01*
X130342767Y-130625000D01*
X130425000Y-130641357D01*
X130507233Y-130625000D01*
X134367767Y-130625000D01*
X134450000Y-130641357D01*
X134532233Y-130625000D01*
X134532237Y-130625000D01*
X134775801Y-130576552D01*
X135052001Y-130392001D01*
X135098587Y-130322280D01*
X136652283Y-128768585D01*
X136722001Y-128722001D01*
X136768587Y-128652280D01*
X137145869Y-128274999D01*
X137417768Y-128274999D01*
X137500001Y-128291356D01*
X137582234Y-128274999D01*
X137582238Y-128274999D01*
X137825802Y-128226551D01*
X138052614Y-128075000D01*
X138105874Y-128075000D01*
X138486280Y-127917431D01*
X138777431Y-127626280D01*
X138935000Y-127245874D01*
X138935000Y-126834126D01*
X138777431Y-126453720D01*
X138486280Y-126162569D01*
X138105874Y-126005000D01*
X137694126Y-126005000D01*
X137313720Y-126162569D01*
X137022569Y-126453720D01*
X136959907Y-126604999D01*
X136955000Y-126604999D01*
X136955000Y-122792232D01*
X136971357Y-122709999D01*
X136955000Y-122627764D01*
X136955000Y-122627763D01*
X136946644Y-122585750D01*
X141565000Y-122585750D01*
X141565000Y-124176309D01*
X141661673Y-124409698D01*
X141840301Y-124588327D01*
X142073690Y-124685000D01*
X142714250Y-124685000D01*
X142873000Y-124526250D01*
X142873000Y-122427000D01*
X143127000Y-122427000D01*
X143127000Y-124526250D01*
X143285750Y-124685000D01*
X143926310Y-124685000D01*
X144159699Y-124588327D01*
X144338327Y-124409698D01*
X144435000Y-124176309D01*
X144435000Y-122585750D01*
X150765000Y-122585750D01*
X150765000Y-124176309D01*
X150861673Y-124409698D01*
X151040301Y-124588327D01*
X151273690Y-124685000D01*
X151914250Y-124685000D01*
X152073000Y-124526250D01*
X152073000Y-122427000D01*
X152327000Y-122427000D01*
X152327000Y-124526250D01*
X152485750Y-124685000D01*
X153126310Y-124685000D01*
X153359699Y-124588327D01*
X153538327Y-124409698D01*
X153635000Y-124176309D01*
X153635000Y-122585750D01*
X153476250Y-122427000D01*
X152327000Y-122427000D01*
X152073000Y-122427000D01*
X150923750Y-122427000D01*
X150765000Y-122585750D01*
X144435000Y-122585750D01*
X144276250Y-122427000D01*
X143127000Y-122427000D01*
X142873000Y-122427000D01*
X141723750Y-122427000D01*
X141565000Y-122585750D01*
X136946644Y-122585750D01*
X136906552Y-122384199D01*
X136722001Y-122107999D01*
X136652283Y-122061415D01*
X133448587Y-118857720D01*
X133402001Y-118787999D01*
X133125801Y-118603448D01*
X132882237Y-118555000D01*
X132882233Y-118555000D01*
X132800000Y-118538643D01*
X132717767Y-118555000D01*
X128645868Y-118555000D01*
X127095000Y-117004133D01*
X127095000Y-114544126D01*
X132475000Y-114544126D01*
X132475000Y-114955874D01*
X132632569Y-115336280D01*
X132923720Y-115627431D01*
X133304126Y-115785000D01*
X133715874Y-115785000D01*
X133735000Y-115777078D01*
X133735000Y-116821289D01*
X133642569Y-116913720D01*
X133485000Y-117294126D01*
X133485000Y-117705874D01*
X133642569Y-118086280D01*
X133933720Y-118377431D01*
X134314126Y-118535000D01*
X134725874Y-118535000D01*
X134852956Y-118482361D01*
X134912569Y-118626280D01*
X135203720Y-118917431D01*
X135584126Y-119075000D01*
X135995874Y-119075000D01*
X136235000Y-118975951D01*
X136235000Y-119671289D01*
X136142569Y-119763720D01*
X135985000Y-120144126D01*
X135985000Y-120555874D01*
X136142569Y-120936280D01*
X136433720Y-121227431D01*
X136814126Y-121385000D01*
X137225874Y-121385000D01*
X137606280Y-121227431D01*
X137897431Y-120936280D01*
X138055000Y-120555874D01*
X138055000Y-120423691D01*
X141565000Y-120423691D01*
X141565000Y-122014250D01*
X141723750Y-122173000D01*
X142873000Y-122173000D01*
X142873000Y-120073750D01*
X143127000Y-120073750D01*
X143127000Y-122173000D01*
X144276250Y-122173000D01*
X144435000Y-122014250D01*
X144435000Y-120423691D01*
X150765000Y-120423691D01*
X150765000Y-122014250D01*
X150923750Y-122173000D01*
X152073000Y-122173000D01*
X152073000Y-120073750D01*
X152327000Y-120073750D01*
X152327000Y-122173000D01*
X153476250Y-122173000D01*
X153635000Y-122014250D01*
X153635000Y-120423691D01*
X153538327Y-120190302D01*
X153359699Y-120011673D01*
X153126310Y-119915000D01*
X152485750Y-119915000D01*
X152327000Y-120073750D01*
X152073000Y-120073750D01*
X151914250Y-119915000D01*
X151273690Y-119915000D01*
X151040301Y-120011673D01*
X150861673Y-120190302D01*
X150765000Y-120423691D01*
X144435000Y-120423691D01*
X144338327Y-120190302D01*
X144159699Y-120011673D01*
X143926310Y-119915000D01*
X143285750Y-119915000D01*
X143127000Y-120073750D01*
X142873000Y-120073750D01*
X142714250Y-119915000D01*
X142073690Y-119915000D01*
X141840301Y-120011673D01*
X141661673Y-120190302D01*
X141565000Y-120423691D01*
X138055000Y-120423691D01*
X138055000Y-120144126D01*
X137897431Y-119763720D01*
X137805000Y-119671289D01*
X137805000Y-114948711D01*
X138007431Y-114746280D01*
X138165000Y-114365874D01*
X138165000Y-113954126D01*
X138007431Y-113573720D01*
X137716280Y-113282569D01*
X137335874Y-113125000D01*
X136924126Y-113125000D01*
X136575000Y-113269612D01*
X136575000Y-106208711D01*
X136677431Y-106106280D01*
X136752881Y-105924126D01*
X137225000Y-105924126D01*
X137225000Y-106335874D01*
X137382569Y-106716280D01*
X137475000Y-106808711D01*
X137475001Y-110931288D01*
X137462569Y-110943720D01*
X137305000Y-111324126D01*
X137305000Y-111735874D01*
X137462569Y-112116280D01*
X137753720Y-112407431D01*
X138134126Y-112565000D01*
X138545874Y-112565000D01*
X138926280Y-112407431D01*
X139217431Y-112116280D01*
X139375000Y-111735874D01*
X139375000Y-111324126D01*
X139217431Y-110943720D01*
X139045000Y-110771289D01*
X139045000Y-106808711D01*
X139137431Y-106716280D01*
X139295000Y-106335874D01*
X139295000Y-105924126D01*
X139137431Y-105543720D01*
X138846280Y-105252569D01*
X138465874Y-105095000D01*
X138054126Y-105095000D01*
X137673720Y-105252569D01*
X137382569Y-105543720D01*
X137225000Y-105924126D01*
X136752881Y-105924126D01*
X136835000Y-105725874D01*
X136835000Y-105314126D01*
X136677431Y-104933720D01*
X136386280Y-104642569D01*
X136005874Y-104485000D01*
X135594126Y-104485000D01*
X135213720Y-104642569D01*
X134922569Y-104933720D01*
X134912704Y-104957536D01*
X134785872Y-104905000D01*
X134374124Y-104905000D01*
X133993718Y-105062569D01*
X133702567Y-105353720D01*
X133544998Y-105734126D01*
X133544998Y-106145874D01*
X133702567Y-106526280D01*
X133735001Y-106558714D01*
X133735001Y-108065000D01*
X133354126Y-108065000D01*
X132973720Y-108222569D01*
X132682569Y-108513720D01*
X132525000Y-108894126D01*
X132525000Y-109305874D01*
X132682569Y-109686280D01*
X132775000Y-109778711D01*
X132775001Y-114021288D01*
X132632569Y-114163720D01*
X132475000Y-114544126D01*
X127095000Y-114544126D01*
X127095000Y-111618711D01*
X127117431Y-111596280D01*
X127275000Y-111215874D01*
X127275000Y-110804126D01*
X127117431Y-110423720D01*
X127075000Y-110381289D01*
X127075000Y-108355867D01*
X130845869Y-104585000D01*
X130905874Y-104585000D01*
X131286280Y-104427431D01*
X131577431Y-104136280D01*
X131735000Y-103755874D01*
X131735000Y-103344126D01*
X131577431Y-102963720D01*
X131286280Y-102672569D01*
X130905874Y-102515000D01*
X130494126Y-102515000D01*
X130113720Y-102672569D01*
X129822569Y-102963720D01*
X129665000Y-103344126D01*
X129665000Y-103404131D01*
X127705000Y-105364132D01*
X127705000Y-103026578D01*
X129877344Y-100854234D01*
X131095000Y-100854234D01*
X131095000Y-101305766D01*
X131267793Y-101722926D01*
X131587074Y-102042207D01*
X132004234Y-102215000D01*
X132455766Y-102215000D01*
X132872926Y-102042207D01*
X133192207Y-101722926D01*
X133365000Y-101305766D01*
X133365000Y-100854234D01*
X133515000Y-100854234D01*
X133515000Y-101305766D01*
X133687793Y-101722926D01*
X134007074Y-102042207D01*
X134424234Y-102215000D01*
X134875766Y-102215000D01*
X135292926Y-102042207D01*
X135612207Y-101722926D01*
X135785000Y-101305766D01*
X135785000Y-100854234D01*
X136055000Y-100854234D01*
X136055000Y-101305766D01*
X136227793Y-101722926D01*
X136547074Y-102042207D01*
X136964234Y-102215000D01*
X137415766Y-102215000D01*
X137832926Y-102042207D01*
X138152207Y-101722926D01*
X138325000Y-101305766D01*
X138325000Y-100854234D01*
X138595000Y-100854234D01*
X138595000Y-101305766D01*
X138767793Y-101722926D01*
X139087074Y-102042207D01*
X139504234Y-102215000D01*
X139955766Y-102215000D01*
X140372926Y-102042207D01*
X140692207Y-101722926D01*
X140865000Y-101305766D01*
X140865000Y-100854234D01*
X140692207Y-100437074D01*
X140372926Y-100117793D01*
X139955766Y-99945000D01*
X139504234Y-99945000D01*
X139087074Y-100117793D01*
X138767793Y-100437074D01*
X138595000Y-100854234D01*
X138325000Y-100854234D01*
X138152207Y-100437074D01*
X137832926Y-100117793D01*
X137415766Y-99945000D01*
X136964234Y-99945000D01*
X136547074Y-100117793D01*
X136227793Y-100437074D01*
X136055000Y-100854234D01*
X135785000Y-100854234D01*
X135612207Y-100437074D01*
X135292926Y-100117793D01*
X134875766Y-99945000D01*
X134424234Y-99945000D01*
X134007074Y-100117793D01*
X133687793Y-100437074D01*
X133515000Y-100854234D01*
X133365000Y-100854234D01*
X133192207Y-100437074D01*
X132872926Y-100117793D01*
X132455766Y-99945000D01*
X132004234Y-99945000D01*
X131587074Y-100117793D01*
X131267793Y-100437074D01*
X131095000Y-100854234D01*
X129877344Y-100854234D01*
X133866579Y-96865000D01*
X159482036Y-96865000D01*
X162381191Y-99764156D01*
X162430565Y-99838049D01*
X162504458Y-99887423D01*
X162504459Y-99887424D01*
X162667241Y-99996192D01*
X162723304Y-100033652D01*
X162981449Y-100085000D01*
X162981453Y-100085000D01*
X163068614Y-100102337D01*
X163155775Y-100085000D01*
X177158791Y-100085000D01*
X177245952Y-100102337D01*
X177333113Y-100085000D01*
X177333117Y-100085000D01*
X177591262Y-100033652D01*
X177884001Y-99838049D01*
X177933377Y-99764153D01*
X181870108Y-95827423D01*
X181944001Y-95778049D01*
X182139604Y-95485310D01*
X182184030Y-95261964D01*
X182303717Y-95238157D01*
X182513761Y-95097809D01*
X182575952Y-95004734D01*
X182638143Y-95097809D01*
X182848187Y-95238157D01*
X183095952Y-95287440D01*
X183133684Y-95287440D01*
X182996843Y-95492235D01*
X182947560Y-95740000D01*
X182947560Y-97240000D01*
X182996843Y-97487765D01*
X183137191Y-97697809D01*
X183347235Y-97838157D01*
X183595000Y-97887440D01*
X184740000Y-97887440D01*
X184987765Y-97838157D01*
X185197809Y-97697809D01*
X185214622Y-97672647D01*
X185320302Y-97778327D01*
X185553691Y-97875000D01*
X185966750Y-97875000D01*
X186125500Y-97716250D01*
X186125500Y-96617000D01*
X186379500Y-96617000D01*
X186379500Y-97716250D01*
X186538250Y-97875000D01*
X186951309Y-97875000D01*
X187184698Y-97778327D01*
X187363327Y-97599699D01*
X187460000Y-97366310D01*
X187460000Y-96775750D01*
X187301250Y-96617000D01*
X186379500Y-96617000D01*
X186125500Y-96617000D01*
X186105500Y-96617000D01*
X186105500Y-96363000D01*
X186125500Y-96363000D01*
X186125500Y-96343000D01*
X186379500Y-96343000D01*
X186379500Y-96363000D01*
X187301250Y-96363000D01*
X187460000Y-96204250D01*
X187460000Y-95613690D01*
X187363327Y-95380301D01*
X187248148Y-95265123D01*
X187383717Y-95238157D01*
X187593761Y-95097809D01*
X187734109Y-94887765D01*
X187783392Y-94640000D01*
X187783392Y-93340000D01*
X187734109Y-93092235D01*
X187593761Y-92882191D01*
X187383717Y-92741843D01*
X187135952Y-92692560D01*
X185635952Y-92692560D01*
X185388187Y-92741843D01*
X185178143Y-92882191D01*
X185115952Y-92975266D01*
X185053761Y-92882191D01*
X184843717Y-92741843D01*
X184595952Y-92692560D01*
X183095952Y-92692560D01*
X182848187Y-92741843D01*
X182638143Y-92882191D01*
X182575952Y-92975266D01*
X182513761Y-92882191D01*
X182303717Y-92741843D01*
X182055952Y-92692560D01*
X180555952Y-92692560D01*
X180308187Y-92741843D01*
X180098143Y-92882191D01*
X179957795Y-93092235D01*
X179908512Y-93340000D01*
X179908512Y-94640000D01*
X179957795Y-94887765D01*
X180097511Y-95096863D01*
X177870000Y-97324374D01*
X177870000Y-96775750D01*
X177711250Y-96617000D01*
X176789500Y-96617000D01*
X176789500Y-97716250D01*
X176948250Y-97875000D01*
X177319374Y-97875000D01*
X176879374Y-98315000D01*
X169866578Y-98315000D01*
X172354156Y-95827423D01*
X172428049Y-95778049D01*
X172523839Y-95634691D01*
X172623652Y-95485310D01*
X172644539Y-95380301D01*
X172668078Y-95261964D01*
X172787765Y-95238157D01*
X172997809Y-95097809D01*
X173060000Y-95004734D01*
X173122191Y-95097809D01*
X173332235Y-95238157D01*
X173548664Y-95281207D01*
X173547191Y-95282191D01*
X173406843Y-95492235D01*
X173357560Y-95740000D01*
X173357560Y-97240000D01*
X173406843Y-97487765D01*
X173547191Y-97697809D01*
X173757235Y-97838157D01*
X174005000Y-97887440D01*
X175150000Y-97887440D01*
X175397765Y-97838157D01*
X175607809Y-97697809D01*
X175624622Y-97672647D01*
X175730302Y-97778327D01*
X175963691Y-97875000D01*
X176376750Y-97875000D01*
X176535500Y-97716250D01*
X176535500Y-96617000D01*
X176515500Y-96617000D01*
X176515500Y-96363000D01*
X176535500Y-96363000D01*
X176535500Y-96343000D01*
X176789500Y-96343000D01*
X176789500Y-96363000D01*
X177711250Y-96363000D01*
X177870000Y-96204250D01*
X177870000Y-95613690D01*
X177773327Y-95380301D01*
X177670434Y-95277408D01*
X177867765Y-95238157D01*
X178077809Y-95097809D01*
X178218157Y-94887765D01*
X178267440Y-94640000D01*
X178267440Y-93340000D01*
X178218157Y-93092235D01*
X178077809Y-92882191D01*
X177867765Y-92741843D01*
X177620000Y-92692560D01*
X176120000Y-92692560D01*
X175872235Y-92741843D01*
X175662191Y-92882191D01*
X175600000Y-92975266D01*
X175537809Y-92882191D01*
X175327765Y-92741843D01*
X175080000Y-92692560D01*
X173580000Y-92692560D01*
X173332235Y-92741843D01*
X173122191Y-92882191D01*
X173060000Y-92975266D01*
X172997809Y-92882191D01*
X172787765Y-92741843D01*
X172540000Y-92692560D01*
X171040000Y-92692560D01*
X170792235Y-92741843D01*
X170582191Y-92882191D01*
X170441843Y-93092235D01*
X170392560Y-93340000D01*
X170392560Y-94640000D01*
X170441843Y-94887765D01*
X170581559Y-95096863D01*
X168820000Y-96858422D01*
X168820000Y-96775750D01*
X168661250Y-96617000D01*
X167739500Y-96617000D01*
X167739500Y-96637000D01*
X167485500Y-96637000D01*
X167485500Y-96617000D01*
X167465500Y-96617000D01*
X167465500Y-96363000D01*
X167485500Y-96363000D01*
X167485500Y-96343000D01*
X167739500Y-96343000D01*
X167739500Y-96363000D01*
X168661250Y-96363000D01*
X168820000Y-96204250D01*
X168820000Y-95613690D01*
X168723327Y-95380301D01*
X168544698Y-95201673D01*
X168466682Y-95169358D01*
X168573761Y-95097809D01*
X168714109Y-94887765D01*
X168763392Y-94640000D01*
X168763392Y-93340000D01*
X168714109Y-93092235D01*
X168573761Y-92882191D01*
X168363717Y-92741843D01*
X168115952Y-92692560D01*
X166615952Y-92692560D01*
X166368187Y-92741843D01*
X166158143Y-92882191D01*
X166095952Y-92975266D01*
X166033761Y-92882191D01*
X165823717Y-92741843D01*
X165575952Y-92692560D01*
X164075952Y-92692560D01*
X163828187Y-92741843D01*
X163618143Y-92882191D01*
X163555952Y-92975266D01*
X163493761Y-92882191D01*
X163283717Y-92741843D01*
X163035952Y-92692560D01*
X161535952Y-92692560D01*
X161288187Y-92741843D01*
X161078143Y-92882191D01*
X160937795Y-93092235D01*
X160935256Y-93105000D01*
X133805158Y-93105000D01*
X133905158Y-93005000D01*
X145122688Y-93005000D01*
X145200000Y-93020378D01*
X145277312Y-93005000D01*
X145277316Y-93005000D01*
X145506292Y-92959454D01*
X145765953Y-92785953D01*
X145809749Y-92720408D01*
X146580411Y-91949747D01*
X146645953Y-91905953D01*
X146679946Y-91855079D01*
X146707074Y-91882207D01*
X147124234Y-92055000D01*
X147575766Y-92055000D01*
X147992926Y-91882207D01*
X148312207Y-91562926D01*
X148485000Y-91145766D01*
X148485000Y-90694234D01*
X148755000Y-90694234D01*
X148755000Y-91145766D01*
X148927793Y-91562926D01*
X149247074Y-91882207D01*
X149664234Y-92055000D01*
X150115766Y-92055000D01*
X150532926Y-91882207D01*
X150852207Y-91562926D01*
X151025000Y-91145766D01*
X151025000Y-90694234D01*
X150852207Y-90277074D01*
X150532926Y-89957793D01*
X150115766Y-89785000D01*
X149664234Y-89785000D01*
X149247074Y-89957793D01*
X148927793Y-90277074D01*
X148755000Y-90694234D01*
X148485000Y-90694234D01*
X148312207Y-90277074D01*
X147992926Y-89957793D01*
X147575766Y-89785000D01*
X147124234Y-89785000D01*
X146865000Y-89892378D01*
X146865000Y-89728711D01*
X147097431Y-89496280D01*
X147255000Y-89115874D01*
X147255000Y-88704126D01*
X147097431Y-88323720D01*
X146806280Y-88032569D01*
X146425874Y-87875000D01*
X146014126Y-87875000D01*
X145633720Y-88032569D01*
X145342569Y-88323720D01*
X145185000Y-88704126D01*
X145185000Y-89115874D01*
X145295000Y-89381438D01*
X145295000Y-89892378D01*
X145035766Y-89785000D01*
X144584234Y-89785000D01*
X144167074Y-89957793D01*
X143847793Y-90277074D01*
X143675000Y-90694234D01*
X143675000Y-91145766D01*
X143794804Y-91435000D01*
X143285196Y-91435000D01*
X143405000Y-91145766D01*
X143405000Y-90694234D01*
X143232207Y-90277074D01*
X142912926Y-89957793D01*
X142495766Y-89785000D01*
X142044234Y-89785000D01*
X141627074Y-89957793D01*
X141307793Y-90277074D01*
X141135000Y-90694234D01*
X141135000Y-91145766D01*
X141254804Y-91435000D01*
X140745196Y-91435000D01*
X140865000Y-91145766D01*
X140865000Y-90694234D01*
X140692207Y-90277074D01*
X140372926Y-89957793D01*
X139955766Y-89785000D01*
X139504234Y-89785000D01*
X139087074Y-89957793D01*
X138767793Y-90277074D01*
X138595000Y-90694234D01*
X138595000Y-91145766D01*
X138714804Y-91435000D01*
X138205196Y-91435000D01*
X138325000Y-91145766D01*
X138325000Y-90694234D01*
X138152207Y-90277074D01*
X137832926Y-89957793D01*
X137415766Y-89785000D01*
X136964234Y-89785000D01*
X136547074Y-89957793D01*
X136227793Y-90277074D01*
X136055000Y-90694234D01*
X136055000Y-91145766D01*
X136174804Y-91435000D01*
X135665196Y-91435000D01*
X135785000Y-91145766D01*
X135785000Y-90694234D01*
X135612207Y-90277074D01*
X135292926Y-89957793D01*
X134875766Y-89785000D01*
X134424234Y-89785000D01*
X134007074Y-89957793D01*
X133687793Y-90277074D01*
X133515000Y-90694234D01*
X133515000Y-91145766D01*
X133632784Y-91430121D01*
X133579999Y-91419622D01*
X133502688Y-91435000D01*
X133502684Y-91435000D01*
X133273708Y-91480546D01*
X133171965Y-91548529D01*
X133079591Y-91610251D01*
X133079589Y-91610253D01*
X133014047Y-91654047D01*
X132970253Y-91719589D01*
X125217440Y-99472403D01*
X125217440Y-99366270D01*
X130659776Y-93923935D01*
X130746193Y-93866193D01*
X130974948Y-93523837D01*
X131035000Y-93221935D01*
X131035000Y-93221934D01*
X131055276Y-93120001D01*
X131035000Y-93018066D01*
X131035000Y-91290619D01*
X131147793Y-91562926D01*
X131467074Y-91882207D01*
X131884234Y-92055000D01*
X132335766Y-92055000D01*
X132752926Y-91882207D01*
X133072207Y-91562926D01*
X133245000Y-91145766D01*
X133245000Y-90694234D01*
X133072207Y-90277074D01*
X132752926Y-89957793D01*
X132335766Y-89785000D01*
X131884234Y-89785000D01*
X131467074Y-89957793D01*
X131147793Y-90277074D01*
X131035000Y-90549381D01*
X131035000Y-86230777D01*
X131207809Y-86115309D01*
X131348157Y-85905265D01*
X131397440Y-85657500D01*
X131397440Y-84512500D01*
X131348157Y-84264735D01*
X131207809Y-84054691D01*
X131189564Y-84042500D01*
X131207809Y-84030309D01*
X131348157Y-83820265D01*
X131397440Y-83572500D01*
X131397440Y-82427500D01*
X131348157Y-82179735D01*
X131207809Y-81969691D01*
X130997765Y-81829343D01*
X130750000Y-81780060D01*
X129250000Y-81780060D01*
X129002235Y-81829343D01*
X128792191Y-81969691D01*
X128718484Y-82080000D01*
X128338311Y-82080000D01*
X128207809Y-81884691D01*
X127997765Y-81744343D01*
X127750000Y-81695060D01*
X126250000Y-81695060D01*
X126002235Y-81744343D01*
X125792191Y-81884691D01*
X125661689Y-82080000D01*
X114167237Y-82080000D01*
X114085000Y-82063642D01*
X114002763Y-82080000D01*
X113759199Y-82128448D01*
X113482999Y-82312999D01*
X113436415Y-82382717D01*
X110467720Y-85351413D01*
X110397999Y-85397999D01*
X110213448Y-85674200D01*
X110165000Y-85917764D01*
X110165000Y-85917767D01*
X110148643Y-86000000D01*
X110165000Y-86082233D01*
X110165001Y-87664467D01*
X110002235Y-87696843D01*
X109792191Y-87837191D01*
X109651843Y-88047235D01*
X109602560Y-88295000D01*
X109602560Y-89440000D01*
X109651843Y-89687765D01*
X109792191Y-89897809D01*
X109810436Y-89910000D01*
X109792191Y-89922191D01*
X109651843Y-90132235D01*
X109615489Y-90315000D01*
X109200696Y-90315000D01*
X109198157Y-90302235D01*
X109057809Y-90092191D01*
X108847765Y-89951843D01*
X108600000Y-89902560D01*
X106500000Y-89902560D01*
X106252235Y-89951843D01*
X106042191Y-90092191D01*
X105901843Y-90302235D01*
X105899304Y-90315000D01*
X100100696Y-90315000D01*
X100098157Y-90302235D01*
X99957809Y-90092191D01*
X99747765Y-89951843D01*
X99500000Y-89902560D01*
X97400000Y-89902560D01*
X97152235Y-89951843D01*
X96942191Y-90092191D01*
X96801843Y-90302235D01*
X96752560Y-90550000D01*
X96752560Y-91345861D01*
X96127000Y-91971422D01*
X96127000Y-87035750D01*
X96765000Y-87035750D01*
X96765000Y-87576310D01*
X96861673Y-87809699D01*
X97040302Y-87988327D01*
X97273691Y-88085000D01*
X98164250Y-88085000D01*
X98323000Y-87926250D01*
X98323000Y-86877000D01*
X98577000Y-86877000D01*
X98577000Y-87926250D01*
X98735750Y-88085000D01*
X99626309Y-88085000D01*
X99859698Y-87988327D01*
X100038327Y-87809699D01*
X100135000Y-87576310D01*
X100135000Y-87035750D01*
X105865000Y-87035750D01*
X105865000Y-87576310D01*
X105961673Y-87809699D01*
X106140302Y-87988327D01*
X106373691Y-88085000D01*
X107264250Y-88085000D01*
X107423000Y-87926250D01*
X107423000Y-86877000D01*
X107677000Y-86877000D01*
X107677000Y-87926250D01*
X107835750Y-88085000D01*
X108726309Y-88085000D01*
X108959698Y-87988327D01*
X109138327Y-87809699D01*
X109235000Y-87576310D01*
X109235000Y-87035750D01*
X109076250Y-86877000D01*
X107677000Y-86877000D01*
X107423000Y-86877000D01*
X106023750Y-86877000D01*
X105865000Y-87035750D01*
X100135000Y-87035750D01*
X99976250Y-86877000D01*
X98577000Y-86877000D01*
X98323000Y-86877000D01*
X96923750Y-86877000D01*
X96765000Y-87035750D01*
X96127000Y-87035750D01*
X96127000Y-85923690D01*
X96765000Y-85923690D01*
X96765000Y-86464250D01*
X96923750Y-86623000D01*
X98323000Y-86623000D01*
X98323000Y-85573750D01*
X98577000Y-85573750D01*
X98577000Y-86623000D01*
X99976250Y-86623000D01*
X100135000Y-86464250D01*
X100135000Y-85923690D01*
X105865000Y-85923690D01*
X105865000Y-86464250D01*
X106023750Y-86623000D01*
X107423000Y-86623000D01*
X107423000Y-85573750D01*
X107677000Y-85573750D01*
X107677000Y-86623000D01*
X109076250Y-86623000D01*
X109235000Y-86464250D01*
X109235000Y-85923690D01*
X109138327Y-85690301D01*
X108959698Y-85511673D01*
X108726309Y-85415000D01*
X107835750Y-85415000D01*
X107677000Y-85573750D01*
X107423000Y-85573750D01*
X107264250Y-85415000D01*
X106373691Y-85415000D01*
X106140302Y-85511673D01*
X105961673Y-85690301D01*
X105865000Y-85923690D01*
X100135000Y-85923690D01*
X100038327Y-85690301D01*
X99859698Y-85511673D01*
X99626309Y-85415000D01*
X98735750Y-85415000D01*
X98577000Y-85573750D01*
X98323000Y-85573750D01*
X98164250Y-85415000D01*
X97273691Y-85415000D01*
X97040302Y-85511673D01*
X96861673Y-85690301D01*
X96765000Y-85923690D01*
X96127000Y-85923690D01*
X96127000Y-81127000D01*
X157873000Y-81127000D01*
X157873000Y-88000000D01*
X157873000Y-88000000D01*
G37*
X157873000Y-88000000D02*
X157882667Y-88048601D01*
X157910197Y-88089803D01*
X157951399Y-88117333D01*
X158000000Y-88127000D01*
X188873000Y-88127000D01*
X188873000Y-100873000D01*
X151025000Y-100873000D01*
X151025000Y-100854234D01*
X150852207Y-100437074D01*
X150532926Y-100117793D01*
X150115766Y-99945000D01*
X149664234Y-99945000D01*
X149247074Y-100117793D01*
X148927793Y-100437074D01*
X148755000Y-100854234D01*
X148755000Y-100873000D01*
X148485000Y-100873000D01*
X148485000Y-100854234D01*
X148312207Y-100437074D01*
X147992926Y-100117793D01*
X147575766Y-99945000D01*
X147124234Y-99945000D01*
X146707074Y-100117793D01*
X146387793Y-100437074D01*
X146215000Y-100854234D01*
X146215000Y-100873000D01*
X145945000Y-100873000D01*
X145945000Y-100854234D01*
X145772207Y-100437074D01*
X145452926Y-100117793D01*
X145035766Y-99945000D01*
X144584234Y-99945000D01*
X144167074Y-100117793D01*
X143847793Y-100437074D01*
X143675000Y-100854234D01*
X143675000Y-100873000D01*
X143405000Y-100873000D01*
X143405000Y-100854234D01*
X143232207Y-100437074D01*
X142912926Y-100117793D01*
X142495766Y-99945000D01*
X142044234Y-99945000D01*
X141627074Y-100117793D01*
X141307793Y-100437074D01*
X141135000Y-100854234D01*
X141135000Y-100873000D01*
X141000000Y-100873000D01*
X140951399Y-100882667D01*
X140910197Y-100910197D01*
X140882667Y-100951399D01*
X140873000Y-101000000D01*
X140873000Y-119000000D01*
X140882667Y-119048601D01*
X140910197Y-119089803D01*
X140951399Y-119117333D01*
X141000000Y-119127000D01*
X157873000Y-119127000D01*
X157873000Y-124657500D01*
X157173690Y-124657500D01*
X156940301Y-124754173D01*
X156761673Y-124932802D01*
X156665000Y-125166191D01*
X156665000Y-125629250D01*
X156823750Y-125788000D01*
X157873000Y-125788000D01*
X157873000Y-126042000D01*
X156823750Y-126042000D01*
X156665000Y-126200750D01*
X156665000Y-126663809D01*
X156761673Y-126897198D01*
X156940301Y-127075827D01*
X157173690Y-127172500D01*
X157873000Y-127172500D01*
X157873000Y-127830060D01*
X157300000Y-127830060D01*
X157052235Y-127879343D01*
X156842191Y-128019691D01*
X156701843Y-128229735D01*
X156694828Y-128265000D01*
X153945868Y-128265000D01*
X153647440Y-127966572D01*
X153647440Y-125950000D01*
X153598157Y-125702235D01*
X153457809Y-125492191D01*
X153247765Y-125351843D01*
X153000000Y-125302560D01*
X151400000Y-125302560D01*
X151152235Y-125351843D01*
X150942191Y-125492191D01*
X150801843Y-125702235D01*
X150752560Y-125950000D01*
X150752560Y-126865000D01*
X149985868Y-126865000D01*
X148755000Y-125634133D01*
X148755000Y-125574126D01*
X148597431Y-125193720D01*
X148306280Y-124902569D01*
X147925874Y-124745000D01*
X147514126Y-124745000D01*
X147133720Y-124902569D01*
X146842569Y-125193720D01*
X146685000Y-125574126D01*
X146685000Y-125985874D01*
X146842569Y-126366280D01*
X147133720Y-126657431D01*
X147514126Y-126815000D01*
X147574133Y-126815000D01*
X148991415Y-128232283D01*
X149037999Y-128302001D01*
X149314199Y-128486552D01*
X149557763Y-128535000D01*
X149557766Y-128535000D01*
X149639999Y-128551357D01*
X149722232Y-128535000D01*
X150752560Y-128535000D01*
X150752560Y-129450000D01*
X150801843Y-129697765D01*
X150942191Y-129907809D01*
X151152235Y-130048157D01*
X151365000Y-130090478D01*
X151365000Y-130454131D01*
X150654133Y-131165000D01*
X149488033Y-131165000D01*
X149455657Y-131002235D01*
X149315309Y-130792191D01*
X149105265Y-130651843D01*
X148857500Y-130602560D01*
X147712500Y-130602560D01*
X147464735Y-130651843D01*
X147254691Y-130792191D01*
X147242500Y-130810436D01*
X147230309Y-130792191D01*
X147020265Y-130651843D01*
X146772500Y-130602560D01*
X145627500Y-130602560D01*
X145379735Y-130651843D01*
X145169691Y-130792191D01*
X145029343Y-131002235D01*
X145016858Y-131065000D01*
X144387289Y-131065000D01*
X143935000Y-130612711D01*
X143935000Y-130070587D01*
X144047765Y-130048157D01*
X144257809Y-129907809D01*
X144398157Y-129697765D01*
X144447440Y-129450000D01*
X144447440Y-125950000D01*
X144398157Y-125702235D01*
X144257809Y-125492191D01*
X144047765Y-125351843D01*
X143800000Y-125302560D01*
X142200000Y-125302560D01*
X141952235Y-125351843D01*
X141742191Y-125492191D01*
X141601843Y-125702235D01*
X141552560Y-125950000D01*
X141552560Y-129450000D01*
X141601843Y-129697765D01*
X141742191Y-129907809D01*
X141952235Y-130048157D01*
X142065000Y-130070587D01*
X142065000Y-130907914D01*
X142046683Y-131000000D01*
X142079504Y-131165000D01*
X142119250Y-131364818D01*
X142325903Y-131674097D01*
X142403972Y-131726261D01*
X143273739Y-132596028D01*
X143325903Y-132674097D01*
X143635181Y-132880750D01*
X143907914Y-132935000D01*
X144000000Y-132953317D01*
X144092086Y-132935000D01*
X145016858Y-132935000D01*
X145029343Y-132997765D01*
X145169691Y-133207809D01*
X145308451Y-133300526D01*
X145319250Y-133354818D01*
X145525903Y-133664097D01*
X145603972Y-133716261D01*
X145760711Y-133873000D01*
X100977780Y-133873000D01*
X101272735Y-133452340D01*
X99000000Y-131179605D01*
X96727265Y-133452340D01*
X97022220Y-133873000D01*
X96127000Y-133873000D01*
X96127000Y-132977780D01*
X96547660Y-133272735D01*
X98820395Y-131000000D01*
X99179605Y-131000000D01*
X101452340Y-133272735D01*
X101906203Y-132954499D01*
X102432936Y-131693566D01*
X102437035Y-130327044D01*
X101917878Y-129062973D01*
X101906203Y-129045501D01*
X101452340Y-128727265D01*
X99179605Y-131000000D01*
X98820395Y-131000000D01*
X96547660Y-128727265D01*
X96127000Y-129022220D01*
X96127000Y-128547660D01*
X96727265Y-128547660D01*
X99000000Y-130820395D01*
X101272735Y-128547660D01*
X100993907Y-128150000D01*
X111882560Y-128150000D01*
X111882560Y-129850000D01*
X111931843Y-130097765D01*
X112072191Y-130307809D01*
X112282235Y-130448157D01*
X112530000Y-130497440D01*
X114230000Y-130497440D01*
X114477765Y-130448157D01*
X114687809Y-130307809D01*
X114828157Y-130097765D01*
X114837184Y-130052381D01*
X114849375Y-130070625D01*
X115340582Y-130398839D01*
X115773744Y-130485000D01*
X116066256Y-130485000D01*
X116499418Y-130398839D01*
X116990625Y-130070625D01*
X117203843Y-129751522D01*
X117264817Y-129881358D01*
X117693076Y-130271645D01*
X118103110Y-130441476D01*
X118333000Y-130320155D01*
X118333000Y-129127000D01*
X118313000Y-129127000D01*
X118313000Y-128873000D01*
X118333000Y-128873000D01*
X118333000Y-127679845D01*
X118103110Y-127558524D01*
X117693076Y-127728355D01*
X117264817Y-128118642D01*
X117203843Y-128248478D01*
X116990625Y-127929375D01*
X116499418Y-127601161D01*
X116066256Y-127515000D01*
X115773744Y-127515000D01*
X115340582Y-127601161D01*
X114849375Y-127929375D01*
X114837184Y-127947619D01*
X114828157Y-127902235D01*
X114687809Y-127692191D01*
X114477765Y-127551843D01*
X114230000Y-127502560D01*
X112530000Y-127502560D01*
X112282235Y-127551843D01*
X112072191Y-127692191D01*
X111931843Y-127902235D01*
X111882560Y-128150000D01*
X100993907Y-128150000D01*
X100954499Y-128093797D01*
X99693566Y-127567064D01*
X98327044Y-127562965D01*
X97062973Y-128082122D01*
X97045501Y-128093797D01*
X96727265Y-128547660D01*
X96127000Y-128547660D01*
X96127000Y-101108579D01*
X96462577Y-101444156D01*
X96511951Y-101518049D01*
X96585844Y-101567423D01*
X96585845Y-101567424D01*
X96672479Y-101625311D01*
X96804690Y-101713652D01*
X97062835Y-101765000D01*
X97062839Y-101765000D01*
X97149999Y-101782337D01*
X97237159Y-101765000D01*
X100583422Y-101765000D01*
X103035001Y-104216580D01*
X103035000Y-112392291D01*
X102997663Y-112580000D01*
X103045001Y-112817988D01*
X103045000Y-114172839D01*
X103027663Y-114260000D01*
X103045000Y-114347161D01*
X103045000Y-114347164D01*
X103096348Y-114605309D01*
X103291951Y-114898049D01*
X103365847Y-114947425D01*
X103562569Y-115144148D01*
X103712569Y-115506280D01*
X104003720Y-115797431D01*
X104384126Y-115955000D01*
X104795874Y-115955000D01*
X105176280Y-115797431D01*
X105395001Y-115578710D01*
X105395001Y-116731991D01*
X105245000Y-117094126D01*
X105245000Y-117505874D01*
X105402569Y-117886280D01*
X105693720Y-118177431D01*
X106074126Y-118335000D01*
X106485874Y-118335000D01*
X106866280Y-118177431D01*
X107157431Y-117886280D01*
X107315000Y-117505874D01*
X107315000Y-117094126D01*
X107165000Y-116731993D01*
X107165000Y-116266578D01*
X107542577Y-116644156D01*
X107591951Y-116718049D01*
X107665844Y-116767423D01*
X107665845Y-116767424D01*
X107738833Y-116816193D01*
X107884690Y-116913652D01*
X108142835Y-116965000D01*
X108142839Y-116965000D01*
X108230000Y-116982337D01*
X108317161Y-116965000D01*
X110061993Y-116965000D01*
X110424126Y-117115000D01*
X110835874Y-117115000D01*
X111216280Y-116957431D01*
X111507431Y-116666280D01*
X111665000Y-116285874D01*
X111665000Y-115874126D01*
X111507431Y-115493720D01*
X111216280Y-115202569D01*
X110835874Y-115045000D01*
X110424126Y-115045000D01*
X110061993Y-115195000D01*
X108596579Y-115195000D01*
X108255000Y-114853422D01*
X108255000Y-108535750D01*
X115415000Y-108535750D01*
X115415000Y-108876310D01*
X115511673Y-109109699D01*
X115690302Y-109288327D01*
X115923691Y-109385000D01*
X116099250Y-109385000D01*
X116258000Y-109226250D01*
X116258000Y-108377000D01*
X115573750Y-108377000D01*
X115415000Y-108535750D01*
X108255000Y-108535750D01*
X108255000Y-107623690D01*
X115415000Y-107623690D01*
X115415000Y-107964250D01*
X115573750Y-108123000D01*
X116258000Y-108123000D01*
X116258000Y-107273750D01*
X116099250Y-107115000D01*
X115923691Y-107115000D01*
X115690302Y-107211673D01*
X115511673Y-107390301D01*
X115415000Y-107623690D01*
X108255000Y-107623690D01*
X108255000Y-105535750D01*
X115415000Y-105535750D01*
X115415000Y-105876310D01*
X115511673Y-106109699D01*
X115690302Y-106288327D01*
X115923691Y-106385000D01*
X116099250Y-106385000D01*
X116258000Y-106226250D01*
X116258000Y-105377000D01*
X115573750Y-105377000D01*
X115415000Y-105535750D01*
X108255000Y-105535750D01*
X108255000Y-105116578D01*
X108747888Y-104623690D01*
X115415000Y-104623690D01*
X115415000Y-104964250D01*
X115573750Y-105123000D01*
X116258000Y-105123000D01*
X116258000Y-104273750D01*
X116099250Y-104115000D01*
X115923691Y-104115000D01*
X115690302Y-104211673D01*
X115511673Y-104390301D01*
X115415000Y-104623690D01*
X108747888Y-104623690D01*
X110835828Y-102535750D01*
X115415000Y-102535750D01*
X115415000Y-102876310D01*
X115511673Y-103109699D01*
X115690302Y-103288327D01*
X115923691Y-103385000D01*
X116099250Y-103385000D01*
X116258000Y-103226250D01*
X116258000Y-102377000D01*
X115573750Y-102377000D01*
X115415000Y-102535750D01*
X110835828Y-102535750D01*
X111747888Y-101623690D01*
X115415000Y-101623690D01*
X115415000Y-101964250D01*
X115573750Y-102123000D01*
X116258000Y-102123000D01*
X116258000Y-101273750D01*
X116099250Y-101115000D01*
X115923691Y-101115000D01*
X115690302Y-101211673D01*
X115511673Y-101390301D01*
X115415000Y-101623690D01*
X111747888Y-101623690D01*
X112943110Y-100428469D01*
X113122235Y-100548157D01*
X113370000Y-100597440D01*
X115470000Y-100597440D01*
X115717765Y-100548157D01*
X115927809Y-100407809D01*
X116009868Y-100285000D01*
X120438486Y-100285000D01*
X120385000Y-100414126D01*
X120385000Y-100825874D01*
X120396054Y-100852560D01*
X119645000Y-100852560D01*
X119397235Y-100901843D01*
X119187191Y-101042191D01*
X119046843Y-101252235D01*
X119013412Y-101420304D01*
X118927809Y-101292191D01*
X118717765Y-101151843D01*
X118470000Y-101102560D01*
X117800000Y-101102560D01*
X117552235Y-101151843D01*
X117342191Y-101292191D01*
X117265333Y-101407216D01*
X117258327Y-101390301D01*
X117079698Y-101211673D01*
X116846309Y-101115000D01*
X116670750Y-101115000D01*
X116512000Y-101273750D01*
X116512000Y-102123000D01*
X116532000Y-102123000D01*
X116532000Y-102377000D01*
X116512000Y-102377000D01*
X116512000Y-103226250D01*
X116670750Y-103385000D01*
X116846309Y-103385000D01*
X117079698Y-103288327D01*
X117258327Y-103109699D01*
X117265333Y-103092784D01*
X117342191Y-103207809D01*
X117552235Y-103348157D01*
X117800000Y-103397440D01*
X118470000Y-103397440D01*
X118717765Y-103348157D01*
X118927809Y-103207809D01*
X119013412Y-103079696D01*
X119046843Y-103247765D01*
X119187191Y-103457809D01*
X119397235Y-103598157D01*
X119645000Y-103647440D01*
X120790000Y-103647440D01*
X121037765Y-103598157D01*
X121247809Y-103457809D01*
X121260000Y-103439564D01*
X121272191Y-103457809D01*
X121482235Y-103598157D01*
X121730000Y-103647440D01*
X122875000Y-103647440D01*
X123122765Y-103598157D01*
X123332809Y-103457809D01*
X123473157Y-103247765D01*
X123522440Y-103000000D01*
X123522440Y-102885000D01*
X124431993Y-102885000D01*
X124794126Y-103035000D01*
X124946075Y-103035000D01*
X124946074Y-104365000D01*
X123495587Y-104365000D01*
X123473157Y-104252235D01*
X123332809Y-104042191D01*
X123122765Y-103901843D01*
X122875000Y-103852560D01*
X121730000Y-103852560D01*
X121482235Y-103901843D01*
X121272191Y-104042191D01*
X121260000Y-104060436D01*
X121247809Y-104042191D01*
X121037765Y-103901843D01*
X120790000Y-103852560D01*
X119645000Y-103852560D01*
X119397235Y-103901843D01*
X119187191Y-104042191D01*
X119046843Y-104252235D01*
X119013412Y-104420304D01*
X118927809Y-104292191D01*
X118717765Y-104151843D01*
X118470000Y-104102560D01*
X117800000Y-104102560D01*
X117552235Y-104151843D01*
X117342191Y-104292191D01*
X117265333Y-104407216D01*
X117258327Y-104390301D01*
X117079698Y-104211673D01*
X116846309Y-104115000D01*
X116670750Y-104115000D01*
X116512000Y-104273750D01*
X116512000Y-105123000D01*
X116532000Y-105123000D01*
X116532000Y-105377000D01*
X116512000Y-105377000D01*
X116512000Y-106226250D01*
X116670750Y-106385000D01*
X116846309Y-106385000D01*
X117079698Y-106288327D01*
X117258327Y-106109699D01*
X117265333Y-106092784D01*
X117342191Y-106207809D01*
X117552235Y-106348157D01*
X117800000Y-106397440D01*
X118470000Y-106397440D01*
X118717765Y-106348157D01*
X118927809Y-106207809D01*
X119013412Y-106079696D01*
X119046843Y-106247765D01*
X119187191Y-106457809D01*
X119397235Y-106598157D01*
X119645000Y-106647440D01*
X120790000Y-106647440D01*
X121037765Y-106598157D01*
X121247809Y-106457809D01*
X121260000Y-106439564D01*
X121272191Y-106457809D01*
X121482235Y-106598157D01*
X121730000Y-106647440D01*
X122875000Y-106647440D01*
X123122765Y-106598157D01*
X123332809Y-106457809D01*
X123473157Y-106247765D01*
X123495587Y-106135000D01*
X125419009Y-106135000D01*
X125499911Y-106168511D01*
X124403135Y-107265287D01*
X124305874Y-107225000D01*
X123894126Y-107225000D01*
X123531993Y-107375000D01*
X123497576Y-107375000D01*
X123473157Y-107252235D01*
X123332809Y-107042191D01*
X123122765Y-106901843D01*
X122875000Y-106852560D01*
X121730000Y-106852560D01*
X121482235Y-106901843D01*
X121272191Y-107042191D01*
X121260000Y-107060436D01*
X121247809Y-107042191D01*
X121037765Y-106901843D01*
X120790000Y-106852560D01*
X119645000Y-106852560D01*
X119397235Y-106901843D01*
X119187191Y-107042191D01*
X119046843Y-107252235D01*
X119013412Y-107420304D01*
X118927809Y-107292191D01*
X118717765Y-107151843D01*
X118470000Y-107102560D01*
X117800000Y-107102560D01*
X117552235Y-107151843D01*
X117342191Y-107292191D01*
X117265333Y-107407216D01*
X117258327Y-107390301D01*
X117079698Y-107211673D01*
X116846309Y-107115000D01*
X116670750Y-107115000D01*
X116512000Y-107273750D01*
X116512000Y-108123000D01*
X116532000Y-108123000D01*
X116532000Y-108377000D01*
X116512000Y-108377000D01*
X116512000Y-109226250D01*
X116670750Y-109385000D01*
X116846309Y-109385000D01*
X117079698Y-109288327D01*
X117258327Y-109109699D01*
X117265333Y-109092784D01*
X117342191Y-109207809D01*
X117552235Y-109348157D01*
X117800000Y-109397440D01*
X118470000Y-109397440D01*
X118717765Y-109348157D01*
X118927809Y-109207809D01*
X119013412Y-109079696D01*
X119046843Y-109247765D01*
X119187191Y-109457809D01*
X119397235Y-109598157D01*
X119645000Y-109647440D01*
X120790000Y-109647440D01*
X121037765Y-109598157D01*
X121247809Y-109457809D01*
X121260000Y-109439564D01*
X121272191Y-109457809D01*
X121482235Y-109598157D01*
X121730000Y-109647440D01*
X122875000Y-109647440D01*
X123122765Y-109598157D01*
X123332809Y-109457809D01*
X123473157Y-109247765D01*
X123493598Y-109145000D01*
X123531993Y-109145000D01*
X123894126Y-109295000D01*
X124305874Y-109295000D01*
X124637133Y-109157788D01*
X124660000Y-109162337D01*
X124747161Y-109145000D01*
X124747165Y-109145000D01*
X125005310Y-109093652D01*
X125298049Y-108898049D01*
X125347425Y-108824153D01*
X125405001Y-108766577D01*
X125405000Y-110381289D01*
X125362569Y-110423720D01*
X125205000Y-110804126D01*
X125205000Y-111215874D01*
X125362569Y-111596280D01*
X125425000Y-111658711D01*
X125425001Y-117267762D01*
X125408643Y-117350000D01*
X125473448Y-117675800D01*
X125499106Y-117714200D01*
X125658000Y-117952001D01*
X125727718Y-117998585D01*
X127114132Y-119385000D01*
X119375869Y-119385000D01*
X116628587Y-116637720D01*
X116582001Y-116567999D01*
X116305801Y-116383448D01*
X116062237Y-116335000D01*
X116062233Y-116335000D01*
X115980000Y-116318643D01*
X115897767Y-116335000D01*
X114292232Y-116335000D01*
X114209999Y-116318643D01*
X114127766Y-116335000D01*
X114127763Y-116335000D01*
X113884199Y-116383448D01*
X113711798Y-116498643D01*
X113607999Y-116567999D01*
X113561416Y-116637715D01*
X112294133Y-117905000D01*
X112048711Y-117905000D01*
X112006280Y-117862569D01*
X111625874Y-117705000D01*
X111214126Y-117705000D01*
X110833720Y-117862569D01*
X110542569Y-118153720D01*
X110385000Y-118534126D01*
X110385000Y-118945874D01*
X110542569Y-119326280D01*
X110686289Y-119470000D01*
X110682569Y-119473720D01*
X110525000Y-119854126D01*
X110525000Y-120265874D01*
X110682569Y-120646280D01*
X110973720Y-120937431D01*
X111354126Y-121095000D01*
X111765874Y-121095000D01*
X112146280Y-120937431D01*
X112188711Y-120895000D01*
X112427767Y-120895000D01*
X112510000Y-120911357D01*
X112592233Y-120895000D01*
X112592237Y-120895000D01*
X112835801Y-120846552D01*
X113112001Y-120662001D01*
X113158587Y-120592280D01*
X114143579Y-119607290D01*
X114165001Y-119628712D01*
X114165000Y-120917767D01*
X114148643Y-121000000D01*
X114165000Y-121082233D01*
X114165000Y-121082236D01*
X114213448Y-121325800D01*
X114397999Y-121602001D01*
X114467720Y-121648587D01*
X120165001Y-127345870D01*
X120165001Y-127771935D01*
X119929375Y-127929375D01*
X119716157Y-128248478D01*
X119655183Y-128118642D01*
X119226924Y-127728355D01*
X118816890Y-127558524D01*
X118587000Y-127679845D01*
X118587000Y-128873000D01*
X118607000Y-128873000D01*
X118607000Y-129127000D01*
X118587000Y-129127000D01*
X118587000Y-130320155D01*
X118816890Y-130441476D01*
X119226924Y-130271645D01*
X119655183Y-129881358D01*
X119716157Y-129751522D01*
X119929375Y-130070625D01*
X120420582Y-130398839D01*
X120853744Y-130485000D01*
X121146256Y-130485000D01*
X121579418Y-130398839D01*
X122070625Y-130070625D01*
X122270000Y-129772239D01*
X122469375Y-130070625D01*
X122960582Y-130398839D01*
X123393744Y-130485000D01*
X123686256Y-130485000D01*
X124119418Y-130398839D01*
X124122057Y-130397076D01*
X123524133Y-130995000D01*
X111885868Y-130995000D01*
X110048587Y-129157720D01*
X110002001Y-129087999D01*
X109725801Y-128903448D01*
X109482237Y-128855000D01*
X109482233Y-128855000D01*
X109400000Y-128838643D01*
X109317767Y-128855000D01*
X105288711Y-128855000D01*
X105246280Y-128812569D01*
X104865874Y-128655000D01*
X104454126Y-128655000D01*
X104073720Y-128812569D01*
X103782569Y-129103720D01*
X103625000Y-129484126D01*
X103625000Y-129895874D01*
X103782569Y-130276280D01*
X104073720Y-130567431D01*
X104454126Y-130725000D01*
X104865874Y-130725000D01*
X105246280Y-130567431D01*
X105288711Y-130525000D01*
X109054133Y-130525000D01*
X110891415Y-132362283D01*
X110937999Y-132432001D01*
X111214199Y-132616552D01*
X111457763Y-132665000D01*
X111457766Y-132665000D01*
X111539999Y-132681357D01*
X111622232Y-132665000D01*
X123787767Y-132665000D01*
X123870000Y-132681357D01*
X123952233Y-132665000D01*
X123952237Y-132665000D01*
X124195801Y-132616552D01*
X124472001Y-132432001D01*
X124518587Y-132362280D01*
X126865000Y-130015868D01*
X127171414Y-130322282D01*
X127217999Y-130392001D01*
X127494199Y-130576552D01*
X127820000Y-130641358D01*
X127902237Y-130625000D01*
X130342767Y-130625000D01*
X130425000Y-130641357D01*
X130507233Y-130625000D01*
X134367767Y-130625000D01*
X134450000Y-130641357D01*
X134532233Y-130625000D01*
X134532237Y-130625000D01*
X134775801Y-130576552D01*
X135052001Y-130392001D01*
X135098587Y-130322280D01*
X136652283Y-128768585D01*
X136722001Y-128722001D01*
X136768587Y-128652280D01*
X137145869Y-128274999D01*
X137417768Y-128274999D01*
X137500001Y-128291356D01*
X137582234Y-128274999D01*
X137582238Y-128274999D01*
X137825802Y-128226551D01*
X138052614Y-128075000D01*
X138105874Y-128075000D01*
X138486280Y-127917431D01*
X138777431Y-127626280D01*
X138935000Y-127245874D01*
X138935000Y-126834126D01*
X138777431Y-126453720D01*
X138486280Y-126162569D01*
X138105874Y-126005000D01*
X137694126Y-126005000D01*
X137313720Y-126162569D01*
X137022569Y-126453720D01*
X136959907Y-126604999D01*
X136955000Y-126604999D01*
X136955000Y-122792232D01*
X136971357Y-122709999D01*
X136955000Y-122627764D01*
X136955000Y-122627763D01*
X136946644Y-122585750D01*
X141565000Y-122585750D01*
X141565000Y-124176309D01*
X141661673Y-124409698D01*
X141840301Y-124588327D01*
X142073690Y-124685000D01*
X142714250Y-124685000D01*
X142873000Y-124526250D01*
X142873000Y-122427000D01*
X143127000Y-122427000D01*
X143127000Y-124526250D01*
X143285750Y-124685000D01*
X143926310Y-124685000D01*
X144159699Y-124588327D01*
X144338327Y-124409698D01*
X144435000Y-124176309D01*
X144435000Y-122585750D01*
X150765000Y-122585750D01*
X150765000Y-124176309D01*
X150861673Y-124409698D01*
X151040301Y-124588327D01*
X151273690Y-124685000D01*
X151914250Y-124685000D01*
X152073000Y-124526250D01*
X152073000Y-122427000D01*
X152327000Y-122427000D01*
X152327000Y-124526250D01*
X152485750Y-124685000D01*
X153126310Y-124685000D01*
X153359699Y-124588327D01*
X153538327Y-124409698D01*
X153635000Y-124176309D01*
X153635000Y-122585750D01*
X153476250Y-122427000D01*
X152327000Y-122427000D01*
X152073000Y-122427000D01*
X150923750Y-122427000D01*
X150765000Y-122585750D01*
X144435000Y-122585750D01*
X144276250Y-122427000D01*
X143127000Y-122427000D01*
X142873000Y-122427000D01*
X141723750Y-122427000D01*
X141565000Y-122585750D01*
X136946644Y-122585750D01*
X136906552Y-122384199D01*
X136722001Y-122107999D01*
X136652283Y-122061415D01*
X133448587Y-118857720D01*
X133402001Y-118787999D01*
X133125801Y-118603448D01*
X132882237Y-118555000D01*
X132882233Y-118555000D01*
X132800000Y-118538643D01*
X132717767Y-118555000D01*
X128645868Y-118555000D01*
X127095000Y-117004133D01*
X127095000Y-114544126D01*
X132475000Y-114544126D01*
X132475000Y-114955874D01*
X132632569Y-115336280D01*
X132923720Y-115627431D01*
X133304126Y-115785000D01*
X133715874Y-115785000D01*
X133735000Y-115777078D01*
X133735000Y-116821289D01*
X133642569Y-116913720D01*
X133485000Y-117294126D01*
X133485000Y-117705874D01*
X133642569Y-118086280D01*
X133933720Y-118377431D01*
X134314126Y-118535000D01*
X134725874Y-118535000D01*
X134852956Y-118482361D01*
X134912569Y-118626280D01*
X135203720Y-118917431D01*
X135584126Y-119075000D01*
X135995874Y-119075000D01*
X136235000Y-118975951D01*
X136235000Y-119671289D01*
X136142569Y-119763720D01*
X135985000Y-120144126D01*
X135985000Y-120555874D01*
X136142569Y-120936280D01*
X136433720Y-121227431D01*
X136814126Y-121385000D01*
X137225874Y-121385000D01*
X137606280Y-121227431D01*
X137897431Y-120936280D01*
X138055000Y-120555874D01*
X138055000Y-120423691D01*
X141565000Y-120423691D01*
X141565000Y-122014250D01*
X141723750Y-122173000D01*
X142873000Y-122173000D01*
X142873000Y-120073750D01*
X143127000Y-120073750D01*
X143127000Y-122173000D01*
X144276250Y-122173000D01*
X144435000Y-122014250D01*
X144435000Y-120423691D01*
X150765000Y-120423691D01*
X150765000Y-122014250D01*
X150923750Y-122173000D01*
X152073000Y-122173000D01*
X152073000Y-120073750D01*
X152327000Y-120073750D01*
X152327000Y-122173000D01*
X153476250Y-122173000D01*
X153635000Y-122014250D01*
X153635000Y-120423691D01*
X153538327Y-120190302D01*
X153359699Y-120011673D01*
X153126310Y-119915000D01*
X152485750Y-119915000D01*
X152327000Y-120073750D01*
X152073000Y-120073750D01*
X151914250Y-119915000D01*
X151273690Y-119915000D01*
X151040301Y-120011673D01*
X150861673Y-120190302D01*
X150765000Y-120423691D01*
X144435000Y-120423691D01*
X144338327Y-120190302D01*
X144159699Y-120011673D01*
X143926310Y-119915000D01*
X143285750Y-119915000D01*
X143127000Y-120073750D01*
X142873000Y-120073750D01*
X142714250Y-119915000D01*
X142073690Y-119915000D01*
X141840301Y-120011673D01*
X141661673Y-120190302D01*
X141565000Y-120423691D01*
X138055000Y-120423691D01*
X138055000Y-120144126D01*
X137897431Y-119763720D01*
X137805000Y-119671289D01*
X137805000Y-114948711D01*
X138007431Y-114746280D01*
X138165000Y-114365874D01*
X138165000Y-113954126D01*
X138007431Y-113573720D01*
X137716280Y-113282569D01*
X137335874Y-113125000D01*
X136924126Y-113125000D01*
X136575000Y-113269612D01*
X136575000Y-106208711D01*
X136677431Y-106106280D01*
X136752881Y-105924126D01*
X137225000Y-105924126D01*
X137225000Y-106335874D01*
X137382569Y-106716280D01*
X137475000Y-106808711D01*
X137475001Y-110931288D01*
X137462569Y-110943720D01*
X137305000Y-111324126D01*
X137305000Y-111735874D01*
X137462569Y-112116280D01*
X137753720Y-112407431D01*
X138134126Y-112565000D01*
X138545874Y-112565000D01*
X138926280Y-112407431D01*
X139217431Y-112116280D01*
X139375000Y-111735874D01*
X139375000Y-111324126D01*
X139217431Y-110943720D01*
X139045000Y-110771289D01*
X139045000Y-106808711D01*
X139137431Y-106716280D01*
X139295000Y-106335874D01*
X139295000Y-105924126D01*
X139137431Y-105543720D01*
X138846280Y-105252569D01*
X138465874Y-105095000D01*
X138054126Y-105095000D01*
X137673720Y-105252569D01*
X137382569Y-105543720D01*
X137225000Y-105924126D01*
X136752881Y-105924126D01*
X136835000Y-105725874D01*
X136835000Y-105314126D01*
X136677431Y-104933720D01*
X136386280Y-104642569D01*
X136005874Y-104485000D01*
X135594126Y-104485000D01*
X135213720Y-104642569D01*
X134922569Y-104933720D01*
X134912704Y-104957536D01*
X134785872Y-104905000D01*
X134374124Y-104905000D01*
X133993718Y-105062569D01*
X133702567Y-105353720D01*
X133544998Y-105734126D01*
X133544998Y-106145874D01*
X133702567Y-106526280D01*
X133735001Y-106558714D01*
X133735001Y-108065000D01*
X133354126Y-108065000D01*
X132973720Y-108222569D01*
X132682569Y-108513720D01*
X132525000Y-108894126D01*
X132525000Y-109305874D01*
X132682569Y-109686280D01*
X132775000Y-109778711D01*
X132775001Y-114021288D01*
X132632569Y-114163720D01*
X132475000Y-114544126D01*
X127095000Y-114544126D01*
X127095000Y-111618711D01*
X127117431Y-111596280D01*
X127275000Y-111215874D01*
X127275000Y-110804126D01*
X127117431Y-110423720D01*
X127075000Y-110381289D01*
X127075000Y-108355867D01*
X130845869Y-104585000D01*
X130905874Y-104585000D01*
X131286280Y-104427431D01*
X131577431Y-104136280D01*
X131735000Y-103755874D01*
X131735000Y-103344126D01*
X131577431Y-102963720D01*
X131286280Y-102672569D01*
X130905874Y-102515000D01*
X130494126Y-102515000D01*
X130113720Y-102672569D01*
X129822569Y-102963720D01*
X129665000Y-103344126D01*
X129665000Y-103404131D01*
X127705000Y-105364132D01*
X127705000Y-103026578D01*
X129877344Y-100854234D01*
X131095000Y-100854234D01*
X131095000Y-101305766D01*
X131267793Y-101722926D01*
X131587074Y-102042207D01*
X132004234Y-102215000D01*
X132455766Y-102215000D01*
X132872926Y-102042207D01*
X133192207Y-101722926D01*
X133365000Y-101305766D01*
X133365000Y-100854234D01*
X133515000Y-100854234D01*
X133515000Y-101305766D01*
X133687793Y-101722926D01*
X134007074Y-102042207D01*
X134424234Y-102215000D01*
X134875766Y-102215000D01*
X135292926Y-102042207D01*
X135612207Y-101722926D01*
X135785000Y-101305766D01*
X135785000Y-100854234D01*
X136055000Y-100854234D01*
X136055000Y-101305766D01*
X136227793Y-101722926D01*
X136547074Y-102042207D01*
X136964234Y-102215000D01*
X137415766Y-102215000D01*
X137832926Y-102042207D01*
X138152207Y-101722926D01*
X138325000Y-101305766D01*
X138325000Y-100854234D01*
X138595000Y-100854234D01*
X138595000Y-101305766D01*
X138767793Y-101722926D01*
X139087074Y-102042207D01*
X139504234Y-102215000D01*
X139955766Y-102215000D01*
X140372926Y-102042207D01*
X140692207Y-101722926D01*
X140865000Y-101305766D01*
X140865000Y-100854234D01*
X140692207Y-100437074D01*
X140372926Y-100117793D01*
X139955766Y-99945000D01*
X139504234Y-99945000D01*
X139087074Y-100117793D01*
X138767793Y-100437074D01*
X138595000Y-100854234D01*
X138325000Y-100854234D01*
X138152207Y-100437074D01*
X137832926Y-100117793D01*
X137415766Y-99945000D01*
X136964234Y-99945000D01*
X136547074Y-100117793D01*
X136227793Y-100437074D01*
X136055000Y-100854234D01*
X135785000Y-100854234D01*
X135612207Y-100437074D01*
X135292926Y-100117793D01*
X134875766Y-99945000D01*
X134424234Y-99945000D01*
X134007074Y-100117793D01*
X133687793Y-100437074D01*
X133515000Y-100854234D01*
X133365000Y-100854234D01*
X133192207Y-100437074D01*
X132872926Y-100117793D01*
X132455766Y-99945000D01*
X132004234Y-99945000D01*
X131587074Y-100117793D01*
X131267793Y-100437074D01*
X131095000Y-100854234D01*
X129877344Y-100854234D01*
X133866579Y-96865000D01*
X159482036Y-96865000D01*
X162381191Y-99764156D01*
X162430565Y-99838049D01*
X162504458Y-99887423D01*
X162504459Y-99887424D01*
X162667241Y-99996192D01*
X162723304Y-100033652D01*
X162981449Y-100085000D01*
X162981453Y-100085000D01*
X163068614Y-100102337D01*
X163155775Y-100085000D01*
X177158791Y-100085000D01*
X177245952Y-100102337D01*
X177333113Y-100085000D01*
X177333117Y-100085000D01*
X177591262Y-100033652D01*
X177884001Y-99838049D01*
X177933377Y-99764153D01*
X181870108Y-95827423D01*
X181944001Y-95778049D01*
X182139604Y-95485310D01*
X182184030Y-95261964D01*
X182303717Y-95238157D01*
X182513761Y-95097809D01*
X182575952Y-95004734D01*
X182638143Y-95097809D01*
X182848187Y-95238157D01*
X183095952Y-95287440D01*
X183133684Y-95287440D01*
X182996843Y-95492235D01*
X182947560Y-95740000D01*
X182947560Y-97240000D01*
X182996843Y-97487765D01*
X183137191Y-97697809D01*
X183347235Y-97838157D01*
X183595000Y-97887440D01*
X184740000Y-97887440D01*
X184987765Y-97838157D01*
X185197809Y-97697809D01*
X185214622Y-97672647D01*
X185320302Y-97778327D01*
X185553691Y-97875000D01*
X185966750Y-97875000D01*
X186125500Y-97716250D01*
X186125500Y-96617000D01*
X186379500Y-96617000D01*
X186379500Y-97716250D01*
X186538250Y-97875000D01*
X186951309Y-97875000D01*
X187184698Y-97778327D01*
X187363327Y-97599699D01*
X187460000Y-97366310D01*
X187460000Y-96775750D01*
X187301250Y-96617000D01*
X186379500Y-96617000D01*
X186125500Y-96617000D01*
X186105500Y-96617000D01*
X186105500Y-96363000D01*
X186125500Y-96363000D01*
X186125500Y-96343000D01*
X186379500Y-96343000D01*
X186379500Y-96363000D01*
X187301250Y-96363000D01*
X187460000Y-96204250D01*
X187460000Y-95613690D01*
X187363327Y-95380301D01*
X187248148Y-95265123D01*
X187383717Y-95238157D01*
X187593761Y-95097809D01*
X187734109Y-94887765D01*
X187783392Y-94640000D01*
X187783392Y-93340000D01*
X187734109Y-93092235D01*
X187593761Y-92882191D01*
X187383717Y-92741843D01*
X187135952Y-92692560D01*
X185635952Y-92692560D01*
X185388187Y-92741843D01*
X185178143Y-92882191D01*
X185115952Y-92975266D01*
X185053761Y-92882191D01*
X184843717Y-92741843D01*
X184595952Y-92692560D01*
X183095952Y-92692560D01*
X182848187Y-92741843D01*
X182638143Y-92882191D01*
X182575952Y-92975266D01*
X182513761Y-92882191D01*
X182303717Y-92741843D01*
X182055952Y-92692560D01*
X180555952Y-92692560D01*
X180308187Y-92741843D01*
X180098143Y-92882191D01*
X179957795Y-93092235D01*
X179908512Y-93340000D01*
X179908512Y-94640000D01*
X179957795Y-94887765D01*
X180097511Y-95096863D01*
X177870000Y-97324374D01*
X177870000Y-96775750D01*
X177711250Y-96617000D01*
X176789500Y-96617000D01*
X176789500Y-97716250D01*
X176948250Y-97875000D01*
X177319374Y-97875000D01*
X176879374Y-98315000D01*
X169866578Y-98315000D01*
X172354156Y-95827423D01*
X172428049Y-95778049D01*
X172523839Y-95634691D01*
X172623652Y-95485310D01*
X172644539Y-95380301D01*
X172668078Y-95261964D01*
X172787765Y-95238157D01*
X172997809Y-95097809D01*
X173060000Y-95004734D01*
X173122191Y-95097809D01*
X173332235Y-95238157D01*
X173548664Y-95281207D01*
X173547191Y-95282191D01*
X173406843Y-95492235D01*
X173357560Y-95740000D01*
X173357560Y-97240000D01*
X173406843Y-97487765D01*
X173547191Y-97697809D01*
X173757235Y-97838157D01*
X174005000Y-97887440D01*
X175150000Y-97887440D01*
X175397765Y-97838157D01*
X175607809Y-97697809D01*
X175624622Y-97672647D01*
X175730302Y-97778327D01*
X175963691Y-97875000D01*
X176376750Y-97875000D01*
X176535500Y-97716250D01*
X176535500Y-96617000D01*
X176515500Y-96617000D01*
X176515500Y-96363000D01*
X176535500Y-96363000D01*
X176535500Y-96343000D01*
X176789500Y-96343000D01*
X176789500Y-96363000D01*
X177711250Y-96363000D01*
X177870000Y-96204250D01*
X177870000Y-95613690D01*
X177773327Y-95380301D01*
X177670434Y-95277408D01*
X177867765Y-95238157D01*
X178077809Y-95097809D01*
X178218157Y-94887765D01*
X178267440Y-94640000D01*
X178267440Y-93340000D01*
X178218157Y-93092235D01*
X178077809Y-92882191D01*
X177867765Y-92741843D01*
X177620000Y-92692560D01*
X176120000Y-92692560D01*
X175872235Y-92741843D01*
X175662191Y-92882191D01*
X175600000Y-92975266D01*
X175537809Y-92882191D01*
X175327765Y-92741843D01*
X175080000Y-92692560D01*
X173580000Y-92692560D01*
X173332235Y-92741843D01*
X173122191Y-92882191D01*
X173060000Y-92975266D01*
X172997809Y-92882191D01*
X172787765Y-92741843D01*
X172540000Y-92692560D01*
X171040000Y-92692560D01*
X170792235Y-92741843D01*
X170582191Y-92882191D01*
X170441843Y-93092235D01*
X170392560Y-93340000D01*
X170392560Y-94640000D01*
X170441843Y-94887765D01*
X170581559Y-95096863D01*
X168820000Y-96858422D01*
X168820000Y-96775750D01*
X168661250Y-96617000D01*
X167739500Y-96617000D01*
X167739500Y-96637000D01*
X167485500Y-96637000D01*
X167485500Y-96617000D01*
X167465500Y-96617000D01*
X167465500Y-96363000D01*
X167485500Y-96363000D01*
X167485500Y-96343000D01*
X167739500Y-96343000D01*
X167739500Y-96363000D01*
X168661250Y-96363000D01*
X168820000Y-96204250D01*
X168820000Y-95613690D01*
X168723327Y-95380301D01*
X168544698Y-95201673D01*
X168466682Y-95169358D01*
X168573761Y-95097809D01*
X168714109Y-94887765D01*
X168763392Y-94640000D01*
X168763392Y-93340000D01*
X168714109Y-93092235D01*
X168573761Y-92882191D01*
X168363717Y-92741843D01*
X168115952Y-92692560D01*
X166615952Y-92692560D01*
X166368187Y-92741843D01*
X166158143Y-92882191D01*
X166095952Y-92975266D01*
X166033761Y-92882191D01*
X165823717Y-92741843D01*
X165575952Y-92692560D01*
X164075952Y-92692560D01*
X163828187Y-92741843D01*
X163618143Y-92882191D01*
X163555952Y-92975266D01*
X163493761Y-92882191D01*
X163283717Y-92741843D01*
X163035952Y-92692560D01*
X161535952Y-92692560D01*
X161288187Y-92741843D01*
X161078143Y-92882191D01*
X160937795Y-93092235D01*
X160935256Y-93105000D01*
X133805158Y-93105000D01*
X133905158Y-93005000D01*
X145122688Y-93005000D01*
X145200000Y-93020378D01*
X145277312Y-93005000D01*
X145277316Y-93005000D01*
X145506292Y-92959454D01*
X145765953Y-92785953D01*
X145809749Y-92720408D01*
X146580411Y-91949747D01*
X146645953Y-91905953D01*
X146679946Y-91855079D01*
X146707074Y-91882207D01*
X147124234Y-92055000D01*
X147575766Y-92055000D01*
X147992926Y-91882207D01*
X148312207Y-91562926D01*
X148485000Y-91145766D01*
X148485000Y-90694234D01*
X148755000Y-90694234D01*
X148755000Y-91145766D01*
X148927793Y-91562926D01*
X149247074Y-91882207D01*
X149664234Y-92055000D01*
X150115766Y-92055000D01*
X150532926Y-91882207D01*
X150852207Y-91562926D01*
X151025000Y-91145766D01*
X151025000Y-90694234D01*
X150852207Y-90277074D01*
X150532926Y-89957793D01*
X150115766Y-89785000D01*
X149664234Y-89785000D01*
X149247074Y-89957793D01*
X148927793Y-90277074D01*
X148755000Y-90694234D01*
X148485000Y-90694234D01*
X148312207Y-90277074D01*
X147992926Y-89957793D01*
X147575766Y-89785000D01*
X147124234Y-89785000D01*
X146865000Y-89892378D01*
X146865000Y-89728711D01*
X147097431Y-89496280D01*
X147255000Y-89115874D01*
X147255000Y-88704126D01*
X147097431Y-88323720D01*
X146806280Y-88032569D01*
X146425874Y-87875000D01*
X146014126Y-87875000D01*
X145633720Y-88032569D01*
X145342569Y-88323720D01*
X145185000Y-88704126D01*
X145185000Y-89115874D01*
X145295000Y-89381438D01*
X145295000Y-89892378D01*
X145035766Y-89785000D01*
X144584234Y-89785000D01*
X144167074Y-89957793D01*
X143847793Y-90277074D01*
X143675000Y-90694234D01*
X143675000Y-91145766D01*
X143794804Y-91435000D01*
X143285196Y-91435000D01*
X143405000Y-91145766D01*
X143405000Y-90694234D01*
X143232207Y-90277074D01*
X142912926Y-89957793D01*
X142495766Y-89785000D01*
X142044234Y-89785000D01*
X141627074Y-89957793D01*
X141307793Y-90277074D01*
X141135000Y-90694234D01*
X141135000Y-91145766D01*
X141254804Y-91435000D01*
X140745196Y-91435000D01*
X140865000Y-91145766D01*
X140865000Y-90694234D01*
X140692207Y-90277074D01*
X140372926Y-89957793D01*
X139955766Y-89785000D01*
X139504234Y-89785000D01*
X139087074Y-89957793D01*
X138767793Y-90277074D01*
X138595000Y-90694234D01*
X138595000Y-91145766D01*
X138714804Y-91435000D01*
X138205196Y-91435000D01*
X138325000Y-91145766D01*
X138325000Y-90694234D01*
X138152207Y-90277074D01*
X137832926Y-89957793D01*
X137415766Y-89785000D01*
X136964234Y-89785000D01*
X136547074Y-89957793D01*
X136227793Y-90277074D01*
X136055000Y-90694234D01*
X136055000Y-91145766D01*
X136174804Y-91435000D01*
X135665196Y-91435000D01*
X135785000Y-91145766D01*
X135785000Y-90694234D01*
X135612207Y-90277074D01*
X135292926Y-89957793D01*
X134875766Y-89785000D01*
X134424234Y-89785000D01*
X134007074Y-89957793D01*
X133687793Y-90277074D01*
X133515000Y-90694234D01*
X133515000Y-91145766D01*
X133632784Y-91430121D01*
X133579999Y-91419622D01*
X133502688Y-91435000D01*
X133502684Y-91435000D01*
X133273708Y-91480546D01*
X133171965Y-91548529D01*
X133079591Y-91610251D01*
X133079589Y-91610253D01*
X133014047Y-91654047D01*
X132970253Y-91719589D01*
X125217440Y-99472403D01*
X125217440Y-99366270D01*
X130659776Y-93923935D01*
X130746193Y-93866193D01*
X130974948Y-93523837D01*
X131035000Y-93221935D01*
X131035000Y-93221934D01*
X131055276Y-93120001D01*
X131035000Y-93018066D01*
X131035000Y-91290619D01*
X131147793Y-91562926D01*
X131467074Y-91882207D01*
X131884234Y-92055000D01*
X132335766Y-92055000D01*
X132752926Y-91882207D01*
X133072207Y-91562926D01*
X133245000Y-91145766D01*
X133245000Y-90694234D01*
X133072207Y-90277074D01*
X132752926Y-89957793D01*
X132335766Y-89785000D01*
X131884234Y-89785000D01*
X131467074Y-89957793D01*
X131147793Y-90277074D01*
X131035000Y-90549381D01*
X131035000Y-86230777D01*
X131207809Y-86115309D01*
X131348157Y-85905265D01*
X131397440Y-85657500D01*
X131397440Y-84512500D01*
X131348157Y-84264735D01*
X131207809Y-84054691D01*
X131189564Y-84042500D01*
X131207809Y-84030309D01*
X131348157Y-83820265D01*
X131397440Y-83572500D01*
X131397440Y-82427500D01*
X131348157Y-82179735D01*
X131207809Y-81969691D01*
X130997765Y-81829343D01*
X130750000Y-81780060D01*
X129250000Y-81780060D01*
X129002235Y-81829343D01*
X128792191Y-81969691D01*
X128718484Y-82080000D01*
X128338311Y-82080000D01*
X128207809Y-81884691D01*
X127997765Y-81744343D01*
X127750000Y-81695060D01*
X126250000Y-81695060D01*
X126002235Y-81744343D01*
X125792191Y-81884691D01*
X125661689Y-82080000D01*
X114167237Y-82080000D01*
X114085000Y-82063642D01*
X114002763Y-82080000D01*
X113759199Y-82128448D01*
X113482999Y-82312999D01*
X113436415Y-82382717D01*
X110467720Y-85351413D01*
X110397999Y-85397999D01*
X110213448Y-85674200D01*
X110165000Y-85917764D01*
X110165000Y-85917767D01*
X110148643Y-86000000D01*
X110165000Y-86082233D01*
X110165001Y-87664467D01*
X110002235Y-87696843D01*
X109792191Y-87837191D01*
X109651843Y-88047235D01*
X109602560Y-88295000D01*
X109602560Y-89440000D01*
X109651843Y-89687765D01*
X109792191Y-89897809D01*
X109810436Y-89910000D01*
X109792191Y-89922191D01*
X109651843Y-90132235D01*
X109615489Y-90315000D01*
X109200696Y-90315000D01*
X109198157Y-90302235D01*
X109057809Y-90092191D01*
X108847765Y-89951843D01*
X108600000Y-89902560D01*
X106500000Y-89902560D01*
X106252235Y-89951843D01*
X106042191Y-90092191D01*
X105901843Y-90302235D01*
X105899304Y-90315000D01*
X100100696Y-90315000D01*
X100098157Y-90302235D01*
X99957809Y-90092191D01*
X99747765Y-89951843D01*
X99500000Y-89902560D01*
X97400000Y-89902560D01*
X97152235Y-89951843D01*
X96942191Y-90092191D01*
X96801843Y-90302235D01*
X96752560Y-90550000D01*
X96752560Y-91345861D01*
X96127000Y-91971422D01*
X96127000Y-87035750D01*
X96765000Y-87035750D01*
X96765000Y-87576310D01*
X96861673Y-87809699D01*
X97040302Y-87988327D01*
X97273691Y-88085000D01*
X98164250Y-88085000D01*
X98323000Y-87926250D01*
X98323000Y-86877000D01*
X98577000Y-86877000D01*
X98577000Y-87926250D01*
X98735750Y-88085000D01*
X99626309Y-88085000D01*
X99859698Y-87988327D01*
X100038327Y-87809699D01*
X100135000Y-87576310D01*
X100135000Y-87035750D01*
X105865000Y-87035750D01*
X105865000Y-87576310D01*
X105961673Y-87809699D01*
X106140302Y-87988327D01*
X106373691Y-88085000D01*
X107264250Y-88085000D01*
X107423000Y-87926250D01*
X107423000Y-86877000D01*
X107677000Y-86877000D01*
X107677000Y-87926250D01*
X107835750Y-88085000D01*
X108726309Y-88085000D01*
X108959698Y-87988327D01*
X109138327Y-87809699D01*
X109235000Y-87576310D01*
X109235000Y-87035750D01*
X109076250Y-86877000D01*
X107677000Y-86877000D01*
X107423000Y-86877000D01*
X106023750Y-86877000D01*
X105865000Y-87035750D01*
X100135000Y-87035750D01*
X99976250Y-86877000D01*
X98577000Y-86877000D01*
X98323000Y-86877000D01*
X96923750Y-86877000D01*
X96765000Y-87035750D01*
X96127000Y-87035750D01*
X96127000Y-85923690D01*
X96765000Y-85923690D01*
X96765000Y-86464250D01*
X96923750Y-86623000D01*
X98323000Y-86623000D01*
X98323000Y-85573750D01*
X98577000Y-85573750D01*
X98577000Y-86623000D01*
X99976250Y-86623000D01*
X100135000Y-86464250D01*
X100135000Y-85923690D01*
X105865000Y-85923690D01*
X105865000Y-86464250D01*
X106023750Y-86623000D01*
X107423000Y-86623000D01*
X107423000Y-85573750D01*
X107677000Y-85573750D01*
X107677000Y-86623000D01*
X109076250Y-86623000D01*
X109235000Y-86464250D01*
X109235000Y-85923690D01*
X109138327Y-85690301D01*
X108959698Y-85511673D01*
X108726309Y-85415000D01*
X107835750Y-85415000D01*
X107677000Y-85573750D01*
X107423000Y-85573750D01*
X107264250Y-85415000D01*
X106373691Y-85415000D01*
X106140302Y-85511673D01*
X105961673Y-85690301D01*
X105865000Y-85923690D01*
X100135000Y-85923690D01*
X100038327Y-85690301D01*
X99859698Y-85511673D01*
X99626309Y-85415000D01*
X98735750Y-85415000D01*
X98577000Y-85573750D01*
X98323000Y-85573750D01*
X98164250Y-85415000D01*
X97273691Y-85415000D01*
X97040302Y-85511673D01*
X96861673Y-85690301D01*
X96765000Y-85923690D01*
X96127000Y-85923690D01*
X96127000Y-81127000D01*
X157873000Y-81127000D01*
X157873000Y-88000000D01*
G36*
X117831415Y-121452283D02*
X117877999Y-121522001D01*
X118154199Y-121706552D01*
X118397763Y-121755000D01*
X118397766Y-121755000D01*
X118479999Y-121771357D01*
X118562232Y-121755000D01*
X122436974Y-121755000D01*
X122401673Y-121790301D01*
X122305000Y-122023690D01*
X122305000Y-122714250D01*
X122463750Y-122873000D01*
X123663000Y-122873000D01*
X123663000Y-122853000D01*
X123917000Y-122853000D01*
X123917000Y-122873000D01*
X123937000Y-122873000D01*
X123937000Y-123127000D01*
X123917000Y-123127000D01*
X123917000Y-124326250D01*
X124075750Y-124485000D01*
X124766309Y-124485000D01*
X124999698Y-124388327D01*
X125178327Y-124209699D01*
X125244904Y-124048968D01*
X125259375Y-124070625D01*
X125750582Y-124398839D01*
X126183744Y-124485000D01*
X126476256Y-124485000D01*
X126607939Y-124458807D01*
X128070533Y-125921401D01*
X127919691Y-126022191D01*
X127907500Y-126040436D01*
X127895309Y-126022191D01*
X127685265Y-125881843D01*
X127437500Y-125832560D01*
X126292500Y-125832560D01*
X126044735Y-125881843D01*
X125834691Y-126022191D01*
X125694343Y-126232235D01*
X125645060Y-126480000D01*
X125645060Y-127980000D01*
X125694343Y-128227765D01*
X125834691Y-128437809D01*
X125982536Y-128536596D01*
X124937076Y-129582056D01*
X124938839Y-129579418D01*
X125054092Y-129000000D01*
X124938839Y-128420582D01*
X124610625Y-127929375D01*
X124119418Y-127601161D01*
X123686256Y-127515000D01*
X123393744Y-127515000D01*
X122960582Y-127601161D01*
X122469375Y-127929375D01*
X122270000Y-128227761D01*
X122070625Y-127929375D01*
X121835000Y-127771935D01*
X121835000Y-127082232D01*
X121851357Y-126999999D01*
X121835000Y-126917766D01*
X121835000Y-126917763D01*
X121786552Y-126674199D01*
X121728955Y-126587999D01*
X121648584Y-126467715D01*
X121648583Y-126467714D01*
X121602001Y-126397999D01*
X121532286Y-126351417D01*
X118466618Y-123285750D01*
X122305000Y-123285750D01*
X122305000Y-123976310D01*
X122401673Y-124209699D01*
X122580302Y-124388327D01*
X122813691Y-124485000D01*
X123504250Y-124485000D01*
X123663000Y-124326250D01*
X123663000Y-123127000D01*
X122463750Y-123127000D01*
X122305000Y-123285750D01*
X118466618Y-123285750D01*
X115835000Y-120654133D01*
X115835000Y-119628711D01*
X115877431Y-119586280D01*
X115903200Y-119524068D01*
X117831415Y-121452283D01*
X117831415Y-121452283D01*
G37*
X117831415Y-121452283D02*
X117877999Y-121522001D01*
X118154199Y-121706552D01*
X118397763Y-121755000D01*
X118397766Y-121755000D01*
X118479999Y-121771357D01*
X118562232Y-121755000D01*
X122436974Y-121755000D01*
X122401673Y-121790301D01*
X122305000Y-122023690D01*
X122305000Y-122714250D01*
X122463750Y-122873000D01*
X123663000Y-122873000D01*
X123663000Y-122853000D01*
X123917000Y-122853000D01*
X123917000Y-122873000D01*
X123937000Y-122873000D01*
X123937000Y-123127000D01*
X123917000Y-123127000D01*
X123917000Y-124326250D01*
X124075750Y-124485000D01*
X124766309Y-124485000D01*
X124999698Y-124388327D01*
X125178327Y-124209699D01*
X125244904Y-124048968D01*
X125259375Y-124070625D01*
X125750582Y-124398839D01*
X126183744Y-124485000D01*
X126476256Y-124485000D01*
X126607939Y-124458807D01*
X128070533Y-125921401D01*
X127919691Y-126022191D01*
X127907500Y-126040436D01*
X127895309Y-126022191D01*
X127685265Y-125881843D01*
X127437500Y-125832560D01*
X126292500Y-125832560D01*
X126044735Y-125881843D01*
X125834691Y-126022191D01*
X125694343Y-126232235D01*
X125645060Y-126480000D01*
X125645060Y-127980000D01*
X125694343Y-128227765D01*
X125834691Y-128437809D01*
X125982536Y-128536596D01*
X124937076Y-129582056D01*
X124938839Y-129579418D01*
X125054092Y-129000000D01*
X124938839Y-128420582D01*
X124610625Y-127929375D01*
X124119418Y-127601161D01*
X123686256Y-127515000D01*
X123393744Y-127515000D01*
X122960582Y-127601161D01*
X122469375Y-127929375D01*
X122270000Y-128227761D01*
X122070625Y-127929375D01*
X121835000Y-127771935D01*
X121835000Y-127082232D01*
X121851357Y-126999999D01*
X121835000Y-126917766D01*
X121835000Y-126917763D01*
X121786552Y-126674199D01*
X121728955Y-126587999D01*
X121648584Y-126467715D01*
X121648583Y-126467714D01*
X121602001Y-126397999D01*
X121532286Y-126351417D01*
X118466618Y-123285750D01*
X122305000Y-123285750D01*
X122305000Y-123976310D01*
X122401673Y-124209699D01*
X122580302Y-124388327D01*
X122813691Y-124485000D01*
X123504250Y-124485000D01*
X123663000Y-124326250D01*
X123663000Y-123127000D01*
X122463750Y-123127000D01*
X122305000Y-123285750D01*
X118466618Y-123285750D01*
X115835000Y-120654133D01*
X115835000Y-119628711D01*
X115877431Y-119586280D01*
X115903200Y-119524068D01*
X117831415Y-121452283D01*
G36*
X131055342Y-121515000D02*
X131054207Y-121515000D01*
X131054207Y-121673748D01*
X130895459Y-121515000D01*
X130204900Y-121515000D01*
X129971511Y-121611673D01*
X129792882Y-121790301D01*
X129696209Y-122023690D01*
X129696209Y-122714250D01*
X129854959Y-122873000D01*
X131054209Y-122873000D01*
X131054209Y-122853000D01*
X131308209Y-122853000D01*
X131308209Y-122873000D01*
X131328209Y-122873000D01*
X131328209Y-123127000D01*
X131308209Y-123127000D01*
X131308209Y-124326250D01*
X131466959Y-124485000D01*
X132157518Y-124485000D01*
X132390907Y-124388327D01*
X132569536Y-124209699D01*
X132636113Y-124048968D01*
X132650584Y-124070625D01*
X133125001Y-124387620D01*
X133125000Y-125851688D01*
X132929691Y-125982191D01*
X132917500Y-126000436D01*
X132905309Y-125982191D01*
X132695265Y-125841843D01*
X132447500Y-125792560D01*
X131302500Y-125792560D01*
X131054735Y-125841843D01*
X130844691Y-125982191D01*
X130704343Y-126192235D01*
X130655060Y-126440000D01*
X130655060Y-127940000D01*
X130704343Y-128187765D01*
X130761230Y-128272902D01*
X130079133Y-128955000D01*
X128165868Y-128955000D01*
X127747464Y-128536597D01*
X127895309Y-128437809D01*
X127907500Y-128419564D01*
X127919691Y-128437809D01*
X128129735Y-128578157D01*
X128377500Y-128627440D01*
X129522500Y-128627440D01*
X129770265Y-128578157D01*
X129980309Y-128437809D01*
X130120657Y-128227765D01*
X130169940Y-127980000D01*
X130169940Y-126480000D01*
X130120657Y-126232235D01*
X129980309Y-126022191D01*
X129785000Y-125891689D01*
X129785000Y-125702235D01*
X129801358Y-125620000D01*
X129736552Y-125294200D01*
X129736552Y-125294199D01*
X129552001Y-125017999D01*
X129482283Y-124971415D01*
X127796618Y-123285750D01*
X129696209Y-123285750D01*
X129696209Y-123976310D01*
X129792882Y-124209699D01*
X129971511Y-124388327D01*
X130204900Y-124485000D01*
X130895459Y-124485000D01*
X131054209Y-124326250D01*
X131054209Y-123127000D01*
X129854959Y-123127000D01*
X129696209Y-123285750D01*
X127796618Y-123285750D01*
X127788807Y-123277939D01*
X127844092Y-123000000D01*
X127728839Y-122420582D01*
X127400625Y-121929375D01*
X127179721Y-121781772D01*
X127116552Y-121464199D01*
X127024077Y-121325801D01*
X126932001Y-121187999D01*
X126862283Y-121141415D01*
X126775868Y-121055000D01*
X130595342Y-121055000D01*
X131055342Y-121515000D01*
X131055342Y-121515000D01*
G37*
X131055342Y-121515000D02*
X131054207Y-121515000D01*
X131054207Y-121673748D01*
X130895459Y-121515000D01*
X130204900Y-121515000D01*
X129971511Y-121611673D01*
X129792882Y-121790301D01*
X129696209Y-122023690D01*
X129696209Y-122714250D01*
X129854959Y-122873000D01*
X131054209Y-122873000D01*
X131054209Y-122853000D01*
X131308209Y-122853000D01*
X131308209Y-122873000D01*
X131328209Y-122873000D01*
X131328209Y-123127000D01*
X131308209Y-123127000D01*
X131308209Y-124326250D01*
X131466959Y-124485000D01*
X132157518Y-124485000D01*
X132390907Y-124388327D01*
X132569536Y-124209699D01*
X132636113Y-124048968D01*
X132650584Y-124070625D01*
X133125001Y-124387620D01*
X133125000Y-125851688D01*
X132929691Y-125982191D01*
X132917500Y-126000436D01*
X132905309Y-125982191D01*
X132695265Y-125841843D01*
X132447500Y-125792560D01*
X131302500Y-125792560D01*
X131054735Y-125841843D01*
X130844691Y-125982191D01*
X130704343Y-126192235D01*
X130655060Y-126440000D01*
X130655060Y-127940000D01*
X130704343Y-128187765D01*
X130761230Y-128272902D01*
X130079133Y-128955000D01*
X128165868Y-128955000D01*
X127747464Y-128536597D01*
X127895309Y-128437809D01*
X127907500Y-128419564D01*
X127919691Y-128437809D01*
X128129735Y-128578157D01*
X128377500Y-128627440D01*
X129522500Y-128627440D01*
X129770265Y-128578157D01*
X129980309Y-128437809D01*
X130120657Y-128227765D01*
X130169940Y-127980000D01*
X130169940Y-126480000D01*
X130120657Y-126232235D01*
X129980309Y-126022191D01*
X129785000Y-125891689D01*
X129785000Y-125702235D01*
X129801358Y-125620000D01*
X129736552Y-125294200D01*
X129736552Y-125294199D01*
X129552001Y-125017999D01*
X129482283Y-124971415D01*
X127796618Y-123285750D01*
X129696209Y-123285750D01*
X129696209Y-123976310D01*
X129792882Y-124209699D01*
X129971511Y-124388327D01*
X130204900Y-124485000D01*
X130895459Y-124485000D01*
X131054209Y-124326250D01*
X131054209Y-123127000D01*
X129854959Y-123127000D01*
X129696209Y-123285750D01*
X127796618Y-123285750D01*
X127788807Y-123277939D01*
X127844092Y-123000000D01*
X127728839Y-122420582D01*
X127400625Y-121929375D01*
X127179721Y-121781772D01*
X127116552Y-121464199D01*
X127024077Y-121325801D01*
X126932001Y-121187999D01*
X126862283Y-121141415D01*
X126775868Y-121055000D01*
X130595342Y-121055000D01*
X131055342Y-121515000D01*
G36*
X109907718Y-93621415D02*
X109838000Y-93667999D01*
X109791416Y-93737717D01*
X109784839Y-93747560D01*
X109690000Y-93747560D01*
X109442235Y-93796843D01*
X109235000Y-93935314D01*
X109235000Y-93923690D01*
X109138327Y-93690301D01*
X108959698Y-93511673D01*
X108726309Y-93415000D01*
X107835750Y-93415000D01*
X107677000Y-93573750D01*
X107677000Y-94623000D01*
X107697000Y-94623000D01*
X107697000Y-94877000D01*
X107677000Y-94877000D01*
X107677000Y-95926250D01*
X107835750Y-96085000D01*
X108726309Y-96085000D01*
X108959698Y-95988327D01*
X109119247Y-95828778D01*
X109232191Y-95997809D01*
X109250436Y-96010000D01*
X109232191Y-96022191D01*
X109091843Y-96232235D01*
X109042560Y-96480000D01*
X109042560Y-97198361D01*
X108338362Y-97902560D01*
X106500000Y-97902560D01*
X106252235Y-97951843D01*
X106042191Y-98092191D01*
X105901843Y-98302235D01*
X105899304Y-98315000D01*
X100100696Y-98315000D01*
X100098157Y-98302235D01*
X99957809Y-98092191D01*
X99747765Y-97951843D01*
X99500000Y-97902560D01*
X97415000Y-97902560D01*
X97415000Y-96085000D01*
X98164250Y-96085000D01*
X98323000Y-95926250D01*
X98323000Y-94877000D01*
X98577000Y-94877000D01*
X98577000Y-95926250D01*
X98735750Y-96085000D01*
X99626309Y-96085000D01*
X99859698Y-95988327D01*
X100038327Y-95809699D01*
X100135000Y-95576310D01*
X100135000Y-95035750D01*
X105865000Y-95035750D01*
X105865000Y-95576310D01*
X105961673Y-95809699D01*
X106140302Y-95988327D01*
X106373691Y-96085000D01*
X107264250Y-96085000D01*
X107423000Y-95926250D01*
X107423000Y-94877000D01*
X106023750Y-94877000D01*
X105865000Y-95035750D01*
X100135000Y-95035750D01*
X99976250Y-94877000D01*
X98577000Y-94877000D01*
X98323000Y-94877000D01*
X98303000Y-94877000D01*
X98303000Y-94623000D01*
X98323000Y-94623000D01*
X98323000Y-93573750D01*
X98577000Y-93573750D01*
X98577000Y-94623000D01*
X99976250Y-94623000D01*
X100135000Y-94464250D01*
X100135000Y-93923690D01*
X105865000Y-93923690D01*
X105865000Y-94464250D01*
X106023750Y-94623000D01*
X107423000Y-94623000D01*
X107423000Y-93573750D01*
X107264250Y-93415000D01*
X106373691Y-93415000D01*
X106140302Y-93511673D01*
X105961673Y-93690301D01*
X105865000Y-93923690D01*
X100135000Y-93923690D01*
X100038327Y-93690301D01*
X99859698Y-93511673D01*
X99626309Y-93415000D01*
X98735750Y-93415000D01*
X98577000Y-93573750D01*
X98323000Y-93573750D01*
X98164250Y-93415000D01*
X97415000Y-93415000D01*
X97415000Y-93186578D01*
X98004139Y-92597440D01*
X99500000Y-92597440D01*
X99747765Y-92548157D01*
X99957809Y-92407809D01*
X100098157Y-92197765D01*
X100100696Y-92185000D01*
X105899304Y-92185000D01*
X105901843Y-92197765D01*
X106042191Y-92407809D01*
X106252235Y-92548157D01*
X106500000Y-92597440D01*
X108600000Y-92597440D01*
X108847765Y-92548157D01*
X109057809Y-92407809D01*
X109198157Y-92197765D01*
X109200696Y-92185000D01*
X110610414Y-92185000D01*
X110702500Y-92203317D01*
X110794586Y-92185000D01*
X110857729Y-92172440D01*
X111356692Y-92172440D01*
X109907718Y-93621415D01*
X109907718Y-93621415D01*
G37*
X109907718Y-93621415D02*
X109838000Y-93667999D01*
X109791416Y-93737717D01*
X109784839Y-93747560D01*
X109690000Y-93747560D01*
X109442235Y-93796843D01*
X109235000Y-93935314D01*
X109235000Y-93923690D01*
X109138327Y-93690301D01*
X108959698Y-93511673D01*
X108726309Y-93415000D01*
X107835750Y-93415000D01*
X107677000Y-93573750D01*
X107677000Y-94623000D01*
X107697000Y-94623000D01*
X107697000Y-94877000D01*
X107677000Y-94877000D01*
X107677000Y-95926250D01*
X107835750Y-96085000D01*
X108726309Y-96085000D01*
X108959698Y-95988327D01*
X109119247Y-95828778D01*
X109232191Y-95997809D01*
X109250436Y-96010000D01*
X109232191Y-96022191D01*
X109091843Y-96232235D01*
X109042560Y-96480000D01*
X109042560Y-97198361D01*
X108338362Y-97902560D01*
X106500000Y-97902560D01*
X106252235Y-97951843D01*
X106042191Y-98092191D01*
X105901843Y-98302235D01*
X105899304Y-98315000D01*
X100100696Y-98315000D01*
X100098157Y-98302235D01*
X99957809Y-98092191D01*
X99747765Y-97951843D01*
X99500000Y-97902560D01*
X97415000Y-97902560D01*
X97415000Y-96085000D01*
X98164250Y-96085000D01*
X98323000Y-95926250D01*
X98323000Y-94877000D01*
X98577000Y-94877000D01*
X98577000Y-95926250D01*
X98735750Y-96085000D01*
X99626309Y-96085000D01*
X99859698Y-95988327D01*
X100038327Y-95809699D01*
X100135000Y-95576310D01*
X100135000Y-95035750D01*
X105865000Y-95035750D01*
X105865000Y-95576310D01*
X105961673Y-95809699D01*
X106140302Y-95988327D01*
X106373691Y-96085000D01*
X107264250Y-96085000D01*
X107423000Y-95926250D01*
X107423000Y-94877000D01*
X106023750Y-94877000D01*
X105865000Y-95035750D01*
X100135000Y-95035750D01*
X99976250Y-94877000D01*
X98577000Y-94877000D01*
X98323000Y-94877000D01*
X98303000Y-94877000D01*
X98303000Y-94623000D01*
X98323000Y-94623000D01*
X98323000Y-93573750D01*
X98577000Y-93573750D01*
X98577000Y-94623000D01*
X99976250Y-94623000D01*
X100135000Y-94464250D01*
X100135000Y-93923690D01*
X105865000Y-93923690D01*
X105865000Y-94464250D01*
X106023750Y-94623000D01*
X107423000Y-94623000D01*
X107423000Y-93573750D01*
X107264250Y-93415000D01*
X106373691Y-93415000D01*
X106140302Y-93511673D01*
X105961673Y-93690301D01*
X105865000Y-93923690D01*
X100135000Y-93923690D01*
X100038327Y-93690301D01*
X99859698Y-93511673D01*
X99626309Y-93415000D01*
X98735750Y-93415000D01*
X98577000Y-93573750D01*
X98323000Y-93573750D01*
X98164250Y-93415000D01*
X97415000Y-93415000D01*
X97415000Y-93186578D01*
X98004139Y-92597440D01*
X99500000Y-92597440D01*
X99747765Y-92548157D01*
X99957809Y-92407809D01*
X100098157Y-92197765D01*
X100100696Y-92185000D01*
X105899304Y-92185000D01*
X105901843Y-92197765D01*
X106042191Y-92407809D01*
X106252235Y-92548157D01*
X106500000Y-92597440D01*
X108600000Y-92597440D01*
X108847765Y-92548157D01*
X109057809Y-92407809D01*
X109198157Y-92197765D01*
X109200696Y-92185000D01*
X110610414Y-92185000D01*
X110702500Y-92203317D01*
X110794586Y-92185000D01*
X110857729Y-92172440D01*
X111356692Y-92172440D01*
X109907718Y-93621415D01*
G36*
X128965000Y-92691289D02*
X123753730Y-97902560D01*
X122470000Y-97902560D01*
X122222235Y-97951843D01*
X122012191Y-98092191D01*
X121930132Y-98215000D01*
X116009868Y-98215000D01*
X115927809Y-98092191D01*
X115717765Y-97951843D01*
X115470000Y-97902560D01*
X113370000Y-97902560D01*
X113122235Y-97951843D01*
X113015000Y-98023496D01*
X113015000Y-95990273D01*
X113243691Y-96085000D01*
X114134250Y-96085000D01*
X114293000Y-95926250D01*
X114293000Y-94877000D01*
X114547000Y-94877000D01*
X114547000Y-95926250D01*
X114705750Y-96085000D01*
X115596309Y-96085000D01*
X115829698Y-95988327D01*
X116008327Y-95809699D01*
X116105000Y-95576310D01*
X116105000Y-95035750D01*
X121835000Y-95035750D01*
X121835000Y-95576310D01*
X121931673Y-95809699D01*
X122110302Y-95988327D01*
X122343691Y-96085000D01*
X123234250Y-96085000D01*
X123393000Y-95926250D01*
X123393000Y-94877000D01*
X123647000Y-94877000D01*
X123647000Y-95926250D01*
X123805750Y-96085000D01*
X124696309Y-96085000D01*
X124929698Y-95988327D01*
X125108327Y-95809699D01*
X125205000Y-95576310D01*
X125205000Y-95035750D01*
X125046250Y-94877000D01*
X123647000Y-94877000D01*
X123393000Y-94877000D01*
X121993750Y-94877000D01*
X121835000Y-95035750D01*
X116105000Y-95035750D01*
X115946250Y-94877000D01*
X114547000Y-94877000D01*
X114293000Y-94877000D01*
X114273000Y-94877000D01*
X114273000Y-94623000D01*
X114293000Y-94623000D01*
X114293000Y-93573750D01*
X114547000Y-93573750D01*
X114547000Y-94623000D01*
X115946250Y-94623000D01*
X116105000Y-94464250D01*
X116105000Y-93923690D01*
X121835000Y-93923690D01*
X121835000Y-94464250D01*
X121993750Y-94623000D01*
X123393000Y-94623000D01*
X123393000Y-93573750D01*
X123234250Y-93415000D01*
X122343691Y-93415000D01*
X122110302Y-93511673D01*
X121931673Y-93690301D01*
X121835000Y-93923690D01*
X116105000Y-93923690D01*
X116008327Y-93690301D01*
X115829698Y-93511673D01*
X115596309Y-93415000D01*
X114705750Y-93415000D01*
X114547000Y-93573750D01*
X114293000Y-93573750D01*
X114134250Y-93415000D01*
X113986578Y-93415000D01*
X114804139Y-92597440D01*
X115650000Y-92597440D01*
X115897765Y-92548157D01*
X116107809Y-92407809D01*
X116248157Y-92197765D01*
X116250696Y-92185000D01*
X122049304Y-92185000D01*
X122051843Y-92197765D01*
X122192191Y-92407809D01*
X122402235Y-92548157D01*
X122650000Y-92597440D01*
X124344990Y-92597440D01*
X124344990Y-92986911D01*
X124502559Y-93367317D01*
X124550242Y-93415000D01*
X123805750Y-93415000D01*
X123647000Y-93573750D01*
X123647000Y-94623000D01*
X125046250Y-94623000D01*
X125205000Y-94464250D01*
X125205000Y-93923690D01*
X125157570Y-93809183D01*
X125174116Y-93816037D01*
X125585864Y-93816037D01*
X125966270Y-93658468D01*
X126257421Y-93367317D01*
X126414990Y-92986911D01*
X126414990Y-92856194D01*
X128651468Y-90619716D01*
X128717013Y-90575920D01*
X128798810Y-90453503D01*
X128965000Y-90287313D01*
X128965000Y-92691289D01*
X128965000Y-92691289D01*
G37*
X128965000Y-92691289D02*
X123753730Y-97902560D01*
X122470000Y-97902560D01*
X122222235Y-97951843D01*
X122012191Y-98092191D01*
X121930132Y-98215000D01*
X116009868Y-98215000D01*
X115927809Y-98092191D01*
X115717765Y-97951843D01*
X115470000Y-97902560D01*
X113370000Y-97902560D01*
X113122235Y-97951843D01*
X113015000Y-98023496D01*
X113015000Y-95990273D01*
X113243691Y-96085000D01*
X114134250Y-96085000D01*
X114293000Y-95926250D01*
X114293000Y-94877000D01*
X114547000Y-94877000D01*
X114547000Y-95926250D01*
X114705750Y-96085000D01*
X115596309Y-96085000D01*
X115829698Y-95988327D01*
X116008327Y-95809699D01*
X116105000Y-95576310D01*
X116105000Y-95035750D01*
X121835000Y-95035750D01*
X121835000Y-95576310D01*
X121931673Y-95809699D01*
X122110302Y-95988327D01*
X122343691Y-96085000D01*
X123234250Y-96085000D01*
X123393000Y-95926250D01*
X123393000Y-94877000D01*
X123647000Y-94877000D01*
X123647000Y-95926250D01*
X123805750Y-96085000D01*
X124696309Y-96085000D01*
X124929698Y-95988327D01*
X125108327Y-95809699D01*
X125205000Y-95576310D01*
X125205000Y-95035750D01*
X125046250Y-94877000D01*
X123647000Y-94877000D01*
X123393000Y-94877000D01*
X121993750Y-94877000D01*
X121835000Y-95035750D01*
X116105000Y-95035750D01*
X115946250Y-94877000D01*
X114547000Y-94877000D01*
X114293000Y-94877000D01*
X114273000Y-94877000D01*
X114273000Y-94623000D01*
X114293000Y-94623000D01*
X114293000Y-93573750D01*
X114547000Y-93573750D01*
X114547000Y-94623000D01*
X115946250Y-94623000D01*
X116105000Y-94464250D01*
X116105000Y-93923690D01*
X121835000Y-93923690D01*
X121835000Y-94464250D01*
X121993750Y-94623000D01*
X123393000Y-94623000D01*
X123393000Y-93573750D01*
X123234250Y-93415000D01*
X122343691Y-93415000D01*
X122110302Y-93511673D01*
X121931673Y-93690301D01*
X121835000Y-93923690D01*
X116105000Y-93923690D01*
X116008327Y-93690301D01*
X115829698Y-93511673D01*
X115596309Y-93415000D01*
X114705750Y-93415000D01*
X114547000Y-93573750D01*
X114293000Y-93573750D01*
X114134250Y-93415000D01*
X113986578Y-93415000D01*
X114804139Y-92597440D01*
X115650000Y-92597440D01*
X115897765Y-92548157D01*
X116107809Y-92407809D01*
X116248157Y-92197765D01*
X116250696Y-92185000D01*
X122049304Y-92185000D01*
X122051843Y-92197765D01*
X122192191Y-92407809D01*
X122402235Y-92548157D01*
X122650000Y-92597440D01*
X124344990Y-92597440D01*
X124344990Y-92986911D01*
X124502559Y-93367317D01*
X124550242Y-93415000D01*
X123805750Y-93415000D01*
X123647000Y-93573750D01*
X123647000Y-94623000D01*
X125046250Y-94623000D01*
X125205000Y-94464250D01*
X125205000Y-93923690D01*
X125157570Y-93809183D01*
X125174116Y-93816037D01*
X125585864Y-93816037D01*
X125966270Y-93658468D01*
X126257421Y-93367317D01*
X126414990Y-92986911D01*
X126414990Y-92856194D01*
X128651468Y-90619716D01*
X128717013Y-90575920D01*
X128798810Y-90453503D01*
X128965000Y-90287313D01*
X128965000Y-92691289D01*
G36*
X124713448Y-83911700D02*
X124648643Y-84237500D01*
X124665001Y-84319738D01*
X124665000Y-85415000D01*
X123985750Y-85415000D01*
X123827000Y-85573750D01*
X123827000Y-86623000D01*
X123847000Y-86623000D01*
X123847000Y-86877000D01*
X123827000Y-86877000D01*
X123827000Y-87926250D01*
X123985750Y-88085000D01*
X124876309Y-88085000D01*
X125109698Y-87988327D01*
X125197157Y-87900868D01*
X125273720Y-87977431D01*
X125654126Y-88135000D01*
X126065001Y-88135000D01*
X126065001Y-88612710D01*
X124770978Y-89906733D01*
X124750000Y-89902560D01*
X122650000Y-89902560D01*
X122402235Y-89951843D01*
X122192191Y-90092191D01*
X122051843Y-90302235D01*
X122049304Y-90315000D01*
X116250696Y-90315000D01*
X116248157Y-90302235D01*
X116107809Y-90092191D01*
X115897765Y-89951843D01*
X115650000Y-89902560D01*
X113550000Y-89902560D01*
X113485000Y-89915489D01*
X113485000Y-89772237D01*
X113501358Y-89690000D01*
X113475544Y-89560226D01*
X113436552Y-89364199D01*
X113252001Y-89087999D01*
X113182282Y-89041414D01*
X112476087Y-88335220D01*
X112429501Y-88265499D01*
X112385758Y-88236271D01*
X112348157Y-88047235D01*
X112207809Y-87837191D01*
X111997765Y-87696843D01*
X111835000Y-87664467D01*
X111835000Y-87035750D01*
X112915000Y-87035750D01*
X112915000Y-87576310D01*
X113011673Y-87809699D01*
X113190302Y-87988327D01*
X113423691Y-88085000D01*
X114314250Y-88085000D01*
X114473000Y-87926250D01*
X114473000Y-86877000D01*
X114727000Y-86877000D01*
X114727000Y-87926250D01*
X114885750Y-88085000D01*
X115776309Y-88085000D01*
X116009698Y-87988327D01*
X116188327Y-87809699D01*
X116285000Y-87576310D01*
X116285000Y-87035750D01*
X122015000Y-87035750D01*
X122015000Y-87576310D01*
X122111673Y-87809699D01*
X122290302Y-87988327D01*
X122523691Y-88085000D01*
X123414250Y-88085000D01*
X123573000Y-87926250D01*
X123573000Y-86877000D01*
X122173750Y-86877000D01*
X122015000Y-87035750D01*
X116285000Y-87035750D01*
X116126250Y-86877000D01*
X114727000Y-86877000D01*
X114473000Y-86877000D01*
X113073750Y-86877000D01*
X112915000Y-87035750D01*
X111835000Y-87035750D01*
X111835000Y-86345867D01*
X112257177Y-85923690D01*
X112915000Y-85923690D01*
X112915000Y-86464250D01*
X113073750Y-86623000D01*
X114473000Y-86623000D01*
X114473000Y-85573750D01*
X114727000Y-85573750D01*
X114727000Y-86623000D01*
X116126250Y-86623000D01*
X116285000Y-86464250D01*
X116285000Y-85923690D01*
X122015000Y-85923690D01*
X122015000Y-86464250D01*
X122173750Y-86623000D01*
X123573000Y-86623000D01*
X123573000Y-85573750D01*
X123414250Y-85415000D01*
X122523691Y-85415000D01*
X122290302Y-85511673D01*
X122111673Y-85690301D01*
X122015000Y-85923690D01*
X116285000Y-85923690D01*
X116188327Y-85690301D01*
X116009698Y-85511673D01*
X115776309Y-85415000D01*
X114885750Y-85415000D01*
X114727000Y-85573750D01*
X114473000Y-85573750D01*
X114314250Y-85415000D01*
X113423691Y-85415000D01*
X113190302Y-85511673D01*
X113011673Y-85690301D01*
X112915000Y-85923690D01*
X112257177Y-85923690D01*
X114430868Y-83750000D01*
X124821493Y-83750000D01*
X124713448Y-83911700D01*
X124713448Y-83911700D01*
G37*
X124713448Y-83911700D02*
X124648643Y-84237500D01*
X124665001Y-84319738D01*
X124665000Y-85415000D01*
X123985750Y-85415000D01*
X123827000Y-85573750D01*
X123827000Y-86623000D01*
X123847000Y-86623000D01*
X123847000Y-86877000D01*
X123827000Y-86877000D01*
X123827000Y-87926250D01*
X123985750Y-88085000D01*
X124876309Y-88085000D01*
X125109698Y-87988327D01*
X125197157Y-87900868D01*
X125273720Y-87977431D01*
X125654126Y-88135000D01*
X126065001Y-88135000D01*
X126065001Y-88612710D01*
X124770978Y-89906733D01*
X124750000Y-89902560D01*
X122650000Y-89902560D01*
X122402235Y-89951843D01*
X122192191Y-90092191D01*
X122051843Y-90302235D01*
X122049304Y-90315000D01*
X116250696Y-90315000D01*
X116248157Y-90302235D01*
X116107809Y-90092191D01*
X115897765Y-89951843D01*
X115650000Y-89902560D01*
X113550000Y-89902560D01*
X113485000Y-89915489D01*
X113485000Y-89772237D01*
X113501358Y-89690000D01*
X113475544Y-89560226D01*
X113436552Y-89364199D01*
X113252001Y-89087999D01*
X113182282Y-89041414D01*
X112476087Y-88335220D01*
X112429501Y-88265499D01*
X112385758Y-88236271D01*
X112348157Y-88047235D01*
X112207809Y-87837191D01*
X111997765Y-87696843D01*
X111835000Y-87664467D01*
X111835000Y-87035750D01*
X112915000Y-87035750D01*
X112915000Y-87576310D01*
X113011673Y-87809699D01*
X113190302Y-87988327D01*
X113423691Y-88085000D01*
X114314250Y-88085000D01*
X114473000Y-87926250D01*
X114473000Y-86877000D01*
X114727000Y-86877000D01*
X114727000Y-87926250D01*
X114885750Y-88085000D01*
X115776309Y-88085000D01*
X116009698Y-87988327D01*
X116188327Y-87809699D01*
X116285000Y-87576310D01*
X116285000Y-87035750D01*
X122015000Y-87035750D01*
X122015000Y-87576310D01*
X122111673Y-87809699D01*
X122290302Y-87988327D01*
X122523691Y-88085000D01*
X123414250Y-88085000D01*
X123573000Y-87926250D01*
X123573000Y-86877000D01*
X122173750Y-86877000D01*
X122015000Y-87035750D01*
X116285000Y-87035750D01*
X116126250Y-86877000D01*
X114727000Y-86877000D01*
X114473000Y-86877000D01*
X113073750Y-86877000D01*
X112915000Y-87035750D01*
X111835000Y-87035750D01*
X111835000Y-86345867D01*
X112257177Y-85923690D01*
X112915000Y-85923690D01*
X112915000Y-86464250D01*
X113073750Y-86623000D01*
X114473000Y-86623000D01*
X114473000Y-85573750D01*
X114727000Y-85573750D01*
X114727000Y-86623000D01*
X116126250Y-86623000D01*
X116285000Y-86464250D01*
X116285000Y-85923690D01*
X122015000Y-85923690D01*
X122015000Y-86464250D01*
X122173750Y-86623000D01*
X123573000Y-86623000D01*
X123573000Y-85573750D01*
X123414250Y-85415000D01*
X122523691Y-85415000D01*
X122290302Y-85511673D01*
X122111673Y-85690301D01*
X122015000Y-85923690D01*
X116285000Y-85923690D01*
X116188327Y-85690301D01*
X116009698Y-85511673D01*
X115776309Y-85415000D01*
X114885750Y-85415000D01*
X114727000Y-85573750D01*
X114473000Y-85573750D01*
X114314250Y-85415000D01*
X113423691Y-85415000D01*
X113190302Y-85511673D01*
X113011673Y-85690301D01*
X112915000Y-85923690D01*
X112257177Y-85923690D01*
X114430868Y-83750000D01*
X124821493Y-83750000D01*
X124713448Y-83911700D01*
M02*
