G04 #@! TF.GenerationSoftware,KiCad,Pcbnew,no-vcs-found-a35cc44~61~ubuntu16.04.1*
G04 #@! TF.CreationDate,2018-02-08T08:45:13-05:00*
G04 #@! TF.ProjectId,D21_2550,4432315F323535302E6B696361645F70,rev?*
G04 #@! TF.SameCoordinates,Original*
G04 #@! TF.FileFunction,Other,Fab,Top*
%FSLAX46Y46*%
G04 Gerber Fmt 4.6, Leading zero omitted, Abs format (unit mm)*
G04 Created by KiCad (PCBNEW no-vcs-found-a35cc44~61~ubuntu16.04.1) date Thu Feb  8 08:45:13 2018*
%MOMM*%
%LPD*%
G01*
G04 APERTURE LIST*
%ADD10C,0.100000*%
%ADD11C,0.150000*%
%ADD12C,0.080000*%
%ADD13C,0.120000*%
G04 APERTURE END LIST*
D10*
X85457500Y-94100000D02*
X83457500Y-94100000D01*
X85457500Y-92900000D02*
X85457500Y-94100000D01*
X83457500Y-92900000D02*
X85457500Y-92900000D01*
X83457500Y-94100000D02*
X83457500Y-92900000D01*
X91981500Y-86036000D02*
X91981500Y-84836000D01*
X91981500Y-84836000D02*
X93981500Y-84836000D01*
X93981500Y-84836000D02*
X93981500Y-86036000D01*
X93981500Y-86036000D02*
X91981500Y-86036000D01*
X101957500Y-85790000D02*
X99957500Y-85790000D01*
X101957500Y-84590000D02*
X101957500Y-85790000D01*
X99957500Y-84590000D02*
X101957500Y-84590000D01*
X99957500Y-85790000D02*
X99957500Y-84590000D01*
X91040000Y-52040000D02*
X92240000Y-52040000D01*
X92240000Y-52040000D02*
X92240000Y-54040000D01*
X92240000Y-54040000D02*
X91040000Y-54040000D01*
X91040000Y-54040000D02*
X91040000Y-52040000D01*
X91040000Y-60852500D02*
X92240000Y-60852500D01*
X92240000Y-60852500D02*
X92240000Y-62852500D01*
X92240000Y-62852500D02*
X91040000Y-62852500D01*
X91040000Y-62852500D02*
X91040000Y-60852500D01*
X149600000Y-51957500D02*
X149600000Y-53957500D01*
X148400000Y-51957500D02*
X149600000Y-51957500D01*
X148400000Y-53957500D02*
X148400000Y-51957500D01*
X149600000Y-53957500D02*
X148400000Y-53957500D01*
X149600000Y-61042500D02*
X149600000Y-63042500D01*
X148400000Y-61042500D02*
X149600000Y-61042500D01*
X148400000Y-63042500D02*
X148400000Y-61042500D01*
X149600000Y-63042500D02*
X148400000Y-63042500D01*
X89143500Y-79664000D02*
X91143500Y-79664000D01*
X89143500Y-80864000D02*
X89143500Y-79664000D01*
X91143500Y-80864000D02*
X89143500Y-80864000D01*
X91143500Y-79664000D02*
X91143500Y-80864000D01*
X91143500Y-75854000D02*
X91143500Y-77054000D01*
X91143500Y-77054000D02*
X89143500Y-77054000D01*
X89143500Y-77054000D02*
X89143500Y-75854000D01*
X89143500Y-75854000D02*
X91143500Y-75854000D01*
X89143500Y-72044000D02*
X91143500Y-72044000D01*
X89143500Y-73244000D02*
X89143500Y-72044000D01*
X91143500Y-73244000D02*
X89143500Y-73244000D01*
X91143500Y-72044000D02*
X91143500Y-73244000D01*
X113090000Y-70350000D02*
X112040000Y-71400000D01*
X113090000Y-70350000D02*
X113090000Y-64700000D01*
X112040000Y-71400000D02*
X109390000Y-71400000D01*
X113090000Y-64700000D02*
X109390000Y-64700000D01*
X109390000Y-71400000D02*
X109390000Y-64700000D01*
X129100000Y-64950000D02*
X129100000Y-71650000D01*
X125400000Y-71650000D02*
X129100000Y-71650000D01*
X126450000Y-64950000D02*
X129100000Y-64950000D01*
X125400000Y-66000000D02*
X125400000Y-71650000D01*
X125400000Y-66000000D02*
X126450000Y-64950000D01*
X125060000Y-74890000D02*
X126110000Y-73840000D01*
X125060000Y-74890000D02*
X125060000Y-80540000D01*
X126110000Y-73840000D02*
X128760000Y-73840000D01*
X125060000Y-80540000D02*
X128760000Y-80540000D01*
X128760000Y-73840000D02*
X128760000Y-80540000D01*
X111413000Y-90232000D02*
X111413000Y-89732000D01*
X111413000Y-89732000D02*
X110213000Y-89732000D01*
X110213000Y-89732000D02*
X110213000Y-94102000D01*
X110213000Y-94102000D02*
X128863000Y-94102000D01*
X128863000Y-94102000D02*
X128863000Y-89732000D01*
X128863000Y-89732000D02*
X127663000Y-89732000D01*
X127663000Y-89732000D02*
X127663000Y-90232000D01*
X127663000Y-90232000D02*
X111413000Y-90232000D01*
X110213000Y-90862000D02*
X111413000Y-90232000D01*
X128863000Y-90862000D02*
X127663000Y-90232000D01*
X118838000Y-94102000D02*
X118838000Y-95502000D01*
X118838000Y-95502000D02*
X120238000Y-95502000D01*
X120238000Y-95502000D02*
X120238000Y-94102000D01*
X113038000Y-90232000D02*
X113538000Y-90939107D01*
X113538000Y-90939107D02*
X114038000Y-90232000D01*
X91694000Y-88138000D02*
X95504000Y-88138000D01*
X95504000Y-88138000D02*
X95504000Y-90678000D01*
X95504000Y-90678000D02*
X90424000Y-90678000D01*
X90424000Y-90678000D02*
X90424000Y-89408000D01*
X90424000Y-89408000D02*
X91694000Y-88138000D01*
X98230000Y-89190000D02*
X99500000Y-87920000D01*
X98230000Y-90460000D02*
X98230000Y-89190000D01*
X103310000Y-90460000D02*
X98230000Y-90460000D01*
X103310000Y-87920000D02*
X103310000Y-90460000D01*
X99500000Y-87920000D02*
X103310000Y-87920000D01*
X98100000Y-67055000D02*
X98100000Y-68960000D01*
X98100000Y-68960000D02*
X85400000Y-68960000D01*
X85400000Y-68960000D02*
X85400000Y-66420000D01*
X85400000Y-66420000D02*
X97465000Y-66420000D01*
X97465000Y-66420000D02*
X98100000Y-67055000D01*
X123050000Y-80780000D02*
X123050000Y-83280000D01*
X123050000Y-83280000D02*
X132050000Y-83280000D01*
X132050000Y-83280000D02*
X132050000Y-80780000D01*
X132050000Y-80780000D02*
X123050000Y-80780000D01*
X117050000Y-80780000D02*
X108050000Y-80780000D01*
X117050000Y-83280000D02*
X117050000Y-80780000D01*
X108050000Y-83280000D02*
X117050000Y-83280000D01*
X108050000Y-80780000D02*
X108050000Y-83280000D01*
X140050000Y-80780000D02*
X140050000Y-83280000D01*
X140050000Y-83280000D02*
X149050000Y-83280000D01*
X149050000Y-83280000D02*
X149050000Y-80780000D01*
X149050000Y-80780000D02*
X140050000Y-80780000D01*
X84578000Y-90424000D02*
X85078000Y-90424000D01*
X84578000Y-90824000D02*
X83978000Y-90424000D01*
X84578000Y-90024000D02*
X84578000Y-90824000D01*
X83978000Y-90424000D02*
X84578000Y-90024000D01*
X83978000Y-90424000D02*
X83978000Y-90974000D01*
X83978000Y-90424000D02*
X83978000Y-89874000D01*
X83578000Y-90424000D02*
X83978000Y-90424000D01*
X82928000Y-91324000D02*
X82928000Y-89524000D01*
X85728000Y-91324000D02*
X82928000Y-91324000D01*
X85728000Y-89524000D02*
X85728000Y-91324000D01*
X82928000Y-89524000D02*
X85728000Y-89524000D01*
X124200000Y-85430000D02*
X124200000Y-88630000D01*
X124200000Y-88630000D02*
X133200000Y-88630000D01*
X133200000Y-88630000D02*
X133200000Y-85430000D01*
X133200000Y-85430000D02*
X124200000Y-85430000D01*
X122350000Y-87030000D02*
X124200000Y-87030000D01*
X135050000Y-87030000D02*
X133200000Y-87030000D01*
X119050000Y-87030000D02*
X117200000Y-87030000D01*
X106350000Y-87030000D02*
X108200000Y-87030000D01*
X117200000Y-85430000D02*
X108200000Y-85430000D01*
X117200000Y-88630000D02*
X117200000Y-85430000D01*
X108200000Y-88630000D02*
X117200000Y-88630000D01*
X108200000Y-85430000D02*
X108200000Y-88630000D01*
X139900000Y-85430000D02*
X139900000Y-88630000D01*
X139900000Y-88630000D02*
X148900000Y-88630000D01*
X148900000Y-88630000D02*
X148900000Y-85430000D01*
X148900000Y-85430000D02*
X139900000Y-85430000D01*
X138050000Y-87030000D02*
X139900000Y-87030000D01*
X150750000Y-87030000D02*
X148900000Y-87030000D01*
X95000000Y-50000000D02*
X101000000Y-50000000D01*
X101000000Y-50000000D02*
X101000000Y-56000000D01*
X101000000Y-56000000D02*
X95000000Y-56000000D01*
X95000000Y-56000000D02*
X95000000Y-50000000D01*
X99700000Y-53000000D02*
G75*
G03X99700000Y-53000000I-1700000J0D01*
G01*
X95000000Y-59000000D02*
X101000000Y-59000000D01*
X101000000Y-59000000D02*
X101000000Y-65000000D01*
X101000000Y-65000000D02*
X95000000Y-65000000D01*
X95000000Y-65000000D02*
X95000000Y-59000000D01*
X99700000Y-62000000D02*
G75*
G03X99700000Y-62000000I-1700000J0D01*
G01*
X139000000Y-50000000D02*
X145000000Y-50000000D01*
X145000000Y-50000000D02*
X145000000Y-56000000D01*
X145000000Y-56000000D02*
X139000000Y-56000000D01*
X139000000Y-56000000D02*
X139000000Y-50000000D01*
X143700000Y-53000000D02*
G75*
G03X143700000Y-53000000I-1700000J0D01*
G01*
X143490000Y-62000000D02*
G75*
G03X143490000Y-62000000I-1700000J0D01*
G01*
X138790000Y-65000000D02*
X138790000Y-59000000D01*
X144790000Y-65000000D02*
X138790000Y-65000000D01*
X144790000Y-59000000D02*
X144790000Y-65000000D01*
X138790000Y-59000000D02*
X144790000Y-59000000D01*
X98302000Y-80772000D02*
G75*
G03X98302000Y-80772000I-1250000J0D01*
G01*
X98752000Y-81372000D02*
X97852000Y-82272000D01*
X95352000Y-79272000D02*
X95352000Y-82272000D01*
X95352000Y-82272000D02*
X98752000Y-82272000D01*
X98752000Y-82272000D02*
X98752000Y-79272000D01*
X98752000Y-79272000D02*
X95352000Y-79272000D01*
X98728000Y-74700000D02*
X95328000Y-74700000D01*
X98728000Y-77700000D02*
X98728000Y-74700000D01*
X95328000Y-77700000D02*
X98728000Y-77700000D01*
X95328000Y-74700000D02*
X95328000Y-77700000D01*
X98728000Y-76800000D02*
X97828000Y-77700000D01*
X98278000Y-76200000D02*
G75*
G03X98278000Y-76200000I-1250000J0D01*
G01*
X98048000Y-71628000D02*
G75*
G03X98048000Y-71628000I-1250000J0D01*
G01*
X98498000Y-72228000D02*
X97598000Y-73128000D01*
X95098000Y-70128000D02*
X95098000Y-73128000D01*
X95098000Y-73128000D02*
X98498000Y-73128000D01*
X98498000Y-73128000D02*
X98498000Y-70128000D01*
X98498000Y-70128000D02*
X95098000Y-70128000D01*
D11*
X83862261Y-95802380D02*
X83290833Y-95802380D01*
X83576547Y-95802380D02*
X83576547Y-94802380D01*
X83481309Y-94945238D01*
X83386071Y-95040476D01*
X83290833Y-95088095D01*
X84481309Y-94802380D02*
X84576547Y-94802380D01*
X84671785Y-94850000D01*
X84719404Y-94897619D01*
X84767023Y-94992857D01*
X84814642Y-95183333D01*
X84814642Y-95421428D01*
X84767023Y-95611904D01*
X84719404Y-95707142D01*
X84671785Y-95754761D01*
X84576547Y-95802380D01*
X84481309Y-95802380D01*
X84386071Y-95754761D01*
X84338452Y-95707142D01*
X84290833Y-95611904D01*
X84243214Y-95421428D01*
X84243214Y-95183333D01*
X84290833Y-94992857D01*
X84338452Y-94897619D01*
X84386071Y-94850000D01*
X84481309Y-94802380D01*
X85243214Y-95802380D02*
X85243214Y-94802380D01*
X85338452Y-95421428D02*
X85624166Y-95802380D01*
X85624166Y-95135714D02*
X85243214Y-95516666D01*
D12*
X84374166Y-93726190D02*
X84207500Y-93488095D01*
X84088452Y-93726190D02*
X84088452Y-93226190D01*
X84278928Y-93226190D01*
X84326547Y-93250000D01*
X84350357Y-93273809D01*
X84374166Y-93321428D01*
X84374166Y-93392857D01*
X84350357Y-93440476D01*
X84326547Y-93464285D01*
X84278928Y-93488095D01*
X84088452Y-93488095D01*
X84564642Y-93273809D02*
X84588452Y-93250000D01*
X84636071Y-93226190D01*
X84755119Y-93226190D01*
X84802738Y-93250000D01*
X84826547Y-93273809D01*
X84850357Y-93321428D01*
X84850357Y-93369047D01*
X84826547Y-93440476D01*
X84540833Y-93726190D01*
X84850357Y-93726190D01*
D11*
X91814833Y-86833619D02*
X91862452Y-86786000D01*
X91957690Y-86738380D01*
X92195785Y-86738380D01*
X92291023Y-86786000D01*
X92338642Y-86833619D01*
X92386261Y-86928857D01*
X92386261Y-87024095D01*
X92338642Y-87166952D01*
X91767214Y-87738380D01*
X92386261Y-87738380D01*
X93005309Y-86738380D02*
X93100547Y-86738380D01*
X93195785Y-86786000D01*
X93243404Y-86833619D01*
X93291023Y-86928857D01*
X93338642Y-87119333D01*
X93338642Y-87357428D01*
X93291023Y-87547904D01*
X93243404Y-87643142D01*
X93195785Y-87690761D01*
X93100547Y-87738380D01*
X93005309Y-87738380D01*
X92910071Y-87690761D01*
X92862452Y-87643142D01*
X92814833Y-87547904D01*
X92767214Y-87357428D01*
X92767214Y-87119333D01*
X92814833Y-86928857D01*
X92862452Y-86833619D01*
X92910071Y-86786000D01*
X93005309Y-86738380D01*
X93767214Y-87738380D02*
X93767214Y-86738380D01*
X93862452Y-87357428D02*
X94148166Y-87738380D01*
X94148166Y-87071714D02*
X93767214Y-87452666D01*
D12*
X92660071Y-85662190D02*
X92493404Y-85424095D01*
X92374357Y-85662190D02*
X92374357Y-85162190D01*
X92564833Y-85162190D01*
X92612452Y-85186000D01*
X92636261Y-85209809D01*
X92660071Y-85257428D01*
X92660071Y-85328857D01*
X92636261Y-85376476D01*
X92612452Y-85400285D01*
X92564833Y-85424095D01*
X92374357Y-85424095D01*
X93136261Y-85662190D02*
X92850547Y-85662190D01*
X92993404Y-85662190D02*
X92993404Y-85162190D01*
X92945785Y-85233619D01*
X92898166Y-85281238D01*
X92850547Y-85305047D01*
X93421976Y-85376476D02*
X93374357Y-85352666D01*
X93350547Y-85328857D01*
X93326738Y-85281238D01*
X93326738Y-85257428D01*
X93350547Y-85209809D01*
X93374357Y-85186000D01*
X93421976Y-85162190D01*
X93517214Y-85162190D01*
X93564833Y-85186000D01*
X93588642Y-85209809D01*
X93612452Y-85257428D01*
X93612452Y-85281238D01*
X93588642Y-85328857D01*
X93564833Y-85352666D01*
X93517214Y-85376476D01*
X93421976Y-85376476D01*
X93374357Y-85400285D01*
X93350547Y-85424095D01*
X93326738Y-85471714D01*
X93326738Y-85566952D01*
X93350547Y-85614571D01*
X93374357Y-85638380D01*
X93421976Y-85662190D01*
X93517214Y-85662190D01*
X93564833Y-85638380D01*
X93588642Y-85614571D01*
X93612452Y-85566952D01*
X93612452Y-85471714D01*
X93588642Y-85424095D01*
X93564833Y-85400285D01*
X93517214Y-85376476D01*
D11*
X99790833Y-86587619D02*
X99838452Y-86540000D01*
X99933690Y-86492380D01*
X100171785Y-86492380D01*
X100267023Y-86540000D01*
X100314642Y-86587619D01*
X100362261Y-86682857D01*
X100362261Y-86778095D01*
X100314642Y-86920952D01*
X99743214Y-87492380D01*
X100362261Y-87492380D01*
X100981309Y-86492380D02*
X101076547Y-86492380D01*
X101171785Y-86540000D01*
X101219404Y-86587619D01*
X101267023Y-86682857D01*
X101314642Y-86873333D01*
X101314642Y-87111428D01*
X101267023Y-87301904D01*
X101219404Y-87397142D01*
X101171785Y-87444761D01*
X101076547Y-87492380D01*
X100981309Y-87492380D01*
X100886071Y-87444761D01*
X100838452Y-87397142D01*
X100790833Y-87301904D01*
X100743214Y-87111428D01*
X100743214Y-86873333D01*
X100790833Y-86682857D01*
X100838452Y-86587619D01*
X100886071Y-86540000D01*
X100981309Y-86492380D01*
X101743214Y-87492380D02*
X101743214Y-86492380D01*
X101838452Y-87111428D02*
X102124166Y-87492380D01*
X102124166Y-86825714D02*
X101743214Y-87206666D01*
D12*
X100636071Y-85416190D02*
X100469404Y-85178095D01*
X100350357Y-85416190D02*
X100350357Y-84916190D01*
X100540833Y-84916190D01*
X100588452Y-84940000D01*
X100612261Y-84963809D01*
X100636071Y-85011428D01*
X100636071Y-85082857D01*
X100612261Y-85130476D01*
X100588452Y-85154285D01*
X100540833Y-85178095D01*
X100350357Y-85178095D01*
X101112261Y-85416190D02*
X100826547Y-85416190D01*
X100969404Y-85416190D02*
X100969404Y-84916190D01*
X100921785Y-84987619D01*
X100874166Y-85035238D01*
X100826547Y-85059047D01*
X101350357Y-85416190D02*
X101445595Y-85416190D01*
X101493214Y-85392380D01*
X101517023Y-85368571D01*
X101564642Y-85297142D01*
X101588452Y-85201904D01*
X101588452Y-85011428D01*
X101564642Y-84963809D01*
X101540833Y-84940000D01*
X101493214Y-84916190D01*
X101397976Y-84916190D01*
X101350357Y-84940000D01*
X101326547Y-84963809D01*
X101302738Y-85011428D01*
X101302738Y-85130476D01*
X101326547Y-85178095D01*
X101350357Y-85201904D01*
X101397976Y-85225714D01*
X101493214Y-85225714D01*
X101540833Y-85201904D01*
X101564642Y-85178095D01*
X101588452Y-85130476D01*
D11*
X90242380Y-53635238D02*
X90242380Y-54206666D01*
X90242380Y-53920952D02*
X89242380Y-53920952D01*
X89385238Y-54016190D01*
X89480476Y-54111428D01*
X89528095Y-54206666D01*
X89242380Y-53016190D02*
X89242380Y-52920952D01*
X89290000Y-52825714D01*
X89337619Y-52778095D01*
X89432857Y-52730476D01*
X89623333Y-52682857D01*
X89861428Y-52682857D01*
X90051904Y-52730476D01*
X90147142Y-52778095D01*
X90194761Y-52825714D01*
X90242380Y-52920952D01*
X90242380Y-53016190D01*
X90194761Y-53111428D01*
X90147142Y-53159047D01*
X90051904Y-53206666D01*
X89861428Y-53254285D01*
X89623333Y-53254285D01*
X89432857Y-53206666D01*
X89337619Y-53159047D01*
X89290000Y-53111428D01*
X89242380Y-53016190D01*
X90242380Y-52254285D02*
X89242380Y-52254285D01*
X89861428Y-52159047D02*
X90242380Y-51873333D01*
X89575714Y-51873333D02*
X89956666Y-52254285D01*
D12*
X91866190Y-53361428D02*
X91628095Y-53528095D01*
X91866190Y-53647142D02*
X91366190Y-53647142D01*
X91366190Y-53456666D01*
X91390000Y-53409047D01*
X91413809Y-53385238D01*
X91461428Y-53361428D01*
X91532857Y-53361428D01*
X91580476Y-53385238D01*
X91604285Y-53409047D01*
X91628095Y-53456666D01*
X91628095Y-53647142D01*
X91413809Y-53170952D02*
X91390000Y-53147142D01*
X91366190Y-53099523D01*
X91366190Y-52980476D01*
X91390000Y-52932857D01*
X91413809Y-52909047D01*
X91461428Y-52885238D01*
X91509047Y-52885238D01*
X91580476Y-52909047D01*
X91866190Y-53194761D01*
X91866190Y-52885238D01*
X91366190Y-52575714D02*
X91366190Y-52528095D01*
X91390000Y-52480476D01*
X91413809Y-52456666D01*
X91461428Y-52432857D01*
X91556666Y-52409047D01*
X91675714Y-52409047D01*
X91770952Y-52432857D01*
X91818571Y-52456666D01*
X91842380Y-52480476D01*
X91866190Y-52528095D01*
X91866190Y-52575714D01*
X91842380Y-52623333D01*
X91818571Y-52647142D01*
X91770952Y-52670952D01*
X91675714Y-52694761D01*
X91556666Y-52694761D01*
X91461428Y-52670952D01*
X91413809Y-52647142D01*
X91390000Y-52623333D01*
X91366190Y-52575714D01*
D11*
X90242380Y-62447738D02*
X90242380Y-63019166D01*
X90242380Y-62733452D02*
X89242380Y-62733452D01*
X89385238Y-62828690D01*
X89480476Y-62923928D01*
X89528095Y-63019166D01*
X89242380Y-61828690D02*
X89242380Y-61733452D01*
X89290000Y-61638214D01*
X89337619Y-61590595D01*
X89432857Y-61542976D01*
X89623333Y-61495357D01*
X89861428Y-61495357D01*
X90051904Y-61542976D01*
X90147142Y-61590595D01*
X90194761Y-61638214D01*
X90242380Y-61733452D01*
X90242380Y-61828690D01*
X90194761Y-61923928D01*
X90147142Y-61971547D01*
X90051904Y-62019166D01*
X89861428Y-62066785D01*
X89623333Y-62066785D01*
X89432857Y-62019166D01*
X89337619Y-61971547D01*
X89290000Y-61923928D01*
X89242380Y-61828690D01*
X90242380Y-61066785D02*
X89242380Y-61066785D01*
X89861428Y-60971547D02*
X90242380Y-60685833D01*
X89575714Y-60685833D02*
X89956666Y-61066785D01*
D12*
X91866190Y-62173928D02*
X91628095Y-62340595D01*
X91866190Y-62459642D02*
X91366190Y-62459642D01*
X91366190Y-62269166D01*
X91390000Y-62221547D01*
X91413809Y-62197738D01*
X91461428Y-62173928D01*
X91532857Y-62173928D01*
X91580476Y-62197738D01*
X91604285Y-62221547D01*
X91628095Y-62269166D01*
X91628095Y-62459642D01*
X91413809Y-61983452D02*
X91390000Y-61959642D01*
X91366190Y-61912023D01*
X91366190Y-61792976D01*
X91390000Y-61745357D01*
X91413809Y-61721547D01*
X91461428Y-61697738D01*
X91509047Y-61697738D01*
X91580476Y-61721547D01*
X91866190Y-62007261D01*
X91866190Y-61697738D01*
X91866190Y-61221547D02*
X91866190Y-61507261D01*
X91866190Y-61364404D02*
X91366190Y-61364404D01*
X91437619Y-61412023D01*
X91485238Y-61459642D01*
X91509047Y-61507261D01*
D11*
X151302380Y-53552738D02*
X151302380Y-54124166D01*
X151302380Y-53838452D02*
X150302380Y-53838452D01*
X150445238Y-53933690D01*
X150540476Y-54028928D01*
X150588095Y-54124166D01*
X150302380Y-52933690D02*
X150302380Y-52838452D01*
X150350000Y-52743214D01*
X150397619Y-52695595D01*
X150492857Y-52647976D01*
X150683333Y-52600357D01*
X150921428Y-52600357D01*
X151111904Y-52647976D01*
X151207142Y-52695595D01*
X151254761Y-52743214D01*
X151302380Y-52838452D01*
X151302380Y-52933690D01*
X151254761Y-53028928D01*
X151207142Y-53076547D01*
X151111904Y-53124166D01*
X150921428Y-53171785D01*
X150683333Y-53171785D01*
X150492857Y-53124166D01*
X150397619Y-53076547D01*
X150350000Y-53028928D01*
X150302380Y-52933690D01*
X151302380Y-52171785D02*
X150302380Y-52171785D01*
X150921428Y-52076547D02*
X151302380Y-51790833D01*
X150635714Y-51790833D02*
X151016666Y-52171785D01*
D12*
X149226190Y-53278928D02*
X148988095Y-53445595D01*
X149226190Y-53564642D02*
X148726190Y-53564642D01*
X148726190Y-53374166D01*
X148750000Y-53326547D01*
X148773809Y-53302738D01*
X148821428Y-53278928D01*
X148892857Y-53278928D01*
X148940476Y-53302738D01*
X148964285Y-53326547D01*
X148988095Y-53374166D01*
X148988095Y-53564642D01*
X148773809Y-53088452D02*
X148750000Y-53064642D01*
X148726190Y-53017023D01*
X148726190Y-52897976D01*
X148750000Y-52850357D01*
X148773809Y-52826547D01*
X148821428Y-52802738D01*
X148869047Y-52802738D01*
X148940476Y-52826547D01*
X149226190Y-53112261D01*
X149226190Y-52802738D01*
X148773809Y-52612261D02*
X148750000Y-52588452D01*
X148726190Y-52540833D01*
X148726190Y-52421785D01*
X148750000Y-52374166D01*
X148773809Y-52350357D01*
X148821428Y-52326547D01*
X148869047Y-52326547D01*
X148940476Y-52350357D01*
X149226190Y-52636071D01*
X149226190Y-52326547D01*
D11*
X151302380Y-62637738D02*
X151302380Y-63209166D01*
X151302380Y-62923452D02*
X150302380Y-62923452D01*
X150445238Y-63018690D01*
X150540476Y-63113928D01*
X150588095Y-63209166D01*
X150302380Y-62018690D02*
X150302380Y-61923452D01*
X150350000Y-61828214D01*
X150397619Y-61780595D01*
X150492857Y-61732976D01*
X150683333Y-61685357D01*
X150921428Y-61685357D01*
X151111904Y-61732976D01*
X151207142Y-61780595D01*
X151254761Y-61828214D01*
X151302380Y-61923452D01*
X151302380Y-62018690D01*
X151254761Y-62113928D01*
X151207142Y-62161547D01*
X151111904Y-62209166D01*
X150921428Y-62256785D01*
X150683333Y-62256785D01*
X150492857Y-62209166D01*
X150397619Y-62161547D01*
X150350000Y-62113928D01*
X150302380Y-62018690D01*
X151302380Y-61256785D02*
X150302380Y-61256785D01*
X150921428Y-61161547D02*
X151302380Y-60875833D01*
X150635714Y-60875833D02*
X151016666Y-61256785D01*
D12*
X149226190Y-62363928D02*
X148988095Y-62530595D01*
X149226190Y-62649642D02*
X148726190Y-62649642D01*
X148726190Y-62459166D01*
X148750000Y-62411547D01*
X148773809Y-62387738D01*
X148821428Y-62363928D01*
X148892857Y-62363928D01*
X148940476Y-62387738D01*
X148964285Y-62411547D01*
X148988095Y-62459166D01*
X148988095Y-62649642D01*
X148773809Y-62173452D02*
X148750000Y-62149642D01*
X148726190Y-62102023D01*
X148726190Y-61982976D01*
X148750000Y-61935357D01*
X148773809Y-61911547D01*
X148821428Y-61887738D01*
X148869047Y-61887738D01*
X148940476Y-61911547D01*
X149226190Y-62197261D01*
X149226190Y-61887738D01*
X148726190Y-61721071D02*
X148726190Y-61411547D01*
X148916666Y-61578214D01*
X148916666Y-61506785D01*
X148940476Y-61459166D01*
X148964285Y-61435357D01*
X149011904Y-61411547D01*
X149130952Y-61411547D01*
X149178571Y-61435357D01*
X149202380Y-61459166D01*
X149226190Y-61506785D01*
X149226190Y-61649642D01*
X149202380Y-61697261D01*
X149178571Y-61721071D01*
D11*
X88905404Y-77961619D02*
X88953023Y-77914000D01*
X89048261Y-77866380D01*
X89286357Y-77866380D01*
X89381595Y-77914000D01*
X89429214Y-77961619D01*
X89476833Y-78056857D01*
X89476833Y-78152095D01*
X89429214Y-78294952D01*
X88857785Y-78866380D01*
X89476833Y-78866380D01*
X89857785Y-77961619D02*
X89905404Y-77914000D01*
X90000642Y-77866380D01*
X90238738Y-77866380D01*
X90333976Y-77914000D01*
X90381595Y-77961619D01*
X90429214Y-78056857D01*
X90429214Y-78152095D01*
X90381595Y-78294952D01*
X89810166Y-78866380D01*
X90429214Y-78866380D01*
X91048261Y-77866380D02*
X91143500Y-77866380D01*
X91238738Y-77914000D01*
X91286357Y-77961619D01*
X91333976Y-78056857D01*
X91381595Y-78247333D01*
X91381595Y-78485428D01*
X91333976Y-78675904D01*
X91286357Y-78771142D01*
X91238738Y-78818761D01*
X91143500Y-78866380D01*
X91048261Y-78866380D01*
X90953023Y-78818761D01*
X90905404Y-78771142D01*
X90857785Y-78675904D01*
X90810166Y-78485428D01*
X90810166Y-78247333D01*
X90857785Y-78056857D01*
X90905404Y-77961619D01*
X90953023Y-77914000D01*
X91048261Y-77866380D01*
D12*
X89822071Y-80490190D02*
X89655404Y-80252095D01*
X89536357Y-80490190D02*
X89536357Y-79990190D01*
X89726833Y-79990190D01*
X89774452Y-80014000D01*
X89798261Y-80037809D01*
X89822071Y-80085428D01*
X89822071Y-80156857D01*
X89798261Y-80204476D01*
X89774452Y-80228285D01*
X89726833Y-80252095D01*
X89536357Y-80252095D01*
X90012547Y-80037809D02*
X90036357Y-80014000D01*
X90083976Y-79990190D01*
X90203023Y-79990190D01*
X90250642Y-80014000D01*
X90274452Y-80037809D01*
X90298261Y-80085428D01*
X90298261Y-80133047D01*
X90274452Y-80204476D01*
X89988738Y-80490190D01*
X90298261Y-80490190D01*
X90726833Y-80156857D02*
X90726833Y-80490190D01*
X90607785Y-79966380D02*
X90488738Y-80323523D01*
X90798261Y-80323523D01*
D11*
X88905404Y-74151619D02*
X88953023Y-74104000D01*
X89048261Y-74056380D01*
X89286357Y-74056380D01*
X89381595Y-74104000D01*
X89429214Y-74151619D01*
X89476833Y-74246857D01*
X89476833Y-74342095D01*
X89429214Y-74484952D01*
X88857785Y-75056380D01*
X89476833Y-75056380D01*
X89857785Y-74151619D02*
X89905404Y-74104000D01*
X90000642Y-74056380D01*
X90238738Y-74056380D01*
X90333976Y-74104000D01*
X90381595Y-74151619D01*
X90429214Y-74246857D01*
X90429214Y-74342095D01*
X90381595Y-74484952D01*
X89810166Y-75056380D01*
X90429214Y-75056380D01*
X91048261Y-74056380D02*
X91143500Y-74056380D01*
X91238738Y-74104000D01*
X91286357Y-74151619D01*
X91333976Y-74246857D01*
X91381595Y-74437333D01*
X91381595Y-74675428D01*
X91333976Y-74865904D01*
X91286357Y-74961142D01*
X91238738Y-75008761D01*
X91143500Y-75056380D01*
X91048261Y-75056380D01*
X90953023Y-75008761D01*
X90905404Y-74961142D01*
X90857785Y-74865904D01*
X90810166Y-74675428D01*
X90810166Y-74437333D01*
X90857785Y-74246857D01*
X90905404Y-74151619D01*
X90953023Y-74104000D01*
X91048261Y-74056380D01*
D12*
X89822071Y-76680190D02*
X89655404Y-76442095D01*
X89536357Y-76680190D02*
X89536357Y-76180190D01*
X89726833Y-76180190D01*
X89774452Y-76204000D01*
X89798261Y-76227809D01*
X89822071Y-76275428D01*
X89822071Y-76346857D01*
X89798261Y-76394476D01*
X89774452Y-76418285D01*
X89726833Y-76442095D01*
X89536357Y-76442095D01*
X90012547Y-76227809D02*
X90036357Y-76204000D01*
X90083976Y-76180190D01*
X90203023Y-76180190D01*
X90250642Y-76204000D01*
X90274452Y-76227809D01*
X90298261Y-76275428D01*
X90298261Y-76323047D01*
X90274452Y-76394476D01*
X89988738Y-76680190D01*
X90298261Y-76680190D01*
X90750642Y-76180190D02*
X90512547Y-76180190D01*
X90488738Y-76418285D01*
X90512547Y-76394476D01*
X90560166Y-76370666D01*
X90679214Y-76370666D01*
X90726833Y-76394476D01*
X90750642Y-76418285D01*
X90774452Y-76465904D01*
X90774452Y-76584952D01*
X90750642Y-76632571D01*
X90726833Y-76656380D01*
X90679214Y-76680190D01*
X90560166Y-76680190D01*
X90512547Y-76656380D01*
X90488738Y-76632571D01*
D11*
X88905404Y-70341619D02*
X88953023Y-70294000D01*
X89048261Y-70246380D01*
X89286357Y-70246380D01*
X89381595Y-70294000D01*
X89429214Y-70341619D01*
X89476833Y-70436857D01*
X89476833Y-70532095D01*
X89429214Y-70674952D01*
X88857785Y-71246380D01*
X89476833Y-71246380D01*
X89857785Y-70341619D02*
X89905404Y-70294000D01*
X90000642Y-70246380D01*
X90238738Y-70246380D01*
X90333976Y-70294000D01*
X90381595Y-70341619D01*
X90429214Y-70436857D01*
X90429214Y-70532095D01*
X90381595Y-70674952D01*
X89810166Y-71246380D01*
X90429214Y-71246380D01*
X91048261Y-70246380D02*
X91143500Y-70246380D01*
X91238738Y-70294000D01*
X91286357Y-70341619D01*
X91333976Y-70436857D01*
X91381595Y-70627333D01*
X91381595Y-70865428D01*
X91333976Y-71055904D01*
X91286357Y-71151142D01*
X91238738Y-71198761D01*
X91143500Y-71246380D01*
X91048261Y-71246380D01*
X90953023Y-71198761D01*
X90905404Y-71151142D01*
X90857785Y-71055904D01*
X90810166Y-70865428D01*
X90810166Y-70627333D01*
X90857785Y-70436857D01*
X90905404Y-70341619D01*
X90953023Y-70294000D01*
X91048261Y-70246380D01*
D12*
X89822071Y-72870190D02*
X89655404Y-72632095D01*
X89536357Y-72870190D02*
X89536357Y-72370190D01*
X89726833Y-72370190D01*
X89774452Y-72394000D01*
X89798261Y-72417809D01*
X89822071Y-72465428D01*
X89822071Y-72536857D01*
X89798261Y-72584476D01*
X89774452Y-72608285D01*
X89726833Y-72632095D01*
X89536357Y-72632095D01*
X90012547Y-72417809D02*
X90036357Y-72394000D01*
X90083976Y-72370190D01*
X90203023Y-72370190D01*
X90250642Y-72394000D01*
X90274452Y-72417809D01*
X90298261Y-72465428D01*
X90298261Y-72513047D01*
X90274452Y-72584476D01*
X89988738Y-72870190D01*
X90298261Y-72870190D01*
X90726833Y-72370190D02*
X90631595Y-72370190D01*
X90583976Y-72394000D01*
X90560166Y-72417809D01*
X90512547Y-72489238D01*
X90488738Y-72584476D01*
X90488738Y-72774952D01*
X90512547Y-72822571D01*
X90536357Y-72846380D01*
X90583976Y-72870190D01*
X90679214Y-72870190D01*
X90726833Y-72846380D01*
X90750642Y-72822571D01*
X90774452Y-72774952D01*
X90774452Y-72655904D01*
X90750642Y-72608285D01*
X90726833Y-72584476D01*
X90679214Y-72560666D01*
X90583976Y-72560666D01*
X90536357Y-72584476D01*
X90512547Y-72608285D01*
X90488738Y-72655904D01*
D11*
X105716190Y-63002380D02*
X106382857Y-63002380D01*
X105716190Y-64002380D01*
X106382857Y-64002380D01*
X106954285Y-63002380D02*
X107049523Y-63002380D01*
X107144761Y-63050000D01*
X107192380Y-63097619D01*
X107240000Y-63192857D01*
X107287619Y-63383333D01*
X107287619Y-63621428D01*
X107240000Y-63811904D01*
X107192380Y-63907142D01*
X107144761Y-63954761D01*
X107049523Y-64002380D01*
X106954285Y-64002380D01*
X106859047Y-63954761D01*
X106811428Y-63907142D01*
X106763809Y-63811904D01*
X106716190Y-63621428D01*
X106716190Y-63383333D01*
X106763809Y-63192857D01*
X106811428Y-63097619D01*
X106859047Y-63050000D01*
X106954285Y-63002380D01*
X108240000Y-64002380D02*
X107668571Y-64002380D01*
X107954285Y-64002380D02*
X107954285Y-63002380D01*
X107859047Y-63145238D01*
X107763809Y-63240476D01*
X107668571Y-63288095D01*
X108859047Y-63002380D02*
X108954285Y-63002380D01*
X109049523Y-63050000D01*
X109097142Y-63097619D01*
X109144761Y-63192857D01*
X109192380Y-63383333D01*
X109192380Y-63621428D01*
X109144761Y-63811904D01*
X109097142Y-63907142D01*
X109049523Y-63954761D01*
X108954285Y-64002380D01*
X108859047Y-64002380D01*
X108763809Y-63954761D01*
X108716190Y-63907142D01*
X108668571Y-63811904D01*
X108620952Y-63621428D01*
X108620952Y-63383333D01*
X108668571Y-63192857D01*
X108716190Y-63097619D01*
X108763809Y-63050000D01*
X108859047Y-63002380D01*
X109525714Y-63002380D02*
X110144761Y-63002380D01*
X109811428Y-63383333D01*
X109954285Y-63383333D01*
X110049523Y-63430952D01*
X110097142Y-63478571D01*
X110144761Y-63573809D01*
X110144761Y-63811904D01*
X110097142Y-63907142D01*
X110049523Y-63954761D01*
X109954285Y-64002380D01*
X109668571Y-64002380D01*
X109573333Y-63954761D01*
X109525714Y-63907142D01*
X110573333Y-64002380D02*
X110573333Y-63002380D01*
X110906666Y-63716666D01*
X111240000Y-63002380D01*
X111240000Y-64002380D01*
X111716190Y-64002380D02*
X111716190Y-63002380D01*
X112287619Y-64002380D01*
X112287619Y-63002380D01*
X114001904Y-63002380D02*
X113525714Y-63002380D01*
X113478095Y-63478571D01*
X113525714Y-63430952D01*
X113620952Y-63383333D01*
X113859047Y-63383333D01*
X113954285Y-63430952D01*
X114001904Y-63478571D01*
X114049523Y-63573809D01*
X114049523Y-63811904D01*
X114001904Y-63907142D01*
X113954285Y-63954761D01*
X113859047Y-64002380D01*
X113620952Y-64002380D01*
X113525714Y-63954761D01*
X113478095Y-63907142D01*
X114430476Y-63716666D02*
X114906666Y-63716666D01*
X114335238Y-64002380D02*
X114668571Y-63002380D01*
X115001904Y-64002380D01*
X115287619Y-63716666D02*
X115763809Y-63716666D01*
X115192380Y-64002380D02*
X115525714Y-63002380D01*
X115859047Y-64002380D01*
X116620952Y-63335714D02*
X116620952Y-64002380D01*
X116382857Y-62954761D02*
X116144761Y-63669047D01*
X116763809Y-63669047D01*
D13*
X110801904Y-68659523D02*
X111449523Y-68659523D01*
X111525714Y-68621428D01*
X111563809Y-68583333D01*
X111601904Y-68507142D01*
X111601904Y-68354761D01*
X111563809Y-68278571D01*
X111525714Y-68240476D01*
X111449523Y-68202380D01*
X110801904Y-68202380D01*
X110801904Y-67440476D02*
X110801904Y-67821428D01*
X111182857Y-67859523D01*
X111144761Y-67821428D01*
X111106666Y-67745238D01*
X111106666Y-67554761D01*
X111144761Y-67478571D01*
X111182857Y-67440476D01*
X111259047Y-67402380D01*
X111449523Y-67402380D01*
X111525714Y-67440476D01*
X111563809Y-67478571D01*
X111601904Y-67554761D01*
X111601904Y-67745238D01*
X111563809Y-67821428D01*
X111525714Y-67859523D01*
D11*
X121726190Y-72252380D02*
X122392857Y-72252380D01*
X121726190Y-73252380D01*
X122392857Y-73252380D01*
X122964285Y-72252380D02*
X123059523Y-72252380D01*
X123154761Y-72300000D01*
X123202380Y-72347619D01*
X123250000Y-72442857D01*
X123297619Y-72633333D01*
X123297619Y-72871428D01*
X123250000Y-73061904D01*
X123202380Y-73157142D01*
X123154761Y-73204761D01*
X123059523Y-73252380D01*
X122964285Y-73252380D01*
X122869047Y-73204761D01*
X122821428Y-73157142D01*
X122773809Y-73061904D01*
X122726190Y-72871428D01*
X122726190Y-72633333D01*
X122773809Y-72442857D01*
X122821428Y-72347619D01*
X122869047Y-72300000D01*
X122964285Y-72252380D01*
X124250000Y-73252380D02*
X123678571Y-73252380D01*
X123964285Y-73252380D02*
X123964285Y-72252380D01*
X123869047Y-72395238D01*
X123773809Y-72490476D01*
X123678571Y-72538095D01*
X124869047Y-72252380D02*
X124964285Y-72252380D01*
X125059523Y-72300000D01*
X125107142Y-72347619D01*
X125154761Y-72442857D01*
X125202380Y-72633333D01*
X125202380Y-72871428D01*
X125154761Y-73061904D01*
X125107142Y-73157142D01*
X125059523Y-73204761D01*
X124964285Y-73252380D01*
X124869047Y-73252380D01*
X124773809Y-73204761D01*
X124726190Y-73157142D01*
X124678571Y-73061904D01*
X124630952Y-72871428D01*
X124630952Y-72633333D01*
X124678571Y-72442857D01*
X124726190Y-72347619D01*
X124773809Y-72300000D01*
X124869047Y-72252380D01*
X125535714Y-72252380D02*
X126154761Y-72252380D01*
X125821428Y-72633333D01*
X125964285Y-72633333D01*
X126059523Y-72680952D01*
X126107142Y-72728571D01*
X126154761Y-72823809D01*
X126154761Y-73061904D01*
X126107142Y-73157142D01*
X126059523Y-73204761D01*
X125964285Y-73252380D01*
X125678571Y-73252380D01*
X125583333Y-73204761D01*
X125535714Y-73157142D01*
X126583333Y-73252380D02*
X126583333Y-72252380D01*
X126916666Y-72966666D01*
X127250000Y-72252380D01*
X127250000Y-73252380D01*
X127726190Y-73252380D02*
X127726190Y-72252380D01*
X128297619Y-73252380D01*
X128297619Y-72252380D01*
X130011904Y-72252380D02*
X129535714Y-72252380D01*
X129488095Y-72728571D01*
X129535714Y-72680952D01*
X129630952Y-72633333D01*
X129869047Y-72633333D01*
X129964285Y-72680952D01*
X130011904Y-72728571D01*
X130059523Y-72823809D01*
X130059523Y-73061904D01*
X130011904Y-73157142D01*
X129964285Y-73204761D01*
X129869047Y-73252380D01*
X129630952Y-73252380D01*
X129535714Y-73204761D01*
X129488095Y-73157142D01*
X130440476Y-72966666D02*
X130916666Y-72966666D01*
X130345238Y-73252380D02*
X130678571Y-72252380D01*
X131011904Y-73252380D01*
X131297619Y-72966666D02*
X131773809Y-72966666D01*
X131202380Y-73252380D02*
X131535714Y-72252380D01*
X131869047Y-73252380D01*
X132630952Y-72585714D02*
X132630952Y-73252380D01*
X132392857Y-72204761D02*
X132154761Y-72919047D01*
X132773809Y-72919047D01*
D13*
X126811904Y-68909523D02*
X127459523Y-68909523D01*
X127535714Y-68871428D01*
X127573809Y-68833333D01*
X127611904Y-68757142D01*
X127611904Y-68604761D01*
X127573809Y-68528571D01*
X127535714Y-68490476D01*
X127459523Y-68452380D01*
X126811904Y-68452380D01*
X126811904Y-67728571D02*
X126811904Y-67880952D01*
X126850000Y-67957142D01*
X126888095Y-67995238D01*
X127002380Y-68071428D01*
X127154761Y-68109523D01*
X127459523Y-68109523D01*
X127535714Y-68071428D01*
X127573809Y-68033333D01*
X127611904Y-67957142D01*
X127611904Y-67804761D01*
X127573809Y-67728571D01*
X127535714Y-67690476D01*
X127459523Y-67652380D01*
X127269047Y-67652380D01*
X127192857Y-67690476D01*
X127154761Y-67728571D01*
X127116666Y-67804761D01*
X127116666Y-67957142D01*
X127154761Y-68033333D01*
X127192857Y-68071428D01*
X127269047Y-68109523D01*
D11*
X121386190Y-81142380D02*
X122052857Y-81142380D01*
X121386190Y-82142380D01*
X122052857Y-82142380D01*
X122624285Y-81142380D02*
X122719523Y-81142380D01*
X122814761Y-81190000D01*
X122862380Y-81237619D01*
X122910000Y-81332857D01*
X122957619Y-81523333D01*
X122957619Y-81761428D01*
X122910000Y-81951904D01*
X122862380Y-82047142D01*
X122814761Y-82094761D01*
X122719523Y-82142380D01*
X122624285Y-82142380D01*
X122529047Y-82094761D01*
X122481428Y-82047142D01*
X122433809Y-81951904D01*
X122386190Y-81761428D01*
X122386190Y-81523333D01*
X122433809Y-81332857D01*
X122481428Y-81237619D01*
X122529047Y-81190000D01*
X122624285Y-81142380D01*
X123910000Y-82142380D02*
X123338571Y-82142380D01*
X123624285Y-82142380D02*
X123624285Y-81142380D01*
X123529047Y-81285238D01*
X123433809Y-81380476D01*
X123338571Y-81428095D01*
X124529047Y-81142380D02*
X124624285Y-81142380D01*
X124719523Y-81190000D01*
X124767142Y-81237619D01*
X124814761Y-81332857D01*
X124862380Y-81523333D01*
X124862380Y-81761428D01*
X124814761Y-81951904D01*
X124767142Y-82047142D01*
X124719523Y-82094761D01*
X124624285Y-82142380D01*
X124529047Y-82142380D01*
X124433809Y-82094761D01*
X124386190Y-82047142D01*
X124338571Y-81951904D01*
X124290952Y-81761428D01*
X124290952Y-81523333D01*
X124338571Y-81332857D01*
X124386190Y-81237619D01*
X124433809Y-81190000D01*
X124529047Y-81142380D01*
X125195714Y-81142380D02*
X125814761Y-81142380D01*
X125481428Y-81523333D01*
X125624285Y-81523333D01*
X125719523Y-81570952D01*
X125767142Y-81618571D01*
X125814761Y-81713809D01*
X125814761Y-81951904D01*
X125767142Y-82047142D01*
X125719523Y-82094761D01*
X125624285Y-82142380D01*
X125338571Y-82142380D01*
X125243333Y-82094761D01*
X125195714Y-82047142D01*
X126243333Y-82142380D02*
X126243333Y-81142380D01*
X126576666Y-81856666D01*
X126910000Y-81142380D01*
X126910000Y-82142380D01*
X127386190Y-82142380D02*
X127386190Y-81142380D01*
X127957619Y-82142380D01*
X127957619Y-81142380D01*
X129671904Y-81142380D02*
X129195714Y-81142380D01*
X129148095Y-81618571D01*
X129195714Y-81570952D01*
X129290952Y-81523333D01*
X129529047Y-81523333D01*
X129624285Y-81570952D01*
X129671904Y-81618571D01*
X129719523Y-81713809D01*
X129719523Y-81951904D01*
X129671904Y-82047142D01*
X129624285Y-82094761D01*
X129529047Y-82142380D01*
X129290952Y-82142380D01*
X129195714Y-82094761D01*
X129148095Y-82047142D01*
X130100476Y-81856666D02*
X130576666Y-81856666D01*
X130005238Y-82142380D02*
X130338571Y-81142380D01*
X130671904Y-82142380D01*
X130957619Y-81856666D02*
X131433809Y-81856666D01*
X130862380Y-82142380D02*
X131195714Y-81142380D01*
X131529047Y-82142380D01*
X132290952Y-81475714D02*
X132290952Y-82142380D01*
X132052857Y-81094761D02*
X131814761Y-81809047D01*
X132433809Y-81809047D01*
D13*
X126471904Y-77799523D02*
X127119523Y-77799523D01*
X127195714Y-77761428D01*
X127233809Y-77723333D01*
X127271904Y-77647142D01*
X127271904Y-77494761D01*
X127233809Y-77418571D01*
X127195714Y-77380476D01*
X127119523Y-77342380D01*
X126471904Y-77342380D01*
X126471904Y-77037619D02*
X126471904Y-76504285D01*
X127271904Y-76847142D01*
D11*
X115514190Y-97059142D02*
X115466571Y-97106761D01*
X115323714Y-97154380D01*
X115228476Y-97154380D01*
X115085619Y-97106761D01*
X114990380Y-97011523D01*
X114942761Y-96916285D01*
X114895142Y-96725809D01*
X114895142Y-96582952D01*
X114942761Y-96392476D01*
X114990380Y-96297238D01*
X115085619Y-96202000D01*
X115228476Y-96154380D01*
X115323714Y-96154380D01*
X115466571Y-96202000D01*
X115514190Y-96249619D01*
X116133238Y-96154380D02*
X116323714Y-96154380D01*
X116418952Y-96202000D01*
X116514190Y-96297238D01*
X116561809Y-96487714D01*
X116561809Y-96821047D01*
X116514190Y-97011523D01*
X116418952Y-97106761D01*
X116323714Y-97154380D01*
X116133238Y-97154380D01*
X116038000Y-97106761D01*
X115942761Y-97011523D01*
X115895142Y-96821047D01*
X115895142Y-96487714D01*
X115942761Y-96297238D01*
X116038000Y-96202000D01*
X116133238Y-96154380D01*
X116990380Y-97154380D02*
X116990380Y-96154380D01*
X117561809Y-97154380D01*
X117561809Y-96154380D01*
X118038000Y-97154380D02*
X118038000Y-96154380D01*
X118609428Y-97154380D01*
X118609428Y-96154380D01*
X118847523Y-97249619D02*
X119609428Y-97249619D01*
X120038000Y-96154380D02*
X120133238Y-96154380D01*
X120228476Y-96202000D01*
X120276095Y-96249619D01*
X120323714Y-96344857D01*
X120371333Y-96535333D01*
X120371333Y-96773428D01*
X120323714Y-96963904D01*
X120276095Y-97059142D01*
X120228476Y-97106761D01*
X120133238Y-97154380D01*
X120038000Y-97154380D01*
X119942761Y-97106761D01*
X119895142Y-97059142D01*
X119847523Y-96963904D01*
X119799904Y-96773428D01*
X119799904Y-96535333D01*
X119847523Y-96344857D01*
X119895142Y-96249619D01*
X119942761Y-96202000D01*
X120038000Y-96154380D01*
X121323714Y-97154380D02*
X120752285Y-97154380D01*
X121038000Y-97154380D02*
X121038000Y-96154380D01*
X120942761Y-96297238D01*
X120847523Y-96392476D01*
X120752285Y-96440095D01*
X121657047Y-96154380D02*
X122323714Y-97154380D01*
X122323714Y-96154380D02*
X121657047Y-97154380D01*
X122895142Y-96154380D02*
X122990380Y-96154380D01*
X123085619Y-96202000D01*
X123133238Y-96249619D01*
X123180857Y-96344857D01*
X123228476Y-96535333D01*
X123228476Y-96773428D01*
X123180857Y-96963904D01*
X123133238Y-97059142D01*
X123085619Y-97106761D01*
X122990380Y-97154380D01*
X122895142Y-97154380D01*
X122799904Y-97106761D01*
X122752285Y-97059142D01*
X122704666Y-96963904D01*
X122657047Y-96773428D01*
X122657047Y-96535333D01*
X122704666Y-96344857D01*
X122752285Y-96249619D01*
X122799904Y-96202000D01*
X122895142Y-96154380D01*
X124133238Y-96154380D02*
X123657047Y-96154380D01*
X123609428Y-96630571D01*
X123657047Y-96582952D01*
X123752285Y-96535333D01*
X123990380Y-96535333D01*
X124085619Y-96582952D01*
X124133238Y-96630571D01*
X124180857Y-96725809D01*
X124180857Y-96963904D01*
X124133238Y-97059142D01*
X124085619Y-97106761D01*
X123990380Y-97154380D01*
X123752285Y-97154380D01*
X123657047Y-97106761D01*
X123609428Y-97059142D01*
X118799904Y-93854380D02*
X118799904Y-92854380D01*
X119180857Y-92854380D01*
X119276095Y-92902000D01*
X119323714Y-92949619D01*
X119371333Y-93044857D01*
X119371333Y-93187714D01*
X119323714Y-93282952D01*
X119276095Y-93330571D01*
X119180857Y-93378190D01*
X118799904Y-93378190D01*
X120323714Y-93854380D02*
X119752285Y-93854380D01*
X120038000Y-93854380D02*
X120038000Y-92854380D01*
X119942761Y-92997238D01*
X119847523Y-93092476D01*
X119752285Y-93140095D01*
X88940190Y-92095142D02*
X88892571Y-92142761D01*
X88749714Y-92190380D01*
X88654476Y-92190380D01*
X88511619Y-92142761D01*
X88416380Y-92047523D01*
X88368761Y-91952285D01*
X88321142Y-91761809D01*
X88321142Y-91618952D01*
X88368761Y-91428476D01*
X88416380Y-91333238D01*
X88511619Y-91238000D01*
X88654476Y-91190380D01*
X88749714Y-91190380D01*
X88892571Y-91238000D01*
X88940190Y-91285619D01*
X89559238Y-91190380D02*
X89749714Y-91190380D01*
X89844952Y-91238000D01*
X89940190Y-91333238D01*
X89987809Y-91523714D01*
X89987809Y-91857047D01*
X89940190Y-92047523D01*
X89844952Y-92142761D01*
X89749714Y-92190380D01*
X89559238Y-92190380D01*
X89464000Y-92142761D01*
X89368761Y-92047523D01*
X89321142Y-91857047D01*
X89321142Y-91523714D01*
X89368761Y-91333238D01*
X89464000Y-91238000D01*
X89559238Y-91190380D01*
X90416380Y-92190380D02*
X90416380Y-91190380D01*
X90987809Y-92190380D01*
X90987809Y-91190380D01*
X91464000Y-92190380D02*
X91464000Y-91190380D01*
X92035428Y-92190380D01*
X92035428Y-91190380D01*
X92273523Y-92285619D02*
X93035428Y-92285619D01*
X93464000Y-91190380D02*
X93559238Y-91190380D01*
X93654476Y-91238000D01*
X93702095Y-91285619D01*
X93749714Y-91380857D01*
X93797333Y-91571333D01*
X93797333Y-91809428D01*
X93749714Y-91999904D01*
X93702095Y-92095142D01*
X93654476Y-92142761D01*
X93559238Y-92190380D01*
X93464000Y-92190380D01*
X93368761Y-92142761D01*
X93321142Y-92095142D01*
X93273523Y-91999904D01*
X93225904Y-91809428D01*
X93225904Y-91571333D01*
X93273523Y-91380857D01*
X93321142Y-91285619D01*
X93368761Y-91238000D01*
X93464000Y-91190380D01*
X94749714Y-92190380D02*
X94178285Y-92190380D01*
X94464000Y-92190380D02*
X94464000Y-91190380D01*
X94368761Y-91333238D01*
X94273523Y-91428476D01*
X94178285Y-91476095D01*
X95083047Y-91190380D02*
X95749714Y-92190380D01*
X95749714Y-91190380D02*
X95083047Y-92190380D01*
X96321142Y-91190380D02*
X96416380Y-91190380D01*
X96511619Y-91238000D01*
X96559238Y-91285619D01*
X96606857Y-91380857D01*
X96654476Y-91571333D01*
X96654476Y-91809428D01*
X96606857Y-91999904D01*
X96559238Y-92095142D01*
X96511619Y-92142761D01*
X96416380Y-92190380D01*
X96321142Y-92190380D01*
X96225904Y-92142761D01*
X96178285Y-92095142D01*
X96130666Y-91999904D01*
X96083047Y-91809428D01*
X96083047Y-91571333D01*
X96130666Y-91380857D01*
X96178285Y-91285619D01*
X96225904Y-91238000D01*
X96321142Y-91190380D01*
X97035428Y-91285619D02*
X97083047Y-91238000D01*
X97178285Y-91190380D01*
X97416380Y-91190380D01*
X97511619Y-91238000D01*
X97559238Y-91285619D01*
X97606857Y-91380857D01*
X97606857Y-91476095D01*
X97559238Y-91618952D01*
X96987809Y-92190380D01*
X97606857Y-92190380D01*
X93416380Y-90146095D02*
X92416380Y-90146095D01*
X92416380Y-89765142D01*
X92464000Y-89669904D01*
X92511619Y-89622285D01*
X92606857Y-89574666D01*
X92749714Y-89574666D01*
X92844952Y-89622285D01*
X92892571Y-89669904D01*
X92940190Y-89765142D01*
X92940190Y-90146095D01*
X92511619Y-89193714D02*
X92464000Y-89146095D01*
X92416380Y-89050857D01*
X92416380Y-88812761D01*
X92464000Y-88717523D01*
X92511619Y-88669904D01*
X92606857Y-88622285D01*
X92702095Y-88622285D01*
X92844952Y-88669904D01*
X93416380Y-89241333D01*
X93416380Y-88622285D01*
X96746190Y-91877142D02*
X96698571Y-91924761D01*
X96555714Y-91972380D01*
X96460476Y-91972380D01*
X96317619Y-91924761D01*
X96222380Y-91829523D01*
X96174761Y-91734285D01*
X96127142Y-91543809D01*
X96127142Y-91400952D01*
X96174761Y-91210476D01*
X96222380Y-91115238D01*
X96317619Y-91020000D01*
X96460476Y-90972380D01*
X96555714Y-90972380D01*
X96698571Y-91020000D01*
X96746190Y-91067619D01*
X97365238Y-90972380D02*
X97555714Y-90972380D01*
X97650952Y-91020000D01*
X97746190Y-91115238D01*
X97793809Y-91305714D01*
X97793809Y-91639047D01*
X97746190Y-91829523D01*
X97650952Y-91924761D01*
X97555714Y-91972380D01*
X97365238Y-91972380D01*
X97270000Y-91924761D01*
X97174761Y-91829523D01*
X97127142Y-91639047D01*
X97127142Y-91305714D01*
X97174761Y-91115238D01*
X97270000Y-91020000D01*
X97365238Y-90972380D01*
X98222380Y-91972380D02*
X98222380Y-90972380D01*
X98793809Y-91972380D01*
X98793809Y-90972380D01*
X99270000Y-91972380D02*
X99270000Y-90972380D01*
X99841428Y-91972380D01*
X99841428Y-90972380D01*
X100079523Y-92067619D02*
X100841428Y-92067619D01*
X101270000Y-90972380D02*
X101365238Y-90972380D01*
X101460476Y-91020000D01*
X101508095Y-91067619D01*
X101555714Y-91162857D01*
X101603333Y-91353333D01*
X101603333Y-91591428D01*
X101555714Y-91781904D01*
X101508095Y-91877142D01*
X101460476Y-91924761D01*
X101365238Y-91972380D01*
X101270000Y-91972380D01*
X101174761Y-91924761D01*
X101127142Y-91877142D01*
X101079523Y-91781904D01*
X101031904Y-91591428D01*
X101031904Y-91353333D01*
X101079523Y-91162857D01*
X101127142Y-91067619D01*
X101174761Y-91020000D01*
X101270000Y-90972380D01*
X102555714Y-91972380D02*
X101984285Y-91972380D01*
X102270000Y-91972380D02*
X102270000Y-90972380D01*
X102174761Y-91115238D01*
X102079523Y-91210476D01*
X101984285Y-91258095D01*
X102889047Y-90972380D02*
X103555714Y-91972380D01*
X103555714Y-90972380D02*
X102889047Y-91972380D01*
X104127142Y-90972380D02*
X104222380Y-90972380D01*
X104317619Y-91020000D01*
X104365238Y-91067619D01*
X104412857Y-91162857D01*
X104460476Y-91353333D01*
X104460476Y-91591428D01*
X104412857Y-91781904D01*
X104365238Y-91877142D01*
X104317619Y-91924761D01*
X104222380Y-91972380D01*
X104127142Y-91972380D01*
X104031904Y-91924761D01*
X103984285Y-91877142D01*
X103936666Y-91781904D01*
X103889047Y-91591428D01*
X103889047Y-91353333D01*
X103936666Y-91162857D01*
X103984285Y-91067619D01*
X104031904Y-91020000D01*
X104127142Y-90972380D01*
X104841428Y-91067619D02*
X104889047Y-91020000D01*
X104984285Y-90972380D01*
X105222380Y-90972380D01*
X105317619Y-91020000D01*
X105365238Y-91067619D01*
X105412857Y-91162857D01*
X105412857Y-91258095D01*
X105365238Y-91400952D01*
X104793809Y-91972380D01*
X105412857Y-91972380D01*
X101222380Y-89928095D02*
X100222380Y-89928095D01*
X100222380Y-89547142D01*
X100270000Y-89451904D01*
X100317619Y-89404285D01*
X100412857Y-89356666D01*
X100555714Y-89356666D01*
X100650952Y-89404285D01*
X100698571Y-89451904D01*
X100746190Y-89547142D01*
X100746190Y-89928095D01*
X100222380Y-89023333D02*
X100222380Y-88404285D01*
X100603333Y-88737619D01*
X100603333Y-88594761D01*
X100650952Y-88499523D01*
X100698571Y-88451904D01*
X100793809Y-88404285D01*
X101031904Y-88404285D01*
X101127142Y-88451904D01*
X101174761Y-88499523D01*
X101222380Y-88594761D01*
X101222380Y-88880476D01*
X101174761Y-88975714D01*
X101127142Y-89023333D01*
X84792380Y-69166190D02*
X83792380Y-69166190D01*
X84744761Y-68737619D02*
X84792380Y-68594761D01*
X84792380Y-68356666D01*
X84744761Y-68261428D01*
X84697142Y-68213809D01*
X84601904Y-68166190D01*
X84506666Y-68166190D01*
X84411428Y-68213809D01*
X84363809Y-68261428D01*
X84316190Y-68356666D01*
X84268571Y-68547142D01*
X84220952Y-68642380D01*
X84173333Y-68690000D01*
X84078095Y-68737619D01*
X83982857Y-68737619D01*
X83887619Y-68690000D01*
X83840000Y-68642380D01*
X83792380Y-68547142D01*
X83792380Y-68309047D01*
X83840000Y-68166190D01*
X84697142Y-67166190D02*
X84744761Y-67213809D01*
X84792380Y-67356666D01*
X84792380Y-67451904D01*
X84744761Y-67594761D01*
X84649523Y-67690000D01*
X84554285Y-67737619D01*
X84363809Y-67785238D01*
X84220952Y-67785238D01*
X84030476Y-67737619D01*
X83935238Y-67690000D01*
X83840000Y-67594761D01*
X83792380Y-67451904D01*
X83792380Y-67356666D01*
X83840000Y-67213809D01*
X83887619Y-67166190D01*
X84792380Y-66737619D02*
X83792380Y-66737619D01*
X83792380Y-66356666D01*
X83840000Y-66261428D01*
X83887619Y-66213809D01*
X83982857Y-66166190D01*
X84125714Y-66166190D01*
X84220952Y-66213809D01*
X84268571Y-66261428D01*
X84316190Y-66356666D01*
X84316190Y-66737619D01*
X91011904Y-68142380D02*
X91011904Y-67142380D01*
X91392857Y-67142380D01*
X91488095Y-67190000D01*
X91535714Y-67237619D01*
X91583333Y-67332857D01*
X91583333Y-67475714D01*
X91535714Y-67570952D01*
X91488095Y-67618571D01*
X91392857Y-67666190D01*
X91011904Y-67666190D01*
X92440476Y-67475714D02*
X92440476Y-68142380D01*
X92202380Y-67094761D02*
X91964285Y-67809047D01*
X92583333Y-67809047D01*
X126145238Y-85042380D02*
X125573809Y-85042380D01*
X125859523Y-85042380D02*
X125859523Y-84042380D01*
X125764285Y-84185238D01*
X125669047Y-84280476D01*
X125573809Y-84328095D01*
X126764285Y-84042380D02*
X126859523Y-84042380D01*
X126954761Y-84090000D01*
X127002380Y-84137619D01*
X127050000Y-84232857D01*
X127097619Y-84423333D01*
X127097619Y-84661428D01*
X127050000Y-84851904D01*
X127002380Y-84947142D01*
X126954761Y-84994761D01*
X126859523Y-85042380D01*
X126764285Y-85042380D01*
X126669047Y-84994761D01*
X126621428Y-84947142D01*
X126573809Y-84851904D01*
X126526190Y-84661428D01*
X126526190Y-84423333D01*
X126573809Y-84232857D01*
X126621428Y-84137619D01*
X126669047Y-84090000D01*
X126764285Y-84042380D01*
X127716666Y-84042380D02*
X127811904Y-84042380D01*
X127907142Y-84090000D01*
X127954761Y-84137619D01*
X128002380Y-84232857D01*
X128050000Y-84423333D01*
X128050000Y-84661428D01*
X128002380Y-84851904D01*
X127954761Y-84947142D01*
X127907142Y-84994761D01*
X127811904Y-85042380D01*
X127716666Y-85042380D01*
X127621428Y-84994761D01*
X127573809Y-84947142D01*
X127526190Y-84851904D01*
X127478571Y-84661428D01*
X127478571Y-84423333D01*
X127526190Y-84232857D01*
X127573809Y-84137619D01*
X127621428Y-84090000D01*
X127716666Y-84042380D01*
X128478571Y-84375714D02*
X128478571Y-85042380D01*
X128478571Y-84470952D02*
X128526190Y-84423333D01*
X128621428Y-84375714D01*
X128764285Y-84375714D01*
X128859523Y-84423333D01*
X128907142Y-84518571D01*
X128907142Y-85042380D01*
X129240476Y-84375714D02*
X129621428Y-84375714D01*
X129383333Y-85042380D02*
X129383333Y-84185238D01*
X129430952Y-84090000D01*
X129526190Y-84042380D01*
X129621428Y-84042380D01*
X127383333Y-82387142D02*
X127335714Y-82434761D01*
X127192857Y-82482380D01*
X127097619Y-82482380D01*
X126954761Y-82434761D01*
X126859523Y-82339523D01*
X126811904Y-82244285D01*
X126764285Y-82053809D01*
X126764285Y-81910952D01*
X126811904Y-81720476D01*
X126859523Y-81625238D01*
X126954761Y-81530000D01*
X127097619Y-81482380D01*
X127192857Y-81482380D01*
X127335714Y-81530000D01*
X127383333Y-81577619D01*
X128240476Y-81815714D02*
X128240476Y-82482380D01*
X128002380Y-81434761D02*
X127764285Y-82149047D01*
X128383333Y-82149047D01*
X111145238Y-85042380D02*
X110573809Y-85042380D01*
X110859523Y-85042380D02*
X110859523Y-84042380D01*
X110764285Y-84185238D01*
X110669047Y-84280476D01*
X110573809Y-84328095D01*
X111764285Y-84042380D02*
X111859523Y-84042380D01*
X111954761Y-84090000D01*
X112002380Y-84137619D01*
X112050000Y-84232857D01*
X112097619Y-84423333D01*
X112097619Y-84661428D01*
X112050000Y-84851904D01*
X112002380Y-84947142D01*
X111954761Y-84994761D01*
X111859523Y-85042380D01*
X111764285Y-85042380D01*
X111669047Y-84994761D01*
X111621428Y-84947142D01*
X111573809Y-84851904D01*
X111526190Y-84661428D01*
X111526190Y-84423333D01*
X111573809Y-84232857D01*
X111621428Y-84137619D01*
X111669047Y-84090000D01*
X111764285Y-84042380D01*
X112716666Y-84042380D02*
X112811904Y-84042380D01*
X112907142Y-84090000D01*
X112954761Y-84137619D01*
X113002380Y-84232857D01*
X113050000Y-84423333D01*
X113050000Y-84661428D01*
X113002380Y-84851904D01*
X112954761Y-84947142D01*
X112907142Y-84994761D01*
X112811904Y-85042380D01*
X112716666Y-85042380D01*
X112621428Y-84994761D01*
X112573809Y-84947142D01*
X112526190Y-84851904D01*
X112478571Y-84661428D01*
X112478571Y-84423333D01*
X112526190Y-84232857D01*
X112573809Y-84137619D01*
X112621428Y-84090000D01*
X112716666Y-84042380D01*
X113478571Y-84375714D02*
X113478571Y-85042380D01*
X113478571Y-84470952D02*
X113526190Y-84423333D01*
X113621428Y-84375714D01*
X113764285Y-84375714D01*
X113859523Y-84423333D01*
X113907142Y-84518571D01*
X113907142Y-85042380D01*
X114240476Y-84375714D02*
X114621428Y-84375714D01*
X114383333Y-85042380D02*
X114383333Y-84185238D01*
X114430952Y-84090000D01*
X114526190Y-84042380D01*
X114621428Y-84042380D01*
X112383333Y-82387142D02*
X112335714Y-82434761D01*
X112192857Y-82482380D01*
X112097619Y-82482380D01*
X111954761Y-82434761D01*
X111859523Y-82339523D01*
X111811904Y-82244285D01*
X111764285Y-82053809D01*
X111764285Y-81910952D01*
X111811904Y-81720476D01*
X111859523Y-81625238D01*
X111954761Y-81530000D01*
X112097619Y-81482380D01*
X112192857Y-81482380D01*
X112335714Y-81530000D01*
X112383333Y-81577619D01*
X113288095Y-81482380D02*
X112811904Y-81482380D01*
X112764285Y-81958571D01*
X112811904Y-81910952D01*
X112907142Y-81863333D01*
X113145238Y-81863333D01*
X113240476Y-81910952D01*
X113288095Y-81958571D01*
X113335714Y-82053809D01*
X113335714Y-82291904D01*
X113288095Y-82387142D01*
X113240476Y-82434761D01*
X113145238Y-82482380D01*
X112907142Y-82482380D01*
X112811904Y-82434761D01*
X112764285Y-82387142D01*
X143145238Y-85042380D02*
X142573809Y-85042380D01*
X142859523Y-85042380D02*
X142859523Y-84042380D01*
X142764285Y-84185238D01*
X142669047Y-84280476D01*
X142573809Y-84328095D01*
X143764285Y-84042380D02*
X143859523Y-84042380D01*
X143954761Y-84090000D01*
X144002380Y-84137619D01*
X144050000Y-84232857D01*
X144097619Y-84423333D01*
X144097619Y-84661428D01*
X144050000Y-84851904D01*
X144002380Y-84947142D01*
X143954761Y-84994761D01*
X143859523Y-85042380D01*
X143764285Y-85042380D01*
X143669047Y-84994761D01*
X143621428Y-84947142D01*
X143573809Y-84851904D01*
X143526190Y-84661428D01*
X143526190Y-84423333D01*
X143573809Y-84232857D01*
X143621428Y-84137619D01*
X143669047Y-84090000D01*
X143764285Y-84042380D01*
X144716666Y-84042380D02*
X144811904Y-84042380D01*
X144907142Y-84090000D01*
X144954761Y-84137619D01*
X145002380Y-84232857D01*
X145050000Y-84423333D01*
X145050000Y-84661428D01*
X145002380Y-84851904D01*
X144954761Y-84947142D01*
X144907142Y-84994761D01*
X144811904Y-85042380D01*
X144716666Y-85042380D01*
X144621428Y-84994761D01*
X144573809Y-84947142D01*
X144526190Y-84851904D01*
X144478571Y-84661428D01*
X144478571Y-84423333D01*
X144526190Y-84232857D01*
X144573809Y-84137619D01*
X144621428Y-84090000D01*
X144716666Y-84042380D01*
X145478571Y-84375714D02*
X145478571Y-85042380D01*
X145478571Y-84470952D02*
X145526190Y-84423333D01*
X145621428Y-84375714D01*
X145764285Y-84375714D01*
X145859523Y-84423333D01*
X145907142Y-84518571D01*
X145907142Y-85042380D01*
X146240476Y-84375714D02*
X146621428Y-84375714D01*
X146383333Y-85042380D02*
X146383333Y-84185238D01*
X146430952Y-84090000D01*
X146526190Y-84042380D01*
X146621428Y-84042380D01*
X144383333Y-82387142D02*
X144335714Y-82434761D01*
X144192857Y-82482380D01*
X144097619Y-82482380D01*
X143954761Y-82434761D01*
X143859523Y-82339523D01*
X143811904Y-82244285D01*
X143764285Y-82053809D01*
X143764285Y-81910952D01*
X143811904Y-81720476D01*
X143859523Y-81625238D01*
X143954761Y-81530000D01*
X144097619Y-81482380D01*
X144192857Y-81482380D01*
X144335714Y-81530000D01*
X144383333Y-81577619D01*
X145240476Y-81482380D02*
X145050000Y-81482380D01*
X144954761Y-81530000D01*
X144907142Y-81577619D01*
X144811904Y-81720476D01*
X144764285Y-81910952D01*
X144764285Y-82291904D01*
X144811904Y-82387142D01*
X144859523Y-82434761D01*
X144954761Y-82482380D01*
X145145238Y-82482380D01*
X145240476Y-82434761D01*
X145288095Y-82387142D01*
X145335714Y-82291904D01*
X145335714Y-82053809D01*
X145288095Y-81958571D01*
X145240476Y-81910952D01*
X145145238Y-81863333D01*
X144954761Y-81863333D01*
X144859523Y-81910952D01*
X144811904Y-81958571D01*
X144764285Y-82053809D01*
X82185142Y-92976380D02*
X81613714Y-92976380D01*
X81899428Y-92976380D02*
X81899428Y-91976380D01*
X81804190Y-92119238D01*
X81708952Y-92214476D01*
X81613714Y-92262095D01*
X82613714Y-92976380D02*
X82613714Y-91976380D01*
X83185142Y-92976380D01*
X83185142Y-91976380D01*
X84089904Y-92309714D02*
X84089904Y-92976380D01*
X83851809Y-91928761D02*
X83613714Y-92643047D01*
X84232761Y-92643047D01*
X84804190Y-91976380D02*
X84899428Y-91976380D01*
X84994666Y-92024000D01*
X85042285Y-92071619D01*
X85089904Y-92166857D01*
X85137523Y-92357333D01*
X85137523Y-92595428D01*
X85089904Y-92785904D01*
X85042285Y-92881142D01*
X84994666Y-92928761D01*
X84899428Y-92976380D01*
X84804190Y-92976380D01*
X84708952Y-92928761D01*
X84661333Y-92881142D01*
X84613714Y-92785904D01*
X84566095Y-92595428D01*
X84566095Y-92357333D01*
X84613714Y-92166857D01*
X84661333Y-92071619D01*
X84708952Y-92024000D01*
X84804190Y-91976380D01*
X85756571Y-91976380D02*
X85851809Y-91976380D01*
X85947047Y-92024000D01*
X85994666Y-92071619D01*
X86042285Y-92166857D01*
X86089904Y-92357333D01*
X86089904Y-92595428D01*
X86042285Y-92785904D01*
X85994666Y-92881142D01*
X85947047Y-92928761D01*
X85851809Y-92976380D01*
X85756571Y-92976380D01*
X85661333Y-92928761D01*
X85613714Y-92881142D01*
X85566095Y-92785904D01*
X85518476Y-92595428D01*
X85518476Y-92357333D01*
X85566095Y-92166857D01*
X85613714Y-92071619D01*
X85661333Y-92024000D01*
X85756571Y-91976380D01*
X86423238Y-91976380D02*
X87089904Y-91976380D01*
X86661333Y-92976380D01*
X83589904Y-88876380D02*
X83589904Y-87876380D01*
X83828000Y-87876380D01*
X83970857Y-87924000D01*
X84066095Y-88019238D01*
X84113714Y-88114476D01*
X84161333Y-88304952D01*
X84161333Y-88447809D01*
X84113714Y-88638285D01*
X84066095Y-88733523D01*
X83970857Y-88828761D01*
X83828000Y-88876380D01*
X83589904Y-88876380D01*
X85018476Y-87876380D02*
X84828000Y-87876380D01*
X84732761Y-87924000D01*
X84685142Y-87971619D01*
X84589904Y-88114476D01*
X84542285Y-88304952D01*
X84542285Y-88685904D01*
X84589904Y-88781142D01*
X84637523Y-88828761D01*
X84732761Y-88876380D01*
X84923238Y-88876380D01*
X85018476Y-88828761D01*
X85066095Y-88781142D01*
X85113714Y-88685904D01*
X85113714Y-88447809D01*
X85066095Y-88352571D01*
X85018476Y-88304952D01*
X84923238Y-88257333D01*
X84732761Y-88257333D01*
X84637523Y-88304952D01*
X84589904Y-88352571D01*
X84542285Y-88447809D01*
X128033333Y-90202380D02*
X127461904Y-90202380D01*
X127747619Y-90202380D02*
X127747619Y-89202380D01*
X127652380Y-89345238D01*
X127557142Y-89440476D01*
X127461904Y-89488095D01*
X128652380Y-89202380D02*
X128747619Y-89202380D01*
X128842857Y-89250000D01*
X128890476Y-89297619D01*
X128938095Y-89392857D01*
X128985714Y-89583333D01*
X128985714Y-89821428D01*
X128938095Y-90011904D01*
X128890476Y-90107142D01*
X128842857Y-90154761D01*
X128747619Y-90202380D01*
X128652380Y-90202380D01*
X128557142Y-90154761D01*
X128509523Y-90107142D01*
X128461904Y-90011904D01*
X128414285Y-89821428D01*
X128414285Y-89583333D01*
X128461904Y-89392857D01*
X128509523Y-89297619D01*
X128557142Y-89250000D01*
X128652380Y-89202380D01*
X129604761Y-89202380D02*
X129700000Y-89202380D01*
X129795238Y-89250000D01*
X129842857Y-89297619D01*
X129890476Y-89392857D01*
X129938095Y-89583333D01*
X129938095Y-89821428D01*
X129890476Y-90011904D01*
X129842857Y-90107142D01*
X129795238Y-90154761D01*
X129700000Y-90202380D01*
X129604761Y-90202380D01*
X129509523Y-90154761D01*
X129461904Y-90107142D01*
X129414285Y-90011904D01*
X129366666Y-89821428D01*
X129366666Y-89583333D01*
X129414285Y-89392857D01*
X129461904Y-89297619D01*
X129509523Y-89250000D01*
X129604761Y-89202380D01*
X128533333Y-87482380D02*
X128200000Y-87006190D01*
X127961904Y-87482380D02*
X127961904Y-86482380D01*
X128342857Y-86482380D01*
X128438095Y-86530000D01*
X128485714Y-86577619D01*
X128533333Y-86672857D01*
X128533333Y-86815714D01*
X128485714Y-86910952D01*
X128438095Y-86958571D01*
X128342857Y-87006190D01*
X127961904Y-87006190D01*
X129009523Y-87482380D02*
X129200000Y-87482380D01*
X129295238Y-87434761D01*
X129342857Y-87387142D01*
X129438095Y-87244285D01*
X129485714Y-87053809D01*
X129485714Y-86672857D01*
X129438095Y-86577619D01*
X129390476Y-86530000D01*
X129295238Y-86482380D01*
X129104761Y-86482380D01*
X129009523Y-86530000D01*
X128961904Y-86577619D01*
X128914285Y-86672857D01*
X128914285Y-86910952D01*
X128961904Y-87006190D01*
X129009523Y-87053809D01*
X129104761Y-87101428D01*
X129295238Y-87101428D01*
X129390476Y-87053809D01*
X129438095Y-87006190D01*
X129485714Y-86910952D01*
X112033333Y-90202380D02*
X111461904Y-90202380D01*
X111747619Y-90202380D02*
X111747619Y-89202380D01*
X111652380Y-89345238D01*
X111557142Y-89440476D01*
X111461904Y-89488095D01*
X112652380Y-89202380D02*
X112747619Y-89202380D01*
X112842857Y-89250000D01*
X112890476Y-89297619D01*
X112938095Y-89392857D01*
X112985714Y-89583333D01*
X112985714Y-89821428D01*
X112938095Y-90011904D01*
X112890476Y-90107142D01*
X112842857Y-90154761D01*
X112747619Y-90202380D01*
X112652380Y-90202380D01*
X112557142Y-90154761D01*
X112509523Y-90107142D01*
X112461904Y-90011904D01*
X112414285Y-89821428D01*
X112414285Y-89583333D01*
X112461904Y-89392857D01*
X112509523Y-89297619D01*
X112557142Y-89250000D01*
X112652380Y-89202380D01*
X113604761Y-89202380D02*
X113700000Y-89202380D01*
X113795238Y-89250000D01*
X113842857Y-89297619D01*
X113890476Y-89392857D01*
X113938095Y-89583333D01*
X113938095Y-89821428D01*
X113890476Y-90011904D01*
X113842857Y-90107142D01*
X113795238Y-90154761D01*
X113700000Y-90202380D01*
X113604761Y-90202380D01*
X113509523Y-90154761D01*
X113461904Y-90107142D01*
X113414285Y-90011904D01*
X113366666Y-89821428D01*
X113366666Y-89583333D01*
X113414285Y-89392857D01*
X113461904Y-89297619D01*
X113509523Y-89250000D01*
X113604761Y-89202380D01*
X112057142Y-87482380D02*
X111723809Y-87006190D01*
X111485714Y-87482380D02*
X111485714Y-86482380D01*
X111866666Y-86482380D01*
X111961904Y-86530000D01*
X112009523Y-86577619D01*
X112057142Y-86672857D01*
X112057142Y-86815714D01*
X112009523Y-86910952D01*
X111961904Y-86958571D01*
X111866666Y-87006190D01*
X111485714Y-87006190D01*
X113009523Y-87482380D02*
X112438095Y-87482380D01*
X112723809Y-87482380D02*
X112723809Y-86482380D01*
X112628571Y-86625238D01*
X112533333Y-86720476D01*
X112438095Y-86768095D01*
X113628571Y-86482380D02*
X113723809Y-86482380D01*
X113819047Y-86530000D01*
X113866666Y-86577619D01*
X113914285Y-86672857D01*
X113961904Y-86863333D01*
X113961904Y-87101428D01*
X113914285Y-87291904D01*
X113866666Y-87387142D01*
X113819047Y-87434761D01*
X113723809Y-87482380D01*
X113628571Y-87482380D01*
X113533333Y-87434761D01*
X113485714Y-87387142D01*
X113438095Y-87291904D01*
X113390476Y-87101428D01*
X113390476Y-86863333D01*
X113438095Y-86672857D01*
X113485714Y-86577619D01*
X113533333Y-86530000D01*
X113628571Y-86482380D01*
X143733333Y-90202380D02*
X143161904Y-90202380D01*
X143447619Y-90202380D02*
X143447619Y-89202380D01*
X143352380Y-89345238D01*
X143257142Y-89440476D01*
X143161904Y-89488095D01*
X144352380Y-89202380D02*
X144447619Y-89202380D01*
X144542857Y-89250000D01*
X144590476Y-89297619D01*
X144638095Y-89392857D01*
X144685714Y-89583333D01*
X144685714Y-89821428D01*
X144638095Y-90011904D01*
X144590476Y-90107142D01*
X144542857Y-90154761D01*
X144447619Y-90202380D01*
X144352380Y-90202380D01*
X144257142Y-90154761D01*
X144209523Y-90107142D01*
X144161904Y-90011904D01*
X144114285Y-89821428D01*
X144114285Y-89583333D01*
X144161904Y-89392857D01*
X144209523Y-89297619D01*
X144257142Y-89250000D01*
X144352380Y-89202380D01*
X145304761Y-89202380D02*
X145400000Y-89202380D01*
X145495238Y-89250000D01*
X145542857Y-89297619D01*
X145590476Y-89392857D01*
X145638095Y-89583333D01*
X145638095Y-89821428D01*
X145590476Y-90011904D01*
X145542857Y-90107142D01*
X145495238Y-90154761D01*
X145400000Y-90202380D01*
X145304761Y-90202380D01*
X145209523Y-90154761D01*
X145161904Y-90107142D01*
X145114285Y-90011904D01*
X145066666Y-89821428D01*
X145066666Y-89583333D01*
X145114285Y-89392857D01*
X145161904Y-89297619D01*
X145209523Y-89250000D01*
X145304761Y-89202380D01*
X143757142Y-87482380D02*
X143423809Y-87006190D01*
X143185714Y-87482380D02*
X143185714Y-86482380D01*
X143566666Y-86482380D01*
X143661904Y-86530000D01*
X143709523Y-86577619D01*
X143757142Y-86672857D01*
X143757142Y-86815714D01*
X143709523Y-86910952D01*
X143661904Y-86958571D01*
X143566666Y-87006190D01*
X143185714Y-87006190D01*
X144709523Y-87482380D02*
X144138095Y-87482380D01*
X144423809Y-87482380D02*
X144423809Y-86482380D01*
X144328571Y-86625238D01*
X144233333Y-86720476D01*
X144138095Y-86768095D01*
X145661904Y-87482380D02*
X145090476Y-87482380D01*
X145376190Y-87482380D02*
X145376190Y-86482380D01*
X145280952Y-86625238D01*
X145185714Y-86720476D01*
X145090476Y-86768095D01*
X116023809Y-49832380D02*
X115547619Y-49832380D01*
X115547619Y-48832380D01*
X116214285Y-48832380D02*
X116785714Y-48832380D01*
X116500000Y-49832380D02*
X116500000Y-48832380D01*
X117690476Y-49737142D02*
X117642857Y-49784761D01*
X117500000Y-49832380D01*
X117404761Y-49832380D01*
X117261904Y-49784761D01*
X117166666Y-49689523D01*
X117119047Y-49594285D01*
X117071428Y-49403809D01*
X117071428Y-49260952D01*
X117119047Y-49070476D01*
X117166666Y-48975238D01*
X117261904Y-48880000D01*
X117404761Y-48832380D01*
X117500000Y-48832380D01*
X117642857Y-48880000D01*
X117690476Y-48927619D01*
X118119047Y-49451428D02*
X118880952Y-49451428D01*
X119785714Y-49165714D02*
X119785714Y-49832380D01*
X119547619Y-48784761D02*
X119309523Y-49499047D01*
X119928571Y-49499047D01*
X120214285Y-48832380D02*
X120880952Y-48832380D01*
X120452380Y-49832380D01*
X121214285Y-48927619D02*
X121261904Y-48880000D01*
X121357142Y-48832380D01*
X121595238Y-48832380D01*
X121690476Y-48880000D01*
X121738095Y-48927619D01*
X121785714Y-49022857D01*
X121785714Y-49118095D01*
X121738095Y-49260952D01*
X121166666Y-49832380D01*
X121785714Y-49832380D01*
X122642857Y-49165714D02*
X122642857Y-49832380D01*
X122404761Y-48784761D02*
X122166666Y-49499047D01*
X122785714Y-49499047D01*
X123452380Y-48832380D02*
X123452380Y-49546666D01*
X123404761Y-49689523D01*
X123309523Y-49784761D01*
X123166666Y-49832380D01*
X123071428Y-49832380D01*
X124500000Y-49832380D02*
X124166666Y-49356190D01*
X123928571Y-49832380D02*
X123928571Y-48832380D01*
X124309523Y-48832380D01*
X124404761Y-48880000D01*
X124452380Y-48927619D01*
X124500000Y-49022857D01*
X124500000Y-49165714D01*
X124452380Y-49260952D01*
X124404761Y-49308571D01*
X124309523Y-49356190D01*
X123928571Y-49356190D01*
X94738095Y-57654761D02*
X94880952Y-57702380D01*
X95119047Y-57702380D01*
X95214285Y-57654761D01*
X95261904Y-57607142D01*
X95309523Y-57511904D01*
X95309523Y-57416666D01*
X95261904Y-57321428D01*
X95214285Y-57273809D01*
X95119047Y-57226190D01*
X94928571Y-57178571D01*
X94833333Y-57130952D01*
X94785714Y-57083333D01*
X94738095Y-56988095D01*
X94738095Y-56892857D01*
X94785714Y-56797619D01*
X94833333Y-56750000D01*
X94928571Y-56702380D01*
X95166666Y-56702380D01*
X95309523Y-56750000D01*
X95642857Y-56702380D02*
X95880952Y-57702380D01*
X96071428Y-56988095D01*
X96261904Y-57702380D01*
X96500000Y-56702380D01*
X96642857Y-57797619D02*
X97404761Y-57797619D01*
X97642857Y-57702380D02*
X97642857Y-56702380D01*
X98023809Y-56702380D01*
X98119047Y-56750000D01*
X98166666Y-56797619D01*
X98214285Y-56892857D01*
X98214285Y-57035714D01*
X98166666Y-57130952D01*
X98119047Y-57178571D01*
X98023809Y-57226190D01*
X97642857Y-57226190D01*
X98642857Y-56702380D02*
X98642857Y-57511904D01*
X98690476Y-57607142D01*
X98738095Y-57654761D01*
X98833333Y-57702380D01*
X99023809Y-57702380D01*
X99119047Y-57654761D01*
X99166666Y-57607142D01*
X99214285Y-57511904D01*
X99214285Y-56702380D01*
X99642857Y-57654761D02*
X99785714Y-57702380D01*
X100023809Y-57702380D01*
X100119047Y-57654761D01*
X100166666Y-57607142D01*
X100214285Y-57511904D01*
X100214285Y-57416666D01*
X100166666Y-57321428D01*
X100119047Y-57273809D01*
X100023809Y-57226190D01*
X99833333Y-57178571D01*
X99738095Y-57130952D01*
X99690476Y-57083333D01*
X99642857Y-56988095D01*
X99642857Y-56892857D01*
X99690476Y-56797619D01*
X99738095Y-56750000D01*
X99833333Y-56702380D01*
X100071428Y-56702380D01*
X100214285Y-56750000D01*
X100642857Y-57702380D02*
X100642857Y-56702380D01*
X100642857Y-57178571D02*
X101214285Y-57178571D01*
X101214285Y-57702380D02*
X101214285Y-56702380D01*
X96666666Y-49504761D02*
X96809523Y-49552380D01*
X97047619Y-49552380D01*
X97142857Y-49504761D01*
X97190476Y-49457142D01*
X97238095Y-49361904D01*
X97238095Y-49266666D01*
X97190476Y-49171428D01*
X97142857Y-49123809D01*
X97047619Y-49076190D01*
X96857142Y-49028571D01*
X96761904Y-48980952D01*
X96714285Y-48933333D01*
X96666666Y-48838095D01*
X96666666Y-48742857D01*
X96714285Y-48647619D01*
X96761904Y-48600000D01*
X96857142Y-48552380D01*
X97095238Y-48552380D01*
X97238095Y-48600000D01*
X97571428Y-48552380D02*
X97809523Y-49552380D01*
X98000000Y-48838095D01*
X98190476Y-49552380D01*
X98428571Y-48552380D01*
X99333333Y-49552380D02*
X98761904Y-49552380D01*
X99047619Y-49552380D02*
X99047619Y-48552380D01*
X98952380Y-48695238D01*
X98857142Y-48790476D01*
X98761904Y-48838095D01*
X94738095Y-66654761D02*
X94880952Y-66702380D01*
X95119047Y-66702380D01*
X95214285Y-66654761D01*
X95261904Y-66607142D01*
X95309523Y-66511904D01*
X95309523Y-66416666D01*
X95261904Y-66321428D01*
X95214285Y-66273809D01*
X95119047Y-66226190D01*
X94928571Y-66178571D01*
X94833333Y-66130952D01*
X94785714Y-66083333D01*
X94738095Y-65988095D01*
X94738095Y-65892857D01*
X94785714Y-65797619D01*
X94833333Y-65750000D01*
X94928571Y-65702380D01*
X95166666Y-65702380D01*
X95309523Y-65750000D01*
X95642857Y-65702380D02*
X95880952Y-66702380D01*
X96071428Y-65988095D01*
X96261904Y-66702380D01*
X96500000Y-65702380D01*
X96642857Y-66797619D02*
X97404761Y-66797619D01*
X97642857Y-66702380D02*
X97642857Y-65702380D01*
X98023809Y-65702380D01*
X98119047Y-65750000D01*
X98166666Y-65797619D01*
X98214285Y-65892857D01*
X98214285Y-66035714D01*
X98166666Y-66130952D01*
X98119047Y-66178571D01*
X98023809Y-66226190D01*
X97642857Y-66226190D01*
X98642857Y-65702380D02*
X98642857Y-66511904D01*
X98690476Y-66607142D01*
X98738095Y-66654761D01*
X98833333Y-66702380D01*
X99023809Y-66702380D01*
X99119047Y-66654761D01*
X99166666Y-66607142D01*
X99214285Y-66511904D01*
X99214285Y-65702380D01*
X99642857Y-66654761D02*
X99785714Y-66702380D01*
X100023809Y-66702380D01*
X100119047Y-66654761D01*
X100166666Y-66607142D01*
X100214285Y-66511904D01*
X100214285Y-66416666D01*
X100166666Y-66321428D01*
X100119047Y-66273809D01*
X100023809Y-66226190D01*
X99833333Y-66178571D01*
X99738095Y-66130952D01*
X99690476Y-66083333D01*
X99642857Y-65988095D01*
X99642857Y-65892857D01*
X99690476Y-65797619D01*
X99738095Y-65750000D01*
X99833333Y-65702380D01*
X100071428Y-65702380D01*
X100214285Y-65750000D01*
X100642857Y-66702380D02*
X100642857Y-65702380D01*
X100642857Y-66178571D02*
X101214285Y-66178571D01*
X101214285Y-66702380D02*
X101214285Y-65702380D01*
X96666666Y-58504761D02*
X96809523Y-58552380D01*
X97047619Y-58552380D01*
X97142857Y-58504761D01*
X97190476Y-58457142D01*
X97238095Y-58361904D01*
X97238095Y-58266666D01*
X97190476Y-58171428D01*
X97142857Y-58123809D01*
X97047619Y-58076190D01*
X96857142Y-58028571D01*
X96761904Y-57980952D01*
X96714285Y-57933333D01*
X96666666Y-57838095D01*
X96666666Y-57742857D01*
X96714285Y-57647619D01*
X96761904Y-57600000D01*
X96857142Y-57552380D01*
X97095238Y-57552380D01*
X97238095Y-57600000D01*
X97571428Y-57552380D02*
X97809523Y-58552380D01*
X98000000Y-57838095D01*
X98190476Y-58552380D01*
X98428571Y-57552380D01*
X98761904Y-57647619D02*
X98809523Y-57600000D01*
X98904761Y-57552380D01*
X99142857Y-57552380D01*
X99238095Y-57600000D01*
X99285714Y-57647619D01*
X99333333Y-57742857D01*
X99333333Y-57838095D01*
X99285714Y-57980952D01*
X98714285Y-58552380D01*
X99333333Y-58552380D01*
X138738095Y-57654761D02*
X138880952Y-57702380D01*
X139119047Y-57702380D01*
X139214285Y-57654761D01*
X139261904Y-57607142D01*
X139309523Y-57511904D01*
X139309523Y-57416666D01*
X139261904Y-57321428D01*
X139214285Y-57273809D01*
X139119047Y-57226190D01*
X138928571Y-57178571D01*
X138833333Y-57130952D01*
X138785714Y-57083333D01*
X138738095Y-56988095D01*
X138738095Y-56892857D01*
X138785714Y-56797619D01*
X138833333Y-56750000D01*
X138928571Y-56702380D01*
X139166666Y-56702380D01*
X139309523Y-56750000D01*
X139642857Y-56702380D02*
X139880952Y-57702380D01*
X140071428Y-56988095D01*
X140261904Y-57702380D01*
X140500000Y-56702380D01*
X140642857Y-57797619D02*
X141404761Y-57797619D01*
X141642857Y-57702380D02*
X141642857Y-56702380D01*
X142023809Y-56702380D01*
X142119047Y-56750000D01*
X142166666Y-56797619D01*
X142214285Y-56892857D01*
X142214285Y-57035714D01*
X142166666Y-57130952D01*
X142119047Y-57178571D01*
X142023809Y-57226190D01*
X141642857Y-57226190D01*
X142642857Y-56702380D02*
X142642857Y-57511904D01*
X142690476Y-57607142D01*
X142738095Y-57654761D01*
X142833333Y-57702380D01*
X143023809Y-57702380D01*
X143119047Y-57654761D01*
X143166666Y-57607142D01*
X143214285Y-57511904D01*
X143214285Y-56702380D01*
X143642857Y-57654761D02*
X143785714Y-57702380D01*
X144023809Y-57702380D01*
X144119047Y-57654761D01*
X144166666Y-57607142D01*
X144214285Y-57511904D01*
X144214285Y-57416666D01*
X144166666Y-57321428D01*
X144119047Y-57273809D01*
X144023809Y-57226190D01*
X143833333Y-57178571D01*
X143738095Y-57130952D01*
X143690476Y-57083333D01*
X143642857Y-56988095D01*
X143642857Y-56892857D01*
X143690476Y-56797619D01*
X143738095Y-56750000D01*
X143833333Y-56702380D01*
X144071428Y-56702380D01*
X144214285Y-56750000D01*
X144642857Y-57702380D02*
X144642857Y-56702380D01*
X144642857Y-57178571D02*
X145214285Y-57178571D01*
X145214285Y-57702380D02*
X145214285Y-56702380D01*
X140666666Y-49504761D02*
X140809523Y-49552380D01*
X141047619Y-49552380D01*
X141142857Y-49504761D01*
X141190476Y-49457142D01*
X141238095Y-49361904D01*
X141238095Y-49266666D01*
X141190476Y-49171428D01*
X141142857Y-49123809D01*
X141047619Y-49076190D01*
X140857142Y-49028571D01*
X140761904Y-48980952D01*
X140714285Y-48933333D01*
X140666666Y-48838095D01*
X140666666Y-48742857D01*
X140714285Y-48647619D01*
X140761904Y-48600000D01*
X140857142Y-48552380D01*
X141095238Y-48552380D01*
X141238095Y-48600000D01*
X141571428Y-48552380D02*
X141809523Y-49552380D01*
X142000000Y-48838095D01*
X142190476Y-49552380D01*
X142428571Y-48552380D01*
X142714285Y-48552380D02*
X143333333Y-48552380D01*
X143000000Y-48933333D01*
X143142857Y-48933333D01*
X143238095Y-48980952D01*
X143285714Y-49028571D01*
X143333333Y-49123809D01*
X143333333Y-49361904D01*
X143285714Y-49457142D01*
X143238095Y-49504761D01*
X143142857Y-49552380D01*
X142857142Y-49552380D01*
X142761904Y-49504761D01*
X142714285Y-49457142D01*
X138528095Y-66654761D02*
X138670952Y-66702380D01*
X138909047Y-66702380D01*
X139004285Y-66654761D01*
X139051904Y-66607142D01*
X139099523Y-66511904D01*
X139099523Y-66416666D01*
X139051904Y-66321428D01*
X139004285Y-66273809D01*
X138909047Y-66226190D01*
X138718571Y-66178571D01*
X138623333Y-66130952D01*
X138575714Y-66083333D01*
X138528095Y-65988095D01*
X138528095Y-65892857D01*
X138575714Y-65797619D01*
X138623333Y-65750000D01*
X138718571Y-65702380D01*
X138956666Y-65702380D01*
X139099523Y-65750000D01*
X139432857Y-65702380D02*
X139670952Y-66702380D01*
X139861428Y-65988095D01*
X140051904Y-66702380D01*
X140290000Y-65702380D01*
X140432857Y-66797619D02*
X141194761Y-66797619D01*
X141432857Y-66702380D02*
X141432857Y-65702380D01*
X141813809Y-65702380D01*
X141909047Y-65750000D01*
X141956666Y-65797619D01*
X142004285Y-65892857D01*
X142004285Y-66035714D01*
X141956666Y-66130952D01*
X141909047Y-66178571D01*
X141813809Y-66226190D01*
X141432857Y-66226190D01*
X142432857Y-65702380D02*
X142432857Y-66511904D01*
X142480476Y-66607142D01*
X142528095Y-66654761D01*
X142623333Y-66702380D01*
X142813809Y-66702380D01*
X142909047Y-66654761D01*
X142956666Y-66607142D01*
X143004285Y-66511904D01*
X143004285Y-65702380D01*
X143432857Y-66654761D02*
X143575714Y-66702380D01*
X143813809Y-66702380D01*
X143909047Y-66654761D01*
X143956666Y-66607142D01*
X144004285Y-66511904D01*
X144004285Y-66416666D01*
X143956666Y-66321428D01*
X143909047Y-66273809D01*
X143813809Y-66226190D01*
X143623333Y-66178571D01*
X143528095Y-66130952D01*
X143480476Y-66083333D01*
X143432857Y-65988095D01*
X143432857Y-65892857D01*
X143480476Y-65797619D01*
X143528095Y-65750000D01*
X143623333Y-65702380D01*
X143861428Y-65702380D01*
X144004285Y-65750000D01*
X144432857Y-66702380D02*
X144432857Y-65702380D01*
X144432857Y-66178571D02*
X145004285Y-66178571D01*
X145004285Y-66702380D02*
X145004285Y-65702380D01*
X140456666Y-58504761D02*
X140599523Y-58552380D01*
X140837619Y-58552380D01*
X140932857Y-58504761D01*
X140980476Y-58457142D01*
X141028095Y-58361904D01*
X141028095Y-58266666D01*
X140980476Y-58171428D01*
X140932857Y-58123809D01*
X140837619Y-58076190D01*
X140647142Y-58028571D01*
X140551904Y-57980952D01*
X140504285Y-57933333D01*
X140456666Y-57838095D01*
X140456666Y-57742857D01*
X140504285Y-57647619D01*
X140551904Y-57600000D01*
X140647142Y-57552380D01*
X140885238Y-57552380D01*
X141028095Y-57600000D01*
X141361428Y-57552380D02*
X141599523Y-58552380D01*
X141790000Y-57838095D01*
X141980476Y-58552380D01*
X142218571Y-57552380D01*
X143028095Y-57885714D02*
X143028095Y-58552380D01*
X142790000Y-57504761D02*
X142551904Y-58219047D01*
X143170952Y-58219047D01*
X95909142Y-78724380D02*
X95909142Y-77724380D01*
X96147238Y-77724380D01*
X96290095Y-77772000D01*
X96385333Y-77867238D01*
X96432952Y-77962476D01*
X96480571Y-78152952D01*
X96480571Y-78295809D01*
X96432952Y-78486285D01*
X96385333Y-78581523D01*
X96290095Y-78676761D01*
X96147238Y-78724380D01*
X95909142Y-78724380D01*
X96671047Y-78819619D02*
X97432952Y-78819619D01*
X98242476Y-78629142D02*
X98194857Y-78676761D01*
X98052000Y-78724380D01*
X97956761Y-78724380D01*
X97813904Y-78676761D01*
X97718666Y-78581523D01*
X97671047Y-78486285D01*
X97623428Y-78295809D01*
X97623428Y-78152952D01*
X97671047Y-77962476D01*
X97718666Y-77867238D01*
X97813904Y-77772000D01*
X97956761Y-77724380D01*
X98052000Y-77724380D01*
X98194857Y-77772000D01*
X98242476Y-77819619D01*
D10*
X96756761Y-80952952D02*
X96756761Y-80552952D01*
X96852000Y-80552952D01*
X96909142Y-80572000D01*
X96947238Y-80610095D01*
X96966285Y-80648190D01*
X96985333Y-80724380D01*
X96985333Y-80781523D01*
X96966285Y-80857714D01*
X96947238Y-80895809D01*
X96909142Y-80933904D01*
X96852000Y-80952952D01*
X96756761Y-80952952D01*
X97213904Y-80724380D02*
X97175809Y-80705333D01*
X97156761Y-80686285D01*
X97137714Y-80648190D01*
X97137714Y-80629142D01*
X97156761Y-80591047D01*
X97175809Y-80572000D01*
X97213904Y-80552952D01*
X97290095Y-80552952D01*
X97328190Y-80572000D01*
X97347238Y-80591047D01*
X97366285Y-80629142D01*
X97366285Y-80648190D01*
X97347238Y-80686285D01*
X97328190Y-80705333D01*
X97290095Y-80724380D01*
X97213904Y-80724380D01*
X97175809Y-80743428D01*
X97156761Y-80762476D01*
X97137714Y-80800571D01*
X97137714Y-80876761D01*
X97156761Y-80914857D01*
X97175809Y-80933904D01*
X97213904Y-80952952D01*
X97290095Y-80952952D01*
X97328190Y-80933904D01*
X97347238Y-80914857D01*
X97366285Y-80876761D01*
X97366285Y-80800571D01*
X97347238Y-80762476D01*
X97328190Y-80743428D01*
X97290095Y-80724380D01*
D11*
X95956571Y-74152380D02*
X95956571Y-73152380D01*
X96194666Y-73152380D01*
X96337523Y-73200000D01*
X96432761Y-73295238D01*
X96480380Y-73390476D01*
X96528000Y-73580952D01*
X96528000Y-73723809D01*
X96480380Y-73914285D01*
X96432761Y-74009523D01*
X96337523Y-74104761D01*
X96194666Y-74152380D01*
X95956571Y-74152380D01*
X96718476Y-74247619D02*
X97480380Y-74247619D01*
X97575619Y-73152380D02*
X97908952Y-74152380D01*
X98242285Y-73152380D01*
D10*
X96732761Y-76380952D02*
X96732761Y-75980952D01*
X96828000Y-75980952D01*
X96885142Y-76000000D01*
X96923238Y-76038095D01*
X96942285Y-76076190D01*
X96961333Y-76152380D01*
X96961333Y-76209523D01*
X96942285Y-76285714D01*
X96923238Y-76323809D01*
X96885142Y-76361904D01*
X96828000Y-76380952D01*
X96732761Y-76380952D01*
X97151809Y-76380952D02*
X97228000Y-76380952D01*
X97266095Y-76361904D01*
X97285142Y-76342857D01*
X97323238Y-76285714D01*
X97342285Y-76209523D01*
X97342285Y-76057142D01*
X97323238Y-76019047D01*
X97304190Y-76000000D01*
X97266095Y-75980952D01*
X97189904Y-75980952D01*
X97151809Y-76000000D01*
X97132761Y-76019047D01*
X97113714Y-76057142D01*
X97113714Y-76152380D01*
X97132761Y-76190476D01*
X97151809Y-76209523D01*
X97189904Y-76228571D01*
X97266095Y-76228571D01*
X97304190Y-76209523D01*
X97323238Y-76190476D01*
X97342285Y-76152380D01*
D11*
X95655142Y-69580380D02*
X95655142Y-68580380D01*
X95893238Y-68580380D01*
X96036095Y-68628000D01*
X96131333Y-68723238D01*
X96178952Y-68818476D01*
X96226571Y-69008952D01*
X96226571Y-69151809D01*
X96178952Y-69342285D01*
X96131333Y-69437523D01*
X96036095Y-69532761D01*
X95893238Y-69580380D01*
X95655142Y-69580380D01*
X96417047Y-69675619D02*
X97178952Y-69675619D01*
X97988476Y-69580380D02*
X97655142Y-69104190D01*
X97417047Y-69580380D02*
X97417047Y-68580380D01*
X97798000Y-68580380D01*
X97893238Y-68628000D01*
X97940857Y-68675619D01*
X97988476Y-68770857D01*
X97988476Y-68913714D01*
X97940857Y-69008952D01*
X97893238Y-69056571D01*
X97798000Y-69104190D01*
X97417047Y-69104190D01*
D10*
X96312285Y-71808952D02*
X96312285Y-71408952D01*
X96407523Y-71408952D01*
X96464666Y-71428000D01*
X96502761Y-71466095D01*
X96521809Y-71504190D01*
X96540857Y-71580380D01*
X96540857Y-71637523D01*
X96521809Y-71713714D01*
X96502761Y-71751809D01*
X96464666Y-71789904D01*
X96407523Y-71808952D01*
X96312285Y-71808952D01*
X96921809Y-71808952D02*
X96693238Y-71808952D01*
X96807523Y-71808952D02*
X96807523Y-71408952D01*
X96769428Y-71466095D01*
X96731333Y-71504190D01*
X96693238Y-71523238D01*
X97169428Y-71408952D02*
X97207523Y-71408952D01*
X97245619Y-71428000D01*
X97264666Y-71447047D01*
X97283714Y-71485142D01*
X97302761Y-71561333D01*
X97302761Y-71656571D01*
X97283714Y-71732761D01*
X97264666Y-71770857D01*
X97245619Y-71789904D01*
X97207523Y-71808952D01*
X97169428Y-71808952D01*
X97131333Y-71789904D01*
X97112285Y-71770857D01*
X97093238Y-71732761D01*
X97074190Y-71656571D01*
X97074190Y-71561333D01*
X97093238Y-71485142D01*
X97112285Y-71447047D01*
X97131333Y-71428000D01*
X97169428Y-71408952D01*
M02*
