M48
;DRILL file {KiCad 4.0.1-stable} date 29/05/2016 15:16:17
;FORMAT={-:-/ absolute / metric / decimal}
FMAT,2
METRIC,TZ
T1C0.600
T2C0.700
T3C0.701
T4C0.800
T5C0.800
T6C0.813
T7C0.900
T8C1.001
T9C1.016
T10C1.199
T11C1.270
T12C1.300
%
G90
G05
M71
T1
X48.1Y67.86
X49.37Y67.86
X50.64Y67.86
X59.53Y67.86
X60.8Y67.86
X62.07Y67.86
X70.96Y67.86
X72.23Y67.86
X73.5Y67.86
T2
X49.64Y32.78
X49.64Y48.02
X52.18Y32.78
X52.18Y48.02
X54.72Y32.78
X54.72Y48.02
X57.26Y32.78
X57.26Y48.02
X59.8Y32.78
X59.8Y48.02
X62.34Y32.78
X62.34Y48.02
X64.88Y32.78
X64.88Y48.02
X67.42Y32.78
X67.42Y48.02
X69.96Y32.78
X69.96Y48.02
X72.5Y32.78
X72.5Y48.02
X75.04Y32.78
X75.04Y48.02
X77.58Y32.78
X77.58Y48.02
X80.12Y32.78
X80.12Y48.02
X82.66Y32.78
X82.66Y48.02
T3
X36.673Y46.271
X36.673Y56.431
T4
X40.48Y40.555
X43.98Y40.555
X44.29Y55.16
X44.29Y62.78
X46.83Y55.16
X46.83Y62.78
X49.37Y55.16
X49.37Y62.78
X59.53Y55.16
X59.53Y62.78
X62.07Y55.16
X62.07Y62.78
X64.61Y55.16
X64.61Y62.78
X74.77Y55.16
X74.77Y62.78
X77.31Y55.16
X77.31Y62.78
X79.85Y55.16
X79.85Y62.78
X89.28Y37.38
X91.28Y37.38
T5
X112.87Y65.419
X112.87Y70.301
T6
X24.75Y28.16
X24.75Y33.24
X24.75Y68.16
X24.75Y73.24
X37.45Y28.16
X37.45Y33.24
X37.45Y68.16
X37.45Y73.24
X94.75Y28.16
X94.75Y33.24
X94.75Y68.16
X94.75Y73.24
X107.45Y28.16
X107.45Y33.24
X107.45Y68.16
X107.45Y73.24
T7
X45.56Y74.21
X50.56Y74.21
X52.Y55.9
X56.99Y74.21
X61.99Y74.21
X76.192Y38.697
X78.66Y67.86
X78.961Y38.551
X80.192Y59.231
X81.074Y51.132
X83.66Y67.86
X83.745Y40.766
X84.419Y42.37
X84.646Y56.413
X86.306Y67.794
X86.5Y47.8
X87.324Y60.094
X95.643Y38.597
X98.966Y34.596
X100.965Y34.739
X106.89Y49.29
X108.083Y47.856
X108.135Y52.893
X109.65Y61.901
X110.Y26.525
X112.31Y60.34
X113.Y41.2
X113.274Y46.018
T8
X21.43Y38.851
X24.605Y45.
X24.605Y55.16
X29.053Y39.92
X29.053Y52.62
X32.863Y39.92
X32.863Y52.62
X39.21Y52.62
X39.21Y62.78
X40.48Y79.29
X50.64Y79.29
X54.45Y18.33
X54.45Y28.49
X54.45Y52.62
X54.45Y62.78
X54.45Y79.29
X64.61Y79.29
X65.88Y72.94
X69.69Y52.62
X69.69Y62.78
X72.23Y18.33
X72.23Y28.49
X76.04Y18.33
X76.04Y28.49
X76.04Y72.94
X91.28Y43.73
X91.28Y50.08
X91.28Y56.43
X93.82Y43.73
X93.82Y50.08
X93.82Y56.43
T9
X97.63Y44.365
X97.63Y46.905
X97.63Y49.445
X97.63Y51.985
X97.63Y54.525
X112.87Y27.22
X112.87Y29.76
X112.87Y34.84
X112.87Y37.38
T10
X21.43Y63.852
T11
X29.053Y50.08
X29.053Y62.78
X32.863Y50.08
X32.863Y62.78
T12
X69.69Y79.29
X74.69Y79.29
X79.69Y79.29
X84.69Y79.29
X89.69Y79.29
T0
M30
