<?xml version="1.0" standalone="no"?>
 <!DOCTYPE svg PUBLIC "-//W3C//DTD SVG 1.1//EN" 
 "http://www.w3.org/Graphics/SVG/1.1/DTD/svg11.dtd"> 
<svg xmlns="http://www.w3.org/2000/svg" version="1.1" 
    width="13.4849cm" height="8.55472cm" viewBox="0 0 53090 33680 ">
<title>SVG Picture created as D21_2550-B.Mask.svg date 2016/04/15 21:49:43 </title>
  <desc>Picture generated by PCBNEW </desc>
<g style="fill:#000000; fill-opacity:1;stroke:#000000; stroke-opacity:1;
stroke-linecap:round; stroke-linejoin:round; "
 transform="translate(0 0) scale(1 1)">
</g>
<g style="fill:#000000; fill-opacity:0.0; 
stroke:#000000; stroke-width:-0.000393701; stroke-opacity:1; 
stroke-linecap:round; stroke-linejoin:round;">
</g>
<g style="fill:#000000; fill-opacity:0.0; 
stroke:#000000; stroke-width:39.3701; stroke-opacity:1; 
stroke-linecap:round; stroke-linejoin:round;">
<path d="M44263 30649
L46231 30649
" />
<path d="M44263 3090
L46231 3090
" />
<circle cx="44263.2" cy="28681.1" r="984.252" /> 
<circle cx="6861.64" cy="5059.06" r="984.252" /> 
<circle cx="44263.2" cy="5059.06" r="984.252" /> 
<circle cx="6861.64" cy="28681.1" r="984.252" /> 
<path d="M4893 3090
L44263 3090
" />
<path d="M4893 30649
L4893 3090
" />
<path d="M44263 30649
L4893 30649
" />
<path d="M46231 3090
L46231 30649
" />
</g>
<g style="fill:#000000; fill-opacity:0.0; 
stroke:#000000; stroke-width:680; stroke-opacity:1; 
stroke-linecap:round; stroke-linejoin:round;">
<path d="M40597 23744
L41117 23744
" />
<path d="M40597 25744
L41117 25744
" />
<path d="M35597 23744
L36117 23744
" />
<path d="M35597 25744
L36117 25744
" />
</g>
<g style="fill:#000000; fill-opacity:0.0; 
stroke:#000000; stroke-width:0; stroke-opacity:1; 
stroke-linecap:round; stroke-linejoin:round;">
</g>
<g style="fill:#000000; fill-opacity:1.0; 
stroke:#000000; stroke-width:0; stroke-opacity:1; 
stroke-linecap:round; stroke-linejoin:round;">
<polyline style="fill-rule:evenodd;"
points="29715,25401
29715,24850
30267,24850
30267,25401
29715,25401
" /> 
<circle cx="31960.1" cy="25126" r="275.591" /> 
</g>
<g style="fill:#000000; fill-opacity:1.0; 
stroke:#000000; stroke-width:39.3701; stroke-opacity:1; 
stroke-linecap:round; stroke-linejoin:round;">
</g>
<g style="fill:#000000; fill-opacity:1.0; 
stroke:#000000; stroke-width:0; stroke-opacity:1; 
stroke-linecap:round; stroke-linejoin:round;">
<polyline style="fill-rule:evenodd;"
points="20715,26401
20715,25850
21267,25850
21267,26401
20715,26401
" /> 
<circle cx="22960.1" cy="26126" r="275.591" /> 
</g>
<g style="fill:#000000; fill-opacity:1.0; 
stroke:#000000; stroke-width:39.3701; stroke-opacity:1; 
stroke-linecap:round; stroke-linejoin:round;">
</g>
<g style="fill:#000000; fill-opacity:1.0; 
stroke:#000000; stroke-width:0; stroke-opacity:1; 
stroke-linecap:round; stroke-linejoin:round;">
<polyline style="fill-rule:evenodd;"
points="16215,26401
16215,25850
16767,25850
16767,26401
16215,26401
" /> 
<circle cx="18460.1" cy="26126" r="275.591" /> 
</g>
<g style="fill:#000000; fill-opacity:1.0; 
stroke:#000000; stroke-width:39.3701; stroke-opacity:1; 
stroke-linecap:round; stroke-linejoin:round;">
</g>
<g style="fill:#000000; fill-opacity:1.0; 
stroke:#000000; stroke-width:0; stroke-opacity:1; 
stroke-linecap:round; stroke-linejoin:round;">
<circle cx="9992.56" cy="16626" r="393.5" /> 
</g>
<g style="fill:#000000; fill-opacity:1.0; 
stroke:#000000; stroke-width:39.3701; stroke-opacity:1; 
stroke-linecap:round; stroke-linejoin:round;">
</g>
<g style="fill:#000000; fill-opacity:1.0; 
stroke:#000000; stroke-width:0; stroke-opacity:1; 
stroke-linecap:round; stroke-linejoin:round;">
<polyline style="fill-rule:evenodd;"
points="10386,13019
9599,13019
9599,12232
10386,12232
10386,13019
" /> 
<circle cx="9992.56" cy="21626" r="393.5" /> 
</g>
<g style="fill:#000000; fill-opacity:1.0; 
stroke:#000000; stroke-width:39.3701; stroke-opacity:1; 
stroke-linecap:round; stroke-linejoin:round;">
</g>
<g style="fill:#000000; fill-opacity:1.0; 
stroke:#000000; stroke-width:0; stroke-opacity:1; 
stroke-linecap:round; stroke-linejoin:round;">
<polyline style="fill-rule:evenodd;"
points="10386,18019
9599,18019
9599,17232
10386,17232
10386,18019
" /> 
<circle cx="11492.6" cy="16626" r="393.5" /> 
</g>
<g style="fill:#000000; fill-opacity:1.0; 
stroke:#000000; stroke-width:39.3701; stroke-opacity:1; 
stroke-linecap:round; stroke-linejoin:round;">
</g>
<g style="fill:#000000; fill-opacity:1.0; 
stroke:#000000; stroke-width:0; stroke-opacity:1; 
stroke-linecap:round; stroke-linejoin:round;">
<polyline style="fill-rule:evenodd;"
points="11886,13019
11099,13019
11099,12232
11886,12232
11886,13019
" /> 
<circle cx="11492.6" cy="21626" r="393.5" /> 
</g>
<g style="fill:#000000; fill-opacity:1.0; 
stroke:#000000; stroke-width:39.3701; stroke-opacity:1; 
stroke-linecap:round; stroke-linejoin:round;">
</g>
<g style="fill:#000000; fill-opacity:1.0; 
stroke:#000000; stroke-width:0; stroke-opacity:1; 
stroke-linecap:round; stroke-linejoin:round;">
<polyline style="fill-rule:evenodd;"
points="11886,18019
11099,18019
11099,17232
11886,17232
11886,18019
" /> 
<circle cx="12992.6" cy="19126.2" r="334.5" /> 
</g>
<g style="fill:#000000; fill-opacity:1.0; 
stroke:#000000; stroke-width:39.3701; stroke-opacity:1; 
stroke-linecap:round; stroke-linejoin:round;">
</g>
<g style="fill:#000000; fill-opacity:1.0; 
stroke:#000000; stroke-width:0; stroke-opacity:1; 
stroke-linecap:round; stroke-linejoin:round;">
<polyline style="fill-rule:evenodd;"
points="13327,15460
12658,15460
12658,14791
13327,14791
13327,15460
" /> 
<circle cx="33865.6" cy="28126" r="492.126" /> 
</g>
<g style="fill:#000000; fill-opacity:1.0; 
stroke:#000000; stroke-width:39.3701; stroke-opacity:1; 
stroke-linecap:round; stroke-linejoin:round;">
</g>
<g style="fill:#000000; fill-opacity:1.0; 
stroke:#000000; stroke-width:0; stroke-opacity:1; 
stroke-linecap:round; stroke-linejoin:round;">
<circle cx="31897.1" cy="28126" r="492.126" /> 
</g>
<g style="fill:#000000; fill-opacity:1.0; 
stroke:#000000; stroke-width:39.3701; stroke-opacity:1; 
stroke-linecap:round; stroke-linejoin:round;">
</g>
<g style="fill:#000000; fill-opacity:1.0; 
stroke:#000000; stroke-width:0; stroke-opacity:1; 
stroke-linecap:round; stroke-linejoin:round;">
<circle cx="29928.6" cy="28126" r="492.126" /> 
</g>
<g style="fill:#000000; fill-opacity:1.0; 
stroke:#000000; stroke-width:39.3701; stroke-opacity:1; 
stroke-linecap:round; stroke-linejoin:round;">
</g>
<g style="fill:#000000; fill-opacity:1.0; 
stroke:#000000; stroke-width:0; stroke-opacity:1; 
stroke-linecap:round; stroke-linejoin:round;">
<polyline style="fill-rule:evenodd;"
points="25499,28618
25499,27633
26483,27633
26483,28618
25499,28618
" /> 
<circle cx="27960.1" cy="28126" r="492.126" /> 
</g>
<g style="fill:#000000; fill-opacity:1.0; 
stroke:#000000; stroke-width:39.3701; stroke-opacity:1; 
stroke-linecap:round; stroke-linejoin:round;">
</g>
<g style="fill:#000000; fill-opacity:1.0; 
stroke:#000000; stroke-width:0; stroke-opacity:1; 
stroke-linecap:round; stroke-linejoin:round;">
<polyline style="fill-rule:evenodd;"
points="42591,9025
42591,8225
43391,8225
43391,9025
42591,9025
" /> 
</g>
<g style="fill:#000000; fill-opacity:1.0; 
stroke:#000000; stroke-width:800; stroke-opacity:1; 
stroke-linecap:round; stroke-linejoin:round;">
</g>
<g style="fill:#000000; fill-opacity:0.0; 
stroke:#000000; stroke-width:800; stroke-opacity:1; 
stroke-linecap:round; stroke-linejoin:round;">
<path d="M42991 7625
L42991 7625
" />
</g>
<g style="fill:#000000; fill-opacity:0.0; 
stroke:#000000; stroke-width:0; stroke-opacity:1; 
stroke-linecap:round; stroke-linejoin:round;">
</g>
<g style="fill:#000000; fill-opacity:1.0; 
stroke:#000000; stroke-width:0; stroke-opacity:1; 
stroke-linecap:round; stroke-linejoin:round;">
<polyline style="fill-rule:evenodd;"
points="43391,10225
43391,11025
42591,11025
42591,10225
43391,10225
" /> 
</g>
<g style="fill:#000000; fill-opacity:1.0; 
stroke:#000000; stroke-width:800; stroke-opacity:1; 
stroke-linecap:round; stroke-linejoin:round;">
</g>
<g style="fill:#000000; fill-opacity:0.0; 
stroke:#000000; stroke-width:800; stroke-opacity:1; 
stroke-linecap:round; stroke-linejoin:round;">
<path d="M42991 11625
L42991 11625
" />
</g>
<g style="fill:#000000; fill-opacity:0.0; 
stroke:#000000; stroke-width:680; stroke-opacity:1; 
stroke-linecap:round; stroke-linejoin:round;">
<path d="M13038 7996
L13558 7996
" />
<path d="M13038 9996
L13558 9996
" />
<path d="M8038 7996
L8558 7996
" />
<path d="M8038 9996
L8558 9996
" />
<path d="M13038 23744
L13558 23744
" />
<path d="M13038 25744
L13558 25744
" />
<path d="M8038 23744
L8558 23744
" />
<path d="M8038 25744
L8558 25744
" />
<path d="M40597 7996
L41117 7996
" />
<path d="M40597 9996
L41117 9996
" />
<path d="M35597 7996
L36117 7996
" />
<path d="M35597 9996
L36117 9996
" />
</g>
<g style="fill:#000000; fill-opacity:0.0; 
stroke:#000000; stroke-width:354; stroke-opacity:1; 
stroke-linecap:round; stroke-linejoin:round;">
<path d="M26991 23507
L26991 23744
" />
<path d="M26491 23507
L26491 23744
" />
<path d="M27491 23507
L27491 23744
" />
<path d="M22491 23507
L22491 23744
" />
<path d="M21991 23507
L21991 23744
" />
<path d="M22991 23507
L22991 23744
" />
<path d="M17991 23507
L17991 23744
" />
<path d="M17491 23507
L17491 23744
" />
<path d="M18491 23507
L18491 23744
" />
</g>
<g style="fill:#000000; fill-opacity:0.0; 
stroke:#000000; stroke-width:590.551; stroke-opacity:1; 
stroke-linecap:round; stroke-linejoin:round;">
<path d="M18097 16110
L18097 15519
" />
<path d="M19097 16110
L19097 15519
" />
<path d="M20097 16110
L20097 15519
" />
<path d="M21097 16110
L21097 15519
" />
<path d="M22097 16110
L22097 15519
" />
<path d="M23097 16110
L23097 15519
" />
<path d="M24097 16110
L24097 15519
" />
<path d="M25097 16110
L25097 15519
" />
<path d="M26097 16110
L26097 15519
" />
<path d="M27097 16110
L27097 15519
" />
<path d="M28097 16110
L28097 15519
" />
<path d="M29097 16110
L29097 15519
" />
<path d="M30097 16110
L30097 15519
" />
<path d="M31097 16110
L31097 15519
" />
<path d="M31097 10110
L31097 9519
" />
<path d="M30097 10110
L30097 9519
" />
<path d="M29097 10110
L29097 9519
" />
<path d="M28097 10110
L28097 9519
" />
<path d="M27097 10110
L27097 9519
" />
<path d="M26097 10110
L26097 9519
" />
<path d="M25097 10110
L25097 9519
" />
<path d="M24097 10110
L24097 9519
" />
<path d="M23097 10110
L23097 9519
" />
<path d="M22097 10110
L22097 9519
" />
<path d="M21097 10110
L21097 9519
" />
<path d="M20097 10110
L20097 9519
" />
<path d="M19097 10110
L19097 9519
" />
<path d="M18097 10110
L18097 9519
" />
</g>
<g style="fill:#000000; fill-opacity:1.0; 
stroke:#000000; stroke-width:0; stroke-opacity:1; 
stroke-linecap:round; stroke-linejoin:round;">
<circle cx="42991.6" cy="24587" r="295.5" /> 
</g>
<g style="fill:#000000; fill-opacity:1.0; 
stroke:#000000; stroke-width:39.3701; stroke-opacity:1; 
stroke-linecap:round; stroke-linejoin:round;">
</g>
<g style="fill:#000000; fill-opacity:1.0; 
stroke:#000000; stroke-width:0; stroke-opacity:1; 
stroke-linecap:round; stroke-linejoin:round;">
<circle cx="42991.6" cy="22665" r="295.5" /> 
</g>
<g style="fill:#000000; fill-opacity:1.0; 
stroke:#000000; stroke-width:39.3701; stroke-opacity:1; 
stroke-linecap:round; stroke-linejoin:round;">
</g>
<g style="fill:#000000; fill-opacity:1.0; 
stroke:#000000; stroke-width:0; stroke-opacity:1; 
stroke-linecap:round; stroke-linejoin:round;">
<polyline style="fill-rule:evenodd;"
points="16023,9594
16534,9594
16534,10185
16023,10185
16023,9594
" /> 
<polyline style="fill-rule:evenodd;"
points="16023,10657
16534,10657
16534,11248
16023,11248
16023,10657
" /> 
<polyline style="fill-rule:evenodd;"
points="17728,4344
18437,4344
18437,4659
17728,4659
17728,4344
" /> 
<polyline style="fill-rule:evenodd;"
points="17728,5092
18437,5092
18437,5407
17728,5407
17728,5092
" /> 
<polyline style="fill-rule:evenodd;"
points="16546,4718
17255,4718
17255,5033
16546,5033
16546,4718
" /> 
</g>
<g style="fill:#000000; fill-opacity:1.0; 
stroke:#000000; stroke-width:629.921; stroke-opacity:1; 
stroke-linecap:round; stroke-linejoin:round;">
</g>
<g style="fill:#000000; fill-opacity:0.0; 
stroke:#000000; stroke-width:629.921; stroke-opacity:1; 
stroke-linecap:round; stroke-linejoin:round;">
<path d="M29991 18488
L29991 18763
" />
<path d="M28991 18488
L28991 18763
" />
<path d="M27991 18488
L27991 18763
" />
<path d="M27991 21488
L27991 21763
" />
<path d="M28991 21488
L28991 21763
" />
<path d="M29991 21488
L29991 21763
" />
<path d="M23991 18488
L23991 18763
" />
<path d="M22991 18488
L22991 18763
" />
<path d="M21991 18488
L21991 18763
" />
<path d="M21991 21488
L21991 21763
" />
<path d="M22991 21488
L22991 21763
" />
<path d="M23991 21488
L23991 21763
" />
<path d="M17991 18488
L17991 18763
" />
<path d="M16991 18488
L16991 18763
" />
<path d="M15991 18488
L15991 18763
" />
<path d="M15991 21488
L15991 21763
" />
<path d="M16991 21488
L16991 21763
" />
<path d="M17991 21488
L17991 21763
" />
</g>
<g style="fill:#000000; fill-opacity:0.0; 
stroke:#000000; stroke-width:0; stroke-opacity:1; 
stroke-linecap:round; stroke-linejoin:round;">
</g>
<g style="fill:#000000; fill-opacity:1.0; 
stroke:#000000; stroke-width:0; stroke-opacity:1; 
stroke-linecap:round; stroke-linejoin:round;">
<polyline style="fill-rule:evenodd;"
points="43204,18872
43204,18379
43794,18379
43794,18872
43204,18872
" /> 
<polyline style="fill-rule:evenodd;"
points="44188,18872
44188,18379
44778,18379
44778,18872
44188,18872
" /> 
<polyline style="fill-rule:evenodd;"
points="43156,17722
43156,17230
43747,17230
43747,17722
43156,17722
" /> 
<polyline style="fill-rule:evenodd;"
points="44141,17722
44141,17230
44731,17230
44731,17722
44141,17722
" /> 
<polyline style="fill-rule:evenodd;"
points="42485,13257
42485,13494
41698,13494
41698,13257
42485,13257
" /> 
<polyline style="fill-rule:evenodd;"
points="42485,13757
42485,13994
41698,13994
41698,13757
42485,13757
" /> 
<polyline style="fill-rule:evenodd;"
points="42485,14257
42485,14494
41698,14494
41698,14257
42485,14257
" /> 
<polyline style="fill-rule:evenodd;"
points="42485,14757
42485,14994
41698,14994
41698,14757
42485,14757
" /> 
<polyline style="fill-rule:evenodd;"
points="42485,15257
42485,15494
41698,15494
41698,15257
42485,15257
" /> 
<polyline style="fill-rule:evenodd;"
points="42485,15757
42485,15994
41698,15994
41698,15757
42485,15757
" /> 
<polyline style="fill-rule:evenodd;"
points="42485,16257
42485,16494
41698,16494
41698,16257
42485,16257
" /> 
<polyline style="fill-rule:evenodd;"
points="42485,16757
42485,16994
41698,16994
41698,16757
42485,16757
" /> 
<polyline style="fill-rule:evenodd;"
points="42485,17257
42485,17494
41698,17494
41698,17257
42485,17257
" /> 
<polyline style="fill-rule:evenodd;"
points="42485,17757
42485,17994
41698,17994
41698,17757
42485,17757
" /> 
<polyline style="fill-rule:evenodd;"
points="42485,18257
42485,18494
41698,18494
41698,18257
42485,18257
" /> 
<polyline style="fill-rule:evenodd;"
points="42485,18757
42485,18994
41698,18994
41698,18757
42485,18757
" /> 
<polyline style="fill-rule:evenodd;"
points="42485,19257
42485,19494
41698,19494
41698,19257
42485,19257
" /> 
<polyline style="fill-rule:evenodd;"
points="42485,19757
42485,19994
41698,19994
41698,19757
42485,19757
" /> 
<polyline style="fill-rule:evenodd;"
points="38784,19757
38784,19994
37997,19994
37997,19757
38784,19757
" /> 
<polyline style="fill-rule:evenodd;"
points="38784,19257
38784,19494
37997,19494
37997,19257
38784,19257
" /> 
<polyline style="fill-rule:evenodd;"
points="38784,18757
38784,18994
37997,18994
37997,18757
38784,18757
" /> 
<polyline style="fill-rule:evenodd;"
points="38784,18257
38784,18494
37997,18494
37997,18257
38784,18257
" /> 
<polyline style="fill-rule:evenodd;"
points="38784,17757
38784,17994
37997,17994
37997,17757
38784,17757
" /> 
<polyline style="fill-rule:evenodd;"
points="38784,17257
38784,17494
37997,17494
37997,17257
38784,17257
" /> 
<polyline style="fill-rule:evenodd;"
points="38784,16757
38784,16994
37997,16994
37997,16757
38784,16757
" /> 
<polyline style="fill-rule:evenodd;"
points="38784,16257
38784,16494
37997,16494
37997,16257
38784,16257
" /> 
<polyline style="fill-rule:evenodd;"
points="38784,15757
38784,15994
37997,15994
37997,15757
38784,15757
" /> 
<polyline style="fill-rule:evenodd;"
points="38784,15257
38784,15494
37997,15494
37997,15257
38784,15257
" /> 
<polyline style="fill-rule:evenodd;"
points="38784,14757
38784,14994
37997,14994
37997,14757
38784,14757
" /> 
<polyline style="fill-rule:evenodd;"
points="38784,14257
38784,14494
37997,14494
37997,14257
38784,14257
" /> 
<polyline style="fill-rule:evenodd;"
points="38784,13757
38784,13994
37997,13994
37997,13757
38784,13757
" /> 
<polyline style="fill-rule:evenodd;"
points="38784,13257
38784,13494
37997,13494
37997,13257
38784,13257
" /> 
<polyline style="fill-rule:evenodd;"
points="34747,11370
34747,11881
34235,11881
34235,11370
34747,11370
" /> 
<circle cx="33704.2" cy="11626" r="255.906" /> 
</g>
<g style="fill:#000000; fill-opacity:1.0; 
stroke:#000000; stroke-width:39.3701; stroke-opacity:1; 
stroke-linecap:round; stroke-linejoin:round;">
</g>
<g style="fill:#000000; fill-opacity:1.0; 
stroke:#000000; stroke-width:0; stroke-opacity:1; 
stroke-linecap:round; stroke-linejoin:round;">
<polyline style="fill-rule:evenodd;"
points="34885,14519
34097,14519
34097,13732
34885,13732
34885,14519
" /> 
<circle cx="35491.6" cy="14126" r="393.701" /> 
</g>
<g style="fill:#000000; fill-opacity:1.0; 
stroke:#000000; stroke-width:39.3701; stroke-opacity:1; 
stroke-linecap:round; stroke-linejoin:round;">
</g>
<g style="fill:#000000; fill-opacity:1.0; 
stroke:#000000; stroke-width:0; stroke-opacity:1; 
stroke-linecap:round; stroke-linejoin:round;">
<polyline style="fill-rule:evenodd;"
points="34885,17019
34097,17019
34097,16232
34885,16232
34885,17019
" /> 
<circle cx="35491.6" cy="16626" r="393.701" /> 
</g>
<g style="fill:#000000; fill-opacity:1.0; 
stroke:#000000; stroke-width:39.3701; stroke-opacity:1; 
stroke-linecap:round; stroke-linejoin:round;">
</g>
<g style="fill:#000000; fill-opacity:1.0; 
stroke:#000000; stroke-width:0; stroke-opacity:1; 
stroke-linecap:round; stroke-linejoin:round;">
<polyline style="fill-rule:evenodd;"
points="34885,19519
34097,19519
34097,18732
34885,18732
34885,19519
" /> 
<circle cx="35491.6" cy="19126" r="393.701" /> 
</g>
<g style="fill:#000000; fill-opacity:1.0; 
stroke:#000000; stroke-width:39.3701; stroke-opacity:1; 
stroke-linecap:round; stroke-linejoin:round;">
</g>
<g style="fill:#000000; fill-opacity:1.0; 
stroke:#000000; stroke-width:0; stroke-opacity:1; 
stroke-linecap:round; stroke-linejoin:round;">
<polyline style="fill-rule:evenodd;"
points="36591,14715
36591,14035
37391,14035
37391,14715
36591,14715
" /> 
</g>
<g style="fill:#000000; fill-opacity:1.0; 
stroke:#000000; stroke-width:680; stroke-opacity:1; 
stroke-linecap:round; stroke-linejoin:round;">
</g>
<g style="fill:#000000; fill-opacity:0.0; 
stroke:#000000; stroke-width:680; stroke-opacity:1; 
stroke-linecap:round; stroke-linejoin:round;">
<path d="M36931 15375
L37051 15375
" />
<path d="M36931 16375
L37051 16375
" />
<path d="M36931 17375
L37051 17375
" />
<path d="M36931 18375
L37051 18375
" />
</g>
<g style="fill:#000000; fill-opacity:1.0; 
stroke:#000000; stroke-width:0; stroke-opacity:1; 
stroke-linecap:round; stroke-linejoin:round;">
<circle cx="19991.6" cy="4125.98" r="393.5" /> 
</g>
<g style="fill:#000000; fill-opacity:1.0; 
stroke:#000000; stroke-width:39.3701; stroke-opacity:1; 
stroke-linecap:round; stroke-linejoin:round;">
</g>
<g style="fill:#000000; fill-opacity:1.0; 
stroke:#000000; stroke-width:0; stroke-opacity:1; 
stroke-linecap:round; stroke-linejoin:round;">
<circle cx="19991.6" cy="8125.98" r="393.5" /> 
</g>
<g style="fill:#000000; fill-opacity:1.0; 
stroke:#000000; stroke-width:39.3701; stroke-opacity:1; 
stroke-linecap:round; stroke-linejoin:round;">
</g>
<g style="fill:#000000; fill-opacity:1.0; 
stroke:#000000; stroke-width:0; stroke-opacity:1; 
stroke-linecap:round; stroke-linejoin:round;">
<circle cx="26991.6" cy="4125.98" r="393.5" /> 
</g>
<g style="fill:#000000; fill-opacity:1.0; 
stroke:#000000; stroke-width:39.3701; stroke-opacity:1; 
stroke-linecap:round; stroke-linejoin:round;">
</g>
<g style="fill:#000000; fill-opacity:1.0; 
stroke:#000000; stroke-width:0; stroke-opacity:1; 
stroke-linecap:round; stroke-linejoin:round;">
<circle cx="26991.6" cy="8125.98" r="393.5" /> 
</g>
<g style="fill:#000000; fill-opacity:1.0; 
stroke:#000000; stroke-width:39.3701; stroke-opacity:1; 
stroke-linecap:round; stroke-linejoin:round;">
</g>
<g style="fill:#000000; fill-opacity:1.0; 
stroke:#000000; stroke-width:0; stroke-opacity:1; 
stroke-linecap:round; stroke-linejoin:round;">
<circle cx="28491.6" cy="4125.98" r="393.5" /> 
</g>
<g style="fill:#000000; fill-opacity:1.0; 
stroke:#000000; stroke-width:39.3701; stroke-opacity:1; 
stroke-linecap:round; stroke-linejoin:round;">
</g>
<g style="fill:#000000; fill-opacity:1.0; 
stroke:#000000; stroke-width:0; stroke-opacity:1; 
stroke-linecap:round; stroke-linejoin:round;">
<circle cx="28491.6" cy="8125.98" r="393.5" /> 
</g>
<g style="fill:#000000; fill-opacity:1.0; 
stroke:#000000; stroke-width:39.3701; stroke-opacity:1; 
stroke-linecap:round; stroke-linejoin:round;">
</g>
<g style="fill:#000000; fill-opacity:1.0; 
stroke:#000000; stroke-width:0; stroke-opacity:1; 
stroke-linecap:round; stroke-linejoin:round;">
<polyline style="fill-rule:evenodd;"
points="33747,14952
33235,14952
33235,14362
33747,14362
33747,14952
" /> 
<polyline style="fill-rule:evenodd;"
points="33747,13889
33235,13889
33235,13299
33747,13299
33747,13889
" /> 
<polyline style="fill-rule:evenodd;"
points="33747,17452
33235,17452
33235,16862
33747,16862
33747,17452
" /> 
<polyline style="fill-rule:evenodd;"
points="33747,16389
33235,16389
33235,15799
33747,15799
33747,16389
" /> 
<polyline style="fill-rule:evenodd;"
points="33747,19952
33235,19952
33235,19362
33747,19362
33747,19952
" /> 
<polyline style="fill-rule:evenodd;"
points="33747,18889
33235,18889
33235,18299
33747,18299
33747,18889
" /> 
<circle cx="25991.6" cy="21626" r="393.5" /> 
</g>
<g style="fill:#000000; fill-opacity:1.0; 
stroke:#000000; stroke-width:39.3701; stroke-opacity:1; 
stroke-linecap:round; stroke-linejoin:round;">
</g>
<g style="fill:#000000; fill-opacity:1.0; 
stroke:#000000; stroke-width:0; stroke-opacity:1; 
stroke-linecap:round; stroke-linejoin:round;">
<circle cx="25991.6" cy="17626" r="393.5" /> 
</g>
<g style="fill:#000000; fill-opacity:1.0; 
stroke:#000000; stroke-width:39.3701; stroke-opacity:1; 
stroke-linecap:round; stroke-linejoin:round;">
</g>
<g style="fill:#000000; fill-opacity:1.0; 
stroke:#000000; stroke-width:0; stroke-opacity:1; 
stroke-linecap:round; stroke-linejoin:round;">
<circle cx="19991.6" cy="21626" r="393.5" /> 
</g>
<g style="fill:#000000; fill-opacity:1.0; 
stroke:#000000; stroke-width:39.3701; stroke-opacity:1; 
stroke-linecap:round; stroke-linejoin:round;">
</g>
<g style="fill:#000000; fill-opacity:1.0; 
stroke:#000000; stroke-width:0; stroke-opacity:1; 
stroke-linecap:round; stroke-linejoin:round;">
<circle cx="19991.6" cy="17626" r="393.5" /> 
</g>
<g style="fill:#000000; fill-opacity:1.0; 
stroke:#000000; stroke-width:39.3701; stroke-opacity:1; 
stroke-linecap:round; stroke-linejoin:round;">
</g>
<g style="fill:#000000; fill-opacity:1.0; 
stroke:#000000; stroke-width:0; stroke-opacity:1; 
stroke-linecap:round; stroke-linejoin:round;">
<circle cx="13991.6" cy="21626" r="393.5" /> 
</g>
<g style="fill:#000000; fill-opacity:1.0; 
stroke:#000000; stroke-width:39.3701; stroke-opacity:1; 
stroke-linecap:round; stroke-linejoin:round;">
</g>
<g style="fill:#000000; fill-opacity:1.0; 
stroke:#000000; stroke-width:0; stroke-opacity:1; 
stroke-linecap:round; stroke-linejoin:round;">
<circle cx="13991.6" cy="17626" r="393.5" /> 
</g>
<g style="fill:#000000; fill-opacity:1.0; 
stroke:#000000; stroke-width:39.3701; stroke-opacity:1; 
stroke-linecap:round; stroke-linejoin:round;">
</g>
<g style="fill:#000000; fill-opacity:1.0; 
stroke:#000000; stroke-width:0; stroke-opacity:1; 
stroke-linecap:round; stroke-linejoin:round;">
<circle cx="24491.6" cy="25626" r="393.5" /> 
</g>
<g style="fill:#000000; fill-opacity:1.0; 
stroke:#000000; stroke-width:39.3701; stroke-opacity:1; 
stroke-linecap:round; stroke-linejoin:round;">
</g>
<g style="fill:#000000; fill-opacity:1.0; 
stroke:#000000; stroke-width:0; stroke-opacity:1; 
stroke-linecap:round; stroke-linejoin:round;">
<circle cx="28491.6" cy="25626" r="393.5" /> 
</g>
<g style="fill:#000000; fill-opacity:1.0; 
stroke:#000000; stroke-width:39.3701; stroke-opacity:1; 
stroke-linecap:round; stroke-linejoin:round;">
</g>
<g style="fill:#000000; fill-opacity:1.0; 
stroke:#000000; stroke-width:0; stroke-opacity:1; 
stroke-linecap:round; stroke-linejoin:round;">
<circle cx="19991.6" cy="28126" r="393.5" /> 
</g>
<g style="fill:#000000; fill-opacity:1.0; 
stroke:#000000; stroke-width:39.3701; stroke-opacity:1; 
stroke-linecap:round; stroke-linejoin:round;">
</g>
<g style="fill:#000000; fill-opacity:1.0; 
stroke:#000000; stroke-width:0; stroke-opacity:1; 
stroke-linecap:round; stroke-linejoin:round;">
<circle cx="23991.6" cy="28126" r="393.5" /> 
</g>
<g style="fill:#000000; fill-opacity:1.0; 
stroke:#000000; stroke-width:39.3701; stroke-opacity:1; 
stroke-linecap:round; stroke-linejoin:round;">
</g>
<g style="fill:#000000; fill-opacity:1.0; 
stroke:#000000; stroke-width:0; stroke-opacity:1; 
stroke-linecap:round; stroke-linejoin:round;">
<circle cx="14491.6" cy="28126" r="393.5" /> 
</g>
<g style="fill:#000000; fill-opacity:1.0; 
stroke:#000000; stroke-width:39.3701; stroke-opacity:1; 
stroke-linecap:round; stroke-linejoin:round;">
</g>
<g style="fill:#000000; fill-opacity:1.0; 
stroke:#000000; stroke-width:0; stroke-opacity:1; 
stroke-linecap:round; stroke-linejoin:round;">
<circle cx="18491.6" cy="28126" r="393.5" /> 
</g>
<g style="fill:#000000; fill-opacity:1.0; 
stroke:#000000; stroke-width:39.3701; stroke-opacity:1; 
stroke-linecap:round; stroke-linejoin:round;">
</g>
<g style="fill:#000000; fill-opacity:1.0; 
stroke:#000000; stroke-width:0; stroke-opacity:1; 
stroke-linecap:round; stroke-linejoin:round;">
<circle cx="15869.5" cy="12876" r="255.906" /> 
</g>
<g style="fill:#000000; fill-opacity:1.0; 
stroke:#000000; stroke-width:39.3701; stroke-opacity:1; 
stroke-linecap:round; stroke-linejoin:round;">
</g>
<g style="fill:#000000; fill-opacity:1.0; 
stroke:#000000; stroke-width:0; stroke-opacity:1; 
stroke-linecap:round; stroke-linejoin:round;">
<polyline style="fill-rule:evenodd;"
points="14235,13131
14235,12620
14747,12620
14747,13131
14235,13131
" /> 
<circle cx="6991.56" cy="12205" r="393.5" /> 
</g>
<g style="fill:#000000; fill-opacity:1.0; 
stroke:#000000; stroke-width:39.3701; stroke-opacity:1; 
stroke-linecap:round; stroke-linejoin:round;">
</g>
<g style="fill:#000000; fill-opacity:1.0; 
stroke:#000000; stroke-width:0; stroke-opacity:1; 
stroke-linecap:round; stroke-linejoin:round;">
<circle cx="6991.56" cy="22048" r="453" /> 
</g>
<g style="fill:#000000; fill-opacity:1.0; 
stroke:#000000; stroke-width:39.3701; stroke-opacity:1; 
stroke-linecap:round; stroke-linejoin:round;">
</g>
<g style="fill:#000000; fill-opacity:1.0; 
stroke:#000000; stroke-width:0; stroke-opacity:1; 
stroke-linecap:round; stroke-linejoin:round;">
<circle cx="8241.56" cy="14626" r="393.5" /> 
</g>
<g style="fill:#000000; fill-opacity:1.0; 
stroke:#000000; stroke-width:39.3701; stroke-opacity:1; 
stroke-linecap:round; stroke-linejoin:round;">
</g>
<g style="fill:#000000; fill-opacity:1.0; 
stroke:#000000; stroke-width:0; stroke-opacity:1; 
stroke-linecap:round; stroke-linejoin:round;">
<circle cx="8241.56" cy="18626" r="393.5" /> 
</g>
<g style="fill:#000000; fill-opacity:1.0; 
stroke:#000000; stroke-width:39.3701; stroke-opacity:1; 
stroke-linecap:round; stroke-linejoin:round;">
</g> 
</svg>
