<?xml version="1.0" standalone="no"?>
 <!DOCTYPE svg PUBLIC "-//W3C//DTD SVG 1.1//EN" 
 "http://www.w3.org/Graphics/SVG/1.1/DTD/svg11.dtd"> 
<svg xmlns="http://www.w3.org/2000/svg" version="1.1" 
    width="13.4849cm" height="8.55472cm" viewBox="0 0 53090 33680 ">
<title>SVG Picture created as D21_2550-B.Fab.svg date 2016/04/15 21:49:43 </title>
  <desc>Picture generated by PCBNEW </desc>
<g style="fill:#000000; fill-opacity:1;stroke:#000000; stroke-opacity:1;
stroke-linecap:round; stroke-linejoin:round; "
 transform="translate(0 0) scale(1 1)">
</g>
<g style="fill:#000000; fill-opacity:0.0; 
stroke:#000000; stroke-width:-0.000393701; stroke-opacity:1; 
stroke-linecap:round; stroke-linejoin:round;">
</g>
<g style="fill:#000000; fill-opacity:0.0; 
stroke:#000000; stroke-width:39.3701; stroke-opacity:1; 
stroke-linecap:round; stroke-linejoin:round;">
<path d="M44263 30649
L46231 30649
" />
<path d="M44263 3090
L46231 3090
" />
<circle cx="44263.2" cy="28681.1" r="984.252" /> 
<circle cx="6861.64" cy="5059.06" r="984.252" /> 
<circle cx="44263.2" cy="5059.06" r="984.252" /> 
<circle cx="6861.64" cy="28681.1" r="984.252" /> 
<path d="M4893 3090
L44263 3090
" />
<path d="M4893 30649
L4893 3090
" />
<path d="M44263 30649
L4893 30649
" />
<path d="M46231 3090
L46231 30649
" />
</g>
<g style="fill:#000000; fill-opacity:0.0; 
stroke:#000000; stroke-width:59.0551; stroke-opacity:1; 
stroke-linecap:round; stroke-linejoin:round;">
<path d="M31512 30865
L31531 30883
L31587 30902
L31625 30902
L31681 30883
L31718 30846
L31737 30808
L31756 30733
L31756 30677
L31737 30602
L31718 30565
L31681 30527
L31625 30508
L31587 30508
L31531 30527
L31512 30546
" />
<path d="M31269 30508
L31194 30508
L31156 30527
L31119 30565
L31100 30640
L31100 30771
L31119 30846
L31156 30883
L31194 30902
L31269 30902
L31306 30883
L31344 30846
L31362 30771
L31362 30640
L31344 30565
L31306 30527
L31269 30508
" />
<path d="M30931 30902
L30931 30508
L30706 30902
L30706 30508
" />
<path d="M30519 30902
L30519 30508
L30294 30902
L30294 30508
" />
<path d="M30200 30940
L29900 30940
" />
<path d="M29731 30508
L29694 30508
L29656 30527
L29637 30546
L29619 30583
L29600 30658
L29600 30752
L29619 30827
L29637 30865
L29656 30883
L29694 30902
L29731 30902
L29769 30883
L29787 30865
L29806 30827
L29825 30752
L29825 30658
L29806 30583
L29787 30546
L29769 30527
L29731 30508
" />
<path d="M29225 30902
L29450 30902
" />
<path d="M29338 30902
L29338 30508
L29375 30565
L29413 30602
L29450 30621
" />
<path d="M29094 30508
L28831 30902
" />
<path d="M28831 30508
L29094 30902
" />
<path d="M28606 30508
L28569 30508
L28531 30527
L28513 30546
L28494 30583
L28475 30658
L28475 30752
L28494 30827
L28513 30865
L28531 30883
L28569 30902
L28606 30902
L28644 30883
L28663 30865
L28681 30827
L28700 30752
L28700 30658
L28681 30583
L28663 30546
L28644 30527
L28606 30508
" />
<path d="M28119 30508
L28306 30508
L28325 30696
L28306 30677
L28269 30658
L28175 30658
L28138 30677
L28119 30696
L28100 30733
L28100 30827
L28119 30865
L28138 30883
L28175 30902
L28269 30902
L28306 30883
L28325 30865
" />
<path d="M44575 9987
L44594 10005
L44650 10024
L44688 10024
L44744 10005
L44781 9968
L44800 9930
L44819 9855
L44819 9799
L44800 9724
L44781 9687
L44744 9649
L44688 9630
L44650 9630
L44594 9649
L44575 9668
" />
<path d="M44332 9630
L44257 9630
L44219 9649
L44182 9687
L44163 9762
L44163 9893
L44182 9968
L44219 10005
L44257 10024
L44332 10024
L44369 10005
L44407 9968
L44425 9893
L44425 9762
L44407 9687
L44369 9649
L44332 9630
" />
<path d="M43994 10024
L43994 9630
L43769 10024
L43769 9630
" />
<path d="M43582 10024
L43582 9630
L43357 10024
L43357 9630
" />
<path d="M43263 10062
L42963 10062
" />
<path d="M42794 9630
L42757 9630
L42719 9649
L42700 9668
L42682 9705
L42663 9780
L42663 9874
L42682 9949
L42700 9987
L42719 10005
L42757 10024
L42794 10024
L42832 10005
L42850 9987
L42869 9949
L42888 9874
L42888 9780
L42869 9705
L42850 9668
L42832 9649
L42794 9630
" />
<path d="M42288 10024
L42513 10024
" />
<path d="M42401 10024
L42401 9630
L42438 9687
L42476 9724
L42513 9743
" />
<path d="M42157 9630
L41894 10024
" />
<path d="M41894 9630
L42157 10024
" />
<path d="M41669 9630
L41632 9630
L41594 9649
L41576 9668
L41557 9705
L41538 9780
L41538 9874
L41557 9949
L41576 9987
L41594 10005
L41632 10024
L41669 10024
L41707 10005
L41726 9987
L41744 9949
L41763 9874
L41763 9780
L41744 9705
L41726 9668
L41707 9649
L41669 9630
" />
<path d="M41388 9668
L41369 9649
L41332 9630
L41238 9630
L41201 9649
L41182 9668
L41163 9705
L41163 9743
L41182 9799
L41407 10024
L41163 10024
" />
<path d="M44575 9546
L44594 9564
L44650 9583
L44688 9583
L44744 9564
L44781 9527
L44800 9489
L44819 9414
L44819 9358
L44800 9283
L44781 9246
L44744 9208
L44688 9189
L44650 9189
L44594 9208
L44575 9227
" />
<path d="M44332 9189
L44257 9189
L44219 9208
L44182 9246
L44163 9321
L44163 9452
L44182 9527
L44219 9564
L44257 9583
L44332 9583
L44369 9564
L44407 9527
L44425 9452
L44425 9321
L44407 9246
L44369 9208
L44332 9189
" />
<path d="M43994 9583
L43994 9189
L43769 9583
L43769 9189
" />
<path d="M43582 9583
L43582 9189
L43357 9583
L43357 9189
" />
<path d="M43263 9621
L42963 9621
" />
<path d="M42794 9189
L42757 9189
L42719 9208
L42700 9227
L42682 9264
L42663 9339
L42663 9433
L42682 9508
L42700 9546
L42719 9564
L42757 9583
L42794 9583
L42832 9564
L42850 9546
L42869 9508
L42888 9433
L42888 9339
L42869 9264
L42850 9227
L42832 9208
L42794 9189
" />
<path d="M42288 9583
L42513 9583
" />
<path d="M42401 9583
L42401 9189
L42438 9246
L42476 9283
L42513 9302
" />
<path d="M42157 9189
L41894 9583
" />
<path d="M41894 9189
L42157 9583
" />
<path d="M41669 9189
L41632 9189
L41594 9208
L41576 9227
L41557 9264
L41538 9339
L41538 9433
L41557 9508
L41576 9546
L41594 9564
L41632 9583
L41669 9583
L41707 9564
L41726 9546
L41744 9508
L41763 9433
L41763 9339
L41744 9264
L41726 9227
L41707 9208
L41669 9189
" />
<path d="M41388 9227
L41369 9208
L41332 9189
L41238 9189
L41201 9208
L41182 9227
L41163 9264
L41163 9302
L41182 9358
L41407 9583
L41163 9583
" />
<path d="M16927 9868
L16908 9886
L16890 9924
L16890 10018
L16908 10055
L16927 10074
L16965 10093
L17002 10093
L17058 10074
L17283 9849
L17283 10093
" />
<path d="M17246 10261
L17265 10280
L17283 10261
L17265 10243
L17246 10261
L17283 10261
" />
<path d="M16890 10411
L16890 10674
L17283 10505
" />
<path d="M17283 10824
L16890 10824
" />
<path d="M17133 10861
L17283 10974
" />
<path d="M17021 10974
L17171 10824
" />
<path d="M19207 3544
L19188 3507
L19150 3469
L19094 3413
L19075 3376
L19075 3338
" />
<path d="M19169 3357
L19150 3319
L19113 3282
L19038 3263
L18907 3263
L18832 3282
L18794 3319
L18775 3357
L18775 3432
L18794 3469
L18832 3507
L18907 3526
L19038 3526
L19113 3507
L19150 3469
L19169 3432
L19169 3357
" />
<path d="M19207 3601
L19207 3901
" />
<path d="M19169 3994
L18775 3994
L19169 4219
L18775 4219
" />
<path d="M19169 4407
L18775 4407
L18775 4557
L18794 4594
L18813 4613
L18850 4632
L18907 4632
L18944 4613
L18963 4594
L18982 4557
L18982 4407
" />
<path d="M19169 4800
L18775 4800
L19169 5025
L18775 5025
" />
<path d="M19207 5119
L19207 5419
" />
<path d="M19132 5738
L19150 5719
L19169 5663
L19169 5625
L19150 5569
L19113 5532
L19075 5513
L19000 5494
L18944 5494
L18869 5513
L18832 5532
L18794 5569
L18775 5625
L18775 5663
L18794 5719
L18813 5738
" />
<path d="M18963 6038
L18982 6094
L19000 6113
L19038 6132
L19094 6132
L19132 6113
L19150 6094
L19169 6057
L19169 5907
L18775 5907
L18775 6038
L18794 6075
L18813 6094
L18850 6113
L18888 6113
L18925 6094
L18944 6075
L18963 6038
L18963 5907
" />
<path d="M18963 6300
L18963 6432
" />
<path d="M19169 6488
L19169 6300
L18775 6300
L18775 6488
" />
<path d="M44600 17583
L44357 17583
L44488 17733
L44432 17733
L44394 17752
L44375 17771
L44357 17808
L44357 17902
L44375 17939
L44394 17958
L44432 17977
L44544 17977
L44582 17958
L44600 17939
" />
<path d="M44225 17583
L43982 17583
L44113 17733
L44057 17733
L44019 17752
L44000 17771
L43982 17808
L43982 17902
L44000 17939
L44019 17958
L44057 17977
L44169 17977
L44207 17958
L44225 17939
" />
<path d="M43813 17714
L43813 18108
" />
<path d="M43813 17733
L43775 17714
L43700 17714
L43663 17733
L43644 17752
L43625 17789
L43625 17902
L43644 17939
L43663 17958
L43700 17977
L43775 17977
L43813 17958
" />
<path d="M43513 17714
L43363 17714
" />
<path d="M43457 17977
L43457 17639
L43438 17602
L43401 17583
L43363 17583
" />
<path d="M44553 16434
L44309 16434
L44441 16583
L44384 16583
L44347 16602
L44328 16621
L44309 16658
L44309 16752
L44328 16790
L44347 16808
L44384 16827
L44497 16827
L44534 16808
L44553 16790
" />
<path d="M44178 16434
L43934 16434
L44066 16583
L44009 16583
L43972 16602
L43953 16621
L43934 16658
L43934 16752
L43953 16790
L43972 16808
L44009 16827
L44122 16827
L44159 16808
L44178 16790
" />
<path d="M43766 16565
L43766 16958
" />
<path d="M43766 16583
L43728 16565
L43653 16565
L43616 16583
L43597 16602
L43578 16640
L43578 16752
L43597 16790
L43616 16808
L43653 16827
L43728 16827
L43766 16808
" />
<path d="M43466 16565
L43316 16565
" />
<path d="M43410 16827
L43410 16490
L43391 16452
L43353 16434
L43316 16434
" />
<path d="M41928 20760
L41928 20367
L41778 20367
L41741 20385
L41722 20404
L41703 20442
L41703 20498
L41722 20535
L41741 20554
L41778 20573
L41928 20573
" />
<path d="M41535 20760
L41535 20367
" />
<path d="M41122 20723
L41141 20742
L41197 20760
L41235 20760
L41291 20742
L41328 20704
L41347 20667
L41366 20592
L41366 20535
L41347 20460
L41328 20423
L41291 20385
L41235 20367
L41197 20367
L41141 20385
L41122 20404
" />
<path d="M40747 20760
L40972 20760
" />
<path d="M40860 20760
L40860 20367
L40897 20423
L40935 20460
L40972 20479
" />
<path d="M40522 20535
L40560 20517
L40579 20498
L40597 20460
L40597 20442
L40579 20404
L40560 20385
L40522 20367
L40447 20367
L40410 20385
L40391 20404
L40372 20442
L40372 20460
L40391 20498
L40410 20517
L40447 20535
L40522 20535
L40560 20554
L40579 20573
L40597 20610
L40597 20685
L40579 20723
L40560 20742
L40522 20760
L40447 20760
L40410 20742
L40391 20723
L40372 20685
L40372 20610
L40391 20573
L40410 20554
L40447 20535
" />
<path d="M40072 20554
L40204 20554
" />
<path d="M40204 20760
L40204 20367
L40016 20367
" />
<path d="M39885 20404
L39866 20385
L39829 20367
L39735 20367
L39697 20385
L39679 20404
L39660 20442
L39660 20479
L39679 20535
L39904 20760
L39660 20760
" />
<path d="M39304 20367
L39491 20367
L39510 20554
L39491 20535
L39454 20517
L39360 20517
L39322 20535
L39304 20554
L39285 20592
L39285 20685
L39304 20723
L39322 20742
L39360 20760
L39454 20760
L39491 20742
L39510 20723
" />
<path d="M38929 20367
L39116 20367
L39135 20554
L39116 20535
L39079 20517
L38985 20517
L38947 20535
L38929 20554
L38910 20592
L38910 20685
L38929 20723
L38947 20742
L38985 20760
L39079 20760
L39116 20742
L39135 20723
" />
<path d="M38666 20367
L38629 20367
L38591 20385
L38573 20404
L38554 20442
L38535 20517
L38535 20610
L38554 20685
L38573 20723
L38591 20742
L38629 20760
L38666 20760
L38704 20742
L38723 20723
L38741 20685
L38760 20610
L38760 20517
L38741 20442
L38723 20404
L38704 20385
L38666 20367
" />
<path d="M34463 13300
L34688 13300
" />
<path d="M34575 13300
L34575 12906
L34613 12962
L34650 13000
L34688 13018
" />
<path d="M34219 12906
L34182 12906
L34144 12925
L34125 12943
L34107 12981
L34088 13056
L34088 13150
L34107 13225
L34125 13262
L34144 13281
L34182 13300
L34219 13300
L34257 13281
L34275 13262
L34294 13225
L34313 13150
L34313 13056
L34294 12981
L34275 12943
L34257 12925
L34219 12906
" />
<path d="M33751 13037
L33751 13300
" />
<path d="M33919 13037
L33919 13243
L33901 13281
L33863 13300
L33807 13300
L33769 13281
L33751 13262
" />
<path d="M33619 13037
L33469 13037
" />
<path d="M33563 13300
L33563 12962
L33544 12925
L33507 12906
L33469 12906
" />
<path d="M32486 13638
L32467 13657
L32449 13694
L32449 13788
L32467 13826
L32486 13844
L32524 13863
L32561 13863
L32617 13844
L32842 13619
L32842 13863
" />
<path d="M32486 14013
L32467 14032
L32449 14069
L32449 14163
L32467 14200
L32486 14219
L32524 14238
L32561 14238
L32617 14219
L32842 13994
L32842 14238
" />
<path d="M32449 14482
L32449 14519
L32467 14557
L32486 14575
L32524 14594
L32599 14613
L32692 14613
L32767 14594
L32805 14575
L32824 14557
L32842 14519
L32842 14482
L32824 14444
L32805 14425
L32767 14407
L32692 14388
L32599 14388
L32524 14407
L32486 14425
L32467 14444
L32449 14482
" />
<path d="M32486 16138
L32467 16157
L32449 16194
L32449 16288
L32467 16326
L32486 16344
L32524 16363
L32561 16363
L32617 16344
L32842 16119
L32842 16363
" />
<path d="M32486 16513
L32467 16532
L32449 16569
L32449 16663
L32467 16700
L32486 16719
L32524 16738
L32561 16738
L32617 16719
L32842 16494
L32842 16738
" />
<path d="M32449 16982
L32449 17019
L32467 17057
L32486 17075
L32524 17094
L32599 17113
L32692 17113
L32767 17094
L32805 17075
L32824 17057
L32842 17019
L32842 16982
L32824 16944
L32805 16925
L32767 16907
L32692 16888
L32599 16888
L32524 16907
L32486 16925
L32467 16944
L32449 16982
" />
<path d="M32486 18638
L32467 18657
L32449 18694
L32449 18788
L32467 18826
L32486 18844
L32524 18863
L32561 18863
L32617 18844
L32842 18619
L32842 18863
" />
<path d="M32486 19013
L32467 19032
L32449 19069
L32449 19163
L32467 19200
L32486 19219
L32524 19238
L32561 19238
L32617 19219
L32842 18994
L32842 19238
" />
<path d="M32449 19482
L32449 19519
L32467 19557
L32486 19575
L32524 19594
L32599 19613
L32692 19613
L32767 19594
L32805 19575
L32824 19557
L32842 19519
L32842 19482
L32824 19444
L32805 19425
L32767 19407
L32692 19388
L32599 19388
L32524 19407
L32486 19425
L32467 19444
L32449 19482
" />
<path d="M15771 10573
L15846 10573
L15883 10592
L15902 10611
L15939 10667
L15958 10742
L15958 10892
L15939 10929
L15921 10948
L15883 10967
L15808 10967
L15771 10948
L15752 10929
L15733 10892
L15733 10798
L15752 10761
L15771 10742
L15808 10723
L15883 10723
L15921 10742
L15939 10761
L15958 10798
" />
<path d="M15508 10742
L15546 10723
L15564 10705
L15583 10667
L15583 10648
L15564 10611
L15546 10592
L15508 10573
L15433 10573
L15396 10592
L15377 10611
L15358 10648
L15358 10667
L15377 10705
L15396 10723
L15433 10742
L15508 10742
L15546 10761
L15564 10779
L15583 10817
L15583 10892
L15564 10929
L15546 10948
L15508 10967
L15433 10967
L15396 10948
L15377 10929
L15358 10892
L15358 10817
L15377 10779
L15396 10761
L15433 10742
" />
<path d="M15114 10573
L15077 10573
L15039 10592
L15021 10611
L15002 10648
L14983 10723
L14983 10817
L15002 10892
L15021 10929
L15039 10948
L15077 10967
L15114 10967
L15152 10948
L15171 10929
L15189 10892
L15208 10817
L15208 10723
L15189 10648
L15171 10611
L15152 10592
L15114 10573
" />
<path d="M14646 10705
L14646 10967
" />
<path d="M14814 10705
L14814 10911
L14796 10948
L14758 10967
L14702 10967
L14664 10948
L14646 10929
" />
<path d="M14514 10705
L14365 10705
" />
<path d="M14458 10967
L14458 10630
L14440 10592
L14402 10573
L14365 10573
" />
<path d="M9072 16629
L9334 16629
" />
<path d="M8922 16535
L9203 16441
L9203 16685
" />
<path d="M9297 16835
L9315 16854
L9334 16835
L9315 16816
L9297 16835
L9334 16835
" />
<path d="M8940 16985
L8940 17247
L9334 17079
" />
<path d="M9072 17566
L9334 17566
" />
<path d="M9072 17397
L9278 17397
L9315 17416
L9334 17454
L9334 17510
L9315 17547
L9297 17566
" />
<path d="M9072 17697
L9072 17847
" />
<path d="M9334 17754
L8997 17754
L8959 17772
L8940 17810
L8940 17847
" />
</g> 
</svg>
