<?xml version="1.0" standalone="no"?>
 <!DOCTYPE svg PUBLIC "-//W3C//DTD SVG 1.1//EN" 
 "http://www.w3.org/Graphics/SVG/1.1/DTD/svg11.dtd"> 
<svg xmlns="http://www.w3.org/2000/svg" version="1.1" 
    width="13.4849cm" height="8.55472cm" viewBox="0 0 53090 33680 ">
<title>SVG Picture created as D21_2550-B.Paste.svg date 2016/04/15 21:49:43 </title>
  <desc>Picture generated by PCBNEW </desc>
<g style="fill:#000000; fill-opacity:1;stroke:#000000; stroke-opacity:1;
stroke-linecap:round; stroke-linejoin:round; "
 transform="translate(0 0) scale(1 1)">
</g>
<g style="fill:#000000; fill-opacity:0.0; 
stroke:#000000; stroke-width:-0.000393701; stroke-opacity:1; 
stroke-linecap:round; stroke-linejoin:round;">
</g>
<g style="fill:#000000; fill-opacity:0.0; 
stroke:#000000; stroke-width:39.3701; stroke-opacity:1; 
stroke-linecap:round; stroke-linejoin:round;">
<path d="M44263 30649
L46231 30649
" />
<path d="M44263 3090
L46231 3090
" />
<circle cx="44263.2" cy="28681.1" r="984.252" /> 
<circle cx="6861.64" cy="5059.06" r="984.252" /> 
<circle cx="44263.2" cy="5059.06" r="984.252" /> 
<circle cx="6861.64" cy="28681.1" r="984.252" /> 
<path d="M4893 3090
L44263 3090
" />
<path d="M4893 30649
L4893 3090
" />
<path d="M44263 30649
L4893 30649
" />
<path d="M46231 3090
L46231 30649
" />
</g>
<g style="fill:#000000; fill-opacity:0.0; 
stroke:#000000; stroke-width:0; stroke-opacity:1; 
stroke-linecap:round; stroke-linejoin:round;">
</g>
<g style="fill:#000000; fill-opacity:1.0; 
stroke:#000000; stroke-width:0; stroke-opacity:1; 
stroke-linecap:round; stroke-linejoin:round;">
<polyline style="fill-rule:evenodd;"
points="16023,9594
16534,9594
16534,10185
16023,10185
16023,9594
" /> 
<polyline style="fill-rule:evenodd;"
points="16023,10657
16534,10657
16534,11248
16023,11248
16023,10657
" /> 
<polyline style="fill-rule:evenodd;"
points="17728,4344
18437,4344
18437,4659
17728,4659
17728,4344
" /> 
<polyline style="fill-rule:evenodd;"
points="17728,5092
18437,5092
18437,5407
17728,5407
17728,5092
" /> 
<polyline style="fill-rule:evenodd;"
points="16546,4718
17255,4718
17255,5033
16546,5033
16546,4718
" /> 
<polyline style="fill-rule:evenodd;"
points="43204,18872
43204,18379
43794,18379
43794,18872
43204,18872
" /> 
<polyline style="fill-rule:evenodd;"
points="44188,18872
44188,18379
44778,18379
44778,18872
44188,18872
" /> 
<polyline style="fill-rule:evenodd;"
points="43156,17722
43156,17230
43747,17230
43747,17722
43156,17722
" /> 
<polyline style="fill-rule:evenodd;"
points="44141,17722
44141,17230
44731,17230
44731,17722
44141,17722
" /> 
<polyline style="fill-rule:evenodd;"
points="42485,13257
42485,13494
41698,13494
41698,13257
42485,13257
" /> 
<polyline style="fill-rule:evenodd;"
points="42485,13757
42485,13994
41698,13994
41698,13757
42485,13757
" /> 
<polyline style="fill-rule:evenodd;"
points="42485,14257
42485,14494
41698,14494
41698,14257
42485,14257
" /> 
<polyline style="fill-rule:evenodd;"
points="42485,14757
42485,14994
41698,14994
41698,14757
42485,14757
" /> 
<polyline style="fill-rule:evenodd;"
points="42485,15257
42485,15494
41698,15494
41698,15257
42485,15257
" /> 
<polyline style="fill-rule:evenodd;"
points="42485,15757
42485,15994
41698,15994
41698,15757
42485,15757
" /> 
<polyline style="fill-rule:evenodd;"
points="42485,16257
42485,16494
41698,16494
41698,16257
42485,16257
" /> 
<polyline style="fill-rule:evenodd;"
points="42485,16757
42485,16994
41698,16994
41698,16757
42485,16757
" /> 
<polyline style="fill-rule:evenodd;"
points="42485,17257
42485,17494
41698,17494
41698,17257
42485,17257
" /> 
<polyline style="fill-rule:evenodd;"
points="42485,17757
42485,17994
41698,17994
41698,17757
42485,17757
" /> 
<polyline style="fill-rule:evenodd;"
points="42485,18257
42485,18494
41698,18494
41698,18257
42485,18257
" /> 
<polyline style="fill-rule:evenodd;"
points="42485,18757
42485,18994
41698,18994
41698,18757
42485,18757
" /> 
<polyline style="fill-rule:evenodd;"
points="42485,19257
42485,19494
41698,19494
41698,19257
42485,19257
" /> 
<polyline style="fill-rule:evenodd;"
points="42485,19757
42485,19994
41698,19994
41698,19757
42485,19757
" /> 
<polyline style="fill-rule:evenodd;"
points="38784,19757
38784,19994
37997,19994
37997,19757
38784,19757
" /> 
<polyline style="fill-rule:evenodd;"
points="38784,19257
38784,19494
37997,19494
37997,19257
38784,19257
" /> 
<polyline style="fill-rule:evenodd;"
points="38784,18757
38784,18994
37997,18994
37997,18757
38784,18757
" /> 
<polyline style="fill-rule:evenodd;"
points="38784,18257
38784,18494
37997,18494
37997,18257
38784,18257
" /> 
<polyline style="fill-rule:evenodd;"
points="38784,17757
38784,17994
37997,17994
37997,17757
38784,17757
" /> 
<polyline style="fill-rule:evenodd;"
points="38784,17257
38784,17494
37997,17494
37997,17257
38784,17257
" /> 
<polyline style="fill-rule:evenodd;"
points="38784,16757
38784,16994
37997,16994
37997,16757
38784,16757
" /> 
<polyline style="fill-rule:evenodd;"
points="38784,16257
38784,16494
37997,16494
37997,16257
38784,16257
" /> 
<polyline style="fill-rule:evenodd;"
points="38784,15757
38784,15994
37997,15994
37997,15757
38784,15757
" /> 
<polyline style="fill-rule:evenodd;"
points="38784,15257
38784,15494
37997,15494
37997,15257
38784,15257
" /> 
<polyline style="fill-rule:evenodd;"
points="38784,14757
38784,14994
37997,14994
37997,14757
38784,14757
" /> 
<polyline style="fill-rule:evenodd;"
points="38784,14257
38784,14494
37997,14494
37997,14257
38784,14257
" /> 
<polyline style="fill-rule:evenodd;"
points="38784,13757
38784,13994
37997,13994
37997,13757
38784,13757
" /> 
<polyline style="fill-rule:evenodd;"
points="38784,13257
38784,13494
37997,13494
37997,13257
38784,13257
" /> 
<polyline style="fill-rule:evenodd;"
points="33747,14952
33235,14952
33235,14362
33747,14362
33747,14952
" /> 
<polyline style="fill-rule:evenodd;"
points="33747,13889
33235,13889
33235,13299
33747,13299
33747,13889
" /> 
<polyline style="fill-rule:evenodd;"
points="33747,17452
33235,17452
33235,16862
33747,16862
33747,17452
" /> 
<polyline style="fill-rule:evenodd;"
points="33747,16389
33235,16389
33235,15799
33747,15799
33747,16389
" /> 
<polyline style="fill-rule:evenodd;"
points="33747,19952
33235,19952
33235,19362
33747,19362
33747,19952
" /> 
<polyline style="fill-rule:evenodd;"
points="33747,18889
33235,18889
33235,18299
33747,18299
33747,18889
" /> 
</g> 
</svg>
