<?xml version="1.0" standalone="no"?>
 <!DOCTYPE svg PUBLIC "-//W3C//DTD SVG 1.1//EN" 
 "http://www.w3.org/Graphics/SVG/1.1/DTD/svg11.dtd"> 
<svg xmlns="http://www.w3.org/2000/svg" version="1.1" 
    width="13.4849cm" height="8.55472cm" viewBox="0 0 53090 33680 ">
<title>SVG Picture created as D21_2550-F.CrtYd.svg date 2016/04/15 21:49:43 </title>
  <desc>Picture generated by PCBNEW </desc>
<g style="fill:#000000; fill-opacity:1;stroke:#000000; stroke-opacity:1;
stroke-linecap:round; stroke-linejoin:round; "
 transform="translate(0 0) scale(1 1)">
</g>
<g style="fill:#000000; fill-opacity:0.0; 
stroke:#000000; stroke-width:-0.000393701; stroke-opacity:1; 
stroke-linecap:round; stroke-linejoin:round;">
</g>
<g style="fill:#000000; fill-opacity:0.0; 
stroke:#000000; stroke-width:39.3701; stroke-opacity:1; 
stroke-linecap:round; stroke-linejoin:round;">
<path d="M44263 30649
L46231 30649
" />
<path d="M44263 3090
L46231 3090
" />
<circle cx="44263.2" cy="28681.1" r="984.252" /> 
<circle cx="6861.64" cy="5059.06" r="984.252" /> 
<circle cx="44263.2" cy="5059.06" r="984.252" /> 
<circle cx="6861.64" cy="28681.1" r="984.252" /> 
<path d="M4893 3090
L44263 3090
" />
<path d="M4893 30649
L4893 3090
" />
<path d="M44263 30649
L4893 30649
" />
<path d="M46231 3090
L46231 30649
" />
</g>
<g style="fill:#000000; fill-opacity:0.0; 
stroke:#000000; stroke-width:19.685; stroke-opacity:1; 
stroke-linecap:round; stroke-linejoin:round;">
<path d="M14597 10070
L14597 8181
" />
<path d="M15385 10070
L15385 8181
" />
<path d="M14597 10070
L15385 10070
" />
<path d="M14597 8181
L15385 8181
" />
<path d="M29617 24141
L32334 24141
" />
<path d="M32334 24141
L32334 26110
" />
<path d="M32334 26110
L29617 26110
" />
<path d="M29617 26110
L29617 24141
" />
<path d="M20617 25141
L23334 25141
" />
<path d="M23334 25141
L23334 27110
" />
<path d="M23334 27110
L20617 27110
" />
<path d="M20617 27110
L20617 25141
" />
<path d="M16117 25141
L18834 25141
" />
<path d="M18834 25141
L18834 27110
" />
<path d="M18834 27110
L16117 27110
" />
<path d="M16117 27110
L16117 25141
" />
<path d="M28042 22858
L28042 24669
" />
<path d="M28042 22858
L25936 22858
" />
<path d="M28042 24669
L25936 24669
" />
<path d="M25936 22858
L25936 24669
" />
<path d="M23542 22858
L23542 24669
" />
<path d="M23542 22858
L21436 22858
" />
<path d="M23542 24669
L21436 24669
" />
<path d="M21436 22858
L21436 24669
" />
<path d="M19042 22858
L19042 24669
" />
<path d="M19042 22858
L16936 22858
" />
<path d="M19042 24669
L16936 24669
" />
<path d="M16936 22858
L16936 24669
" />
<path d="M39436 12519
L37546 12519
" />
<path d="M39436 11732
L37546 11732
" />
<path d="M39436 12519
L39436 11732
" />
<path d="M37546 12519
L37546 11732
" />
<path d="M29936 17769
L28046 17769
" />
<path d="M29936 16982
L28046 16982
" />
<path d="M29936 17769
L29936 16982
" />
<path d="M28046 17769
L28046 16982
" />
<path d="M23686 17769
L21796 17769
" />
<path d="M23686 16982
L21796 16982
" />
<path d="M23686 17769
L23686 16982
" />
<path d="M21796 17769
L21796 16982
" />
<path d="M17686 17769
L15796 17769
" />
<path d="M17686 16982
L15796 16982
" />
<path d="M17686 17769
L17686 16982
" />
<path d="M15796 17769
L15796 16982
" />
<path d="M24635 4181
L24635 6070
" />
<path d="M23847 4181
L23847 6070
" />
<path d="M24635 4181
L23847 4181
" />
<path d="M24635 6070
L23847 6070
" />
<path d="M29796 5482
L31686 5482
" />
<path d="M29796 6269
L31686 6269
" />
<path d="M29796 5482
L29796 6269
" />
<path d="M31686 5482
L31686 6269
" />
<path d="M39796 10732
L41686 10732
" />
<path d="M39796 11519
L41686 11519
" />
<path d="M39796 10732
L39796 11519
" />
<path d="M41686 10732
L41686 11519
" />
<path d="M39796 11732
L41686 11732
" />
<path d="M39796 12519
L41686 12519
" />
<path d="M39796 11732
L39796 12519
" />
<path d="M41686 11732
L41686 12519
" />
<path d="M15385 23681
L15385 25570
" />
<path d="M14597 23681
L14597 25570
" />
<path d="M15385 23681
L14597 23681
" />
<path d="M15385 25570
L14597 25570
" />
<path d="M34097 10070
L34097 8181
" />
<path d="M34885 10070
L34885 8181
" />
<path d="M34097 10070
L34885 10070
" />
<path d="M34097 8181
L34885 8181
" />
<path d="M33597 25570
L33597 23681
" />
<path d="M34385 25570
L34385 23681
" />
<path d="M33597 25570
L34385 25570
" />
<path d="M33597 23681
L34385 23681
" />
<path d="M30956 18074
L27019 18074
" />
<path d="M30956 22169
L27019 22169
" />
<path d="M30956 18074
L30956 22169
" />
<path d="M27019 18074
L27019 22169
" />
<path d="M24956 18074
L21019 18074
" />
<path d="M24956 22169
L21019 22169
" />
<path d="M24956 18074
L24956 22169
" />
<path d="M21019 18074
L21019 22169
" />
<path d="M18956 18074
L15019 18074
" />
<path d="M18956 22169
L15019 22169
" />
<path d="M18956 18074
L18956 22169
" />
<path d="M15019 18074
L15019 22169
" />
<path d="M37773 21114
L39544 21114
" />
<path d="M39544 21114
L39544 21940
" />
<path d="M39544 21940
L37773 21940
" />
<path d="M37773 21114
L37773 21940
" />
<path d="M41627 13539
L39855 13539
" />
<path d="M39855 13539
L39855 12712
" />
<path d="M39855 12712
L41627 12712
" />
<path d="M41627 13539
L41627 12712
" />
<path d="M34019 15031
L35987 15031
" />
<path d="M35987 15031
L35987 13259
" />
<path d="M35987 13259
L34019 13259
" />
<path d="M34019 13259
L34019 15031
" />
<path d="M34019 17531
L35987 17531
" />
<path d="M35987 17531
L35987 15759
" />
<path d="M35987 15759
L34019 15759
" />
<path d="M34019 15759
L34019 17531
" />
<path d="M34019 20031
L35987 20031
" />
<path d="M35987 20031
L35987 18259
" />
<path d="M35987 18259
L34019 18259
" />
<path d="M34019 18259
L34019 20031
" />
<path d="M36302 13687
L36302 19080
" />
<path d="M37680 13687
L37680 19080
" />
<path d="M36302 13687
L37680 13687
" />
<path d="M36302 19080
L37680 19080
" />
<path d="M20582 3633
L20582 8614
" />
<path d="M19401 3633
L20582 3633
" />
<path d="M20582 8614
L19401 8614
" />
<path d="M19401 3633
L19401 8614
" />
<path d="M27582 3633
L27582 8614
" />
<path d="M26401 3633
L27582 3633
" />
<path d="M27582 8614
L26401 8614
" />
<path d="M26401 3633
L26401 8614
" />
<path d="M29082 3633
L29082 8614
" />
<path d="M27901 3633
L29082 3633
" />
<path d="M29082 8614
L27901 8614
" />
<path d="M27901 3633
L27901 8614
" />
<path d="M25401 22118
L25401 17137
" />
<path d="M26582 22118
L25401 22118
" />
<path d="M25401 17137
L26582 17137
" />
<path d="M26582 22118
L26582 17137
" />
<path d="M19401 22118
L19401 17137
" />
<path d="M20582 22118
L19401 22118
" />
<path d="M19401 17137
L20582 17137
" />
<path d="M20582 22118
L20582 17137
" />
<path d="M13401 22118
L13401 17137
" />
<path d="M14582 22118
L13401 22118
" />
<path d="M13401 17137
L14582 17137
" />
<path d="M14582 22118
L14582 17137
" />
<path d="M23999 25035
L28979 25035
" />
<path d="M23999 26216
L23999 25035
" />
<path d="M28979 25035
L28979 26216
" />
<path d="M23999 26216
L28979 26216
" />
<path d="M19499 27535
L24479 27535
" />
<path d="M19499 28716
L19499 27535
" />
<path d="M24479 27535
L24479 28716
" />
<path d="M19499 28716
L24479 28716
" />
<path d="M13999 27535
L18979 27535
" />
<path d="M13999 28716
L13999 27535
" />
<path d="M18979 27535
L18979 28716
" />
<path d="M13999 28716
L18979 28716
" />
<path d="M8832 14133
L8832 19114
" />
<path d="M7651 14133
L8832 14133
" />
<path d="M8832 19114
L7651 19114
" />
<path d="M7651 14133
L7651 19114
" />
<path d="M14275 15507
L14275 13618
" />
<path d="M15062 15507
L15062 13618
" />
<path d="M14275 15507
L15062 15507
" />
<path d="M14275 13618
L15062 13618
" />
</g> 
</svg>
