<?xml version="1.0" standalone="no"?>
 <!DOCTYPE svg PUBLIC "-//W3C//DTD SVG 1.1//EN" 
 "http://www.w3.org/Graphics/SVG/1.1/DTD/svg11.dtd"> 
<svg xmlns="http://www.w3.org/2000/svg" version="1.1" 
    width="13.4849cm" height="8.55472cm" viewBox="0 0 53090 33680 ">
<title>SVG Picture created as D21_2550-F.SilkS.svg date 2016/04/15 21:49:43 </title>
  <desc>Picture generated by PCBNEW </desc>
<g style="fill:#000000; fill-opacity:1;stroke:#000000; stroke-opacity:1;
stroke-linecap:round; stroke-linejoin:round; "
 transform="translate(0 0) scale(1 1)">
</g>
<g style="fill:#000000; fill-opacity:0.0; 
stroke:#000000; stroke-width:-0.000393701; stroke-opacity:1; 
stroke-linecap:round; stroke-linejoin:round;">
</g>
<g style="fill:#000000; fill-opacity:0.0; 
stroke:#000000; stroke-width:118.11; stroke-opacity:1; 
stroke-linecap:round; stroke-linejoin:round;">
<path d="M20991 13393
L20991 12802
" />
<path d="M20991 13083
L21329 13083
" />
<path d="M21329 13393
L21329 12802
" />
<path d="M21610 13393
L21610 12802
L21751 12802
L21835 12830
L21891 12886
L21919 12943
L21947 13055
L21947 13140
L21919 13252
L21891 13308
L21835 13365
L21751 13393
L21610 13393
" />
<path d="M22538 13336
L22510 13365
L22426 13393
L22369 13393
L22285 13365
L22229 13308
L22201 13252
L22172 13140
L22172 13055
L22201 12943
L22229 12886
L22285 12830
L22369 12802
L22426 12802
L22510 12830
L22538 12858
" />
<path d="M22791 13168
L23241 13168
" />
<path d="M23803 12802
L23522 12802
L23494 13083
L23522 13055
L23579 13027
L23719 13027
L23775 13055
L23803 13083
L23832 13140
L23832 13280
L23803 13336
L23775 13365
L23719 13393
L23579 13393
L23522 13365
L23494 13336
" />
<path d="M24338 12802
L24225 12802
L24169 12830
L24141 12858
L24085 12943
L24057 13055
L24057 13280
L24085 13336
L24113 13365
L24169 13393
L24282 13393
L24338 13365
L24366 13336
L24394 13280
L24394 13140
L24366 13083
L24338 13055
L24282 13027
L24169 13027
L24113 13055
L24085 13083
L24057 13140
" />
<path d="M24591 12802
L24956 12802
L24760 13027
L24844 13027
L24900 13055
L24928 13083
L24956 13140
L24956 13280
L24928 13336
L24900 13365
L24844 13393
L24675 13393
L24619 13365
L24591 13336
" />
<path d="M25153 12802
L25519 12802
L25322 13027
L25406 13027
L25463 13055
L25491 13083
L25519 13140
L25519 13280
L25491 13336
L25463 13365
L25406 13393
L25238 13393
L25181 13365
L25153 13336
" />
<path d="M37954 18052
L38151 18643
L38347 18052
" />
<path d="M38544 18643
L38544 18052
L38769 18052
L38825 18080
L38854 18108
L38882 18165
L38882 18249
L38854 18305
L38825 18333
L38769 18361
L38544 18361
" />
<path d="M39135 18643
L39135 18052
L39360 18052
L39416 18080
L39444 18108
L39472 18165
L39472 18249
L39444 18305
L39416 18333
L39360 18361
L39135 18361
" />
<path d="M37954 17052
L38151 17643
L38347 17052
" />
<path d="M38544 17643
L38544 17052
L38685 17052
L38769 17080
L38825 17136
L38854 17193
L38882 17305
L38882 17390
L38854 17502
L38825 17558
L38769 17615
L38685 17643
L38544 17643
" />
<path d="M39135 17643
L39135 17052
L39275 17052
L39360 17080
L39416 17136
L39444 17193
L39472 17305
L39472 17390
L39444 17502
L39416 17558
L39360 17615
L39275 17643
L39135 17643
" />
<path d="M38291 16080
L38235 16052
L38151 16052
L38066 16080
L38010 16136
L37982 16193
L37954 16305
L37954 16390
L37982 16502
L38010 16558
L38066 16615
L38151 16643
L38207 16643
L38291 16615
L38319 16586
L38319 16390
L38207 16390
" />
<path d="M38572 16643
L38572 16052
L38910 16643
L38910 16052
" />
<path d="M39191 16643
L39191 16052
L39332 16052
L39416 16080
L39472 16136
L39500 16193
L39528 16305
L39528 16390
L39500 16502
L39472 16558
L39416 16615
L39332 16643
L39191 16643
" />
<path d="M37996 15643
L37996 15052
L38221 15052
L38277 15080
L38305 15108
L38333 15165
L38333 15249
L38305 15305
L38277 15333
L38221 15361
L37996 15361
" />
<path d="M38896 15080
L38839 15052
L38755 15052
L38671 15080
L38615 15136
L38586 15193
L38558 15305
L38558 15390
L38586 15502
L38615 15558
L38671 15615
L38755 15643
L38811 15643
L38896 15615
L38924 15586
L38924 15390
L38811 15390
" />
<path d="M39177 15643
L39177 15052
L39318 15052
L39402 15080
L39458 15136
L39486 15193
L39514 15305
L39514 15390
L39486 15502
L39458 15558
L39402 15615
L39318 15643
L39177 15643
" />
<path d="M37996 14643
L37996 14052
L38221 14052
L38277 14080
L38305 14108
L38333 14165
L38333 14249
L38305 14305
L38277 14333
L38221 14361
L37996 14361
" />
<path d="M38896 14080
L38839 14052
L38755 14052
L38671 14080
L38615 14136
L38586 14193
L38558 14305
L38558 14390
L38586 14502
L38615 14558
L38671 14615
L38755 14643
L38811 14643
L38896 14615
L38924 14586
L38924 14390
L38811 14390
" />
<path d="M39514 14586
L39486 14615
L39402 14643
L39346 14643
L39261 14615
L39205 14558
L39177 14502
L39149 14390
L39149 14305
L39177 14193
L39205 14136
L39261 14080
L39346 14052
L39402 14052
L39486 14080
L39514 14108
" />
<path d="M33822 29893
L33822 29302
L34160 29893
L34160 29302
" />
<path d="M31513 29893
L31513 29302
L31710 29724
L31907 29302
L31907 29893
" />
<path d="M32132 29302
L32497 29302
L32300 29527
L32385 29527
L32441 29555
L32469 29583
L32497 29640
L32497 29780
L32469 29836
L32441 29865
L32385 29893
L32216 29893
L32160 29865
L32132 29836
" />
<path d="M29513 29893
L29513 29302
L29710 29724
L29907 29302
L29907 29893
" />
<path d="M30160 29358
L30188 29330
L30244 29302
L30385 29302
L30441 29330
L30469 29358
L30497 29415
L30497 29471
L30469 29555
L30132 29893
L30497 29893
" />
<path d="M27513 29893
L27513 29302
L27710 29724
L27907 29302
L27907 29893
" />
<path d="M28497 29893
L28160 29893
" />
<path d="M28329 29893
L28329 29302
L28272 29386
L28216 29443
L28160 29471
" />
<path d="M26075 29583
L25879 29583
" />
<path d="M25879 29893
L25879 29302
L26160 29302
" />
<path d="M44168 11589
L44168 11252
" />
<path d="M44758 11421
L44168 11421
" />
<path d="M44758 10718
L44477 10915
" />
<path d="M44758 11055
L44168 11055
L44168 10830
L44196 10774
L44224 10746
L44280 10718
L44365 10718
L44421 10746
L44449 10774
L44477 10830
L44477 11055
" />
<path d="M44168 8547
L44168 8210
" />
<path d="M44758 8379
L44168 8379
" />
<path d="M44589 8041
L44589 7760
" />
<path d="M44758 8097
L44168 7901
L44758 7704
" />
</g>
<g style="fill:#000000; fill-opacity:0.0; 
stroke:#000000; stroke-width:39.3701; stroke-opacity:1; 
stroke-linecap:round; stroke-linejoin:round;">
<path d="M44263 30649
L46231 30649
" />
<path d="M44263 3090
L46231 3090
" />
<circle cx="44263.2" cy="28681.1" r="984.252" /> 
<circle cx="6861.64" cy="5059.06" r="984.252" /> 
<circle cx="44263.2" cy="5059.06" r="984.252" /> 
<circle cx="6861.64" cy="28681.1" r="984.252" /> 
<path d="M4893 3090
L44263 3090
" />
<path d="M4893 30649
L4893 3090
" />
<path d="M44263 30649
L4893 30649
" />
<path d="M46231 3090
L46231 30649
" />
</g>
<g style="fill:#000000; fill-opacity:0.0; 
stroke:#000000; stroke-width:59.0551; stroke-opacity:1; 
stroke-linecap:round; stroke-linejoin:round;">
<path d="M14342 9379
L14155 9510
" />
<path d="M14342 9604
L13949 9604
L13949 9454
L13967 9416
L13986 9397
L14024 9379
L14080 9379
L14117 9397
L14136 9416
L14155 9454
L14155 9604
" />
<path d="M13986 9229
L13967 9210
L13949 9172
L13949 9079
L13967 9041
L13986 9022
L14024 9004
L14061 9004
L14117 9022
L14342 9247
L14342 9004
" />
<path d="M13949 8760
L13949 8722
L13967 8685
L13986 8666
L14024 8647
L14099 8629
L14192 8629
L14267 8647
L14305 8666
L14324 8685
L14342 8722
L14342 8760
L14324 8797
L14305 8816
L14267 8835
L14192 8854
L14099 8854
L14024 8835
L13986 8816
L13967 8797
L13949 8760
" />
<path d="M37832 24603
L37889 24622
L37982 24622
L38020 24603
L38038 24584
L38057 24547
L38057 24509
L38038 24472
L38020 24453
L37982 24434
L37907 24415
L37870 24397
L37851 24378
L37832 24340
L37832 24303
L37851 24265
L37870 24247
L37907 24228
L38001 24228
L38057 24247
" />
<path d="M38188 24228
L38282 24622
L38357 24340
L38432 24622
L38526 24228
" />
<path d="M38845 24359
L38845 24622
" />
<path d="M38751 24209
L38657 24490
L38901 24490
" />
<path d="M30910 23888
L30891 23907
L30835 23926
L30797 23926
L30741 23907
L30703 23869
L30685 23832
L30666 23757
L30666 23701
L30685 23626
L30703 23588
L30741 23551
L30797 23532
L30835 23532
L30891 23551
L30910 23569
" />
<path d="M31247 23663
L31247 23926
" />
<path d="M31153 23513
L31060 23794
L31303 23794
" />
<path d="M21910 24888
L21891 24907
L21835 24926
L21797 24926
L21741 24907
L21703 24869
L21685 24832
L21666 24757
L21666 24701
L21685 24626
L21703 24588
L21741 24551
L21797 24532
L21835 24532
L21891 24551
L21910 24569
" />
<path d="M22266 24532
L22078 24532
L22060 24719
L22078 24701
L22116 24682
L22210 24682
L22247 24701
L22266 24719
L22285 24757
L22285 24851
L22266 24888
L22247 24907
L22210 24926
L22116 24926
L22078 24907
L22060 24888
" />
<path d="M17410 24888
L17391 24907
L17335 24926
L17297 24926
L17241 24907
L17203 24869
L17185 24832
L17166 24757
L17166 24701
L17185 24626
L17203 24588
L17241 24551
L17297 24532
L17335 24532
L17391 24551
L17410 24569
" />
<path d="M17747 24532
L17672 24532
L17635 24551
L17616 24569
L17578 24626
L17560 24701
L17560 24851
L17578 24888
L17597 24907
L17635 24926
L17710 24926
L17747 24907
L17766 24888
L17785 24851
L17785 24757
L17766 24719
L17747 24701
L17710 24682
L17635 24682
L17597 24701
L17578 24719
L17560 24757
" />
<path d="M9170 15037
L8776 15037
L8776 14943
L8795 14887
L8833 14850
L8870 14831
L8945 14812
L9001 14812
L9076 14831
L9114 14850
L9151 14887
L9170 14943
L9170 15037
" />
<path d="M9170 14437
L9170 14662
" />
<path d="M9170 14550
L8776 14550
L8833 14587
L8870 14625
L8889 14662
" />
<path d="M9170 20037
L8776 20037
L8776 19943
L8795 19887
L8833 19850
L8870 19831
L8945 19812
L9001 19812
L9076 19831
L9114 19850
L9151 19887
L9170 19943
L9170 20037
" />
<path d="M8814 19662
L8795 19643
L8776 19606
L8776 19512
L8795 19475
L8814 19456
L8851 19437
L8889 19437
L8945 19456
L9170 19681
L9170 19437
" />
<path d="M10670 15037
L10276 15037
L10276 14943
L10295 14887
L10333 14850
L10370 14831
L10445 14812
L10501 14812
L10576 14831
L10614 14850
L10651 14887
L10670 14943
L10670 15037
" />
<path d="M10276 14681
L10276 14437
L10426 14568
L10426 14512
L10445 14475
L10464 14456
L10501 14437
L10595 14437
L10633 14456
L10651 14475
L10670 14512
L10670 14625
L10651 14662
L10633 14681
" />
<path d="M10670 20037
L10276 20037
L10276 19943
L10295 19887
L10333 19850
L10370 19831
L10445 19812
L10501 19812
L10576 19831
L10614 19850
L10651 19887
L10670 19943
L10670 20037
" />
<path d="M10408 19475
L10670 19475
" />
<path d="M10258 19568
L10539 19662
L10539 19418
" />
<path d="M12170 17554
L11776 17554
L11776 17460
L11795 17404
L11833 17367
L11870 17348
L11945 17329
L12001 17329
L12076 17348
L12114 17367
L12151 17404
L12170 17460
L12170 17554
" />
<path d="M11776 16973
L11776 17160
L11964 17179
L11945 17160
L11926 17123
L11926 17029
L11945 16992
L11964 16973
L12001 16954
L12095 16954
L12133 16973
L12151 16992
L12170 17029
L12170 17123
L12151 17160
L12133 17179
" />
<path d="M10273 8855
L10329 8874
L10423 8874
L10461 8855
L10479 8836
L10498 8799
L10498 8761
L10479 8724
L10461 8705
L10423 8686
L10348 8667
L10311 8649
L10292 8630
L10273 8592
L10273 8555
L10292 8517
L10311 8499
L10348 8480
L10442 8480
L10498 8499
" />
<path d="M10629 8480
L10723 8874
L10798 8592
L10873 8874
L10967 8480
" />
<path d="M11323 8874
L11098 8874
" />
<path d="M11211 8874
L11211 8480
L11173 8536
L11136 8574
L11098 8592
" />
<path d="M10273 24603
L10329 24622
L10423 24622
L10461 24603
L10479 24584
L10498 24547
L10498 24509
L10479 24472
L10461 24453
L10423 24434
L10348 24415
L10311 24397
L10292 24378
L10273 24340
L10273 24303
L10292 24265
L10311 24247
L10348 24228
L10442 24228
L10498 24247
" />
<path d="M10629 24228
L10723 24622
L10798 24340
L10873 24622
L10967 24228
" />
<path d="M11098 24265
L11117 24247
L11154 24228
L11248 24228
L11286 24247
L11304 24265
L11323 24303
L11323 24340
L11304 24397
L11079 24622
L11323 24622
" />
<path d="M37832 8855
L37889 8874
L37982 8874
L38020 8855
L38038 8836
L38057 8799
L38057 8761
L38038 8724
L38020 8705
L37982 8686
L37907 8667
L37870 8649
L37851 8630
L37832 8592
L37832 8555
L37851 8517
L37870 8499
L37907 8480
L38001 8480
L38057 8499
" />
<path d="M38188 8480
L38282 8874
L38357 8592
L38432 8874
L38526 8480
" />
<path d="M38638 8480
L38882 8480
L38751 8630
L38807 8630
L38845 8649
L38863 8667
L38882 8705
L38882 8799
L38863 8836
L38845 8855
L38807 8874
L38695 8874
L38657 8855
L38638 8836
" />
<path d="M27191 24985
L27191 25303
L27210 25341
L27229 25360
L27266 25378
L27341 25378
L27379 25360
L27397 25341
L27416 25303
L27416 24985
" />
<path d="M27791 24985
L27604 24985
L27585 25172
L27604 25153
L27641 25135
L27735 25135
L27772 25153
L27791 25172
L27810 25210
L27810 25303
L27791 25341
L27772 25360
L27735 25378
L27641 25378
L27604 25360
L27585 25341
" />
<path d="M22691 24985
L22691 25303
L22710 25341
L22729 25360
L22766 25378
L22841 25378
L22879 25360
L22897 25341
L22916 25303
L22916 24985
" />
<path d="M23272 24985
L23197 24985
L23160 25003
L23141 25022
L23104 25078
L23085 25153
L23085 25303
L23104 25341
L23122 25360
L23160 25378
L23235 25378
L23272 25360
L23291 25341
L23310 25303
L23310 25210
L23291 25172
L23272 25153
L23235 25135
L23160 25135
L23122 25153
L23104 25172
L23085 25210
" />
<path d="M18191 24985
L18191 25303
L18210 25341
L18229 25360
L18266 25378
L18341 25378
L18379 25360
L18397 25341
L18416 25303
L18416 24985
" />
<path d="M18566 24985
L18829 24985
L18660 25378
" />
<path d="M24356 14607
L24356 14925
L24375 14963
L24394 14982
L24431 15000
L24506 15000
L24544 14982
L24563 14963
L24581 14925
L24581 14607
" />
<path d="M24825 14775
L24788 14757
L24769 14738
L24750 14700
L24750 14682
L24769 14644
L24788 14625
L24825 14607
L24900 14607
L24938 14625
L24956 14644
L24975 14682
L24975 14700
L24956 14738
L24938 14757
L24900 14775
L24825 14775
L24788 14794
L24769 14813
L24750 14850
L24750 14925
L24769 14963
L24788 14982
L24825 15000
L24900 15000
L24938 14982
L24956 14963
L24975 14925
L24975 14850
L24956 14813
L24938 14794
L24900 14775
" />
<path d="M41482 23813
L41669 23813
" />
<path d="M41275 23944
L41482 23813
L41275 23682
" />
<path d="M41669 23344
L41669 23569
" />
<path d="M41669 23457
L41275 23457
L41332 23494
L41369 23532
L41388 23569
" />
<path d="M38425 13130
L38294 12943
" />
<path d="M38200 13130
L38200 12737
L38350 12737
L38388 12755
L38407 12774
L38425 12812
L38425 12868
L38407 12905
L38388 12924
L38350 12943
L38200 12943
" />
<path d="M38575 12774
L38594 12755
L38632 12737
L38725 12737
L38763 12755
L38782 12774
L38800 12812
L38800 12849
L38782 12905
L38557 13130
L38800 13130
" />
<path d="M28925 18380
L28794 18193
" />
<path d="M28700 18380
L28700 17987
L28850 17987
L28888 18005
L28907 18024
L28925 18062
L28925 18118
L28907 18155
L28888 18174
L28850 18193
L28700 18193
" />
<path d="M29057 17987
L29300 17987
L29169 18137
L29225 18137
L29263 18155
L29282 18174
L29300 18212
L29300 18305
L29282 18343
L29263 18362
L29225 18380
L29113 18380
L29075 18362
L29057 18343
" />
<path d="M22675 18380
L22544 18193
" />
<path d="M22450 18380
L22450 17987
L22600 17987
L22638 18005
L22657 18024
L22675 18062
L22675 18118
L22657 18155
L22638 18174
L22600 18193
L22450 18193
" />
<path d="M23013 18118
L23013 18380
" />
<path d="M22919 17968
L22825 18249
L23069 18249
" />
<path d="M16675 18380
L16544 18193
" />
<path d="M16450 18380
L16450 17987
L16600 17987
L16638 18005
L16657 18024
L16675 18062
L16675 18118
L16657 18155
L16638 18174
L16600 18193
L16450 18193
" />
<path d="M17032 17987
L16844 17987
L16825 18174
L16844 18155
L16882 18137
L16975 18137
L17013 18155
L17032 18174
L17050 18212
L17050 18305
L17032 18343
L17013 18362
L16975 18380
L16882 18380
L16844 18362
L16825 18343
" />
<path d="M25246 5379
L25058 5510
" />
<path d="M25246 5604
L24852 5604
L24852 5454
L24871 5416
L24890 5397
L24927 5379
L24983 5379
L25021 5397
L25040 5416
L25058 5454
L25058 5604
" />
<path d="M25246 5004
L25246 5229
" />
<path d="M25246 5116
L24852 5116
L24908 5154
L24946 5191
L24965 5229
" />
<path d="M24852 4872
L24852 4629
L25002 4760
L25002 4704
L25021 4666
L25040 4647
L25077 4629
L25171 4629
L25208 4647
L25227 4666
L25246 4704
L25246 4816
L25227 4854
L25208 4872
" />
<path d="M30488 5227
L30357 5039
" />
<path d="M30263 5227
L30263 4833
L30413 4833
L30450 4852
L30469 4871
L30488 4908
L30488 4964
L30469 5002
L30450 5021
L30413 5039
L30263 5039
" />
<path d="M30863 5227
L30638 5227
" />
<path d="M30750 5227
L30750 4833
L30713 4889
L30675 4927
L30638 4946
" />
<path d="M31200 4964
L31200 5227
" />
<path d="M31107 4814
L31013 5096
L31257 5096
" />
<path d="M40488 10477
L40357 10289
" />
<path d="M40263 10477
L40263 10083
L40413 10083
L40450 10102
L40469 10121
L40488 10158
L40488 10214
L40469 10252
L40450 10271
L40413 10289
L40263 10289
" />
<path d="M40863 10477
L40638 10477
" />
<path d="M40750 10477
L40750 10083
L40713 10139
L40675 10177
L40638 10196
" />
<path d="M41088 10252
L41050 10233
L41032 10214
L41013 10177
L41013 10158
L41032 10121
L41050 10102
L41088 10083
L41163 10083
L41200 10102
L41219 10121
L41238 10158
L41238 10177
L41219 10214
L41200 10233
L41163 10252
L41088 10252
L41050 10271
L41032 10289
L41013 10327
L41013 10402
L41032 10439
L41050 10458
L41088 10477
L41163 10477
L41200 10458
L41219 10439
L41238 10402
L41238 10327
L41219 10289
L41200 10271
L41163 10252
" />
<path d="M40488 11477
L40357 11289
" />
<path d="M40263 11477
L40263 11083
L40413 11083
L40450 11102
L40469 11121
L40488 11158
L40488 11214
L40469 11252
L40450 11271
L40413 11289
L40263 11289
" />
<path d="M40863 11477
L40638 11477
" />
<path d="M40750 11477
L40750 11083
L40713 11139
L40675 11177
L40638 11196
" />
<path d="M41050 11477
L41125 11477
L41163 11458
L41182 11439
L41219 11383
L41238 11308
L41238 11158
L41219 11121
L41200 11102
L41163 11083
L41088 11083
L41050 11102
L41032 11121
L41013 11158
L41013 11252
L41032 11289
L41050 11308
L41088 11327
L41163 11327
L41200 11308
L41219 11289
L41238 11252
" />
<path d="M15996 24879
L15808 25010
" />
<path d="M15996 25104
L15602 25104
L15602 24954
L15621 24916
L15640 24897
L15677 24879
L15733 24879
L15771 24897
L15790 24916
L15808 24954
L15808 25104
" />
<path d="M15640 24729
L15621 24710
L15602 24672
L15602 24579
L15621 24541
L15640 24522
L15677 24504
L15715 24504
L15771 24522
L15996 24747
L15996 24504
" />
<path d="M15996 24129
L15996 24354
" />
<path d="M15996 24241
L15602 24241
L15658 24279
L15696 24316
L15715 24354
" />
<path d="M33842 9379
L33655 9510
" />
<path d="M33842 9604
L33449 9604
L33449 9454
L33467 9416
L33486 9397
L33524 9379
L33580 9379
L33617 9397
L33636 9416
L33655 9454
L33655 9604
" />
<path d="M33486 9229
L33467 9210
L33449 9172
L33449 9079
L33467 9041
L33486 9022
L33524 9004
L33561 9004
L33617 9022
L33842 9247
L33842 9004
" />
<path d="M33486 8854
L33467 8835
L33449 8797
L33449 8704
L33467 8666
L33486 8647
L33524 8629
L33561 8629
L33617 8647
L33842 8872
L33842 8629
" />
<path d="M33342 24879
L33155 25010
" />
<path d="M33342 25104
L32949 25104
L32949 24954
L32967 24916
L32986 24897
L33024 24879
L33080 24879
L33117 24897
L33136 24916
L33155 24954
L33155 25104
" />
<path d="M32986 24729
L32967 24710
L32949 24672
L32949 24579
L32967 24541
L32986 24522
L33024 24504
L33061 24504
L33117 24522
L33342 24747
L33342 24504
" />
<path d="M32949 24372
L32949 24129
L33099 24260
L33099 24204
L33117 24166
L33136 24147
L33174 24129
L33267 24129
L33305 24147
L33324 24166
L33342 24204
L33342 24316
L33324 24354
L33305 24372
" />
<path d="M25454 6841
L25416 6822
L25379 6785
L25322 6729
L25285 6710
L25247 6710
" />
<path d="M25266 6804
L25229 6785
L25191 6747
L25172 6672
L25172 6541
L25191 6466
L25229 6429
L25266 6410
L25341 6410
L25379 6429
L25416 6466
L25435 6541
L25435 6672
L25416 6747
L25379 6785
L25341 6804
L25266 6804
" />
<path d="M25585 6447
L25604 6429
L25641 6410
L25735 6410
L25772 6429
L25791 6447
L25810 6485
L25810 6522
L25791 6579
L25566 6804
L25810 6804
" />
<path d="M32457 4413
L32438 4450
L32400 4488
L32344 4544
L32325 4582
L32325 4619
" />
<path d="M32419 4600
L32400 4638
L32363 4675
L32288 4694
L32157 4694
L32082 4675
L32044 4638
L32025 4600
L32025 4525
L32044 4488
L32082 4450
L32157 4432
L32288 4432
L32363 4450
L32400 4488
L32419 4525
L32419 4600
" />
<path d="M32025 4300
L32025 4057
L32175 4188
L32175 4132
L32194 4094
L32213 4076
L32250 4057
L32344 4057
L32382 4076
L32400 4094
L32419 4132
L32419 4244
L32400 4282
L32382 4300
" />
<path d="M31831 18925
L32149 18925
L32187 18907
L32206 18888
L32224 18850
L32224 18775
L32206 18738
L32187 18719
L32149 18700
L31831 18700
" />
<path d="M31868 18532
L31849 18513
L31831 18476
L31831 18382
L31849 18344
L31868 18326
L31906 18307
L31943 18307
L31999 18326
L32224 18550
L32224 18307
" />
<path d="M25831 18925
L26149 18925
L26187 18907
L26206 18888
L26224 18850
L26224 18775
L26206 18738
L26187 18719
L26149 18700
L25831 18700
" />
<path d="M25831 18550
L25831 18307
L25981 18438
L25981 18382
L25999 18344
L26018 18326
L26056 18307
L26149 18307
L26187 18326
L26206 18344
L26224 18382
L26224 18494
L26206 18532
L26187 18550
" />
<path d="M19831 18925
L20149 18925
L20187 18907
L20206 18888
L20224 18850
L20224 18775
L20206 18738
L20187 18719
L20149 18700
L19831 18700
" />
<path d="M19962 18344
L20224 18344
" />
<path d="M19812 18438
L20093 18532
L20093 18288
" />
<path d="M38368 20918
L38368 20524
L38462 20524
L38518 20543
L38555 20580
L38574 20618
L38593 20693
L38593 20749
L38574 20824
L38555 20862
L38518 20899
L38462 20918
L38368 20918
" />
<path d="M38930 20524
L38855 20524
L38818 20543
L38799 20562
L38761 20618
L38743 20693
L38743 20843
L38761 20880
L38780 20899
L38818 20918
L38893 20918
L38930 20899
L38949 20880
L38968 20843
L38968 20749
L38949 20712
L38930 20693
L38893 20674
L38818 20674
L38780 20693
L38761 20712
L38743 20749
" />
<path d="M40450 14091
L40450 13697
L40544 13697
L40600 13716
L40638 13754
L40657 13791
L40675 13866
L40675 13922
L40657 13997
L40638 14035
L40600 14072
L40544 14091
L40450 14091
" />
<path d="M40807 13697
L41069 13697
L40900 14091
" />
<path d="M34952 15508
L34952 15115
L35046 15115
L35102 15133
L35140 15171
L35159 15208
L35177 15283
L35177 15340
L35159 15415
L35140 15452
L35102 15490
L35046 15508
L34952 15508
" />
<path d="M35402 15283
L35365 15265
L35346 15246
L35327 15208
L35327 15190
L35346 15152
L35365 15133
L35402 15115
L35477 15115
L35515 15133
L35534 15152
L35552 15190
L35552 15208
L35534 15246
L35515 15265
L35477 15283
L35402 15283
L35365 15302
L35346 15321
L35327 15358
L35327 15433
L35346 15471
L35365 15490
L35402 15508
L35477 15508
L35515 15490
L35534 15471
L35552 15433
L35552 15358
L35534 15321
L35515 15302
L35477 15283
" />
<path d="M33723 14989
L33723 14595
" />
<path d="M33948 14989
L33779 14764
" />
<path d="M33948 14595
L33723 14820
" />
<path d="M34952 18008
L34952 17615
L35046 17615
L35102 17633
L35140 17671
L35159 17708
L35177 17783
L35177 17840
L35159 17915
L35140 17952
L35102 17990
L35046 18008
L34952 18008
" />
<path d="M35365 18008
L35440 18008
L35477 17990
L35496 17971
L35534 17915
L35552 17840
L35552 17690
L35534 17652
L35515 17633
L35477 17615
L35402 17615
L35365 17633
L35346 17652
L35327 17690
L35327 17783
L35346 17821
L35365 17840
L35402 17858
L35477 17858
L35515 17840
L35534 17821
L35552 17783
" />
<path d="M33723 17489
L33723 17095
" />
<path d="M33948 17489
L33779 17264
" />
<path d="M33948 17095
L33723 17320
" />
<path d="M34765 20508
L34765 20115
L34859 20115
L34915 20133
L34952 20171
L34971 20208
L34990 20283
L34990 20340
L34971 20415
L34952 20452
L34915 20490
L34859 20508
L34765 20508
" />
<path d="M35365 20508
L35140 20508
" />
<path d="M35252 20508
L35252 20115
L35215 20171
L35177 20208
L35140 20227
" />
<path d="M35609 20115
L35646 20115
L35684 20133
L35702 20152
L35721 20190
L35740 20265
L35740 20358
L35721 20433
L35702 20471
L35684 20490
L35646 20508
L35609 20508
L35571 20490
L35552 20471
L35534 20433
L35515 20358
L35515 20265
L35534 20190
L35552 20152
L35571 20133
L35609 20115
" />
<path d="M33723 19989
L33723 19595
" />
<path d="M33948 19989
L33779 19764
" />
<path d="M33948 19595
L33723 19820
" />
<path d="M36700 12546
L36700 12152
L36850 12152
L36888 12171
L36907 12190
L36925 12227
L36925 12283
L36907 12321
L36888 12339
L36850 12358
L36700 12358
" />
<path d="M37263 12283
L37263 12546
" />
<path d="M37169 12133
L37075 12414
L37319 12414
" />
<path d="M21547 6477
L21360 6608
" />
<path d="M21547 6702
L21153 6702
L21153 6552
L21172 6514
L21191 6495
L21228 6477
L21285 6477
L21322 6495
L21341 6514
L21360 6552
L21360 6702
" />
<path d="M21547 6102
L21547 6327
" />
<path d="M21547 6214
L21153 6214
L21210 6252
L21247 6289
L21266 6327
" />
<path d="M21153 5745
L21153 5933
L21341 5952
L21322 5933
L21303 5895
L21303 5802
L21322 5764
L21341 5745
L21378 5727
L21472 5727
L21510 5745
L21528 5764
L21547 5802
L21547 5895
L21528 5933
L21510 5952
" />
<path d="M28547 6477
L28360 6608
" />
<path d="M28547 6702
L28153 6702
L28153 6552
L28172 6514
L28191 6495
L28228 6477
L28285 6477
L28322 6495
L28341 6514
L28360 6552
L28360 6702
" />
<path d="M28547 6102
L28547 6327
" />
<path d="M28547 6214
L28153 6214
L28210 6252
L28247 6289
L28266 6327
" />
<path d="M28153 5764
L28153 5839
L28172 5877
L28191 5895
L28247 5933
L28322 5952
L28472 5952
L28510 5933
L28528 5914
L28547 5877
L28547 5802
L28528 5764
L28510 5745
L28472 5727
L28378 5727
L28341 5745
L28322 5764
L28303 5802
L28303 5877
L28322 5914
L28341 5933
L28378 5952
" />
<path d="M30047 6477
L29860 6608
" />
<path d="M30047 6702
L29653 6702
L29653 6552
L29672 6514
L29691 6495
L29728 6477
L29785 6477
L29822 6495
L29841 6514
L29860 6552
L29860 6702
" />
<path d="M30047 6102
L30047 6327
" />
<path d="M30047 6214
L29653 6214
L29710 6252
L29747 6289
L29766 6327
" />
<path d="M29653 5970
L29653 5708
L30047 5877
" />
<path d="M24791 19593
L24604 19724
" />
<path d="M24791 19818
L24397 19818
L24397 19668
L24416 19631
L24435 19612
L24472 19593
L24529 19593
L24566 19612
L24585 19631
L24604 19668
L24604 19818
" />
<path d="M24397 19256
L24397 19331
L24416 19368
L24435 19387
L24491 19424
L24566 19443
L24716 19443
L24754 19424
L24772 19406
L24791 19368
L24791 19293
L24772 19256
L24754 19237
L24716 19218
L24622 19218
L24585 19237
L24566 19256
L24547 19293
L24547 19368
L24566 19406
L24585 19424
L24622 19443
" />
<path d="M18791 19593
L18604 19724
" />
<path d="M18791 19818
L18397 19818
L18397 19668
L18416 19631
L18435 19612
L18472 19593
L18529 19593
L18566 19612
L18585 19631
L18604 19668
L18604 19818
" />
<path d="M18397 19462
L18397 19199
L18791 19368
" />
<path d="M12791 19593
L12604 19724
" />
<path d="M12791 19818
L12397 19818
L12397 19668
L12416 19631
L12435 19612
L12472 19593
L12529 19593
L12566 19612
L12585 19631
L12604 19668
L12604 19818
" />
<path d="M12566 19368
L12547 19406
L12529 19424
L12491 19443
L12472 19443
L12435 19424
L12416 19406
L12397 19368
L12397 19293
L12416 19256
L12435 19237
L12472 19218
L12491 19218
L12529 19237
L12547 19256
L12566 19293
L12566 19368
L12585 19406
L12604 19424
L12641 19443
L12716 19443
L12754 19424
L12772 19406
L12791 19368
L12791 19293
L12772 19256
L12754 19237
L12716 19218
L12641 19218
L12604 19237
L12585 19256
L12566 19293
" />
<path d="M26523 24426
L26392 24238
" />
<path d="M26298 24426
L26298 24032
L26448 24032
L26486 24051
L26505 24069
L26523 24107
L26523 24163
L26505 24201
L26486 24219
L26448 24238
L26298 24238
" />
<path d="M26711 24426
L26786 24426
L26823 24407
L26842 24388
L26880 24332
L26898 24257
L26898 24107
L26880 24069
L26861 24051
L26823 24032
L26748 24032
L26711 24051
L26692 24069
L26673 24107
L26673 24201
L26692 24238
L26711 24257
L26748 24276
L26823 24276
L26861 24257
L26880 24238
L26898 24201
" />
<path d="M21836 26926
L21705 26738
" />
<path d="M21611 26926
L21611 26532
L21761 26532
L21798 26551
L21817 26569
L21836 26607
L21836 26663
L21817 26701
L21798 26719
L21761 26738
L21611 26738
" />
<path d="M22211 26926
L21986 26926
" />
<path d="M22098 26926
L22098 26532
L22061 26588
L22023 26626
L21986 26644
" />
<path d="M22455 26532
L22492 26532
L22530 26551
L22548 26569
L22567 26607
L22586 26682
L22586 26776
L22567 26851
L22548 26888
L22530 26907
L22492 26926
L22455 26926
L22417 26907
L22398 26888
L22380 26851
L22361 26776
L22361 26682
L22380 26607
L22398 26569
L22417 26551
L22455 26532
" />
<path d="M16336 26926
L16205 26738
" />
<path d="M16111 26926
L16111 26532
L16261 26532
L16298 26551
L16317 26569
L16336 26607
L16336 26663
L16317 26701
L16298 26719
L16261 26738
L16111 26738
" />
<path d="M16711 26926
L16486 26926
" />
<path d="M16598 26926
L16598 26532
L16561 26588
L16523 26626
L16486 26644
" />
<path d="M17086 26926
L16861 26926
" />
<path d="M16973 26926
L16973 26532
L16936 26588
L16898 26626
L16861 26644
" />
<path d="M9797 16789
L9610 16920
" />
<path d="M9797 17014
L9403 17014
L9403 16864
L9422 16827
L9441 16808
L9478 16789
L9535 16789
L9572 16808
L9591 16827
L9610 16864
L9610 17014
" />
<path d="M9797 16414
L9797 16639
" />
<path d="M9797 16527
L9403 16527
L9460 16564
L9497 16602
L9516 16639
" />
<path d="M14020 14816
L13832 14947
" />
<path d="M14020 15041
L13626 15041
L13626 14891
L13645 14853
L13663 14834
L13701 14816
L13757 14816
L13795 14834
L13813 14853
L13832 14891
L13832 15041
" />
<path d="M13663 14666
L13645 14647
L13626 14609
L13626 14516
L13645 14478
L13663 14459
L13701 14441
L13738 14441
L13795 14459
L14020 14684
L14020 14441
" />
<path d="M13626 14309
L13626 14047
L14020 14216
" />
<path d="M15336 8889
L15336 9362
" />
<path d="M14647 9362
L14647 8889
" />
<circle cx="38357.7" cy="24744.1" r="1802.78" /> 
<path d="M35857 22244
L40857 22244
" />
<path d="M40857 22244
L40857 27244
" />
<path d="M40857 27244
L35857 27244
" />
<path d="M35857 27244
L35857 22244
" />
<path d="M29794 24240
L32156 24240
" />
<path d="M32156 26011
L29794 26011
" />
<path d="M20794 25240
L23156 25240
" />
<path d="M23156 27011
L20794 27011
" />
<path d="M16294 25240
L18656 25240
" />
<path d="M18656 27011
L16294 27011
" />
<path d="M9992 15625
L9992 16025
" />
<path d="M9992 13725
L9992 13225
" />
<path d="M10492 13825
L9492 13825
" />
<path d="M10492 13925
L9492 13925
" />
<path d="M10492 14025
L9492 14025
" />
<path d="M10492 13725
L9492 13725
" />
<path d="M10492 14125
L9492 13625
" />
<path d="M10492 13625
L9492 14125
" />
<path d="M10492 14125
L9492 14125
" />
<path d="M10492 13875
L9492 13875
" />
<path d="M9492 13625
L10492 13625
" />
<path d="M10492 13625
L10492 15625
" />
<path d="M10492 15625
L9492 15625
" />
<path d="M9492 15625
L9492 13625
" />
<path d="M9992 20625
L9992 21025
" />
<path d="M9992 18725
L9992 18225
" />
<path d="M10492 18825
L9492 18825
" />
<path d="M10492 18925
L9492 18925
" />
<path d="M10492 19025
L9492 19025
" />
<path d="M10492 18725
L9492 18725
" />
<path d="M10492 19125
L9492 18625
" />
<path d="M10492 18625
L9492 19125
" />
<path d="M10492 19125
L9492 19125
" />
<path d="M10492 18875
L9492 18875
" />
<path d="M9492 18625
L10492 18625
" />
<path d="M10492 18625
L10492 20625
" />
<path d="M10492 20625
L9492 20625
" />
<path d="M9492 20625
L9492 18625
" />
<path d="M11492 15625
L11492 16025
" />
<path d="M11492 13725
L11492 13225
" />
<path d="M11992 13825
L10992 13825
" />
<path d="M11992 13925
L10992 13925
" />
<path d="M11992 14025
L10992 14025
" />
<path d="M11992 13725
L10992 13725
" />
<path d="M11992 14125
L10992 13625
" />
<path d="M11992 13625
L10992 14125
" />
<path d="M11992 14125
L10992 14125
" />
<path d="M11992 13875
L10992 13875
" />
<path d="M10992 13625
L11992 13625
" />
<path d="M11992 13625
L11992 15625
" />
<path d="M11992 15625
L10992 15625
" />
<path d="M10992 15625
L10992 13625
" />
<path d="M11492 20625
L11492 21025
" />
<path d="M11492 18725
L11492 18225
" />
<path d="M11992 18825
L10992 18825
" />
<path d="M11992 18925
L10992 18925
" />
<path d="M11992 19025
L10992 19025
" />
<path d="M11992 18725
L10992 18725
" />
<path d="M11992 19125
L10992 18625
" />
<path d="M11992 18625
L10992 19125
" />
<path d="M11992 19125
L10992 19125
" />
<path d="M11992 18875
L10992 18875
" />
<path d="M10992 18625
L11992 18625
" />
<path d="M11992 18625
L11992 20625
" />
<path d="M11992 20625
L10992 20625
" />
<path d="M10992 20625
L10992 18625
" />
<path d="M12992 18026
L12992 18576
" />
<path d="M12992 16276
L12992 15676
" />
<path d="M13292 16426
L12692 16426
" />
<path d="M13292 16326
L12692 16326
" />
<path d="M12992 16226
L12692 16226
" />
<path d="M12692 16226
L12692 18026
" />
<path d="M12692 18026
L13292 18026
" />
<path d="M13292 18026
L13292 16226
" />
<path d="M13292 16226
L12992 16226
" />
<circle cx="10798.6" cy="8996.06" r="1802.78" /> 
<path d="M8298 6496
L13298 6496
" />
<path d="M13298 6496
L13298 11496
" />
<path d="M13298 11496
L8298 11496
" />
<path d="M8298 11496
L8298 6496
" />
<circle cx="10798.6" cy="24744.1" r="1802.78" /> 
<path d="M8298 22244
L13298 22244
" />
<path d="M13298 22244
L13298 27244
" />
<path d="M13298 27244
L8298 27244
" />
<path d="M8298 27244
L8298 22244
" />
<circle cx="38357.7" cy="8996.06" r="1802.78" /> 
<path d="M35857 6496
L40857 6496
" />
<path d="M40857 6496
L40857 11496
" />
<path d="M40857 11496
L35857 11496
" />
<path d="M35857 11496
L35857 6496
" />
<path d="M27660 22956
L26322 22956
" />
<path d="M26991.6 24570.9 A944.882 944.882 0.0 0 0 27659.7 22957.9 " />
<path d="M26323.4 22957.9 A944.882 944.882 0.0 0 0 26991.6 24570.9 " />
<path d="M23160 22956
L21822 22956
" />
<path d="M22491.6 24570.9 A944.882 944.882 0.0 0 0 23159.7 22957.9 " />
<path d="M21823.4 22957.9 A944.882 944.882 0.0 0 0 22491.6 24570.9 " />
<path d="M18660 22956
L17322 22956
" />
<path d="M17991.6 24570.9 A944.882 944.882 0.0 0 0 18659.7 22957.9 " />
<path d="M17323.4 22957.9 A944.882 944.882 0.0 0 0 17991.6 24570.9 " />
<path d="M17215 9074
L31979 9074
" />
<path d="M31979 9074
L31979 16555
" />
<path d="M31979 16555
L17215 16555
" />
<path d="M17215 16555
L17215 9074
" />
<path d="M42597 21775
L42755 21696
" />
<path d="M42755 21696
L42991 21656
" />
<path d="M42991 21656
L43188 21696
" />
<path d="M43188 21696
L43463 21853
" />
<path d="M43463 21853
L43621 22090
" />
<path d="M43621 22090
L43700 22326
" />
<path d="M43700 22326
L43700 24924
" />
<path d="M43700 24924
L43621 25200
" />
<path d="M43621 25200
L43503 25357
" />
<path d="M43503 25357
L43306 25515
" />
<path d="M43306 25515
L43070 25594
" />
<path d="M43070 25594
L42873 25594
" />
<path d="M42873 25594
L42676 25515
" />
<path d="M42676 25515
L42440 25318
" />
<path d="M42440 25318
L42322 25121
" />
<path d="M42322 25121
L42282 24924
" />
<path d="M42282 24885
L42282 22286
" />
<path d="M42282 22286
L42322 22129
" />
<path d="M42322 22129
L42440 21932
" />
<path d="M42440 21932
L42637 21735
" />
<path d="M42074 24881
L42093 25062
" />
<path d="M42093 25062
L42137 25219
" />
<path d="M42137 25219
L42223 25389
" />
<path d="M42223 25389
L42314 25503
" />
<path d="M42314 25503
L42452 25633
" />
<path d="M42452 25633
L42664 25747
" />
<path d="M42664 25747
L42900 25798
" />
<path d="M42900 25798
L43101 25798
" />
<path d="M43101 25798
L43377 25731
" />
<path d="M43377 25731
L43609 25574
" />
<path d="M43609 25574
L43755 25393
" />
<path d="M43755 25393
L43837 25227
" />
<path d="M43837 25227
L43900 25050
" />
<path d="M43900 25050
L43912 24877
" />
<path d="M43826 21987
L43739 21838
" />
<path d="M43739 21838
L43629 21712
" />
<path d="M43629 21712
L43499 21613
" />
<path d="M43499 21613
L43282 21495
" />
<path d="M43282 21495
L43097 21452
" />
<path d="M43097 21452
L42916 21444
" />
<path d="M42916 21444
L42735 21479
" />
<path d="M42735 21479
L42558 21554
" />
<path d="M42558 21554
L42373 21696
" />
<path d="M42373 21696
L42247 21834
" />
<path d="M42247 21834
L42156 21987
" />
<path d="M42156 21987
L42101 22156
" />
<path d="M42101 22156
L42074 22330
" />
<path d="M43908 24885
L43908 22345
" />
<path d="M43908 22345
L43893 22180
" />
<path d="M43893 22180
L43826 21987
" />
<path d="M42074 24885
L42074 22345
" />
<path d="M38255 11781
L38727 11781
" />
<path d="M38727 12470
L38255 12470
" />
<path d="M28755 17031
L29227 17031
" />
<path d="M29227 17720
L28755 17720
" />
<path d="M22505 17031
L22977 17031
" />
<path d="M22977 17720
L22505 17720
" />
<path d="M16505 17031
L16977 17031
" />
<path d="M16977 17720
L16505 17720
" />
<path d="M23897 5362
L23897 4889
" />
<path d="M24586 4889
L24586 5362
" />
<path d="M30977 6220
L30505 6220
" />
<path d="M30505 5531
L30977 5531
" />
<path d="M40977 11470
L40505 11470
" />
<path d="M40505 10781
L40977 10781
" />
<path d="M40977 12470
L40505 12470
" />
<path d="M40505 11781
L40977 11781
" />
<path d="M14647 24862
L14647 24389
" />
<path d="M15336 24389
L15336 24862
" />
<path d="M34836 8889
L34836 9362
" />
<path d="M34147 9362
L34147 8889
" />
<path d="M34336 24389
L34336 24862
" />
<path d="M33647 24862
L33647 24389
" />
<path d="M26082 5105
L26082 5381
" />
<path d="M26082 5381
L25984 5381
" />
<path d="M24980 5381
L24901 5381
" />
<path d="M24901 5381
L24901 5105
" />
<path d="M30721 3785
L30997 3785
" />
<path d="M30997 3785
L30997 3883
" />
<path d="M30997 4887
L30997 4966
" />
<path d="M30997 4966
L30721 4966
" />
<path d="M30895 18679
L30395 18679
" />
<path d="M30895 21572
L30395 21572
" />
<path d="M27088 21572
L27588 21572
" />
<path d="M27088 18679
L27588 18679
" />
<path d="M30895 18679
L30895 21572
" />
<path d="M27088 18679
L27088 21572
" />
<path d="M30395 18679
L30395 18173
" />
<path d="M24895 18679
L24395 18679
" />
<path d="M24895 21572
L24395 21572
" />
<path d="M21088 21572
L21588 21572
" />
<path d="M21088 18679
L21588 18679
" />
<path d="M24895 18679
L24895 21572
" />
<path d="M21088 18679
L21088 21572
" />
<path d="M24395 18679
L24395 18173
" />
<path d="M18895 18679
L18395 18679
" />
<path d="M18895 21572
L18395 21572
" />
<path d="M15088 21572
L15588 21572
" />
<path d="M15088 18679
L15588 18679
" />
<path d="M18895 18679
L18895 21572
" />
<path d="M15088 18679
L15088 21572
" />
<path d="M18395 18679
L18395 18173
" />
<path d="M38783 21527
L38933 21527
" />
<path d="M38383 21527
L38533 21527
" />
<path d="M38533 21527
L38783 21377
" />
<path d="M38783 21377
L38783 21677
" />
<path d="M38783 21677
L38533 21527
" />
<path d="M38533 21327
L38533 21727
" />
<path d="M37871 21881
L39265 21881
" />
<path d="M37871 21173
L39265 21173
" />
<path d="M40616 13125
L40466 13125
" />
<path d="M41016 13125
L40866 13125
" />
<path d="M40866 13125
L40616 13275
" />
<path d="M40616 13275
L40616 12975
" />
<path d="M40616 12975
L40866 13125
" />
<path d="M40866 13325
L40866 12925
" />
<path d="M41528 12771
L40135 12771
" />
<path d="M41528 13480
L40135 13480
" />
<path d="M34413 14643
L34413 14564
" />
<path d="M34413 13622
L34413 13692
" />
<path d="M35684 13744.2 A786.653 786.653 0.0 0 0 34413.2 13619.7 " />
<path d="M35417.9 13693.3 A608.718 608.718 0.0 0 0 34590 13692.9 " />
<path d="M34418.2 14653.8 A782.385 782.385 0.0 0 0 35692.7 14517.3 " />
<path d="M34604.6 14564.3 A582.991 582.991 0.0 0 0 35410.9 14556.7 " />
<path d="M34413 17143
L34413 17064
" />
<path d="M34413 16122
L34413 16192
" />
<path d="M35684 16244.2 A786.653 786.653 0.0 0 0 34413.2 16119.7 " />
<path d="M35417.9 16193.3 A608.718 608.718 0.0 0 0 34590 16192.9 " />
<path d="M34418.2 17153.8 A782.385 782.385 0.0 0 0 35692.7 17017.3 " />
<path d="M34604.6 17064.3 A582.991 582.991 0.0 0 0 35410.9 17056.7 " />
<path d="M34413 19643
L34413 19564
" />
<path d="M34413 18622
L34413 18692
" />
<path d="M35684 18744.2 A786.653 786.653 0.0 0 0 34413.2 18619.7 " />
<path d="M35417.9 18693.3 A608.718 608.718 0.0 0 0 34590 18692.9 " />
<path d="M34418.2 19653.8 A782.385 782.385 0.0 0 0 35692.7 19517.3 " />
<path d="M34604.6 19564.3 A582.991 582.991 0.0 0 0 35410.9 19556.7 " />
<path d="M36381 14375
L36381 13765
" />
<path d="M36381 13765
L37601 13765
" />
<path d="M37601 13765
L37601 14375
" />
<path d="M37491 14875
L37491 18875
" />
<path d="M37491 18875
L36491 18875
" />
<path d="M36491 18875
L36491 14875
" />
<path d="M37491 14875
L36491 14875
" />
<path d="M20491 5125
L20491 7125
" />
<path d="M20491 7125
L19491 7125
" />
<path d="M19491 7125
L19491 5125
" />
<path d="M19491 5125
L20491 5125
" />
<path d="M19991 5125
L19991 4625
" />
<path d="M19991 7125
L19991 7625
" />
<path d="M27491 5125
L27491 7125
" />
<path d="M27491 7125
L26491 7125
" />
<path d="M26491 7125
L26491 5125
" />
<path d="M26491 5125
L27491 5125
" />
<path d="M26991 5125
L26991 4625
" />
<path d="M26991 7125
L26991 7625
" />
<path d="M28991 5125
L28991 7125
" />
<path d="M28991 7125
L27991 7125
" />
<path d="M27991 7125
L27991 5125
" />
<path d="M27991 5125
L28991 5125
" />
<path d="M28491 5125
L28491 4625
" />
<path d="M28491 7125
L28491 7625
" />
<path d="M25491 20625
L25491 18625
" />
<path d="M25491 18625
L26491 18625
" />
<path d="M26491 18625
L26491 20625
" />
<path d="M26491 20625
L25491 20625
" />
<path d="M25991 20625
L25991 21125
" />
<path d="M25991 18625
L25991 18125
" />
<path d="M19491 20625
L19491 18625
" />
<path d="M19491 18625
L20491 18625
" />
<path d="M20491 18625
L20491 20625
" />
<path d="M20491 20625
L19491 20625
" />
<path d="M19991 20625
L19991 21125
" />
<path d="M19991 18625
L19991 18125
" />
<path d="M13491 20625
L13491 18625
" />
<path d="M13491 18625
L14491 18625
" />
<path d="M14491 18625
L14491 20625
" />
<path d="M14491 20625
L13491 20625
" />
<path d="M13991 20625
L13991 21125
" />
<path d="M13991 18625
L13991 18125
" />
<path d="M25491 25125
L27491 25125
" />
<path d="M27491 25125
L27491 26125
" />
<path d="M27491 26125
L25491 26125
" />
<path d="M25491 26125
L25491 25125
" />
<path d="M25491 25625
L24991 25625
" />
<path d="M27491 25625
L27991 25625
" />
<path d="M20991 27625
L22991 27625
" />
<path d="M22991 27625
L22991 28625
" />
<path d="M22991 28625
L20991 28625
" />
<path d="M20991 28625
L20991 27625
" />
<path d="M20991 28125
L20491 28125
" />
<path d="M22991 28125
L23491 28125
" />
<path d="M15491 27625
L17491 27625
" />
<path d="M17491 27625
L17491 28625
" />
<path d="M17491 28625
L15491 28625
" />
<path d="M15491 28625
L15491 27625
" />
<path d="M15491 28125
L14991 28125
" />
<path d="M17491 28125
L17991 28125
" />
<path d="M8741 15625
L8741 17625
" />
<path d="M8741 17625
L7741 17625
" />
<path d="M7741 17625
L7741 15625
" />
<path d="M7741 15625
L8741 15625
" />
<path d="M8241 15625
L8241 15125
" />
<path d="M8241 17625
L8241 18125
" />
<path d="M15013 14326
L15013 14799
" />
<path d="M14324 14799
L14324 14326
" />
</g>
<g style="fill:#000000; fill-opacity:0.0; 
stroke:#000000; stroke-width:680; stroke-opacity:1; 
stroke-linecap:round; stroke-linejoin:round;">
<path d="M40597 23744
L41117 23744
" />
<path d="M40597 25744
L41117 25744
" />
<path d="M35597 23744
L36117 23744
" />
<path d="M35597 25744
L36117 25744
" />
</g>
<g style="fill:#000000; fill-opacity:0.0; 
stroke:#000000; stroke-width:0; stroke-opacity:1; 
stroke-linecap:round; stroke-linejoin:round;">
</g>
<g style="fill:#000000; fill-opacity:1.0; 
stroke:#000000; stroke-width:0; stroke-opacity:1; 
stroke-linecap:round; stroke-linejoin:round;">
<polyline style="fill-rule:evenodd;"
points="29715,25401
29715,24850
30267,24850
30267,25401
29715,25401
" /> 
<circle cx="31960.1" cy="25126" r="275.591" /> 
</g>
<g style="fill:#000000; fill-opacity:1.0; 
stroke:#000000; stroke-width:39.3701; stroke-opacity:1; 
stroke-linecap:round; stroke-linejoin:round;">
</g>
<g style="fill:#000000; fill-opacity:1.0; 
stroke:#000000; stroke-width:0; stroke-opacity:1; 
stroke-linecap:round; stroke-linejoin:round;">
<polyline style="fill-rule:evenodd;"
points="20715,26401
20715,25850
21267,25850
21267,26401
20715,26401
" /> 
<circle cx="22960.1" cy="26126" r="275.591" /> 
</g>
<g style="fill:#000000; fill-opacity:1.0; 
stroke:#000000; stroke-width:39.3701; stroke-opacity:1; 
stroke-linecap:round; stroke-linejoin:round;">
</g>
<g style="fill:#000000; fill-opacity:1.0; 
stroke:#000000; stroke-width:0; stroke-opacity:1; 
stroke-linecap:round; stroke-linejoin:round;">
<polyline style="fill-rule:evenodd;"
points="16215,26401
16215,25850
16767,25850
16767,26401
16215,26401
" /> 
<circle cx="18460.1" cy="26126" r="275.591" /> 
</g>
<g style="fill:#000000; fill-opacity:1.0; 
stroke:#000000; stroke-width:39.3701; stroke-opacity:1; 
stroke-linecap:round; stroke-linejoin:round;">
</g>
<g style="fill:#000000; fill-opacity:1.0; 
stroke:#000000; stroke-width:0; stroke-opacity:1; 
stroke-linecap:round; stroke-linejoin:round;">
<circle cx="9992.56" cy="16626" r="393.5" /> 
</g>
<g style="fill:#000000; fill-opacity:1.0; 
stroke:#000000; stroke-width:39.3701; stroke-opacity:1; 
stroke-linecap:round; stroke-linejoin:round;">
</g>
<g style="fill:#000000; fill-opacity:1.0; 
stroke:#000000; stroke-width:0; stroke-opacity:1; 
stroke-linecap:round; stroke-linejoin:round;">
<polyline style="fill-rule:evenodd;"
points="10386,13019
9599,13019
9599,12232
10386,12232
10386,13019
" /> 
<circle cx="9992.56" cy="21626" r="393.5" /> 
</g>
<g style="fill:#000000; fill-opacity:1.0; 
stroke:#000000; stroke-width:39.3701; stroke-opacity:1; 
stroke-linecap:round; stroke-linejoin:round;">
</g>
<g style="fill:#000000; fill-opacity:1.0; 
stroke:#000000; stroke-width:0; stroke-opacity:1; 
stroke-linecap:round; stroke-linejoin:round;">
<polyline style="fill-rule:evenodd;"
points="10386,18019
9599,18019
9599,17232
10386,17232
10386,18019
" /> 
<circle cx="11492.6" cy="16626" r="393.5" /> 
</g>
<g style="fill:#000000; fill-opacity:1.0; 
stroke:#000000; stroke-width:39.3701; stroke-opacity:1; 
stroke-linecap:round; stroke-linejoin:round;">
</g>
<g style="fill:#000000; fill-opacity:1.0; 
stroke:#000000; stroke-width:0; stroke-opacity:1; 
stroke-linecap:round; stroke-linejoin:round;">
<polyline style="fill-rule:evenodd;"
points="11886,13019
11099,13019
11099,12232
11886,12232
11886,13019
" /> 
<circle cx="11492.6" cy="21626" r="393.5" /> 
</g>
<g style="fill:#000000; fill-opacity:1.0; 
stroke:#000000; stroke-width:39.3701; stroke-opacity:1; 
stroke-linecap:round; stroke-linejoin:round;">
</g>
<g style="fill:#000000; fill-opacity:1.0; 
stroke:#000000; stroke-width:0; stroke-opacity:1; 
stroke-linecap:round; stroke-linejoin:round;">
<polyline style="fill-rule:evenodd;"
points="11886,18019
11099,18019
11099,17232
11886,17232
11886,18019
" /> 
<circle cx="12992.6" cy="19126.2" r="334.5" /> 
</g>
<g style="fill:#000000; fill-opacity:1.0; 
stroke:#000000; stroke-width:39.3701; stroke-opacity:1; 
stroke-linecap:round; stroke-linejoin:round;">
</g>
<g style="fill:#000000; fill-opacity:1.0; 
stroke:#000000; stroke-width:0; stroke-opacity:1; 
stroke-linecap:round; stroke-linejoin:round;">
<polyline style="fill-rule:evenodd;"
points="13327,15460
12658,15460
12658,14791
13327,14791
13327,15460
" /> 
</g>
<g style="fill:#000000; fill-opacity:1.0; 
stroke:#000000; stroke-width:680; stroke-opacity:1; 
stroke-linecap:round; stroke-linejoin:round;">
</g>
<g style="fill:#000000; fill-opacity:0.0; 
stroke:#000000; stroke-width:680; stroke-opacity:1; 
stroke-linecap:round; stroke-linejoin:round;">
<path d="M13038 7996
L13558 7996
" />
<path d="M13038 9996
L13558 9996
" />
<path d="M8038 7996
L8558 7996
" />
<path d="M8038 9996
L8558 9996
" />
<path d="M13038 23744
L13558 23744
" />
<path d="M13038 25744
L13558 25744
" />
<path d="M8038 23744
L8558 23744
" />
<path d="M8038 25744
L8558 25744
" />
<path d="M40597 7996
L41117 7996
" />
<path d="M40597 9996
L41117 9996
" />
<path d="M35597 7996
L36117 7996
" />
<path d="M35597 9996
L36117 9996
" />
</g>
<g style="fill:#000000; fill-opacity:0.0; 
stroke:#000000; stroke-width:354; stroke-opacity:1; 
stroke-linecap:round; stroke-linejoin:round;">
<path d="M26991 23507
L26991 23744
" />
<path d="M26491 23507
L26491 23744
" />
<path d="M27491 23507
L27491 23744
" />
<path d="M22491 23507
L22491 23744
" />
<path d="M21991 23507
L21991 23744
" />
<path d="M22991 23507
L22991 23744
" />
<path d="M17991 23507
L17991 23744
" />
<path d="M17491 23507
L17491 23744
" />
<path d="M18491 23507
L18491 23744
" />
</g>
<g style="fill:#000000; fill-opacity:0.0; 
stroke:#000000; stroke-width:590.551; stroke-opacity:1; 
stroke-linecap:round; stroke-linejoin:round;">
<path d="M18097 16110
L18097 15519
" />
<path d="M19097 16110
L19097 15519
" />
<path d="M20097 16110
L20097 15519
" />
<path d="M21097 16110
L21097 15519
" />
<path d="M22097 16110
L22097 15519
" />
<path d="M23097 16110
L23097 15519
" />
<path d="M24097 16110
L24097 15519
" />
<path d="M25097 16110
L25097 15519
" />
<path d="M26097 16110
L26097 15519
" />
<path d="M27097 16110
L27097 15519
" />
<path d="M28097 16110
L28097 15519
" />
<path d="M29097 16110
L29097 15519
" />
<path d="M30097 16110
L30097 15519
" />
<path d="M31097 16110
L31097 15519
" />
<path d="M31097 10110
L31097 9519
" />
<path d="M30097 10110
L30097 9519
" />
<path d="M29097 10110
L29097 9519
" />
<path d="M28097 10110
L28097 9519
" />
<path d="M27097 10110
L27097 9519
" />
<path d="M26097 10110
L26097 9519
" />
<path d="M25097 10110
L25097 9519
" />
<path d="M24097 10110
L24097 9519
" />
<path d="M23097 10110
L23097 9519
" />
<path d="M22097 10110
L22097 9519
" />
<path d="M21097 10110
L21097 9519
" />
<path d="M20097 10110
L20097 9519
" />
<path d="M19097 10110
L19097 9519
" />
<path d="M18097 10110
L18097 9519
" />
</g>
<g style="fill:#000000; fill-opacity:1.0; 
stroke:#000000; stroke-width:0; stroke-opacity:1; 
stroke-linecap:round; stroke-linejoin:round;">
<circle cx="42991.6" cy="24587" r="295.5" /> 
</g>
<g style="fill:#000000; fill-opacity:1.0; 
stroke:#000000; stroke-width:39.3701; stroke-opacity:1; 
stroke-linecap:round; stroke-linejoin:round;">
</g>
<g style="fill:#000000; fill-opacity:1.0; 
stroke:#000000; stroke-width:0; stroke-opacity:1; 
stroke-linecap:round; stroke-linejoin:round;">
<circle cx="42991.6" cy="22665" r="295.5" /> 
</g>
<g style="fill:#000000; fill-opacity:1.0; 
stroke:#000000; stroke-width:39.3701; stroke-opacity:1; 
stroke-linecap:round; stroke-linejoin:round;">
</g>
<g style="fill:#000000; fill-opacity:1.0; 
stroke:#000000; stroke-width:629.921; stroke-opacity:1; 
stroke-linecap:round; stroke-linejoin:round;">
</g>
<g style="fill:#000000; fill-opacity:0.0; 
stroke:#000000; stroke-width:629.921; stroke-opacity:1; 
stroke-linecap:round; stroke-linejoin:round;">
<path d="M29991 18488
L29991 18763
" />
<path d="M28991 18488
L28991 18763
" />
<path d="M27991 18488
L27991 18763
" />
<path d="M27991 21488
L27991 21763
" />
<path d="M28991 21488
L28991 21763
" />
<path d="M29991 21488
L29991 21763
" />
<path d="M23991 18488
L23991 18763
" />
<path d="M22991 18488
L22991 18763
" />
<path d="M21991 18488
L21991 18763
" />
<path d="M21991 21488
L21991 21763
" />
<path d="M22991 21488
L22991 21763
" />
<path d="M23991 21488
L23991 21763
" />
<path d="M17991 18488
L17991 18763
" />
<path d="M16991 18488
L16991 18763
" />
<path d="M15991 18488
L15991 18763
" />
<path d="M15991 21488
L15991 21763
" />
<path d="M16991 21488
L16991 21763
" />
<path d="M17991 21488
L17991 21763
" />
</g>
<g style="fill:#000000; fill-opacity:0.0; 
stroke:#000000; stroke-width:0; stroke-opacity:1; 
stroke-linecap:round; stroke-linejoin:round;">
</g>
<g style="fill:#000000; fill-opacity:1.0; 
stroke:#000000; stroke-width:0; stroke-opacity:1; 
stroke-linecap:round; stroke-linejoin:round;">
<polyline style="fill-rule:evenodd;"
points="34885,14519
34097,14519
34097,13732
34885,13732
34885,14519
" /> 
<circle cx="35491.6" cy="14126" r="393.701" /> 
</g>
<g style="fill:#000000; fill-opacity:1.0; 
stroke:#000000; stroke-width:39.3701; stroke-opacity:1; 
stroke-linecap:round; stroke-linejoin:round;">
</g>
<g style="fill:#000000; fill-opacity:1.0; 
stroke:#000000; stroke-width:0; stroke-opacity:1; 
stroke-linecap:round; stroke-linejoin:round;">
<polyline style="fill-rule:evenodd;"
points="34885,17019
34097,17019
34097,16232
34885,16232
34885,17019
" /> 
<circle cx="35491.6" cy="16626" r="393.701" /> 
</g>
<g style="fill:#000000; fill-opacity:1.0; 
stroke:#000000; stroke-width:39.3701; stroke-opacity:1; 
stroke-linecap:round; stroke-linejoin:round;">
</g>
<g style="fill:#000000; fill-opacity:1.0; 
stroke:#000000; stroke-width:0; stroke-opacity:1; 
stroke-linecap:round; stroke-linejoin:round;">
<polyline style="fill-rule:evenodd;"
points="34885,19519
34097,19519
34097,18732
34885,18732
34885,19519
" /> 
<circle cx="35491.6" cy="19126" r="393.701" /> 
</g>
<g style="fill:#000000; fill-opacity:1.0; 
stroke:#000000; stroke-width:39.3701; stroke-opacity:1; 
stroke-linecap:round; stroke-linejoin:round;">
</g>
<g style="fill:#000000; fill-opacity:1.0; 
stroke:#000000; stroke-width:0; stroke-opacity:1; 
stroke-linecap:round; stroke-linejoin:round;">
<polyline style="fill-rule:evenodd;"
points="36591,14715
36591,14035
37391,14035
37391,14715
36591,14715
" /> 
</g>
<g style="fill:#000000; fill-opacity:1.0; 
stroke:#000000; stroke-width:680; stroke-opacity:1; 
stroke-linecap:round; stroke-linejoin:round;">
</g>
<g style="fill:#000000; fill-opacity:0.0; 
stroke:#000000; stroke-width:680; stroke-opacity:1; 
stroke-linecap:round; stroke-linejoin:round;">
<path d="M36931 15375
L37051 15375
" />
<path d="M36931 16375
L37051 16375
" />
<path d="M36931 17375
L37051 17375
" />
<path d="M36931 18375
L37051 18375
" />
</g>
<g style="fill:#000000; fill-opacity:1.0; 
stroke:#000000; stroke-width:0; stroke-opacity:1; 
stroke-linecap:round; stroke-linejoin:round;">
<circle cx="19991.6" cy="4125.98" r="393.5" /> 
</g>
<g style="fill:#000000; fill-opacity:1.0; 
stroke:#000000; stroke-width:39.3701; stroke-opacity:1; 
stroke-linecap:round; stroke-linejoin:round;">
</g>
<g style="fill:#000000; fill-opacity:1.0; 
stroke:#000000; stroke-width:0; stroke-opacity:1; 
stroke-linecap:round; stroke-linejoin:round;">
<circle cx="19991.6" cy="8125.98" r="393.5" /> 
</g>
<g style="fill:#000000; fill-opacity:1.0; 
stroke:#000000; stroke-width:39.3701; stroke-opacity:1; 
stroke-linecap:round; stroke-linejoin:round;">
</g>
<g style="fill:#000000; fill-opacity:1.0; 
stroke:#000000; stroke-width:0; stroke-opacity:1; 
stroke-linecap:round; stroke-linejoin:round;">
<circle cx="26991.6" cy="4125.98" r="393.5" /> 
</g>
<g style="fill:#000000; fill-opacity:1.0; 
stroke:#000000; stroke-width:39.3701; stroke-opacity:1; 
stroke-linecap:round; stroke-linejoin:round;">
</g>
<g style="fill:#000000; fill-opacity:1.0; 
stroke:#000000; stroke-width:0; stroke-opacity:1; 
stroke-linecap:round; stroke-linejoin:round;">
<circle cx="26991.6" cy="8125.98" r="393.5" /> 
</g>
<g style="fill:#000000; fill-opacity:1.0; 
stroke:#000000; stroke-width:39.3701; stroke-opacity:1; 
stroke-linecap:round; stroke-linejoin:round;">
</g>
<g style="fill:#000000; fill-opacity:1.0; 
stroke:#000000; stroke-width:0; stroke-opacity:1; 
stroke-linecap:round; stroke-linejoin:round;">
<circle cx="28491.6" cy="4125.98" r="393.5" /> 
</g>
<g style="fill:#000000; fill-opacity:1.0; 
stroke:#000000; stroke-width:39.3701; stroke-opacity:1; 
stroke-linecap:round; stroke-linejoin:round;">
</g>
<g style="fill:#000000; fill-opacity:1.0; 
stroke:#000000; stroke-width:0; stroke-opacity:1; 
stroke-linecap:round; stroke-linejoin:round;">
<circle cx="28491.6" cy="8125.98" r="393.5" /> 
</g>
<g style="fill:#000000; fill-opacity:1.0; 
stroke:#000000; stroke-width:39.3701; stroke-opacity:1; 
stroke-linecap:round; stroke-linejoin:round;">
</g>
<g style="fill:#000000; fill-opacity:1.0; 
stroke:#000000; stroke-width:0; stroke-opacity:1; 
stroke-linecap:round; stroke-linejoin:round;">
<circle cx="25991.6" cy="21626" r="393.5" /> 
</g>
<g style="fill:#000000; fill-opacity:1.0; 
stroke:#000000; stroke-width:39.3701; stroke-opacity:1; 
stroke-linecap:round; stroke-linejoin:round;">
</g>
<g style="fill:#000000; fill-opacity:1.0; 
stroke:#000000; stroke-width:0; stroke-opacity:1; 
stroke-linecap:round; stroke-linejoin:round;">
<circle cx="25991.6" cy="17626" r="393.5" /> 
</g>
<g style="fill:#000000; fill-opacity:1.0; 
stroke:#000000; stroke-width:39.3701; stroke-opacity:1; 
stroke-linecap:round; stroke-linejoin:round;">
</g>
<g style="fill:#000000; fill-opacity:1.0; 
stroke:#000000; stroke-width:0; stroke-opacity:1; 
stroke-linecap:round; stroke-linejoin:round;">
<circle cx="19991.6" cy="21626" r="393.5" /> 
</g>
<g style="fill:#000000; fill-opacity:1.0; 
stroke:#000000; stroke-width:39.3701; stroke-opacity:1; 
stroke-linecap:round; stroke-linejoin:round;">
</g>
<g style="fill:#000000; fill-opacity:1.0; 
stroke:#000000; stroke-width:0; stroke-opacity:1; 
stroke-linecap:round; stroke-linejoin:round;">
<circle cx="19991.6" cy="17626" r="393.5" /> 
</g>
<g style="fill:#000000; fill-opacity:1.0; 
stroke:#000000; stroke-width:39.3701; stroke-opacity:1; 
stroke-linecap:round; stroke-linejoin:round;">
</g>
<g style="fill:#000000; fill-opacity:1.0; 
stroke:#000000; stroke-width:0; stroke-opacity:1; 
stroke-linecap:round; stroke-linejoin:round;">
<circle cx="13991.6" cy="21626" r="393.5" /> 
</g>
<g style="fill:#000000; fill-opacity:1.0; 
stroke:#000000; stroke-width:39.3701; stroke-opacity:1; 
stroke-linecap:round; stroke-linejoin:round;">
</g>
<g style="fill:#000000; fill-opacity:1.0; 
stroke:#000000; stroke-width:0; stroke-opacity:1; 
stroke-linecap:round; stroke-linejoin:round;">
<circle cx="13991.6" cy="17626" r="393.5" /> 
</g>
<g style="fill:#000000; fill-opacity:1.0; 
stroke:#000000; stroke-width:39.3701; stroke-opacity:1; 
stroke-linecap:round; stroke-linejoin:round;">
</g>
<g style="fill:#000000; fill-opacity:1.0; 
stroke:#000000; stroke-width:0; stroke-opacity:1; 
stroke-linecap:round; stroke-linejoin:round;">
<circle cx="24491.6" cy="25626" r="393.5" /> 
</g>
<g style="fill:#000000; fill-opacity:1.0; 
stroke:#000000; stroke-width:39.3701; stroke-opacity:1; 
stroke-linecap:round; stroke-linejoin:round;">
</g>
<g style="fill:#000000; fill-opacity:1.0; 
stroke:#000000; stroke-width:0; stroke-opacity:1; 
stroke-linecap:round; stroke-linejoin:round;">
<circle cx="28491.6" cy="25626" r="393.5" /> 
</g>
<g style="fill:#000000; fill-opacity:1.0; 
stroke:#000000; stroke-width:39.3701; stroke-opacity:1; 
stroke-linecap:round; stroke-linejoin:round;">
</g>
<g style="fill:#000000; fill-opacity:1.0; 
stroke:#000000; stroke-width:0; stroke-opacity:1; 
stroke-linecap:round; stroke-linejoin:round;">
<circle cx="19991.6" cy="28126" r="393.5" /> 
</g>
<g style="fill:#000000; fill-opacity:1.0; 
stroke:#000000; stroke-width:39.3701; stroke-opacity:1; 
stroke-linecap:round; stroke-linejoin:round;">
</g>
<g style="fill:#000000; fill-opacity:1.0; 
stroke:#000000; stroke-width:0; stroke-opacity:1; 
stroke-linecap:round; stroke-linejoin:round;">
<circle cx="23991.6" cy="28126" r="393.5" /> 
</g>
<g style="fill:#000000; fill-opacity:1.0; 
stroke:#000000; stroke-width:39.3701; stroke-opacity:1; 
stroke-linecap:round; stroke-linejoin:round;">
</g>
<g style="fill:#000000; fill-opacity:1.0; 
stroke:#000000; stroke-width:0; stroke-opacity:1; 
stroke-linecap:round; stroke-linejoin:round;">
<circle cx="14491.6" cy="28126" r="393.5" /> 
</g>
<g style="fill:#000000; fill-opacity:1.0; 
stroke:#000000; stroke-width:39.3701; stroke-opacity:1; 
stroke-linecap:round; stroke-linejoin:round;">
</g>
<g style="fill:#000000; fill-opacity:1.0; 
stroke:#000000; stroke-width:0; stroke-opacity:1; 
stroke-linecap:round; stroke-linejoin:round;">
<circle cx="18491.6" cy="28126" r="393.5" /> 
</g>
<g style="fill:#000000; fill-opacity:1.0; 
stroke:#000000; stroke-width:39.3701; stroke-opacity:1; 
stroke-linecap:round; stroke-linejoin:round;">
</g>
<g style="fill:#000000; fill-opacity:1.0; 
stroke:#000000; stroke-width:0; stroke-opacity:1; 
stroke-linecap:round; stroke-linejoin:round;">
<circle cx="8241.56" cy="14626" r="393.5" /> 
</g>
<g style="fill:#000000; fill-opacity:1.0; 
stroke:#000000; stroke-width:39.3701; stroke-opacity:1; 
stroke-linecap:round; stroke-linejoin:round;">
</g>
<g style="fill:#000000; fill-opacity:1.0; 
stroke:#000000; stroke-width:0; stroke-opacity:1; 
stroke-linecap:round; stroke-linejoin:round;">
<circle cx="8241.56" cy="18626" r="393.5" /> 
</g>
<g style="fill:#000000; fill-opacity:1.0; 
stroke:#000000; stroke-width:39.3701; stroke-opacity:1; 
stroke-linecap:round; stroke-linejoin:round;">
</g> 
</svg>
