<?xml version="1.0" standalone="no"?>
 <!DOCTYPE svg PUBLIC "-//W3C//DTD SVG 1.1//EN" 
 "http://www.w3.org/Graphics/SVG/1.1/DTD/svg11.dtd"> 
<svg xmlns="http://www.w3.org/2000/svg" version="1.1" 
    width="13.4849cm" height="8.55472cm" viewBox="0 0 53090 33680 ">
<title>SVG Picture created as D21_2550-F.Fab.svg date 2016/04/15 21:49:44 </title>
  <desc>Picture generated by PCBNEW </desc>
<g style="fill:#000000; fill-opacity:1;stroke:#000000; stroke-opacity:1;
stroke-linecap:round; stroke-linejoin:round; "
 transform="translate(0 0) scale(1 1)">
</g>
<g style="fill:#000000; fill-opacity:0.0; 
stroke:#000000; stroke-width:-0.000393701; stroke-opacity:1; 
stroke-linecap:round; stroke-linejoin:round;">
</g>
<g style="fill:#000000; fill-opacity:0.0; 
stroke:#000000; stroke-width:39.3701; stroke-opacity:1; 
stroke-linecap:round; stroke-linejoin:round;">
<path d="M44263 30649
L46231 30649
" />
<path d="M44263 3090
L46231 3090
" />
<circle cx="44263.2" cy="28681.1" r="984.252" /> 
<circle cx="6861.64" cy="5059.06" r="984.252" /> 
<circle cx="44263.2" cy="5059.06" r="984.252" /> 
<circle cx="6861.64" cy="28681.1" r="984.252" /> 
<path d="M4893 3090
L44263 3090
" />
<path d="M4893 30649
L4893 3090
" />
<path d="M44263 30649
L4893 30649
" />
<path d="M46231 3090
L46231 30649
" />
</g>
<g style="fill:#000000; fill-opacity:0.0; 
stroke:#000000; stroke-width:59.0551; stroke-opacity:1; 
stroke-linecap:round; stroke-linejoin:round;">
<path d="M15996 9004
L15808 9135
" />
<path d="M15996 9229
L15602 9229
L15602 9079
L15621 9041
L15640 9022
L15677 9004
L15733 9004
L15771 9022
L15790 9041
L15808 9079
L15808 9229
" />
<path d="M37073 25303
L37129 25322
L37223 25322
L37260 25303
L37279 25284
L37298 25247
L37298 25209
L37279 25172
L37260 25153
L37223 25134
L37148 25115
L37110 25097
L37092 25078
L37073 25040
L37073 25003
L37092 24965
L37110 24947
L37148 24928
L37242 24928
L37298 24947
" />
<path d="M37429 24928
L37523 25322
L37598 25040
L37673 25322
L37767 24928
" />
<path d="M37823 25359
L38123 25359
" />
<path d="M38217 25322
L38217 24928
L38367 24928
L38404 24947
L38423 24965
L38442 25003
L38442 25059
L38423 25097
L38404 25115
L38367 25134
L38217 25134
" />
<path d="M38610 24928
L38610 25247
L38629 25284
L38648 25303
L38685 25322
L38760 25322
L38798 25303
L38817 25284
L38835 25247
L38835 24928
" />
<path d="M39004 25303
L39060 25322
L39154 25322
L39191 25303
L39210 25284
L39229 25247
L39229 25209
L39210 25172
L39191 25153
L39154 25134
L39079 25115
L39041 25097
L39023 25078
L39004 25040
L39004 25003
L39023 24965
L39041 24947
L39079 24928
L39173 24928
L39229 24947
" />
<path d="M39398 25322
L39398 24928
" />
<path d="M39398 25115
L39623 25115
" />
<path d="M39623 25322
L39623 24928
" />
<path d="M31097 26644
L31078 26663
L31022 26682
L30985 26682
L30928 26663
L30891 26625
L30872 26588
L30853 26513
L30853 26457
L30872 26382
L30891 26344
L30928 26307
L30985 26288
L31022 26288
L31078 26307
L31097 26325
" />
<path d="M22097 27644
L22078 27663
L22022 27682
L21985 27682
L21928 27663
L21891 27625
L21872 27588
L21853 27513
L21853 27457
L21872 27382
L21891 27344
L21928 27307
L21985 27288
L22022 27288
L22078 27307
L22097 27325
" />
<path d="M17597 27644
L17578 27663
L17522 27682
L17485 27682
L17428 27663
L17391 27625
L17372 27588
L17353 27513
L17353 27457
L17372 27382
L17391 27344
L17428 27307
L17485 27288
L17522 27288
L17578 27307
L17597 27325
" />
<path d="M11570 15190
L11570 15415
" />
<path d="M11570 15303
L11176 15303
L11233 15340
L11270 15378
L11289 15415
" />
<path d="M11570 15021
L11176 15021
L11570 14796
L11176 14796
" />
<path d="M11308 14440
L11570 14440
" />
<path d="M11158 14534
L11439 14628
L11439 14384
" />
<path d="M11176 14159
L11176 14122
L11195 14084
L11214 14065
L11251 14047
L11326 14028
L11420 14028
L11495 14047
L11533 14065
L11551 14084
L11570 14122
L11570 14159
L11551 14197
L11533 14215
L11495 14234
L11420 14253
L11326 14253
L11251 14234
L11214 14215
L11195 14197
L11176 14159
" />
<path d="M11176 13784
L11176 13747
L11195 13709
L11214 13690
L11251 13672
L11326 13653
L11420 13653
L11495 13672
L11533 13690
L11551 13709
L11570 13747
L11570 13784
L11551 13822
L11533 13840
L11495 13859
L11420 13878
L11326 13878
L11251 13859
L11214 13840
L11195 13822
L11176 13784
" />
<path d="M11176 13522
L11176 13259
L11570 13428
" />
<path d="M11570 20190
L11570 20415
" />
<path d="M11570 20303
L11176 20303
L11233 20340
L11270 20378
L11289 20415
" />
<path d="M11570 20021
L11176 20021
L11570 19796
L11176 19796
" />
<path d="M11308 19440
L11570 19440
" />
<path d="M11158 19534
L11439 19628
L11439 19384
" />
<path d="M11176 19159
L11176 19122
L11195 19084
L11214 19065
L11251 19047
L11326 19028
L11420 19028
L11495 19047
L11533 19065
L11551 19084
L11570 19122
L11570 19159
L11551 19197
L11533 19215
L11495 19234
L11420 19253
L11326 19253
L11251 19234
L11214 19215
L11195 19197
L11176 19159
" />
<path d="M11176 18784
L11176 18747
L11195 18709
L11214 18690
L11251 18672
L11326 18653
L11420 18653
L11495 18672
L11533 18690
L11551 18709
L11570 18747
L11570 18784
L11551 18822
L11533 18840
L11495 18859
L11420 18878
L11326 18878
L11251 18859
L11214 18840
L11195 18822
L11176 18784
" />
<path d="M11176 18522
L11176 18259
L11570 18428
" />
<path d="M13070 15190
L13070 15415
" />
<path d="M13070 15303
L12676 15303
L12733 15340
L12770 15378
L12789 15415
" />
<path d="M13070 15021
L12676 15021
L13070 14796
L12676 14796
" />
<path d="M12808 14440
L13070 14440
" />
<path d="M12658 14534
L12939 14628
L12939 14384
" />
<path d="M12676 14159
L12676 14122
L12695 14084
L12714 14065
L12751 14047
L12826 14028
L12920 14028
L12995 14047
L13033 14065
L13051 14084
L13070 14122
L13070 14159
L13051 14197
L13033 14215
L12995 14234
L12920 14253
L12826 14253
L12751 14234
L12714 14215
L12695 14197
L12676 14159
" />
<path d="M12676 13784
L12676 13747
L12695 13709
L12714 13690
L12751 13672
L12826 13653
L12920 13653
L12995 13672
L13033 13690
L13051 13709
L13070 13747
L13070 13784
L13051 13822
L13033 13840
L12995 13859
L12920 13878
L12826 13878
L12751 13859
L12714 13840
L12695 13822
L12676 13784
" />
<path d="M12676 13522
L12676 13259
L13070 13428
" />
<path d="M13070 20190
L13070 20415
" />
<path d="M13070 20303
L12676 20303
L12733 20340
L12770 20378
L12789 20415
" />
<path d="M13070 20021
L12676 20021
L13070 19796
L12676 19796
" />
<path d="M12808 19440
L13070 19440
" />
<path d="M12658 19534
L12939 19628
L12939 19384
" />
<path d="M12676 19159
L12676 19122
L12695 19084
L12714 19065
L12751 19047
L12826 19028
L12920 19028
L12995 19047
L13033 19065
L13051 19084
L13070 19122
L13070 19159
L13051 19197
L13033 19215
L12995 19234
L12920 19253
L12826 19253
L12751 19234
L12714 19215
L12695 19197
L12676 19159
" />
<path d="M12676 18784
L12676 18747
L12695 18709
L12714 18690
L12751 18672
L12826 18653
L12920 18653
L12995 18672
L13033 18690
L13051 18709
L13070 18747
L13070 18784
L13051 18822
L13033 18840
L12995 18859
L12920 18878
L12826 18878
L12751 18859
L12714 18840
L12695 18822
L12676 18784
" />
<path d="M12676 18522
L12676 18259
L13070 18428
" />
<path d="M14570 17876
L14570 18101
" />
<path d="M14570 17988
L14176 17988
L14233 18026
L14270 18063
L14289 18101
" />
<path d="M14570 17707
L14176 17707
L14570 17482
L14176 17482
" />
<path d="M14308 17126
L14570 17126
" />
<path d="M14158 17220
L14439 17313
L14439 17070
" />
<path d="M14176 16957
L14176 16695
L14570 16863
" />
<path d="M14176 16582
L14176 16339
L14326 16470
L14326 16414
L14345 16376
L14364 16357
L14401 16339
L14495 16339
L14533 16357
L14551 16376
L14570 16414
L14570 16526
L14551 16564
L14533 16582
" />
<path d="M14176 16207
L14176 15964
L14326 16095
L14326 16039
L14345 16001
L14364 15982
L14401 15964
L14495 15964
L14533 15982
L14551 16001
L14570 16039
L14570 16151
L14551 16189
L14533 16207
" />
<path d="M14458 15814
L14458 15626
" />
<path d="M14570 15851
L14176 15720
L14570 15589
" />
<path d="M9514 9555
L9570 9574
L9664 9574
L9701 9555
L9720 9536
L9739 9499
L9739 9461
L9720 9424
L9701 9405
L9664 9386
L9589 9367
L9551 9349
L9533 9330
L9514 9292
L9514 9255
L9533 9217
L9551 9199
L9589 9180
L9683 9180
L9739 9199
" />
<path d="M9870 9180
L9964 9574
L10039 9292
L10114 9574
L10208 9180
" />
<path d="M10264 9611
L10564 9611
" />
<path d="M10658 9574
L10658 9180
L10808 9180
L10845 9199
L10864 9217
L10883 9255
L10883 9311
L10864 9349
L10845 9367
L10808 9386
L10658 9386
" />
<path d="M11051 9180
L11051 9499
L11070 9536
L11089 9555
L11126 9574
L11201 9574
L11239 9555
L11257 9536
L11276 9499
L11276 9180
" />
<path d="M11445 9555
L11501 9574
L11595 9574
L11632 9555
L11651 9536
L11670 9499
L11670 9461
L11651 9424
L11632 9405
L11595 9386
L11520 9367
L11482 9349
L11464 9330
L11445 9292
L11445 9255
L11464 9217
L11482 9199
L11520 9180
L11614 9180
L11670 9199
" />
<path d="M11839 9574
L11839 9180
" />
<path d="M11839 9367
L12064 9367
" />
<path d="M12064 9574
L12064 9180
" />
<path d="M9514 25303
L9570 25322
L9664 25322
L9701 25303
L9720 25284
L9739 25247
L9739 25209
L9720 25172
L9701 25153
L9664 25134
L9589 25115
L9551 25097
L9533 25078
L9514 25040
L9514 25003
L9533 24965
L9551 24947
L9589 24928
L9683 24928
L9739 24947
" />
<path d="M9870 24928
L9964 25322
L10039 25040
L10114 25322
L10208 24928
" />
<path d="M10264 25359
L10564 25359
" />
<path d="M10658 25322
L10658 24928
L10808 24928
L10845 24947
L10864 24965
L10883 25003
L10883 25059
L10864 25097
L10845 25115
L10808 25134
L10658 25134
" />
<path d="M11051 24928
L11051 25247
L11070 25284
L11089 25303
L11126 25322
L11201 25322
L11239 25303
L11257 25284
L11276 25247
L11276 24928
" />
<path d="M11445 25303
L11501 25322
L11595 25322
L11632 25303
L11651 25284
L11670 25247
L11670 25209
L11651 25172
L11632 25153
L11595 25134
L11520 25115
L11482 25097
L11464 25078
L11445 25040
L11445 25003
L11464 24965
L11482 24947
L11520 24928
L11614 24928
L11670 24947
" />
<path d="M11839 25322
L11839 24928
" />
<path d="M11839 25115
L12064 25115
" />
<path d="M12064 25322
L12064 24928
" />
<path d="M37073 9555
L37129 9574
L37223 9574
L37260 9555
L37279 9536
L37298 9499
L37298 9461
L37279 9424
L37260 9405
L37223 9386
L37148 9367
L37110 9349
L37092 9330
L37073 9292
L37073 9255
L37092 9217
L37110 9199
L37148 9180
L37242 9180
L37298 9199
" />
<path d="M37429 9180
L37523 9574
L37598 9292
L37673 9574
L37767 9180
" />
<path d="M37823 9611
L38123 9611
" />
<path d="M38217 9574
L38217 9180
L38367 9180
L38404 9199
L38423 9217
L38442 9255
L38442 9311
L38423 9349
L38404 9367
L38367 9386
L38217 9386
" />
<path d="M38610 9180
L38610 9499
L38629 9536
L38648 9555
L38685 9574
L38760 9574
L38798 9555
L38817 9536
L38835 9499
L38835 9180
" />
<path d="M39004 9555
L39060 9574
L39154 9574
L39191 9555
L39210 9536
L39229 9499
L39229 9461
L39210 9424
L39191 9405
L39154 9386
L39079 9367
L39041 9349
L39023 9330
L39004 9292
L39004 9255
L39023 9217
L39041 9199
L39079 9180
L39173 9180
L39229 9199
" />
<path d="M39398 9574
L39398 9180
" />
<path d="M39398 9367
L39623 9367
" />
<path d="M39623 9574
L39623 9180
" />
<path d="M26263 22622
L26263 22229
L26394 22510
L26526 22229
L26526 22622
" />
<path d="M26694 22510
L26882 22510
" />
<path d="M26657 22622
L26788 22229
L26919 22622
" />
<path d="M27275 22585
L27257 22604
L27200 22622
L27163 22622
L27107 22604
L27069 22566
L27050 22529
L27032 22454
L27032 22398
L27050 22323
L27069 22285
L27107 22248
L27163 22229
L27200 22229
L27257 22248
L27275 22266
" />
<path d="M27463 22622
L27538 22622
L27575 22604
L27594 22585
L27632 22529
L27650 22454
L27650 22304
L27632 22266
L27613 22248
L27575 22229
L27500 22229
L27463 22248
L27444 22266
L27425 22304
L27425 22398
L27444 22435
L27463 22454
L27500 22473
L27575 22473
L27613 22454
L27632 22435
L27650 22398
" />
<path d="M27782 22229
L28044 22229
L27875 22622
" />
<path d="M28175 22510
L28363 22510
" />
<path d="M28138 22622
L28269 22229
L28400 22622
" />
<path d="M28700 22229
L28625 22229
L28588 22248
L28569 22266
L28532 22323
L28513 22398
L28513 22547
L28532 22585
L28550 22604
L28588 22622
L28663 22622
L28700 22604
L28719 22585
L28738 22547
L28738 22454
L28719 22416
L28700 22398
L28663 22379
L28588 22379
L28550 22398
L28532 22416
L28513 22454
" />
<path d="M21763 22622
L21763 22229
L21894 22510
L22026 22229
L22026 22622
" />
<path d="M22194 22510
L22382 22510
" />
<path d="M22157 22622
L22288 22229
L22419 22622
" />
<path d="M22775 22585
L22757 22604
L22700 22622
L22663 22622
L22607 22604
L22569 22566
L22550 22529
L22532 22454
L22532 22398
L22550 22323
L22569 22285
L22607 22248
L22663 22229
L22700 22229
L22757 22248
L22775 22266
" />
<path d="M22963 22622
L23038 22622
L23075 22604
L23094 22585
L23132 22529
L23150 22454
L23150 22304
L23132 22266
L23113 22248
L23075 22229
L23000 22229
L22963 22248
L22944 22266
L22925 22304
L22925 22398
L22944 22435
L22963 22454
L23000 22473
L23075 22473
L23113 22454
L23132 22435
L23150 22398
" />
<path d="M23282 22229
L23544 22229
L23375 22622
" />
<path d="M23675 22510
L23863 22510
" />
<path d="M23638 22622
L23769 22229
L23900 22622
" />
<path d="M24200 22229
L24125 22229
L24088 22248
L24069 22266
L24032 22323
L24013 22398
L24013 22547
L24032 22585
L24050 22604
L24088 22622
L24163 22622
L24200 22604
L24219 22585
L24238 22547
L24238 22454
L24219 22416
L24200 22398
L24163 22379
L24088 22379
L24050 22398
L24032 22416
L24013 22454
" />
<path d="M17263 22622
L17263 22229
L17394 22510
L17526 22229
L17526 22622
" />
<path d="M17694 22510
L17882 22510
" />
<path d="M17657 22622
L17788 22229
L17919 22622
" />
<path d="M18275 22585
L18257 22604
L18200 22622
L18163 22622
L18107 22604
L18069 22566
L18050 22529
L18032 22454
L18032 22398
L18050 22323
L18069 22285
L18107 22248
L18163 22229
L18200 22229
L18257 22248
L18275 22266
" />
<path d="M18463 22622
L18538 22622
L18575 22604
L18594 22585
L18632 22529
L18650 22454
L18650 22304
L18632 22266
L18613 22248
L18575 22229
L18500 22229
L18463 22248
L18444 22266
L18425 22304
L18425 22398
L18444 22435
L18463 22454
L18500 22473
L18575 22473
L18613 22454
L18632 22435
L18650 22398
" />
<path d="M18782 22229
L19044 22229
L18875 22622
" />
<path d="M19175 22510
L19363 22510
" />
<path d="M19138 22622
L19269 22229
L19400 22622
" />
<path d="M19700 22229
L19625 22229
L19588 22248
L19569 22266
L19532 22323
L19513 22398
L19513 22547
L19532 22585
L19550 22604
L19588 22622
L19663 22622
L19700 22604
L19719 22585
L19738 22547
L19738 22454
L19719 22416
L19700 22398
L19663 22379
L19588 22379
L19550 22398
L19532 22416
L19513 22454
" />
<path d="M23078 11221
L23078 10827
" />
<path d="M23078 11015
L23303 11015
" />
<path d="M23303 11221
L23303 10827
" />
<path d="M23490 11221
L23490 10827
L23584 10827
L23640 10846
L23678 10883
L23697 10921
L23715 10996
L23715 11052
L23697 11127
L23678 11165
L23640 11202
L23584 11221
L23490 11221
" />
<path d="M24109 11183
L24090 11202
L24034 11221
L23997 11221
L23940 11202
L23903 11165
L23884 11127
L23865 11052
L23865 10996
L23884 10921
L23903 10883
L23940 10846
L23997 10827
L24034 10827
L24090 10846
L24109 10865
" />
<path d="M24278 11071
L24578 11071
" />
<path d="M24953 10827
L24765 10827
L24746 11015
L24765 10996
L24803 10977
L24896 10977
L24934 10996
L24953 11015
L24971 11052
L24971 11146
L24953 11183
L24934 11202
L24896 11221
L24803 11221
L24765 11202
L24746 11183
" />
<path d="M25309 10827
L25234 10827
L25196 10846
L25178 10865
L25140 10921
L25121 10996
L25121 11146
L25140 11183
L25159 11202
L25196 11221
L25271 11221
L25309 11202
L25328 11183
L25346 11146
L25346 11052
L25328 11015
L25309 10996
L25271 10977
L25196 10977
L25159 10996
L25140 11015
L25121 11052
" />
<path d="M25478 10827
L25721 10827
L25590 10977
L25646 10977
L25684 10996
L25703 11015
L25721 11052
L25721 11146
L25703 11183
L25684 11202
L25646 11221
L25534 11221
L25496 11202
L25478 11183
" />
<path d="M25853 10827
L26096 10827
L25965 10977
L26021 10977
L26059 10996
L26077 11015
L26096 11052
L26096 11146
L26077 11183
L26059 11202
L26021 11221
L25909 11221
L25871 11202
L25853 11183
" />
<path d="M44632 24329
L44650 24347
L44669 24404
L44669 24441
L44650 24497
L44613 24535
L44575 24553
L44500 24572
L44444 24572
L44369 24553
L44332 24535
L44294 24497
L44275 24441
L44275 24404
L44294 24347
L44313 24329
" />
<path d="M44669 24160
L44407 24160
" />
<path d="M44482 24160
L44444 24141
L44425 24122
L44407 24085
L44407 24047
" />
<path d="M44407 23954
L44669 23860
" />
<path d="M44407 23766
L44669 23860
L44763 23897
L44782 23916
L44800 23954
" />
<path d="M44650 23635
L44669 23597
L44669 23522
L44650 23485
L44613 23466
L44594 23466
L44557 23485
L44538 23522
L44538 23579
L44519 23616
L44482 23635
L44463 23635
L44425 23616
L44407 23579
L44407 23522
L44425 23485
" />
<path d="M44407 23354
L44407 23204
" />
<path d="M44275 23297
L44613 23297
L44650 23279
L44669 23241
L44669 23204
" />
<path d="M44669 22904
L44463 22904
L44425 22922
L44407 22960
L44407 23035
L44425 23072
" />
<path d="M44650 22904
L44669 22941
L44669 23035
L44650 23072
L44613 23091
L44575 23091
L44538 23072
L44519 23035
L44519 22941
L44500 22904
" />
<path d="M44669 22660
L44650 22697
L44613 22716
L44275 22716
" />
<path d="M38257 11477
L38032 11477
" />
<path d="M38144 11477
L38144 11083
L38107 11139
L38069 11177
L38032 11196
" />
<path d="M38500 11083
L38538 11083
L38575 11102
L38594 11121
L38613 11158
L38632 11233
L38632 11327
L38613 11402
L38594 11439
L38575 11458
L38538 11477
L38500 11477
L38463 11458
L38444 11439
L38425 11402
L38407 11327
L38407 11233
L38425 11158
L38444 11121
L38463 11102
L38500 11083
" />
<path d="M38800 11477
L38800 11083
" />
<path d="M38838 11327
L38950 11477
" />
<path d="M38950 11214
L38800 11364
" />
<path d="M28485 16333
L28729 16333
L28597 16483
L28654 16483
L28691 16502
L28710 16521
L28729 16558
L28729 16652
L28710 16689
L28691 16708
L28654 16727
L28541 16727
L28504 16708
L28485 16689
" />
<path d="M28860 16333
L29104 16333
L28972 16483
L29029 16483
L29066 16502
L29085 16521
L29104 16558
L29104 16652
L29085 16689
L29066 16708
L29029 16727
L28916 16727
L28879 16708
L28860 16689
" />
<path d="M29347 16333
L29385 16333
L29422 16352
L29441 16371
L29460 16408
L29479 16483
L29479 16577
L29460 16652
L29441 16689
L29422 16708
L29385 16727
L29347 16727
L29310 16708
L29291 16689
L29272 16652
L29254 16577
L29254 16483
L29272 16408
L29291 16371
L29310 16352
L29347 16333
" />
<path d="M22235 16333
L22479 16333
L22347 16483
L22404 16483
L22441 16502
L22460 16521
L22479 16558
L22479 16652
L22460 16689
L22441 16708
L22404 16727
L22291 16727
L22254 16708
L22235 16689
" />
<path d="M22610 16333
L22854 16333
L22722 16483
L22779 16483
L22816 16502
L22835 16521
L22854 16558
L22854 16652
L22835 16689
L22816 16708
L22779 16727
L22666 16727
L22629 16708
L22610 16689
" />
<path d="M23097 16333
L23135 16333
L23172 16352
L23191 16371
L23210 16408
L23229 16483
L23229 16577
L23210 16652
L23191 16689
L23172 16708
L23135 16727
L23097 16727
L23060 16708
L23041 16689
L23022 16652
L23004 16577
L23004 16483
L23022 16408
L23041 16371
L23060 16352
L23097 16333
" />
<path d="M16235 16333
L16479 16333
L16347 16483
L16404 16483
L16441 16502
L16460 16521
L16479 16558
L16479 16652
L16460 16689
L16441 16708
L16404 16727
L16291 16727
L16254 16708
L16235 16689
" />
<path d="M16610 16333
L16854 16333
L16722 16483
L16779 16483
L16816 16502
L16835 16521
L16854 16558
L16854 16652
L16835 16689
L16816 16708
L16779 16727
L16666 16727
L16629 16708
L16610 16689
" />
<path d="M17097 16333
L17135 16333
L17172 16352
L17191 16371
L17210 16408
L17229 16483
L17229 16577
L17210 16652
L17191 16689
L17172 16708
L17135 16727
L17097 16727
L17060 16708
L17041 16689
L17022 16652
L17004 16577
L17004 16483
L17022 16408
L17041 16371
L17060 16352
L17097 16333
" />
<path d="M23236 5679
L23217 5660
L23199 5622
L23199 5529
L23217 5491
L23236 5472
L23274 5454
L23311 5454
L23367 5472
L23592 5697
L23592 5454
" />
<path d="M23555 5285
L23574 5266
L23592 5285
L23574 5304
L23555 5285
L23592 5285
" />
<path d="M23199 5135
L23199 4872
L23592 5041
" />
<path d="M23592 4722
L23199 4722
" />
<path d="M23442 4685
L23592 4572
" />
<path d="M23330 4572
L23480 4722
" />
<path d="M30188 6524
L30207 6505
L30244 6487
L30338 6487
L30375 6505
L30394 6524
L30413 6562
L30413 6599
L30394 6655
L30169 6880
L30413 6880
" />
<path d="M30582 6843
L30600 6862
L30582 6880
L30563 6862
L30582 6843
L30582 6880
" />
<path d="M30732 6487
L30994 6487
L30825 6880
" />
<path d="M31144 6880
L31144 6487
" />
<path d="M31182 6730
L31294 6880
" />
<path d="M31294 6618
L31144 6768
" />
<path d="M40282 11774
L40300 11755
L40338 11737
L40432 11737
L40469 11755
L40488 11774
L40507 11812
L40507 11849
L40488 11905
L40263 12130
L40507 12130
" />
<path d="M40750 11737
L40788 11737
L40825 11755
L40844 11774
L40863 11812
L40882 11887
L40882 11980
L40863 12055
L40844 12093
L40825 12112
L40788 12130
L40750 12130
L40713 12112
L40694 12093
L40675 12055
L40657 11980
L40657 11887
L40675 11812
L40694 11774
L40713 11755
L40750 11737
" />
<path d="M41050 12130
L41050 11737
" />
<path d="M41088 11980
L41200 12130
" />
<path d="M41200 11868
L41050 12018
" />
<path d="M40282 12774
L40300 12755
L40338 12737
L40432 12737
L40469 12755
L40488 12774
L40507 12812
L40507 12849
L40488 12905
L40263 13130
L40507 13130
" />
<path d="M40750 12737
L40788 12737
L40825 12755
L40844 12774
L40863 12812
L40882 12887
L40882 12980
L40863 13055
L40844 13093
L40825 13112
L40788 13130
L40750 13130
L40713 13112
L40694 13093
L40675 13055
L40657 12980
L40657 12887
L40675 12812
L40694 12774
L40713 12755
L40750 12737
" />
<path d="M41050 13130
L41050 12737
" />
<path d="M41088 12980
L41200 13130
" />
<path d="M41200 12868
L41050 13018
" />
<path d="M14342 24504
L14155 24635
" />
<path d="M14342 24729
L13949 24729
L13949 24579
L13967 24541
L13986 24522
L14024 24504
L14080 24504
L14117 24522
L14136 24541
L14155 24579
L14155 24729
" />
<path d="M35496 9004
L35308 9135
" />
<path d="M35496 9229
L35102 9229
L35102 9079
L35121 9041
L35140 9022
L35177 9004
L35233 9004
L35271 9022
L35290 9041
L35308 9079
L35308 9229
" />
<path d="M34996 24504
L34808 24635
" />
<path d="M34996 24729
L34602 24729
L34602 24579
L34621 24541
L34640 24522
L34677 24504
L34733 24504
L34771 24522
L34790 24541
L34808 24579
L34808 24729
" />
<path d="M24160 3841
L24122 3822
L24085 3785
L24029 3729
L23991 3710
L23954 3710
" />
<path d="M23973 3804
L23935 3785
L23898 3747
L23879 3672
L23879 3541
L23898 3466
L23935 3429
L23973 3410
L24047 3410
L24085 3429
L24122 3466
L24141 3541
L24141 3672
L24122 3747
L24085 3785
L24047 3804
L23973 3804
" />
<path d="M24216 3841
L24516 3841
" />
<path d="M24610 3804
L24610 3410
L24835 3804
L24835 3410
" />
<path d="M25022 3804
L25022 3410
L25172 3410
L25210 3429
L25229 3447
L25247 3485
L25247 3541
L25229 3579
L25210 3597
L25172 3616
L25022 3616
" />
<path d="M25416 3804
L25416 3410
L25641 3804
L25641 3410
" />
<path d="M25735 3841
L26035 3841
" />
<path d="M26353 3766
L26335 3785
L26278 3804
L26241 3804
L26185 3785
L26147 3747
L26128 3710
L26110 3635
L26110 3579
L26128 3504
L26147 3466
L26185 3429
L26241 3410
L26278 3410
L26335 3429
L26353 3447
" />
<path d="M26653 3597
L26710 3616
L26728 3635
L26747 3672
L26747 3729
L26728 3766
L26710 3785
L26672 3804
L26522 3804
L26522 3410
L26653 3410
L26691 3429
L26710 3447
L26728 3485
L26728 3522
L26710 3560
L26691 3579
L26653 3597
L26522 3597
" />
<path d="M26916 3597
L27047 3597
" />
<path d="M27103 3804
L26916 3804
L26916 3410
L27103 3410
" />
<path d="M29457 5707
L29438 5744
L29400 5782
L29344 5838
L29325 5875
L29325 5913
" />
<path d="M29419 5894
L29400 5932
L29363 5969
L29288 5988
L29157 5988
L29082 5969
L29044 5932
L29025 5894
L29025 5819
L29044 5782
L29082 5744
L29157 5725
L29288 5725
L29363 5744
L29400 5782
L29419 5819
L29419 5894
" />
<path d="M29457 5650
L29457 5350
" />
<path d="M29419 5257
L29025 5257
L29419 5032
L29025 5032
" />
<path d="M29419 4844
L29025 4844
L29025 4694
L29044 4657
L29063 4638
L29100 4619
L29157 4619
L29194 4638
L29213 4657
L29232 4694
L29232 4844
" />
<path d="M29419 4450
L29025 4450
L29419 4226
L29025 4226
" />
<path d="M29457 4132
L29457 3832
" />
<path d="M29382 3513
L29400 3532
L29419 3588
L29419 3626
L29400 3682
L29363 3719
L29325 3738
L29250 3757
L29194 3757
L29119 3738
L29082 3719
L29044 3682
L29025 3626
L29025 3588
L29044 3532
L29063 3513
" />
<path d="M29213 3213
L29232 3157
L29250 3138
L29288 3119
L29344 3119
L29382 3138
L29400 3157
L29419 3194
L29419 3344
L29025 3344
L29025 3213
L29044 3176
L29063 3157
L29100 3138
L29138 3138
L29175 3157
L29194 3176
L29213 3213
L29213 3344
" />
<path d="M29213 2951
L29213 2819
" />
<path d="M29419 2763
L29419 2951
L29025 2951
L29025 2763
" />
<path d="M31634 20135
L31240 20135
L31521 20003
L31240 19872
L31634 19872
" />
<path d="M31240 19610
L31240 19535
L31259 19497
L31296 19460
L31371 19441
L31502 19441
L31577 19460
L31615 19497
L31634 19535
L31634 19610
L31615 19647
L31577 19685
L31502 19703
L31371 19703
L31296 19685
L31259 19647
L31240 19610
" />
<path d="M31596 19047
L31615 19066
L31634 19122
L31634 19160
L31615 19216
L31577 19254
L31540 19272
L31465 19291
L31409 19291
L31334 19272
L31296 19254
L31259 19216
L31240 19160
L31240 19122
L31259 19066
L31278 19047
" />
<path d="M31240 18916
L31240 18672
L31390 18804
L31390 18747
L31409 18710
L31428 18691
L31465 18672
L31559 18672
L31596 18691
L31615 18710
L31634 18747
L31634 18860
L31615 18897
L31596 18916
" />
<path d="M31240 18429
L31240 18391
L31259 18354
L31278 18335
L31315 18316
L31390 18297
L31484 18297
L31559 18316
L31596 18335
L31615 18354
L31634 18391
L31634 18429
L31615 18466
L31596 18485
L31559 18504
L31484 18522
L31390 18522
L31315 18504
L31278 18485
L31259 18466
L31240 18429
" />
<path d="M31278 18147
L31259 18129
L31240 18091
L31240 17997
L31259 17960
L31278 17941
L31315 17922
L31353 17922
L31409 17941
L31634 18166
L31634 17922
" />
<path d="M31634 17547
L31634 17772
" />
<path d="M31634 17660
L31240 17660
L31296 17697
L31334 17735
L31353 17772
" />
<path d="M31634 17379
L31240 17379
L31521 17248
L31240 17116
L31634 17116
" />
<path d="M25634 20135
L25240 20135
L25521 20003
L25240 19872
L25634 19872
" />
<path d="M25240 19610
L25240 19535
L25259 19497
L25296 19460
L25371 19441
L25502 19441
L25577 19460
L25615 19497
L25634 19535
L25634 19610
L25615 19647
L25577 19685
L25502 19703
L25371 19703
L25296 19685
L25259 19647
L25240 19610
" />
<path d="M25596 19047
L25615 19066
L25634 19122
L25634 19160
L25615 19216
L25577 19254
L25540 19272
L25465 19291
L25409 19291
L25334 19272
L25296 19254
L25259 19216
L25240 19160
L25240 19122
L25259 19066
L25278 19047
" />
<path d="M25240 18916
L25240 18672
L25390 18804
L25390 18747
L25409 18710
L25428 18691
L25465 18672
L25559 18672
L25596 18691
L25615 18710
L25634 18747
L25634 18860
L25615 18897
L25596 18916
" />
<path d="M25240 18429
L25240 18391
L25259 18354
L25278 18335
L25315 18316
L25390 18297
L25484 18297
L25559 18316
L25596 18335
L25615 18354
L25634 18391
L25634 18429
L25615 18466
L25596 18485
L25559 18504
L25484 18522
L25390 18522
L25315 18504
L25278 18485
L25259 18466
L25240 18429
" />
<path d="M25278 18147
L25259 18129
L25240 18091
L25240 17997
L25259 17960
L25278 17941
L25315 17922
L25353 17922
L25409 17941
L25634 18166
L25634 17922
" />
<path d="M25634 17547
L25634 17772
" />
<path d="M25634 17660
L25240 17660
L25296 17697
L25334 17735
L25353 17772
" />
<path d="M25634 17379
L25240 17379
L25521 17248
L25240 17116
L25634 17116
" />
<path d="M19634 20135
L19240 20135
L19521 20003
L19240 19872
L19634 19872
" />
<path d="M19240 19610
L19240 19535
L19259 19497
L19296 19460
L19371 19441
L19502 19441
L19577 19460
L19615 19497
L19634 19535
L19634 19610
L19615 19647
L19577 19685
L19502 19703
L19371 19703
L19296 19685
L19259 19647
L19240 19610
" />
<path d="M19596 19047
L19615 19066
L19634 19122
L19634 19160
L19615 19216
L19577 19254
L19540 19272
L19465 19291
L19409 19291
L19334 19272
L19296 19254
L19259 19216
L19240 19160
L19240 19122
L19259 19066
L19278 19047
" />
<path d="M19240 18916
L19240 18672
L19390 18804
L19390 18747
L19409 18710
L19428 18691
L19465 18672
L19559 18672
L19596 18691
L19615 18710
L19634 18747
L19634 18860
L19615 18897
L19596 18916
" />
<path d="M19240 18429
L19240 18391
L19259 18354
L19278 18335
L19315 18316
L19390 18297
L19484 18297
L19559 18316
L19596 18335
L19615 18354
L19634 18391
L19634 18429
L19615 18466
L19596 18485
L19559 18504
L19484 18522
L19390 18522
L19315 18504
L19278 18485
L19259 18466
L19240 18429
" />
<path d="M19278 18147
L19259 18129
L19240 18091
L19240 17997
L19259 17960
L19278 17941
L19315 17922
L19353 17922
L19409 17941
L19634 18166
L19634 17922
" />
<path d="M19634 17547
L19634 17772
" />
<path d="M19634 17660
L19240 17660
L19296 17697
L19334 17735
L19353 17772
" />
<path d="M19634 17379
L19240 17379
L19521 17248
L19240 17116
L19634 17116
" />
<path d="M38555 22532
L38555 22138
L38649 22138
L38705 22157
L38743 22194
L38761 22232
L38780 22307
L38780 22363
L38761 22438
L38743 22476
L38705 22513
L38649 22532
L38555 22532
" />
<path d="M40638 12477
L40638 12083
L40732 12083
L40788 12102
L40825 12139
L40844 12177
L40863 12252
L40863 12308
L40844 12383
L40825 12421
L40788 12458
L40732 12477
L40638 12477
" />
<path d="M34553 13162
L34553 12768
L34647 12768
L34703 12787
L34740 12824
L34759 12862
L34778 12937
L34778 12993
L34759 13068
L34740 13106
L34703 13143
L34647 13162
L34553 13162
" />
<path d="M34853 13199
L35153 13199
" />
<path d="M35472 13124
L35453 13143
L35397 13162
L35359 13162
L35303 13143
L35265 13106
L35247 13068
L35228 12993
L35228 12937
L35247 12862
L35265 12824
L35303 12787
L35359 12768
L35397 12768
L35453 12787
L35472 12806
" />
<path d="M34581 15662
L34581 15268
L34675 15268
L34731 15287
L34769 15324
L34787 15362
L34806 15437
L34806 15493
L34787 15568
L34769 15606
L34731 15643
L34675 15662
L34581 15662
" />
<path d="M34881 15699
L35181 15699
" />
<path d="M35218 15268
L35350 15662
L35481 15268
" />
<path d="M34553 18162
L34553 17768
L34647 17768
L34703 17787
L34740 17824
L34759 17862
L34778 17937
L34778 17993
L34759 18068
L34740 18106
L34703 18143
L34647 18162
L34553 18162
" />
<path d="M34853 18199
L35153 18199
" />
<path d="M35472 18162
L35340 17974
" />
<path d="M35247 18162
L35247 17768
L35397 17768
L35434 17787
L35453 17806
L35472 17843
L35472 17899
L35453 17937
L35434 17956
L35397 17974
L35247 17974
" />
<path d="M35407 13296
L35388 13314
L35332 13333
L35294 13333
L35238 13314
L35201 13277
L35182 13239
L35163 13164
L35163 13108
L35182 13033
L35201 12996
L35238 12958
L35294 12939
L35332 12939
L35388 12958
L35407 12977
" />
<path d="M35651 12939
L35726 12939
L35763 12958
L35801 12996
L35819 13071
L35819 13202
L35801 13277
L35763 13314
L35726 13333
L35651 13333
L35613 13314
L35576 13277
L35557 13202
L35557 13071
L35576 12996
L35613 12958
L35651 12939
" />
<path d="M35988 13333
L35988 12939
L36213 13333
L36213 12939
" />
<path d="M36401 13333
L36401 12939
L36625 13333
L36625 12939
" />
<path d="M36719 13371
L37019 13371
" />
<path d="M37188 12939
L37225 12939
L37263 12958
L37282 12977
L37300 13014
L37319 13089
L37319 13183
L37300 13258
L37282 13296
L37263 13314
L37225 13333
L37188 13333
L37150 13314
L37132 13296
L37113 13258
L37094 13183
L37094 13089
L37113 13014
L37132 12977
L37150 12958
L37188 12939
" />
<path d="M37694 13333
L37469 13333
" />
<path d="M37582 13333
L37582 12939
L37544 12996
L37507 13033
L37469 13052
" />
<path d="M37825 12939
L38088 13333
" />
<path d="M38088 12939
L37825 13333
" />
<path d="M38313 12939
L38350 12939
L38388 12958
L38407 12977
L38425 13014
L38444 13089
L38444 13183
L38425 13258
L38407 13296
L38388 13314
L38350 13333
L38313 13333
L38275 13314
L38257 13296
L38238 13258
L38219 13183
L38219 13089
L38238 13014
L38257 12977
L38275 12958
L38313 12939
" />
<path d="M38800 12939
L38613 12939
L38594 13127
L38613 13108
L38650 13089
L38744 13089
L38781 13108
L38800 13127
L38819 13164
L38819 13258
L38800 13296
L38781 13314
L38744 13333
L38650 13333
L38613 13314
L38594 13296
" />
<path d="M18313 6425
L18294 6407
L18275 6369
L18275 6275
L18294 6238
L18313 6219
L18350 6200
L18388 6200
L18444 6219
L18669 6444
L18669 6200
" />
<path d="M18313 6050
L18294 6032
L18275 5994
L18275 5901
L18294 5863
L18313 5844
L18350 5826
L18388 5826
L18444 5844
L18669 6069
L18669 5826
" />
<path d="M25313 6425
L25294 6407
L25275 6369
L25275 6275
L25294 6238
L25313 6219
L25350 6200
L25388 6200
L25444 6219
L25669 6444
L25669 6200
" />
<path d="M25313 6050
L25294 6032
L25275 5994
L25275 5901
L25294 5863
L25313 5844
L25350 5826
L25388 5826
L25444 5844
L25669 6069
L25669 5826
" />
<path d="M26813 6425
L26794 6407
L26775 6369
L26775 6275
L26794 6238
L26813 6219
L26850 6200
L26888 6200
L26944 6219
L27169 6444
L27169 6200
" />
<path d="M26813 6050
L26794 6032
L26775 5994
L26775 5901
L26794 5863
L26813 5844
L26850 5826
L26888 5826
L26944 5844
L27169 6069
L27169 5826
" />
<path d="M27275 20132
L27275 19888
L27425 20019
L27425 19963
L27444 19925
L27463 19907
L27500 19888
L27594 19888
L27632 19907
L27650 19925
L27669 19963
L27669 20075
L27650 20113
L27632 20132
" />
<path d="M27275 19757
L27275 19513
L27425 19644
L27425 19588
L27444 19550
L27463 19532
L27500 19513
L27594 19513
L27632 19532
L27650 19550
L27669 19588
L27669 19700
L27650 19738
L27632 19757
" />
<path d="M27275 19269
L27275 19232
L27294 19194
L27313 19176
L27350 19157
L27425 19138
L27519 19138
L27594 19157
L27632 19176
L27650 19194
L27669 19232
L27669 19269
L27650 19307
L27632 19326
L27594 19344
L27519 19363
L27425 19363
L27350 19344
L27313 19326
L27294 19307
L27275 19269
" />
<path d="M21275 20132
L21275 19888
L21425 20019
L21425 19963
L21444 19925
L21463 19907
L21500 19888
L21594 19888
L21632 19907
L21650 19925
L21669 19963
L21669 20075
L21650 20113
L21632 20132
" />
<path d="M21275 19757
L21275 19513
L21425 19644
L21425 19588
L21444 19550
L21463 19532
L21500 19513
L21594 19513
L21632 19532
L21650 19550
L21669 19588
L21669 19700
L21650 19738
L21632 19757
" />
<path d="M21275 19269
L21275 19232
L21294 19194
L21313 19176
L21350 19157
L21425 19138
L21519 19138
L21594 19157
L21632 19176
L21650 19194
L21669 19232
L21669 19269
L21650 19307
L21632 19326
L21594 19344
L21519 19363
L21425 19363
L21350 19344
L21313 19326
L21294 19307
L21275 19269
" />
<path d="M15275 20132
L15275 19888
L15425 20019
L15425 19963
L15444 19925
L15463 19907
L15500 19888
L15594 19888
L15632 19907
L15650 19925
L15669 19963
L15669 20075
L15650 20113
L15632 20132
" />
<path d="M15275 19757
L15275 19513
L15425 19644
L15425 19588
L15444 19550
L15463 19532
L15500 19513
L15594 19513
L15632 19532
L15650 19550
L15669 19588
L15669 19700
L15650 19738
L15632 19757
" />
<path d="M15275 19269
L15275 19232
L15294 19194
L15313 19176
L15350 19157
L15425 19138
L15519 19138
L15594 19157
L15632 19176
L15650 19194
L15669 19232
L15669 19269
L15650 19307
L15632 19326
L15594 19344
L15519 19363
L15425 19363
L15350 19344
L15313 19326
L15294 19307
L15275 19269
" />
<path d="M26613 27304
L26482 27116
" />
<path d="M26388 27304
L26388 26910
L26538 26910
L26575 26929
L26594 26947
L26613 26985
L26613 27041
L26594 27079
L26575 27097
L26538 27116
L26388 27116
" />
<path d="M22113 29804
L21982 29616
" />
<path d="M21888 29804
L21888 29410
L22038 29410
L22075 29429
L22094 29447
L22113 29485
L22113 29541
L22094 29579
L22075 29597
L22038 29616
L21888 29616
" />
<path d="M16613 29804
L16482 29616
" />
<path d="M16388 29804
L16388 29410
L16538 29410
L16575 29429
L16594 29447
L16613 29485
L16613 29541
L16594 29579
L16575 29597
L16538 29616
L16388 29616
" />
<path d="M6525 17291
L6525 17047
L6675 17179
L6675 17122
L6694 17085
L6713 17066
L6750 17047
L6844 17047
L6882 17066
L6900 17085
L6919 17122
L6919 17235
L6900 17272
L6882 17291
" />
<path d="M6525 16804
L6525 16766
L6544 16729
L6563 16710
L6600 16691
L6675 16672
L6769 16672
L6844 16691
L6882 16710
L6900 16729
L6919 16766
L6919 16804
L6900 16841
L6882 16860
L6844 16879
L6769 16897
L6675 16897
L6600 16879
L6563 16860
L6544 16841
L6525 16804
" />
<path d="M6525 16429
L6525 16391
L6544 16354
L6563 16335
L6600 16316
L6675 16297
L6769 16297
L6844 16316
L6882 16335
L6900 16354
L6919 16391
L6919 16429
L6900 16466
L6882 16485
L6844 16504
L6769 16522
L6675 16522
L6600 16504
L6563 16485
L6544 16466
L6525 16429
" />
<path d="M6919 16129
L6525 16129
" />
<path d="M6769 16091
L6919 15979
" />
<path d="M6657 15979
L6807 16129
" />
<path d="M15673 14825
L15673 15050
" />
<path d="M15673 14937
L15279 14937
L15336 14975
L15373 15012
L15392 15050
" />
<path d="M15279 14581
L15279 14544
L15298 14506
L15317 14488
L15354 14469
L15429 14450
L15523 14450
L15598 14469
L15636 14488
L15654 14506
L15673 14544
L15673 14581
L15654 14619
L15636 14637
L15598 14656
L15523 14675
L15429 14675
L15354 14656
L15317 14637
L15298 14619
L15279 14581
" />
<path d="M15279 14206
L15279 14169
L15298 14131
L15317 14113
L15354 14094
L15429 14075
L15523 14075
L15598 14094
L15636 14113
L15654 14131
L15673 14169
L15673 14206
L15654 14244
L15636 14263
L15598 14281
L15523 14300
L15429 14300
L15354 14281
L15317 14263
L15298 14244
L15279 14206
" />
</g> 
</svg>
