<?xml version="1.0" standalone="no"?>
 <!DOCTYPE svg PUBLIC "-//W3C//DTD SVG 1.1//EN" 
 "http://www.w3.org/Graphics/SVG/1.1/DTD/svg11.dtd"> 
<svg xmlns="http://www.w3.org/2000/svg" version="1.1" 
    width="13.4849cm" height="8.55472cm" viewBox="0 0 53090 33680 ">
<title>SVG Picture created as D21_2550-Eco2.User.svg date 2016/04/15 21:49:43 </title>
  <desc>Picture generated by PCBNEW </desc>
<g style="fill:#000000; fill-opacity:1;stroke:#000000; stroke-opacity:1;
stroke-linecap:round; stroke-linejoin:round; "
 transform="translate(0 0) scale(1 1)">
</g>
<g style="fill:#000000; fill-opacity:0.0; 
stroke:#000000; stroke-width:-0.000393701; stroke-opacity:1; 
stroke-linecap:round; stroke-linejoin:round;">
</g>
<g style="fill:#000000; fill-opacity:0.0; 
stroke:#000000; stroke-width:118.11; stroke-opacity:1; 
stroke-linecap:round; stroke-linejoin:round;">
<path d="M46496 25812
L46496 25475
" />
<path d="M46496 25643
L47086 25643
L47002 25587
L46946 25531
L46917 25475
" />
<path d="M47086 26347
L47086 26065
L46805 26037
L46833 26065
L46861 26122
L46861 26262
L46833 26318
L46805 26347
L46749 26375
L46608 26375
L46552 26347
L46524 26318
L46496 26262
L46496 26122
L46524 26065
L46552 26037
" />
<path d="M46524 26656
L46496 26656
L46439 26628
L46411 26600
" />
<path d="M47086 27021
L47086 27078
L47058 27134
L47030 27162
L46974 27190
L46861 27218
L46721 27218
L46608 27190
L46552 27162
L46524 27134
L46496 27078
L46496 27021
L46524 26965
L46552 26937
L46608 26909
L46721 26881
L46861 26881
L46974 26909
L47030 26937
L47058 26965
L47086 27021
" />
<path d="M47086 27584
L47086 27640
L47058 27696
L47030 27724
L46974 27753
L46861 27781
L46721 27781
L46608 27753
L46552 27724
L46524 27696
L46496 27640
L46496 27584
L46524 27528
L46552 27500
L46608 27471
L46721 27443
L46861 27443
L46974 27471
L47030 27500
L47058 27528
L47086 27584
" />
<path d="M47086 28146
L47086 28203
L47058 28259
L47030 28287
L46974 28315
L46861 28343
L46721 28343
L46608 28315
L46552 28287
L46524 28259
L46496 28203
L46496 28146
L46524 28090
L46552 28062
L46608 28034
L46721 28006
L46861 28006
L46974 28034
L47030 28062
L47058 28090
L47086 28146
" />
<path d="M46496 28596
L46889 28596
" />
<path d="M46833 28596
L46861 28624
L46889 28681
L46889 28765
L46861 28821
L46805 28849
L46496 28849
" />
<path d="M46805 28849
L46861 28877
L46889 28934
L46889 29018
L46861 29074
L46805 29102
L46496 29102
" />
<path d="M46496 29384
L46889 29384
" />
<path d="M46833 29384
L46861 29412
L46889 29468
L46889 29552
L46861 29609
L46805 29637
L46496 29637
" />
<path d="M46805 29637
L46861 29665
L46889 29721
L46889 29805
L46861 29862
L46805 29890
L46496 29890
" />
<path d="M46231 24744
L46231 30649
" />
<path d="M38357 24744
L47294 24744
" />
<path d="M38357 30649
L47294 30649
" />
<path d="M46231 30649
L46000 30206
" />
<path d="M46231 30649
L46462 30206
" />
<path d="M46231 24744
L46000 25187
" />
<path d="M46231 24744
L46462 25187
" />
<path d="M40073 30913
L40101 30885
L40157 30857
L40298 30857
L40354 30885
L40382 30913
L40410 30970
L40410 31026
L40382 31110
L40044 31448
L40410 31448
" />
<path d="M40776 30857
L40832 30857
L40888 30885
L40916 30913
L40944 30970
L40973 31082
L40973 31223
L40944 31335
L40916 31392
L40888 31420
L40832 31448
L40776 31448
L40719 31420
L40691 31392
L40663 31335
L40635 31223
L40635 31082
L40663 30970
L40691 30913
L40719 30885
L40776 30857
" />
<path d="M41254 31420
L41254 31448
L41226 31504
L41197 31532
" />
<path d="M41619 30857
L41676 30857
L41732 30885
L41760 30913
L41788 30970
L41816 31082
L41816 31223
L41788 31335
L41760 31392
L41732 31420
L41676 31448
L41619 31448
L41563 31420
L41535 31392
L41507 31335
L41479 31223
L41479 31082
L41507 30970
L41535 30913
L41563 30885
L41619 30857
" />
<path d="M42182 30857
L42238 30857
L42294 30885
L42322 30913
L42350 30970
L42379 31082
L42379 31223
L42350 31335
L42322 31392
L42294 31420
L42238 31448
L42182 31448
L42125 31420
L42097 31392
L42069 31335
L42041 31223
L42041 31082
L42069 30970
L42097 30913
L42125 30885
L42182 30857
" />
<path d="M42744 30857
L42800 30857
L42857 30885
L42885 30913
L42913 30970
L42941 31082
L42941 31223
L42913 31335
L42885 31392
L42857 31420
L42800 31448
L42744 31448
L42688 31420
L42660 31392
L42632 31335
L42604 31223
L42604 31082
L42632 30970
L42660 30913
L42688 30885
L42744 30857
" />
<path d="M43194 31448
L43194 31054
" />
<path d="M43194 31110
L43222 31082
L43278 31054
L43363 31054
L43419 31082
L43447 31138
L43447 31448
" />
<path d="M43447 31138
L43475 31082
L43532 31054
L43616 31054
L43672 31082
L43700 31138
L43700 31448
" />
<path d="M43982 31448
L43982 31054
" />
<path d="M43982 31110
L44010 31082
L44066 31054
L44150 31054
L44206 31082
L44235 31138
L44235 31448
" />
<path d="M44235 31138
L44263 31082
L44319 31054
L44403 31054
L44460 31082
L44488 31138
L44488 31448
" />
<path d="M38357 30649
L46231 30649
" />
<path d="M38357 24744
L38357 31712
" />
<path d="M46231 24744
L46231 31712
" />
<path d="M46231 30649
L45788 30880
" />
<path d="M46231 30649
L45788 30418
" />
<path d="M38357 30649
L38801 30880
" />
<path d="M38357 30649
L38801 30418
" />
<path d="M23397 33416
L23059 33416
" />
<path d="M23228 33416
L23228 32826
L23172 32910
L23115 32966
L23059 32994
" />
<path d="M23762 32826
L23818 32826
L23875 32854
L23903 32882
L23931 32938
L23959 33051
L23959 33191
L23931 33304
L23903 33360
L23875 33388
L23818 33416
L23762 33416
L23706 33388
L23678 33360
L23650 33304
L23622 33191
L23622 33051
L23650 32938
L23678 32882
L23706 32854
L23762 32826
" />
<path d="M24493 32826
L24212 32826
L24184 33107
L24212 33079
L24268 33051
L24409 33051
L24465 33079
L24493 33107
L24521 33163
L24521 33304
L24493 33360
L24465 33388
L24409 33416
L24268 33416
L24212 33388
L24184 33360
" />
<path d="M24803 33388
L24803 33416
L24775 33473
L24746 33501
" />
<path d="M25168 32826
L25224 32826
L25281 32854
L25309 32882
L25337 32938
L25365 33051
L25365 33191
L25337 33304
L25309 33360
L25281 33388
L25224 33416
L25168 33416
L25112 33388
L25084 33360
L25056 33304
L25028 33191
L25028 33051
L25056 32938
L25084 32882
L25112 32854
L25168 32826
" />
<path d="M25731 32826
L25787 32826
L25843 32854
L25871 32882
L25899 32938
L25928 33051
L25928 33191
L25899 33304
L25871 33360
L25843 33388
L25787 33416
L25731 33416
L25674 33388
L25646 33360
L25618 33304
L25590 33191
L25590 33051
L25618 32938
L25646 32882
L25674 32854
L25731 32826
" />
<path d="M26293 32826
L26349 32826
L26406 32854
L26434 32882
L26462 32938
L26490 33051
L26490 33191
L26462 33304
L26434 33360
L26406 33388
L26349 33416
L26293 33416
L26237 33388
L26209 33360
L26181 33304
L26152 33191
L26152 33051
L26181 32938
L26209 32882
L26237 32854
L26293 32826
" />
<path d="M26743 33416
L26743 33023
" />
<path d="M26743 33079
L26771 33051
L26827 33023
L26912 33023
L26968 33051
L26996 33107
L26996 33416
" />
<path d="M26996 33107
L27024 33051
L27080 33023
L27165 33023
L27221 33051
L27249 33107
L27249 33416
" />
<path d="M27530 33416
L27530 33023
" />
<path d="M27530 33079
L27559 33051
L27615 33023
L27699 33023
L27755 33051
L27784 33107
L27784 33416
" />
<path d="M27784 33107
L27812 33051
L27868 33023
L27952 33023
L28008 33051
L28037 33107
L28037 33416
" />
<path d="M4893 32618
L46231 32618
" />
<path d="M4893 30649
L4893 33681
" />
<path d="M46231 30649
L46231 33681
" />
<path d="M46231 32618
L45788 32848
" />
<path d="M46231 32618
L45788 32387
" />
<path d="M4893 32618
L5336 32848
" />
<path d="M4893 32618
L5336 32387
" />
</g>
<g style="fill:#000000; fill-opacity:0.0; 
stroke:#000000; stroke-width:39.3701; stroke-opacity:1; 
stroke-linecap:round; stroke-linejoin:round;">
<path d="M44263 30649
L46231 30649
" />
<path d="M44263 3090
L46231 3090
" />
</g>
<g style="fill:#000000; fill-opacity:0.0; 
stroke:#000000; stroke-width:118.11; stroke-opacity:1; 
stroke-linecap:round; stroke-linejoin:round;">
<path d="M12823 267
L12542 267
L12514 548
L12542 520
L12598 492
L12739 492
L12795 520
L12823 548
L12851 604
L12851 745
L12823 801
L12795 829
L12739 857
L12598 857
L12542 829
L12514 801
" />
<path d="M13217 267
L13273 267
L13329 295
L13357 323
L13385 379
L13413 492
L13413 632
L13385 745
L13357 801
L13329 829
L13273 857
L13217 857
L13160 829
L13132 801
L13104 745
L13076 632
L13076 492
L13104 379
L13132 323
L13160 295
L13217 267
" />
<path d="M13695 829
L13695 857
L13667 913
L13638 942
" />
<path d="M14060 267
L14116 267
L14173 295
L14201 323
L14229 379
L14257 492
L14257 632
L14229 745
L14201 801
L14173 829
L14116 857
L14060 857
L14004 829
L13976 801
L13948 745
L13920 632
L13920 492
L13948 379
L13976 323
L14004 295
L14060 267
" />
<path d="M14623 267
L14679 267
L14735 295
L14763 323
L14791 379
L14820 492
L14820 632
L14791 745
L14763 801
L14735 829
L14679 857
L14623 857
L14566 829
L14538 801
L14510 745
L14482 632
L14482 492
L14510 379
L14538 323
L14566 295
L14623 267
" />
<path d="M15185 267
L15241 267
L15298 295
L15326 323
L15354 379
L15382 492
L15382 632
L15354 745
L15326 801
L15298 829
L15241 857
L15185 857
L15129 829
L15101 801
L15073 745
L15044 632
L15044 492
L15073 379
L15101 323
L15129 295
L15185 267
" />
<path d="M15635 857
L15635 464
" />
<path d="M15635 520
L15663 492
L15719 464
L15804 464
L15860 492
L15888 548
L15888 857
" />
<path d="M15888 548
L15916 492
L15973 464
L16057 464
L16113 492
L16141 548
L16141 857
" />
<path d="M16422 857
L16422 464
" />
<path d="M16422 520
L16451 492
L16507 464
L16591 464
L16647 492
L16676 548
L16676 857
" />
<path d="M16676 548
L16704 492
L16760 464
L16844 464
L16901 492
L16929 548
L16929 857
" />
<path d="M24578 1122
L4893 1122
" />
<path d="M24578 12933
L24578 59
" />
<path d="M4893 12933
L4893 59
" />
<path d="M4893 1122
L5336 891
" />
<path d="M4893 1122
L5336 1352
" />
<path d="M24578 1122
L24134 891
" />
<path d="M24578 1122
L24134 1352
" />
<path d="M2519 19850
L2125 19850
" />
<path d="M2744 19710
L2322 19569
L2322 19935
" />
<path d="M2716 20441
L2716 20160
L2435 20132
L2463 20160
L2491 20216
L2491 20357
L2463 20413
L2435 20441
L2379 20469
L2238 20469
L2182 20441
L2154 20413
L2125 20357
L2125 20216
L2154 20160
L2182 20132
" />
<path d="M2154 20750
L2125 20750
L2069 20722
L2041 20694
" />
<path d="M2716 21116
L2716 21172
L2688 21228
L2660 21257
L2604 21285
L2491 21313
L2350 21313
L2238 21285
L2182 21257
L2154 21228
L2125 21172
L2125 21116
L2154 21060
L2182 21032
L2238 21003
L2350 20975
L2491 20975
L2604 21003
L2660 21032
L2688 21060
L2716 21116
" />
<path d="M2716 21678
L2716 21735
L2688 21791
L2660 21819
L2604 21847
L2491 21875
L2350 21875
L2238 21847
L2182 21819
L2154 21791
L2125 21735
L2125 21678
L2154 21622
L2182 21594
L2238 21566
L2350 21538
L2491 21538
L2604 21566
L2660 21594
L2688 21622
L2716 21678
" />
<path d="M2716 22241
L2716 22297
L2688 22353
L2660 22381
L2604 22410
L2491 22438
L2350 22438
L2238 22410
L2182 22381
L2154 22353
L2125 22297
L2125 22241
L2154 22185
L2182 22156
L2238 22128
L2350 22100
L2491 22100
L2604 22128
L2660 22156
L2688 22185
L2716 22241
" />
<path d="M2125 22691
L2519 22691
" />
<path d="M2463 22691
L2491 22719
L2519 22775
L2519 22859
L2491 22916
L2435 22944
L2125 22944
" />
<path d="M2435 22944
L2491 22972
L2519 23028
L2519 23113
L2491 23169
L2435 23197
L2125 23197
" />
<path d="M2125 23478
L2519 23478
" />
<path d="M2463 23478
L2491 23506
L2519 23562
L2519 23647
L2491 23703
L2435 23731
L2125 23731
" />
<path d="M2435 23731
L2491 23759
L2519 23816
L2519 23900
L2491 23956
L2435 23984
L2125 23984
" />
<path d="M2924 12933
L2924 30649
" />
<path d="M24578 12933
L1861 12933
" />
<path d="M24578 30649
L1861 30649
" />
<path d="M2924 30649
L2693 30206
" />
<path d="M2924 30649
L3155 30206
" />
<path d="M2924 12933
L2693 13376
" />
<path d="M2924 12933
L3155 13376
" />
<path d="M22328 2235
L22722 2235
L22469 2826
" />
<path d="M23059 2235
L23115 2235
L23172 2263
L23200 2291
L23228 2348
L23256 2460
L23256 2601
L23228 2713
L23200 2769
L23172 2798
L23115 2826
L23059 2826
L23003 2798
L22975 2769
L22947 2713
L22919 2601
L22919 2460
L22947 2348
L22975 2291
L23003 2263
L23059 2235
" />
<path d="M23537 2798
L23537 2826
L23509 2882
L23481 2910
" />
<path d="M23903 2235
L23959 2235
L24015 2263
L24043 2291
L24071 2348
L24100 2460
L24100 2601
L24071 2713
L24043 2769
L24015 2798
L23959 2826
L23903 2826
L23847 2798
L23818 2769
L23790 2713
L23762 2601
L23762 2460
L23790 2348
L23818 2291
L23847 2263
L23903 2235
" />
<path d="M24465 2235
L24521 2235
L24578 2263
L24606 2291
L24634 2348
L24662 2460
L24662 2601
L24634 2713
L24606 2769
L24578 2798
L24521 2826
L24465 2826
L24409 2798
L24381 2769
L24353 2713
L24325 2601
L24325 2460
L24353 2348
L24381 2291
L24409 2263
L24465 2235
" />
<path d="M25028 2235
L25084 2235
L25140 2263
L25168 2291
L25196 2348
L25224 2460
L25224 2601
L25196 2713
L25168 2769
L25140 2798
L25084 2826
L25028 2826
L24971 2798
L24943 2769
L24915 2713
L24887 2601
L24887 2460
L24915 2348
L24943 2291
L24971 2263
L25028 2235
" />
<path d="M25478 2826
L25478 2432
" />
<path d="M25478 2488
L25506 2460
L25562 2432
L25646 2432
L25703 2460
L25731 2516
L25731 2826
" />
<path d="M25731 2516
L25759 2460
L25815 2432
L25899 2432
L25956 2460
L25984 2516
L25984 2826
" />
<path d="M26265 2826
L26265 2432
" />
<path d="M26265 2488
L26293 2460
L26349 2432
L26434 2432
L26490 2460
L26518 2516
L26518 2826
" />
<path d="M26518 2516
L26546 2460
L26602 2432
L26687 2432
L26743 2460
L26771 2516
L26771 2826
" />
<path d="M10798 3090
L38357 3090
" />
<path d="M10798 8996
L10798 2027
" />
<path d="M38357 8996
L38357 2027
" />
<path d="M38357 3090
L37914 3321
" />
<path d="M38357 3090
L37914 2859
" />
<path d="M10798 3090
L11242 3321
" />
<path d="M10798 3090
L11242 2859
" />
<path d="M4488 14929
L4094 14929
" />
<path d="M4713 14789
L4291 14648
L4291 15014
" />
<path d="M4685 15351
L4685 15407
L4656 15464
L4628 15492
L4572 15520
L4460 15548
L4319 15548
L4206 15520
L4150 15492
L4122 15464
L4094 15407
L4094 15351
L4122 15295
L4150 15267
L4206 15239
L4319 15210
L4460 15210
L4572 15239
L4628 15267
L4656 15295
L4685 15351
" />
<path d="M4122 15829
L4094 15829
L4038 15801
L4010 15773
" />
<path d="M4685 16195
L4685 16251
L4656 16307
L4628 16335
L4572 16363
L4460 16392
L4319 16392
L4206 16363
L4150 16335
L4122 16307
L4094 16251
L4094 16195
L4122 16138
L4150 16110
L4206 16082
L4319 16054
L4460 16054
L4572 16082
L4628 16110
L4656 16138
L4685 16195
" />
<path d="M4685 16757
L4685 16813
L4656 16870
L4628 16898
L4572 16926
L4460 16954
L4319 16954
L4206 16926
L4150 16898
L4122 16870
L4094 16813
L4094 16757
L4122 16701
L4150 16673
L4206 16645
L4319 16616
L4460 16616
L4572 16645
L4628 16673
L4656 16701
L4685 16757
" />
<path d="M4685 17320
L4685 17376
L4656 17432
L4628 17460
L4572 17488
L4460 17516
L4319 17516
L4206 17488
L4150 17460
L4122 17432
L4094 17376
L4094 17320
L4122 17263
L4150 17235
L4206 17207
L4319 17179
L4460 17179
L4572 17207
L4628 17235
L4656 17263
L4685 17320
" />
<path d="M4094 17769
L4488 17769
" />
<path d="M4431 17769
L4460 17798
L4488 17854
L4488 17938
L4460 17994
L4403 18023
L4094 18023
" />
<path d="M4403 18023
L4460 18051
L4488 18107
L4488 18191
L4460 18248
L4403 18276
L4094 18276
" />
<path d="M4094 18557
L4488 18557
" />
<path d="M4431 18557
L4460 18585
L4488 18641
L4488 18726
L4460 18782
L4403 18810
L4094 18810
" />
<path d="M4403 18810
L4460 18838
L4488 18894
L4488 18979
L4460 19035
L4403 19063
L4094 19063
" />
<path d="M4893 8996
L4893 24744
" />
<path d="M10798 8996
L3830 8996
" />
<path d="M10798 24744
L3830 24744
" />
<path d="M4893 24744
L4662 24300
" />
<path d="M4893 24744
L5124 24300
" />
<path d="M4893 8996
L4662 9439
" />
<path d="M4893 8996
L5124 9439
" />
<path d="M4094 25812
L4094 25475
" />
<path d="M4094 25643
L4685 25643
L4600 25587
L4544 25531
L4516 25475
" />
<path d="M4685 26347
L4685 26065
L4403 26037
L4431 26065
L4460 26122
L4460 26262
L4431 26318
L4403 26347
L4347 26375
L4206 26375
L4150 26347
L4122 26318
L4094 26262
L4094 26122
L4122 26065
L4150 26037
" />
<path d="M4122 26656
L4094 26656
L4038 26628
L4010 26600
" />
<path d="M4685 27021
L4685 27078
L4656 27134
L4628 27162
L4572 27190
L4460 27218
L4319 27218
L4206 27190
L4150 27162
L4122 27134
L4094 27078
L4094 27021
L4122 26965
L4150 26937
L4206 26909
L4319 26881
L4460 26881
L4572 26909
L4628 26937
L4656 26965
L4685 27021
" />
<path d="M4685 27584
L4685 27640
L4656 27696
L4628 27724
L4572 27753
L4460 27781
L4319 27781
L4206 27753
L4150 27724
L4122 27696
L4094 27640
L4094 27584
L4122 27528
L4150 27500
L4206 27471
L4319 27443
L4460 27443
L4572 27471
L4628 27500
L4656 27528
L4685 27584
" />
<path d="M4685 28146
L4685 28203
L4656 28259
L4628 28287
L4572 28315
L4460 28343
L4319 28343
L4206 28315
L4150 28287
L4122 28259
L4094 28203
L4094 28146
L4122 28090
L4150 28062
L4206 28034
L4319 28006
L4460 28006
L4572 28034
L4628 28062
L4656 28090
L4685 28146
" />
<path d="M4094 28596
L4488 28596
" />
<path d="M4431 28596
L4460 28624
L4488 28681
L4488 28765
L4460 28821
L4403 28849
L4094 28849
" />
<path d="M4403 28849
L4460 28877
L4488 28934
L4488 29018
L4460 29074
L4403 29102
L4094 29102
" />
<path d="M4094 29384
L4488 29384
" />
<path d="M4431 29384
L4460 29412
L4488 29468
L4488 29552
L4460 29609
L4403 29637
L4094 29637
" />
<path d="M4403 29637
L4460 29665
L4488 29721
L4488 29805
L4460 29862
L4403 29890
L4094 29890
" />
<path d="M4893 24744
L4893 30649
" />
<path d="M10798 24744
L3830 24744
" />
<path d="M10798 30649
L3830 30649
" />
<path d="M4893 30649
L4662 30206
" />
<path d="M4893 30649
L5124 30206
" />
<path d="M4893 24744
L4662 25187
" />
<path d="M4893 24744
L5124 25187
" />
<path d="M5961 33416
L5624 33416
" />
<path d="M5793 33416
L5793 32826
L5736 32910
L5680 32966
L5624 32994
" />
<path d="M6496 32826
L6214 32826
L6186 33107
L6214 33079
L6271 33051
L6411 33051
L6467 33079
L6496 33107
L6524 33163
L6524 33304
L6496 33360
L6467 33388
L6411 33416
L6271 33416
L6214 33388
L6186 33360
" />
<path d="M6805 33388
L6805 33416
L6777 33473
L6749 33501
" />
<path d="M7170 32826
L7227 32826
L7283 32854
L7311 32882
L7339 32938
L7367 33051
L7367 33191
L7339 33304
L7311 33360
L7283 33388
L7227 33416
L7170 33416
L7114 33388
L7086 33360
L7058 33304
L7030 33191
L7030 33051
L7058 32938
L7086 32882
L7114 32854
L7170 32826
" />
<path d="M7733 32826
L7789 32826
L7845 32854
L7874 32882
L7902 32938
L7930 33051
L7930 33191
L7902 33304
L7874 33360
L7845 33388
L7789 33416
L7733 33416
L7677 33388
L7649 33360
L7620 33304
L7592 33191
L7592 33051
L7620 32938
L7649 32882
L7677 32854
L7733 32826
" />
<path d="M8295 32826
L8352 32826
L8408 32854
L8436 32882
L8464 32938
L8492 33051
L8492 33191
L8464 33304
L8436 33360
L8408 33388
L8352 33416
L8295 33416
L8239 33388
L8211 33360
L8183 33304
L8155 33191
L8155 33051
L8183 32938
L8211 32882
L8239 32854
L8295 32826
" />
<path d="M8745 33416
L8745 33023
" />
<path d="M8745 33079
L8773 33051
L8830 33023
L8914 33023
L8970 33051
L8998 33107
L8998 33416
" />
<path d="M8998 33107
L9026 33051
L9083 33023
L9167 33023
L9223 33051
L9251 33107
L9251 33416
" />
<path d="M9533 33416
L9533 33023
" />
<path d="M9533 33079
L9561 33051
L9617 33023
L9701 33023
L9758 33051
L9786 33107
L9786 33416
" />
<path d="M9786 33107
L9814 33051
L9870 33023
L9955 33023
L10011 33051
L10039 33107
L10039 33416
" />
<path d="M10798 32618
L4893 32618
" />
<path d="M10798 24744
L10798 33681
" />
<path d="M4893 24744
L4893 33681
" />
<path d="M4893 32618
L5336 32387
" />
<path d="M4893 32618
L5336 32848
" />
<path d="M10798 32618
L10355 32387
" />
<path d="M10798 32618
L10355 32848
" />
</g>
<g style="fill:#000000; fill-opacity:0.0; 
stroke:#000000; stroke-width:39.3701; stroke-opacity:1; 
stroke-linecap:round; stroke-linejoin:round;">
<circle cx="44263.2" cy="28681.1" r="984.252" /> 
<circle cx="6861.64" cy="5059.06" r="984.252" /> 
<circle cx="44263.2" cy="5059.06" r="984.252" /> 
<circle cx="6861.64" cy="28681.1" r="984.252" /> 
<path d="M4893 3090
L44263 3090
" />
<path d="M4893 30649
L4893 3090
" />
<path d="M44263 30649
L4893 30649
" />
<path d="M46231 3090
L46231 30649
" />
</g>
<g style="fill:#000000; fill-opacity:0.0; 
stroke:#000000; stroke-width:118.11; stroke-opacity:1; 
stroke-linecap:round; stroke-linejoin:round;">
<path d="M51023 14620
L51023 15014
L50433 14760
" />
<path d="M51023 15351
L51023 15407
L50995 15464
L50967 15492
L50911 15520
L50798 15548
L50658 15548
L50545 15520
L50489 15492
L50461 15464
L50433 15407
L50433 15351
L50461 15295
L50489 15267
L50545 15239
L50658 15210
L50798 15210
L50911 15239
L50967 15267
L50995 15295
L51023 15351
" />
<path d="M50461 15829
L50433 15829
L50376 15801
L50348 15773
" />
<path d="M51023 16195
L51023 16251
L50995 16307
L50967 16335
L50911 16363
L50798 16392
L50658 16392
L50545 16363
L50489 16335
L50461 16307
L50433 16251
L50433 16195
L50461 16138
L50489 16110
L50545 16082
L50658 16054
L50798 16054
L50911 16082
L50967 16110
L50995 16138
L51023 16195
" />
<path d="M51023 16757
L51023 16813
L50995 16870
L50967 16898
L50911 16926
L50798 16954
L50658 16954
L50545 16926
L50489 16898
L50461 16870
L50433 16813
L50433 16757
L50461 16701
L50489 16673
L50545 16645
L50658 16616
L50798 16616
L50911 16645
L50967 16673
L50995 16701
L51023 16757
" />
<path d="M51023 17320
L51023 17376
L50995 17432
L50967 17460
L50911 17488
L50798 17516
L50658 17516
L50545 17488
L50489 17460
L50461 17432
L50433 17376
L50433 17320
L50461 17263
L50489 17235
L50545 17207
L50658 17179
L50798 17179
L50911 17207
L50967 17235
L50995 17263
L51023 17320
" />
<path d="M50433 17769
L50826 17769
" />
<path d="M50770 17769
L50798 17798
L50826 17854
L50826 17938
L50798 17994
L50742 18023
L50433 18023
" />
<path d="M50742 18023
L50798 18051
L50826 18107
L50826 18191
L50798 18248
L50742 18276
L50433 18276
" />
<path d="M50433 18557
L50826 18557
" />
<path d="M50770 18557
L50798 18585
L50826 18641
L50826 18726
L50798 18782
L50742 18810
L50433 18810
" />
<path d="M50742 18810
L50798 18838
L50826 18894
L50826 18979
L50798 19035
L50742 19063
L50433 19063
" />
<path d="M50168 3090
L50168 30649
" />
<path d="M44263 3090
L51231 3090
" />
<path d="M44263 30649
L51231 30649
" />
<path d="M50168 30649
L49937 30206
" />
<path d="M50168 30649
L50399 30206
" />
<path d="M50168 3090
L49937 3534
" />
<path d="M50168 3090
L50399 3534
" />
</g> 
</svg>
