<?xml version="1.0" standalone="no"?>
 <!DOCTYPE svg PUBLIC "-//W3C//DTD SVG 1.1//EN" 
 "http://www.w3.org/Graphics/SVG/1.1/DTD/svg11.dtd"> 
<svg xmlns="http://www.w3.org/2000/svg" version="1.1" 
    width="13.4849cm" height="8.55472cm" viewBox="0 0 53090 33680 ">
<title>SVG Picture created as D21_2550-F.Paste.svg date 2016/04/15 21:49:43 </title>
  <desc>Picture generated by PCBNEW </desc>
<g style="fill:#000000; fill-opacity:1;stroke:#000000; stroke-opacity:1;
stroke-linecap:round; stroke-linejoin:round; "
 transform="translate(0 0) scale(1 1)">
</g>
<g style="fill:#000000; fill-opacity:0.0; 
stroke:#000000; stroke-width:-0.000393701; stroke-opacity:1; 
stroke-linecap:round; stroke-linejoin:round;">
</g>
<g style="fill:#000000; fill-opacity:0.0; 
stroke:#000000; stroke-width:39.3701; stroke-opacity:1; 
stroke-linecap:round; stroke-linejoin:round;">
<path d="M44263 30649
L46231 30649
" />
<path d="M44263 3090
L46231 3090
" />
<circle cx="44263.2" cy="28681.1" r="984.252" /> 
<circle cx="6861.64" cy="5059.06" r="984.252" /> 
<circle cx="44263.2" cy="5059.06" r="984.252" /> 
<circle cx="6861.64" cy="28681.1" r="984.252" /> 
<path d="M4893 3090
L44263 3090
" />
<path d="M4893 30649
L4893 3090
" />
<path d="M44263 30649
L4893 30649
" />
<path d="M46231 3090
L46231 30649
" />
</g>
<g style="fill:#000000; fill-opacity:0.0; 
stroke:#000000; stroke-width:0; stroke-opacity:1; 
stroke-linecap:round; stroke-linejoin:round;">
</g>
<g style="fill:#000000; fill-opacity:1.0; 
stroke:#000000; stroke-width:0; stroke-opacity:1; 
stroke-linecap:round; stroke-linejoin:round;">
<polyline style="fill-rule:evenodd;"
points="15247,9952
14735,9952
14735,9362
15247,9362
15247,9952
" /> 
<polyline style="fill-rule:evenodd;"
points="15247,8889
14735,8889
14735,8299
15247,8299
15247,8889
" /> 
<polyline style="fill-rule:evenodd;"
points="39318,11870
39318,12381
38727,12381
38727,11870
39318,11870
" /> 
<polyline style="fill-rule:evenodd;"
points="38255,11870
38255,12381
37664,12381
37664,11870
38255,11870
" /> 
<polyline style="fill-rule:evenodd;"
points="29818,17120
29818,17631
29227,17631
29227,17120
29818,17120
" /> 
<polyline style="fill-rule:evenodd;"
points="28755,17120
28755,17631
28164,17631
28164,17120
28755,17120
" /> 
<polyline style="fill-rule:evenodd;"
points="23568,17120
23568,17631
22977,17631
22977,17120
23568,17120
" /> 
<polyline style="fill-rule:evenodd;"
points="22505,17120
22505,17631
21914,17631
21914,17120
22505,17120
" /> 
<polyline style="fill-rule:evenodd;"
points="17568,17120
17568,17631
16977,17631
16977,17120
17568,17120
" /> 
<polyline style="fill-rule:evenodd;"
points="16505,17120
16505,17631
15914,17631
15914,17120
16505,17120
" /> 
<polyline style="fill-rule:evenodd;"
points="23985,4299
24497,4299
24497,4889
23985,4889
23985,4299
" /> 
<polyline style="fill-rule:evenodd;"
points="23985,5362
24497,5362
24497,5952
23985,5952
23985,5362
" /> 
<polyline style="fill-rule:evenodd;"
points="29914,6131
29914,5620
30505,5620
30505,6131
29914,6131
" /> 
<polyline style="fill-rule:evenodd;"
points="30977,6131
30977,5620
31568,5620
31568,6131
30977,6131
" /> 
<polyline style="fill-rule:evenodd;"
points="39914,11381
39914,10870
40505,10870
40505,11381
39914,11381
" /> 
<polyline style="fill-rule:evenodd;"
points="40977,11381
40977,10870
41568,10870
41568,11381
40977,11381
" /> 
<polyline style="fill-rule:evenodd;"
points="39914,12381
39914,11870
40505,11870
40505,12381
39914,12381
" /> 
<polyline style="fill-rule:evenodd;"
points="40977,12381
40977,11870
41568,11870
41568,12381
40977,12381
" /> 
<polyline style="fill-rule:evenodd;"
points="14735,23799
15247,23799
15247,24389
14735,24389
14735,23799
" /> 
<polyline style="fill-rule:evenodd;"
points="14735,24862
15247,24862
15247,25452
14735,25452
14735,24862
" /> 
<polyline style="fill-rule:evenodd;"
points="34747,9952
34235,9952
34235,9362
34747,9362
34747,9952
" /> 
<polyline style="fill-rule:evenodd;"
points="34747,8889
34235,8889
34235,8299
34747,8299
34747,8889
" /> 
<polyline style="fill-rule:evenodd;"
points="34247,25452
33735,25452
33735,24862
34247,24862
34247,25452
" /> 
<polyline style="fill-rule:evenodd;"
points="34247,24389
33735,24389
33735,23799
34247,23799
34247,24389
" /> 
<polyline style="fill-rule:evenodd;"
points="26023,4180
26023,4889
25708,4889
25708,4180
26023,4180
" /> 
<polyline style="fill-rule:evenodd;"
points="25275,4180
25275,4889
24960,4889
24960,4180
25275,4180
" /> 
<polyline style="fill-rule:evenodd;"
points="25649,5362
25649,6071
25334,6071
25334,5362
25649,5362
" /> 
<polyline style="fill-rule:evenodd;"
points="29796,3844
30505,3844
30505,4159
29796,4159
29796,3844
" /> 
<polyline style="fill-rule:evenodd;"
points="29796,4592
30505,4592
30505,4907
29796,4907
29796,4592
" /> 
<polyline style="fill-rule:evenodd;"
points="30978,4218
31687,4218
31687,4533
30978,4533
30978,4218
" /> 
<polyline style="fill-rule:evenodd;"
points="37836,21767
37836,21287
38194,21287
38194,21767
37836,21767
" /> 
<polyline style="fill-rule:evenodd;"
points="39123,21767
39123,21287
39481,21287
39481,21767
39123,21767
" /> 
<polyline style="fill-rule:evenodd;"
points="41564,12885
41564,13366
41206,13366
41206,12885
41564,12885
" /> 
<polyline style="fill-rule:evenodd;"
points="40276,12885
40276,13366
39918,13366
39918,12885
40276,12885
" /> 
<polyline style="fill-rule:evenodd;"
points="14924,15389
14412,15389
14412,14799
14924,14799
14924,15389
" /> 
<polyline style="fill-rule:evenodd;"
points="14924,14326
14412,14326
14412,13736
14924,13736
14924,14326
" /> 
</g> 
</svg>
