<?xml version="1.0" standalone="no"?>
 <!DOCTYPE svg PUBLIC "-//W3C//DTD SVG 1.1//EN" 
 "http://www.w3.org/Graphics/SVG/1.1/DTD/svg11.dtd"> 
<svg xmlns="http://www.w3.org/2000/svg" version="1.1" 
    width="13.4849cm" height="8.55472cm" viewBox="0 0 53090 33680 ">
<title>SVG Picture created as D21_2550-B.CrtYd.svg date 2016/04/15 21:49:43 </title>
  <desc>Picture generated by PCBNEW </desc>
<g style="fill:#000000; fill-opacity:1;stroke:#000000; stroke-opacity:1;
stroke-linecap:round; stroke-linejoin:round; "
 transform="translate(0 0) scale(1 1)">
</g>
<g style="fill:#000000; fill-opacity:0.0; 
stroke:#000000; stroke-width:-0.000393701; stroke-opacity:1; 
stroke-linecap:round; stroke-linejoin:round;">
</g>
<g style="fill:#000000; fill-opacity:0.0; 
stroke:#000000; stroke-width:39.3701; stroke-opacity:1; 
stroke-linecap:round; stroke-linejoin:round;">
<path d="M44263 30649
L46231 30649
" />
<path d="M44263 3090
L46231 3090
" />
<circle cx="44263.2" cy="28681.1" r="984.252" /> 
<circle cx="6861.64" cy="5059.06" r="984.252" /> 
<circle cx="44263.2" cy="5059.06" r="984.252" /> 
<circle cx="6861.64" cy="28681.1" r="984.252" /> 
<path d="M4893 3090
L44263 3090
" />
<path d="M4893 30649
L4893 3090
" />
<path d="M44263 30649
L4893 30649
" />
<path d="M46231 3090
L46231 30649
" />
</g>
<g style="fill:#000000; fill-opacity:0.0; 
stroke:#000000; stroke-width:19.685; stroke-opacity:1; 
stroke-linecap:round; stroke-linejoin:round;">
<path d="M24928 26236
L34928 26236
" />
<path d="M24928 30251
L24928 26236
" />
<path d="M34928 30251
L24928 30251
" />
<path d="M34928 26236
L34928 30251
" />
<path d="M42302 9314
L42302 6933
" />
<path d="M43680 9314
L43680 6933
" />
<path d="M42302 9314
L43680 9314
" />
<path d="M42302 6933
L43680 6933
" />
<path d="M43680 9937
L43680 12318
" />
<path d="M42302 9937
L42302 12318
" />
<path d="M43680 9937
L42302 9937
" />
<path d="M43680 12318
L42302 12318
" />
<path d="M15885 9476
L15885 11366
" />
<path d="M16672 9476
L16672 11366
" />
<path d="M15885 9476
L16672 9476
" />
<path d="M15885 11366
L16672 11366
" />
<path d="M43086 19019
L44897 19019
" />
<path d="M43086 18232
L44897 18232
" />
<path d="M43086 19019
L43086 18232
" />
<path d="M44897 19019
L44897 18232
" />
<path d="M43038 17870
L44849 17870
" />
<path d="M43038 17082
L44849 17082
" />
<path d="M43038 17870
L43038 17082
" />
<path d="M44849 17870
L44849 17082
" />
<path d="M42584 12964
L42584 20287
" />
<path d="M37899 12964
L37899 20287
" />
<path d="M42584 12964
L37899 12964
" />
<path d="M42584 20287
L37899 20287
" />
<circle cx="34097.9" cy="11626" r="1102.36" /> 
<path d="M33885 15070
L33885 13181
" />
<path d="M33097 15070
L33097 13181
" />
<path d="M33885 15070
L33097 15070
" />
<path d="M33885 13181
L33097 13181
" />
<path d="M33885 17570
L33885 15681
" />
<path d="M33097 17570
L33097 15681
" />
<path d="M33885 17570
L33097 17570
" />
<path d="M33885 15681
L33097 15681
" />
<path d="M33885 20070
L33885 18181
" />
<path d="M33097 20070
L33097 18181
" />
<path d="M33885 20070
L33097 20070
" />
<path d="M33885 18181
L33097 18181
" />
<circle cx="15180.5" cy="12876" r="1692.91" /> 
</g> 
</svg>
