<?xml version="1.0" standalone="no"?>
 <!DOCTYPE svg PUBLIC "-//W3C//DTD SVG 1.1//EN" 
 "http://www.w3.org/Graphics/SVG/1.1/DTD/svg11.dtd"> 
<svg xmlns="http://www.w3.org/2000/svg" version="1.1" 
    width="13.4849cm" height="8.55472cm" viewBox="0 0 53090 33680 ">
<title>SVG Picture created as D21_2550-B.SilkS.svg date 2016/04/15 21:49:43 </title>
  <desc>Picture generated by PCBNEW </desc>
<g style="fill:#000000; fill-opacity:1;stroke:#000000; stroke-opacity:1;
stroke-linecap:round; stroke-linejoin:round; "
 transform="translate(0 0) scale(1 1)">
</g>
<g style="fill:#000000; fill-opacity:0.0; 
stroke:#000000; stroke-width:-0.000393701; stroke-opacity:1; 
stroke-linecap:round; stroke-linejoin:round;">
</g>
<g style="fill:#000000; fill-opacity:0.0; 
stroke:#000000; stroke-width:39.3701; stroke-opacity:1; 
stroke-linecap:round; stroke-linejoin:round;">
<path d="M44263 30649
L46231 30649
" />
<path d="M44263 3090
L46231 3090
" />
<circle cx="44263.2" cy="28681.1" r="984.252" /> 
<circle cx="6861.64" cy="5059.06" r="984.252" /> 
<circle cx="44263.2" cy="5059.06" r="984.252" /> 
<circle cx="6861.64" cy="28681.1" r="984.252" /> 
<path d="M4893 3090
L44263 3090
" />
<path d="M4893 30649
L4893 3090
" />
<path d="M44263 30649
L4893 30649
" />
<path d="M46231 3090
L46231 30649
" />
</g>
<g style="fill:#000000; fill-opacity:0.0; 
stroke:#000000; stroke-width:59.0551; stroke-opacity:1; 
stroke-linecap:round; stroke-linejoin:round;">
<path d="M30219 25981
L30219 25587
L30069 25587
L30031 25606
L30012 25625
L29994 25662
L29994 25718
L30012 25756
L30031 25775
L30069 25793
L30219 25793
" />
<path d="M29619 25981
L29844 25981
" />
<path d="M29731 25981
L29731 25587
L29769 25643
L29806 25681
L29844 25700
" />
<path d="M43282 10811
L43282 10418
L43132 10418
L43094 10437
L43075 10455
L43057 10493
L43057 10549
L43075 10586
L43094 10605
L43132 10624
L43282 10624
" />
<path d="M42907 10455
L42888 10437
L42850 10418
L42757 10418
L42719 10437
L42700 10455
L42682 10493
L42682 10530
L42700 10586
L42925 10811
L42682 10811
" />
<path d="M43282 8796
L43282 8402
L43132 8402
L43094 8421
L43075 8440
L43057 8477
L43057 8533
L43075 8571
L43094 8589
L43132 8608
L43282 8608
" />
<path d="M42925 8402
L42682 8402
L42813 8552
L42757 8552
L42719 8571
L42700 8589
L42682 8627
L42682 8721
L42700 8758
L42719 8777
L42757 8796
L42869 8796
L42907 8777
L42925 8758
" />
<path d="M15630 10168
L15442 10036
" />
<path d="M15630 9943
L15236 9943
L15236 10093
L15255 10130
L15274 10149
L15311 10168
L15367 10168
L15405 10149
L15424 10130
L15442 10093
L15442 9943
" />
<path d="M15630 10543
L15630 10318
" />
<path d="M15630 10430
L15236 10430
L15292 10393
L15330 10355
L15349 10318
" />
<path d="M15274 10693
L15255 10711
L15236 10749
L15236 10843
L15255 10880
L15274 10899
L15311 10918
L15349 10918
L15405 10899
L15630 10674
L15630 10918
" />
<path d="M16207 4838
L16188 4800
L16150 4763
L16094 4707
L16075 4669
L16075 4632
" />
<path d="M16169 4651
L16150 4613
L16113 4576
L16038 4557
L15907 4557
L15832 4576
L15794 4613
L15775 4651
L15775 4726
L15794 4763
L15832 4800
L15907 4819
L16038 4819
L16113 4800
L16150 4763
L16169 4726
L16169 4651
" />
<path d="M16169 5194
L16169 4969
" />
<path d="M16169 5082
L15775 5082
L15832 5044
L15869 5007
L15888 4969
" />
<path d="M44057 19593
L44075 19612
L44132 19630
L44169 19630
L44225 19612
L44263 19574
L44282 19537
L44300 19462
L44300 19405
L44282 19330
L44263 19293
L44225 19255
L44169 19237
L44132 19237
L44075 19255
L44057 19274
" />
<path d="M43907 19274
L43888 19255
L43850 19237
L43757 19237
L43719 19255
L43700 19274
L43682 19312
L43682 19349
L43700 19405
L43925 19630
L43682 19630
" />
<path d="M44009 18443
L44028 18462
L44084 18481
L44122 18481
L44178 18462
L44216 18425
L44234 18387
L44253 18312
L44253 18256
L44234 18181
L44216 18143
L44178 18106
L44122 18087
L44084 18087
L44028 18106
L44009 18125
" />
<path d="M43878 18087
L43634 18087
L43766 18237
L43709 18237
L43672 18256
L43653 18275
L43634 18312
L43634 18406
L43653 18443
L43672 18462
L43709 18481
L43822 18481
L43859 18462
L43878 18443
" />
<path d="M40541 12453
L40541 12772
L40522 12809
L40504 12828
L40466 12847
L40391 12847
L40354 12828
L40335 12809
L40316 12772
L40316 12453
" />
<path d="M39922 12847
L40147 12847
" />
<path d="M40035 12847
L40035 12453
L40072 12509
L40110 12547
L40147 12566
" />
<path d="M34163 10270
L34182 10289
L34238 10308
L34275 10308
L34332 10289
L34369 10251
L34388 10214
L34407 10139
L34407 10083
L34388 10008
L34369 9970
L34332 9933
L34275 9914
L34238 9914
L34182 9933
L34163 9951
" />
<path d="M34032 9914
L33769 9914
L33938 10308
" />
<path d="M34496 13872
L34308 13741
" />
<path d="M34496 13647
L34102 13647
L34102 13797
L34121 13835
L34140 13854
L34177 13872
L34233 13872
L34271 13854
L34290 13835
L34308 13797
L34308 13647
" />
<path d="M34140 14022
L34121 14041
L34102 14079
L34102 14172
L34121 14210
L34140 14229
L34177 14247
L34215 14247
L34271 14229
L34496 14004
L34496 14247
" />
<path d="M34233 14585
L34496 14585
" />
<path d="M34083 14491
L34365 14397
L34365 14641
" />
<path d="M34496 16372
L34308 16241
" />
<path d="M34496 16147
L34102 16147
L34102 16297
L34121 16335
L34140 16354
L34177 16372
L34233 16372
L34271 16354
L34290 16335
L34308 16297
L34308 16147
" />
<path d="M34140 16522
L34121 16541
L34102 16579
L34102 16672
L34121 16710
L34140 16729
L34177 16747
L34215 16747
L34271 16729
L34496 16504
L34496 16747
" />
<path d="M34102 17104
L34102 16916
L34290 16897
L34271 16916
L34252 16954
L34252 17047
L34271 17085
L34290 17104
L34327 17122
L34421 17122
L34458 17104
L34477 17085
L34496 17047
L34496 16954
L34477 16916
L34458 16897
" />
<path d="M34496 18872
L34308 18741
" />
<path d="M34496 18647
L34102 18647
L34102 18797
L34121 18835
L34140 18854
L34177 18872
L34233 18872
L34271 18854
L34290 18835
L34308 18797
L34308 18647
" />
<path d="M34140 19022
L34121 19041
L34102 19079
L34102 19172
L34121 19210
L34140 19229
L34177 19247
L34215 19247
L34271 19229
L34496 19004
L34496 19247
" />
<path d="M34102 19585
L34102 19510
L34121 19472
L34140 19454
L34196 19416
L34271 19397
L34421 19397
L34458 19416
L34477 19435
L34496 19472
L34496 19547
L34477 19585
L34458 19604
L34421 19622
L34327 19622
L34290 19604
L34271 19585
L34252 19547
L34252 19472
L34271 19435
L34290 19416
L34327 19397
" />
<path d="M15246 15103
L15264 15121
L15321 15140
L15358 15140
L15414 15121
L15452 15084
L15471 15046
L15489 14971
L15489 14915
L15471 14840
L15452 14803
L15414 14765
L15358 14747
L15321 14747
L15264 14765
L15246 14784
" />
<path d="M14871 15140
L15096 15140
" />
<path d="M14983 15140
L14983 14747
L15021 14803
L15058 14840
L15096 14859
" />
<path d="M7037 18202
L7056 18183
L7075 18127
L7075 18089
L7056 18033
L7018 17995
L6981 17977
L6906 17958
L6850 17958
L6775 17977
L6737 17995
L6700 18033
L6681 18089
L6681 18127
L6700 18183
L6718 18202
" />
<path d="M6850 18427
L6831 18389
L6812 18370
L6775 18352
L6756 18352
L6718 18370
L6700 18389
L6681 18427
L6681 18502
L6700 18539
L6718 18558
L6756 18577
L6775 18577
L6812 18558
L6831 18539
L6850 18502
L6850 18427
L6868 18389
L6887 18370
L6925 18352
L7000 18352
L7037 18370
L7056 18389
L7075 18427
L7075 18502
L7056 18539
L7037 18558
L7000 18577
L6925 18577
L6887 18558
L6868 18539
L6850 18502
" />
<path d="M32881 26511
L32881 26314
" />
<circle cx="33865.6" cy="28086.6" r="787.402" /> 
<path d="M30912 26511
L30912 26314
" />
<circle cx="31897.1" cy="28086.6" r="787.402" /> 
<circle cx="29928.6" cy="28086.6" r="787.402" /> 
<path d="M28944 26511
L28944 26314
" />
<path d="M26975 26511
L26975 26314
" />
<circle cx="27960.1" cy="28086.6" r="787.402" /> 
<circle cx="25991.6" cy="28086.6" r="787.402" /> 
<path d="M25007 27102
L34849 27102
" />
<path d="M25007 29031
L34849 29031
" />
<path d="M25007 26511
L34849 26511
" />
<path d="M25007 26314
L34849 26314
" />
<path d="M34849 26314
L34849 30173
" />
<path d="M34849 30173
L25007 30173
" />
<path d="M25007 30173
L25007 26314
" />
<path d="M43491 8125
L43491 7125
" />
<path d="M43601 9236
L43601 8625
" />
<path d="M43491 8125
L42491 8125
" />
<path d="M42381 8625
L42381 9236
" />
<path d="M42381 9236
L43601 9236
" />
<path d="M42491 8125
L42491 7125
" />
<path d="M42491 7125
L43491 7125
" />
<path d="M42491 11125
L42491 12125
" />
<path d="M42381 10015
L42381 10625
" />
<path d="M42491 11125
L43491 11125
" />
<path d="M43601 10625
L43601 10015
" />
<path d="M43601 10015
L42381 10015
" />
<path d="M43491 11125
L43491 12125
" />
<path d="M43491 12125
L42491 12125
" />
<path d="M16623 10657
L16623 10185
" />
<path d="M15934 10185
L15934 10657
" />
<path d="M17511 4285
L17235 4285
" />
<path d="M17235 4285
L17235 4383
" />
<path d="M17235 5387
L17235 5466
" />
<path d="M17235 5466
L17511 5466
" />
<path d="M44188 18960
L43794 18960
" />
<path d="M43794 18291
L44188 18291
" />
<path d="M44141 17811
L43747 17811
" />
<path d="M43747 17141
L44141 17141
" />
<path d="M41767 13033
L41767 13169
" />
<path d="M38715 13033
L38715 13169
" />
<path d="M38715 20218
L38715 20082
" />
<path d="M41767 20218
L41767 20082
" />
<path d="M41767 13033
L38715 13033
" />
<path d="M41767 20218
L38715 20218
" />
<path d="M41767 13169
L42485 13169
" />
<path d="M34068 10642
L34068 12609
" />
<path d="M34013 10645
L34013 11565
" />
<path d="M34013 11686
L34013 12606
" />
<path d="M33958 10651
L33958 11439
" />
<path d="M33958 11812
L33958 12600
" />
<path d="M33902 10661
L33902 11381
" />
<path d="M33902 11870
L33902 12590
" />
<path d="M33847 10674
L33847 11345
" />
<path d="M33847 11906
L33847 12577
" />
<path d="M33792 10690
L33792 11323
" />
<path d="M33792 11928
L33792 12561
" />
<path d="M33737 10709
L33737 11312
" />
<path d="M33737 11938
L33737 12542
" />
<path d="M33682 10733
L33682 11311
" />
<path d="M33682 11940
L33682 12518
" />
<path d="M33627 10761
L33627 11320
" />
<path d="M33627 11931
L33627 12490
" />
<path d="M33572 10793
L33572 11340
" />
<path d="M33572 11911
L33572 12458
" />
<path d="M33517 10831
L33517 11372
" />
<path d="M33517 11879
L33517 12420
" />
<path d="M33462 10874
L33462 11424
" />
<path d="M33462 11827
L33462 12377
" />
<path d="M33406 10925
L33406 11521
" />
<path d="M33406 11730
L33406 12326
" />
<path d="M33351 10983
L33351 12268
" />
<path d="M33296 11054
L33296 12197
" />
<path d="M33241 11140
L33241 12111
" />
<path d="M33186 11254
L33186 11997
" />
<path d="M33131 11440
L33131 11811
" />
<circle cx="33704.2" cy="11626" r="314.961" /> 
<circle cx="34097.9" cy="11626" r="999.016" /> 
<path d="M33147 13889
L33147 14362
" />
<path d="M33836 14362
L33836 13889
" />
<path d="M33147 16389
L33147 16862
" />
<path d="M33836 16862
L33836 16389
" />
<path d="M33147 18889
L33147 19362
" />
<path d="M33836 19362
L33836 18889
" />
<path d="M15210 14450
L15210 11301
" />
<path d="M15265 14448
L15265 11303
" />
<path d="M15320 14444
L15320 11307
" />
<path d="M15375 14438
L15375 11313
" />
<path d="M15430 14430
L15430 11321
" />
<path d="M15485 14420
L15485 12963
" />
<path d="M15485 12788
L15485 11331
" />
<path d="M15540 14409
L15540 13092
" />
<path d="M15540 12659
L15540 11342
" />
<path d="M15595 14394
L15595 13159
" />
<path d="M15595 12592
L15595 11357
" />
<path d="M15651 14378
L15651 13203
" />
<path d="M15651 12548
L15651 11373
" />
<path d="M15706 14360
L15706 13234
" />
<path d="M15706 12517
L15706 11391
" />
<path d="M15761 14339
L15761 13254
" />
<path d="M15761 12497
L15761 11412
" />
<path d="M15816 14316
L15816 13266
" />
<path d="M15816 12485
L15816 11435
" />
<path d="M15871 14290
L15871 13269
" />
<path d="M15871 12482
L15871 11461
" />
<path d="M15926 14262
L15926 13265
" />
<path d="M15926 12486
L15926 11488
" />
<path d="M15981 14231
L15981 13253
" />
<path d="M15981 12498
L15981 11520
" />
<path d="M16036 14197
L16036 13232
" />
<path d="M16036 12519
L16036 11554
" />
<path d="M16091 14160
L16091 13200
" />
<path d="M16091 12551
L16091 11591
" />
<path d="M16147 14119
L16147 13155
" />
<path d="M16147 12596
L16147 11632
" />
<path d="M16202 14074
L16202 13086
" />
<path d="M16202 12665
L16202 11677
" />
<path d="M16257 14025
L16257 12944
" />
<path d="M16257 12807
L16257 11726
" />
<path d="M16312 13970
L16312 11781
" />
<path d="M16367 13911
L16367 11840
" />
<path d="M16422 13844
L16422 11907
" />
<path d="M16477 13768
L16477 11983
" />
<path d="M16532 13683
L16532 12068
" />
<path d="M16588 13582
L16588 12169
" />
<path d="M16643 13459
L16643 12292
" />
<path d="M16698 13296
L16698 12455
" />
<path d="M16753 12954
L16753 12797
" />
<circle cx="15869.5" cy="12876" r="393.701" /> 
<circle cx="15180.5" cy="12876" r="1589.57" /> 
<path d="M6991 13604
L6991 12804
" />
<path d="M6991 20804
L6991 21404
" />
<path d="M5491 13704
L8491 13704
" />
<path d="M8491 13704
L8491 20704
" />
<path d="M8491 20704
L5491 20704
" />
<path d="M5491 20704
L5491 13704
" />
</g>
<g style="fill:#000000; fill-opacity:1.0; 
stroke:#000000; stroke-width:0; stroke-opacity:1; 
stroke-linecap:round; stroke-linejoin:round;">
<circle cx="33865.6" cy="28126" r="492.126" /> 
</g>
<g style="fill:#000000; fill-opacity:1.0; 
stroke:#000000; stroke-width:39.3701; stroke-opacity:1; 
stroke-linecap:round; stroke-linejoin:round;">
</g>
<g style="fill:#000000; fill-opacity:1.0; 
stroke:#000000; stroke-width:0; stroke-opacity:1; 
stroke-linecap:round; stroke-linejoin:round;">
<circle cx="31897.1" cy="28126" r="492.126" /> 
</g>
<g style="fill:#000000; fill-opacity:1.0; 
stroke:#000000; stroke-width:39.3701; stroke-opacity:1; 
stroke-linecap:round; stroke-linejoin:round;">
</g>
<g style="fill:#000000; fill-opacity:1.0; 
stroke:#000000; stroke-width:0; stroke-opacity:1; 
stroke-linecap:round; stroke-linejoin:round;">
<circle cx="29928.6" cy="28126" r="492.126" /> 
</g>
<g style="fill:#000000; fill-opacity:1.0; 
stroke:#000000; stroke-width:39.3701; stroke-opacity:1; 
stroke-linecap:round; stroke-linejoin:round;">
</g>
<g style="fill:#000000; fill-opacity:1.0; 
stroke:#000000; stroke-width:0; stroke-opacity:1; 
stroke-linecap:round; stroke-linejoin:round;">
<polyline style="fill-rule:evenodd;"
points="25499,28618
25499,27633
26483,27633
26483,28618
25499,28618
" /> 
<circle cx="27960.1" cy="28126" r="492.126" /> 
</g>
<g style="fill:#000000; fill-opacity:1.0; 
stroke:#000000; stroke-width:39.3701; stroke-opacity:1; 
stroke-linecap:round; stroke-linejoin:round;">
</g>
<g style="fill:#000000; fill-opacity:1.0; 
stroke:#000000; stroke-width:0; stroke-opacity:1; 
stroke-linecap:round; stroke-linejoin:round;">
<polyline style="fill-rule:evenodd;"
points="42591,9025
42591,8225
43391,8225
43391,9025
42591,9025
" /> 
</g>
<g style="fill:#000000; fill-opacity:1.0; 
stroke:#000000; stroke-width:800; stroke-opacity:1; 
stroke-linecap:round; stroke-linejoin:round;">
</g>
<g style="fill:#000000; fill-opacity:0.0; 
stroke:#000000; stroke-width:800; stroke-opacity:1; 
stroke-linecap:round; stroke-linejoin:round;">
<path d="M42991 7625
L42991 7625
" />
</g>
<g style="fill:#000000; fill-opacity:0.0; 
stroke:#000000; stroke-width:0; stroke-opacity:1; 
stroke-linecap:round; stroke-linejoin:round;">
</g>
<g style="fill:#000000; fill-opacity:1.0; 
stroke:#000000; stroke-width:0; stroke-opacity:1; 
stroke-linecap:round; stroke-linejoin:round;">
<polyline style="fill-rule:evenodd;"
points="43391,10225
43391,11025
42591,11025
42591,10225
43391,10225
" /> 
</g>
<g style="fill:#000000; fill-opacity:1.0; 
stroke:#000000; stroke-width:800; stroke-opacity:1; 
stroke-linecap:round; stroke-linejoin:round;">
</g>
<g style="fill:#000000; fill-opacity:0.0; 
stroke:#000000; stroke-width:800; stroke-opacity:1; 
stroke-linecap:round; stroke-linejoin:round;">
<path d="M42991 11625
L42991 11625
" />
</g>
<g style="fill:#000000; fill-opacity:0.0; 
stroke:#000000; stroke-width:0; stroke-opacity:1; 
stroke-linecap:round; stroke-linejoin:round;">
</g>
<g style="fill:#000000; fill-opacity:1.0; 
stroke:#000000; stroke-width:0; stroke-opacity:1; 
stroke-linecap:round; stroke-linejoin:round;">
<polyline style="fill-rule:evenodd;"
points="34747,11370
34747,11881
34235,11881
34235,11370
34747,11370
" /> 
<circle cx="33704.2" cy="11626" r="255.906" /> 
</g>
<g style="fill:#000000; fill-opacity:1.0; 
stroke:#000000; stroke-width:39.3701; stroke-opacity:1; 
stroke-linecap:round; stroke-linejoin:round;">
</g>
<g style="fill:#000000; fill-opacity:1.0; 
stroke:#000000; stroke-width:0; stroke-opacity:1; 
stroke-linecap:round; stroke-linejoin:round;">
<circle cx="19991.6" cy="4125.98" r="393.5" /> 
</g>
<g style="fill:#000000; fill-opacity:1.0; 
stroke:#000000; stroke-width:39.3701; stroke-opacity:1; 
stroke-linecap:round; stroke-linejoin:round;">
</g>
<g style="fill:#000000; fill-opacity:1.0; 
stroke:#000000; stroke-width:0; stroke-opacity:1; 
stroke-linecap:round; stroke-linejoin:round;">
<circle cx="19991.6" cy="8125.98" r="393.5" /> 
</g>
<g style="fill:#000000; fill-opacity:1.0; 
stroke:#000000; stroke-width:39.3701; stroke-opacity:1; 
stroke-linecap:round; stroke-linejoin:round;">
</g>
<g style="fill:#000000; fill-opacity:1.0; 
stroke:#000000; stroke-width:0; stroke-opacity:1; 
stroke-linecap:round; stroke-linejoin:round;">
<circle cx="26991.6" cy="4125.98" r="393.5" /> 
</g>
<g style="fill:#000000; fill-opacity:1.0; 
stroke:#000000; stroke-width:39.3701; stroke-opacity:1; 
stroke-linecap:round; stroke-linejoin:round;">
</g>
<g style="fill:#000000; fill-opacity:1.0; 
stroke:#000000; stroke-width:0; stroke-opacity:1; 
stroke-linecap:round; stroke-linejoin:round;">
<circle cx="26991.6" cy="8125.98" r="393.5" /> 
</g>
<g style="fill:#000000; fill-opacity:1.0; 
stroke:#000000; stroke-width:39.3701; stroke-opacity:1; 
stroke-linecap:round; stroke-linejoin:round;">
</g>
<g style="fill:#000000; fill-opacity:1.0; 
stroke:#000000; stroke-width:0; stroke-opacity:1; 
stroke-linecap:round; stroke-linejoin:round;">
<circle cx="28491.6" cy="4125.98" r="393.5" /> 
</g>
<g style="fill:#000000; fill-opacity:1.0; 
stroke:#000000; stroke-width:39.3701; stroke-opacity:1; 
stroke-linecap:round; stroke-linejoin:round;">
</g>
<g style="fill:#000000; fill-opacity:1.0; 
stroke:#000000; stroke-width:0; stroke-opacity:1; 
stroke-linecap:round; stroke-linejoin:round;">
<circle cx="28491.6" cy="8125.98" r="393.5" /> 
</g>
<g style="fill:#000000; fill-opacity:1.0; 
stroke:#000000; stroke-width:39.3701; stroke-opacity:1; 
stroke-linecap:round; stroke-linejoin:round;">
</g>
<g style="fill:#000000; fill-opacity:1.0; 
stroke:#000000; stroke-width:0; stroke-opacity:1; 
stroke-linecap:round; stroke-linejoin:round;">
<circle cx="25991.6" cy="21626" r="393.5" /> 
</g>
<g style="fill:#000000; fill-opacity:1.0; 
stroke:#000000; stroke-width:39.3701; stroke-opacity:1; 
stroke-linecap:round; stroke-linejoin:round;">
</g>
<g style="fill:#000000; fill-opacity:1.0; 
stroke:#000000; stroke-width:0; stroke-opacity:1; 
stroke-linecap:round; stroke-linejoin:round;">
<circle cx="25991.6" cy="17626" r="393.5" /> 
</g>
<g style="fill:#000000; fill-opacity:1.0; 
stroke:#000000; stroke-width:39.3701; stroke-opacity:1; 
stroke-linecap:round; stroke-linejoin:round;">
</g>
<g style="fill:#000000; fill-opacity:1.0; 
stroke:#000000; stroke-width:0; stroke-opacity:1; 
stroke-linecap:round; stroke-linejoin:round;">
<circle cx="19991.6" cy="21626" r="393.5" /> 
</g>
<g style="fill:#000000; fill-opacity:1.0; 
stroke:#000000; stroke-width:39.3701; stroke-opacity:1; 
stroke-linecap:round; stroke-linejoin:round;">
</g>
<g style="fill:#000000; fill-opacity:1.0; 
stroke:#000000; stroke-width:0; stroke-opacity:1; 
stroke-linecap:round; stroke-linejoin:round;">
<circle cx="19991.6" cy="17626" r="393.5" /> 
</g>
<g style="fill:#000000; fill-opacity:1.0; 
stroke:#000000; stroke-width:39.3701; stroke-opacity:1; 
stroke-linecap:round; stroke-linejoin:round;">
</g>
<g style="fill:#000000; fill-opacity:1.0; 
stroke:#000000; stroke-width:0; stroke-opacity:1; 
stroke-linecap:round; stroke-linejoin:round;">
<circle cx="13991.6" cy="21626" r="393.5" /> 
</g>
<g style="fill:#000000; fill-opacity:1.0; 
stroke:#000000; stroke-width:39.3701; stroke-opacity:1; 
stroke-linecap:round; stroke-linejoin:round;">
</g>
<g style="fill:#000000; fill-opacity:1.0; 
stroke:#000000; stroke-width:0; stroke-opacity:1; 
stroke-linecap:round; stroke-linejoin:round;">
<circle cx="13991.6" cy="17626" r="393.5" /> 
</g>
<g style="fill:#000000; fill-opacity:1.0; 
stroke:#000000; stroke-width:39.3701; stroke-opacity:1; 
stroke-linecap:round; stroke-linejoin:round;">
</g>
<g style="fill:#000000; fill-opacity:1.0; 
stroke:#000000; stroke-width:0; stroke-opacity:1; 
stroke-linecap:round; stroke-linejoin:round;">
<circle cx="24491.6" cy="25626" r="393.5" /> 
</g>
<g style="fill:#000000; fill-opacity:1.0; 
stroke:#000000; stroke-width:39.3701; stroke-opacity:1; 
stroke-linecap:round; stroke-linejoin:round;">
</g>
<g style="fill:#000000; fill-opacity:1.0; 
stroke:#000000; stroke-width:0; stroke-opacity:1; 
stroke-linecap:round; stroke-linejoin:round;">
<circle cx="28491.6" cy="25626" r="393.5" /> 
</g>
<g style="fill:#000000; fill-opacity:1.0; 
stroke:#000000; stroke-width:39.3701; stroke-opacity:1; 
stroke-linecap:round; stroke-linejoin:round;">
</g>
<g style="fill:#000000; fill-opacity:1.0; 
stroke:#000000; stroke-width:0; stroke-opacity:1; 
stroke-linecap:round; stroke-linejoin:round;">
<circle cx="19991.6" cy="28126" r="393.5" /> 
</g>
<g style="fill:#000000; fill-opacity:1.0; 
stroke:#000000; stroke-width:39.3701; stroke-opacity:1; 
stroke-linecap:round; stroke-linejoin:round;">
</g>
<g style="fill:#000000; fill-opacity:1.0; 
stroke:#000000; stroke-width:0; stroke-opacity:1; 
stroke-linecap:round; stroke-linejoin:round;">
<circle cx="23991.6" cy="28126" r="393.5" /> 
</g>
<g style="fill:#000000; fill-opacity:1.0; 
stroke:#000000; stroke-width:39.3701; stroke-opacity:1; 
stroke-linecap:round; stroke-linejoin:round;">
</g>
<g style="fill:#000000; fill-opacity:1.0; 
stroke:#000000; stroke-width:0; stroke-opacity:1; 
stroke-linecap:round; stroke-linejoin:round;">
<circle cx="14491.6" cy="28126" r="393.5" /> 
</g>
<g style="fill:#000000; fill-opacity:1.0; 
stroke:#000000; stroke-width:39.3701; stroke-opacity:1; 
stroke-linecap:round; stroke-linejoin:round;">
</g>
<g style="fill:#000000; fill-opacity:1.0; 
stroke:#000000; stroke-width:0; stroke-opacity:1; 
stroke-linecap:round; stroke-linejoin:round;">
<circle cx="18491.6" cy="28126" r="393.5" /> 
</g>
<g style="fill:#000000; fill-opacity:1.0; 
stroke:#000000; stroke-width:39.3701; stroke-opacity:1; 
stroke-linecap:round; stroke-linejoin:round;">
</g>
<g style="fill:#000000; fill-opacity:1.0; 
stroke:#000000; stroke-width:0; stroke-opacity:1; 
stroke-linecap:round; stroke-linejoin:round;">
<circle cx="15869.5" cy="12876" r="255.906" /> 
</g>
<g style="fill:#000000; fill-opacity:1.0; 
stroke:#000000; stroke-width:39.3701; stroke-opacity:1; 
stroke-linecap:round; stroke-linejoin:round;">
</g>
<g style="fill:#000000; fill-opacity:1.0; 
stroke:#000000; stroke-width:0; stroke-opacity:1; 
stroke-linecap:round; stroke-linejoin:round;">
<polyline style="fill-rule:evenodd;"
points="14235,13131
14235,12620
14747,12620
14747,13131
14235,13131
" /> 
<circle cx="6991.56" cy="12205" r="393.5" /> 
</g>
<g style="fill:#000000; fill-opacity:1.0; 
stroke:#000000; stroke-width:39.3701; stroke-opacity:1; 
stroke-linecap:round; stroke-linejoin:round;">
</g>
<g style="fill:#000000; fill-opacity:1.0; 
stroke:#000000; stroke-width:0; stroke-opacity:1; 
stroke-linecap:round; stroke-linejoin:round;">
<circle cx="6991.56" cy="22048" r="453" /> 
</g>
<g style="fill:#000000; fill-opacity:1.0; 
stroke:#000000; stroke-width:39.3701; stroke-opacity:1; 
stroke-linecap:round; stroke-linejoin:round;">
</g>
<g style="fill:#000000; fill-opacity:1.0; 
stroke:#000000; stroke-width:0; stroke-opacity:1; 
stroke-linecap:round; stroke-linejoin:round;">
<circle cx="8241.56" cy="14626" r="393.5" /> 
</g>
<g style="fill:#000000; fill-opacity:1.0; 
stroke:#000000; stroke-width:39.3701; stroke-opacity:1; 
stroke-linecap:round; stroke-linejoin:round;">
</g>
<g style="fill:#000000; fill-opacity:1.0; 
stroke:#000000; stroke-width:0; stroke-opacity:1; 
stroke-linecap:round; stroke-linejoin:round;">
<circle cx="8241.56" cy="18626" r="393.5" /> 
</g>
<g style="fill:#000000; fill-opacity:1.0; 
stroke:#000000; stroke-width:39.3701; stroke-opacity:1; 
stroke-linecap:round; stroke-linejoin:round;">
</g> 
</svg>
